<svg width="48" height="48" viewBox="0 0 48 48" fill="none" xmlns="http://www.w3.org/2000/svg">
<path d="M0 24C0 10.7452 10.7452 0 24 0C37.2548 0 48 10.7452 48 24C48 37.2548 37.2548 48 24 48C10.7452 48 0 37.2548 0 24Z" fill="white"/>
<path d="M13.7 26.5935L14.6895 19.1589L6.10657 13.2006L13.9487 15.8569L15.8007 13.0154L22.5633 8.81915L37.4697 17.0317L38.2423 29.5621L31.6013 38.7906L26.3521 39.5949L29.0667 34.6261V29.8426L27.0929 26.1067L25.0874 24.7785L22.0024 27.9588V31.3242L19.5948 33.5784L16.5362 33.9488L15.1816 34.7161L12.9591 34.007L12.0331 30.6733L13.7 28.3292V26.5935Z" fill="white"/>
<path d="M27.405 13.1371C25.7699 12.7984 23.9814 12.8884 23.9814 12.8884C23.9814 12.8884 23.394 15.603 19.7534 16.3173C19.7799 16.3173 24.5635 17.9524 27.405 13.1371Z" fill="#94A6C3"/>
<path d="M28.8867 37.7693C30.8604 36.2242 32.342 34.097 33.0247 31.6893C33.0564 31.5994 33.3316 31.4406 33.5168 31.3189C33.8237 31.1337 34.1359 30.9803 34.1941 30.7316C34.3158 30.0225 34.3793 29.2817 34.3793 28.5408C34.3793 28.2657 34.0988 27.9852 33.8237 27.7101C33.6067 27.5249 33.3898 27.3079 33.3898 27.1545C33.0829 24.3446 31.7864 21.72 29.7174 19.8098L29.5005 20.0267C31.506 21.9105 32.8024 24.4716 33.0829 27.1862C33.1146 27.4349 33.358 27.6783 33.6067 27.927C33.8237 28.1122 34.0724 28.3927 34.0724 28.5144C34.0724 29.2235 34.0089 29.9325 33.8872 30.6416C33.8554 30.7633 33.5803 30.8903 33.3633 31.012C33.0564 31.1655 32.7759 31.3189 32.7177 31.5676C31.9769 34.1922 30.2783 36.4782 28.0241 37.9598C28.4263 37.0973 29.691 34.2875 30.3683 32.8641L30.2466 28.2974L26.3255 24.5034L24.1031 24.8103L21.6637 28.7631C21.6637 28.7631 22.8066 30.213 21.198 31.9116C19.6264 33.5784 18.3882 33.9488 18.3882 33.9488L17.2452 33.3297C17.5839 32.8958 18.2665 32.2502 18.7904 31.8163C19.6846 31.0755 20.5789 31.012 20.5789 30.213C20.6159 28.5408 18.8221 29.0012 18.8221 29.0012L18.1712 29.6203L17.8961 31.9063L16.5414 33.6049L16.388 33.5731L14.1655 33.081C14.1655 33.081 15.5255 32.3719 15.7424 31.5676C15.9594 30.7951 15.3085 28.2339 15.2768 28.0805C15.3085 28.1122 15.9276 28.6361 16.2028 29.4986C16.6949 28.1387 17.3458 26.8422 17.531 26.7205C17.7162 26.5988 20.2138 25.2707 20.2138 25.2707L19.383 27.4614L20.0021 27.1227L21.4838 23.4821C21.4838 23.4821 22.9336 22.773 24.0131 22.773C25.9551 22.7413 28.8284 20.3654 27.532 16.1057C27.9024 16.2591 34.3211 19.4711 35.4323 25.7681C36.2631 30.6098 33.5168 35.1447 28.8867 37.7693Z" fill="#94A6C3"/>
<path d="M21.5421 13.8145C22.2511 12.9784 21.976 11.7455 21.976 11.7455L19.907 14.804C19.8752 14.804 20.6425 14.8358 21.5421 13.8145Z" fill="#1B314F"/>
<path d="M14.5941 30.5146L14.8428 29.2817C14.8428 29.2817 13.8216 31.0702 13.7316 31.3189C13.6364 31.5994 13.7951 32.0915 14.192 32.0597C14.5941 32.028 15.0863 31.4406 15.0863 31.012C15.0863 30.4564 14.5941 30.5146 14.5941 30.5146Z" fill="#1B314F"/>
<path d="M32.9295 10.8828C32.9295 10.8828 34.4746 10.9463 36.078 11.1315C32.4638 8.28994 29.0402 7.45916 26.2621 7.45916C22.4363 7.45916 19.8435 9.03605 19.6847 9.126L20.8912 7.21046C20.8912 7.21046 16.0759 6.7448 14.3773 11.8406C13.9434 10.7611 13.5465 9.18421 13.5465 9.18421C13.5465 9.18421 11.0436 11.3802 12.2183 15.0208C9.34498 13.9731 5.24402 12.5179 5.08527 12.4914C4.86832 12.4597 4.80482 12.5549 4.80482 12.5549C4.80482 12.5549 4.74132 12.6449 4.92652 12.8036C5.27048 13.0735 11.7526 17.8624 13.1761 18.7884C12.8692 19.8996 12.8692 20.4235 13.1761 20.9473C13.61 21.6564 13.6364 22.0268 13.5782 22.5507C13.5147 23.0746 12.9591 27.6147 12.8374 28.1703C12.7157 28.7259 11.4193 30.6997 11.4775 31.2871C11.541 31.8744 12.34 34.372 13.0544 34.6525C13.5782 34.8377 14.8747 35.2399 15.7372 35.2399C16.0441 35.2399 16.3246 35.1764 16.4463 35.0547C16.9701 34.5943 17.1236 34.499 17.494 34.499C17.5257 34.499 17.5575 34.499 17.584 34.499C17.7374 34.499 17.9226 34.5308 18.1396 34.5308C18.6317 34.5308 19.2825 34.4355 19.7429 34.0069C20.4202 33.3296 21.595 32.4036 21.9654 31.9697C22.431 31.3823 22.6744 30.5833 22.5527 29.779C22.4575 29.0381 22.8596 28.3873 23.3253 27.7417C23.9127 26.9691 24.9922 25.5828 24.9922 25.5828C27.1247 27.1808 28.4528 29.6202 28.4528 32.3348C28.4528 37.1501 24.2566 41.0394 19.0709 41.0394C18.2666 41.0394 17.4993 40.9494 16.7267 40.7642C19.1026 41.595 21.1081 41.8755 22.7485 41.8755C26.2357 41.8755 28.0877 40.6108 28.0877 40.6108C28.0877 40.6108 27.4421 41.4469 26.3891 42.3993C26.4209 42.3993 26.4209 42.3993 26.4209 42.3993C32.194 41.595 35.0038 36.8432 35.0038 36.8432C35.0038 36.8432 34.7868 38.3883 34.5117 39.4361C42.1897 33.663 40.8933 26.44 40.8616 26.1966C40.9251 26.2865 41.6976 27.2126 42.0945 27.71C43.3327 14.9891 32.9295 10.8828 32.9295 10.8828ZM21.1081 31.1971C20.9864 31.3506 20.4626 31.8162 20.0922 32.1549C19.7217 32.4935 19.3196 32.8322 19.0127 33.1444C18.891 33.2661 18.6423 33.3296 18.2719 33.3296C18.1502 33.3296 18.0232 33.3296 17.9332 33.3296C17.8697 33.3296 17.8115 33.3296 17.748 33.3296C17.6845 33.3296 17.6527 33.3296 17.6263 33.3296C17.531 33.3296 17.4411 33.3296 17.3458 33.3296C17.8115 32.7105 19.1661 31.2924 19.6318 30.9854C20.1874 30.615 20.4679 30.2446 20.1239 29.5991C19.7852 28.9482 18.891 29.1069 18.891 29.1069C18.891 29.1069 19.4148 28.89 19.8805 28.89C19.2931 28.7365 18.5523 28.89 18.2137 29.2286C17.8432 29.5673 17.9067 30.7738 17.7533 31.5411C17.5998 32.3454 17.076 32.7475 16.2716 33.4883C15.8377 33.8905 15.5308 34.0122 15.2821 34.0122C14.7583 33.9223 14.1391 33.7635 13.7052 33.6101C13.3983 33.2079 12.9327 31.8797 12.811 31.3241C12.9009 31.0172 13.2713 30.3663 13.4565 29.9959C13.8269 29.2868 14.0439 28.8847 14.1074 28.5143C14.2291 27.9904 14.6313 24.7467 14.7847 23.3921C15.1869 23.9159 15.7425 24.7837 15.6155 25.3393C16.5098 24.0747 15.8642 22.8364 15.552 22.3443C15.2768 21.8522 14.9064 20.8627 15.2133 19.815C15.5202 18.7672 16.6315 15.8622 16.6315 15.8622C16.6315 15.8622 17.0019 16.513 17.5257 16.386C18.0496 16.2643 22.2776 9.90386 22.2776 9.90386C22.2776 9.90386 23.4206 12.4015 22.2141 14.2271C20.9811 16.0474 19.7747 16.386 19.7747 16.386C19.7747 16.386 21.4733 16.6929 23.0449 15.55C23.6904 17.0633 24.3095 18.6349 24.3413 18.8519C24.246 19.0688 23.0131 22.0321 22.8914 22.2173C22.8279 22.2808 22.3993 22.4025 22.0871 22.466C21.5632 22.6195 21.2563 22.7147 21.1293 22.8047C20.9124 22.9899 19.9228 25.7045 19.4625 27.0326C18.9068 27.1861 18.3512 27.4983 17.9491 28.1121C18.166 27.9587 18.8433 27.8634 19.3408 27.8052C19.7747 27.7735 21.0976 28.4825 21.4415 29.8107C21.4415 29.8425 21.4415 29.8425 21.4415 29.8742C21.5103 30.361 21.3568 30.8267 21.1081 31.1971ZM18.2084 31.5675C18.4888 31.1654 18.4571 30.488 18.4888 30.2711C18.5206 30.0541 18.5788 29.652 18.8275 29.5938C19.0762 29.5303 19.6635 29.6255 19.6635 30.0541C19.6635 30.4563 19.2296 30.5462 18.9227 30.8267C18.7005 31.0384 18.2666 31.504 18.2084 31.5675ZM30.5218 25.6674C30.8287 24.0958 30.8605 22.7359 30.7705 21.6247C31.9717 23.228 32.7125 25.1753 32.9295 27.1808C32.9613 27.4295 33.2047 27.6729 33.4534 27.9216C33.6703 28.1068 33.919 28.3555 33.919 28.509C33.919 29.2181 33.8555 29.9271 33.7338 30.6415C33.7021 30.7314 33.4269 30.8902 33.21 31.0119C32.903 31.1654 32.6226 31.3188 32.5644 31.5675C31.8871 33.9434 30.4319 36.0442 28.4899 37.5258C31.3579 34.5308 32.7443 29.5885 30.5218 25.6674ZM28.5798 37.801C30.5853 36.2558 32.1305 34.0969 32.8078 31.6575C32.8395 31.5675 33.1147 31.4088 33.2999 31.2871C33.6068 31.1336 33.919 30.9484 33.9772 30.6997C34.0989 29.9906 34.1624 29.2498 34.1624 28.509C34.1624 28.2338 33.882 27.9534 33.6068 27.6782C33.4534 27.493 33.2047 27.2761 33.2047 27.1226C32.956 24.8684 32.0617 22.7412 30.6753 20.9791C30.0562 17.275 27.5903 16.132 27.5268 16.1003C27.5903 16.1955 29.1937 18.5079 28.0824 21.2225C26.9394 23.9688 24.0079 23.5402 23.7592 23.5667C23.5105 23.5667 22.558 24.7996 21.3516 27.0856C21.1981 27.0221 20.5472 26.8686 19.8064 26.9956C20.362 25.4505 21.1981 23.2598 21.3516 23.0746C21.4151 23.0111 21.8754 22.8894 22.1876 22.7994C22.775 22.6459 23.0501 22.5507 23.1454 22.429C23.2089 22.3337 23.5158 21.6247 23.8227 20.8839C24.1032 20.8839 24.8122 20.8204 24.8704 20.7886C24.9339 20.7251 25.5213 19.217 25.5213 19.0318C25.5213 18.8784 24.3148 15.8833 23.8545 14.7403C24.0714 14.4916 24.2884 14.1847 24.5 13.8461C30.8287 14.5287 35.7711 19.8996 35.7711 26.4082C35.7711 31.4088 32.8395 35.7637 28.5798 37.801Z" fill="#1B314F"/>
<path d="M20.3674 21.1327C20.9547 20.4554 20.6478 19.1907 19.5631 18.9737C19.8435 18.3282 20.2404 17.0317 20.2404 17.0317C20.2404 17.0317 17.0919 21.9688 16.8167 22.064C16.5363 22.1593 16.2611 21.0745 16.2611 21.0745C15.6738 23.3287 17.2506 23.6356 17.4358 22.9265C18.2984 22.7043 19.78 21.7783 20.3674 21.1327Z" fill="#1B314F"/>
<path d="M17.6792 22.3338L19.2825 19.5875C19.2825 19.5875 20.2086 20.0532 19.7429 20.794C19.1608 21.6565 17.6792 22.3338 17.6792 22.3338Z" fill="#FFD923"/>
<path d="M37.5279 35.0548C37.0622 35.674 36.5384 36.3195 35.9246 36.9386C39.9038 29.2817 36.1098 22.2757 35.9563 22.0005C36.2368 22.281 36.5119 22.5879 36.7606 22.8631C39.8139 26.255 40.1843 31.3507 37.5279 35.0548Z" fill="#D82122"/>
<path d="M41.2319 25.2072C39.8403 21.4713 37.8665 18.2911 33.5168 15.4231C29.3206 12.645 24.8122 12.8619 24.5635 12.8937C24.5318 12.8937 24.5 12.8937 24.5 12.8937C24.6535 12.8302 24.8069 12.7984 24.9604 12.772C25.9181 12.4651 27.1511 12.2164 28.3893 12.0629C31.6648 11.592 34.9667 12.7032 37.2209 15.0844C37.2527 15.1161 37.2527 15.1161 37.2844 15.1479C39.8455 17.8625 41.1737 21.2544 41.2319 25.2072Z" fill="#D82122"/>
<path d="M32.5274 9.92511C27.929 9.06258 24.9657 9.4912 22.8332 10.2955C22.7697 10.0468 22.5528 9.5547 22.3676 9.15254C21.7273 9.92511 21.0447 10.8511 20.6161 11.4385C19.4413 12.2428 18.9492 13.0154 18.9492 13.0154C19.6265 10.6977 21.6056 8.97263 24.0133 8.53872C24.6906 8.41701 25.4314 8.35352 26.2357 8.35352C28.3629 8.38526 30.4901 8.90913 32.5274 9.92511Z" fill="#D82122"/>
<path d="M15.5203 15.8517C11.9114 15.73 13.1126 11.5285 13.1761 11.2851C13.1761 11.3168 13.4195 14.587 15.5203 15.8517Z" fill="#D82122"/>
<path d="M19.0709 8.28992C16.2928 9.95676 16.8484 13.936 16.8484 13.936C14.1921 9.89855 18.854 8.38517 19.0709 8.28992Z" fill="#D82122"/>
<path d="M14.5042 16.963C14.6894 17.1164 14.8746 17.3969 14.6577 17.7991C14.536 18.016 14.3507 17.9843 14.0703 17.8626C13.6999 17.6774 11.4774 16.3809 9.47192 15.0527C11.7579 15.8571 14.0703 16.7196 14.4407 16.9048C14.4407 16.9048 14.4725 16.9365 14.5042 16.963Z" fill="white"/>
</svg>
