<svg width="48" height="48" viewBox="0 0 48 48" fill="none" xmlns="http://www.w3.org/2000/svg">
<path d="M24 0C10.7451 0 0 10.7451 0 24C0 37.2549 10.7451 48 24 48C37.2549 48 48 37.2549 48 24C48 10.7451 37.2549 0 24 0Z" fill="white"/>
<g clip-path="url(#clip0_2_3759)">
<path d="M12.4034 28.844C10.9609 28.844 9.51852 28.844 8.07609 28.844C7.84714 28.844 7.61818 28.8888 7.38923 28.844C7.22896 28.7991 7.11448 28.6645 7 28.5748C7.09158 28.4851 7.18316 28.3729 7.27475 28.2832C7.29764 28.2608 7.29764 28.2608 7.32054 28.2608C9.19798 27.7449 8.83165 27.3636 8.83165 26.0627C8.85455 23.6627 8.83165 21.2627 8.83165 18.8627C8.83165 17.943 8.76296 17.8758 7.84714 17.6739C7.77845 17.6515 7.68687 17.6515 7.64108 17.6066C7.45791 17.4944 7.32054 17.3374 7.16027 17.2253C7.34343 17.1356 7.5037 17.0234 7.68687 17.0234C9.17508 17.001 10.6633 17.001 12.1286 17.0234C12.2889 17.0234 12.4721 17.1804 12.6323 17.2477C12.4949 17.3599 12.3576 17.5393 12.1973 17.6066C11.831 17.7412 11.4418 17.8309 11.0525 17.9206C10.6175 18.0103 10.4343 18.2795 10.4343 18.7057C10.4343 21.4421 10.4343 24.1786 10.4343 26.915C10.4343 27.6552 10.6862 27.9468 11.4418 27.9916C12.3347 28.0365 13.2276 28.0365 14.1205 28.0141C15.0822 27.9916 15.7461 27.4757 16.1811 26.6683C16.2498 26.5337 16.2956 26.3767 16.3872 26.2645C16.5475 26.0851 16.7306 25.9505 16.9138 25.7935C16.9596 26.0402 17.0512 26.287 17.0054 26.5113C16.8909 27.1393 16.7077 27.7673 16.5933 28.4178C16.5246 28.7767 16.3643 28.8664 16.0209 28.8664C14.8303 28.844 13.6168 28.844 12.4034 28.844Z" fill="black"/>
<path d="M21.5845 29C19.4781 29.0448 17.8754 27.5644 17.8296 25.5009C17.7609 23.2579 19.5926 21.3065 21.8135 21.2616C23.897 21.2168 25.7057 22.8542 25.7057 24.8953C25.6828 27.1158 24.2175 29.0224 21.5845 29ZM24.0572 25.5458C24.103 24.671 23.897 23.8411 23.4162 23.1009C22.9354 22.3383 22.2943 21.8448 21.3098 21.9345C20.5313 22.0018 19.9589 22.428 19.73 23.1009C19.2263 24.5588 19.2949 25.9944 20.165 27.3177C20.6916 28.1252 21.47 28.5065 22.4545 28.2822C23.3704 28.0803 23.8054 27.4523 23.9428 26.6C24.0114 26.2411 24.0343 25.9046 24.0572 25.5458Z" fill="black"/>
<path d="M30.5825 29C28.4761 29.0224 26.8963 27.5196 26.8734 25.4561C26.8276 23.2131 28.6821 21.2841 30.903 21.2392C32.9636 21.2168 34.7037 22.8542 34.7495 24.8505C34.7953 27.2505 33.0552 28.9776 30.5825 29ZM33.0781 25.5009C33.1239 24.6486 32.9178 23.8411 32.4599 23.1009C31.9791 22.3159 31.3151 21.8224 30.3077 21.9121C29.5064 22.0019 28.9569 22.4505 28.7279 23.1682C28.27 24.5589 28.3387 25.9047 29.1172 27.1832C29.6895 28.1028 30.4451 28.4617 31.4754 28.2598C32.437 28.0804 32.8491 27.4075 32.9865 26.5327C33.0552 26.2187 33.0552 25.8598 33.0781 25.5009Z" fill="black"/>
<path d="M41 27.5196C40.9084 27.8112 40.8855 28.0355 40.771 28.1476C40.0155 28.8878 39.0996 29.1794 38.0693 28.9102C37.3138 28.7084 36.833 28.013 36.833 27.1158C36.8101 25.7925 36.8101 24.4691 36.833 23.1457C36.833 22.7644 36.833 22.428 36.2835 22.4728C36.169 22.4728 35.9858 22.3383 35.9629 22.2485C35.94 22.114 35.9858 21.9121 36.1003 21.7999C36.6498 21.2841 37.1993 20.7906 37.7717 20.2971C37.8633 20.2074 38.0693 20.1626 38.1609 20.2074C38.2525 20.2523 38.2983 20.4541 38.2983 20.5663C38.2983 21.4635 38.2983 21.4635 39.237 21.4635C39.6262 21.4635 39.9926 21.4859 40.3818 21.4635C40.7481 21.4411 40.9313 21.5756 40.9313 21.9345C40.9313 22.271 40.8168 22.4953 40.4047 22.4728C39.8781 22.4504 39.3286 22.4953 38.802 22.4728C38.3441 22.4504 38.1838 22.6298 38.2067 23.056C38.2296 24.1327 38.2067 25.2093 38.2067 26.2859C38.2296 27.7214 39.0538 28.2373 40.4276 27.6766C40.565 27.6541 40.7023 27.6093 41 27.5196Z" fill="black"/>
</g>
<defs>
<clipPath id="clip0_2_3759">
<rect width="34" height="12" fill="white" transform="translate(7 17)"/>
</clipPath>
</defs>
</svg>
