<svg width="49" height="48" viewBox="0 0 49 48" fill="none" xmlns="http://www.w3.org/2000/svg">
<path d="M0 24C0 10.7452 10.7452 0 24 0H24.6058C37.8607 0 48.6058 10.7452 48.6058 24C48.6058 37.2548 37.8606 48 24.6058 48H24C10.7452 48 0 37.2548 0 24Z" fill="white"/>
<path d="M7.02498 20.0571C7.07713 19.0945 7.20948 18.1519 7.57046 17.2494C7.83919 16.5756 8.23627 15.994 8.78977 15.5208C9.03844 15.2199 9.38338 15.0635 9.72831 14.9312C10.4061 14.6705 11.1081 14.5983 11.834 14.6584C13.3421 14.7828 14.7138 15.3162 16.0334 16.0181C16.4866 16.2588 16.9278 16.5235 17.377 16.8163C17.1925 15.9981 17.0682 15.1919 16.98 14.3777C16.8797 13.4431 16.8356 12.5046 16.9038 11.562C16.9559 10.82 17.0522 10.086 17.2808 9.3761C17.5936 8.38542 18.095 7.51907 18.9453 6.88535C19.583 6.41207 20.305 6.14334 21.0911 6.06312C22.2462 5.94681 23.3974 5.97889 24.5324 6.26367C26.1809 6.67679 27.3481 7.64742 27.9898 9.23171C28.2946 9.98576 28.4671 10.7719 28.5313 11.5821C28.5353 11.6302 28.5433 11.6743 28.5553 11.7185C28.6396 12.3923 28.6035 13.0701 28.6155 13.78C28.808 13.6718 28.9484 13.5434 29.1088 13.4391C30.0354 12.8054 31.026 12.3081 32.0929 11.9631C32.482 11.8388 32.875 11.7425 33.2761 11.6663C33.3162 11.6583 33.3604 11.6543 33.4005 11.6463C33.5368 11.6102 33.6812 11.6062 33.8216 11.5741C34.0101 11.5741 34.1906 11.5259 34.3791 11.5259C34.6118 11.5219 34.8404 11.5299 35.073 11.5299C35.3056 11.5139 35.5383 11.558 35.7669 11.5821C36.2682 11.6703 36.7616 11.7746 37.2349 11.9671C38.1814 12.3482 38.9836 12.9217 39.6574 13.6918C40.3473 14.4819 40.8607 15.3684 41.2136 16.355C41.3139 16.6398 41.3701 16.9366 41.4142 17.2334C41.4222 17.2936 41.4383 17.3537 41.3901 17.4019C41.3901 17.442 41.3901 17.4781 41.3901 17.5182C41.4102 17.7308 41.4102 17.9473 41.3901 18.1599C41.2939 19.4033 40.7644 20.4622 39.9903 21.4167C39.3767 22.1748 38.6467 22.8085 37.8445 23.358C37.64 23.4984 37.64 23.4984 37.8405 23.6508C39.0759 24.6214 40.0906 25.7766 40.7404 27.2205C41.5987 29.1216 41.5987 31.0428 40.8647 32.9761C40.5358 33.8424 40.1227 34.6607 39.493 35.3545C38.7189 36.2129 37.7523 36.7022 36.6172 36.8747C35.1693 37.0953 33.7895 36.8025 32.4539 36.273C30.7774 35.6112 29.3014 34.6286 27.9978 33.3852C27.8735 33.2649 27.7411 33.1486 27.6208 33.0242C27.5326 32.936 27.4965 32.932 27.4523 33.0643C27.0673 34.2235 26.4657 35.2663 25.7197 36.2249C24.6608 37.5886 23.4014 38.7116 21.8131 39.4296C20.9668 39.8106 20.0844 40.0152 19.1579 39.9991C17.8303 39.971 16.6551 39.5018 15.6042 38.7197C14.6978 38.0458 13.8956 37.2637 13.3902 36.2289C12.9049 35.2342 12.7445 34.1793 12.8327 33.0764C12.937 31.8009 13.3341 30.6137 13.8996 29.4746C13.9157 29.4465 13.9197 29.4104 13.9317 29.3823C13.9758 29.1176 14.1643 28.9211 14.2766 28.6885C14.3328 28.5762 14.4812 28.4598 14.4371 28.3636C14.3849 28.2513 14.2205 28.3596 14.1082 28.3556C12.7966 28.2994 11.5011 28.163 10.3099 27.5454C9.23096 26.9838 8.40071 26.1736 7.85924 25.0787C7.63865 24.6335 7.47019 24.1722 7.32981 23.6989C7.29772 23.5866 7.30976 23.4783 7.29371 23.37C7.24959 23.1454 7.20547 22.9208 7.16135 22.6922C7.03702 22.1748 6.96081 21.6574 7.02097 21.1199C7.04905 20.775 6.99691 20.414 7.02498 20.0571Z" fill="#FC7B95"/>
<path d="M22.3024 28.0347C21.5804 27.7339 20.9467 27.2967 20.4132 26.7231C19.6071 25.8608 19.0656 24.8621 18.9052 23.6789C18.8891 23.5546 18.8931 23.4262 18.8891 23.2979C18.7848 23.0652 18.845 22.8406 18.9332 22.62C19.0175 22.2791 19.0776 21.9302 19.21 21.6053C19.8999 19.8926 21.1312 18.8338 22.9561 18.4848C23.1126 18.4567 23.277 18.4928 23.4254 18.4206C23.4735 18.3685 23.5257 18.3765 23.5778 18.4126C24.6046 18.4086 25.5512 18.6693 26.4055 19.2509C27.0272 19.672 27.5165 20.2215 27.9055 20.8633C28.0339 20.9515 28.086 21.0798 28.1021 21.2283C28.431 21.9903 28.5914 22.7805 28.5513 23.6147C28.5152 24.4209 28.2906 25.1709 27.8935 25.8688C27.8694 25.9089 27.8494 25.949 27.8293 25.9932C27.8133 26.1576 27.7251 26.2739 27.5847 26.3541C26.8707 27.2726 25.9603 27.9023 24.8212 28.1751C24.1113 28.3475 23.4013 28.3556 22.6954 28.163C22.543 28.1911 22.4187 28.1309 22.3024 28.0347Z" fill="#FEEBA2"/>
<path d="M18.9333 22.6201C18.9173 22.8447 18.9053 23.0733 18.8892 23.2979C18.5523 23.1415 18.2154 22.9851 17.8745 22.8287C16.7474 22.3153 15.5963 21.866 14.373 21.6254C13.7633 21.5051 13.1456 21.4529 12.528 21.501C11.6135 21.5692 10.7552 21.838 9.97304 22.3273C9.80859 22.4316 9.76046 22.4115 9.75645 22.207C9.74442 21.842 9.96502 21.5973 10.2418 21.4369C10.9076 21.0558 11.6416 20.8794 12.4036 20.8072C13.7192 20.6828 14.9626 20.9836 16.1859 21.4248C17.0963 21.7497 17.9707 22.1588 18.8371 22.588C18.8692 22.604 18.9012 22.6121 18.9333 22.6201Z" fill="#E3637E"/>
<path d="M27.5887 26.3461C27.669 26.2258 27.7492 26.1055 27.8334 25.9852C28.2425 26.0895 28.6195 26.274 29.0046 26.4304C29.7265 26.7312 30.4244 27.0801 31.1103 27.4491C32.5703 28.2232 33.962 29.1096 35.3057 30.0722C36.0156 30.5776 36.7135 31.095 37.3993 31.6325C37.6761 31.8451 37.7202 32.1338 37.7242 32.4467C37.7242 32.5269 37.6641 32.5831 37.5999 32.6151C37.5076 32.6593 37.4996 32.559 37.4595 32.5149C37.0745 32.1178 36.6694 31.7448 36.2522 31.3798C35.6707 30.8704 35.061 30.4011 34.4273 29.964C33.4807 29.3062 32.494 28.7126 31.4793 28.1711C30.2881 27.5374 29.0688 26.9799 27.8134 26.4945C27.7331 26.4585 27.6168 26.4625 27.5887 26.3461Z" fill="#E3637E"/>
<path d="M28.1061 21.2242C28.0419 21.1039 27.9737 20.9796 27.9095 20.8592C27.9336 20.6507 28.1021 20.5303 28.2144 20.3819C28.6275 19.8244 29.0887 19.307 29.5821 18.8217C30.3682 18.0436 31.2145 17.3337 32.1972 16.8082C32.9432 16.4112 33.7133 16.0983 34.5475 15.9539C35.1452 15.8496 35.7468 15.8176 36.3524 15.8817C36.7776 15.9259 37.1907 15.998 37.5998 16.1144C37.307 16.1304 37.0182 16.0783 36.7254 16.0863C35.5703 16.1304 34.4593 16.355 33.3964 16.8082C32.2974 17.2815 31.3148 17.9313 30.4204 18.7214C29.6703 19.3872 28.9845 20.1052 28.3788 20.9074C28.2986 21.0197 28.2304 21.148 28.1061 21.2242Z" fill="#E3637E"/>
<path d="M22.3024 28.0347C22.4347 28.0748 22.5671 28.119 22.6994 28.1591C22.5591 28.492 22.3224 28.7687 22.1499 29.0816C21.6967 29.8797 21.2435 30.6779 20.7822 31.472C20.1084 32.6272 19.4386 33.7863 18.4479 34.7128C18.0829 35.0537 17.6738 35.3184 17.1765 35.4267C17.0281 35.4588 16.8797 35.4468 16.6871 35.4428C16.9438 35.2342 17.1885 35.0738 17.4051 34.8853C17.9225 34.432 18.3958 33.9387 18.8209 33.4013C19.9119 32.0255 20.8023 30.5215 21.7087 29.0254C21.9053 28.6925 22.1419 28.3837 22.3024 28.0347Z" fill="#E3637E"/>
<path d="M23.5819 18.4086C23.5297 18.4126 23.4816 18.4126 23.4295 18.4166C23.265 18.4327 23.2209 18.3645 23.2209 18.2C23.2249 17.3217 23.1287 16.4513 23.0324 15.5809C22.8359 13.7921 22.4909 12.0273 22.0698 10.2786C21.9816 9.90555 21.8893 9.52853 21.8011 9.15552C21.789 9.1114 21.765 9.07129 21.8131 9.01514C22.0658 9.34804 22.2583 9.70902 22.4187 10.0901C22.8359 11.0647 23.0565 12.0875 23.1888 13.1343C23.2771 13.8442 23.3573 14.5582 23.3934 15.2721C23.4295 16.0302 23.4856 16.7842 23.5217 17.5423C23.5297 17.827 23.4977 18.1238 23.5819 18.4086Z" fill="#E3637E"/>
</svg>
