<svg width="48" height="48" viewBox="0 0 48 48" fill="none" xmlns="http://www.w3.org/2000/svg">
<mask id="mask0_2_5210" style="mask-type:alpha" maskUnits="userSpaceOnUse" x="0" y="0" width="48" height="48">
<path fill-rule="evenodd" clip-rule="evenodd" d="M0 0H48V48H0V0Z" fill="white"/>
</mask>
<g mask="url(#mask0_2_5210)">
<path fill-rule="evenodd" clip-rule="evenodd" d="M24 0C10.752 0 0 10.752 0 24C0 37.248 10.752 48 24 48C37.248 48 48 37.248 48 24C48 10.752 37.248 0 24 0Z" fill="#29B2FF"/>
</g>
<path fill-rule="evenodd" clip-rule="evenodd" d="M17.1359 16.608L6.09595 31.296H8.35195L10.7519 28.08H18.4319V26.256H12.0959L19.3439 16.608H17.1359Z" fill="white"/>
<path fill-rule="evenodd" clip-rule="evenodd" d="M41.904 31.296L30.864 16.608H28.656L35.904 26.256H29.568V28.08H37.248L39.648 31.296H41.904Z" fill="white"/>
<path fill-rule="evenodd" clip-rule="evenodd" d="M23.0879 31.296H24.9119V8.59198H23.0879V31.296Z" fill="white"/>
<path fill-rule="evenodd" clip-rule="evenodd" d="M10.5601 27.696H18.0961V26.64H10.5601V27.696Z" fill="white"/>
<path d="M10.5601 27.696H18.0961V26.64H10.5601V27.696Z" stroke="white" stroke-width="1.4925"/>
<path fill-rule="evenodd" clip-rule="evenodd" d="M29.9041 27.696H37.4401V26.64H29.9041V27.696Z" fill="white"/>
<path d="M29.9041 27.696H37.4401V26.64H29.9041V27.696Z" stroke="white" stroke-width="1.4925"/>
</svg>
