<svg width="48" height="48" viewBox="0 0 48 48" fill="none" xmlns="http://www.w3.org/2000/svg">
<path d="M24 48C10.8 48 0 37.2 0 24C0 10.8 10.8 0 24 0C37.2 0 48 10.8 48 24C48 37.2 37.2 48 24 48Z" fill="#1E1E1E"/>
<path d="M37.9574 28.6965C39.1574 30.8965 38.3574 33.6965 36.3574 34.8965C34.1574 36.0965 31.3574 35.2965 30.1574 33.2965L20.5574 16.8965C19.3574 14.6965 20.1574 11.8965 22.3574 10.6965C24.5574 9.29649 27.1574 10.0965 28.5574 12.2965L37.9574 28.6965Z" fill="#3D723D"/>
<path d="M19.0965 33.2965C17.8965 35.4965 15.0965 36.2965 12.8965 34.8965C10.6965 33.6965 9.89646 30.8965 11.2965 28.6965L20.6965 12.2965C21.8965 10.0965 24.6965 9.29649 26.8965 10.6965C29.0965 11.8965 29.8965 14.6965 28.4965 16.8965L19.0965 33.2965Z" fill="#4FA44F"/>
<path d="M29.1 14.6C29.1 17.2 24.5 23.6 24.5 23.6C24.5 23.6 20.1 17.2 20.1 14.6C20.1 12 22.1 10 24.7 10C27.3 10 29.1 12.2 29.1 14.6Z" fill="#5FCE5F"/>
</svg>
