<svg width="48" height="48" viewBox="0 0 48 48" fill="none" xmlns="http://www.w3.org/2000/svg">
<path d="M0 24C0 10.7452 10.7452 0 24 0C37.2548 0 48 10.7452 48 24C48 37.2548 37.2548 48 24 48C10.7452 48 0 37.2548 0 24Z" fill="black"/>
<path d="M46.75 24C46.75 36.5645 36.5645 46.75 24 46.75C11.4355 46.75 1.25 36.5645 1.25 24C1.25 11.4355 11.4355 1.25 24 1.25C36.5645 1.25 46.75 11.4355 46.75 24Z" stroke="white" stroke-width="2.5"/>
<path d="M28.2263 31.9999C28.0754 31.8489 28.0754 31.547 27.9244 31.2451C27.9244 30.9433 27.7735 30.6414 27.7735 30.3395C27.4716 30.6414 27.1697 30.7923 26.8678 31.0942C26.5659 31.3961 26.1131 31.547 25.8112 31.698C25.3584 31.8489 25.0565 31.9999 24.4527 32.1508C23.9999 32.3018 23.3961 32.3018 22.9433 32.3018C22.0376 32.3018 21.2829 32.1508 20.5282 31.8489C19.7735 31.547 19.1697 31.2451 18.5659 30.7923C17.9621 30.3395 17.6603 29.7357 17.3584 29.1319C17.0565 28.5282 16.9055 27.7734 16.9055 27.0187C16.9055 25.2074 17.6603 23.698 19.0187 22.7923C20.3772 21.7357 22.4904 21.2829 25.2074 21.2829H27.7735V20.2263C27.7735 19.3206 27.4716 18.7168 27.0187 18.264C26.415 17.8112 25.6603 17.5093 24.6037 17.5093C23.698 17.5093 23.0942 17.6602 22.6414 18.1131C22.1886 18.5659 22.0376 19.0187 22.0376 19.6225H17.5093C17.5093 18.8678 17.6603 18.1131 17.9621 17.5093C18.264 16.9055 18.7169 16.3017 19.4716 15.698C20.0754 15.2451 20.8301 14.7923 21.7357 14.4904C22.6414 14.1885 23.698 14.0376 24.9055 14.0376C25.9621 14.0376 26.8678 14.1885 27.7735 14.4904C28.6791 14.7923 29.4338 15.0942 30.1886 15.698C30.7923 16.1508 31.3961 16.9055 31.698 17.6602C31.9999 18.415 32.3018 19.3206 32.3018 20.3772V27.9244C32.3018 28.8301 32.3018 29.5848 32.4527 30.1885C32.6037 30.7923 32.7546 31.3961 32.9055 31.698V31.9999H28.2263ZM23.8489 28.8301C24.3018 28.8301 24.7546 28.8301 25.0565 28.6791C25.5093 28.5282 25.8112 28.3772 26.1131 28.2263C26.415 28.0753 26.7169 27.9244 26.8678 27.6225C27.0187 27.4716 27.3206 27.1697 27.4716 27.0187V23.9999H25.2074C24.4527 23.9999 23.8489 23.9999 23.3961 24.1508C22.9433 24.3018 22.4904 24.4527 22.1886 24.7546C21.8867 25.0565 21.5848 25.2074 21.4338 25.6602C21.2829 25.9621 21.2829 26.415 21.2829 26.7168C21.2829 27.3206 21.4338 27.7734 21.8867 28.2263C22.3395 28.6791 23.0942 28.8301 23.8489 28.8301Z" fill="white"/>
</svg>
