<svg width="48" height="48" viewBox="0 0 48 48" fill="none" xmlns="http://www.w3.org/2000/svg">
<rect width="48" height="48" rx="24" fill="black"/>
<g clip-path="url(#clip0_2_13697)">
<path d="M15.7728 13.2831L3.61995 33.9253C3.56169 34.0246 3.5 34.1035 3.5 34.2166V35.0083C3.5 35.2207 3.60282 35.4229 3.7776 35.5429L5.43637 36.6944C5.45351 36.7047 5.47065 36.715 5.48435 36.7253L16.0162 43.0314C16.4309 43.2781 16.9689 43.141 17.2088 42.7229L33.351 14.8322C33.6766 14.2667 33.2859 13.5573 32.6313 13.5333L16.3555 12.961C16.119 12.9541 15.8928 13.0775 15.7728 13.2831Z" fill="#FEFEFE"/>
<path d="M23.6348 1.03084C23.6348 1.02056 23.6382 1.01028 23.6382 1C23.8678 1 24.0941 1 24.3237 1C24.3237 1.01028 24.3237 1.02056 24.3271 1.03084C24.0941 1.12338 23.8644 1.12338 23.6348 1.03084Z" fill="#CDE3F0"/>
<path d="M16.5027 40.0051C17.4452 38.4046 18.3842 36.8041 19.3302 35.2036C22.2947 30.1793 25.2558 25.155 28.2203 20.1307C29.3033 18.2971 30.3829 16.4602 31.4659 14.6266C31.4933 14.5786 31.5207 14.5306 31.5619 14.4587C31.0615 14.4587 30.5851 14.4587 30.1087 14.4587C30.0642 14.4587 30.0162 14.4621 29.9716 14.4621C28.4979 14.4655 27.0277 14.469 25.554 14.4724C25.3723 14.4724 25.1873 14.4861 25.0056 14.4827C24.8994 14.4792 24.8445 14.5169 24.7897 14.606C23.8849 16.1037 22.9801 17.598 22.0719 19.0923C19.0697 24.048 16.064 29.0003 13.0618 33.9561C11.9856 35.7279 10.9678 37.4038 9.89504 39.1791C9.82649 39.2957 9.78194 39.3059 9.66884 39.2374C9.18561 38.9495 8.7058 38.6616 8.2157 38.3669C8.10261 38.3018 8.09575 38.2469 8.16772 38.1338C9.36382 36.2283 10.4742 34.453 11.6635 32.5406C15.3683 26.6013 19.0765 20.6585 22.7814 14.7191C22.8293 14.6437 22.8773 14.5649 22.9561 14.4347C22.6648 14.4347 22.4146 14.4347 22.161 14.4347C21.3042 14.4313 20.4509 14.3559 19.594 14.4073C18.5864 14.469 17.6028 14.6472 16.6809 15.079C15.8927 15.4491 15.2655 15.9906 14.7891 16.7309C12.0233 21.0423 9.24044 25.3503 6.46097 29.6583C6.43698 29.696 6.40614 29.7269 6.37872 29.7612C6.29989 29.6721 6.33074 29.5658 6.33074 29.4664C6.32731 26.6458 6.33074 23.8287 6.33074 21.0081C6.33074 19.267 6.33074 17.526 6.33074 15.785C6.33074 15.432 6.27933 15.079 6.29647 14.726C6.3136 14.3901 6.37529 14.0714 6.58092 13.7904C6.70088 13.6259 6.84825 13.4956 7.02303 13.3928C8.43505 12.5703 9.84706 11.7546 11.2591 10.9355C12.8493 10.0136 14.4395 9.09509 16.0297 8.17318C17.7948 7.15529 19.5529 6.13056 21.3214 5.11268C21.9211 4.76996 22.5209 4.43066 23.1138 4.07081C23.693 3.72123 24.2448 3.71781 24.8377 4.06053C27.2402 5.44855 29.6461 6.82628 32.0485 8.21088C34.8828 9.84223 37.7206 11.4667 40.5514 13.1015C40.7194 13.1975 40.8942 13.2831 41.0518 13.3962C41.4494 13.6773 41.6721 14.0543 41.6721 14.5512C41.6721 19.7503 41.6721 24.9494 41.6721 30.1484C41.6721 30.2273 41.679 30.3095 41.655 30.3849C41.5625 30.4706 41.5385 30.3609 41.5076 30.3198C41.3226 30.0662 41.1615 29.7954 40.9936 29.5315C40.4521 28.685 39.9106 27.8419 39.3656 26.9954C38.2861 25.3161 37.2065 23.6333 36.1269 21.954C35.51 20.9944 34.8965 20.0313 34.2762 19.0751C33.7381 18.2423 33.2104 17.3992 32.6654 16.5698C32.638 16.5287 32.6243 16.4739 32.5592 16.4499C32.4564 16.5973 32.3673 16.7549 32.2747 16.9126C31.2945 18.5782 30.3109 20.2472 29.3273 21.9094C29.2588 22.0259 29.2554 22.1151 29.3273 22.2384C30.2287 23.6916 31.13 25.1481 32.0314 26.6047C33.1966 28.4862 34.3619 30.3712 35.5272 32.2527C36.3154 33.5242 37.1002 34.7957 37.8851 36.0672C37.9228 36.1289 37.9708 36.1872 37.9776 36.266C37.9708 36.3243 37.9296 36.3551 37.8851 36.3791C37.4053 36.6464 36.9357 36.9309 36.4594 37.2016C36.4148 37.2256 36.3702 37.2565 36.3154 37.2359C36.0412 36.8658 35.8082 36.4648 35.5614 36.0741C34.9274 35.0768 34.2968 34.0794 33.6627 33.0821C32.8574 31.8106 32.0485 30.5391 31.2431 29.2676C30.6228 28.2909 30.0025 27.3141 29.3822 26.334C28.9606 25.6691 28.5356 25.0042 28.1175 24.3393C28.0113 24.1714 28.0113 24.168 27.905 24.3462C26.99 25.8918 26.0783 27.4409 25.1667 28.99C24.8685 29.4973 24.5738 30.0045 24.2688 30.5049C24.1968 30.6248 24.2036 30.7174 24.2756 30.8339C25.4032 32.5852 26.517 34.3433 27.6377 36.0981C28.5459 37.5204 29.4507 38.9461 30.3589 40.3684C30.4069 40.4438 30.4686 40.5157 30.4754 40.6117C30.4583 40.6802 30.4 40.7111 30.3452 40.7419C29.2382 41.3794 28.1347 42.0203 27.0311 42.6612C26.2805 43.0964 25.5265 43.5248 24.7828 43.9669C24.2996 44.2548 23.8267 44.2617 23.3434 43.9841C21.9108 43.1615 20.4748 42.3356 19.0423 41.5131C18.2506 41.0572 17.4623 40.6048 16.6706 40.149C16.6021 40.125 16.513 40.1045 16.5027 40.0051Z" fill="#2A374D"/>
<path d="M41.6276 30.4398C41.6276 30.3781 41.631 30.313 41.631 30.2513C41.631 25.0522 41.631 19.8532 41.631 14.6541C41.631 14.0612 41.3739 13.6328 40.8633 13.3414C37.3984 11.3537 33.9335 9.35902 30.4686 7.36781C28.5425 6.26082 26.613 5.1504 24.6869 4.04341C24.2174 3.77608 23.7375 3.77266 23.2714 4.04341C20.8724 5.428 18.4734 6.81603 16.0743 8.20405C13.0686 9.94508 10.0664 11.6861 7.06075 13.4237C6.58094 13.7013 6.34447 14.1263 6.34789 14.6644C6.37874 19.6955 6.3616 24.7301 6.37531 29.7612C6.28278 30.0217 6.09771 30.2308 5.95034 30.457C5.17236 31.6633 4.3841 32.8629 3.59585 34.0658C3.57528 34.0967 3.56843 34.1446 3.49989 34.1515C3.49989 34.0898 3.49989 34.0316 3.49989 33.9699C3.49989 27.5164 3.4896 21.063 3.50674 14.6095C3.51017 13.0056 4.26072 11.7718 5.64532 10.9527C6.92024 10.1987 8.21229 9.47212 9.4975 8.73184C10.9198 7.90931 12.3387 7.08678 13.7575 6.26082C16.112 4.90021 18.4631 3.53275 20.8176 2.179C21.3419 1.87741 21.8423 1.53468 22.4078 1.30849C22.8019 1.15084 23.2098 1.0583 23.6347 1.03088C23.8643 1.03088 24.094 1.03088 24.3236 1.03088C25.0022 1.07886 25.6225 1.29478 26.2086 1.6375C27.6206 2.46346 29.0429 3.27228 30.4617 4.08796C31.8737 4.90021 33.2892 5.71589 34.7012 6.52814C36.0995 7.33354 37.4978 8.1355 38.8995 8.9409C40.1059 9.6332 41.326 10.3015 42.5118 11.0281C43.5639 11.6724 44.198 12.6389 44.4276 13.859C44.4756 14.1126 44.4927 14.3662 44.4927 14.6232C44.4927 20.9019 44.4996 27.1805 44.4859 33.4592C44.4824 34.7684 43.9375 35.8617 42.8991 36.6705C42.5152 36.9687 42.0628 37.1777 41.6378 37.4245C40.3663 38.1614 39.0914 38.8982 37.8199 39.6351C36.3942 40.461 34.9685 41.2835 33.5394 42.1095C32.2918 42.8326 31.0443 43.5558 29.7934 44.2789C28.4054 45.0809 27.0277 45.8932 25.6294 46.6814C25.2421 46.9008 24.7897 46.9624 24.3442 46.9933C23.4085 47.055 22.562 46.8082 21.7566 46.3318C20.2007 45.4099 18.6276 44.5223 17.0613 43.6209C16.4342 43.261 15.807 42.9012 15.1764 42.5379C15.1044 42.4968 15.0256 42.4694 15.0976 42.3494C15.5568 41.5817 16.0092 40.8106 16.465 40.0395C16.4719 40.0258 16.489 40.0189 16.5027 40.0052C16.9105 40.2794 17.3424 40.5056 17.7673 40.7489C19.6523 41.8353 21.5373 42.9218 23.4291 44.0013C23.8129 44.2207 24.2311 44.2412 24.6218 44.015C26.5444 42.9115 28.4602 41.7976 30.376 40.6872C30.4035 40.6701 30.4309 40.6461 30.4583 40.6289C30.496 40.5673 30.5577 40.5364 30.6159 40.5021C32.1788 39.6076 33.7347 38.696 35.2941 37.7946C35.582 37.6301 35.8664 37.4656 36.1509 37.2977C36.2057 37.2668 36.2537 37.2257 36.3222 37.236C36.874 36.9276 37.4189 36.6157 37.957 36.2867C37.9879 36.2181 38.053 36.1907 38.1112 36.1564C39.0229 35.6252 39.9277 35.0837 40.8496 34.5765C41.3842 34.2852 41.5899 33.8431 41.5967 33.2776C41.607 32.4002 41.6001 31.5228 41.6001 30.6455C41.607 30.5735 41.5933 30.5049 41.6276 30.4398Z" fill="#88BEDE"/>
<path d="M41.6276 30.4397C41.6584 30.5048 41.6481 30.5734 41.6481 30.6419C41.6481 31.5193 41.6481 32.3966 41.6481 33.2774C41.6481 33.6441 41.559 33.9834 41.326 34.2816C41.1614 34.4941 40.9147 34.5832 40.6988 34.7134C39.8454 35.2138 38.9886 35.7073 38.1284 36.2043C38.0735 36.2351 38.0153 36.2591 37.9604 36.2865C36.802 34.4153 35.6436 32.544 34.4852 30.6727C32.7442 27.859 31.0066 25.0487 29.2621 22.2384C29.197 22.1321 29.1901 22.0602 29.2553 21.9505C30.3383 20.1272 31.4144 18.2971 32.4906 16.4738C32.5111 16.4395 32.5317 16.4053 32.5625 16.3607C32.7819 16.7 32.9944 17.029 33.2069 17.358C35.39 20.7578 37.5766 24.161 39.7597 27.5643C40.3458 28.4759 40.9318 29.3875 41.5179 30.2992C41.5522 30.3403 41.5933 30.3883 41.6276 30.4397Z" fill="#00A1F6"/>
<path d="M36.3256 37.2325C35.6882 37.6061 35.0507 37.9831 34.4098 38.3566C33.296 39.0044 32.1821 39.6487 31.0683 40.2896C30.8661 40.4061 30.6741 40.5363 30.4582 40.6289C28.7549 37.9556 27.0516 35.2824 25.3482 32.6092C24.9678 32.0129 24.5874 31.4165 24.207 30.8236C24.1556 30.7448 24.1213 30.6831 24.183 30.5803C25.4442 28.452 26.6986 26.3203 27.9564 24.1885C27.9666 24.168 27.9838 24.1543 28.0078 24.12C28.1825 24.3976 28.3539 24.6649 28.5253 24.9288C30.7804 28.4828 33.0355 32.0334 35.2906 35.5874C35.6367 36.1289 35.9795 36.6807 36.3256 37.2325Z" fill="#00A1F6"/>
</g>
<defs>
<clipPath id="clip0_2_13697">
<rect width="40.9963" height="46" fill="white" transform="translate(3.5 1)"/>
</clipPath>
</defs>
</svg>
