<svg width="49" height="48" viewBox="0 0 49 48" fill="none" xmlns="http://www.w3.org/2000/svg">
<g clip-path="url(#clip0_2_6552)">
<path d="M24.8359 47.9999C24.3054 47.9999 23.775 47.9999 23.2284 47.9999C22.9712 47.9517 22.714 47.8713 22.4568 47.8553C11.992 47.2766 2.81313 39.448 0.659076 29.1761C0.35365 27.7293 0.22505 26.2344 0 24.7555C0 24.225 0 23.6945 0 23.148C0.0643001 22.521 0.1286 21.878 0.208975 21.2511C1.68788 8.21428 13.5512 -1.26998 26.6202 0.144618C40.0107 1.59137 49.5914 13.7762 47.8553 27.1185C46.5533 37.0689 39.0141 45.2672 29.1601 47.373C27.7455 47.6784 26.2827 47.791 24.8359 47.9999Z" fill="white"/>
<g clip-path="url(#clip1_2_6552)">
<path d="M3.00013 25.0281C3.00013 22.319 3.00013 19.5822 3.00013 16.8731C3.00013 14.3022 4.1059 12.3671 6.34508 11.0954C11.017 8.41395 15.6888 5.73246 20.3607 3.02333C22.7381 1.64112 25.0602 1.66876 27.41 3.02333C32.0266 5.70482 36.6708 8.35866 41.2874 11.0125C43.6371 12.3394 44.7706 14.3298 44.7429 17.0113C44.7153 22.3466 44.7429 27.682 44.7429 33.045C44.7429 35.6159 43.6924 37.551 41.4256 38.8502C36.6708 41.5594 31.916 44.2962 27.1888 47.0329C24.9496 48.3046 22.7381 48.3046 20.4989 47.0329C15.7994 44.3238 11.0722 41.6147 6.37272 38.9055C4.1059 37.6063 2.97248 35.6712 3.00013 33.0173C3.02777 30.3635 3.00013 27.682 3.00013 25.0281ZM42.642 25.0281C42.642 22.2637 42.6143 19.4993 42.642 16.7349C42.6696 14.9933 41.9508 13.7493 40.4304 12.8923C35.6203 10.1555 30.8379 7.41876 26.0554 4.65434C24.6179 3.82501 23.2081 3.76972 21.7429 4.62669C16.9605 7.39112 12.178 10.1279 7.36792 12.8647C5.76455 13.7769 5.01816 15.0762 5.0458 16.9284C5.07344 22.319 5.07344 27.7096 5.0458 33.1002C5.0458 34.8971 5.73691 36.1688 7.28498 37.081C12.0398 39.7902 16.7946 42.5269 21.5218 45.2637C23.1251 46.176 24.6179 46.176 26.2213 45.2361C30.9208 42.4993 35.6203 39.7902 40.3475 37.1363C41.8956 36.2517 42.6696 35.0077 42.642 33.2108C42.6143 30.474 42.642 27.7373 42.642 25.0281Z" fill="white"/>
<path d="M42.6418 25.0277C42.6418 27.7369 42.6142 30.4737 42.6418 33.1828C42.6695 34.9797 41.9231 36.2237 40.3474 37.1083C35.6202 39.7898 30.9207 42.4989 26.2212 45.208C24.6178 46.1203 23.125 46.1479 21.5217 45.2357C16.7945 42.4989 12.0397 39.7621 7.28487 37.053C5.7368 36.1684 5.01805 34.8691 5.04569 33.0722C5.07333 27.6816 5.07333 22.291 5.04569 16.9003C5.04569 15.0482 5.76444 13.7489 7.3678 12.8366C12.1779 10.0999 16.9604 7.36308 21.7428 4.59866C23.208 3.76933 24.6178 3.79697 26.0553 4.6263C30.8378 7.39072 35.6202 10.1551 40.4303 12.8643C41.9507 13.7213 42.6695 14.9376 42.6418 16.7068C42.6142 19.4989 42.6418 22.2633 42.6418 25.0277ZM6.64905 25.0001C6.64905 27.5434 6.6767 30.059 6.64905 32.6023C6.62141 34.1503 7.22958 35.2285 8.55651 36.0025C13.0902 38.5734 17.5962 41.172 22.1022 43.7705C23.2909 44.4616 24.4519 44.4616 25.6406 43.7705C30.2019 41.1443 34.7356 38.5458 39.2969 35.9472C40.4856 35.2561 41.0938 34.2609 41.0938 32.9064C41.0938 27.6539 41.0938 22.4015 41.0938 17.1491C41.0938 15.7946 40.5132 14.7994 39.2969 14.1083C34.8185 11.5374 30.3678 8.96644 25.8894 6.36789C24.5072 5.5662 23.2356 5.5662 21.8534 6.36789C17.4303 8.9388 13.0072 11.4821 8.55651 13.9977C7.20194 14.7717 6.62141 15.8499 6.64905 17.3979C6.6767 19.9412 6.64905 22.4568 6.64905 25.0001Z" fill="black"/>
<path d="M6.64909 25C6.64909 22.4567 6.67674 19.9411 6.64909 17.3978C6.62145 15.8497 7.22962 14.7716 8.55655 13.9976C13.0073 11.4819 17.4303 8.93866 21.8534 6.36774C23.2356 5.56606 24.5073 5.56606 25.8895 6.36774C30.3402 8.9663 34.8186 11.5372 39.2969 14.0805C40.5133 14.7716 41.0938 15.7668 41.0938 17.1213C41.0938 22.3738 41.0938 27.6262 41.0938 32.8786C41.0938 34.2331 40.4856 35.256 39.2969 35.9194C34.7356 38.518 30.1743 41.1442 25.6407 43.7427C24.452 44.4338 23.2909 44.4338 22.1022 43.7427C17.5962 41.1442 13.0902 38.5456 8.55655 35.9747C7.22962 35.2007 6.62145 34.1225 6.64909 32.5745C6.67674 30.0588 6.64909 27.5432 6.64909 25ZM28.7645 32.4639C26.3041 26.7139 23.8715 21.0192 21.2453 14.9098C18.6467 20.9915 16.1864 26.7139 13.6984 32.4915C15.1082 32.7956 15.9376 32.685 16.4904 31.2199C17.7621 27.9026 19.2272 24.6959 20.6094 21.4338C20.7477 21.0745 20.9688 20.7704 21.2453 20.2175C21.5493 20.8533 21.7428 21.2403 21.9364 21.655C23.2909 24.8341 24.7284 27.9579 25.9724 31.1923C26.5529 32.6021 27.327 32.9062 28.7645 32.4639ZM24.6178 14.7716C25.0325 16.9278 25.1154 17.0108 26.8847 17.0384C27.5758 17.0384 28.2669 17.0108 28.958 17.0937C30.589 17.2596 31.833 18.5588 32.0265 20.1622C32.1924 21.6826 31.2248 23.2031 29.7597 23.7283C29.345 23.8942 28.9027 23.9771 28.4051 24.143C29.4279 26.548 30.5061 28.8425 31.3907 31.1923C31.9159 32.5745 32.69 32.9062 34.1275 32.4363C33.1599 30.1141 32.1924 27.8473 31.2525 25.5805C31.6671 25.2488 31.9989 25.0276 32.3029 24.7512C33.9063 23.2584 34.5974 21.4338 34.0998 19.2776C33.6022 17.0661 32.22 15.518 30.0085 15.0757C28.2669 14.7439 26.4424 14.8545 24.6178 14.7716Z" fill="white"/>
<path d="M28.7645 32.4641C27.327 32.9064 26.553 32.6023 26.0001 31.2201C24.7561 28.0134 23.3186 24.8619 21.9641 21.6828C21.7982 21.2682 21.577 20.8812 21.2729 20.2453C20.9965 20.7706 20.7754 21.1023 20.6371 21.4617C19.2273 24.7237 17.7621 27.9304 16.5181 31.2478C15.9653 32.6853 15.1359 32.8235 13.7261 32.5194C16.2141 26.7141 18.6467 21.0194 21.2729 14.9377C23.8715 21.0194 26.3042 26.7141 28.7645 32.4641Z" fill="black"/>
<path d="M24.6178 14.7716C26.4423 14.8546 28.2392 14.744 29.9808 15.0757C32.1923 15.518 33.5745 17.0661 34.0721 19.2776C34.5697 21.4339 33.8786 23.2584 32.2752 24.7512C31.9712 25.0276 31.6394 25.2764 31.2248 25.5805C32.1923 27.8473 33.1322 30.1142 34.0998 32.4363C32.6623 32.9062 31.8882 32.6022 31.363 31.1923C30.4784 28.8149 29.4002 26.5481 28.3774 24.143C28.875 23.9772 29.3173 23.8942 29.732 23.7284C31.1971 23.1755 32.1647 21.655 31.9988 20.1622C31.8329 18.5589 30.5889 17.2596 28.9303 17.0937C28.2392 17.0108 27.5481 17.0384 26.857 17.0384C25.1154 17.0384 25.0325 16.9555 24.6178 14.7716Z" fill="black"/>
</g>
</g>
<defs>
<clipPath id="clip0_2_6552">
<rect width="48.0643" height="48" fill="white"/>
</clipPath>
<clipPath id="clip1_2_6552">
<rect width="41.7704" height="46" fill="white" transform="translate(3 1.99995)"/>
</clipPath>
</defs>
</svg>
