<svg width="48" height="48" viewBox="0 0 48 48" fill="none" xmlns="http://www.w3.org/2000/svg">
<path d="M0 24C0 10.7452 10.7452 0 24 0C37.2548 0 48 10.7452 48 24C48 37.2548 37.2548 48 24 48C10.7452 48 0 37.2548 0 24Z" fill="white"/>
<path d="M24.115 18.6268C23.883 19.123 23.6673 19.5815 23.4569 20.04C21.8927 23.4003 20.3339 26.7553 18.7697 30.1157C17.9336 31.9172 17.0868 33.7134 16.2615 35.5204C16.0511 35.9734 15.7491 36.1676 15.2367 36.1622C13.6293 36.1406 12.0219 36.1514 10.4146 36.1514C10.242 36.1514 10.0747 36.1514 9.90754 36.1083C9.50839 36.0112 9.36815 35.8062 9.52457 35.4179C9.75112 34.8515 10.01 34.3013 10.2635 33.7512C11.8385 30.3099 13.4189 26.874 14.994 23.4327C16.6768 19.7649 18.3597 16.097 20.0426 12.4346C20.7007 11.0052 21.3587 9.57586 22.0168 8.14649C22.0977 7.97928 22.1948 7.81746 22.2919 7.65565C22.4537 7.40214 22.691 7.27808 22.9931 7.27808C23.7482 7.27808 24.5033 7.27808 25.2531 7.27808C25.6037 7.27808 25.841 7.45068 26.0136 7.74734C26.3966 8.40539 26.6771 9.11738 26.9953 9.8078C28.4786 13.0333 29.9619 16.2589 31.4398 19.4898C33.0688 23.0443 34.6977 26.5935 36.3267 30.1481C37.0926 31.8202 37.8639 33.4977 38.6299 35.1698C38.6514 35.2183 38.6784 35.2668 38.6946 35.3154C38.8834 35.817 38.7377 36.0651 38.2091 36.1406C38.0743 36.1568 37.9395 36.1568 37.8046 36.1568C36.1864 36.1568 34.5737 36.146 32.9555 36.1676C32.4701 36.173 32.1788 35.968 31.99 35.5527C31.4884 34.4632 30.9814 33.379 30.4797 32.2894C29.3794 29.9215 28.279 27.5536 27.1787 25.1857C26.1916 23.0713 25.2099 20.9515 24.2229 18.8371C24.1905 18.7778 24.1635 18.7239 24.115 18.6268Z" fill="#17181D"/>
<path d="M19.8161 33.5786C22.6911 33.5786 25.5282 33.5786 28.4193 33.5786C26.99 36.4374 25.5714 39.2799 24.1204 42.1818C22.6695 39.2907 21.2509 36.4428 19.8161 33.5786Z" fill="#00FEFE"/>
</svg>
