<svg width="48" height="48" viewBox="0 0 48 48" fill="none" xmlns="http://www.w3.org/2000/svg">
<circle cx="24" cy="24" r="24" fill="#666666"/>
<path d="M24 48C37.2548 48 48 37.2548 48 24C48 10.7452 37.2548 0 24 0C10.7452 0 0 10.7452 0 24C0 37.2548 10.7452 48 24 48Z" fill="#2E3148"/>
<path d="M24 37.9261C31.691 37.9261 37.9259 31.6913 37.9259 24.0002C37.9259 16.3091 31.691 10.0742 24 10.0742C16.3089 10.0742 10.074 16.3091 10.074 24.0002C10.074 31.6913 16.3089 37.9261 24 37.9261Z" fill="#1B1E36"/>
<path d="M24.0494 3.06177C21.4587 3.06177 19.358 12.4582 19.358 24.0495C19.358 35.6407 21.4587 45.0372 24.0494 45.0372C26.64 45.0372 28.7407 35.6407 28.7407 24.0495C28.7407 12.4582 26.64 3.06177 24.0494 3.06177ZM24.3733 43.8527C24.077 44.2479 23.7808 43.9514 23.7808 43.9514C22.5877 42.569 21.9911 40.0008 21.9911 40.0008C19.9043 33.2849 20.401 18.8651 20.401 18.8651C21.3817 7.41729 23.1658 4.71297 23.7729 4.11258C23.8349 4.05131 23.9165 4.01386 24.0034 4.00684C24.0903 3.99982 24.1769 4.02366 24.2479 4.07418C25.1288 4.69838 25.8676 7.30881 25.8676 7.30881C28.0493 15.4076 27.8517 23.0125 27.8517 23.0125C28.0493 29.6298 26.7585 37.0371 26.7585 37.0371C25.7649 42.6666 24.3733 43.8527 24.3733 43.8527Z" fill="#6F7390"/>
<path d="M42.2538 13.6049C40.964 11.357 31.7689 14.2113 21.7098 19.9793C11.6508 25.7474 4.55519 32.246 5.84409 34.493C7.13299 36.74 16.329 33.8867 26.3881 28.1186C36.4472 22.3505 43.5427 15.8519 42.2538 13.6049ZM7.03411 34.1847C6.54028 34.1224 6.65184 33.7166 6.65184 33.7166C7.2576 31.9941 9.18528 30.1985 9.18528 30.1985C13.9743 25.046 26.7301 18.3013 26.7301 18.3013C37.1468 13.4548 40.3824 13.6593 41.2032 13.8853C41.2875 13.9088 41.3607 13.9614 41.4099 14.0337C41.4591 14.106 41.4811 14.1934 41.472 14.2804C41.3733 15.3556 39.472 17.2948 39.472 17.2948C33.5369 23.2197 26.8416 26.8335 26.8416 26.8335C21.2001 30.2991 14.1325 32.8641 14.1325 32.8641C8.75481 34.8019 7.0343 34.1847 7.0343 34.1847H7.03411Z" fill="#6F7390"/>
<path d="M42.2082 34.5678C43.508 32.3258 36.4303 25.7975 26.4066 19.986C16.3829 14.1746 7.18904 11.285 5.89035 13.5308C4.59167 15.7767 11.6682 22.3012 21.6976 28.1126C31.7271 33.924 40.9095 36.8138 42.2082 34.5678ZM6.75166 14.3971C6.55966 13.9419 6.96497 13.8323 6.96497 13.8323C8.7594 13.4934 11.28 14.2656 11.28 14.2656C18.1372 15.8272 30.3647 23.4864 30.3647 23.4864C39.779 30.074 41.2228 32.9757 41.4392 33.7994C41.4612 33.8839 41.4527 33.9734 41.4151 34.0522C41.3775 34.131 41.3133 34.194 41.2338 34.2301C40.2521 34.6795 37.6228 34.0098 37.6228 34.0098C29.5191 31.837 23.0382 27.8559 23.0382 27.8559C17.215 24.7152 11.457 19.8826 11.457 19.8826C7.08171 16.1987 6.75301 14.4021 6.75301 14.4021L6.75166 14.3971Z" fill="#6F7390"/>
<path d="M24 26.4692C25.3637 26.4692 26.4691 25.3638 26.4691 24.0001C26.4691 22.6365 25.3637 21.531 24 21.531C22.6363 21.531 21.5309 22.6365 21.5309 24.0001C21.5309 25.3638 22.6363 26.4692 24 26.4692Z" fill="#B7B9C8"/>
<path d="M34.1234 16.0001C34.9144 16.0001 35.5555 15.3368 35.5555 14.5186C35.5555 13.7004 34.9144 13.0371 34.1234 13.0371C33.3325 13.0371 32.6913 13.7004 32.6913 14.5186C32.6913 15.3368 33.3325 16.0001 34.1234 16.0001Z" fill="#B7B9C8"/>
<path d="M10.6172 21.0372C11.4081 21.0372 12.0493 20.3739 12.0493 19.5557C12.0493 18.7375 11.4081 18.0742 10.6172 18.0742C9.82624 18.0742 9.18506 18.7375 9.18506 19.5557C9.18506 20.3739 9.82624 21.0372 10.6172 21.0372Z" fill="#B7B9C8"/>
<path d="M21.0864 39.2099C21.8774 39.2099 22.5186 38.5466 22.5186 37.7285C22.5186 36.9103 21.8774 36.2471 21.0864 36.2471C20.2954 36.2471 19.6542 36.9103 19.6542 37.7285C19.6542 38.5466 20.2954 39.2099 21.0864 39.2099Z" fill="#B7B9C8"/>
</svg>
