<svg width="48" height="48" viewBox="0 0 48 48" fill="none" xmlns="http://www.w3.org/2000/svg">
<g clip-path="url(#clip0_2_6622)">
<path d="M5.95783 8.20101C6.89853 7.11558 7.86335 6.05427 9.11763 5.30653C9.84124 5.64422 9.96185 6.39196 10.2513 7.0191C10.7096 8.05628 11.1438 9.11759 11.6262 10.1548C11.8674 10.6613 12.1809 11.0955 12.7598 11.2884C13.2422 11.4814 13.6764 11.795 14.1347 12.0121C15.0513 12.4704 16.0885 12.5668 17.0533 12.8804C17.3186 13.1216 17.4634 13.3628 17.1015 13.6281C16.3538 13.9899 15.5578 13.9899 14.7618 14.0141C14.3518 14.0382 13.8694 13.797 13.5799 14.2794C13.6041 14.5206 13.7488 14.6894 13.8694 14.8824C14.1588 15.0754 14.4965 15.0271 14.8101 15.0271C20.9367 15.0271 27.0634 15.0271 33.19 15.0271C33.5759 15.0271 34.0101 15.1236 34.2995 14.7618C34.4684 14.5688 34.5649 14.3518 34.6855 14.1347C34.7096 14.0141 34.7578 13.9176 34.8061 13.8211C34.782 13.5799 35.385 13.0492 34.5407 13.2422C33.6483 13.4593 32.7799 13.7487 31.8875 13.8935C31.6463 13.9417 31.4292 13.9176 31.2362 13.7729C31.1397 13.1216 31.7428 13.0975 32.0804 12.8322C32.6352 12.5668 33.19 12.3015 33.7206 12.0121C34.1548 11.7467 34.5649 11.4814 34.999 11.2402C36.784 10.4925 37.0975 8.68342 37.8453 7.21206C38.183 6.5608 38.2794 5.76483 38.9548 5.30653C40.9327 6.70553 42.5488 8.41809 43.7307 10.5407C43.5377 10.806 43.2483 10.7578 42.983 10.7095C41.801 10.4442 41.0292 10.8784 40.6674 12.0362C40.4744 12.3739 40.2814 12.7116 40.1367 13.0734C39.9438 13.4593 39.8232 13.8693 39.6543 14.2553C39.4855 14.593 39.3166 14.9065 39.1719 15.2442C39.0272 15.5095 38.9548 15.799 38.8342 16.0884C38.7136 16.3538 38.5689 16.6191 38.4483 16.9085C38.3518 17.1256 38.2312 17.3427 38.1106 17.5598C37.9659 17.801 37.8453 18.0663 37.7488 18.3317C37.7005 18.4764 37.6764 18.597 37.6041 18.7417C37.5317 18.9105 37.4352 19.0794 37.3629 19.2482C37.2905 19.4171 37.194 19.5859 37.1216 19.7307C37.0493 19.8995 36.9528 20.0442 36.8804 20.2131C36.8081 20.3819 36.7116 20.5508 36.6392 20.7196C36.5669 20.8884 36.4945 21.0814 36.4463 21.2744C36.3739 21.4673 36.3016 21.6603 36.2051 21.8533C36.1086 22.0703 36.0362 22.2633 36.0362 22.5045C36.2533 23.1558 36.8322 22.9146 37.2664 22.9387C40.2814 22.9628 43.2965 22.9387 46.3116 22.9628C46.8905 22.9628 47.5176 22.8422 48 23.3487C48 23.7347 47.9759 24.1206 47.9759 24.5065C47.5659 24.9166 47.0352 24.8683 46.5046 24.8683C42.5488 24.8683 38.593 24.8925 34.6372 24.8683C33.2382 24.9166 31.8634 24.9166 30.4644 24.8683C26.2674 24.8683 22.0463 24.8925 17.8493 24.8683C16.3779 24.9166 14.9066 24.8925 13.4352 24.8683C9.50356 24.8925 5.5719 24.8683 1.64024 24.8683C1.08546 24.8683 0.50657 24.9407 0.0482788 24.5065C0.0482788 24.0965 0.0482788 23.7105 0.0482788 23.3005C0.554811 22.8663 1.15783 22.9387 1.76084 22.9387C4.77592 22.9387 7.79099 22.9387 10.7819 22.9146C11.2402 22.9146 11.8674 23.1558 12.0603 22.408C12.0603 22.191 11.988 21.9739 11.9156 21.7809C11.8433 21.5879 11.7468 21.395 11.6744 21.2261C11.602 21.0573 11.5056 20.8643 11.4332 20.6955C11.3608 20.4784 11.2885 20.2613 11.2161 20.0442C11.1679 19.9719 11.1438 19.8754 11.0955 19.803C11.0232 19.6342 10.9508 19.4653 10.8543 19.3206C10.7578 19.1518 10.6855 18.9829 10.589 18.8141C10.4684 18.5487 10.3237 18.3075 10.2031 18.0422C10.1548 17.8975 10.1066 17.7769 10.0583 17.6322C9.96185 17.3427 9.84124 17.1015 9.69652 16.8362C9.57592 16.6191 9.45531 16.3779 9.33471 16.1608C9.04526 15.5578 8.53873 15.6543 8.0322 15.7508C7.4533 15.8714 6.92265 16.0643 6.392 16.2814C6.00607 16.4261 5.64426 16.6191 5.25833 16.8121C4.82416 17.0774 4.38999 17.3427 4.02818 17.6804C3.83521 17.8492 3.66637 18.0181 3.44928 18.1628C3.15984 18.3558 2.87039 18.5487 2.6533 18.8141C2.5327 18.9588 2.43622 19.1276 2.31562 19.2965C2.17089 19.4894 2.00205 19.6824 1.8332 19.8513C1.68848 19.996 1.56788 20.1166 1.42315 20.2613C1.30255 20.406 1.20607 20.5749 1.10959 20.7437C0.964862 20.9367 0.796018 21.1296 0.578932 21.2261C0.48245 21.2502 0.385967 21.2261 0.313605 21.1538C0.385967 18.9829 1.06134 16.9568 1.80908 14.9548C2.4121 13.2663 3.32868 11.7709 4.31763 10.3477C5.30657 10.4683 5.98195 11.409 7.0915 11.409C6.94677 10.2513 5.95783 9.40704 5.95783 8.20101Z" fill="#00EEDA"/>
<path d="M21.588 48C20.599 47.5175 19.4895 47.5899 18.4523 47.3487C16.788 46.9628 15.196 46.3598 13.6523 45.6361C13.8935 44.8402 14.5689 45.0331 15.1236 45.009C17.4633 44.9608 19.8272 45.009 22.1669 44.9608C23.4694 44.9849 23.2764 46.3115 23.9035 46.9869C24.6513 46.408 24.4824 44.9849 25.7849 44.9366C28.1246 45.0572 30.4402 44.9366 32.7799 45.009C33.3347 45.0331 33.9859 44.8402 34.2995 45.5638C32.0322 46.8422 29.5719 47.4934 26.991 47.7587C26.7739 47.7829 26.5086 47.6623 26.4121 48C24.7719 48 23.1799 48 21.588 48Z" fill="#00EEC7"/>
<path d="M0.289447 27.3768C0.144724 27.0632 0.434171 26.6291 0 26.412C0 26.0019 0 25.616 0 25.206C0.313568 24.9165 0.699497 24.8441 1.10955 24.8441C5.06533 24.8441 9.0211 24.82 12.9769 24.8683C13.1457 24.8683 13.2905 24.9165 13.4352 24.9648C14.593 25.809 14.9065 26.6291 14.4482 27.5698C13.9899 27.7869 13.5075 27.7386 13.0492 27.7386C9.31055 27.7386 5.59598 27.7386 1.85729 27.7386C1.30251 27.7386 0.723618 27.8351 0.289447 27.3768Z" fill="#5E89DB"/>
<path d="M12.2533 22.0944C12.7839 22.9145 12.8804 23.3487 11.602 23.3487C7.74271 23.2763 3.8593 23.3004 0 23.3004C0 22.8904 0 22.5044 0 22.0944C0.434171 21.7326 0.964824 21.7567 1.47136 21.7567C4.58291 21.7567 7.67035 21.7567 10.7819 21.7567C11.2884 21.7567 11.8191 21.7567 12.2533 22.0944Z" fill="#9478D8"/>
<path d="M13.6281 25.2301C9.09347 25.2301 4.53467 25.2301 0 25.2301C0 24.9889 0 24.7477 0 24.5065C4.48643 24.5065 8.97287 24.5306 13.4593 24.5306C13.7246 24.6994 13.9417 24.8924 13.6281 25.2301Z" fill="#7084DA"/>
<path d="M12.2533 22.0945C8.17688 22.0945 4.07638 22.0945 0 22.0945C0 21.9257 0 21.7809 0 21.6121C0.0723618 21.588 0.144724 21.588 0.217085 21.6121C0.627136 21.2985 1.10955 21.2744 1.59196 21.2744C4.60703 21.2744 7.64623 21.2744 10.6613 21.2744C11.1437 21.2744 11.6261 21.2985 12.0362 21.6121C12.2533 21.7086 12.205 21.9257 12.2533 22.0945Z" fill="#9D74D8"/>
<path d="M12.7116 11.5055C12.0362 11.5779 11.7468 11.1437 11.5056 10.6372C10.7096 8.85227 9.91361 7.09146 9.09351 5.30654V5.33066C10.0101 4.8 10.999 5.16181 11.8915 5.28242C14.4242 5.66835 16.9086 5.18593 19.393 5.08945C20.8402 5.01709 22.3357 5.16181 23.9036 4.65528C23.4694 4.34171 23.0352 4.26935 22.601 4.12463C20.6473 3.54573 18.6694 3.13568 16.7156 2.53267C16.2573 2.38794 15.6543 2.38794 15.5337 1.71257C17.0292 0.723622 18.7659 0.603019 20.4543 0.289451C23.9277 -0.337685 27.3769 0.0241244 30.7297 0.988948C33.7448 1.85729 36.4704 3.25629 38.8825 5.28242C38.2071 6.87438 37.5317 8.46634 36.8322 10.0342C36.4704 10.806 35.6503 11.0472 34.999 11.4814C33.4312 11.7467 31.8392 11.6261 30.2473 11.6261C25.4714 11.6261 20.6955 11.6261 15.9196 11.6261C14.8583 11.6744 13.7729 11.6985 12.7116 11.5055Z" fill="#FE45D0"/>
<path d="M15.5578 1.73672C17.391 2.58095 19.393 2.82215 21.2985 3.40105C22.3598 3.73873 23.4453 4.0523 24.5066 4.38999C24.7237 4.46235 24.9649 4.60708 24.8684 4.89652C24.796 5.13773 24.5548 5.06537 24.3618 5.06537C21.7327 5.25833 19.0794 5.33069 16.4744 5.62014C13.9659 5.88547 11.5538 5.49954 9.09351 5.33069C11.0232 3.71461 13.0734 2.31562 15.5578 1.73672Z" fill="#00EEDA"/>
<path d="M47.9479 25.3975C48.1592 26.1733 47.6575 26.874 47.6839 27.6497C47.3406 27.975 46.9181 28 46.4692 28C41.98 28 37.4908 28 33.0016 28C32.7375 28 32.4734 27.95 32.2358 27.8499C31.7076 26.924 32.0773 25.9981 33.2392 25.1473C34.8765 24.8971 36.5401 25.0472 38.2038 25.0222C40.9237 24.9972 43.6172 25.0222 46.3371 25.0222C46.8917 25.0222 47.4726 24.9471 47.9479 25.3975Z" fill="#5E89DB"/>
<path d="M45.998 33.3588C45.7809 33.6483 45.9015 34.0824 45.5879 34.3236C45.2261 34.6131 44.7919 34.6855 44.3578 34.6855C40.016 34.7096 35.6502 34.7096 31.3085 34.6855C30.9949 34.6855 30.6814 34.6372 30.3678 34.4925C29.7166 33.5518 30.3437 33.0694 31.0432 32.6111C32.2251 32.3699 33.4311 32.4905 34.6372 32.4905C37.8452 32.4664 41.0291 32.4664 44.2372 32.4905C44.9125 32.5387 45.6844 32.4905 45.998 33.3588Z" fill="#00B8D9"/>
<path d="M45.0573 35.2885C44.7678 35.7709 44.7196 36.4221 44.1407 36.7357C43.7547 37.0493 43.2723 37.0975 42.7899 37.0975C38.6171 37.0975 34.4442 37.1216 30.2713 37.0975C29.9095 37.0975 29.5477 37.0734 29.21 36.9287C28.5346 35.988 29.2824 35.5297 29.8854 35.0473C30.3437 34.9025 30.8261 34.9025 31.3085 34.9025C35.3125 34.9025 39.3407 34.9025 43.3447 34.9025C43.9477 34.9267 44.5748 34.8061 45.0573 35.2885Z" fill="#00C3D6"/>
<path d="M46.9628 30.7296C46.9386 31.1637 46.818 31.5738 46.5527 31.9356C46.1185 32.2974 45.612 32.2974 45.0814 32.2974C40.9809 32.2974 36.8804 32.2974 32.7798 32.2974C32.3457 32.2974 31.9115 32.2733 31.5015 32.0562C30.9467 31.3326 31.3085 30.8743 31.9356 30.4884C32.7075 30.2713 33.5035 30.3678 34.2994 30.3678C37.9899 30.3678 41.6804 30.3678 45.3708 30.3678C45.9256 30.3919 46.5045 30.2954 46.9628 30.7296Z" fill="#00A8DE"/>
<path d="M29.0654 36.7356C34.1066 36.7356 39.1236 36.7356 44.1649 36.7356C44.1166 37.2422 43.6824 37.5316 43.4412 37.9417C43.0553 38.1587 42.6453 38.3035 42.187 38.3035C37.9659 38.3276 33.7448 38.3276 29.5236 38.3035C29.2824 38.3035 29.0412 38.2552 28.8242 38.1587C28.0523 37.5557 28.6071 37.1457 29.0654 36.7356Z" fill="#00CAD4"/>
<path d="M28.5829 37.9417C33.5276 37.9417 38.4965 37.9417 43.4412 37.9417C43.1759 38.3758 43.007 38.9065 42.4764 39.1477C42.0905 39.3648 41.6804 39.4854 41.2221 39.4854C37.1216 39.4854 33.0452 39.4854 28.9447 39.4854C28.7035 39.4854 28.4623 39.4371 28.2452 39.3407C27.5699 38.6894 27.9558 38.2794 28.5829 37.9417Z" fill="#00D1D1"/>
<path d="M47.4934 28.1004C47.3728 28.4863 47.6864 28.9688 47.2522 29.3064C46.8663 29.6441 46.3839 29.6441 45.9015 29.6441C41.8733 29.6441 37.8693 29.6441 33.8412 29.6441C33.4311 29.6441 33.0452 29.6441 32.6834 29.427C32.1286 28.7034 32.4904 28.2451 33.1417 27.8592C34.2512 27.618 35.3608 27.7627 36.4703 27.7386C39.6301 27.7145 42.7658 27.7386 45.9256 27.7386C46.4804 27.7386 47.0593 27.6421 47.4934 28.1004Z" fill="#009DDF"/>
<path d="M41.9699 39.8473C41.6081 40.4261 41.0774 40.8844 40.5468 41.3186C37.6282 41.5839 34.6855 41.4151 31.7428 41.4151C30.2473 41.4151 28.7277 41.6322 27.2563 41.2221C26.7498 40.3538 27.2804 39.9437 27.9558 39.5819C30.9709 39.3648 34.0101 39.5337 37.0493 39.4854C38.2553 39.4613 39.4372 39.4854 40.6433 39.4854C41.1015 39.4854 41.584 39.4613 41.9699 39.8473Z" fill="#00DACE"/>
<path d="M47.9517 23.3488C44.1407 23.3488 40.3055 23.3246 36.4944 23.3246C35.1196 23.3246 35.1196 23.3246 35.7949 22.1186C36.205 21.805 36.6874 21.7809 37.1698 21.7809C40.3055 21.7809 43.4653 21.7809 46.601 21.7809C47.0834 21.7809 47.5658 21.7568 47.9517 22.1186C47.9276 22.5287 47.9276 22.9387 47.9517 23.3488Z" fill="#9478D8"/>
<path d="M31.3809 31.9357C36.4462 31.9357 41.4874 31.9599 46.5527 31.9599C46.3598 32.4423 46.1909 32.9006 45.998 33.383C45.5397 32.9247 44.9608 32.9006 44.3578 32.9006C39.8713 32.9006 35.3849 32.9006 30.9226 32.9006C30.7055 32.394 30.8261 32.0563 31.3809 31.9357Z" fill="#00B0DC"/>
<path d="M45.0573 35.2884C39.9678 35.2884 34.8543 35.2884 29.7648 35.2884C29.5719 34.7819 29.7889 34.4924 30.2472 34.3236C35.3608 34.3236 40.4744 34.3236 45.5638 34.3236C45.6121 34.7577 45.2503 34.999 45.0573 35.2884Z" fill="#00BDD8"/>
<path d="M46.0462 14.8824C46.6492 15.8472 46.9145 16.9567 47.204 18.0422C46.9386 18.3316 46.5768 18.4281 46.215 18.3557C44.4542 18.018 42.6693 18.211 40.9085 18.1145C40.7155 18.0904 40.5226 18.018 40.3537 17.9216C40.016 17.4874 40.3296 17.1738 40.5708 16.8361C40.9808 16.4743 41.4633 16.209 41.9457 15.9437C42.6934 15.5577 43.4411 15.2201 44.213 14.9306C44.816 14.7135 45.419 14.4482 46.0462 14.8824Z" fill="#00EEDA"/>
<path d="M27.1357 41.0533C31.188 41.0533 35.2644 41.0533 39.3166 41.0533C39.7267 41.0533 40.2091 40.8845 40.5468 41.3187C40.3538 41.6081 40.1609 41.8734 39.8232 42.0182C39.1478 42.3076 38.4724 42.4041 37.7247 42.38C34.6614 42.3558 31.5739 42.38 28.5106 42.3559C28.0041 42.3559 27.4734 42.4282 26.991 42.1629C26.5086 41.7287 26.5809 41.3428 27.1357 41.0533Z" fill="#00DECD"/>
<path d="M37.4111 43.7065C37.0252 44.1407 36.591 44.5025 35.988 44.6473C32.7558 44.9126 29.4995 44.7679 26.2674 44.7196C26.0744 44.7196 25.8814 44.6231 25.7126 44.5267C25.3026 43.8754 25.6644 43.5136 26.195 43.2C29.6443 42.9588 33.0935 43.1276 36.5427 43.1035C36.9287 43.1035 37.387 43.1518 37.4111 43.7065Z" fill="#00E9C9"/>
<path d="M46.9628 30.7297C41.9216 30.7297 36.9045 30.7297 31.8633 30.7297C31.6704 30.2473 31.9116 29.9819 32.3216 29.789C32.7799 29.6201 33.2623 29.6684 33.7447 29.6684C37.7005 29.6684 41.6804 29.6684 45.6362 29.6684C46.191 29.6684 46.7699 29.5719 47.204 30.0302C47.1317 30.2473 47.0352 30.4885 46.9628 30.7297Z" fill="#00A5DF"/>
<path d="M47.204 30.0061C42.1869 30.0061 37.194 30.0061 32.1769 30.0061C32.008 29.5961 32.1045 29.3307 32.5869 29.2825C37.4834 29.2825 42.3799 29.3066 47.2764 29.3066C47.2523 29.5478 47.2282 29.789 47.204 30.0061Z" fill="#00A0DF"/>
<path d="M47.4935 28.1005C42.6935 28.1005 37.8693 28.1005 33.0693 28.0764C32.8764 27.7146 33.0211 27.4975 33.3829 27.3769C38.1588 27.3769 42.9347 27.3769 47.6864 27.3769C47.6623 27.6422 47.8311 27.9317 47.4935 28.1005Z" fill="#0F97DE"/>
<path d="M41.9699 39.8473C37.2422 39.8473 32.5146 39.8473 27.7869 39.8473C27.594 39.5096 27.5457 39.2442 28.0281 39.1236C32.8523 39.1236 37.6523 39.1478 42.4764 39.1478C42.3075 39.3648 42.1387 39.6061 41.9699 39.8473Z" fill="#00D4D0"/>
<path d="M47.9276 25.2301C43.3929 25.2301 38.8583 25.2301 34.3477 25.2301C34.1306 24.9165 34.3718 24.7477 34.5166 24.5306C38.9789 24.5306 43.4653 24.5065 47.9276 24.5065C47.9276 24.7477 47.9276 24.9889 47.9276 25.2301Z" fill="#7084DA"/>
<path d="M25.6643 44.406C28.4382 44.406 31.2362 44.406 34.0101 44.406C34.6854 44.406 35.3608 44.4542 36.0121 44.6713C35.4573 45.009 35.0231 45.5396 34.2995 45.5879C33.6 45.1778 32.8282 45.419 32.1045 45.3949C30.2955 45.3467 28.4865 45.3708 26.6533 45.3949C26.2191 45.3949 25.7849 45.3708 25.399 45.1296C25.2302 44.7678 25.1337 44.4783 25.6643 44.406Z" fill="#00EBC8"/>
<path d="M26.798 41.9939C31.1397 41.9939 35.4814 42.018 39.8231 42.018C39.4372 42.3316 39.0512 42.6693 38.6412 42.9828C36.7839 43.224 34.9266 43.0793 33.0693 43.0793C30.9226 43.0793 28.7759 43.2723 26.6533 42.9587C26.0261 42.5246 26.2915 42.2351 26.798 41.9939Z" fill="#00E1CB"/>
<path d="M26.4121 42.7175C29.8131 42.7175 33.2382 42.7175 36.6392 42.7175C37.3146 42.7175 37.99 42.7657 38.6171 42.9828C38.2071 43.224 37.9176 43.6823 37.4111 43.7065C37.0734 43.2964 36.6151 43.4411 36.1809 43.4411C32.8282 43.417 29.4513 43.417 26.0985 43.417C25.9055 43.0793 26.0503 42.8622 26.4121 42.7175Z" fill="#00E4CB"/>
<path d="M39.3649 14.1829C39.5337 13.7729 39.6784 13.3869 39.8473 12.9769C41.5598 12.3015 43.3206 12.6392 45.0814 12.7357C45.4191 13.1457 45.7809 13.5799 45.7568 14.1588C45.4915 14.4482 45.1297 14.4965 44.7679 14.5206C43.2965 14.5688 41.8252 14.5688 40.3297 14.5206C39.992 14.5447 39.6302 14.4965 39.3649 14.1829Z" fill="#F14DD1"/>
<path d="M39.3648 14.1829C41.4874 14.1829 43.6341 14.1829 45.7567 14.1829C45.8773 14.4 46.0944 14.5688 46.0462 14.8583C45.419 14.9547 44.7919 15.0512 44.1648 15.1477C42.8623 15.5336 41.5356 15.5577 40.209 15.5095C39.7507 15.4854 39.2683 15.5336 38.9065 15.1477C39.0512 14.8341 39.1959 14.5206 39.3648 14.1829Z" fill="#E951D3"/>
<path d="M5.95777 8.201C6.60902 9.31055 7.11556 10.4683 7.59797 11.7709C6.27134 11.795 5.25827 11.1437 4.31757 10.3477C4.87234 9.62412 5.40299 8.9005 5.95777 8.201Z" fill="#FE45D0"/>
<path d="M40.3297 12.0363C41.2221 10.0584 41.2463 10.0584 43.6824 10.5649C44.1166 10.975 44.4784 11.4332 44.6473 12.0363C43.2 12.6393 41.7528 12.6152 40.3297 12.0363Z" fill="#FD45D0"/>
<path d="M47.9276 22.1186C43.8753 22.1186 39.8231 22.1186 35.7708 22.1186C35.8432 21.9498 35.9397 21.805 36.012 21.6362C36.4221 21.3226 36.9045 21.2985 37.3869 21.2985C40.3778 21.2985 43.3688 21.2985 46.3598 21.2985C46.8422 21.2985 47.3246 21.2744 47.7105 21.6362C47.8794 21.7327 47.9517 21.9015 47.9276 22.1186Z" fill="#9D74D8"/>
<path d="M12.012 21.6121C8.08039 21.6121 4.14873 21.6121 0.217072 21.6121C0.241192 21.4432 0.265313 21.2985 0.289433 21.1297C0.337675 21.1297 0.410036 21.1297 0.458278 21.1297C0.96481 20.8644 1.51958 20.792 2.07436 20.792C4.82411 20.792 7.54974 20.792 10.2995 20.792C10.806 20.792 11.3367 20.792 11.7708 21.1297C12.012 21.2262 11.9638 21.4432 12.012 21.6121Z" fill="#A371D7"/>
<path d="M47.7105 21.6362C43.803 21.6362 39.9196 21.6362 36.012 21.6362C36.0844 21.4673 36.1567 21.3226 36.2532 21.1538C36.6392 20.792 37.1457 20.8161 37.604 20.8161C40.5226 20.8161 43.4171 20.8161 46.3356 20.8161C46.8181 20.8161 47.3005 20.7678 47.6864 21.1538C47.6864 21.2985 47.7105 21.4673 47.7105 21.6362Z" fill="#A371D7"/>
<path d="M47.6864 21.1538C43.8753 21.1538 40.0643 21.1538 36.2532 21.1538C36.2291 20.9608 36.205 20.7678 36.4221 20.6714C36.8321 20.3578 37.2904 20.3337 37.7728 20.3337C40.6191 20.3337 43.4894 20.3337 46.3356 20.3337C46.7939 20.3337 47.3005 20.2854 47.6864 20.6714C47.6864 20.8161 47.6864 20.9849 47.6864 21.1538Z" fill="#A96FD7"/>
<path d="M47.6864 20.6713C43.9236 20.6713 40.1849 20.6713 36.4221 20.6713C36.4704 20.5025 36.4221 20.2854 36.6633 20.1889C37.0734 19.8753 37.5317 19.8512 38.0141 19.8512C40.7879 19.8512 43.5618 19.8512 46.3116 19.8512C46.794 19.8512 47.2523 19.8753 47.6623 20.1889C47.6864 20.3578 47.6864 20.5025 47.6864 20.6713Z" fill="#AF6CD6"/>
<path d="M47.6864 20.189C44.0201 20.189 40.3297 20.189 36.6633 20.189C36.7116 20.0201 36.6633 19.7789 36.9045 19.7066C37.2663 19.4171 37.7005 19.393 38.1347 19.3689C40.8362 19.3689 43.5136 19.3689 46.2151 19.3689C46.6493 19.3689 47.0834 19.3448 47.4452 19.7066C47.5176 19.8754 47.59 20.0201 47.6864 20.189Z" fill="#B56AD6"/>
<path d="M47.4452 19.7065C43.9236 19.7065 40.4261 19.7065 36.9045 19.7065C36.9528 19.5377 36.9045 19.2964 37.1457 19.2241C37.5075 18.9346 37.9417 18.9105 38.3759 18.8864C40.9809 18.8864 43.61 18.8864 46.2151 18.8864C46.6492 18.8864 47.0834 18.8864 47.4452 19.2241C47.4452 19.3929 47.4452 19.5377 47.4452 19.7065Z" fill="#BB68D6"/>
<path d="M47.4452 19.2242C44.0201 19.2242 40.5708 19.2242 37.1457 19.2242C37.194 19.0554 37.1457 18.8142 37.3869 18.7418C37.7487 18.4282 38.1829 18.4282 38.6412 18.4282C41.1015 18.4282 43.5859 18.4282 46.0462 18.4282C46.4804 18.4282 46.9146 18.4523 47.2764 18.7418C47.4935 18.8383 47.4693 19.0312 47.4452 19.2242Z" fill="#C066D5"/>
<path d="M40.3055 17.5599C40.402 17.8734 40.6914 17.8011 40.9085 17.7769C43.007 17.7046 45.1055 17.8493 47.204 18.0181C47.204 18.0905 47.204 18.187 47.204 18.2594C46.9387 18.5006 46.6251 18.5006 46.3115 18.5006C43.6583 18.5006 41.005 18.5006 38.3517 18.5006C38.0382 18.5006 37.7246 18.5006 37.4593 18.2594C37.604 18.0181 37.7246 17.7769 37.8693 17.5357C38.6894 17.0533 39.5095 17.0051 40.3055 17.5599Z" fill="#CB60D5"/>
<path d="M37.4593 18.2593C40.7156 18.2593 43.9719 18.2593 47.204 18.2593C47.2281 18.4282 47.2523 18.5729 47.2764 18.7417C43.9719 18.7417 40.6915 18.7417 37.3869 18.7417C37.4111 18.5729 37.4352 18.4282 37.4593 18.2593Z" fill="#C663D5"/>
<path d="M40.3297 12.0363C41.7528 12.0363 43.2 12.0363 44.6231 12.0363C44.7679 12.2775 44.9126 12.5187 45.0814 12.7599C43.8272 13.2423 42.5246 12.8805 41.2704 12.977C40.8121 13.0252 40.3297 12.977 39.8473 12.977C40.0161 12.6634 40.1608 12.3498 40.3297 12.0363Z" fill="#F848D1"/>
<path d="M26.4121 42.7176C26.3156 42.9588 26.195 43.2 26.0985 43.4171C25.8332 43.6824 25.6402 43.996 25.6643 44.3819C25.399 44.5508 25.4231 44.8402 25.399 45.0814C24.8201 45.8774 24.4583 46.8181 24.0241 47.8071C23.2523 46.987 23.2764 45.8292 22.5528 45.0814C22.2875 44.9608 22.191 44.6955 22.0704 44.4543C21.9498 44.1166 21.805 43.7789 21.6362 43.4412C21.4191 42.9588 21.1538 42.5005 20.9367 42.0181C20.8161 41.7287 20.7437 41.4151 20.599 41.1257C20.406 40.6915 20.1648 40.2814 19.9719 39.8473C19.8272 39.4613 19.7065 39.0513 19.4895 38.6895C19.3447 38.3518 19.1759 38.0382 19.0071 37.7247C18.8623 37.4593 18.7417 37.1699 18.6452 36.8804C18.5488 36.591 18.4282 36.3257 18.2834 36.0603C18.1628 35.8433 18.0663 35.602 17.9457 35.3608C17.7769 35.0232 17.6081 34.7096 17.4875 34.3719C17.3186 33.8654 17.0774 33.4071 16.8362 32.9488C16.6191 32.5146 16.4985 32.0804 16.3055 31.6463C16.1849 31.3568 16.0402 31.0915 15.8955 30.802C15.7749 30.585 15.6784 30.3438 15.5819 30.1025C15.5096 29.8613 15.4131 29.6201 15.2925 29.403C15.0995 28.993 14.8824 28.5829 14.6653 28.1729C14.5689 27.9317 14.4241 27.6905 14.5447 27.4252C14.5206 26.5809 13.9176 25.9779 13.5799 25.2543C13.5317 25.0131 13.4593 24.796 13.4111 24.5548C14.8342 24.5548 16.2573 24.5548 17.6804 24.5548C17.8975 24.7237 18.0905 24.9166 18.2111 25.1819C18.5246 26.002 18.9106 26.798 19.2965 27.594C19.4653 28.1488 19.7307 28.7036 19.996 29.2101C20.1166 29.4513 20.2131 29.6925 20.3096 29.9337C20.3819 30.1749 20.4784 30.4161 20.599 30.6573C20.792 31.0915 21.0332 31.5015 21.2261 31.9357C21.3709 32.3216 21.5156 32.7317 21.7086 33.0935C21.9015 33.4794 22.0221 33.8895 22.191 34.2754C22.3357 34.6131 22.5045 34.9508 22.6734 35.2644C22.8663 35.6503 22.9869 36.0603 23.1558 36.4463C23.3488 36.9287 23.6141 37.387 23.8312 37.8694C23.9035 37.9659 23.8794 38.2071 24.0241 38.1829C24.1447 38.1829 24.1206 37.9417 24.193 37.8211C24.3377 37.4352 24.5307 37.0493 24.6513 36.6392C24.8442 36.1327 25.1096 35.6744 25.3266 35.1679C25.4714 34.8784 25.5679 34.589 25.6643 34.2754C25.8573 33.8412 26.0985 33.4312 26.2432 32.9729C26.388 32.5628 26.5809 32.1769 26.7498 31.8151C26.9427 31.4533 27.1357 31.0674 27.2563 30.6814C27.3528 30.4402 27.4493 30.199 27.5699 29.9578C27.7146 29.6684 27.8593 29.403 27.9799 29.1136C28.197 28.5588 28.4141 28.0041 28.6794 27.4734C29.0653 26.7498 29.2824 25.9297 29.6925 25.2302C29.8613 24.9166 30.0543 24.6754 30.392 24.5307C31.7427 24.5307 33.0935 24.5307 34.4201 24.5307C34.3719 24.7719 34.2995 24.989 34.2513 25.2302C33.9377 25.9538 33.6 26.6774 33.2864 27.401C33.19 27.6422 33.0935 27.8593 32.9729 28.1005C32.6111 28.4141 32.5146 28.8483 32.4905 29.3066C32.3457 29.5478 32.2251 29.789 32.0804 30.0302C31.9839 30.2714 31.8633 30.5126 31.7668 30.7297C31.405 31.0433 31.3086 31.4774 31.2844 31.9357C31.0191 32.201 30.8503 32.5146 30.802 32.9005C30.4643 33.3347 30.1749 33.7689 30.1508 34.3478C29.9819 34.6613 29.8372 34.999 29.6684 35.3126C29.4272 35.795 29.1859 36.2774 28.9447 36.7598C28.7759 37.1699 28.6312 37.5558 28.4623 37.9659C28.2452 38.3518 27.9558 38.6895 27.9076 39.1478C27.5699 39.2925 27.7628 39.6302 27.6663 39.8714C27.4493 40.2814 27.2322 40.6674 27.0151 41.0774C26.7739 41.3427 26.7015 41.6804 26.6774 42.0181C26.6774 42.2352 26.5327 42.4764 26.4121 42.7176Z" fill="#FE45D0"/>
<path d="M31.6221 21.6121C31.405 22.9869 30.6573 23.397 29.2342 23.3487C25.6643 23.2281 22.0704 23.2523 18.5005 23.3487C17.1739 23.3729 16.6432 22.8422 16.5226 21.6362C16.9327 21.202 17.4874 21.2985 17.994 21.2985C22.0462 21.2985 26.1226 21.2985 30.1749 21.2985C30.6573 21.2985 31.1879 21.202 31.6221 21.6121Z" fill="#9B75D8"/>
<path d="M17.0292 13.001C15.9196 13.0733 14.9066 12.7115 13.9176 12.2532C14.0865 11.6261 14.6413 11.6984 15.0995 11.6984C20.9367 11.6743 26.798 11.6743 32.6352 11.6984C33.0935 11.6984 33.6242 11.6261 33.8171 12.2532C33.2865 12.5427 32.8041 12.9286 32.1769 13.0251C31.4292 13.2904 30.6332 13.3869 29.8372 13.3869C26.1468 13.3628 22.4563 13.3869 18.7659 13.3869C18.1387 13.3628 17.5357 13.3628 17.0292 13.001Z" fill="#F848D1"/>
<path d="M33.793 12.2292C33.5035 11.9398 33.1176 12.0362 32.7799 12.0362C26.8221 12.0362 20.8885 12.0362 14.9307 12.0362C14.593 12.0362 14.2071 11.9398 13.9176 12.2292C13.5076 11.988 13.1216 11.7468 12.7116 11.5056C13.001 11.2161 13.387 11.3126 13.7246 11.3126C20.4784 11.3126 27.2081 11.3126 33.9618 11.3126C34.2995 11.3126 34.6855 11.2161 34.9749 11.5056C34.6131 11.7468 34.203 11.988 33.793 12.2292Z" fill="#FC46D0"/>
<path d="M34.7337 14.6654C34.6131 15.196 34.3478 15.4131 33.7448 15.389C27.2563 15.3649 20.7679 15.3649 14.2794 15.389C13.7488 15.389 13.3146 15.389 13.387 14.6654C13.797 14.2312 14.3518 14.3277 14.8583 14.3277C20.985 14.3277 27.1357 14.3277 33.2623 14.3277C33.7689 14.3518 34.3237 14.2553 34.7337 14.6654Z" fill="#E752D3"/>
<path d="M17.0292 13.0011C22.0704 13.0011 27.1116 13.0011 32.1528 13.0011C31.8392 13.2423 31.5015 13.4594 31.1879 13.7006C30.8985 14.0383 30.4885 14.0383 30.0784 14.0383C26.1226 14.0624 22.1427 14.0624 18.1869 14.0383C17.7528 14.0383 17.198 14.1589 17.005 13.5076C17.4151 13.3388 17.0774 13.1699 17.0292 13.0011Z" fill="#F24CD1"/>
<path d="M34.7337 14.6654C27.6181 14.6654 20.5025 14.6654 13.4111 14.6654C13.1699 14.5931 13.2181 14.3519 13.1699 14.183C14.3759 13.6765 15.6784 13.8936 16.9327 13.8936C22.0945 13.9177 27.2804 13.99 32.4422 13.8453C33.2864 13.8212 34.203 13.58 34.9749 14.1589C34.8784 14.3519 34.806 14.5207 34.7337 14.6654Z" fill="#EA50D2"/>
<path d="M34.9748 14.1829C27.7145 14.1829 20.4301 14.1829 13.1698 14.1829C13.0251 13.604 13.4351 13.7005 13.7487 13.7005C14.8583 13.6764 15.9437 13.7487 17.0291 13.5075C17.3186 13.797 17.7045 13.7005 18.0422 13.7005C22.4321 13.7005 26.798 13.7005 31.1879 13.7005C31.405 13.7005 31.6221 13.7005 31.8633 13.7005C32.9005 13.8693 33.9859 13.2181 34.9748 13.9417C34.9748 14.0382 34.9748 14.1106 34.9748 14.1829Z" fill="#EF4ED1"/>
<path d="M30.4643 24.5307C30.2954 24.7719 30.1507 24.989 29.9819 25.2302C29.5236 25.6161 28.9447 25.6161 28.3899 25.6161C25.4472 25.6161 22.5286 25.6161 19.5859 25.6161C19.0311 25.6161 18.4763 25.592 17.9939 25.2302C17.8974 24.989 17.801 24.7719 17.6804 24.5307C21.9738 24.5307 26.2191 24.5307 30.4643 24.5307Z" fill="#7084DA"/>
<path d="M15.6301 19.7066C15.5578 19.5378 15.4613 19.3931 15.3889 19.2242C15.6301 19.0554 15.9196 19.1036 16.209 19.1036C21.4191 19.1036 26.6291 19.1036 31.8392 19.1036C32.1045 19.1036 32.3939 19.0312 32.6351 19.2242C32.5869 19.3931 32.6351 19.6343 32.3939 19.7066C31.9115 20.0684 31.3568 20.0443 30.802 20.0443C26.2673 20.0443 21.7568 20.0443 17.2221 20.0443C16.6673 20.0443 16.0884 20.1167 15.6301 19.7066Z" fill="#BB68D6"/>
<path d="M15.6301 19.7066C21.2261 19.7066 26.8221 19.7066 32.3939 19.7066C32.3457 19.8754 32.3939 20.0925 32.1527 20.189C31.7186 20.5508 31.1879 20.5026 30.6573 20.5026C26.195 20.5026 21.7326 20.5026 17.2703 20.5026C16.7397 20.5026 16.2331 20.5025 15.7748 20.1649C15.5578 20.0925 15.5819 19.8995 15.6301 19.7066Z" fill="#B56AD6"/>
<path d="M15.799 20.189C21.2503 20.189 26.7015 20.189 32.1769 20.189C32.1528 20.3337 32.1287 20.5025 32.1045 20.6473C31.6221 21.0091 31.0674 20.985 30.5126 20.985C26.2191 20.985 21.9498 20.985 17.6563 20.985C17.1015 20.985 16.5467 21.0332 16.0643 20.6473C15.799 20.599 15.8473 20.3819 15.799 20.189Z" fill="#AF6CD6"/>
<path d="M16.0402 20.6713C21.395 20.6713 26.7497 20.6713 32.1045 20.6472C32.0322 20.816 31.9357 20.9607 31.8633 21.1296C31.5256 21.3949 31.1156 21.3708 30.7055 21.3708C26.2915 21.3708 21.8533 21.3708 17.4392 21.3708C17.0533 21.3708 16.6432 21.3949 16.2814 21.1537C16.0402 21.0813 16.0884 20.8642 16.0402 20.6713Z" fill="#A96FD7"/>
<path d="M16.2814 21.1537C21.4673 21.1537 26.6533 21.1537 31.8633 21.1296C31.791 21.2984 31.6945 21.4431 31.6221 21.612C26.5809 21.612 21.5638 21.612 16.5226 21.6361C16.2814 21.5396 16.3296 21.3467 16.2814 21.1537Z" fill="#A371D7"/>
<path d="M10.3477 18.0181C10.4924 18.2593 10.613 18.5006 10.7577 18.7418C10.4683 19.0794 10.0582 19.0794 9.64819 19.0794C7.59794 19.1036 5.52357 19.1036 3.47332 19.0794C3.08739 19.0794 2.67734 19.0794 2.36377 18.7418C2.58085 18.3558 2.89442 18.1146 3.32859 18.0181C5.66829 17.5116 8.00799 17.4634 10.3477 18.0181Z" fill="#C763D5"/>
<path d="M11.7708 21.1297C7.98389 21.1297 4.22108 21.1297 0.434143 21.1297C0.602987 20.9608 0.747711 20.8161 0.916555 20.6473C1.32661 20.3337 1.80902 20.3096 2.29143 20.3096C4.92058 20.3096 7.54972 20.3096 10.1789 20.3096C10.6613 20.3096 11.1437 20.3096 11.5296 20.6473C11.7708 20.7438 11.7226 20.9608 11.7708 21.1297Z" fill="#A96FD7"/>
<path d="M11.5296 20.6472C7.98387 20.6472 4.46226 20.6472 0.916534 20.6472C0.964776 20.4783 0.916534 20.2612 1.15774 20.1648C1.47131 19.9959 1.809 19.8512 2.17081 19.8512C5.18588 19.8512 8.22508 19.7306 11.2402 19.9235C11.5537 20.1165 11.4814 20.406 11.5296 20.6472Z" fill="#AF6CD6"/>
<path d="M11.2643 19.9477C10.9507 20.3095 10.5166 20.1889 10.1547 20.1889C7.16379 20.1889 4.17284 20.1889 1.18188 20.1889C1.35073 20.0201 1.49545 19.8753 1.6643 19.7065C2.09847 19.4653 2.55676 19.3929 3.03917 19.3688C5.35475 19.3688 7.67033 19.3688 9.9859 19.3688C10.4442 19.3688 10.8542 19.4412 11.2402 19.7065C11.2402 19.7789 11.2643 19.8753 11.2643 19.9477Z" fill="#B56AD6"/>
<path d="M11.2402 19.7065C8.05627 19.7065 4.84823 19.7065 1.66431 19.7065C1.80903 19.5377 1.97787 19.3929 2.1226 19.2241C2.38792 19.0311 2.70149 19.007 3.03918 19.007C5.37888 19.007 7.7427 19.007 10.0824 19.007C10.396 19.007 10.7095 19.0552 10.999 19.2482C11.0713 19.3929 11.1437 19.5377 11.2402 19.7065Z" fill="#BB68D6"/>
<path d="M3.811 17.5357C4.10045 17.0533 4.63111 16.9085 5.06528 16.6432C6.24719 16.402 7.4291 16.4744 8.63513 16.4744C9.0693 16.4744 9.50347 16.5226 9.86528 16.8121C10.01 17.0533 10.1306 17.2945 10.2753 17.5357C8.85221 18.0422 7.35673 17.7045 5.9095 17.7528C5.21 17.801 4.46226 17.994 3.811 17.5357Z" fill="#D35DD4"/>
<path d="M38.8824 15.1477C40.6432 15.1477 42.3799 15.1477 44.1407 15.1718C43.4171 15.4854 42.6934 15.8231 41.9698 16.1367C40.8362 16.4985 39.7025 16.7879 38.5688 16.1125C38.5688 15.7507 38.6412 15.413 38.8824 15.1477Z" fill="#E255D3"/>
<path d="M32.6351 19.2483C26.8944 19.2483 21.1296 19.2483 15.3889 19.2483C15.4613 18.9829 15.6784 19.0071 15.8472 19.0071C21.3467 19.0071 26.8703 19.0071 32.3698 19.0071C32.4904 19.0071 32.5869 19.0553 32.7075 19.0794C32.6834 19.1277 32.6593 19.1759 32.6351 19.2483Z" fill="#BF67D5"/>
<path d="M10.999 19.224C8.03214 19.224 5.08942 19.224 2.12259 19.1999C2.17083 19.0311 2.14671 18.814 2.3638 18.7175C5.16179 18.7175 7.95978 18.7175 10.7336 18.7175C10.8301 18.9105 10.9025 19.0793 10.999 19.224Z" fill="#C066D5"/>
<path d="M3.81103 17.5357C5.95776 17.5357 8.12861 17.5357 10.2753 17.5357C10.2995 17.7045 10.3236 17.8493 10.3477 18.0181C8.00801 18.0181 5.66831 18.0181 3.32861 18.0181C3.49746 17.8493 3.64218 17.7045 3.81103 17.5357Z" fill="#CD5FD4"/>
<path d="M9.86534 16.8121C8.27338 16.7156 6.6573 17.0533 5.06534 16.6432C5.42715 16.402 5.76484 16.1367 6.22313 16.0885C7.33267 15.9196 8.44222 15.389 9.57589 16.0885C9.64825 16.3538 9.74474 16.595 9.86534 16.8121Z" fill="#DA59D4"/>
<path d="M34.9749 13.9417C33.9377 13.8452 32.8764 14.1829 31.8633 13.7005C33.0211 13.3628 34.203 13.0251 35.4091 12.6633C35.5779 13.2422 35.1437 13.5558 34.9749 13.9417Z" fill="#F04DD1"/>
<path d="M38.5689 16.1125C39.7025 16.1125 40.8362 16.1367 41.9699 16.1367C41.5598 16.3296 41.3186 16.8361 40.788 16.8603C39.8955 17.2462 39.0272 17.4392 38.1588 16.8361C38.3035 16.5949 38.4483 16.3537 38.5689 16.1125Z" fill="#DA59D3"/>
<path d="M38.1588 16.8362C39.0271 16.8362 39.9196 16.8603 40.7879 16.8603C40.6191 17.1015 40.4744 17.3427 40.3055 17.5598C39.4854 17.5598 38.6653 17.5356 37.8452 17.5356C37.9658 17.2944 38.0623 17.0774 38.1588 16.8362Z" fill="#D35DD4"/>
<path d="M9.5518 16.1126C8.44225 16.1126 7.3327 16.1126 6.19904 16.1126C6.87441 15.7267 7.59803 15.582 8.34577 15.3649C9.11763 15.1478 9.38295 15.4614 9.5518 16.1126Z" fill="#E056D3"/>
<path d="M17.0533 32.8764C17.391 33.3106 17.6804 33.7688 17.7287 34.3236C17.2704 34.7819 16.6915 34.7095 16.1608 34.7095C12.1086 34.7337 8.0322 34.7095 3.97994 34.7095C3.42517 34.7095 2.84627 34.7096 2.38798 34.3236C2.1709 33.8412 1.95381 33.3588 1.73672 32.8764C2.19502 32.4422 2.77391 32.4905 3.30456 32.4905C7.35682 32.4663 11.4091 32.4905 15.4613 32.4905C16.0161 32.5146 16.595 32.5146 17.0533 32.8764Z" fill="#00B7DA"/>
<path d="M17.0532 32.8765C11.9397 32.8765 6.82609 32.8765 1.71252 32.8765C1.61604 32.5629 1.51956 32.2493 1.39896 31.9357C1.64016 31.4051 2.12257 31.3327 2.60499 31.3327C7.04318 31.2845 11.4814 31.3086 15.8954 31.3086C16.0884 31.3086 16.2814 31.381 16.4743 31.4533C16.6914 31.9357 16.8603 32.4182 17.0532 32.8765Z" fill="#00AFDC"/>
<path d="M21.1296 41.9939C21.4673 42.4281 21.7326 42.8864 21.8532 43.4412C21.4191 43.8995 20.8161 43.8271 20.2854 43.8271C17.5357 43.8512 14.7859 43.8271 12.0362 43.8271C11.3367 43.8271 10.6854 43.6824 10.0583 43.4412C9.28641 43.1517 8.82812 42.4281 8.15274 41.9939C8.61103 41.5357 9.18993 41.608 9.72058 41.608C13.001 41.5839 16.2573 41.608 19.5377 41.608C20.0924 41.6321 20.6713 41.608 21.1296 41.9939Z" fill="#00E2CB"/>
<path d="M18.9106 36.7357C19.0071 37.0492 19.1035 37.3628 19.2 37.6764C19.1035 38.3518 18.5488 38.2794 18.0905 38.2794C13.99 38.3035 9.88947 38.2794 5.76485 38.3035C5.30655 38.3035 4.8965 38.1588 4.51058 37.9417C4.26937 37.5558 3.8352 37.2422 3.78696 36.7357C4.19701 36.3015 4.72766 36.3739 5.23419 36.3739C9.28645 36.3739 13.3387 36.3739 17.391 36.3739C17.9457 36.3739 18.4764 36.398 18.9106 36.7357Z" fill="#00CAD4"/>
<path d="M14.8824 28.1005C15.2201 28.4382 15.3648 28.8965 15.5337 29.3065C15.1236 29.7407 14.593 29.6683 14.0864 29.6683C10.1065 29.6683 6.12662 29.6683 2.17085 29.6683C1.64019 29.6683 1.13366 29.6924 0.699489 29.3306C0.265318 28.9929 0.603006 28.5105 0.458282 28.1246C0.868333 27.6904 1.39899 27.7628 1.92964 27.7628C5.76481 27.7628 9.59999 27.7628 13.4352 27.7628C13.9417 27.7387 14.4482 27.7146 14.8824 28.1005Z" fill="#009DDF"/>
<path d="M19.6825 38.6412C20.0443 38.9548 20.1649 39.389 20.1649 39.8473C19.7307 40.3055 19.1277 40.2332 18.597 40.2332C14.9548 40.2573 11.3367 40.2332 7.69452 40.2332C7.09151 40.2332 6.51261 40.1608 5.95784 39.8473C5.71663 39.5337 5.47543 39.2201 5.23422 38.8824C5.49955 38.3035 6.0302 38.2794 6.56086 38.2794C10.5649 38.2553 14.5448 38.2794 18.5488 38.2794C18.983 38.3035 19.3689 38.3759 19.6825 38.6412Z" fill="#00D3D1"/>
<path d="M5.95782 39.8472C10.6855 39.8472 15.4372 39.823 20.1649 39.823C20.3819 40.2331 20.599 40.619 20.8161 41.0291C20.3819 41.4632 19.7789 41.415 19.2483 41.415C15.799 41.4391 12.3498 41.415 8.87642 41.415C8.2734 41.415 7.69451 41.3426 7.16386 41.0291C6.77793 40.6673 6.36788 40.2572 5.95782 39.8472Z" fill="#00D9CE"/>
<path d="M2.36377 34.3478C7.47734 34.3478 12.615 34.3478 17.7286 34.3478C17.8733 34.6614 18.0422 34.999 18.1869 35.3126C17.7768 35.7468 17.2462 35.6744 16.7396 35.6744C12.6391 35.6744 8.56276 35.6744 4.46226 35.6744C3.90749 35.6744 3.35271 35.6262 2.8703 35.3126C2.58085 35.0473 2.41201 34.7096 2.36377 34.3478Z" fill="#00BCD8"/>
<path d="M16.4985 31.4532C16.0643 31.7427 15.5819 31.6944 15.0995 31.6944C11.0231 31.6944 6.97084 31.6944 2.89446 31.6944C2.38792 31.6944 1.85727 31.6462 1.37486 31.9356C1.13365 31.5738 0.940688 31.1879 0.964809 30.7296C1.37486 30.3195 1.90551 30.3678 2.41204 30.3678C6.46431 30.3678 10.5166 30.3678 14.5688 30.3678C15.0995 30.3678 15.606 30.3437 16.0402 30.7055C16.2332 30.9708 16.3779 31.212 16.4985 31.4532Z" fill="#00A8DE"/>
<path d="M7.16385 41.0533C11.7226 41.0533 16.2573 41.0533 20.8161 41.0533C21.0573 41.3186 21.1297 41.6563 21.1297 41.994C16.788 41.994 12.4704 41.994 8.12867 42.0181C7.74274 41.7769 7.42918 41.4392 7.16385 41.0533Z" fill="#00DECD"/>
<path d="M10.0342 43.4652C13.9658 43.4652 17.8975 43.4411 21.8292 43.4411C22.0704 43.7065 22.3116 43.9959 22.2392 44.406C21.7568 44.8884 21.1297 44.7678 20.5508 44.7678C17.7769 44.816 15.003 44.6954 12.2292 44.8401C11.4091 44.5266 10.7337 43.9718 10.0342 43.4652Z" fill="#00E9C9"/>
<path d="M2.87033 35.2884C7.9839 35.2884 13.0975 35.2884 18.1869 35.2884C18.2834 35.5296 18.404 35.7708 18.5005 35.9879C18.0904 36.4221 17.5598 36.3497 17.0291 36.3497C12.9527 36.3497 8.87636 36.3497 4.79998 36.3497C4.26933 36.3497 3.76279 36.3738 3.32862 36.012C3.1839 35.7708 3.01505 35.5296 2.87033 35.2884Z" fill="#00C1D6"/>
<path d="M3.32861 36.0121C8.39394 36.0121 13.4351 35.988 18.5005 35.988C18.6452 36.2292 18.7658 36.4704 18.9105 36.7116C13.8693 36.7116 8.85223 36.7116 3.81103 36.7116C3.49746 36.6151 3.32861 36.3739 3.32861 36.0121Z" fill="#00C4D5"/>
<path d="M19.6824 38.6412C15.3649 38.6412 11.0714 38.6412 6.75381 38.6412C6.22315 38.6412 5.71662 38.593 5.23421 38.8824C4.80004 38.7136 4.77592 38.2311 4.51059 37.9176C8.94878 37.9176 13.387 37.9176 17.8252 37.8935C18.2835 37.8935 18.79 38.0864 19.1759 37.6281C19.4895 37.9176 19.6342 38.2553 19.6824 38.6412Z" fill="#00CFD2"/>
<path d="M16.0885 30.7296C11.0473 30.7296 6.03018 30.7296 0.988978 30.7296C0.916616 30.4884 0.820134 30.2472 0.747772 30.006C1.15782 29.5959 1.68848 29.6442 2.21913 29.6442C6.24727 29.6442 10.2754 29.6442 14.3036 29.6442C14.8101 29.6442 15.3649 29.5959 15.7749 30.006C15.8955 30.2472 15.992 30.4884 16.0885 30.7296Z" fill="#00A5DF"/>
<path d="M15.7749 30.0301C10.7578 30.0301 5.7648 30.0301 0.747716 30.0301C0.723595 29.7889 0.699475 29.5477 0.675354 29.3306C5.62008 29.3306 10.5889 29.3306 15.5336 29.3306C15.6543 29.5235 15.9196 29.7165 15.7749 30.0301Z" fill="#00A0DF"/>
<path d="M14.8824 28.1004C10.0824 28.1004 5.25828 28.1004 0.458278 28.1245C0.12059 27.9557 0.289434 27.6663 0.289434 27.4009C5.06531 27.4009 9.84119 27.4009 14.593 27.4009C14.6894 27.618 14.7859 27.8592 14.8824 28.1004Z" fill="#0F97DE"/>
<path d="M12.2292 44.8402C12.5186 44.3096 13.0252 44.406 13.4835 44.406C16.4021 44.406 19.3206 44.406 22.2634 44.406C22.384 44.6231 22.6011 44.792 22.5528 45.1055C22.2151 45.5156 21.7327 45.3709 21.3227 45.3709C19.1759 45.395 17.0292 45.3709 14.8825 45.395C14.4724 45.395 13.99 45.2261 13.6523 45.6603C13.0734 45.5638 12.7116 45.1297 12.2292 44.8402Z" fill="#00ECC8"/>
<path d="M18.0181 25.2301C21.998 25.2301 26.0021 25.2301 29.982 25.2301C29.6684 26.0502 29.4513 26.8944 28.9689 27.6421C28.5106 27.9316 28.0282 28.0039 27.4975 28.0039C25.2061 28.0039 22.9146 28.0039 20.599 28.0039C20.0925 28.0039 19.5618 27.9798 19.1277 27.618C18.5488 26.9185 18.3317 26.0743 18.0181 25.2301Z" fill="#598ADC"/>
<path d="M19.1517 27.6181C22.4321 27.6181 25.7125 27.6181 28.9688 27.6422C28.7276 28.197 28.4864 28.7518 28.2452 29.3065C25.4472 29.8854 22.6492 29.8854 19.8754 29.3065C19.4653 28.8241 19.2 28.2693 19.1517 27.6181Z" fill="#009DDF"/>
<path d="M27.5458 30.7297C27.6181 31.2362 27.2322 31.5256 27.0633 31.9357C25.0613 32.5628 23.0352 32.5146 21.0332 31.9598C20.8402 31.5498 20.6231 31.1397 20.4302 30.7297C20.599 30.5367 20.8161 30.4161 21.0573 30.4161C23.0111 30.3437 24.9648 30.3437 26.9186 30.4161C27.1598 30.4402 27.3769 30.5367 27.5458 30.7297Z" fill="#00A8DE"/>
<path d="M26.5809 33.1416C26.3879 33.5758 26.2673 34.01 25.9296 34.3477C24.6271 34.9024 23.3487 34.9266 22.0703 34.3477C21.805 33.9859 21.6603 33.5758 21.5638 33.1658C22.6734 32.2733 25.6161 32.2492 26.5809 33.1416Z" fill="#00B8D9"/>
<path d="M19.8754 29.3065C22.6734 29.3065 25.4713 29.3065 28.2452 29.3065C28.1005 29.5477 27.9799 29.7889 27.8352 30.0301C27.6663 30.1508 27.5216 30.2955 27.3045 30.2955C25.0854 30.4161 22.8904 30.4161 20.6713 30.2955C20.4784 30.2955 20.3095 30.1508 20.1648 30.006C20.0925 29.7889 19.9718 29.5477 19.8754 29.3065Z" fill="#00A0DF"/>
<path d="M26.5809 33.1417C24.9166 32.7316 23.2282 32.804 21.5639 33.1658C21.202 32.8522 21.1297 32.4181 21.0332 31.9839C23.0352 31.9839 25.0613 31.9598 27.0634 31.9598C26.8945 32.3457 26.7257 32.7316 26.5809 33.1417Z" fill="#00B0DC"/>
<path d="M20.1889 30.0061C22.7457 30.0061 25.3025 30.0061 27.8593 30.0061C27.7628 30.2473 27.6663 30.4885 27.5457 30.7056C25.1819 30.7056 22.794 30.7056 20.4301 30.7056C20.3095 30.5126 20.0442 30.3197 20.1889 30.0061Z" fill="#00A4DF"/>
<path d="M22.0462 34.3236C23.3246 34.3236 24.6271 34.3236 25.9055 34.3236C25.9055 34.6854 25.8331 34.999 25.5919 35.2643C24.5547 35.7949 23.5176 35.7949 22.4804 35.2643C22.2392 35.0472 22.0703 34.7336 22.0462 34.3236Z" fill="#00BDD8"/>
<path d="M22.5045 35.3126C23.5417 35.3126 24.5789 35.3126 25.616 35.3126C25.3748 35.795 25.1336 36.2774 24.8924 36.7357C24.2412 36.9287 23.5899 36.9046 23.011 36.4945C22.7457 36.1327 22.601 35.7227 22.5045 35.3126Z" fill="#01C2D6"/>
<path d="M23.011 36.4944C23.6382 36.5426 24.2894 36.3497 24.8924 36.7356C24.9648 37.2421 24.603 37.5557 24.41 37.9416C24.1688 38.1587 23.9517 38.1346 23.7105 37.9416C23.3729 37.5075 23.0834 37.0492 23.011 36.4944Z" fill="#00CAD4"/>
<path d="M23.7105 37.9417C23.9517 37.9417 24.1929 37.9417 24.41 37.9417C24.5306 38.3276 24.1929 38.5447 24.0964 38.8341C23.6864 38.6412 23.7588 38.2794 23.7105 37.9417Z" fill="#00CFD2"/>
</g>
<defs>
<clipPath id="clip0_2_6622">
<rect width="47.9759" height="48" fill="white"/>
</clipPath>
</defs>
</svg>
