<svg width="48" height="48" viewBox="0 0 48 48" fill="none" xmlns="http://www.w3.org/2000/svg">
<path d="M23.9889 47.9999C37.2377 47.9999 47.9779 37.2597 47.9779 24.011C47.9779 10.7622 37.2377 0.0220337 23.9889 0.0220337C10.7402 0.0220337 0 10.7622 0 24.011C0 37.2597 10.7402 47.9999 23.9889 47.9999Z" fill="#232323"/>
<g clip-path="url(#clip0_2_13375)">
<path d="M9 24.0001C9 19.1859 9 14.3717 9 9.55754C9 9.00011 9 9.00011 9.55743 9.00011C19.1858 9.00011 28.8142 9.00011 38.4595 8.98322C38.8818 8.98322 39.0169 9.08457 39 9.52376C38.9831 19.169 38.9831 28.8143 39 38.4596C39 38.8988 38.8649 39.0001 38.4595 39.0001C28.8311 38.9832 19.2027 38.9832 9.55743 38.9832C9 38.9832 9 38.9832 9 38.4258C9 33.6285 9 28.8143 9 24.0001ZM24 38.2062C28.5608 38.2062 33.1216 38.2062 37.6824 38.2062C38.0709 38.2062 38.2061 38.1386 38.2061 37.7163C38.1892 28.5778 38.1892 19.4393 38.2061 10.3008C38.2061 9.89538 38.1047 9.77713 37.6993 9.77713C28.5946 9.79403 19.4899 9.79403 10.3682 9.79403C9.79392 9.79403 9.77703 9.79403 9.77703 10.3852C9.77703 19.4731 9.77703 28.5778 9.76014 37.6656C9.76014 38.0879 9.86149 38.2062 10.2838 38.2062C14.8784 38.2062 19.4392 38.2062 24 38.2062Z" fill="#EBEBEB"/>
<path d="M17.3277 23.6116C17.4966 23.7129 17.6486 23.8143 17.7837 23.8987C18.7635 24.4393 19.152 25.267 19.0169 26.4325C18.8817 27.4798 18.2905 28.1217 17.2432 28.4258C16.6351 28.5947 15.9932 28.6454 15.3682 28.6623C14.2027 28.6791 13.0371 28.6623 11.8716 28.6623C11.1115 28.6623 11.0777 28.6116 11.0777 27.8852C11.0777 25.267 11.0777 22.6319 11.0777 20.0136C11.0777 19.3886 11.1283 19.3379 11.7533 19.3379C13.206 19.3379 14.6756 19.3042 16.1283 19.3548C17.1081 19.3886 18.0202 19.6927 18.4087 20.7062C18.8817 21.9731 18.5439 22.9359 17.5642 23.4596C17.4797 23.4764 17.429 23.5271 17.3277 23.6116ZM14.6587 26.7873C14.6587 26.7873 14.6587 26.8042 14.6587 26.7873C14.9459 26.7873 15.25 26.8042 15.5371 26.7873C16.2128 26.7704 16.6689 26.3819 16.6858 25.8075C16.7196 25.1825 16.3648 24.794 15.6385 24.7602C15.0135 24.7264 14.3716 24.7433 13.7466 24.7433C13.4763 24.7433 13.3412 24.8785 13.3243 25.1487C13.2905 25.6048 13.2736 26.044 13.3243 26.4832C13.3412 26.6859 13.4425 26.7873 13.6452 26.7704C13.9831 26.7873 14.3209 26.7873 14.6587 26.7873ZM14.6081 21.1792C14.304 21.1792 13.9831 21.1623 13.679 21.1792C13.4425 21.1792 13.3074 21.2636 13.3243 21.5339C13.3412 21.9055 13.3243 22.2602 13.3243 22.6319C13.3243 22.767 13.3412 22.9528 13.527 22.9528C14.2702 22.9866 15.0135 23.0879 15.7398 22.9021C16.1959 22.7839 16.3986 22.3954 16.3479 21.9224C16.2973 21.5508 15.9763 21.2298 15.5371 21.196C15.2162 21.1623 14.9121 21.1792 14.6081 21.1792Z" fill="#C71EC6"/>
<path d="M25.6047 28.6453C24.5743 28.6453 23.5608 28.6285 22.5304 28.6453C22.2263 28.6453 22.1081 28.5609 22.1081 28.2399C22.1081 27.2771 22.5135 26.517 23.2061 25.8751C24.0169 25.1318 24.9628 24.5913 25.8581 23.9663C26.3648 23.6116 26.8716 23.2568 26.9898 22.5812C27.1588 21.6859 26.7196 21.044 25.7905 20.9089C24.9121 20.7906 24.1182 21.348 24.1182 22.1926C24.1182 22.6825 23.9155 22.7501 23.5101 22.7332C23.1723 22.6994 22.8344 22.6994 22.4966 22.7332C22.125 22.767 22.0574 22.6149 22.0574 22.2771C22.0912 20.6048 23.0033 19.5744 24.7432 19.3379C25.6554 19.2028 26.5675 19.3041 27.429 19.6757C29.2702 20.4697 29.6419 22.8008 28.1892 24.2872C27.5979 24.8785 26.8885 25.3008 26.1621 25.7062C25.7398 25.9426 25.3175 26.196 24.9797 26.5676C24.8952 26.669 24.7263 26.7703 24.777 26.9055C24.8277 27.0575 25.0304 26.9899 25.1655 26.9899C26.2804 26.9899 27.4121 27.0068 28.527 26.9899C28.9155 26.9899 29.0675 27.0744 29.0675 27.4967C29.0507 28.6285 29.0675 28.6285 27.9189 28.6285C27.1756 28.6622 26.3986 28.6622 25.6047 28.6453Z" fill="#F5F5F5"/>
<path d="M24.7938 33.2062C25.6891 33.2062 26.5168 33.2062 27.3445 33.2062C27.8175 33.2062 28.3074 33.2062 28.7803 33.2062C29.0506 33.2062 29.1688 33.2907 29.1688 33.561C29.1688 33.8988 29.1688 34.2366 29.1688 34.5745C29.1688 34.811 29.0506 34.9292 28.8141 34.9292C26.6857 34.9292 24.5405 34.9292 22.4121 34.9292C22.1249 34.9292 22.108 34.7603 22.0911 34.5407C22.0405 33.5441 22.4628 32.7501 23.1722 32.0914C23.8648 31.4495 24.6587 30.9596 25.4357 30.436C25.9932 30.0643 26.5844 29.7265 26.9053 29.0846C26.956 28.9833 27.0236 28.8988 27.1249 28.9833C27.2432 29.0508 27.1756 29.1522 27.1418 29.2535C27.0236 29.5576 26.7871 29.7941 26.5506 29.9968C25.8074 30.6387 24.929 31.0947 24.1519 31.686C23.5101 32.1758 22.8682 32.6826 22.5472 33.4765C22.5303 33.5103 22.5134 33.5272 22.5134 33.5441C22.2263 34.338 22.3783 34.5914 23.206 34.5914C24.929 34.5914 26.652 34.5914 28.3918 34.5914C28.7128 34.5914 28.8817 34.5238 28.8141 34.186C28.7972 34.1184 28.7972 34.0508 28.8141 33.9833C28.8648 33.6116 28.7297 33.4934 28.358 33.5103C27.1587 33.5272 25.9425 33.5272 24.7432 33.5103C24.6249 33.5103 24.4729 33.561 24.3884 33.4427C24.304 33.3076 24.4222 33.1724 24.4898 33.0542C24.8614 32.4123 25.4695 32.0238 26.0945 31.686C26.9898 31.213 27.8175 30.6218 28.4763 29.8447C28.6452 29.6589 28.6452 29.4224 28.7297 29.2028C28.7634 29.1015 28.7803 28.8988 28.9492 28.9495C29.1182 29.0001 29.0506 29.1691 29.0168 29.2704C28.8817 29.7434 28.5607 30.1319 28.2398 30.4697C27.6486 31.0947 26.9222 31.5339 26.179 31.9562C25.6891 32.2941 25.1824 32.5981 24.7938 33.2062Z" fill="#9C9C9C"/>
<path d="M23.4764 16.2805C23.7128 16.2805 23.8142 16.196 23.848 15.9427C23.9155 15.3683 24.1689 14.8785 24.7264 14.6589C25.4865 14.3548 26.2635 14.321 26.9223 14.946C27.5135 15.5035 27.4291 16.7028 26.7534 17.3785C26.2297 17.9021 25.5878 18.24 24.9966 18.6623C24.8615 18.7636 24.7095 18.8481 24.5743 18.9325C24.4392 19.0339 24.3041 19.0339 24.1183 18.9156C24.5237 18.544 24.9628 18.2906 25.402 18.0204C25.8074 17.767 26.196 17.4967 26.5338 17.1589C26.8041 16.8886 26.9561 16.5677 26.973 16.196C27.0068 15.4359 26.7196 14.9629 26.0946 14.8109C25.25 14.6082 24.5405 14.8954 24.2534 15.571C24.1858 15.7062 24.152 15.8413 24.152 15.9765C24.1858 16.6015 24.1014 16.5508 23.527 16.5508C23.1385 16.5508 22.7331 16.5508 22.3446 16.5508C22.1926 16.5508 22.0574 16.5339 22.0574 16.3312C22.0068 15.3515 22.2939 14.2535 23.1892 13.6623C24.1351 13.0542 25.1993 12.919 26.3142 13.0879C26.9899 13.1893 27.6149 13.4089 28.1723 13.7974C29.0845 14.4562 29.4223 16.0609 28.8818 17.142C28.5101 17.8852 27.9696 18.3751 27.3446 18.8481C27.2601 18.9156 27.1588 18.9663 27.0574 19.0001C26.973 19.017 26.8378 19.0508 26.8041 18.9325C26.7703 18.8312 26.8885 18.7974 26.9392 18.7636C27.4291 18.4258 27.902 18.0879 28.2737 17.6319C29.2872 16.3481 29.0338 14.0339 26.821 13.5271C25.723 13.2738 24.625 13.2738 23.6115 13.7129C23.0034 13.9832 22.6149 14.6251 22.4628 15.3515C22.4291 15.5373 22.2264 15.9933 22.4797 16.2974L22.4966 16.3143C22.598 16.3312 23.1892 16.2805 23.4764 16.2805Z" fill="#9C9C9C"/>
<path d="M17.3952 17.3955C17.6655 17.5475 17.9189 17.6826 18.1385 17.8347C18.4763 18.0374 18.7128 18.3245 18.8479 18.6961C18.8817 18.7806 19.0337 18.9326 18.831 19.0171C18.679 19.0678 18.6452 18.9326 18.5945 18.8482C18.3581 18.3921 18.0033 18.0711 17.5472 17.8684C17.4121 17.8009 17.2432 17.784 17.1081 17.7333C16.9898 17.6826 16.8209 17.6657 16.804 17.4799C16.7871 17.2941 16.956 17.2097 17.0912 17.159C17.4797 17.007 17.8513 16.8211 18.0878 16.4495C18.7297 15.4191 18.1722 13.9326 17.0236 13.5779C16.652 13.4597 16.2804 13.409 15.9087 13.409C14.5236 13.409 13.1385 13.4259 11.7364 13.3921C11.3817 13.3921 11.3141 13.5272 11.331 13.8313C11.3479 15.4022 11.331 16.9732 11.331 18.5441C11.331 18.6455 11.331 18.7468 11.331 18.8313C11.331 18.9495 11.2635 19.0171 11.1452 19.0171C11.0439 19.0171 11.027 18.9157 11.0101 18.8313C11.0101 18.7468 11.0101 18.6624 11.0101 18.5779C11.0101 16.9056 11.027 15.2333 10.9932 13.5779C10.9932 13.1725 11.1283 13.0543 11.5168 13.0543C12.9358 13.0711 14.3547 13.0711 15.7736 13.0543C16.7027 13.0374 17.4797 13.3414 18.1554 13.9664C18.9831 14.7097 18.7635 16.5171 17.7668 17.159C17.6486 17.2266 17.5304 17.2941 17.3952 17.3955Z" fill="#9C9C9C"/>
<path d="M36.973 17.7333C36.973 18.0711 36.973 18.4089 36.973 18.7468C36.973 18.8819 36.9223 19.0171 36.7703 19.0002C36.6182 18.9833 36.6351 18.8312 36.652 18.7299C36.7365 18.0373 36.7196 17.3279 36.6351 16.6353C36.4493 15.3346 35.9595 14.1691 34.6419 13.6623C32.75 12.9191 30.8412 13.5272 30.2838 15.8752C30.0642 16.8042 30.1149 17.7333 30.1318 18.6792C30.1318 18.7975 30.2162 19.0002 30.0135 19.0171C29.8615 19.0339 29.8277 18.865 29.8108 18.7299C29.6926 17.3954 29.7432 16.061 30.3513 14.8279C30.9088 13.6623 31.8716 13.0711 33.1723 13.0711C34.5743 13.0711 35.6723 13.5948 36.3818 14.8279C36.8885 15.7231 37.0405 16.7029 36.973 17.7333Z" fill="#9C9C9C"/>
<path d="M36.7027 30.2839C36.6858 29.946 36.6689 29.5744 36.6351 29.2197C36.6351 29.1183 36.6182 29.0001 36.7534 28.9832C36.8885 28.9663 36.9561 29.0508 36.973 29.1859C37.0743 30.7062 37.0743 32.2264 36.1621 33.5609C35.1655 35.0305 32.7838 35.2839 31.4493 34.3379C30.2162 33.4764 29.9459 32.2433 29.777 30.9258C29.7094 30.3852 29.777 29.8278 29.777 29.2873C29.777 29.1521 29.7939 28.9663 29.9797 28.9663C30.1824 28.9832 30.1148 29.1859 30.098 29.3041C30.0642 30.3852 30.0304 31.4494 30.402 32.5136C30.6385 33.1724 31.0101 33.7805 31.5338 34.1183C32.2432 34.5744 33.1216 34.7264 34.0169 34.5406C35.8919 34.1521 36.4155 32.6994 36.6182 31.4325C36.6858 31.0778 36.6858 30.6893 36.7027 30.2839Z" fill="#9C9C9C"/>
<path d="M31.6014 30.3346C31.6014 29.9629 31.6014 29.6082 31.6014 29.2366C31.6014 29.1183 31.6014 28.9494 31.7872 28.9663C31.9223 28.9832 31.9054 29.1352 31.8886 29.2366C31.8041 30.0474 31.8379 30.8582 31.973 31.669C32.0237 32.0069 32.1419 32.3109 32.3109 32.615C32.7332 33.4427 34.1014 33.4089 34.5068 32.5981C34.7602 32.0744 34.8615 31.5339 34.8953 30.9764C34.9291 30.4021 34.8953 29.8278 34.8953 29.2535C34.8953 29.1352 34.8446 28.9663 35.0305 28.9494C35.1825 28.9325 35.1825 29.1014 35.1994 29.2028C35.3345 30.2839 35.2838 31.365 34.946 32.3954C34.7095 33.1555 34.0845 33.5609 33.3075 33.5271C32.6149 33.5102 32.0406 32.9866 31.7872 32.1758C31.6014 31.6014 31.5845 30.9596 31.6014 30.3346Z" fill="#9C9C9C"/>
<path d="M31.6013 17.5642C31.5844 16.8379 31.6013 16.1115 31.9223 15.419C32.1588 14.9122 32.4966 14.4899 33.0878 14.4392C33.8649 14.3717 34.5574 14.5575 34.8784 15.3852C35.2838 16.4494 35.3176 17.5811 35.1993 18.696C35.1824 18.8311 35.098 18.9662 34.9628 18.9494C34.777 18.9156 34.8615 18.7467 34.8784 18.6453C34.9628 17.7838 34.9797 16.9054 34.777 16.0608C34.6419 15.4527 34.4223 14.9122 33.6959 14.7602C33.1216 14.6419 32.6655 14.8108 32.3446 15.3176C31.9561 15.9426 31.9223 16.6521 31.8885 17.3446C31.8547 17.7838 31.8547 18.2399 31.9223 18.696C31.9392 18.8142 31.9899 18.9831 31.8209 19.0169C31.6013 19.0507 31.6351 18.8311 31.6351 18.7129C31.6013 18.3244 31.6013 17.9358 31.6013 17.5642Z" fill="#9C9C9C"/>
<path d="M21.3817 27.7164C21.3817 28.6623 21.3817 28.6792 20.4188 28.6623C19.456 28.6454 19.5574 28.8143 19.5574 27.7839C19.5574 26.8042 19.5574 26.8042 20.5202 26.8042C21.3817 26.8042 21.3817 26.8042 21.3817 27.7164Z" fill="#EBEBEB"/>
<path d="M13.1048 33.2062C13.0034 33.1556 13.0203 33.0711 13.0203 32.9866C13.0203 32.3278 13.0203 31.6691 13.0203 31.0103C13.0203 30.7738 13.1048 30.6893 13.3413 30.6893C14.1183 30.7062 14.8784 30.6724 15.6554 30.7062C16.5169 30.74 17.0744 31.3143 16.973 32.1083C16.9054 32.6488 16.4832 33.24 15.8075 33.2231C15.7906 33.0542 15.6048 33.1387 15.5372 33.0542C15.6554 33.0035 15.7737 32.9529 15.8919 32.936C16.2298 32.8853 16.4494 32.6488 16.6352 32.4292C16.7196 32.3278 16.6521 32.0914 16.6521 31.9224C16.6352 31.4495 16.348 31.1454 15.875 31.0778C15.1149 30.9765 14.3717 31.0272 13.6115 31.0103C13.4764 31.0103 13.3244 31.0272 13.3244 31.1961C13.3582 31.8211 13.1723 32.4461 13.4257 33.0542C13.3244 33.1218 13.1723 33.0542 13.1048 33.2062Z" fill="#9C9C9C"/>
<path d="M11.0439 34.6251C10.9594 34.4224 11.0101 34.2028 11.0101 34.0001C11.0101 32.446 11.0101 30.892 11.0101 29.3379C11.0101 29.2197 10.9425 29.0001 11.1283 29.0001C11.3479 28.9832 11.3141 29.2028 11.3141 29.3548C11.3141 31.1116 11.3141 32.8514 11.3141 34.6082C11.2128 34.6082 11.1283 34.6082 11.0439 34.6251Z" fill="#9C9C9C"/>
<path d="M15.8075 14.7941C16.3818 14.9461 16.6858 15.436 16.5845 16.0272C16.4662 16.6522 16.0608 17.0069 15.571 16.9562C15.5034 16.7704 15.3345 16.8549 15.2162 16.8549C14.6588 16.838 14.1183 16.8549 13.5608 16.8549C13.3919 16.8549 13.1723 16.8718 13.2737 16.5677C13.3581 16.6184 13.4426 16.7028 13.527 16.7028C14.2703 16.7028 15.0135 16.8042 15.7568 16.6353C16.1284 16.5508 16.2973 16.2468 16.3311 15.892C16.3649 15.5373 16.2129 15.267 15.875 15.115C15.7737 15.0643 15.6723 15.0137 15.5879 14.963C15.6048 14.8785 15.7737 14.9461 15.8075 14.7941Z" fill="#9C9C9C"/>
<path d="M14.3378 29.4731C14 29.4731 13.6622 29.4731 13.3243 29.4731C13.0878 29.4731 12.9865 29.3718 13.0203 29.1353C13.0372 28.9833 13.1047 28.865 13.2568 29.0002C13.4088 29.1522 13.5946 29.1353 13.7635 29.1184C14.5068 29.0677 15.2669 29.2704 15.9933 28.9326C16.0608 28.8988 16.1622 28.8819 16.2128 28.9833C16.2635 29.1015 16.1791 29.186 16.0946 29.2197C15.8412 29.3549 15.5878 29.4393 15.3007 29.4393C14.9797 29.4731 14.6588 29.4731 14.3378 29.4731Z" fill="#9C9C9C"/>
<path d="M19.6249 34.7772C19.5236 34.2704 19.608 33.7468 19.5743 33.24C19.5743 33.1049 19.6418 33.0373 19.777 33.0373C20.2837 33.0542 20.8074 32.9866 21.3141 33.0711C21.3141 33.6454 21.3141 34.2198 21.3141 34.7941C20.7567 34.7265 20.1824 34.7772 19.6249 34.7772ZM20.4864 33.24C19.6925 33.2569 19.7939 33.1387 19.777 33.7299C19.777 34.6252 19.777 34.6421 20.3682 34.6252C21.2635 34.6252 21.1452 34.7265 21.1621 34.1353C21.179 33.24 21.179 33.24 20.4864 33.24Z" fill="#9C9C9C"/>
<path d="M14.5406 18.24C15.0135 18.2569 15.6048 18.1724 16.1622 18.4258C16.3649 18.5271 16.6183 18.5778 16.7196 18.8143C16.7534 18.8819 16.7872 18.9494 16.7196 19.0001C16.6689 19.0508 16.6183 19.017 16.5676 18.9832C15.6385 18.2062 14.5237 18.6623 13.5102 18.544C13.3243 18.5271 13.2906 18.6623 13.2737 18.8143C13.2737 18.8988 13.2399 18.9832 13.1216 18.9663C13.0372 18.9494 13.0372 18.865 13.0203 18.7974C12.9358 18.3582 13.0372 18.2231 13.5102 18.2231C13.8142 18.24 14.1352 18.24 14.5406 18.24Z" fill="#9C9C9C"/>
<path d="M13.1047 16.9393C12.9865 16.9224 13.0034 16.821 13.0034 16.7366C13.0034 16.1454 13.0034 15.571 13.0034 14.9798C13.0034 14.8109 13.0372 14.6589 13.2399 14.6589C13.9493 14.6589 14.6588 14.6758 15.3683 14.6758C15.402 14.6758 15.4358 14.7096 15.4696 14.7433C15.3007 14.8616 15.1149 14.794 14.946 14.8109C14.3547 14.8278 13.7635 14.8109 13.1723 14.8109C13.1723 14.8278 13.1723 14.8447 13.1723 14.8616C13.2399 14.8785 13.3075 14.9123 13.3581 14.9291C13.3243 14.9967 13.2906 15.0474 13.223 15.0643C13.071 15.1656 13.1216 15.3346 13.1216 15.4866C13.1216 15.9764 13.1216 16.4663 13.1047 16.9393Z" fill="#9C9C9C"/>
<path d="M13.1047 16.9393C13.1047 16.4494 13.1216 15.9764 13.1385 15.4866C13.1385 15.3345 13.0878 15.1825 13.2398 15.0643C13.2398 15.5541 13.2398 16.0609 13.2398 16.5508C13.1385 16.8548 13.3581 16.821 13.527 16.8379C14.0844 16.8379 14.625 16.8379 15.1824 16.8379C15.3007 16.8379 15.4696 16.7535 15.5371 16.9393C14.7432 16.9899 13.9324 17.0068 13.1047 16.9393Z" fill="#9C9C9C"/>
<path d="M13.1047 33.2062C13.1723 33.0542 13.3243 33.1218 13.4257 33.0542C14.1351 33.0542 14.8277 33.0542 15.5371 33.0542C15.6047 33.1387 15.7905 33.0542 15.8074 33.2231C14.9121 33.2569 14 33.2907 13.1047 33.2062Z" fill="#9C9C9C"/>
<path d="M13.375 14.9461C13.3074 14.9292 13.2399 14.8955 13.1892 14.8786C13.1892 14.8617 13.1892 14.8448 13.1892 14.8279C13.7804 14.8279 14.3716 14.8279 14.9628 14.8279C15.1317 14.8279 15.3344 14.8955 15.4865 14.7603C15.5878 14.7772 15.7061 14.7941 15.8074 14.811C15.7736 14.963 15.6216 14.8955 15.5372 14.963C14.8108 14.9461 14.1013 14.9461 13.375 14.9461Z" fill="#9C9C9C"/>
<path d="M19.6251 34.7771C20.1994 34.7602 20.7568 34.7265 21.3311 34.794C21.3142 34.9291 21.196 34.9123 21.1115 34.9123C20.7061 34.9123 20.2838 34.9123 19.8784 34.9123C19.7602 34.9291 19.6251 34.9629 19.6251 34.7771Z" fill="#9C9C9C"/>
<path d="M21.3311 34.811C21.3311 34.2367 21.3311 33.6623 21.3311 33.088C21.4155 33.1049 21.4493 33.1556 21.4493 33.24C21.3649 33.7468 21.5845 34.2873 21.3311 34.811Z" fill="#9C9C9C"/>
<path d="M19.1013 31.7029C18.9661 31.1454 18.1891 30.0812 17.3107 29.8954C17.6148 29.5914 18.1216 29.5069 18.2736 28.9833C17.7668 29.0846 17.4966 29.4731 17.0911 29.5914C16.9222 29.6252 16.804 29.7096 16.8209 29.8954C16.8378 30.0981 17.0067 30.0981 17.1587 30.1488C17.9188 30.3684 18.4087 30.8245 18.7297 31.6184C18.8479 31.9394 18.7297 32.9022 18.7128 32.9867C18.5607 33.6454 18.1047 34.0508 17.5134 34.2873C17.277 34.3887 17.0236 34.4563 16.7871 34.5576C15.8074 34.7096 14.8276 34.6252 13.8479 34.6421C13.0033 34.6421 12.1756 34.6421 11.331 34.6083C11.2465 34.6252 11.1114 34.4225 11.027 34.4225C11.0101 34.6421 11.179 34.9123 11.3817 34.9123C13.1722 34.8954 14.6418 35.0475 16.4999 34.9799C17.0067 34.9292 17.3445 34.811 17.5641 34.7265C18.2905 34.4731 18.8479 34.0846 19.0844 33.1218C19.0506 32.9191 19.2195 32.6488 19.1013 31.7029Z" fill="#9C9C9C"/>
<path d="M36.4831 21.3312C36.3817 21.061 35.5034 19.4224 33.7466 19.3549C33.5101 19.3211 32.3953 19.3211 31.2297 20.2333C29.7601 21.4495 29.7263 23.6961 29.777 24.6251C29.7939 24.9968 30.1149 26.365 30.1317 26.4157C30.6047 27.6995 31.5169 28.4765 32.8682 28.6623C33.6284 28.7637 34.6757 28.5947 35.3513 28.1218C36.7365 27.2434 36.9223 25.3853 36.9392 25.2839C37.2939 23.3076 36.5 21.3819 36.4831 21.3312ZM29.8953 23.4765C29.8784 23.713 29.8784 23.9326 29.8953 24.1691C29.8784 23.9326 29.8784 23.713 29.8953 23.4765C29.9121 23.2907 29.9628 23.1049 29.9797 22.9191C29.9628 23.1049 29.9121 23.2907 29.8953 23.4765ZM34.6588 26.1792C34.4223 26.7535 34.0169 27.0576 33.4088 27.0745C32.8513 27.1082 32.3615 26.7366 32.1419 26.1454C31.7365 25.0305 31.7703 23.8819 31.9054 22.7501C31.9392 22.4799 31.9898 22.1927 32.0912 21.9393C32.3953 21.1623 32.8513 20.892 33.5608 20.892C34.2534 20.892 34.7263 21.3481 34.8784 22.0576C34.929 22.2772 34.9459 22.4968 34.9628 22.7164C34.9797 23.1049 35.0304 23.5272 35.0304 24.0001C35.0304 24.811 34.9459 25.4697 34.6588 26.1792Z" fill="#F5F5F5"/>
</g>
<defs>
<clipPath id="clip0_2_13375">
<rect width="30" height="30" fill="white" transform="translate(9 9.00006)"/>
</clipPath>
</defs>
</svg>
