<svg width="48" height="48" viewBox="0 0 48 48" fill="none" xmlns="http://www.w3.org/2000/svg">
<path d="M0 24C0 10.7452 10.7452 0 24 0C37.2548 0 48 10.7452 48 24C48 37.2548 37.2548 48 24 48C10.7452 48 0 37.2548 0 24Z" fill="white"/>
<path d="M33.0866 23.909C33.3254 23.7896 33.6836 24.0284 33.6836 24.2672L34.1612 26.0582C34.2807 26.2971 34.0418 26.6553 33.803 26.6553C33.5642 26.7747 33.206 26.5359 33.206 26.2971L32.7284 24.506C32.609 24.2672 32.7284 23.909 33.0866 23.909ZM19.355 10.5356C19.2356 10.2968 19.2356 9.93859 19.4744 9.81918L21.0267 8.74454C21.2655 8.62513 21.6237 8.62513 21.7431 8.86394C21.8625 9.22216 21.8625 9.46097 21.6237 9.69978L20.0715 10.7744C19.8327 10.7744 19.4744 10.7744 19.355 10.5356Z" fill="white"/>
<path fill-rule="evenodd" clip-rule="evenodd" d="M27.3554 16.8643C25.5643 16.5061 23.6538 16.7449 21.9822 17.8195C24.3703 16.9837 27.1166 17.5807 29.0271 19.4912C31.654 22.2375 31.654 26.6555 29.0271 29.2824C28.6689 29.6406 28.3106 29.8794 27.9524 30.1182C28.9077 29.76 29.8629 29.2824 30.5793 28.4466C32.4898 26.5361 32.9674 23.7898 32.251 21.4017C30.2211 20.6852 28.43 19.0136 27.3554 16.8643Z" fill="#FFAE54"/>
<path d="M38.6988 32.3868C34.4002 40.3869 24.3702 43.3721 16.4895 38.9541C8.48933 34.6555 5.62361 24.5061 9.92219 16.506C12.7879 11.2522 18.0417 8.14762 23.6538 7.90881C24.3702 7.90881 24.9672 8.26703 25.3254 8.98346C25.6836 9.69989 25.9224 10.6551 25.803 11.6104C25.803 11.9686 25.803 12.3268 25.803 12.685C25.803 14.3567 26.2807 16.0283 26.9971 17.4612C23.5343 16.1478 19.594 17.5806 17.8029 20.9239C15.773 24.6255 17.2059 29.1629 20.788 31.1928C24.3702 33.2227 29.027 31.7898 30.9374 28.2076C32.0121 26.1778 32.1315 23.7897 31.2957 21.7598C32.7285 22.4762 34.2808 22.8344 35.9525 22.8344C36.9077 22.8344 37.7435 22.715 38.6988 22.4762C39.1764 22.3568 39.7734 22.3568 40.1316 22.5956C40.4898 22.8344 40.7286 23.0732 40.7286 23.4314C40.8481 26.4166 40.1316 29.5211 38.6988 32.3868Z" fill="url(#paint0_radial_2_5852)" stroke="#AC562A" stroke-width="1.0716"/>
<path d="M34.4003 29.1629L34.9973 28.9241C35.4749 30.1181 34.8779 31.1928 34.5197 32.0286C34.5197 32.0286 34.5197 32.0286 34.5197 32.148C34.2808 32.6256 34.042 32.9838 34.042 33.3421C33.9226 33.9391 33.9226 34.5361 34.042 34.8943C34.1614 35.2525 34.5197 35.6108 34.9973 35.7302C35.3555 35.8496 35.9525 35.7302 36.6689 35.2525C39.5347 31.9092 40.8481 27.6106 40.6093 23.5509C40.6093 23.1926 40.3705 22.8344 40.0123 22.5956C39.6541 22.3568 39.057 22.3568 38.5794 22.4762C37.7436 22.715 36.7884 22.8344 35.9525 22.8344C34.2808 22.8344 32.7286 22.4762 31.2957 21.6404C32.1316 23.6703 32.0122 25.939 31.0569 27.9688C30.9375 28.3271 30.6987 28.5659 30.4599 28.9241C30.9375 28.8047 31.4151 28.5659 32.1316 28.0882C32.9674 27.4912 34.042 28.0882 34.4003 29.1629ZM34.4003 29.1629C34.7585 30.1181 34.2808 30.954 33.9226 31.7898C33.6838 32.2674 33.445 32.745 33.3256 33.2227L34.4003 29.1629ZM22.9374 16.9836C21.2657 17.4612 19.9523 17.2224 18.997 16.7448C18.0418 16.1478 17.206 15.3119 16.8477 14.3567C16.3701 13.282 16.2507 12.2074 16.4895 11.2522C16.7283 10.2969 17.206 9.58048 17.9224 9.22227C19.9523 8.38643 22.1016 7.90881 24.1314 7.90881C24.7285 7.90881 25.2061 8.26703 25.5643 8.86405C25.9225 9.46108 26.0419 10.2969 25.9225 11.0133C25.8031 11.491 25.8031 12.088 25.8031 12.685C25.8031 14.3567 26.2807 16.0283 26.9972 17.4612C25.6837 16.8642 24.2508 16.7448 22.9374 16.9836Z" fill="#AC562A"/>
<path d="M34.4003 29.1629L34.9973 28.9241C35.4749 30.1181 34.8779 31.1928 34.5197 32.0286C34.5197 32.0286 34.5197 32.0286 34.5197 32.148C34.2809 32.6256 34.042 32.9838 34.042 33.3421C33.9226 33.9391 33.9226 34.5361 34.042 34.8943C34.1614 35.2525 34.5197 35.6107 34.9973 35.7302C35.3555 35.8496 35.9525 35.7302 36.6689 35.2525C39.5347 31.9092 40.8481 27.6106 40.6093 23.5509C40.6093 23.1926 40.3705 22.8344 40.0123 22.5956C39.6541 22.3568 39.057 22.3568 38.5794 22.4762C37.7436 22.715 36.7884 22.8344 35.9525 22.8344C34.2808 22.8344 32.7286 22.4762 31.2957 21.6404C32.1316 23.6703 32.0122 25.939 31.0569 27.9688C30.9375 28.3271 30.6987 28.5659 30.4599 28.9241C30.9375 28.8047 31.4151 28.5659 32.1316 28.0882C32.9674 27.4912 34.042 28.0882 34.4003 29.1629ZM34.4003 29.1629C34.7585 30.1181 34.2809 30.954 33.9226 31.7898C33.6838 32.2674 33.445 32.745 33.3256 33.2227L34.4003 29.1629ZM22.9374 16.9836C21.2657 17.4612 19.9523 17.2224 18.997 16.7448C18.0418 16.1478 17.206 15.3119 16.8477 14.3567C16.3701 13.282 16.2507 12.2074 16.4895 11.2522C16.7283 10.2969 17.206 9.58048 17.9224 9.22227C19.9523 8.38643 22.1016 7.90881 24.1314 7.90881C24.7285 7.90881 25.2061 8.26703 25.5643 8.86405C25.9225 9.46108 26.0419 10.2969 25.9225 11.0133C25.8031 11.491 25.8031 12.088 25.8031 12.685C25.8031 14.3567 26.2807 16.0283 26.9972 17.4612C25.6837 16.8642 24.2508 16.7448 22.9374 16.9836Z" stroke="#AC562A" stroke-width="1.0716"/>
<path d="M11.8327 21.5209C12.2943 21.5209 12.6685 21.1466 12.6685 20.685C12.6685 20.2234 12.2943 19.8492 11.8327 19.8492C11.371 19.8492 10.9968 20.2234 10.9968 20.685C10.9968 21.1466 11.371 21.5209 11.8327 21.5209Z" fill="#AC562A"/>
<path d="M24.2506 36.4465C24.7122 36.4465 25.0865 36.0723 25.0865 35.6107C25.0865 35.1491 24.7122 34.7749 24.2506 34.7749C23.789 34.7749 23.4148 35.1491 23.4148 35.6107C23.4148 36.0723 23.789 36.4465 24.2506 36.4465Z" fill="#AC562A"/>
<path d="M18.9968 37.7601C19.7882 37.7601 20.4297 37.1186 20.4297 36.3273C20.4297 35.5359 19.7882 34.8944 18.9968 34.8944C18.2055 34.8944 17.564 35.5359 17.564 36.3273C17.564 37.1186 18.2055 37.7601 18.9968 37.7601Z" fill="#AC562A"/>
<defs>
<radialGradient id="paint0_radial_2_5852" cx="0" cy="0" r="1" gradientUnits="userSpaceOnUse" gradientTransform="translate(24.294 24.482) rotate(90) scale(17.1679 16.995)">
<stop offset="0.3335" stop-color="#F7B450"/>
<stop offset="0.6477" stop-color="#FFC977"/>
<stop offset="1" stop-color="#FF9900"/>
</radialGradient>
</defs>
</svg>
