<svg width="48" height="48" viewBox="0 0 48 48" fill="none" xmlns="http://www.w3.org/2000/svg">
<path d="M24 48C37.2548 48 48 37.2548 48 24C48 10.7452 37.2548 0 24 0C10.7452 0 0 10.7452 0 24C0 37.2548 10.7452 48 24 48Z" fill="url(#paint0_linear_2_6341)"/>
<g clip-path="url(#clip0_2_6341)">
<path d="M33.3287 9C33.2846 9.0201 33.2519 9.05456 33.2178 9.08759C32.1503 10.1775 31.0644 11.2486 29.9926 12.3342C29.9414 12.3859 29.8945 12.3988 29.8291 12.3744C29.741 12.3414 29.6486 12.317 29.5562 12.2926C29.0303 12.1504 28.4958 12.0657 27.95 12.0657C23.8776 12.0628 19.8067 12.0642 15.7343 12.0642C15.703 12.0642 15.6732 12.0642 15.6419 12.0642C15.5325 12.0657 15.5211 12.0757 15.5211 12.1892C15.5211 12.6027 15.5211 13.0163 15.5211 13.4298C15.5211 13.4657 15.5225 13.5016 15.541 13.5346C15.5424 13.5633 15.5438 13.5921 15.5438 13.6208C15.5438 14.4321 15.5438 15.2419 15.5438 16.0532C15.5438 20.5232 15.5438 24.9932 15.5438 29.4632C15.5438 29.4891 15.5367 29.5178 15.5666 29.5738C15.9177 29.2077 16.2545 28.8487 16.5999 28.4983C17.4315 27.6583 18.2673 26.8212 19.1017 25.984C19.936 25.1469 20.769 24.3083 21.6034 23.4697C22.2103 22.8595 22.8173 22.2478 23.4242 21.6361C23.4427 21.6174 23.4626 21.6016 23.4811 21.5844C23.5038 21.5714 23.5251 21.5585 23.545 21.5399C23.7355 21.3474 23.9302 21.1593 24.1221 20.9669C24.9935 20.0996 25.8492 19.2151 26.7248 18.3521C27.5222 17.5652 28.2954 16.7539 29.0971 15.9699C29.4937 15.5822 29.8775 15.1831 30.2684 14.7896C30.3309 14.7264 30.3337 14.7279 30.4062 14.7753C30.7701 15.0136 31.0914 15.3008 31.3771 15.6296C31.667 15.9642 31.9073 16.3318 32.0935 16.7367C32.3294 17.2493 32.4744 17.7849 32.5142 18.3493C32.5384 18.6738 32.5355 18.9983 32.4943 19.3214C32.4161 19.9302 32.2299 20.5046 31.9286 21.0387C31.6358 21.5571 31.2619 22.0065 30.8042 22.3827C30.4603 22.6656 30.085 22.8939 29.677 23.0705C29.1341 23.306 28.5669 23.4338 27.9756 23.4468C27.8292 23.4496 27.6814 23.4496 27.535 23.4468C27.4639 23.4453 27.4099 23.4669 27.3587 23.5186C27.0574 23.8258 26.7532 24.1317 26.4504 24.4375C26.4291 24.4591 26.4049 24.4792 26.3936 24.5093C26.0197 24.8697 25.6658 25.2503 25.2934 25.6121C24.449 26.4349 23.6374 27.2907 22.7974 28.1178C21.9829 28.919 21.1926 29.7432 20.3795 30.5459C19.548 31.3673 18.7363 32.2087 17.9048 33.0315C17.0719 33.8557 16.256 34.6986 15.423 35.5242C14.6043 36.3355 13.8012 37.1641 12.9838 37.9768C12.3286 38.6273 11.6818 39.2864 11.0322 39.9426C11.018 39.9569 10.9896 39.967 10.9981 40C11.0251 40 11.0507 40 11.0763 40C11.9078 40 12.7379 40 13.5695 40.0014C13.6278 40.0014 13.669 39.9856 13.7116 39.944C14.7464 38.9015 15.7826 37.8619 16.8174 36.8209C16.8601 36.7778 16.9027 36.7577 16.9653 36.7577C20.5714 36.7591 24.1761 36.7591 27.7823 36.7591C28.2642 36.7591 28.7418 36.7175 29.2122 36.6127C30.7389 36.2724 31.9997 35.4912 32.9833 34.265C33.8717 33.1579 34.3507 31.8871 34.4289 30.4641C34.4672 29.7648 34.399 29.0741 34.2114 28.3978C33.7466 26.7278 32.78 25.4355 31.3387 24.5007C31.3017 24.4763 31.2634 24.4533 31.2207 24.4261C31.2463 24.4088 31.2634 24.3973 31.2818 24.3873C31.8319 24.047 32.3252 23.6349 32.7544 23.1481C33.6954 22.0826 34.2483 20.842 34.4004 19.4233C34.49 18.5876 34.4246 17.762 34.1958 16.9521C33.7821 15.4903 32.9662 14.31 31.7651 13.3968C31.6884 13.3393 31.6884 13.3393 31.758 13.2704C33.1567 11.8661 34.554 10.4603 35.9526 9.05456C35.9683 9.03877 35.9924 9.02728 35.9953 9C35.1083 9 34.2185 9 33.3287 9ZM17.4329 24.9875C17.4329 24.9444 17.4329 24.9214 17.4329 24.897C17.4329 21.2929 17.4329 17.6873 17.4315 14.0831C17.4315 14.007 17.4528 13.9927 17.5239 13.9927C20.9523 13.9941 24.3794 13.9941 27.8079 13.9941C27.9912 13.9941 28.1746 13.9999 28.3693 14.0257C24.7234 17.6816 21.0845 21.3288 17.4329 24.9875ZM32.2612 28.4926C32.5284 29.2077 32.6038 29.9486 32.5071 30.7067C32.3962 31.5855 32.0665 32.3724 31.5178 33.0631C30.8796 33.8672 30.0665 34.4085 29.0857 34.6885C28.6693 34.8077 28.2428 34.8623 27.8107 34.8623C24.8215 34.8623 21.8308 34.8623 18.8415 34.8623C18.8231 34.8623 18.8046 34.8623 18.7847 34.8623C19.1201 34.5191 19.4499 34.1788 19.7839 33.8428C22.0284 31.5827 24.2742 29.3225 26.5201 27.0624C27.0588 26.5211 27.5975 25.9783 28.1334 25.4355C28.1689 25.3996 28.2016 25.391 28.2514 25.3953C28.7545 25.4427 29.2407 25.5604 29.7012 25.7686C30.9251 26.3186 31.7879 27.2232 32.2612 28.4926Z" fill="white"/>
</g>
<defs>
<linearGradient id="paint0_linear_2_6341" x1="24" y1="0" x2="24" y2="48" gradientUnits="userSpaceOnUse">
<stop stop-color="#4520E6"/>
<stop offset="1" stop-color="#4520E6"/>
</linearGradient>
<clipPath id="clip0_2_6341">
<rect width="25" height="31" fill="white" transform="translate(11 9)"/>
</clipPath>
</defs>
</svg>
