<svg width="48" height="48" viewBox="0 0 48 48" fill="none" xmlns="http://www.w3.org/2000/svg">
<rect width="48" height="48" rx="24" fill="#2DB300"/>
<path fill-rule="evenodd" clip-rule="evenodd" d="M29.3015 17.4735C29.8887 19.1282 29.5755 20.4814 28.362 21.5331C29.517 21.5244 30.4512 21.8028 31.1645 22.3681C31.8779 22.9334 32.3342 23.8788 32.5334 25.2042C32.6318 25.8821 32.6244 26.502 32.5111 27.0641C32.3979 27.6261 32.1999 28.1152 31.9171 28.5312C31.6343 28.9473 31.2497 29.3317 30.7633 29.6844C30.2769 30.037 29.7504 30.3378 29.184 30.5867C28.6175 30.8355 27.9568 31.0731 27.2018 31.2993L28.0832 34.8642L25.9303 35.3965L25.0627 31.8876C24.3171 32.072 23.7474 32.2079 23.3537 32.2953L24.2248 35.8183L22.0719 36.3506L21.1904 32.7858C21.0226 32.8272 20.7704 32.8871 20.4338 32.9654C20.0971 33.0437 19.8402 33.1048 19.6631 33.1486L16.8672 33.8399L16.6679 31.1744L18.2197 30.7907C18.6857 30.6755 18.8972 30.371 18.8543 29.8773L17.4646 24.2574L17.6883 24.2021C17.6301 24.2066 17.5544 24.2203 17.4612 24.2434L16.4691 20.2312C16.1912 19.6274 15.6981 19.413 14.9898 19.5882L13.438 19.9719L12.8711 17.6792L15.8383 16.9603C16.4348 16.8128 16.8856 16.6964 17.1909 16.611L16.3198 13.0881L18.4727 12.5558L19.3265 16.0088C20.0861 15.8012 20.6523 15.6513 21.0251 15.5591L20.1782 12.134L22.3311 11.6017L23.2022 15.1246C23.9547 15.0078 24.633 14.9513 25.2372 14.9552C25.8414 14.9591 26.4199 15.0386 26.9725 15.1937C27.5251 15.3488 27.9994 15.6172 28.3955 15.9989C28.7915 16.3807 29.0935 16.8722 29.3015 17.4735ZM28.1798 25.8357C28.0968 25.5002 27.9532 25.2192 27.7489 24.9928C27.5445 24.7664 27.3191 24.5947 27.0726 24.4777C26.8261 24.3606 26.523 24.2847 26.1633 24.25C25.8037 24.2154 25.4771 24.2046 25.1837 24.2178C24.8903 24.2311 24.5351 24.2744 24.1181 24.3478C23.7011 24.4213 23.3761 24.4868 23.1431 24.5444C22.9101 24.602 22.6107 24.681 22.2448 24.7813C21.879 24.8817 21.6588 24.9411 21.5843 24.9595L22.7527 29.6847C22.8272 29.6663 23.0002 29.626 23.2716 29.5638C23.5431 29.5016 23.7673 29.4487 23.9444 29.4049C24.1215 29.3611 24.3667 29.293 24.6802 29.2007C24.9936 29.1084 25.2616 29.0223 25.4841 28.9425C25.7067 28.8628 25.9625 28.7575 26.2516 28.6267C26.5407 28.4959 26.7832 28.3667 26.9791 28.2391C27.175 28.1115 27.3722 27.959 27.5706 27.7813C27.7689 27.6037 27.9184 27.4184 28.0191 27.2254C28.1197 27.0324 28.1878 26.8178 28.2233 26.5815C28.2588 26.3453 28.2443 26.0967 28.1798 25.8357ZM25.1648 18.6521C25.3401 18.8609 25.4658 19.1191 25.5418 19.4267C25.6063 19.6877 25.6232 19.9357 25.5923 20.1708C25.5614 20.4059 25.4799 20.6164 25.3479 20.8024C25.2159 20.9883 25.0746 21.1567 24.924 21.3077C24.7734 21.4587 24.5687 21.6008 24.3099 21.734C24.0511 21.8672 23.8238 21.9778 23.628 22.0658C23.4322 22.1538 23.1822 22.2428 22.8781 22.3328C22.574 22.4228 22.3433 22.4898 22.186 22.5336C22.0287 22.5774 21.812 22.631 21.5359 22.6943C21.2599 22.7577 21.0985 22.7951 21.0519 22.8066L19.9907 18.5148C20.0559 18.4987 20.2394 18.4508 20.5412 18.3713C20.8429 18.2917 21.0934 18.2248 21.2926 18.1706C21.4918 18.1164 21.765 18.0612 22.1121 18.0051C22.4592 17.9489 22.755 17.9153 22.9995 17.9043C23.244 17.8933 23.5193 17.9068 23.8254 17.9449C24.1315 17.9829 24.3875 18.0581 24.5933 18.1704C24.799 18.2827 24.9896 18.4432 25.1648 18.6521Z" fill="black"/>
</svg>
