<svg width="48" height="48" viewBox="0 0 48 48" fill="none" xmlns="http://www.w3.org/2000/svg">
<circle cx="24" cy="24" r="24" fill="white"/>
<path d="M25.9556 37.6222H20.8089C20.2076 37.6222 19.72 37.1347 19.72 36.5334C19.72 35.932 20.2076 35.4445 20.8089 35.4445H25.9556C28.0885 35.4445 30.1129 34.572 31.656 32.9876C33.196 31.4058 34.0445 29.3427 34.0445 27.1778C34.0445 24.9809 33.2676 22.9751 31.8569 21.5302C30.384 20.0214 28.3383 19.1929 25.9396 19.1334L23.0192 19.12C22.4005 19.1214 21.8974 19.6254 21.8974 20.2445C21.8974 20.8636 22.4005 21.3676 23.0196 21.3689L25.772 21.3556C25.7738 21.3556 25.7756 21.3556 25.7774 21.3556C27.3934 21.3556 28.9023 21.9365 30.0263 22.9907C31.1845 24.0765 31.8223 25.5636 31.8223 27.1778C31.8223 30.5107 29.1107 33.2222 25.7778 33.2222H18.5778C16.7889 33.2222 15.3334 31.7667 15.3334 29.9778V10C15.3334 9.39869 15.8209 8.91113 16.4223 8.91113C17.0236 8.91113 17.5112 9.39869 17.5112 10V29.9778C17.5112 30.5658 17.9898 31.0445 18.5778 31.0445H25.7778C27.9098 31.0445 29.6445 29.3098 29.6445 27.1778C29.6445 25.1009 27.9836 23.5347 25.7805 23.5334L23.0276 23.5467C23.0258 23.5467 23.024 23.5467 23.0223 23.5467C21.2014 23.5467 19.72 22.0654 19.72 20.2445C19.72 18.4236 21.2014 16.9422 23.0223 16.9422C23.024 16.9422 23.0254 16.9422 23.0272 16.9422L25.9605 16.9556C25.9676 16.9556 25.9747 16.9556 25.9814 16.956C27.4778 16.9916 28.8845 17.2805 30.1618 17.8138C31.4049 18.3329 32.4996 19.0716 33.4147 20.0089C35.2254 21.8631 36.2223 24.4089 36.2223 27.1778C36.2223 28.5569 35.9498 29.9062 35.4129 31.1885C34.8947 32.4258 34.1556 33.5422 33.216 34.5071C31.2596 36.516 28.6809 37.6222 25.9556 37.6222Z" fill="#E64072"/>
</svg>
