<svg width="48" height="48" viewBox="0 0 48 48" fill="none" xmlns="http://www.w3.org/2000/svg">
<path d="M24 48C37.2548 48 48 37.2548 48 24C48 10.7452 37.2548 0 24 0C10.7452 0 0 10.7452 0 24C0 37.2548 10.7452 48 24 48Z" fill="#252525"/>
<path d="M24.6909 36.5758C26.5796 36.7601 28.4683 36.8983 30.3109 37.1286C30.9558 37.2207 31.4625 37.1286 32.0153 36.8062C33.259 36.1152 34.5028 35.4703 35.7466 34.7793C36.1151 34.549 36.4375 34.4108 36.8061 34.8714C37.1746 35.3321 36.76 35.5624 36.5297 35.7927C33.8118 38.4184 31.14 41.0902 28.4682 43.762C26.5796 45.6046 23.7235 45.7428 21.7888 43.9923C20.3147 42.6564 18.9788 41.1824 17.5508 39.7543C17.5968 39.2937 17.7811 38.9252 18.2418 38.6948C20.1765 37.8657 22.1573 37.1286 24.1381 36.4837C24.2763 36.4376 24.5066 36.4837 24.6909 36.5758Z" fill="#FE0051"/>
<path d="M12.2995 14.7409C15.478 11.5624 18.5644 8.33782 21.7889 5.20538C23.5394 3.50097 26.3494 3.5931 28.192 5.25145C29.1133 6.08062 29.9425 7.04799 30.8638 7.92323C31.0941 8.70634 30.4492 8.75241 29.9885 8.93667C26.5797 10.2726 23.1248 11.5624 19.716 12.8983C17.8734 13.6353 15.9386 14.1881 14.096 15.0173C13.7736 15.1555 13.4051 15.2937 13.0365 15.3397C12.5759 15.3858 12.2074 15.3397 12.2995 14.7409Z" fill="#FE5130"/>
<path d="M32.7062 9.76586C33.2129 10.1344 33.6735 10.595 34.0421 11.1018C33.996 11.7006 33.6735 12.0231 33.1208 12.2073C27.7772 14.2342 22.4336 16.3071 17.09 18.334C16.353 18.6104 15.8463 18.4722 15.4317 17.8273C15.1553 17.4127 15.1553 16.952 15.2014 16.4914C15.2474 15.9847 15.616 15.7543 16.0305 15.5701C21.0977 13.6814 26.0728 11.7006 31.1399 9.81192C31.6467 9.62766 32.1534 9.5816 32.7062 9.76586Z" fill="#FE4636"/>
<path d="M15.4318 17.8273C15.8925 18.0576 16.3531 17.9654 16.8138 17.7812C22.2495 15.7083 27.6852 13.6353 33.1209 11.5163C33.4433 11.3781 33.7197 11.1939 33.9961 11.0557C34.4107 11.3321 34.7792 11.7006 35.0556 12.1152C35.0556 13.0365 34.4568 13.5432 33.5355 13.405C33.3051 13.3589 33.0288 12.9904 32.7984 13.405V13.3589H32.8445C30.5412 14.5106 28.0998 15.2476 25.7504 16.1689C22.9405 17.2745 20.1765 18.38 17.3205 19.3935C16.7217 19.6238 16.3531 19.5777 16.0307 19.1171C15.7082 18.7946 15.4779 18.334 15.4318 17.8273Z" fill="#FE4038"/>
<path d="M12.2994 14.7409C12.714 14.9252 13.0825 14.787 13.4971 14.6488C19.1632 12.4837 24.8292 10.3186 30.4952 8.15358C30.6334 8.10751 30.7255 8.01538 30.8637 7.92325C31.2323 8.15358 31.5547 8.47604 31.785 8.84456C31.739 9.39734 31.5086 9.67373 30.9559 9.90406C26.119 11.7006 21.2822 13.6353 16.4453 15.4319C15.9847 15.6161 15.524 15.6622 15.0173 15.6162C13.8657 16.5835 12.4376 16.9981 11.0557 17.4588C10.595 17.643 9.99617 17.7812 10.0422 16.906C10.8253 16.215 11.5624 15.478 12.2994 14.7409Z" fill="#FE4D32"/>
<path d="M15.616 37.7736C14.4183 36.7141 13.3127 35.6085 12.2532 34.4108C12.115 34.0423 12.2532 33.812 12.5756 33.7198C14.0958 33.0749 15.616 32.4761 17.1822 31.9233C17.4586 31.8312 17.6889 31.9233 17.8732 32.1075C18.0574 32.8446 18.5181 33.3513 19.209 33.6277C20.0382 33.9502 20.1303 34.4569 19.5776 35.1018C19.3933 35.3321 19.3012 35.6085 19.209 35.8849C19.1169 36.3916 18.7484 36.5298 18.3338 36.668C17.4586 36.9905 16.5373 37.4511 15.616 37.7736Z" fill="#FE004A"/>
<path d="M14.925 15.3858C16.0306 14.9712 17.1361 14.6027 18.1957 14.1881C22.3876 12.5758 26.5795 11.0096 30.7715 9.39729C31.0939 9.25909 31.4164 9.07483 31.7388 8.89057C32.0152 9.16696 32.3377 9.48942 32.6141 9.76581C27.0862 11.8848 21.5584 14.0499 16.0306 16.1689C15.7081 16.3071 15.3857 16.3992 15.1093 16.5374C15.0632 16.261 15.0171 15.9386 14.925 15.6622C14.8329 15.6161 14.8329 15.57 14.8329 15.524C14.925 15.4318 14.925 15.3858 14.925 15.3858Z" fill="#FE4B33"/>
<path d="M15.6161 37.7736C15.9386 36.668 17.0442 36.6219 17.8733 36.2534C18.2879 36.0691 18.7947 35.977 19.2553 35.8849H19.2092C19.6238 36.2073 20.1766 35.8388 20.6373 36.1152C22.0192 36.1152 23.3551 36.2995 24.691 36.5759C22.4799 37.9578 19.8081 38.4185 17.597 39.7544C16.8599 39.1555 16.215 38.5106 15.6161 37.7736Z" fill="#FD004E"/>
<path d="M5.43579 21.6506C6.2189 20.6372 7.09414 19.808 8.06151 18.9788C9.71986 18.2418 11.3782 17.5508 13.0366 16.9059C13.5433 16.7216 14.0039 16.5374 14.5106 16.952C14.4646 17.8272 14.4646 18.7485 14.4185 19.6237C14.3264 19.7159 14.2343 19.7159 14.1421 19.7159C12.8523 19.7159 11.7928 20.4069 10.5951 20.8214C9.30527 21.236 8.06151 21.8349 6.77168 22.2495C6.2189 22.3877 5.52792 22.5719 5.43579 21.6506Z" fill="#FD4536"/>
<path d="M16.0308 19.1631C16.6757 19.3935 17.2745 19.1171 17.8734 18.8867C22.2956 17.2284 26.6718 15.524 31.048 13.8196C31.6469 13.5892 32.1997 13.3128 32.8907 13.405C32.6603 13.7735 32.43 14.096 32.1536 14.4645C31.5087 15.2015 30.5413 15.4319 29.6661 15.7543C27.9617 16.3992 26.3033 17.0902 24.5989 17.689C24.2304 17.8272 23.8619 17.9654 23.4473 17.9654C21.835 18.7946 20.1306 19.4395 18.4262 20.1305C17.8273 20.3608 17.3206 20.453 16.7678 20.0844C16.3993 19.8541 16.169 19.5317 16.0308 19.1631Z" fill="#FE3D39"/>
<path d="M5.43569 21.6507C6.0806 21.9732 6.63338 21.6968 7.23223 21.4664C9.2591 20.6833 11.286 19.9463 13.3128 19.1632C13.8196 18.9789 14.2802 18.8407 14.3263 19.6238C14.4645 20.453 13.8656 20.6833 13.2668 20.9137C10.7793 21.9271 8.24567 22.8023 5.75814 23.8158C5.29749 24 4.51438 24.2304 4.69864 23.1709C4.74471 22.572 5.0211 22.0653 5.43569 21.6507Z" fill="#FE4137"/>
<path d="M24.3225 19.8542C24.0461 19.6239 24 19.3014 23.9079 18.979C23.6315 18.334 23.954 18.0116 24.5067 17.7813C26.5797 16.9981 28.5605 16.1229 30.6795 15.4319C31.1401 15.2937 31.5547 15.2937 31.7851 15.8004C31.739 16.2611 31.739 16.6757 31.6929 17.1363C31.3705 17.6891 30.9559 18.0576 30.311 18.288C28.8369 18.7947 27.4089 19.3935 25.9808 19.9463C25.382 20.2227 24.8292 20.2688 24.3225 19.8542Z" fill="#FE363C"/>
<path d="M14.5567 20.9597C14.6488 21.2361 14.6949 21.5585 14.787 21.8349C14.8791 22.4798 14.3264 22.6641 13.9578 22.8023C11.2861 23.8157 8.61427 24.8292 5.94249 25.8887C5.3897 26.119 4.88299 26.0269 4.56053 25.428C4.56053 25.1977 4.51447 24.9674 4.51447 24.737C4.79086 24 5.5279 23.9079 6.08068 23.6775C8.56821 22.7562 11.0557 21.7428 13.5433 20.8215C13.9118 20.6833 14.2342 20.6372 14.5567 20.9597Z" fill="#FE3A3B"/>
<path d="M11.1478 33.3052C10.8715 33.0288 10.549 32.7063 10.2726 32.4299C9.99621 31.8311 10.2726 31.5086 10.7793 31.3244C12.7141 30.6794 14.5567 29.8963 16.4453 29.1593C16.8139 29.0211 17.2285 28.7908 17.643 29.1132C17.8734 29.4817 17.7352 29.8963 17.7352 30.3109C17.597 30.7716 17.4588 31.1401 16.9521 31.3244C15.3398 32.0614 13.5893 32.5681 11.977 33.2591C11.7467 33.3973 11.4242 33.3052 11.1478 33.3052Z" fill="#FE1645"/>
<path d="M5.57379 27.6852C5.20527 27.3628 4.97494 26.9943 4.88281 26.5336C5.34347 25.7966 6.2187 25.8426 6.95575 25.5202C9.25901 24.5067 11.5623 23.6776 13.9116 22.8023C14.5105 22.572 14.879 22.618 15.2014 23.1248C15.2936 23.3551 15.3857 23.5854 15.4318 23.8157C14.6947 24.6449 13.5891 24.8292 12.6218 25.1977C10.5949 25.9808 8.6141 26.7639 6.58723 27.501C6.26477 27.6852 5.94231 27.6852 5.57379 27.6852Z" fill="#FE353D"/>
<path d="M31.7388 15.8464C29.712 16.0307 27.9615 17.0441 26.1189 17.7351C25.3358 18.0115 24.3684 18.1036 23.8617 18.9788C23.7235 18.7024 23.5853 18.38 23.401 18.1036C23.2628 18.0115 23.2628 17.9193 23.401 17.8733C24.2302 17.0902 25.3818 16.9059 26.3953 16.5374C28.2839 15.8003 30.1265 14.879 32.1073 14.5566C32.1534 14.9712 31.9691 15.3857 31.7388 15.8464Z" fill="#FE3B3B"/>
<path d="M14.5566 20.9597C11.1938 22.2035 7.83105 23.4933 4.46829 24.737C4.37616 24.1843 4.37616 23.6315 4.69861 23.1248C4.97501 23.5393 5.34353 23.4472 5.66599 23.309C8.24564 22.3417 10.8253 21.3282 13.4049 20.3608C13.7735 20.2226 14.0959 19.9463 14.3263 19.5777H14.3723C14.4644 20.0845 14.5105 20.499 14.5566 20.9597Z" fill="#FE3E39"/>
<path d="M15.8464 24.737C16.0306 24.9213 16.1688 25.1516 16.1228 25.3819C16.0306 25.7965 15.7082 26.0268 15.2936 26.165C12.8982 27.0403 10.5028 27.9616 8.10741 28.8829C7.69282 29.0671 7.27823 29.1132 6.86365 28.975C6.63332 28.7447 6.44906 28.5604 6.21873 28.3301C6.03447 27.6391 6.58726 27.5009 7.00184 27.3167C9.4433 26.3493 11.9308 25.5201 14.3262 24.4606C14.8329 24.3224 15.3857 24.3224 15.8464 24.737Z" fill="#FE2E40"/>
<path d="M15.2016 23.1708C14.6949 22.9405 14.1882 23.1247 13.7275 23.309C11.1939 24.2764 8.7064 25.2437 6.17281 26.165C5.75823 26.3032 5.29757 26.3954 4.88299 26.4875C4.65266 26.165 4.51447 25.7965 4.51447 25.3819C4.92905 25.5662 5.38971 25.5662 5.80429 25.3819C8.52214 24.3224 11.2861 23.309 14.0039 22.2495C14.2803 22.1574 14.5106 21.927 14.741 21.7888C14.8791 22.2956 15.0634 22.7562 15.2016 23.1708Z" fill="#FE373C"/>
<path d="M17.6431 30.357C17.6431 29.9885 17.6431 29.62 17.6431 29.2514C17.1824 28.6987 16.6757 29.0672 16.2611 29.2514C14.05 30.1267 11.8388 31.0019 9.58164 31.785C9.25918 31.4626 8.98279 31.1862 8.66033 30.8637C8.47607 30.3109 8.89066 30.1727 9.25918 30.0346C11.6085 29.2054 13.8657 28.2841 16.169 27.4088C16.5836 27.2706 16.9521 27.2246 17.3206 27.4549C18.1037 28.0998 17.7352 29.0211 17.7813 29.8042C17.8273 30.2649 17.7813 30.7716 17.7813 31.2323C17.1824 31.048 17.5509 30.6795 17.6431 30.357Z" fill="#FE2143"/>
<path d="M15.8463 24.737C13.7273 25.0134 11.8387 26.0268 9.85786 26.7639C8.6141 27.2245 7.27821 27.4548 6.2187 28.3762C5.94231 28.1919 5.71199 28.0076 5.57379 27.6852C6.4951 26.856 7.69279 26.6717 8.79836 26.2572C10.7331 25.474 12.6678 24.737 14.6026 24C14.879 23.9078 15.1554 23.7696 15.4778 23.8618C15.57 24.1381 15.7081 24.4606 15.8463 24.737Z" fill="#FE323E"/>
<path d="M16.7678 26.5337C16.906 26.6258 16.9982 26.764 16.9982 26.9943C16.86 27.2246 16.6757 27.3628 16.3993 27.455C13.9579 28.4684 11.4703 29.3897 8.98282 30.311C8.75249 30.4031 8.4761 30.4031 8.19971 30.4492C7.96938 30.2189 7.73905 29.9885 7.50873 29.7582C7.60086 29.3436 7.83119 29.1594 8.24577 28.9751C10.5951 28.0077 12.9905 27.1325 15.3398 26.2573C16.0308 25.9348 16.3993 26.0269 16.7678 26.5337Z" fill="#FE2741"/>
<path d="M14.5105 16.952C12.7601 17.643 11.0096 18.334 9.30516 18.9789C8.89058 19.1171 8.47599 19.3474 8.0614 18.9789C8.70632 18.2879 9.39729 17.5969 10.0422 16.952C10.3186 17.0902 10.595 17.0902 10.9174 16.9981C12.2533 16.4914 13.5892 15.9386 14.9251 15.4319C14.9251 15.524 14.9712 15.5701 14.9712 15.6622C14.833 16.0768 14.6487 16.4914 14.5105 16.952Z" fill="#FD4A34"/>
<path d="M24.3225 19.8541C26.5336 19.3474 28.5605 18.3339 30.6335 17.5969C31.002 17.4587 31.3244 17.3205 31.6469 17.1823C31.739 17.643 31.8312 18.0576 31.8772 18.5182C30.8177 19.6238 29.2976 19.762 27.9617 20.3148C27.0864 20.6833 26.2112 21.3282 25.1517 21.0518C24.7832 20.7293 24.5528 20.2687 24.3225 19.8541Z" fill="#FE323E"/>
<path d="M16.7678 26.5336C16.3533 26.3954 15.9847 26.3954 15.5701 26.5336C12.8984 27.5931 10.1344 28.4684 7.50873 29.7121C7.2784 29.4818 7.04808 29.2515 6.81775 29.0211C9.85806 27.6852 12.9905 26.5797 16.0769 25.428C16.3993 25.7505 16.6757 26.073 16.7678 26.5336Z" fill="#FE2A40"/>
<path d="M9.58167 31.739C9.76593 31.2783 10.1344 31.094 10.549 30.9098C12.5298 30.1727 14.5106 29.3896 16.4454 28.6526C16.9982 28.4223 17.551 28.1919 17.597 29.1593C15.3859 29.9885 13.1748 30.8176 11.0097 31.6468C10.6412 31.785 10.3648 32.0153 10.2266 32.3839C10.0423 32.1996 9.81199 31.9693 9.58167 31.739Z" fill="#FE1C44"/>
<path d="M25.1976 21.0519C27.3626 20.0384 29.5738 19.071 31.9231 18.5183C32.0152 18.7486 32.1074 18.9329 32.1995 19.1632C32.1534 19.4396 32.0613 19.716 31.7849 19.8542C30.0344 20.5912 28.33 21.3743 26.4874 21.835C26.3031 21.881 26.1189 21.881 25.9346 21.835C25.5661 21.6968 25.3818 21.3743 25.1976 21.0519Z" fill="#FE2E40"/>
<path d="M23.4473 17.8273C23.4473 17.9194 23.4473 18.0115 23.4473 18.0576C22.7563 18.2419 22.7102 18.9328 22.3417 19.3935C20.9137 20.4069 19.4857 21.2822 17.597 20.9597C17.2285 20.7294 16.906 20.453 16.7217 20.0845C18.3801 19.4856 20.0845 18.8868 21.7429 18.2419C22.2956 18.0576 22.8484 17.8273 23.4473 17.8273Z" fill="#FD3B3B"/>
<path d="M17.5968 20.9596C19.163 20.4529 20.6371 19.5316 22.3415 19.3934C22.2494 19.7159 22.2033 19.9923 22.1112 20.3147C21.8809 20.6372 22.1112 21.0057 21.9269 21.3282C21.0978 22.0652 20.1304 22.3416 19.0248 22.1113C18.426 21.7888 17.9653 21.4664 17.5968 20.9596Z" fill="#FD363C"/>
<path d="M25.9348 21.8349C27.2246 20.9597 28.6987 20.6833 30.0807 20.0384C30.7717 19.7159 31.5087 19.4395 32.1997 19.1171C32.4761 19.4856 32.9367 19.8541 32.2458 20.2687C30.8177 21.0979 29.4818 22.2035 27.7314 22.2956C27.3628 22.3417 26.9943 22.4798 26.6258 22.2495C26.3494 22.1574 26.1191 21.9731 25.9348 21.8349Z" fill="#FD2A40"/>
<path d="M17.6429 30.3571C17.689 30.6334 17.7811 30.9559 17.8272 31.2323C17.8272 31.4626 17.8732 31.6929 17.8732 31.9233C16.1227 32.3379 14.5105 33.121 12.8521 33.7198C12.5296 33.858 12.1611 33.9962 11.7926 33.9962C11.5623 33.7659 11.3319 33.5356 11.1016 33.3513C12.5757 32.3839 14.2801 32.0154 15.8924 31.3705C16.5373 31.048 17.1822 30.8638 17.6429 30.3571Z" fill="#FE0D47"/>
<path d="M36.4374 13.4971C36.9442 13.9117 37.4048 14.3723 37.8194 14.8791C37.3587 15.9846 35.6543 16.7217 34.4106 16.261C34.1342 15.9846 33.9499 15.6161 33.9038 15.2476C33.5353 14.1881 34.3184 13.9577 35.0555 13.6814C35.5161 13.451 35.9768 13.5432 36.4374 13.4971Z" fill="#FD363C"/>
<path d="M26.5795 22.2955C28.4682 21.6506 30.3569 20.9596 32.2456 20.3147C31.5546 21.0518 30.9557 21.9731 30.0805 22.5259C28.9749 23.2168 27.7312 22.8944 26.5795 22.2955Z" fill="#FC2741"/>
<path d="M36.4375 13.4972C36.0229 13.9578 35.4241 14.096 34.9173 14.3263C34.4567 14.5106 34.0421 14.7409 33.9039 15.2476C33.3511 14.787 33.7657 13.7275 32.7983 13.4511C33.4893 12.8983 34.5028 12.9444 35.1016 12.1613C35.6083 12.5298 36.069 12.9905 36.4375 13.4972Z" fill="#FD3B3A"/>
<path d="M18.9788 22.0653C19.9461 21.7428 20.8214 21.2361 21.8348 21.19C22.1573 21.4203 21.8348 21.8349 22.0651 22.0653C22.0191 22.572 22.6179 23.2169 22.1112 23.5854C21.6045 23.9539 21.0056 23.3551 20.4989 23.0787C19.9922 22.8023 19.4855 22.4338 18.9788 22.0653Z" fill="#FC323E"/>
<path d="M8.24573 30.4031C11.1478 29.2514 14.096 28.0998 16.9981 26.9482C17.1363 27.0864 17.2285 27.2706 17.3667 27.4088C14.4645 28.5144 11.4703 29.4818 8.66031 30.8637C8.52212 30.7255 8.38392 30.5413 8.24573 30.4031Z" fill="#FE2442"/>
<path d="M39.6161 16.6756C39.8464 16.906 40.0768 17.1363 40.261 17.3205C40.1228 17.7812 39.8004 18.1037 39.3397 18.1497C38.5566 18.2879 37.7735 18.5182 36.9443 18.4722C36.4376 18.4261 36.023 18.1497 35.7006 17.7812C36.4376 16.7678 38.3263 16.215 39.6161 16.6756Z" fill="#FD2A40"/>
<path d="M39.616 16.6757C38.2341 16.7217 37.0364 17.5048 35.7005 17.8273C35.4701 17.7352 35.332 17.597 35.2398 17.4127C34.9634 16.952 35.1477 16.6296 35.5623 16.4453C36.4836 16.0768 37.3588 15.524 38.4183 15.524C38.8329 15.8925 39.2475 16.3071 39.616 16.6757Z" fill="#FD2E40"/>
<path d="M38.4644 15.524C38.0037 16.1228 37.2667 16.261 36.6678 16.5374C36.1611 16.7677 35.6083 16.8599 35.2859 17.4126C34.8713 17.1363 34.5949 16.7217 34.4106 16.261C35.6083 15.9846 36.7139 15.4318 37.8195 14.8791C38.0498 15.1094 38.2341 15.2936 38.4644 15.524Z" fill="#FD313E"/>
<path d="M36.9905 18.5182C38.096 18.1036 39.2016 17.7351 40.3072 17.3205C40.7678 17.7351 41.1824 18.1497 41.6431 18.5642C39.9847 18.6564 38.4646 18.9328 36.9905 18.5182Z" fill="#FC2641"/>
<path d="M28.3301 27.9156C28.0998 27.8695 27.6852 28.0538 27.547 27.7313C27.4088 27.2707 27.9155 27.3167 28.1458 27.1325C28.5144 26.8561 28.8829 26.5336 29.2975 26.2572C29.5278 26.073 29.6199 25.6584 29.9885 25.8426C30.3109 26.0269 30.2648 26.4415 30.2648 26.7639C30.2188 27.547 29.5739 27.9616 28.3301 27.9156Z" fill="#F32761"/>
<path d="M11.7926 33.9961C13.451 32.9827 15.2936 32.476 17.0901 31.8771C17.3204 31.785 17.5968 31.9232 17.8272 31.9232C17.8732 31.9692 17.8732 32.0614 17.8732 32.1074C15.9385 32.7984 13.9577 33.3051 12.2072 34.4568C12.1151 34.2725 11.9769 34.1343 11.7926 33.9961Z" fill="#FE0748"/>
<path d="M22.1113 22.0652C22.0192 21.7888 21.9731 21.4664 21.881 21.19C21.9731 20.9136 22.0192 20.5911 22.1113 20.3147C22.1113 20.8675 22.1113 21.4664 22.1113 22.0652Z" fill="#F12E3E"/>
<path d="M20.6371 36.1152C20.1304 36.1152 19.6698 36.1152 19.2091 35.8849C19.6698 35.977 20.1304 36.0231 20.6371 36.1152Z" fill="#FE004A"/>
</svg>
