<svg width="48" height="48" viewBox="0 0 48 48" fill="none" xmlns="http://www.w3.org/2000/svg">
<path d="M24 48C37.2548 48 48 37.2548 48 24C48 10.7452 37.2548 0 24 0C10.7452 0 0 10.7452 0 24C0 37.2548 10.7452 48 24 48Z" fill="#232538"/>
<path d="M8.34644 34.4851C8.34644 28.396 8.34644 22.2772 8.34644 16.1881C8.94049 16.1881 8.9999 16.693 9.11871 17.0792C9.53455 18.4158 9.86129 19.7821 10.0692 20.9703C10.0395 19.3663 9.9504 17.5544 10.0989 15.7425C10.2177 15.5643 10.2771 15.297 10.5445 15.5643C10.7821 16.0099 10.7227 16.4851 10.7227 16.9307C10.7227 21.5346 10.7227 26.1386 10.7227 30.7425C10.7227 31.1584 10.693 31.5742 10.7821 31.9604C10.9306 32.3465 11.2573 32.2871 11.5544 32.3168C11.9405 32.3168 12.3563 32.2574 12.7128 32.495C13.0692 33.1485 13.6039 33.7723 13.0989 34.5742C11.5544 34.5148 9.92069 34.6633 8.34644 34.4851Z" fill="#00F5BD"/>
<path d="M10.2771 15.8315C10.2771 17.881 10.2771 19.9305 10.2771 21.9801C10.2177 21.9801 10.1583 22.0098 10.0989 22.0098C9.92069 21.3266 9.68307 20.6137 9.59396 19.9305C9.41574 18.8315 8.9999 17.7919 8.76228 16.7226C8.70287 16.485 8.58406 16.2771 8.34644 16.188C8.34644 15.2969 8.34644 14.4355 8.34644 13.5444C8.73257 13.3662 9.11871 13.485 9.50485 13.4553C10.0989 14.1385 9.89099 15.0593 10.2771 15.8315Z" fill="#00F7BB"/>
<path d="M8.34644 34.4851C9.9801 34.4851 11.6435 34.4851 13.2771 34.4851C13.8712 34.0692 14.5544 34.2771 15.2078 34.2474C16.0989 34.2177 16.9603 34.2177 17.8514 34.2474C18.6831 34.2177 19.4851 34.2177 20.3167 34.2474C21.1484 34.2177 21.9801 34.2474 22.8118 34.2474C24.089 34.2177 25.3959 34.2177 26.6732 34.2474C28.2474 34.2177 29.8217 34.2177 31.4256 34.2474C32.8811 34.2177 34.3662 34.2177 35.8217 34.2474C36.7722 34.2177 37.7227 34.2177 38.7029 34.2474C39.0593 34.2474 39.4157 34.2177 39.6831 34.5148C39.4455 34.8415 39.089 34.6633 38.792 34.6633C29.0197 34.6633 19.2177 34.6633 9.44545 34.6633C9.08901 34.6633 8.73257 34.6633 8.40584 34.693C8.34644 34.6039 8.34644 34.5445 8.34644 34.4851Z" fill="#06FAB0"/>
<path d="M39.6832 13.3663C39.6832 13.4257 39.6535 13.4851 39.6535 13.5446C38.8218 14.0495 37.9307 13.7228 37.0693 13.8119C36.3564 13.8416 35.6436 13.8416 34.9307 13.8119C33.5346 13.8416 32.1089 13.8416 30.7129 13.8119C30.5643 13.7822 30.3861 13.7525 30.2673 13.6634C30.1782 13.604 30.1485 13.4851 30.2079 13.396C33.3267 13.3663 36.5049 13.3663 39.6832 13.3663Z" fill="#0BFEA4"/>
<path d="M12.5644 13.3663C14.198 13.3663 15.8614 13.3663 17.495 13.3663C17.5248 13.4851 17.495 13.5743 17.3762 13.6337C16.9307 13.8713 16.4554 13.7822 16.0099 13.7822C15.0891 13.8119 14.1386 13.8119 13.2178 13.7822C13.0099 13.7822 12.802 13.7525 12.6238 13.6337C12.5347 13.5446 12.5049 13.4554 12.5644 13.3663Z" fill="#0BF8B8"/>
<path d="M21.5346 13.3663C23.0494 13.3663 24.594 13.3663 26.1088 13.3663C26.1682 13.4851 26.1385 13.5743 26.0197 13.6337C25.1286 13.9307 24.2078 13.7525 23.3167 13.7822C22.7524 13.7525 22.1583 13.8713 21.594 13.6337C21.5049 13.5743 21.4752 13.4851 21.5346 13.3663Z" fill="#0BFBAF"/>
<path d="M12.5643 13.3663C12.5643 13.4257 12.5643 13.4851 12.5643 13.5445C11.5544 13.99 10.5742 13.9603 9.56435 13.5445C9.14851 13.5445 8.73266 13.5445 8.34653 13.5445C8.31682 13.1881 8.58415 13.3663 8.70296 13.3663C9.98019 13.3663 11.2574 13.3663 12.5643 13.3663Z" fill="#0BF6BC"/>
<path d="M26.1089 13.5446C26.1089 13.4851 26.1089 13.4257 26.1089 13.3663C27.4455 13.3663 28.8119 13.3663 30.1485 13.3663C30.1485 13.4257 30.1485 13.4851 30.1485 13.5446C29.6138 13.9901 28.9604 13.7822 28.3663 13.8119C27.7426 13.8416 27.1485 13.8713 26.5247 13.7822C26.3762 13.7228 26.2277 13.6634 26.1089 13.5446Z" fill="#0BFCAA"/>
<path d="M21.5347 13.3663C21.5347 13.4257 21.5347 13.4851 21.5347 13.5446C21.1189 13.901 20.6139 13.7822 20.1387 13.8119C19.307 13.7822 18.4456 13.9604 17.6139 13.6634C17.5842 13.6337 17.5248 13.604 17.4951 13.5446C17.4951 13.4851 17.4951 13.4257 17.4951 13.3663C18.8318 13.3663 20.1981 13.3663 21.5347 13.3663Z" fill="#0BFAB3"/>
<path d="M39.6535 23.4058C39.6535 26.0494 39.6535 28.6929 39.6535 31.3365C39.0594 31.3068 39.0297 30.8018 38.9109 30.4157C38.4357 28.782 38.1684 27.1187 37.5446 25.5147C37.5149 22.8117 37.3961 20.1088 37.604 17.4058C38.109 16.9008 38.2575 17.3464 38.3169 17.7325C38.6733 19.485 39.3268 21.2078 39.505 23.0196C39.5347 23.1385 39.5644 23.2573 39.6535 23.4058Z" fill="#00FE9F"/>
<path d="M37.7526 25.6931C38.3764 26.7624 38.4952 28.0099 38.8219 29.1683C39.0298 29.9109 39.0001 30.7426 39.6536 31.307C39.6536 32.3763 39.6536 33.4159 39.6239 34.4852C38.3467 34.4852 37.0694 34.4852 35.7922 34.4555C35.4952 33.802 35.109 33.1782 35.5249 32.4357C35.7922 32.2871 36.0892 32.3169 36.3863 32.2871C37.4556 32.2574 37.4853 32.198 37.4853 31.099C37.4853 29.6436 37.4853 28.1881 37.4853 26.7327C37.4853 26.3763 37.4259 25.9901 37.7526 25.6931Z" fill="#00FDA1"/>
<path d="M39.6536 23.4058C39.0001 22.3959 38.9704 21.1781 38.6437 20.0494C38.406 19.2177 38.0793 18.386 38.0496 17.4949C38.0496 17.3167 37.8714 17.287 37.7229 17.2573C37.307 16.8117 37.604 16.2177 37.4258 15.7127C37.3961 15.6236 37.3367 15.5642 37.307 15.4751C37.1882 14.8514 36.6833 14.2573 37.01 13.5741C37.8714 13.5741 38.7625 13.5741 39.6239 13.5741C39.6536 16.8117 39.6536 20.1088 39.6536 23.4058Z" fill="#00FE9D"/>
<path d="M10.4556 32.4059C19.2773 32.4059 28.0991 32.4059 36.8912 32.4059C37.2476 32.4059 37.5744 32.4653 37.5744 31.9009C37.5447 26.4653 37.5447 20.9999 37.515 15.5643C37.515 15.5346 37.515 15.5049 37.4853 15.4752C37.9308 16.0098 37.6041 16.6336 37.7229 17.2276C37.7229 20.0494 37.7229 22.8712 37.7229 25.6633C37.7229 27.4752 37.7229 29.2574 37.7229 31.0692C37.7229 32.7326 37.9308 32.495 36.2971 32.5247C36.0001 32.5247 35.7031 32.5544 35.4358 32.5544C35.0793 32.8217 34.6635 32.792 34.2773 32.792C33.208 32.792 32.1387 32.8217 31.0397 32.7623C29.4655 32.792 27.8912 32.792 26.2872 32.7623C24.9506 32.792 23.614 32.792 22.2476 32.7623C21.4754 32.792 20.7031 32.7623 19.9308 32.7623C19.0991 32.792 18.2971 32.792 17.4655 32.7623C16.5744 32.792 15.713 32.792 14.8219 32.7623C14.109 32.7326 13.3665 32.9405 12.713 32.5247C11.9704 32.4653 11.1981 32.7029 10.4556 32.4059Z" fill="#06FAB0"/>
<path d="M13.4554 15.4752C12.4752 15.4752 11.495 15.4752 10.5148 15.5049C10.3366 15.5346 10.3069 15.6831 10.2772 15.8316C9.6534 15.1782 9.6237 14.3762 9.59399 13.5445C10.6039 13.5445 11.5841 13.5445 12.594 13.5445C12.7722 13.5445 12.9504 13.5445 13.1286 13.5445C13.4257 14.1386 13.6039 14.792 13.4554 15.4752Z" fill="#00F7B8"/>
<path d="M12.7427 32.584C13.4555 32.584 14.1387 32.584 14.8516 32.584C15.2674 33.1484 15.6239 33.7424 15.208 34.485C14.5546 34.485 13.9308 34.485 13.2773 34.485C13.0991 33.8315 12.9209 33.2078 12.7427 32.584Z" fill="#00F7BA"/>
<path d="M26.2872 32.584C27.8614 32.584 29.4654 32.584 31.0396 32.584C31.5446 33.1484 31.8119 33.7424 31.3961 34.485C29.8218 34.485 28.2178 34.485 26.6436 34.485C26.3169 33.8909 25.9307 33.2969 26.2872 32.584Z" fill="#00FBAB"/>
<path d="M31.396 34.4554C31.4851 33.7722 31.2178 33.1781 31.0396 32.5544C32.495 32.5544 33.9802 32.5544 35.4356 32.5544C35.5544 33.1781 35.8514 33.7722 35.792 34.4554C34.3366 34.4554 32.8514 34.4554 31.396 34.4554Z" fill="#00FCA6"/>
<path d="M26.2872 32.584C26.198 33.2672 26.7327 33.8018 26.6436 34.485C25.3367 34.485 24.0594 34.485 22.7525 34.485C22.099 33.9801 21.9208 33.3563 22.2178 32.584C23.5842 32.584 24.9505 32.584 26.2872 32.584Z" fill="#00F9B1"/>
<path d="M15.208 34.485C15.3268 33.8018 14.8813 33.2375 14.8516 32.584C15.7427 32.584 16.604 32.584 17.4951 32.584C17.911 33.1484 18.1783 33.7721 17.8516 34.485C16.9605 34.485 16.0694 34.485 15.208 34.485Z" fill="#00F7B8"/>
<path d="M17.8516 34.485C17.8813 33.8315 17.5248 33.2375 17.4951 32.584C18.3268 32.584 19.1585 32.584 19.9605 32.584C20.5248 33.1484 20.6436 33.7721 20.3169 34.485C19.4852 34.485 18.6535 34.485 17.8516 34.485Z" fill="#00F8B6"/>
<path d="M20.3169 34.485C20.3169 33.8315 20.1684 33.2078 19.9604 32.584C20.7327 32.584 21.4753 32.584 22.2476 32.584C22.2476 33.2672 22.4555 33.8909 22.7822 34.485C21.9505 34.485 21.1189 34.485 20.3169 34.485Z" fill="#00F8B4"/>
<path d="M35.2575 15.4752C33.8021 15.4752 32.3169 15.4752 30.8615 15.4752C30.3565 14.9108 30.1783 14.2574 30.505 13.5445C31.9605 13.5445 33.4456 13.5445 34.9011 13.5445C35.2278 14.1683 35.5248 14.7623 35.2575 15.4752Z" fill="#00FDA1"/>
<path d="M30.5049 13.5445C30.6237 14.198 30.7425 14.8514 30.8613 15.4752C29.5247 15.4752 28.1583 15.4752 26.8217 15.4752C26.4653 14.8811 26.2277 14.2574 26.4653 13.5445C27.6831 13.5445 28.9306 13.5445 30.1484 13.5445C30.2673 13.5445 30.3861 13.5445 30.5049 13.5445Z" fill="#00FCA6"/>
<path d="M35.2573 15.4752C35.1385 14.8217 34.8414 14.2277 34.9008 13.5445C35.6137 13.5445 36.2969 13.5445 37.0097 13.5445C37.188 14.198 37.3662 14.8514 37.5147 15.5346C36.7721 15.5049 36.0295 15.5049 35.2573 15.4752Z" fill="#00FE9F"/>
<path d="M13.4553 15.4752C13.2474 14.8514 13.0989 14.198 13.0989 13.5445C14.1088 13.5445 15.089 13.5445 16.0989 13.5445C16.6038 14.1089 16.7821 14.7623 16.4553 15.4752C15.4454 15.4752 14.4355 15.4752 13.4553 15.4752Z" fill="#00F8B5"/>
<path d="M16.4255 15.4752C16.3067 14.8217 16.1879 14.1683 16.0691 13.5445C16.5443 13.5445 17.0196 13.5445 17.4651 13.5445C17.881 14.1386 18.178 14.7623 17.8216 15.4752C17.376 15.4752 16.9008 15.4752 16.4255 15.4752Z" fill="#00F9B3"/>
<path d="M23.6435 15.4752C22.5742 15.4752 21.5346 15.4752 20.4653 15.4752C19.9901 14.9108 19.7228 14.2871 20.1089 13.5445C20.5841 13.5445 21.0594 13.5445 21.5049 13.5445C22.099 13.5445 22.693 13.5445 23.2574 13.5445C23.7921 14.1089 23.9109 14.7623 23.6435 15.4752Z" fill="#00FAAE"/>
<path d="M23.6435 15.4752C23.5247 14.8217 23.4059 14.1683 23.2871 13.5445C24.2376 13.5445 25.1584 13.5445 26.1089 13.5445C26.2277 13.5445 26.3465 13.5445 26.4653 13.5445C26.5841 14.198 26.703 14.8514 26.8218 15.4752C25.7525 15.4752 24.7129 15.4752 23.6435 15.4752Z" fill="#00FBAA"/>
<path d="M20.1387 13.5445C20.0793 14.2277 20.3763 14.8514 20.4951 15.4752C19.604 15.4752 18.7426 15.4752 17.8516 15.4752C17.911 14.792 17.5248 14.198 17.4951 13.5445C18.3565 13.5445 19.2476 13.5445 20.1387 13.5445Z" fill="#00F9B1"/>
<path d="M26.406 28.8712C25.2179 28.8118 24.505 28.0693 24 27.0891C23.2575 25.6336 22.7525 24.0891 22.2179 22.5445C21.7723 21.7722 21.505 20.9406 21.4456 20.0792C21.4159 19.7227 21.3862 19.3069 21.9802 19.4851C23.4951 19.7524 24.1486 20.9406 24.6832 22.1584C25.2773 23.5544 25.7822 24.9802 26.4951 26.3168C26.7921 26.9109 26.8218 27.594 26.9703 28.2178C27.0594 28.6336 27 29.0495 26.406 28.8712Z" fill="#00FAAE"/>
<path d="M32.4653 21.2969C30.1187 24.3266 31.2474 27.4157 35.0197 28.2177C35.7326 28.3662 35.6138 28.7821 35.6138 29.2276C35.6138 30.5642 35.4653 30.7128 34.1583 30.386C33.2673 30.1781 32.4356 29.8811 31.7227 29.2573C31.1583 27.8613 30.891 26.3464 30.5049 24.891C30.2672 23.9405 30.0593 22.9603 29.792 22.0098C29.7029 21.7128 29.6138 21.386 29.7623 21.089C30.1781 20.287 30.7722 19.6632 31.5445 19.188C31.8415 19.0098 32.0791 19.188 32.1979 19.4256C32.495 19.99 32.8217 20.584 32.4653 21.2969Z" fill="#01FDA2"/>
<path d="M16.0396 18.8316C16.8416 19.3365 17.6139 19.9009 18.2079 20.6435C18.3564 20.8514 18.505 20.8811 18.6832 20.7326C19.099 20.5246 19.2772 20.8514 19.396 21.1484C19.604 21.7722 19.8713 22.3959 19.8119 23.0791C19.396 24.5048 19.3663 26.0494 18.4159 27.2672C17.7624 27.4751 17.703 26.9108 17.5842 26.5246C17.198 25.4553 17.0792 24.3266 16.9901 23.1979C16.7525 22.7227 16.5149 22.2771 16.2772 21.8019C15.9208 21.1187 15.8911 20.3464 15.7426 19.6039C15.6535 19.3365 15.5941 18.9504 16.0396 18.8316Z" fill="#01F8B6"/>
<path d="M29.7921 21.0891C30.4158 23.5248 31.0396 25.9604 31.6633 28.396C31.7227 28.6634 31.693 28.9604 31.7227 29.2574C30.9208 28.8713 30.4455 28.1881 29.8515 27.505C29.5544 27.9505 29.0792 28.1881 28.693 28.4852C27.8317 28.0099 27.8317 27.1782 27.8614 26.3465C28.4851 25.3366 28.6039 24.1485 28.901 23.0198C29.0792 22.3366 29.3168 21.6535 29.7921 21.0891Z" fill="#00FCA6"/>
<path d="M16.0397 18.8316C15.8021 19.188 15.9209 19.5445 16.01 19.9306C16.1882 20.5544 16.307 21.1781 16.2476 21.8316C15.4753 20.9702 14.5545 20.3762 13.4258 20.1385C12.5644 19.8118 12.4753 19.5445 12.7427 17.9702C12.9209 17.8811 13.0991 17.8811 13.2773 17.9702C13.604 18.2375 14.0496 17.9702 14.3763 18.1484C14.9704 18.2078 15.5941 18.3564 16.0397 18.8316Z" fill="#02F7B9"/>
<path d="M32.4653 21.2969C32.2574 20.5544 32.5247 19.6336 31.5742 19.188C32.2574 18.6534 32.9703 18.2375 33.8316 18.1187C34.099 17.9108 34.4554 18.1781 34.7227 17.9405C34.9604 17.9405 35.198 17.9405 35.4356 17.9405C35.6138 18.386 35.4653 18.8613 35.5247 19.3365C35.6138 19.8415 35.3168 19.99 34.901 20.0494C34.0099 20.287 33.1782 20.7029 32.4653 21.2969Z" fill="#02FEA0"/>
<path d="M15.5645 29.7921C14.8219 30.2376 13.9902 30.3861 13.1586 30.4752C12.6536 30.5346 12.5348 30.3267 12.5645 29.8812C12.5645 29.7327 12.5942 29.5841 12.5645 29.4356C12.416 28.5742 12.7427 28.1584 13.6338 28.1584C14.1982 28.1584 14.6437 27.7723 15.1784 27.5643C15.5942 28.2475 15.9209 28.9604 15.5645 29.7921Z" fill="#02F5BD"/>
<path d="M16.9603 23.2276C17.198 24.2078 17.4059 25.2177 17.7029 26.1979C17.8217 26.6137 17.7623 27.1781 18.3861 27.2969C18.0296 28.2474 17.2277 28.7524 16.4554 29.3167C15.8019 28.7226 15.6237 27.9801 15.7128 27.1187C16.8118 26.0197 17.2277 24.7127 16.9603 23.2276Z" fill="#01F7B9"/>
<path d="M27.8614 26.3464C28.2178 27.0296 28.1287 27.891 28.6931 28.485C27.9802 28.9603 27.2079 29.1088 26.3762 28.8712C26.8218 28.8118 26.8812 28.5147 26.703 28.188C26.3762 27.5939 26.4356 26.9702 26.4653 26.3464C26.9406 26.7325 27.3861 26.7622 27.8614 26.3464Z" fill="#02FBAA"/>
<path d="M21.9505 19.5149C21.6832 19.5446 21.5644 19.6337 21.6238 19.9604C21.8317 20.8218 22.0099 21.7129 22.1882 22.5743C21.7426 21.9802 21.2674 21.4753 20.4654 22.0396C20.0198 21.3268 19.8416 20.5545 19.9307 19.7228C20.5842 19.2773 21.2674 19.2178 21.9505 19.5149Z" fill="#02F9B1"/>
<path d="M19.9603 19.7227C20.2277 20.4653 20.4653 21.2375 20.495 22.0395C20.2574 22.396 20.0197 22.7227 19.7821 23.0791C19.4851 22.5742 19.3663 22.0395 19.2475 21.4752C19.1584 21.1187 19.0989 20.792 18.6831 20.7326C19.0395 20.3167 19.3366 19.8118 19.9603 19.7227Z" fill="#02F9B4"/>
<path d="M15.7129 27.089C15.9505 27.8315 16.2178 28.5444 16.4555 29.287C16.2178 29.584 15.8911 29.7028 15.5644 29.8216C15.4456 29.0791 15.297 28.3365 15.1782 27.5939C15.3564 27.4157 15.5347 27.2375 15.7129 27.089Z" fill="#02F7BC"/>
<path d="M12.7425 17.9405C12.7425 18.2078 12.7722 18.4751 12.7425 18.7128C12.6237 19.3662 12.8019 19.8415 13.4257 20.1088C12.7128 20.1385 12.4455 19.7821 12.5643 19.0989C12.6534 18.7128 12.3861 18.2672 12.7425 17.9405Z" fill="#04F7BC"/>
<path d="M34.9307 20.0494C35.5247 19.8415 35.4653 19.3662 35.4653 18.8613C35.4653 18.5643 35.4653 18.2375 35.4653 17.9405C35.8218 18.5048 35.6138 19.1583 35.6138 19.7524C35.5841 20.1682 35.1683 20.0197 34.9307 20.0494Z" fill="#04FE9F"/>
<path d="M14.3764 18.089C13.9902 18.0593 13.6041 18.2673 13.2773 17.9108C13.6338 17.9108 14.0199 17.8811 14.3764 18.089Z" fill="#04F7BC"/>
<path d="M34.7524 17.9405C34.5148 18.2375 34.1584 18.089 33.8613 18.1187C34.1287 17.9108 34.4257 17.9108 34.7524 17.9405Z" fill="#04FE9F"/>
</svg>
