<svg width="48" height="48" viewBox="0 0 48 48" fill="none" xmlns="http://www.w3.org/2000/svg">
<circle cx="24" cy="24" r="24" fill="#EAB300"/>
<path d="M33.4367 18.1208C33.1276 14.9067 30.3532 13.8296 26.8473 13.5224V9.06226H24.1343V13.4034C23.422 13.4034 22.6924 13.4168 21.9686 13.4322V9.06226H19.2556L19.2537 13.5186C18.6662 13.5301 18.0883 13.5416 17.5257 13.5416V13.5282L13.7837 13.5263V16.4255C13.7837 16.4255 15.7881 16.3871 15.7536 16.4235C16.8537 16.4235 17.2108 17.061 17.3145 17.612V22.6924C17.3913 22.6924 17.4892 22.6962 17.6006 22.7115H17.3145L17.3126 29.829C17.2646 30.1746 17.0611 30.7256 16.2931 30.7276C16.3277 30.7583 14.3213 30.7276 14.3213 30.7276L13.7817 33.9685H17.3145C17.9712 33.9685 18.6182 33.98 19.2518 33.9839L19.2537 38.494H21.9648V34.0319C22.7078 34.0472 23.4278 34.053 24.1324 34.053L24.1305 38.494H26.8435V33.9935C31.4054 33.7324 34.6022 32.5823 34.9977 28.2968C35.3183 24.8466 33.6959 23.3048 31.1058 22.6827C32.6822 21.884 33.6671 20.4728 33.4367 18.1208ZM29.639 27.7631C29.639 31.1327 23.8694 30.7506 22.0281 30.7506V24.7736C23.8694 24.7775 29.639 24.2495 29.639 27.7631ZM28.3756 19.3323C28.3756 22.3986 23.5603 22.0395 22.0281 22.0415V16.6232C23.5622 16.6232 28.3775 16.1355 28.3756 19.3323Z" fill="black"/>
<path d="M17.3184 22.5734H17.7216V22.871H17.3184V22.5734Z" fill="black"/>
</svg>
