<svg width="48" height="48" viewBox="0 0 48 48" fill="none" xmlns="http://www.w3.org/2000/svg">
<circle cx="24" cy="24" r="24" fill="white"/>
<path d="M42.4305 9.05012C40.7508 9.40517 39.1601 9.8486 37.9219 10.115C34.9166 10.8244 32.1763 13.0428 31.5578 17.2128C31.0267 20.9391 32.265 22.5364 31.7348 26.8844C30.7617 34.5141 23.5134 37.0878 20.1544 38.6844C18.2096 39.5719 13.4362 41.7009 9.8118 43.2975C13.79 46.2263 18.6517 48 24.0439 48C37.3031 48 47.9997 37.2645 47.9997 23.9556C47.9997 18.277 46.0549 13.1312 42.7836 8.96082C42.6069 9.05012 42.5185 9.05012 42.4305 9.05012Z" fill="url(#paint0_linear_2_16825)"/>
<path d="M21.2152 20.4954C23.0716 16.5028 22.3642 16.5028 23.7788 12.6875C25.5462 7.89664 31.0267 9.3159 32.53 9.49358C35.0052 9.848 35.7118 8.96085 40.9269 8.0737C41.1929 8.0737 41.458 7.9847 41.723 7.9847C37.3034 3.10551 30.9393 0 23.8672 0C14.4088 0 6.18768 5.5896 2.29848 13.6636C10.2539 15.6156 18.7401 19.8743 21.2152 20.4954ZM16.0001 4.17034C16.7069 4.25871 20.066 8.51774 20.6851 19.3422C20.6851 19.3422 16.3532 18.2774 15.3813 16.0596C14.6738 14.1963 15.6464 11.7116 16.0001 4.17034ZM42.6069 9.05016C42.6069 9.05016 42.5188 9.05016 42.4305 9.05016C42.5185 9.05016 42.6069 9.05016 42.6069 9.05016ZM0 24.0447C0 22.0927 0.265066 20.2294 0.618799 18.4551C1.50266 19.1648 2.38653 19.9633 3.35906 20.9395C9.63509 26.7067 19.7126 31.3205 23.4254 27.0612C22.7182 27.9486 20.1544 30.7875 15.2929 29.9009L7.60261 41.5242C2.91728 37.1762 0 30.9655 0 24.0447Z" fill="url(#paint1_linear_2_16825)"/>
<defs>
<linearGradient id="paint0_linear_2_16825" x1="32.6017" y1="14.2905" x2="26.9142" y2="45.5074" gradientUnits="userSpaceOnUse">
<stop stop-color="#FF496A"/>
<stop offset="1" stop-color="#E42648"/>
</linearGradient>
<linearGradient id="paint1_linear_2_16825" x1="13.7041" y1="36.1548" x2="26.272" y2="0.794497" gradientUnits="userSpaceOnUse">
<stop offset="0.00181229" stop-color="#1158F1"/>
<stop offset="1" stop-color="#119BED"/>
</linearGradient>
</defs>
</svg>
