<svg width="48" height="48" viewBox="0 0 48 48" fill="none" xmlns="http://www.w3.org/2000/svg">
<rect width="48" height="48" rx="24" fill="#FFA800"/>
<path fill-rule="evenodd" clip-rule="evenodd" d="M31.8983 21.2741C31.6466 23.0118 30.7388 24.0631 29.175 24.428C30.2009 24.9586 30.8977 25.6403 31.2654 26.4729C31.6331 27.3056 31.5962 28.3547 31.1547 29.6202C30.9258 30.2658 30.6303 30.8108 30.2682 31.2553C29.9061 31.6998 29.503 32.0402 29.0588 32.2765C28.6147 32.5128 28.0952 32.6737 27.5005 32.759C26.9058 32.8443 26.2999 32.8651 25.6827 32.8213C25.0656 32.7774 24.3702 32.6797 23.5968 32.528L22.7152 36.0928L20.5624 35.5604L21.4301 32.0515C20.6845 31.8671 20.1171 31.7219 19.728 31.6158L18.8568 35.1387L16.7039 34.6063L17.5855 31.0414C17.4177 30.9999 17.1667 30.9354 16.8323 30.8478C16.4979 30.7601 16.2422 30.6944 16.0651 30.6506L13.2692 29.9592L14.3352 27.5081L15.8869 27.8918C16.3529 28.007 16.682 27.8362 16.8741 27.3794L18.2638 21.7595L18.4875 21.8148C18.4339 21.7916 18.3605 21.7685 18.2673 21.7455L19.2595 17.7333C19.295 17.0696 18.9586 16.6501 18.2503 16.475L16.6986 16.0912L17.2655 13.7985L20.2258 14.5454C20.8223 14.6929 21.2754 14.8 21.5853 14.8668L22.4565 11.3439L24.6094 11.8763L23.7555 15.3293C24.5243 15.4996 25.0951 15.6309 25.4679 15.7231L26.3149 12.298L28.4678 12.8304L27.5966 16.3533C28.3168 16.6006 28.9432 16.8668 29.476 17.1519C30.0088 17.4369 30.4835 17.7768 30.9002 18.1716C31.3168 18.5664 31.6114 19.0249 31.7838 19.5472C31.9563 20.0695 31.9945 20.6452 31.8983 21.2741ZM27.0085 28.1498C27.0915 27.8143 27.0953 27.4988 27.0201 27.2033C26.9448 26.9077 26.8254 26.6507 26.6618 26.4323C26.4983 26.2138 26.2655 26.0054 25.9634 25.8071C25.6614 25.6088 25.3775 25.4471 25.1117 25.3221C24.846 25.197 24.5115 25.0698 24.1083 24.9404C23.7052 24.811 23.3871 24.7176 23.1541 24.6599C22.9211 24.6023 22.6194 24.5326 22.2489 24.4509C21.8785 24.3692 21.656 24.3191 21.5814 24.3007L20.413 29.0259C20.4875 29.0443 20.6594 29.0893 20.9285 29.1608C21.1976 29.2323 21.4207 29.2899 21.5978 29.3337C21.7749 29.3775 22.0236 29.4316 22.3439 29.496C22.6642 29.5603 22.9414 29.6091 23.1755 29.6423C23.4096 29.6755 23.6851 29.7015 24.0018 29.7205C24.3185 29.7395 24.5933 29.7382 24.8261 29.7167C25.0588 29.6951 25.3044 29.652 25.5627 29.5873C25.821 29.5226 26.0396 29.4283 26.2186 29.3045C26.3976 29.1806 26.5579 29.0224 26.6994 28.83C26.8409 28.6375 26.944 28.4108 27.0085 28.1498ZM27.689 20.389C27.7467 20.6554 27.7376 20.9424 27.6615 21.25C27.597 21.5109 27.4963 21.7382 27.3594 21.9318C27.2225 22.1255 27.0523 22.2738 26.8488 22.3767C26.6454 22.4797 26.4418 22.5629 26.2382 22.6263C26.0347 22.6897 25.7873 22.72 25.4963 22.7172C25.2052 22.7145 24.9525 22.7064 24.7383 22.693C24.524 22.6795 24.2614 22.6418 23.9504 22.5797C23.6394 22.5176 23.4041 22.4693 23.2445 22.4348C23.0849 22.4003 22.8682 22.3467 22.5944 22.2741C22.3206 22.2014 22.1604 22.1593 22.1138 22.1478L23.1751 17.856C23.2404 17.8721 23.425 17.9153 23.7291 17.9856C24.0331 18.0558 24.2859 18.1134 24.4874 18.1583C24.689 18.2032 24.9564 18.2817 25.2896 18.3937C25.6229 18.5058 25.9003 18.614 26.1217 18.7182C26.3432 18.8224 26.5805 18.9627 26.8336 19.139C27.0867 19.3153 27.2781 19.5011 27.4078 19.6964C27.5375 19.8916 27.6313 20.1225 27.689 20.389Z" fill="black"/>
</svg>
