<svg width="48" height="48" viewBox="0 0 48 48" fill="none" xmlns="http://www.w3.org/2000/svg">
<g clip-path="url(#clip0_2_5166)">
<path d="M47.5074 19.1756C47.1895 17.6314 46.7195 16.1225 46.1043 14.6709C45.498 13.2411 44.7562 11.8727 43.8891 10.5843C43.0292 9.31146 42.0484 8.12466 40.9603 7.04045C39.8754 5.95224 38.6879 4.97142 37.4143 4.11168C36.124 3.2489 34.7566 2.50735 33.3297 1.89652C30.3786 0.644933 27.2059 -6.10352e-05 24.0005 -6.10352e-05C20.795 -6.10352e-05 17.6223 0.644933 14.6713 1.89652C11.8177 3.10011 9.22592 4.84797 7.04064 7.04246C5.95262 8.12603 4.97179 9.31216 4.11182 10.5843C3.24891 11.8752 2.50734 13.2433 1.89661 14.6709C0.645006 17.6219 0 20.7945 0 23.9999C0 27.2054 0.645006 30.378 1.89661 33.329C2.4876 34.7562 3.25147 36.109 4.11182 37.4136C4.97174 38.687 5.95256 39.8744 7.04064 40.9594C8.12551 42.0476 9.31301 43.0285 10.5866 43.8882C11.8651 44.7485 13.244 45.4883 14.6713 46.1034C17.6223 47.3549 20.795 47.9999 24.0005 47.9999C27.2059 47.9999 30.3786 47.3549 33.3297 46.1034C34.7569 45.5124 36.1097 44.7485 37.4143 43.8882C38.6879 43.0285 39.8754 42.0476 40.9603 40.9594C42.0485 39.8746 43.0293 38.6871 43.8891 37.4136C44.7494 36.1351 45.4892 34.7562 46.1043 33.329C47.9979 28.863 48.4873 23.9264 47.5074 19.1756ZM24.0226 44.9958C12.4299 44.9958 3.05246 35.5924 3.05246 24.0241C3.05246 12.4557 12.456 3.05234 24.0226 3.05234C35.5911 3.05234 44.9947 12.4557 44.9947 24.0241C44.9947 35.5924 35.5931 44.9958 24.0226 44.9958Z" fill="white"/>
<circle cx="24" cy="23.9999" r="22" fill="black"/>
<path d="M24.4901 42.9559H25.0541C25.1521 42.9559 25.2481 42.9559 25.3461 42.9299H25.3721C25.4701 42.9299 25.5421 42.9299 25.6401 42.9059H25.7141C25.7881 42.9059 25.8621 42.9059 25.9341 42.8819H26.0081C26.0821 42.8819 26.1561 42.8579 26.2541 42.8579H26.3021C26.4001 42.8579 26.4981 42.8319 26.5961 42.8319C26.6941 42.8319 26.7681 42.8079 26.8661 42.7839H26.9141C26.9881 42.7839 27.0621 42.7599 27.1341 42.7599H27.1841C27.2821 42.7339 27.3561 42.7339 27.4541 42.7099C27.6481 42.6859 27.8441 42.6359 28.0161 42.5879H28.0661C28.1381 42.5639 28.2361 42.5639 28.3101 42.5379H28.3341C28.5301 42.4899 28.7021 42.4399 28.8981 42.3919C27.0637 42.4501 25.2294 42.2774 23.4381 41.8779C20.7421 41.2899 18.1721 40.2379 15.9921 38.4239C14.2735 36.9936 12.8942 35.1993 11.9541 33.1706C11.0139 31.142 10.5364 28.9297 10.5561 26.6939C10.5737 23.3583 11.7606 20.1346 13.9101 17.5839C16.7021 14.2779 20.6701 12.5379 24.7341 12.4399H25.2981V9.1839H24.6621C23.4257 9.20655 22.1948 9.35396 20.9881 9.6239C19.7737 9.89849 18.5918 10.3007 17.4621 10.8239C16.3101 11.3639 15.2321 12.0239 14.2281 12.7839C13.1906 13.5726 12.2459 14.4763 11.4121 15.4779C10.627 16.4048 9.94564 17.4148 9.38009 18.4899C8.8206 19.5263 8.3689 20.6173 8.03209 21.7459C7.70171 22.857 7.48066 23.9978 7.3721 25.1519L7.2981 26.2279V26.8639C7.3221 28.1139 7.4701 29.3379 7.7381 30.5379C8.0081 31.7639 8.4241 32.9379 8.93809 34.0659C9.55209 35.4119 10.6541 37.3959 12.2941 38.8899C15.6427 41.5297 19.7841 42.9623 24.0481 42.9559H24.4901Z" fill="white"/>
<path d="M29.8282 39.8199C28.6203 39.7767 27.4171 39.6457 26.2282 39.4279C21.1842 38.5219 16.8482 35.4359 15.2582 30.7839C13.3222 25.1259 16.2862 19.0039 21.9182 17.1439C22.9915 16.7842 24.1162 16.6018 25.2482 16.6039C26.6942 16.6039 28.1382 16.8979 29.4622 17.4359L30.8322 14.5219C30.4202 14.3567 30.004 14.202 29.5842 14.0579C28.181 13.6175 26.7188 13.3942 25.2482 13.3959C23.7748 13.3986 22.3114 13.6384 20.9142 14.1059C19.1309 14.6941 17.4885 15.6446 16.0902 16.8979C15.4158 17.4986 14.8009 18.163 14.2542 18.8819C13.7137 19.5925 13.246 20.3557 12.8582 21.1599C12.0685 22.7767 11.6024 24.5323 11.4862 26.3279C11.3642 28.1879 11.6082 30.0479 12.2202 31.8119C12.8438 33.6265 13.8459 35.2879 15.1602 36.6859C16.3602 37.9839 17.7562 38.9639 19.4442 39.8699C21.2082 40.7999 23.3882 41.2899 25.6642 41.6099C27.1342 41.8039 29.0942 41.8539 30.2442 41.8539C31.2482 41.4859 31.6642 41.3139 32.2042 41.0939C32.6702 40.8739 33.1342 40.6539 33.6002 40.3839C34.0662 40.1139 34.1402 40.0639 34.9222 39.5519C34.9918 39.5086 35.0574 39.459 35.1182 39.4039C32.4242 39.8699 31.7382 39.8439 29.8282 39.8199Z" fill="white"/>
<path d="M35.8541 36.1719C35.0941 36.2199 34.0161 36.2919 32.7921 36.2919C30.6121 36.2919 27.9421 36.0979 25.6661 35.3379C22.1381 34.1639 18.8081 31.1519 18.8081 27.4279C18.8073 26.5465 18.9803 25.6736 19.3173 24.8592C19.6542 24.0447 20.1484 23.3047 20.7717 22.6815C21.3949 22.0582 22.1349 21.564 22.9494 21.2271C23.7638 20.8901 24.6367 20.7171 25.5181 20.7179C28.0401 20.7179 30.2201 22.1139 31.3721 24.1459L34.2861 22.7019C33.8292 21.8417 33.2423 21.0571 32.5461 20.3759C31.6236 19.4518 30.528 18.7187 29.3218 18.2185C28.1157 17.7183 26.8228 17.4609 25.5171 17.4609C24.2114 17.4609 22.9185 17.7183 21.7124 18.2185C20.5062 18.7187 19.4106 19.4518 18.4881 20.3759C17.5643 21.2984 16.8315 22.3939 16.3315 23.5998C15.8315 24.8058 15.5741 26.0984 15.5741 27.4039C15.5806 28.7721 15.8736 30.1238 16.4341 31.3719C16.9461 32.4979 17.6581 33.5519 18.5641 34.5319C20.1561 36.2439 22.3341 37.6159 24.6621 38.3999C26.8901 39.1339 30.1721 39.4039 33.3561 39.1839C34.2361 39.1099 34.8981 39.0359 36.0241 38.7919C37.1107 37.9344 38.097 36.9569 38.9641 35.8779C38.2041 35.9519 36.8081 36.0979 35.8541 36.1719Z" fill="white"/>
</g>
<defs>
<clipPath id="clip0_2_5166">
<path d="M0 24C0 10.7452 10.7452 0 24 0C37.2548 0 48 10.7452 48 24C48 37.2548 37.2548 48 24 48C10.7452 48 0 37.2548 0 24Z" fill="white"/>
</clipPath>
</defs>
</svg>
