<svg width="48" height="48" viewBox="0 0 48 48" fill="none" xmlns="http://www.w3.org/2000/svg">
<path d="M0 24C0 10.7452 10.7452 0 24 0C37.2548 0 48 10.7452 48 24C48 37.2548 37.2548 48 24 48C10.7452 48 0 37.2548 0 24Z" fill="url(#paint0_linear_2_4072)"/>
<path d="M33.6201 20.5963C33.8257 20.6115 34.0313 20.6267 34.2445 20.6343C35.3561 20.8323 36.4068 21.1978 37.389 21.746L37.4043 21.7536C37.5261 21.8906 37.686 21.9744 37.8459 22.0505L37.8535 22.0581C37.8992 22.1419 37.9677 22.18 38.0514 22.2104L38.0743 22.2256C38.8814 22.8652 39.5438 23.6342 40.1301 24.4794L40.1453 24.4641L40.1301 24.4794C40.7544 25.5758 41.1275 26.7483 41.295 27.9894C41.295 28.0503 41.295 28.1189 41.3026 28.1798C41.3331 29.5503 41.1579 30.8827 40.5488 32.1314C39.1859 34.8953 36.9703 36.5247 33.9095 36.8064C30.8639 37.0881 28.3969 35.8927 26.562 33.441C25.7777 32.3903 25.3057 31.1949 25.1382 29.8853C25.1229 29.7711 25.0849 29.6645 25.062 29.5579C25.0544 29.4741 25.0468 29.3904 25.0392 29.3066C25.0544 28.393 25.1001 27.4869 25.3361 26.6037C26.1128 23.619 28.7853 21.1978 31.8461 20.7257C31.9298 20.7105 32.0136 20.68 32.0973 20.6495C32.2496 20.6419 32.4095 20.6267 32.5618 20.6191C32.9196 20.6115 33.2699 20.6039 33.6201 20.5963ZM33.1481 33.5172C35.7977 33.5324 37.9677 31.4005 37.9829 28.766C37.9981 26.0859 35.851 23.9236 33.1709 23.9159C30.5441 23.9083 28.3817 26.0555 28.3969 28.7204C28.4122 31.4081 30.3309 33.4715 33.1481 33.5172Z" fill="black"/>
<path d="M16.1613 27.0836C11.593 27.0379 7.98395 23.3528 8.05247 18.8301C8.121 14.3607 11.8138 10.7516 16.3212 10.8506C20.6764 10.9496 24.3692 14.5662 24.3159 19.0737C24.2702 23.4898 20.5622 27.1293 16.1613 27.0836ZM16.1613 14.1703C13.5269 14.1551 11.3493 16.3251 11.3798 19.0128C11.4102 21.5787 13.5193 23.8781 16.3669 23.7563C18.9328 23.6421 21.0267 21.5559 20.981 18.8453C20.9353 16.2642 18.7806 14.1475 16.1613 14.1703Z" fill="black"/>
<path d="M26.2118 17.6039C26.3032 16.2943 26.6306 15.0533 27.3843 13.9645C28.9224 11.7488 31.0695 10.66 33.7496 10.8732C36.3764 11.0864 38.3028 12.4645 39.4601 14.8401C40.2596 16.4847 40.3433 18.1978 39.7799 19.9414C39.6809 20.246 39.5362 20.5353 39.422 20.8399C39.3307 21.0835 39.2317 21.0683 39.0413 20.9236C38.4322 20.4516 37.7698 20.0633 37.0389 19.7968C37.016 19.7815 36.9932 19.7739 36.9779 19.7587C36.9475 19.7435 36.917 19.7359 36.8866 19.7206C36.7648 19.6749 36.6429 19.6293 36.5211 19.5836C36.4907 19.5074 36.3688 19.5227 36.3688 19.4237C36.7038 18.9668 36.7724 18.4263 36.7952 17.9009C36.8714 16.0964 35.577 14.4898 33.7953 14.2081C32.5542 14.0102 31.4426 14.3299 30.5746 15.2969L30.567 15.3045C29.6914 16.0888 29.2878 17.642 29.7599 18.9745C29.9426 19.4922 29.9503 19.5151 29.4401 19.6902C28.6254 19.9795 27.9249 20.4744 27.2168 20.9465C27.0417 21.0607 27.0113 20.9998 26.958 20.8703C26.8133 20.5353 26.6762 20.2079 26.5316 19.8729C26.4174 19.3247 26.2803 18.7765 26.227 18.2131C26.2575 18.0075 26.2499 17.8019 26.2118 17.6039Z" fill="black"/>
<path d="M10.9002 29.9082C11.357 29.9082 11.8139 29.9159 12.2707 29.9006C12.4991 29.893 12.5753 29.9615 12.5905 30.1976C12.7199 32.1163 14.4712 33.6924 16.5345 33.502C18.1715 33.3498 19.6258 31.9792 19.7629 30.3422C19.7933 29.9844 19.9151 29.8854 20.273 29.893C21.1105 29.9235 21.9481 29.9159 22.7856 29.893C23.0749 29.8854 23.1511 29.9768 23.1282 30.2661C22.9607 32.3523 22.1003 34.0502 20.4253 35.3522C18.8035 36.6161 17.0066 37.0425 15.0117 36.738C11.8748 36.2507 9.37741 33.4335 9.24036 30.2737C9.22513 29.9692 9.30888 29.8702 9.60583 29.8854C10.0322 29.9311 10.4662 29.9082 10.9002 29.9082Z" fill="black"/>
<defs>
<linearGradient id="paint0_linear_2_4072" x1="35.5" y1="-6.01014e-07" x2="13.5" y2="48" gradientUnits="userSpaceOnUse">
<stop stop-color="#F0D860"/>
<stop offset="1" stop-color="#CDA146"/>
</linearGradient>
</defs>
</svg>
