<svg width="48" height="48" viewBox="0 0 48 48" fill="none" xmlns="http://www.w3.org/2000/svg">
<path d="M24 48C37.2548 48 48 37.2548 48 24C48 10.7452 37.2548 0 24 0C10.7452 0 0 10.7452 0 24C0 37.2548 10.7452 48 24 48Z" fill="white"/>
<path d="M25.7263 8C25.7621 8.00512 25.798 8.0128 25.8351 8.01536C25.9887 8.02304 26.1423 8.0256 26.2946 8.03712C26.5416 8.05503 26.7873 8.07295 27.033 8.09983C27.312 8.13054 27.591 8.16638 27.8701 8.20861C28.3282 8.27773 28.7826 8.36604 29.2331 8.4761C29.5953 8.56313 29.9549 8.65784 30.3107 8.76663C30.632 8.86518 30.9481 8.97396 31.2629 9.09043C31.9438 9.34128 32.6042 9.63564 33.2492 9.96968C33.7919 10.2512 34.3192 10.5597 34.8286 10.8963C35.5504 11.3737 36.2351 11.8984 36.8802 12.4756C37.3998 12.9402 37.8887 13.4355 38.3507 13.9577C38.3853 13.9961 38.4198 14.0332 38.4531 14.0729C38.4774 14.1023 38.4761 14.1189 38.448 14.1458C38.3354 14.2546 38.2227 14.3621 38.1101 14.4709C37.5777 14.9828 37.044 15.4948 36.5116 16.0054C35.8333 16.6569 35.1549 17.3083 34.4753 17.9598C34.4574 17.9777 34.4382 17.9943 34.4203 18.0097C34.387 18.011 34.3742 17.9841 34.3576 17.9674C34.2219 17.8305 34.0863 17.691 33.9506 17.5541C33.4335 17.0319 32.8858 16.5455 32.3034 16.0989C31.7186 15.6509 31.1042 15.2465 30.4515 14.9009C29.8423 14.5797 29.2101 14.3109 28.5548 14.0997C28.1759 13.9782 27.7907 13.8822 27.4004 13.8015C27.1085 13.7414 26.8129 13.6979 26.5173 13.6595C26.164 13.6134 25.8095 13.5904 25.455 13.5801C25.1773 13.5725 24.8983 13.5737 24.6192 13.584C24.2788 13.5955 23.9396 13.6288 23.6005 13.6748C23.3023 13.7158 23.0054 13.7695 22.711 13.8323C22.2797 13.9257 21.8586 14.0511 21.4439 14.1996C20.9192 14.3877 20.4124 14.6181 19.9248 14.8894C19.3719 15.1966 18.851 15.5498 18.3646 15.9555C17.7951 16.4303 17.2806 16.9589 16.8288 17.5464C16.5268 17.938 16.2529 18.3501 16.011 18.7827C15.6539 19.4201 15.3685 20.0869 15.1561 20.7857C15.0358 21.1799 14.9385 21.5805 14.8655 21.9862C14.8015 22.342 14.7567 22.699 14.7248 23.0587C14.6838 23.5386 14.6864 24.0186 14.7068 24.4985C14.7158 24.7174 14.7299 24.9362 14.7491 25.1538C14.7759 25.4597 14.8182 25.763 14.8707 26.0663C14.9398 26.4669 15.0306 26.8624 15.1445 27.254C15.2495 27.6175 15.3736 27.9733 15.5183 28.324C15.7282 28.8346 15.979 29.3248 16.2721 29.7932C16.5537 30.2425 16.8672 30.6661 17.2192 31.0628C17.7554 31.6682 18.3595 32.1955 19.0289 32.6486C19.4039 32.902 19.7955 33.1259 20.2012 33.3256C20.7631 33.6033 21.3467 33.826 21.9495 33.9962C22.4013 34.1242 22.8582 34.2266 23.3215 34.2983C23.6555 34.3495 23.9921 34.3853 24.3287 34.4096C24.7344 34.4391 25.1414 34.4416 25.5471 34.4378C25.7174 34.4365 25.8876 34.4224 26.0578 34.4109C26.2139 34.4007 26.3701 34.3904 26.5249 34.3751C26.6798 34.3597 26.8359 34.3392 26.9895 34.3175C27.2506 34.2804 27.5104 34.233 27.7689 34.1754C28.0441 34.1153 28.3154 34.041 28.5842 33.9578C29.2753 33.7428 29.9357 33.4536 30.568 33.1003C31.1324 32.7855 31.6661 32.4246 32.1793 32.0317C32.6631 31.6618 33.1251 31.2676 33.5705 30.8529C33.8277 30.6123 34.0799 30.3653 34.3346 30.1221C34.3589 30.0991 34.3806 30.0722 34.4037 30.0569C34.4139 30.0582 34.4177 30.0582 34.4203 30.0582C34.4229 30.0594 34.4254 30.0607 34.428 30.062C35.7232 31.3994 37.0184 32.7356 38.3123 34.073C38.3238 34.0845 38.3341 34.0986 38.3443 34.1089C38.3469 34.1332 38.3315 34.1421 38.32 34.1537C37.5073 34.9497 36.6652 35.7125 35.768 36.4126C35.178 36.8721 34.5688 37.3046 33.9288 37.6937C33.2672 38.0956 32.5824 38.4514 31.8683 38.7521C31.2284 39.0222 30.5718 39.241 29.9012 39.4189C29.4366 39.5418 28.9669 39.6416 28.4933 39.721C28.2323 39.7645 27.9712 39.7991 27.7088 39.8311C27.4669 39.8618 27.2237 39.8848 26.9806 39.9091C26.8679 39.9206 26.754 39.9258 26.6401 39.9322C26.4725 39.9424 26.3048 39.9539 26.1384 39.9603C25.8748 39.9718 25.6098 39.9795 25.3462 39.9898C25.3206 39.991 25.2963 39.9962 25.2707 40C25.1965 40 25.1235 40 25.0493 40C25.0275 39.9962 25.0045 39.991 24.9827 39.9898C24.8355 39.9834 24.6871 39.9757 24.5399 39.9706C24.2097 39.9603 23.8808 39.9462 23.5531 39.9168C23.3471 39.8976 23.1397 39.8835 22.9337 39.8592C22.5958 39.8183 22.2579 39.7709 21.9213 39.7146C21.4414 39.634 20.9678 39.5303 20.4969 39.4113C20.1577 39.3255 19.8237 39.2244 19.4909 39.1169C18.8139 38.8981 18.1573 38.6293 17.5161 38.3234C16.9056 38.0316 16.3194 37.6937 15.755 37.3187C15.4607 37.1242 15.1727 36.922 14.895 36.7057C14.5661 36.4484 14.2461 36.1797 13.9376 35.8968C13.2952 35.3068 12.7128 34.663 12.1868 33.9681C11.8797 33.5624 11.5955 33.1413 11.3319 32.7049C11.0234 32.1929 10.7457 31.6656 10.5 31.1217C10.2069 30.4741 9.95988 29.8086 9.75511 29.1264C9.57849 28.5377 9.43515 27.9413 9.3238 27.3372C9.26237 27.0019 9.20989 26.6653 9.16766 26.3261C9.12798 26.01 9.09471 25.6939 9.07295 25.3765C9.05503 25.1243 9.04607 24.8709 9.03328 24.6188C9.032 24.5817 9.03072 24.5446 9.02816 24.5075C9.02688 24.478 9.02176 24.4511 9 24.4294C9 24.0429 9 23.6564 9 23.2698C9.0256 23.2506 9.02688 23.2212 9.02816 23.1931C9.03072 23.1278 9.032 23.0625 9.03584 22.9972C9.05503 22.6658 9.08063 22.3343 9.11647 22.0028C9.15486 21.6496 9.20478 21.2976 9.26493 20.9482C9.33532 20.5399 9.42235 20.1342 9.52346 19.7311C9.62584 19.3228 9.74615 18.9209 9.88181 18.5229C10.07 17.9713 10.2862 17.4312 10.5358 16.9039C10.8238 16.2972 11.1489 15.7124 11.5136 15.1479C11.8285 14.6603 12.1715 14.1932 12.5413 13.7465C13.0533 13.1283 13.61 12.5537 14.2141 12.0238C14.8502 11.4658 15.5272 10.9641 16.2427 10.5136C16.7136 10.2167 17.2038 9.95177 17.7042 9.70731C18.0101 9.55757 18.3198 9.41551 18.636 9.28625C19.0468 9.11859 19.4615 8.965 19.8838 8.83062C20.3599 8.6796 20.8411 8.54393 21.33 8.43515C21.81 8.32892 22.2925 8.23933 22.7801 8.1715C22.9798 8.14334 23.1807 8.12415 23.3804 8.10111C23.6427 8.07167 23.9064 8.04991 24.17 8.03712C24.3146 8.02944 24.4593 8.02432 24.6039 8.01792C24.6372 8.01664 24.6704 8.00896 24.705 8.00384C25.0442 8 25.3859 8 25.7263 8Z" fill="black"/>
</svg>
