<svg width="48" height="48" viewBox="0 0 48 48" fill="none" xmlns="http://www.w3.org/2000/svg">
<circle cx="24" cy="24" r="24" fill="#CD0124"/>
<g clip-path="url(#clip0_2_407)">
<path d="M24.662 40.0002C23.9308 39.9617 23.3745 39.6283 23.0433 38.9679C22.7058 38.3075 22.7495 37.6407 23.1495 37.0252C23.2745 36.8393 23.2808 36.711 23.187 36.5123C21.687 33.3449 20.1933 30.1712 18.6995 26.991C18.5995 26.7859 18.4933 26.7025 18.262 26.6833C16.7995 26.5422 16.0683 24.9265 16.8933 23.6698C16.9995 23.5159 17.0058 23.3941 16.9308 23.2338C15.487 20.1755 14.0433 17.1171 12.6058 14.0588C12.5245 13.8921 12.4308 13.8344 12.2495 13.8216C11.337 13.7638 10.6245 13.0714 10.512 12.1417C10.4058 11.2633 10.9308 10.4042 11.7558 10.1092C12.6058 9.80788 13.5433 10.1605 13.987 10.9748C14.0995 11.1864 14.2308 11.2441 14.4495 11.2441C20.812 11.2441 27.1745 11.2441 33.5433 11.2569C33.762 11.2569 33.8933 11.2056 34.0058 10.9876C34.437 10.1733 35.3558 9.81429 36.2058 10.0964C37.037 10.3721 37.5808 11.2184 37.4933 12.1032C37.4058 13.0265 36.712 13.7382 35.7933 13.8151C35.6058 13.8344 35.5245 13.9113 35.4558 14.0716C34.162 17.1748 32.8558 20.2716 31.5683 23.3813C31.512 23.5095 31.5245 23.7211 31.587 23.8493C32.1495 24.9842 31.5995 26.2922 30.4058 26.6384C30.2808 26.6769 30.137 26.7987 30.0808 26.9205C28.737 30.0942 27.412 33.2744 26.0745 36.4546C25.9933 36.6469 26.0433 36.7559 26.1558 36.9098C26.6245 37.5446 26.6995 38.2434 26.3495 38.9551C26.0058 39.654 25.4183 39.9874 24.662 40.0002ZM28.112 24.1571C28.1433 24.1443 28.1808 24.1314 28.212 24.1186C28.1433 24.0417 28.0933 23.9455 28.012 23.8878C26.8495 23.0543 25.687 22.2336 24.5308 21.4001C24.3745 21.2911 24.2745 21.2911 24.1183 21.4065C22.8995 22.3234 21.6808 23.2338 20.4558 24.1314C20.287 24.2533 20.2433 24.3815 20.2683 24.5867C20.3245 25.0483 20.2245 25.4843 19.9495 25.8562C19.812 26.0421 19.8183 26.1767 19.912 26.3755C21.4183 29.5557 22.912 32.7358 24.4183 35.916C24.462 36.0122 24.5558 36.0891 24.6245 36.1725C24.6995 36.0827 24.7995 35.9993 24.8433 35.8968C26.087 32.9346 27.3245 29.9724 28.5745 27.0167C28.7495 26.6127 28.8995 26.2793 28.4683 25.9139C28.2745 25.7472 28.1808 25.4202 28.1308 25.1445C28.0683 24.8175 28.112 24.4841 28.112 24.1571ZM14.687 12.661C14.8058 12.7636 14.8745 12.8213 14.9495 12.8726C17.9745 15.0269 21.0058 17.1812 24.0245 19.3484C24.2433 19.5022 24.3808 19.4958 24.587 19.342C27.3308 17.2902 30.0808 15.2513 32.8245 13.206C33.037 13.0457 33.2495 12.8855 33.5308 12.661C27.2058 12.661 20.9808 12.661 14.687 12.661ZM23.137 20.4127C20.1245 18.2648 17.1558 16.149 14.1808 14.0331C14.3245 14.5076 14.5245 14.9372 14.7308 15.3668C15.8558 17.7583 16.987 20.1562 18.1058 22.5542C18.2058 22.7722 18.3183 22.8683 18.5683 22.8748C18.7995 22.8812 19.0245 23.0094 19.2558 23.0607C19.3683 23.0863 19.512 23.0735 19.612 23.0286C19.7495 22.9645 19.8683 22.8491 19.9933 22.7529C21.0245 21.9835 22.0558 21.2141 23.137 20.4127ZM33.9245 14.1998C33.9058 14.187 33.8808 14.1742 33.862 14.155C31.087 16.2195 28.312 18.2905 25.5058 20.3742C25.612 20.4576 25.6933 20.5217 25.7745 20.5858C26.7745 21.2975 27.7808 22.0028 28.7683 22.7273C29.0308 22.9196 29.2683 23.0351 29.5933 22.894C29.712 22.8427 29.862 22.8363 29.9933 22.8555C30.2308 22.894 30.337 22.7914 30.4308 22.567C31.2995 20.4768 32.1745 18.3866 33.0495 16.3028C33.337 15.604 33.6308 14.8987 33.9245 14.1998Z" fill="black"/>
</g>
<defs>
<clipPath id="clip0_2_407">
<rect width="27" height="30" fill="white" transform="translate(10.5 10)"/>
</clipPath>
</defs>
</svg>
