<svg width="48" height="48" viewBox="0 0 48 48" fill="none" xmlns="http://www.w3.org/2000/svg">
<circle cx="24" cy="24" r="24" fill="white"/>
<g clip-path="url(#clip0_2_16371)">
<path d="M11 11.3207C14.8109 15.1838 18.5969 19.0245 22.3332 22.813C21.0082 22.813 19.4297 22.813 17.7045 22.813C17.7045 27.6133 17.7045 32.2718 17.7045 37C15.3901 37 13.2224 37 11 37C11 28.3839 11 19.8398 11 11.3207Z" fill="black"/>
<path d="M30.5963 25.2417C30.5963 20.3693 30.5963 15.7133 30.5963 11C32.8734 11 35.0137 11 37.2684 11C37.2684 19.5565 37.2684 28.1328 37.2684 36.5948C33.547 32.8162 29.771 28.978 26.0894 25.2417C27.295 25.2417 28.8338 25.2417 30.5963 25.2417Z" fill="black"/>
</g>
<defs>
<clipPath id="clip0_2_16371">
<rect width="26.2685" height="26" fill="white" transform="translate(11 11)"/>
</clipPath>
</defs>
</svg>
