<svg width="48" height="48" viewBox="0 0 48 48" fill="none" xmlns="http://www.w3.org/2000/svg">
<path d="M24 0C37.2549 0 48 10.7451 48 24C48 37.2549 37.2549 48 24 48C10.7451 48 0 37.2549 0 24C0 10.7451 10.7451 0 24 0Z" fill="white"/>
<path d="M8.58329 21.5366C8.03716 21.5366 7.79443 21.7793 7.79443 22.2648C7.79443 22.2648 7.79443 33.1921 7.79443 34.7698C7.79443 35.316 8.03716 35.498 8.58329 35.498C14.5939 35.5587 21.9379 30.2172 28.0091 26.0286V11.5802C22.0001 15.7081 14.4725 21.5973 8.58329 21.5366Z" fill="url(#paint0_linear_2_6313)"/>
<path d="M40.2111 27.1815C40.7573 27.1815 41 26.9388 41 26.4533C41 26.4533 41 15.526 41 13.9482C41 13.4021 40.7573 13.2201 40.2111 13.2201C34.1398 13.1594 26.8565 18.5009 20.7852 22.6895V37.0772C26.7958 32.9493 34.3234 27.0601 40.2111 27.1815Z" fill="url(#paint1_linear_2_6313)"/>
<path d="M28.0092 26.0285V17.7727C25.5197 19.3504 23.0318 21.0511 20.7244 22.6288V30.8846C23.2745 29.3069 25.7033 27.6063 28.0092 26.0285Z" fill="#194AAD"/>
<defs>
<linearGradient id="paint0_linear_2_6313" x1="19.7509" y1="33.7186" x2="16.2119" y2="13.6618" gradientUnits="userSpaceOnUse">
<stop offset="0.1" stop-color="#194AAD"/>
<stop offset="0.5" stop-color="#248FCB"/>
<stop offset="0.8" stop-color="#2BBFDF"/>
</linearGradient>
<linearGradient id="paint1_linear_2_6313" x1="33.1369" y1="11.8986" x2="28.457" y2="38.4367" gradientUnits="userSpaceOnUse">
<stop offset="0.1" stop-color="#194AAD"/>
<stop offset="0.5" stop-color="#248FCB"/>
<stop offset="0.8" stop-color="#2BBFDF"/>
</linearGradient>
</defs>
</svg>
