<svg width="48" height="48" viewBox="0 0 48 48" fill="none" xmlns="http://www.w3.org/2000/svg">
<path d="M0 24C0 10.7452 10.7452 0 24 0C37.2548 0 48 10.7452 48 24C48 37.2548 37.2548 48 24 48C10.7452 48 0 37.2548 0 24Z" fill="#FF65F7"/>
<g clip-path="url(#clip0_2_10788)">
<path d="M23.2606 0C23.7576 0 24.2521 0 24.7491 0C24.7611 0.0120036 24.7779 0.0120036 24.7947 0.0120036C25.1308 0.0096029 25.4645 0.0288087 25.8006 0.0336102C26.2447 0.0408123 26.6841 0.0912276 27.1234 0.146444C27.69 0.220867 28.2517 0.309694 28.8111 0.427329C29.6081 0.592979 30.398 0.79464 31.1758 1.03711C32.0497 1.3084 32.9043 1.63249 33.7422 2.00221C34.448 2.3143 35.1346 2.66241 35.8092 3.03932C36.3182 3.32501 36.8151 3.6299 37.3001 3.9516C37.9891 4.40773 38.6541 4.89748 39.2903 5.42804C39.756 5.81696 40.2073 6.22268 40.6491 6.63801C41.11 7.07014 41.5349 7.53588 41.9599 8.00162C42.4544 8.54658 42.9153 9.11796 43.3499 9.70854C43.8924 10.4456 44.3942 11.209 44.8503 12.0036C45.0928 12.4262 45.3233 12.8559 45.5393 13.2928C45.9234 14.0611 46.2619 14.8509 46.5596 15.6575C46.8861 16.5434 47.1646 17.4437 47.3831 18.3608C47.5751 19.165 47.7312 19.974 47.8368 20.7951C47.8992 21.2776 47.9569 21.7602 47.9641 22.2475C47.9689 22.55 47.9881 22.8525 47.9857 23.1574C47.9857 23.1886 47.9761 23.2222 47.9977 23.251C47.9977 23.748 47.9977 24.2425 47.9977 24.7395C47.9737 24.7803 47.9857 24.8259 47.9857 24.8691C47.9881 25.3277 47.9761 25.7886 47.9424 26.2447C47.904 26.8017 47.82 27.3539 47.7288 27.906C47.6039 28.6551 47.4479 29.3969 47.2558 30.1315C46.9534 31.2719 46.5716 32.3858 46.1059 33.4709C45.8946 33.9631 45.669 34.448 45.4241 34.9258C45.028 35.6964 44.5958 36.4478 44.1181 37.1728C43.6548 37.8787 43.1602 38.5581 42.6273 39.2111C42.3416 39.5592 42.0487 39.9025 41.739 40.2314C41.4557 40.5339 41.1796 40.846 40.8795 41.134C40.4138 41.5782 39.9432 42.0151 39.4511 42.428C38.7621 43.0066 38.0419 43.5444 37.2953 44.0413C36.6495 44.4711 35.9821 44.8648 35.2979 45.2273C34.4408 45.6834 33.5573 46.0867 32.6499 46.4372C31.9008 46.7277 31.1374 46.9774 30.362 47.1887C29.661 47.3807 28.9527 47.544 28.2373 47.6688C27.7692 47.7504 27.2987 47.8177 26.8281 47.8753C26.1655 47.9569 25.5005 47.9761 24.8331 47.9905C24.3458 48.0001 23.8584 48.0049 23.3711 47.9953C22.8453 47.9881 22.3172 47.9881 21.7914 47.9401C20.9896 47.8633 20.1901 47.7552 19.4003 47.5968C18.4904 47.4143 17.5925 47.1935 16.7091 46.9078C15.8232 46.6221 14.9542 46.2908 14.1043 45.9091C12.7431 45.2969 11.4563 44.5599 10.2319 43.71C9.65816 43.3115 9.1012 42.889 8.57064 42.4352C8.14571 42.0727 7.73279 41.6958 7.32466 41.3165C6.98376 40.9996 6.66447 40.6659 6.34997 40.325C5.63696 39.5544 4.97196 38.7405 4.36938 37.8811C3.84362 37.132 3.35867 36.3566 2.91694 35.5548C2.33357 34.4912 1.83422 33.3893 1.41649 32.2514C1.1044 31.3895 0.840317 30.5132 0.626653 29.625C0.439397 28.8519 0.288152 28.0717 0.18252 27.2843C0.0984949 26.6553 0.0312747 26.0263 0.0192711 25.3901C0.00726748 24.7059 -0.00713684 24.0241 0.00246604 23.3399C0.00726748 22.8981 0.0096682 22.454 0.0408776 22.0123C0.0792891 21.4673 0.146509 20.9247 0.230534 20.3846C0.360173 19.5347 0.533025 18.6945 0.753891 17.8638C1.05638 16.7187 1.4405 15.6023 1.90864 14.5124C2.1271 14.001 2.36237 13.4993 2.61685 13.0047C3.00577 12.2485 3.4331 11.5115 3.90124 10.8009C4.41499 10.0206 4.96956 9.2692 5.57214 8.55379C5.91784 8.14566 6.28035 7.75194 6.64286 7.35823C6.96215 7.01012 7.30546 6.68602 7.64876 6.36673C8.39058 5.67532 9.17562 5.03192 10.0015 4.44374C10.7313 3.92519 11.4827 3.44024 12.2653 3.00331C13.0432 2.56878 13.8426 2.17746 14.6661 1.83175C15.2638 1.58208 15.8688 1.35401 16.4834 1.14995C17.3981 0.847456 18.3296 0.602582 19.273 0.412925C19.9068 0.285686 20.5454 0.184856 21.1888 0.110433C21.657 0.0576174 22.1275 0.0360109 22.598 0.0192058C22.8165 0.0120036 23.0398 0.0312094 23.2606 0Z" fill="#00E3DA"/>
<path d="M24.7948 39.1942C20.9849 39.1413 17.6167 37.905 14.7478 35.3842C12.3255 33.2548 10.7578 30.5996 10.0016 27.4642C9.66788 26.079 9.53824 24.6722 9.61747 23.251C9.81432 19.7099 11.0723 16.589 13.4154 13.9242C15.2304 11.8596 17.4606 10.4071 20.0726 9.54527C21.6883 9.01231 23.3496 8.75543 25.0493 8.79144C28.4631 8.86586 31.5216 9.95579 34.2177 12.0564C34.9787 12.6494 35.0411 13.7465 34.3593 14.4355C33.7591 15.0405 33.1565 15.6407 32.554 16.2433C30.3693 18.4279 28.1846 20.6174 25.9952 22.7996C25.6135 23.1814 25.4334 23.6279 25.4718 24.1609C25.4982 24.5234 25.6111 24.8691 25.8823 25.1091C26.5594 25.7069 27.1715 26.3671 27.8077 27.0033C29.9876 29.1712 32.1578 31.3486 34.3329 33.5261C34.8226 34.0158 34.9547 34.7096 34.6834 35.3266C34.5754 35.5739 34.4145 35.7779 34.2008 35.9436C32.3259 37.408 30.2253 38.3923 27.8942 38.8773C26.8282 39.0933 25.8727 39.1894 24.7948 39.1942Z" fill="#FDFDFD"/>
</g>
<defs>
<clipPath id="clip0_2_10788">
<rect width="47.9976" height="48" fill="white"/>
</clipPath>
</defs>
</svg>
