<svg width="48" height="48" viewBox="0 0 48 48" fill="none" xmlns="http://www.w3.org/2000/svg">
<rect width="48" height="48" rx="24" fill="#ECECEC"/>
<path d="M24 48C37.2548 48 48 37.2548 48 24C48 10.7452 37.2548 0 24 0C10.7452 0 0 10.7452 0 24C0 37.2548 10.7452 48 24 48Z" fill="#ECECEC"/>
<path d="M37 29.5C40 28.0002 41.0091 26.0817 40.5 21.5001C39.5 12.5002 20 6.00022 15.5 8.50012L13.5 22L21.5 33.5C25.8333 32.5 35.0733 30.4633 37 29.5Z" fill="url(#paint0_linear_2_3558)"/>
<path d="M30.5001 22.4999C28.5001 22.9999 24.5001 23.4999 21.5001 23.4999C18.3334 21.1666 13.9001 16.3999 21.5001 15.9999C31.0001 15.4999 36.0001 17.5 35.0001 20.4999C34.7765 21.1707 32.5001 21.9999 30.5001 22.4999Z" fill="url(#paint1_linear_2_3558)"/>
<path d="M18.5001 40C22.4599 39.4343 24.0001 33 24.0001 28.5C24.0001 23 22.5001 17.5 20.5001 12C19.8334 10.6666 18.7001 7.70001 15.5001 8.50001C11.5001 9.50001 8.50008 16.5 9.00008 25C9.47068 33 14.5001 40.5715 18.5001 40Z" fill="url(#paint2_linear_2_3558)"/>
<path d="M21.0002 30.5C21.0002 27.5 19.0002 23.0001 16.0002 23C13.2805 22.9999 13.007 26.5408 13.5002 29.5C14.0002 32.5 16.5002 37.5 18.5002 36.5C20.5002 35.5 21.0002 33.5 21.0002 30.5Z" fill="url(#paint3_linear_2_3558)"/>
<defs>
<linearGradient id="paint0_linear_2_3558" x1="27.0629" y1="7.96045" x2="33.5" y2="33" gradientUnits="userSpaceOnUse">
<stop offset="0.0872481" stop-color="#DF0000"/>
<stop offset="0.240624" stop-color="#FF6F00"/>
<stop offset="0.39096" stop-color="#FFCD00"/>
<stop offset="0.465556" stop-color="#FEEB00"/>
<stop offset="0.545481" stop-color="#F6F701"/>
<stop offset="0.82788" stop-color="#2BFFCC"/>
<stop offset="1" stop-color="#00C0FF"/>
</linearGradient>
<linearGradient id="paint1_linear_2_3558" x1="29.0001" y1="15" x2="26.0001" y2="25" gradientUnits="userSpaceOnUse">
<stop offset="0.0379614" stop-color="#FF9601"/>
<stop offset="0.386433" stop-color="#E7FF0F" stop-opacity="0.46"/>
<stop offset="1" stop-color="#4DFFAA"/>
</linearGradient>
<linearGradient id="paint2_linear_2_3558" x1="16.4728" y1="8.36524" x2="16.4728" y2="40.0304" gradientUnits="userSpaceOnUse">
<stop offset="0.104981" stop-color="#800000"/>
<stop offset="0.298249" stop-color="#FF3200"/>
<stop offset="0.414282" stop-color="#FF7400"/>
<stop offset="0.603374" stop-color="#D1FF26"/>
<stop offset="0.719407" stop-color="#61FF96"/>
<stop offset="0.856928" stop-color="#00A9FF"/>
<stop offset="1" stop-color="#0000FF"/>
</linearGradient>
<linearGradient id="paint3_linear_2_3558" x1="15.0002" y1="23.5" x2="18.5002" y2="35.5" gradientUnits="userSpaceOnUse">
<stop stop-color="#FFB600"/>
<stop offset="0.279321" stop-color="#D4FF22"/>
<stop offset="0.625509" stop-color="#16FCE1"/>
<stop offset="1" stop-color="#007EFF"/>
</linearGradient>
</defs>
</svg>
