<svg width="48" height="48" viewBox="0 0 48 48" fill="none" xmlns="http://www.w3.org/2000/svg">
<path d="M0 24C0 10.7452 10.7452 0 24 0C37.2548 0 48 10.7452 48 24C48 37.2548 37.2548 48 24 48C10.7452 48 0 37.2548 0 24Z" fill="#E1AA4C"/>
<path d="M35.4712 11.1289C35.4634 11.7481 35.0166 12.0459 34.468 11.8814C33.3786 11.56 32.297 11.223 31.2154 10.8938C28.8876 10.1806 26.5519 9.46734 24.2241 8.75411C24.036 8.69925 23.8714 8.71492 23.6912 8.76979C20.415 9.77301 17.131 10.7762 13.8549 11.7716C13.6981 11.8186 13.5257 11.8735 13.3611 11.8735C13.0319 11.8657 12.7498 11.5835 12.7027 11.2543C12.6557 10.9173 12.8595 10.6038 13.2279 10.4862C14.2468 10.1649 15.2735 9.85923 16.2924 9.54572C18.6594 8.82465 21.0342 8.10358 23.4012 7.37468C23.7774 7.25711 24.1458 7.24927 24.5141 7.36684C27.9549 8.41709 31.3956 9.47518 34.8364 10.5176C35.2126 10.6195 35.4634 10.8233 35.4712 11.1289Z" fill="#FEFEFE"/>
<path d="M39.9309 16.1058C39.9152 14.8753 39.7584 13.6605 39.5703 12.4456C39.5155 12.0773 39.3117 11.803 38.9276 11.7481C38.5593 11.6932 38.3085 11.8813 38.1517 12.2105C37.4933 13.5899 36.835 14.9694 36.1766 16.341C34.9539 18.8961 33.7156 21.4433 32.4929 23.9984C32.391 24.2022 32.2891 24.3119 32.0305 24.3119C26.9752 24.3041 21.9198 24.2884 16.8724 24.3198C16.214 24.3276 15.7751 24.2022 15.587 23.536C15.54 23.3636 15.4224 23.2146 15.3362 23.0501C13.4865 19.4369 11.6368 15.8237 9.79494 12.2027C9.63035 11.8813 9.37955 11.6932 9.01118 11.7481C8.62713 11.8108 8.43119 12.0773 8.37632 12.4456C8.15687 13.927 7.9766 15.4005 8.00011 16.3175C8.01579 18.1593 8.102 19.4212 8.25876 20.6752C8.78388 24.7587 10.0849 28.5678 12.2952 32.0556C14.9286 36.2095 18.5105 39.3368 22.8212 41.6568C24.0909 42.3386 23.7852 42.37 25.0784 41.6724C30.2513 38.8822 34.3191 34.9947 36.9682 29.6964C39.1079 25.4249 40.0092 20.8633 39.9309 16.1058ZM12.1149 28.7951C9.99872 24.4295 9.22279 19.8052 9.48928 14.9224C9.78711 15.2751 20.611 36.2958 22.1628 39.5954C17.7659 36.9698 14.3565 33.4193 12.1149 28.7951ZM24.1066 39.713C24.0831 39.76 24.0517 39.7992 23.9733 39.9011C23.4012 38.796 22.8604 37.7379 22.3196 36.6876C20.5091 33.1607 18.6986 29.6259 16.8881 26.0989C16.6921 25.7227 16.6921 25.7227 17.131 25.7227C21.8101 25.7227 26.4814 25.7227 31.1605 25.7227C31.3878 25.7227 31.6229 25.66 31.4191 26.0519C28.9738 30.5899 26.5441 35.1515 24.1066 39.713ZM33.6607 32.4396C31.7405 35.1515 27.1006 39.3054 25.8387 39.47C30.1494 31.3972 34.6091 23.4184 38.3947 15.0869C38.7552 21.4041 37.3444 27.2354 33.6607 32.4396Z" fill="#FEFEFE"/>
</svg>
