<svg width="48" height="48" viewBox="0 0 48 48" fill="none" xmlns="http://www.w3.org/2000/svg">
<circle cx="24" cy="24" r="24" fill="white"/>
<path d="M29.6668 19.1364C29.4154 19.1364 29.1788 18.9826 29.0854 18.7333L24.9811 7.78852L14.8109 18.9339C14.5798 19.1872 14.1871 19.2052 13.9338 18.9741C13.6806 18.7431 13.6626 18.3504 13.8936 18.0971L24.7476 6.20225C24.8932 6.04267 25.1113 5.97042 25.3238 6.01118C25.536 6.0522 25.7117 6.2004 25.7874 6.40285L30.248 18.2975C30.3684 18.6185 30.2059 18.9763 29.8846 19.0967C29.8129 19.1237 29.7393 19.1364 29.6668 19.1364Z" fill="black"/>
<path d="M23.1246 42.9999C23.0855 42.9999 23.046 42.9962 23.0069 42.9885C22.7949 42.9477 22.6192 42.7993 22.5435 42.5971L18.0827 30.7022C17.9623 30.3812 18.125 30.0234 18.446 29.903C18.767 29.7828 19.1248 29.9453 19.2452 30.2663L23.3501 41.2125L28.9854 35.0463C29.2167 34.7933 29.6092 34.7756 29.8625 35.0069C30.1155 35.2382 30.1332 35.6309 29.9019 35.8839L23.5827 42.7979C23.4642 42.9279 23.2972 42.9999 23.1246 42.9999Z" fill="black"/>
<path d="M33.5961 29.9887L28.9871 34.9689L29.8982 35.8121L34.5072 30.8319L33.5961 29.9887Z" fill="black"/>
<path d="M41.7845 31.031H26.4699C26.2111 31.031 25.9795 30.8704 25.8887 30.6282L21.5796 19.1361H7.51649L11.5113 29.7896H18.7384C19.0813 29.7896 19.3592 30.0674 19.3592 30.4104C19.3592 30.7531 19.0813 31.0313 18.7384 31.0313H11.0812C10.8224 31.0313 10.5908 30.8706 10.5001 30.6285L6.03953 18.7333C5.96807 18.5425 5.99454 18.3292 6.11045 18.1617C6.22636 17.9945 6.41691 17.8944 6.62068 17.8944H22.0096C22.2684 17.8944 22.5 18.0548 22.5908 18.2972L26.8999 29.7893H40.8884L36.8936 19.1359H29.5921C29.2494 19.1359 28.9713 18.858 28.9713 18.515C28.9713 18.1723 29.2492 17.8942 29.5921 17.8942H37.3236C37.5825 17.8942 37.814 18.0545 37.9048 18.297L42.3653 30.1918C42.4368 30.3824 42.4103 30.5959 42.2944 30.7632C42.1785 30.9312 41.988 31.031 41.7845 31.031Z" fill="black"/>
<path d="M29.1338 18.0948L18.2063 29.9899L19.1205 30.8297L30.048 18.9346L29.1338 18.0948Z" fill="black"/>
</svg>
