<svg width="49" height="48" viewBox="0 0 49 48" fill="none" xmlns="http://www.w3.org/2000/svg">
<g clip-path="url(#clip0_2_13573)">
<path d="M24.8359 47.9999C24.3054 47.9999 23.775 47.9999 23.2284 47.9999C22.9712 47.9517 22.714 47.8713 22.4568 47.8553C11.992 47.2766 2.81313 39.448 0.659076 29.1761C0.35365 27.7293 0.22505 26.2344 0 24.7555C0 24.225 0 23.6945 0 23.148C0.0643001 22.521 0.1286 21.878 0.208975 21.2511C1.68788 8.21426 13.5512 -1.27 26.6202 0.144603C40.0107 1.59135 49.5914 13.7762 47.8553 27.1185C46.5533 37.0689 39.0141 45.2672 29.1601 47.373C27.7455 47.6784 26.2827 47.791 24.8359 47.9999Z" fill="white"/>
<g clip-path="url(#clip1_2_13573)">
<path d="M9 32.6912C9 27.5641 9 22.437 9 17.3099C9.06527 17.3015 9.1116 17.3478 9.15792 17.3794C9.55798 17.6447 9.96225 17.9037 10.3623 18.169C11.3182 18.8007 12.2805 19.4239 13.2385 20.0556C13.3944 20.1588 13.5502 20.2598 13.7039 20.3609C14.6093 20.9505 15.5084 21.5463 16.4138 22.1338C17.1697 22.6349 17.9298 23.1297 18.6899 23.6224C19.4142 24.0899 20.1322 24.5678 20.8544 25.0374C21.465 25.4396 22.0799 25.8375 22.6905 26.2418C22.7326 26.2692 22.7852 26.2902 22.8021 26.3471C22.8189 26.5997 22.8253 26.8503 22.8295 27.103C22.84 27.6946 22.8337 28.2884 22.8316 28.8801C22.84 29.6528 22.8168 30.4256 22.8484 31.1983C22.8632 31.531 22.8526 31.8637 22.8505 32.1964C22.8568 33.0133 22.8526 33.8282 22.8547 34.6452C22.8547 34.7989 22.84 34.9526 22.8589 35.1063C22.8779 35.3126 22.8737 35.519 22.8758 35.7253C22.88 36.9002 22.861 38.073 22.8842 39.248C22.9074 40.4503 22.8884 41.6525 22.8968 42.8548C22.8968 42.8822 22.8968 42.9117 22.8905 42.939C22.8589 43.0254 22.8063 42.9769 22.7684 42.9496C22.6631 42.8759 22.5578 42.798 22.4547 42.7201C21.6588 42.1221 20.8586 41.5304 20.0606 40.9366C18.9341 40.0965 17.8055 39.2585 16.677 38.4205C15.8621 37.8141 15.0451 37.2077 14.2303 36.6012C13.3754 35.9654 12.5205 35.3295 11.6657 34.6936C10.7982 34.0493 9.93277 33.405 9.06738 32.7607C9.04001 32.7396 9.01684 32.7186 9 32.6912Z" fill="#241F20"/>
<path d="M22.8631 42.9999C22.8652 42.9935 22.8673 42.9872 22.8694 42.9788C22.8652 41.747 22.8652 40.5153 22.8526 39.2835C22.842 38.2854 22.8462 37.2895 22.8399 36.2915C22.8378 35.9272 22.8357 35.5629 22.8336 35.1987C22.8336 35.1713 22.8231 35.1439 22.842 35.1186C22.8231 35.0218 22.8315 34.9249 22.8441 34.826C22.8462 34.8049 22.8462 34.7796 22.8715 34.7754C22.8989 34.7712 22.9031 34.8007 22.9073 34.8175C22.9178 34.8954 22.9473 34.9165 23.0357 34.9102C23.1473 34.9039 23.2589 34.8891 23.3726 34.8976C23.4905 34.906 23.6106 34.9039 23.7285 34.8997C23.878 34.8933 23.8885 34.9102 23.8906 35.0576C23.9138 36.6157 23.899 38.176 23.9011 39.7341C23.9032 40.5953 23.9011 41.4586 23.9011 42.3198C23.9011 42.3724 23.9096 42.425 23.8759 42.4735C23.6064 42.6356 23.32 42.7619 23.0442 42.9135C22.9957 42.9388 22.941 42.9556 22.9031 42.9978C22.8926 42.9999 22.8778 42.9999 22.8631 42.9999Z" fill="#FECF00"/>
<path d="M13.6933 20.3735C13.1712 20.0324 12.649 19.6913 12.1268 19.3502C11.0845 18.6701 10.0423 17.9899 9 17.3098C9 17.0003 9 16.6929 9 16.3834C9.00632 16.3813 9.01053 16.3834 9.01474 16.3876C9.12844 16.4192 9.22109 16.4908 9.31794 16.5518C10.0486 17.0024 10.7792 17.4509 11.5099 17.9036C11.5393 17.9205 11.5772 17.9289 11.5857 17.971C11.7667 18.0847 11.9478 18.1963 12.1289 18.31C12.2594 18.3353 12.3584 18.4258 12.4658 18.4932C12.9606 18.7964 13.4575 19.0996 13.9502 19.407C13.986 19.4281 14.0281 19.4428 14.0408 19.4891C14.0429 19.5839 13.9481 19.6449 13.9586 19.7439C13.9734 19.8829 13.9018 20.0155 13.9313 20.1587C13.9481 20.2429 13.8597 20.3335 13.7734 20.3503C13.746 20.3545 13.7207 20.3714 13.6933 20.3735Z" fill="#0083CE"/>
<path d="M39.3098 18.2404C39.3119 18.2825 39.3161 18.3246 39.3161 18.3667C39.3161 23.696 39.3161 29.0252 39.3183 34.3544C39.3183 34.4365 39.2972 34.4829 39.2193 34.5208C37.6338 35.3398 36.0483 36.1631 34.4649 36.9864C32.7341 37.8855 31.0054 38.7846 29.2746 39.6837C27.9629 40.3659 26.6511 41.046 25.3393 41.7261C24.8782 41.9661 24.4149 42.2061 23.9538 42.4462C23.9349 42.4567 23.9159 42.4609 23.897 42.4693C23.878 42.4293 23.8885 42.3872 23.8885 42.3451C23.8885 40.17 23.8885 37.9971 23.8885 35.822C23.8885 35.5378 23.9012 35.2535 23.8801 34.9714C23.8549 34.6239 23.8717 34.2786 23.8654 33.9312C23.8738 33.4259 23.8717 32.9205 23.8675 32.4173C23.8612 31.7435 23.8654 31.0718 23.8654 30.398C23.8654 29.9011 23.8612 29.4021 23.8675 28.9052C23.8612 28.5872 23.8654 28.2672 23.8654 27.9492C23.8654 27.2965 23.8654 26.6459 23.8654 25.9932C23.8654 25.9363 23.8612 25.8816 23.8738 25.8247C23.8886 25.7615 23.9475 25.7447 23.9959 25.7194C24.6044 25.4247 25.2087 25.1257 25.8152 24.8288C26.0784 24.7003 26.3416 24.5698 26.6048 24.4392C26.6405 24.4266 26.6763 24.4119 26.71 24.3929C27.3164 24.0813 27.9355 23.7928 28.5461 23.4875C28.9083 23.3064 29.2746 23.1317 29.6368 22.9485C30.6854 22.4453 31.7276 21.9273 32.772 21.4135C33.1742 21.224 33.57 21.0219 33.9701 20.8282C34.6249 20.5081 35.2797 20.1902 35.9325 19.8659C35.9893 19.8385 36.0441 19.8091 36.0988 19.7754C36.2252 19.7206 36.3494 19.668 36.4715 19.6069C37.3769 19.1521 38.2907 18.7163 39.1961 18.2657C39.2277 18.2509 39.2635 18.2215 39.3098 18.2404Z" fill="#241F20"/>
<path d="M19.4963 22.8474C20.2354 22.5168 20.9745 22.1863 21.7156 21.8557C22.2631 21.6114 22.8126 21.3672 23.3601 21.1208C23.4274 21.0913 23.4801 21.0892 23.5454 21.125C24.6971 21.7357 25.8489 22.3442 27.0006 22.9548C26.9796 23.0159 26.9206 23.0306 26.8722 23.0538C26.5963 23.178 26.3205 23.3064 26.0447 23.4285C25.0866 23.8644 24.1286 24.2981 23.1706 24.734C23.0505 24.7887 22.9326 24.854 22.8042 24.8919C22.76 24.8961 22.7221 24.873 22.6884 24.8519C22.2883 24.6014 21.882 24.3592 21.4819 24.1065C20.846 23.7149 20.2101 23.3254 19.5763 22.9316C19.5427 22.9127 19.4963 22.9021 19.4963 22.8474Z" fill="#241F20"/>
<path d="M27.8535 22.5697C27.5271 22.3802 27.186 22.2202 26.8533 22.0475C26.0216 21.618 25.1878 21.1906 24.3561 20.7631C24.335 20.7526 24.314 20.74 24.2782 20.721C24.4593 20.6389 24.6256 20.5631 24.792 20.4894C25.7479 20.0641 26.7059 19.6387 27.6618 19.2113C27.7313 19.1797 27.7861 19.1797 27.8556 19.2155C29.001 19.7988 30.1485 20.3778 31.2961 20.9589C31.315 20.9674 31.3297 20.9821 31.3466 20.9926C31.3466 21.0411 31.3045 21.0432 31.275 21.0579C30.8981 21.2348 30.5191 21.4032 30.1401 21.5759C29.7611 21.7464 29.3821 21.9191 29.0031 22.0896C28.9441 22.117 28.8915 22.1612 28.8241 22.1739C28.5546 22.2918 28.2851 22.4118 28.0156 22.536C27.9672 22.5592 27.9166 22.6013 27.8535 22.5697Z" fill="#241F20"/>
<path d="M15.8684 20.6115C16.1927 20.4641 16.5296 20.3483 16.8601 20.2198C17.7845 19.8598 18.7109 19.5039 19.6353 19.146C19.6879 19.1249 19.7322 19.1102 19.7932 19.1418C20.7428 19.6471 21.6946 20.1503 22.6463 20.6536C22.6526 20.6557 22.6547 20.662 22.6694 20.6746C22.4336 20.7757 22.2041 20.8726 21.9746 20.9715C20.9155 21.4263 19.8564 21.8811 18.7994 22.3359C18.7741 22.3465 18.7488 22.3612 18.7257 22.3738C18.6562 22.3822 18.6099 22.3317 18.5572 22.3001C18.0035 21.9632 17.456 21.62 16.9022 21.2831C16.5927 21.0873 16.2769 20.8999 15.9653 20.7041C15.9253 20.6788 15.8789 20.6641 15.8684 20.6115Z" fill="#241F20"/>
<path d="M32.2077 20.5947C31.9635 20.4536 31.7045 20.3399 31.4518 20.2136C30.5191 19.7525 29.5821 19.2955 28.6472 18.8386C28.6325 18.8302 28.6178 18.8218 28.5862 18.8028C28.7273 18.7376 28.8578 18.6786 28.9883 18.6197C29.8811 18.2238 30.776 17.828 31.6687 17.4279C31.734 17.3984 31.7824 17.4047 31.8414 17.4342C32.9826 18.0132 34.1238 18.5902 35.265 19.1671C35.2797 19.1755 35.2966 19.1818 35.3134 19.1903C35.2924 19.2471 35.2397 19.2619 35.1934 19.2829C34.5449 19.5714 33.9006 19.8683 33.2521 20.1609C32.9784 20.2852 32.7067 20.4136 32.4288 20.5315C32.3551 20.5505 32.2983 20.6326 32.2077 20.5947Z" fill="#241F20"/>
<path d="M14.0303 19.4912C13.7376 19.308 13.4449 19.1269 13.1501 18.9437C12.809 18.7311 12.4679 18.5205 12.1268 18.3078C12.7732 18.0846 13.4197 17.8615 14.0661 17.6362C14.6135 17.4467 15.161 17.2572 15.7084 17.0676C15.7632 17.0487 15.8074 17.0382 15.8663 17.0698C16.8665 17.6004 17.8666 18.1289 18.8689 18.6574C18.8815 18.6637 18.89 18.6742 18.9089 18.689C18.5194 18.8342 18.1383 18.9753 17.7572 19.1185C16.8707 19.4491 15.9843 19.7775 15.0978 20.1081C15.0894 20.1123 15.081 20.1208 15.0725 20.125C15.0389 20.1376 15.0115 20.1186 14.9862 20.1018C14.6935 19.9186 14.3988 19.7439 14.1061 19.5586C14.0787 19.5417 14.045 19.527 14.0303 19.4912Z" fill="#241F20"/>
<path d="M36.1662 18.8005C35.7493 18.5984 35.3324 18.3942 34.9155 18.1941C34.1385 17.8215 33.3594 17.4488 32.5825 17.0782C32.5677 17.0719 32.5551 17.0592 32.5341 17.0466C33.0899 16.7981 33.6374 16.5539 34.1848 16.3117C34.6186 16.118 35.0523 15.9264 35.4861 15.7327C35.545 15.7053 35.5914 15.7053 35.6524 15.7306C36.8463 16.2675 38.0402 16.8024 39.234 17.3393C39.2593 17.3498 39.2803 17.3688 39.3035 17.3835C39.2846 17.4361 39.2319 17.4488 39.1898 17.4677C38.7076 17.6846 38.2276 17.9015 37.7454 18.1204C37.3243 18.3121 36.9052 18.5016 36.4841 18.6953C36.4083 18.7311 36.3283 18.7605 36.2546 18.7984C36.2273 18.809 36.1978 18.8279 36.1662 18.8005Z" fill="#241F20"/>
<path d="M23.4549 16.9959C23.2169 17.0865 22.9832 17.1749 22.7495 17.2612C21.7704 17.6255 20.7913 17.9898 19.8143 18.354C19.7554 18.3772 19.7069 18.3772 19.648 18.3456C18.6478 17.8297 17.6456 17.316 16.6454 16.8022C16.6307 16.7938 16.6159 16.7854 16.5844 16.7685C16.7886 16.6969 16.9781 16.6317 17.1655 16.5664C18.2288 16.1979 19.29 15.8315 20.3533 15.4631C20.3933 15.4483 20.4312 15.4483 20.4713 15.4694C21.4588 15.9726 22.4463 16.4716 23.4338 16.9728C23.4401 16.977 23.4443 16.9833 23.4549 16.9959Z" fill="#241F20"/>
<path d="M27.0385 18.8004C26.7437 18.9268 26.47 19.0447 26.1942 19.1626C25.3204 19.5374 24.4466 19.9122 23.5749 20.287C23.5243 20.3101 23.4822 20.3165 23.4275 20.2891C22.4821 19.8006 21.5325 19.3142 20.5871 18.8257C20.5744 18.8194 20.5597 18.8173 20.5597 18.7878C20.785 18.6994 21.0145 18.6109 21.244 18.5225C22.2062 18.1477 23.1706 17.775 24.1328 17.4002C24.1771 17.3834 24.2171 17.3644 24.2697 17.3918C25.1856 17.8613 26.1015 18.3267 27.0385 18.8004Z" fill="#241F20"/>
<path d="M22.6 13.6588C23.0358 13.5093 23.4696 13.3577 23.9033 13.2082C24.6403 12.9535 25.3772 12.7008 26.1121 12.4439C26.2132 12.4081 26.2911 12.4102 26.3879 12.4586C27.2891 12.9198 28.1945 13.3767 29.0978 13.8357C29.1168 13.8441 29.1336 13.8546 29.1694 13.8757C29.0073 13.9368 28.8599 13.9936 28.7125 14.0484C27.7229 14.4168 26.7353 14.7832 25.7457 15.1517C25.6868 15.1748 25.6404 15.1748 25.5794 15.1454C24.6087 14.6653 23.6359 14.1894 22.6631 13.7115C22.6421 13.6988 22.6084 13.6967 22.6 13.6588Z" fill="#241F20"/>
<path d="M19.8795 15.1832C19.4247 15.3348 18.9762 15.4843 18.5298 15.6338C17.7192 15.9054 16.9085 16.1792 16.0979 16.4529C16.0389 16.4718 15.9926 16.4697 15.9379 16.4424C15.0809 16.0002 14.2218 15.5601 13.3648 15.1179C13.3501 15.1095 13.3375 15.099 13.3164 15.0842C14.3039 14.7853 15.2851 14.4905 16.2642 14.1936C16.5927 14.0946 16.9191 13.9957 17.2475 13.8967C17.2917 13.8841 17.3296 13.8756 17.3781 13.8988C18.2056 14.322 19.0352 14.741 19.8627 15.1622C19.8669 15.1664 19.869 15.1685 19.8795 15.1832Z" fill="#241F20"/>
<path d="M11.5836 17.971C11.3077 17.8194 11.0446 17.6467 10.7771 17.4825C10.2065 17.1309 9.63381 16.7792 9.0632 16.4255C9.04635 16.415 9.03162 16.4002 9.01477 16.3855C9.76015 16.1602 10.5055 15.9328 11.2509 15.7075C11.6531 15.5854 12.0531 15.4654 12.4553 15.3432C12.5058 15.3285 12.5479 15.3117 12.6027 15.3411C13.4639 15.798 14.325 16.2528 15.1862 16.7098C15.1947 16.714 15.2031 16.7203 15.2304 16.7392C14.0071 17.154 12.7964 17.5625 11.5836 17.971Z" fill="#241F20"/>
<path d="M24.5013 16.6781C24.7161 16.5939 24.9204 16.516 25.1246 16.436C26.0321 16.0844 26.9417 15.7306 27.8492 15.379C27.8934 15.3621 27.9334 15.3432 27.9861 15.3706C28.8199 15.7959 29.6558 16.2191 30.4917 16.6423C30.5086 16.6507 30.5338 16.6529 30.5444 16.6886C30.3106 16.7897 30.0769 16.8908 29.8432 16.9918C29.0347 17.3393 28.224 17.6867 27.4155 18.0362C27.367 18.0573 27.3249 18.072 27.2681 18.0446C26.3669 17.5983 25.4615 17.1561 24.5603 16.7118C24.5456 16.7055 24.5308 16.695 24.5013 16.6781Z" fill="#241F20"/>
<path d="M35.7472 7.33568C35.4777 7.43675 35.2229 7.5315 34.9681 7.62625C34.1996 7.91261 33.429 8.19897 32.6604 8.48533C32.612 8.50428 32.572 8.50849 32.5236 8.48533C31.5676 8.0242 30.6096 7.56519 29.6515 7.10617C29.6389 7.09985 29.6305 7.09143 29.6052 7.07459C29.8347 6.99457 30.0495 6.92088 30.2643 6.84508C31.0623 6.56925 31.8624 6.29342 32.6604 6.01548C32.7278 5.99232 32.7826 5.99442 32.8478 6.02601C33.7911 6.45133 34.7344 6.87245 35.6777 7.29567C35.6967 7.3062 35.7135 7.31673 35.7472 7.33568Z" fill="#241F20"/>
<path d="M17.0728 12.5787C17.3739 12.4882 17.6581 12.4018 17.9424 12.3176C18.9383 12.0165 19.9342 11.7175 20.9302 11.4143C20.9933 11.3954 21.0418 11.4038 21.0986 11.4312C21.8545 11.8165 22.6125 12.1997 23.3769 12.585C23.3074 12.6335 23.2337 12.6503 23.1621 12.6735C22.0356 13.0525 20.9091 13.4273 19.7847 13.8084C19.6942 13.8378 19.6226 13.8357 19.5384 13.7936C18.7256 13.3894 17.9108 12.9914 17.0728 12.5787Z" fill="#241F20"/>
<path d="M35.8083 12.3325C34.8018 12.7641 33.8016 13.1936 32.8015 13.6253C32.7593 13.6442 32.7236 13.6421 32.6835 13.6232C31.8308 13.2126 30.978 12.8041 30.1231 12.3935C30.1105 12.3872 30.1 12.3809 30.0831 12.3725C30.1042 12.3367 30.14 12.3346 30.1716 12.3219C31.1549 11.9408 32.1382 11.5576 33.1194 11.1765C33.1636 11.1596 33.2015 11.1512 33.2478 11.1723C34.088 11.5513 34.9302 11.9282 35.7704 12.3051C35.7851 12.3093 35.7935 12.3198 35.8083 12.3325Z" fill="#241F20"/>
<path d="M28.9526 9.30433C28.5525 9.43909 28.163 9.57174 27.7734 9.70228C27.1312 9.91705 26.489 10.1318 25.8468 10.3487C25.8047 10.3634 25.771 10.3676 25.7289 10.3487C24.9477 9.9739 24.1666 9.59911 23.3875 9.22432C23.3812 9.22221 23.3791 9.21379 23.3685 9.19905C23.6338 9.11904 23.8949 9.03903 24.156 8.95901C24.9309 8.7253 25.7079 8.49158 26.4827 8.25575C26.5396 8.23891 26.588 8.2347 26.6427 8.25996C27.3839 8.59475 28.1272 8.92743 28.8684 9.26011C28.8915 9.27275 28.9168 9.28538 28.9526 9.30433Z" fill="#241F20"/>
<path d="M32.2078 20.5944C32.2773 20.567 32.3467 20.5396 32.4183 20.5123C32.4646 20.5375 32.4394 20.5775 32.4289 20.6049C32.391 20.6976 32.4225 20.7439 32.5173 20.7607C32.551 20.767 32.572 20.8007 32.5699 20.8323C32.5678 20.8892 32.5489 20.9439 32.5552 21.0071C32.5615 21.0534 32.5699 21.1524 32.6163 21.1671C32.7089 21.1945 32.7426 21.2619 32.7468 21.3482C32.7489 21.3861 32.7847 21.405 32.7784 21.4429C32.1572 21.7482 31.5361 22.0556 30.9149 22.361C30.5233 22.5526 30.1337 22.7442 29.7421 22.9337C29.7105 22.9484 29.6789 22.961 29.6474 22.9758C29.5842 22.9695 29.5337 23.001 29.4789 23.0263C29.4389 23.0453 29.3884 23.06 29.3631 23.0179C29.3041 22.921 29.1883 22.86 29.1883 22.7294C29.1883 22.7189 29.1904 22.7021 29.182 22.7C29.0746 22.6515 29.0536 22.5336 28.982 22.4557C28.9041 22.3694 28.8409 22.2704 28.8177 22.1525C29.66 21.7672 30.5022 21.3798 31.3445 20.9944C31.6329 20.8576 31.9214 20.7249 32.2078 20.5944Z" fill="#FE4D4F"/>
<path d="M28.8177 22.1485C28.8598 22.2264 28.8977 22.3191 28.9567 22.3738C29.0556 22.4622 29.0599 22.6328 29.2136 22.6665C29.2178 22.6686 29.2262 22.6791 29.2262 22.6812C29.1609 22.8223 29.3125 22.8644 29.3504 22.9591C29.3757 23.0202 29.4157 23.0328 29.4747 22.9992C29.5273 22.9697 29.582 22.9276 29.6473 22.9718C29.3673 23.1108 29.0872 23.2539 28.8072 23.3908C28.106 23.7361 27.4048 24.0793 26.7058 24.4225C26.6742 24.4373 26.6468 24.4625 26.611 24.4625C26.5752 24.2836 26.4384 24.1678 26.3478 24.0246C26.2426 23.8582 26.1457 23.6856 26.032 23.5255C26.0046 23.4855 26.013 23.4476 26.0446 23.4118C26.3352 23.2771 26.6237 23.1444 26.9142 23.0097C26.9458 22.9949 26.9753 22.976 27.0048 22.9591C27.2933 22.8391 27.5775 22.7107 27.8576 22.5717C28.1292 22.4707 28.384 22.3359 28.6493 22.2222C28.7019 22.1948 28.7609 22.1717 28.8177 22.1485Z" fill="#FE595A"/>
<path d="M32.7783 21.439C32.7572 21.4179 32.7193 21.42 32.7235 21.3632C32.7278 21.2789 32.7046 21.1863 32.5825 21.1905C32.5614 21.1905 32.5488 21.18 32.553 21.1589C32.5677 21.0894 32.5298 21.0579 32.473 21.0536C32.4582 21.0052 32.6477 21.0284 32.5025 20.9421C32.4835 20.9294 32.4814 20.8978 32.5235 20.8936C32.5804 20.8894 32.5446 20.8473 32.553 20.822C32.5298 20.8157 32.5361 20.7378 32.4856 20.7989C32.4646 20.8241 32.4477 20.782 32.4456 20.7715C32.4351 20.7125 32.4014 20.6767 32.3319 20.662C32.4519 20.6536 32.393 20.5588 32.4203 20.5104C32.8836 20.2977 33.3468 20.0872 33.81 19.8745C34.3111 19.645 34.8123 19.4176 35.3155 19.1881C35.4166 19.1439 35.5155 19.0997 35.6166 19.0576C35.6482 19.1207 35.7029 19.127 35.7661 19.1249C35.8756 19.1249 35.8945 19.146 35.8882 19.2534C35.884 19.3165 35.8798 19.3776 35.8798 19.4408C35.8798 19.5018 35.8798 19.5629 35.8777 19.624C35.8735 19.6387 35.8987 19.624 35.884 19.624C35.8777 19.624 35.8777 19.6219 35.8777 19.6155C35.8819 19.5882 35.8945 19.5545 35.9177 19.5945C35.9556 19.664 36.0061 19.7061 36.0819 19.725C36.1114 19.7334 36.1198 19.7629 36.1051 19.7945C36.0419 19.8598 35.9556 19.8808 35.8777 19.9187C34.8649 20.4178 33.8521 20.9147 32.8372 21.4116C32.8183 21.4242 32.7972 21.4305 32.7783 21.439Z" fill="#FE3D43"/>
<path d="M14.0302 19.4911C14.3355 19.6785 14.643 19.8638 14.9483 20.0512C14.9904 20.0765 15.0325 20.0997 15.0746 20.1249C15.3399 20.2871 15.6052 20.4492 15.8705 20.6113C16.1779 20.8008 16.4853 20.9903 16.7907 21.1819C16.8307 21.2072 16.8707 21.2367 16.9086 21.264C16.9549 21.3651 16.9633 21.4557 16.8538 21.5294C16.8159 21.5525 16.8054 21.6052 16.7822 21.6431C16.7549 21.6915 16.7317 21.742 16.6748 21.7652C16.6475 21.7757 16.6285 21.8052 16.6306 21.8326C16.6327 21.942 16.5401 22.001 16.5043 22.0915C16.4874 22.1315 16.4474 22.14 16.4095 22.1463C16.0347 21.9041 15.6621 21.662 15.2873 21.4178C14.7798 21.0872 14.2724 20.7545 13.7649 20.4218C13.7418 20.4071 13.7186 20.3902 13.6954 20.3734C13.7102 20.3544 13.7228 20.3334 13.7481 20.3271C13.8849 20.2934 13.9355 20.2113 13.8976 20.0765C13.8891 20.0449 13.8891 20.0197 13.8997 19.9881C13.9165 19.9375 13.9397 19.8807 13.9313 19.8301C13.9102 19.6975 13.9734 19.5964 14.0302 19.4911Z" fill="#0098DB"/>
<path d="M36.1032 19.7987C36.0969 19.7607 36.0842 19.7397 36.0358 19.7376C35.9558 19.7334 35.9137 19.6786 35.901 19.6028C35.8737 19.6155 35.8989 19.6492 35.8758 19.666C35.8316 19.5333 35.84 19.3986 35.861 19.268C35.88 19.1564 35.8316 19.1459 35.7473 19.148C35.6842 19.1501 35.5978 19.1796 35.6147 19.0596C35.8 18.9733 35.9832 18.8869 36.1684 18.8006C36.8317 18.4995 37.4971 18.2005 38.1603 17.8994C38.5414 17.7268 38.9225 17.552 39.3036 17.3793C39.3331 17.5162 39.312 17.6552 39.3163 17.792C39.3184 17.9415 39.3141 18.091 39.312 18.2384C38.2656 18.7522 37.2212 19.2638 36.1748 19.7776C36.1516 19.7881 36.1263 19.7923 36.1032 19.7987Z" fill="#FE2835"/>
<path d="M19.4963 22.8475C19.8858 23.0896 20.2774 23.3318 20.667 23.576C20.9428 23.7466 21.2186 23.9171 21.4924 24.0898C21.4629 24.1971 21.4439 24.3066 21.4166 24.4119C21.3892 24.513 21.2987 24.5888 21.2587 24.6898C21.2292 24.7614 21.1976 24.8288 21.1386 24.8814C21.1176 24.9004 21.107 24.9004 21.0797 24.8962C20.9997 24.8814 20.9512 24.9214 20.9323 24.9993C20.926 25.0267 20.9218 25.0225 20.8796 25.0204C20.867 25.0204 20.8817 25.0688 20.8438 25.052C20.5659 24.873 20.288 24.694 20.0121 24.5151C19.5658 24.2245 19.1215 23.9318 18.6772 23.6392C18.6646 23.6244 18.6646 23.6076 18.673 23.5907C18.852 23.2939 19.0457 23.0075 19.2289 22.7148C19.2331 22.7085 19.2394 22.7064 19.2436 22.7022C19.3299 22.7485 19.4142 22.7991 19.4963 22.8475Z" fill="#00BFF1"/>
<path d="M23.8907 33.9314C23.8928 34.083 23.8949 34.2325 23.8949 34.3841C23.8949 37.0792 23.8949 39.7743 23.8949 42.4694C23.8907 42.4758 23.8844 42.4779 23.878 42.4758C23.8759 42.4273 23.8738 42.3768 23.8738 42.3284C23.8738 40.1702 23.8738 38.012 23.8738 35.8538C23.8738 35.5674 23.8675 35.281 23.8654 34.9968C23.8654 34.942 23.8507 34.9273 23.7959 34.9273C23.5917 34.9315 23.3832 34.9168 23.1811 34.9378C23.1158 34.9441 23.0316 34.8768 22.9769 34.9652C22.9684 34.9084 22.8274 34.9547 22.8842 34.8452C22.8905 34.8326 22.8842 34.8115 22.8821 34.7778C22.8337 34.8999 22.8463 35.0094 22.8421 35.1189C22.8105 34.9989 22.8253 34.8768 22.8253 34.7568C22.821 33.9145 22.821 33.0702 22.821 32.228C22.821 32.2132 22.8231 32.2006 22.8253 32.1859C22.9032 32.3059 23.0232 32.2764 23.1348 32.2764C23.3243 32.2764 23.5138 32.2764 23.7033 32.2764C23.8401 32.2764 23.8738 32.3164 23.878 32.4512C23.8865 32.9207 23.8865 33.3881 23.8865 33.8577C23.8844 33.8829 23.878 33.9082 23.8907 33.9314Z" fill="#FEE021"/>
<path d="M19.2458 22.7C19.1974 22.8432 19.0921 22.9548 19.0247 23.0854C18.9574 23.2159 18.85 23.317 18.791 23.4538C18.7615 23.5191 18.7152 23.5781 18.6773 23.6391C18.0793 23.2496 17.4813 22.858 16.8834 22.4663C16.7233 22.361 16.5654 22.2537 16.4054 22.1484C16.4875 22.1042 16.5107 22.0115 16.5675 21.9462C16.5865 21.9252 16.6054 21.902 16.5949 21.8557C16.5886 21.8241 16.597 21.7378 16.6791 21.7378C16.717 21.7378 16.7191 21.7041 16.7318 21.683C16.7802 21.6072 16.7991 21.5125 16.8918 21.4662C16.9234 21.4493 16.9318 21.4051 16.9149 21.3735C16.896 21.3377 16.9002 21.304 16.9065 21.2682C17.2708 21.4893 17.6351 21.7125 17.9972 21.9336C18.2394 22.081 18.4794 22.2284 18.7215 22.3758C18.8984 22.4832 19.0732 22.5906 19.2458 22.7Z" fill="#00ABE6"/>
<path d="M23.897 25.7911C23.897 26.7891 23.8949 27.7893 23.8949 28.7873C23.8949 28.8252 23.8928 28.8652 23.8928 28.9031C23.8675 28.9536 23.8191 28.9368 23.7812 28.9368C23.5222 28.9389 23.2653 28.9368 23.0063 28.9368C22.9642 28.9368 22.9221 28.9305 22.8821 28.9431C22.8189 28.9642 22.8126 28.9263 22.8063 28.882C22.802 28.2946 22.7978 27.705 22.7936 27.1176C22.7915 26.8523 22.7852 26.587 22.781 26.3217C22.7789 26.3048 22.7705 26.288 22.7705 26.2711C22.7705 25.829 22.7599 25.3889 22.7768 24.9467C22.8105 24.8583 22.8589 24.9088 22.8968 24.9362C23.0147 25.0247 23.1263 25.1194 23.24 25.2142C23.4337 25.3763 23.6275 25.5342 23.8233 25.6942C23.8528 25.7216 23.8885 25.7448 23.897 25.7911Z" fill="#FEF268"/>
<path d="M22.8042 28.882C22.8148 28.8989 22.8274 28.9304 22.8358 28.9283C23.1832 28.8862 23.5328 28.9326 23.8823 28.9073C23.8865 28.9073 23.8886 28.9052 23.8928 28.9031C23.8949 28.9241 23.897 28.9452 23.897 28.9662C23.897 30.5981 23.897 32.2278 23.897 33.8596C23.897 33.8849 23.8949 33.908 23.8928 33.9333C23.8696 33.9101 23.876 33.8807 23.876 33.8533C23.876 33.5564 23.876 33.2595 23.876 32.9626C23.876 32.7816 23.8717 32.6005 23.8654 32.4194C23.8633 32.3352 23.8128 32.3015 23.7286 32.3015C23.4991 32.3036 23.2696 32.3036 23.0401 32.3015C22.9495 32.3015 22.84 32.3331 22.8274 32.1857C22.8211 31.6635 22.8105 31.1434 22.8063 30.6212C22.8 30.0422 22.8042 29.4632 22.8042 28.882Z" fill="#FEE948"/>
<path d="M22.7979 24.8982C22.7957 25.3319 22.7936 25.7636 22.7915 26.1973C22.7915 26.2373 22.8021 26.2815 22.7789 26.3194C22.3767 26.0583 21.9746 25.7973 21.5724 25.5341C21.3282 25.374 21.086 25.2119 20.8439 25.0498C20.8797 25.0308 20.8544 24.9908 20.8734 24.9656C20.9007 24.9803 20.8755 25.0119 20.9049 25.0371C20.8839 24.9466 20.9597 24.9108 20.9934 24.8518C21.0144 24.8687 21.0355 24.8771 21.0481 24.8413C21.065 24.9192 21.0671 24.8476 21.086 24.8434C21.1555 24.8245 21.1618 24.8329 21.1808 24.7992C21.2313 24.7066 21.2566 24.5908 21.3261 24.5192C21.4503 24.3949 21.3724 24.2033 21.4945 24.0875C21.8882 24.3276 22.282 24.5676 22.6736 24.8097C22.7115 24.8329 22.7515 24.8561 22.7915 24.8792C22.8 24.8813 22.8042 24.8855 22.8042 24.8898C22.8021 24.8961 22.8 24.8982 22.7979 24.8982Z" fill="#26CFF9"/>
<path d="M22.7979 24.8983C22.7958 24.892 22.7937 24.8857 22.7916 24.8794C23.7307 24.4519 24.6719 24.0245 25.611 23.5992C25.7542 23.5339 25.8911 23.4602 26.0406 23.4097C26.0027 23.5255 26.1121 23.5781 26.1522 23.6602C26.1943 23.7466 26.2722 23.816 26.3038 23.9129C26.3396 24.0224 26.4343 24.0919 26.5038 24.1782C26.5733 24.2645 26.6196 24.3509 26.6091 24.4646C26.4364 24.5593 26.2574 24.6435 26.0764 24.7236C25.87 24.8162 25.6742 24.9278 25.472 25.0268C24.9751 25.271 24.4782 25.5131 23.9813 25.7574C23.9539 25.77 23.9244 25.7806 23.895 25.7932C23.5581 25.5153 23.2212 25.2373 22.8822 24.9594C22.8569 24.9362 22.8274 24.9194 22.7979 24.8983Z" fill="#FE6365"/>
</g>
</g>
<defs>
<clipPath id="clip0_2_13573">
<rect width="48.0643" height="48" fill="white"/>
</clipPath>
<clipPath id="clip1_2_13573">
<rect width="32.779" height="40" fill="white" transform="translate(8 2.99994)"/>
</clipPath>
</defs>
</svg>
