<svg width="48" height="48" viewBox="0 0 48 48" fill="none" xmlns="http://www.w3.org/2000/svg">
<path d="M0 24C0 10.7452 10.7452 0 24 0C37.2548 0 48 10.7452 48 24C48 37.2548 37.2548 48 24 48C10.7452 48 0 37.2548 0 24Z" fill="white"/>
<path d="M26.0934 25.4013C26.8128 25.0531 27.4186 24.5132 27.8421 23.8429C28.2655 23.1727 28.4896 22.3988 28.4888 21.6094C28.4888 19.28 26.5764 17.3922 24.2194 17.3922C21.8624 17.3922 19.9491 19.2799 19.9491 21.6092C19.9482 22.3989 20.1724 23.173 20.5962 23.8434C21.02 24.5137 21.6264 25.0535 22.3464 25.4011V30.6096H26.0932L26.0934 25.4013ZM24.2196 37.5C16.6845 37.5 10.555 31.4444 10.555 24C10.555 16.5556 16.6854 10.5011 24.2196 10.5011C30.3684 10.5011 35.5803 14.5331 37.2903 20.062H41.9998C40.1827 12.0151 32.912 6 24.2196 6C14.1573 6 6 14.0588 6 24C6 33.9412 14.1573 42 24.2196 42C32.912 42 40.1827 35.9849 42 27.9379H37.2905C35.5792 33.468 30.3684 37.5 24.2196 37.5Z" fill="#3AB03E"/>
</svg>
