<svg width="48" height="48" viewBox="0 0 48 48" fill="none" xmlns="http://www.w3.org/2000/svg">
<circle cx="24" cy="24" r="24" fill="white"/>
<path d="M28.3024 12H17.0176L16.0817 17.1943L26.2676 17.2063C31.2851 17.2063 32.7643 19.0178 32.7221 22.0168C32.6979 23.5523 32.0277 26.1555 31.7379 27.0012C30.9651 29.2505 29.3771 31.8117 23.4238 31.8057L13.5217 31.7997L12.5888 37H23.8494C27.8224 37 29.5069 36.5381 31.3002 35.7224C35.267 33.893 37.6278 30.0062 38.5758 24.9319C39.9796 17.3743 38.2286 12 28.3024 12Z" fill="#008DE4"/>
<path d="M12.1479 21.8909C9.1894 21.8909 8.76675 23.8043 8.48901 24.9619C8.1207 26.4734 7.99994 27.0912 7.99994 27.0912H19.5564C22.515 27.0912 22.9376 25.1778 23.2153 24.0202C23.5837 22.5087 23.7044 21.8909 23.7044 21.8909H12.1479Z" fill="#008DE4"/>
</svg>
