<svg width="48" height="48" viewBox="0 0 48 48" fill="none" xmlns="http://www.w3.org/2000/svg">
<path d="M24 48C37.2548 48 48 37.2548 48 24C48 10.7452 37.2548 0 24 0C10.7452 0 0 10.7452 0 24C0 37.2548 10.7452 48 24 48Z" fill="#EFD08D"/>
<path d="M43.4395 23.954C43.4395 34.6872 34.595 43.5317 23.8618 43.4396C13.2207 43.3475 4.5144 34.6411 4.5144 24.0001C4.5144 13.2669 13.3589 4.42232 24.0921 4.51445C34.7332 4.60658 43.4395 13.359 43.4395 23.954Z" fill="black"/>
<path d="M26.2572 30.1267C24.8752 28.4223 22.9405 27.547 21.0518 26.5797C18.1958 25.1056 17.7812 23.7236 19.3935 20.9136C20.0844 19.6699 20.8675 18.4722 21.7428 17.0902C18.4261 16.9981 15.4779 17.5509 12.714 18.8868C10.595 19.9002 10.0422 21.5585 10.6871 24.1843C8.52206 21.7889 8.98271 17.3666 11.6545 14.5106C13.9578 12.0691 16.9059 10.9175 20.0844 10.4108C23.1708 9.9501 26.3032 10.1344 29.2975 11.2399C35.9309 13.6814 39.0173 18.8407 38.6027 26.7179C38.3263 32.2457 34.3647 36.8983 28.6065 38.2802C25.3359 39.0633 22.1113 38.9251 19.2553 36.8522C19.071 36.714 18.8867 36.5758 18.6564 36.4837C16.0307 35.1017 13.5432 32.7985 10.2725 36.4376C12.714 30.2188 16.4453 28.6065 22.2495 30.5873C23.4011 30.9559 24.5528 32.0154 25.7965 30.8637C26.7639 31.3244 27.4088 32.2457 28.4222 32.6142C30.4031 33.3052 32.3839 33.7658 34.2265 32.2917C36.1151 30.7716 36.4376 28.7447 36.1151 26.5336C35.5163 22.2495 28.0537 17.4127 23.5393 18.5182C24.4606 19.6238 25.8426 19.7159 26.9021 20.3148C30.5413 22.2956 31.2783 26.2572 28.4683 29.2514C27.9616 29.9424 27.3167 30.6334 26.2572 30.1267Z" fill="#EFD08C"/>
<path d="M26.2572 30.1267C28.4223 28.929 29.5739 27.0864 29.4818 24.645C29.3896 22.2956 27.547 21.4204 25.6584 20.6833C24.691 20.3148 23.6776 19.9002 22.7563 19.4857C22.1113 19.2093 21.9731 18.6104 22.1574 17.9655C22.3417 17.2285 22.8023 17.0903 23.4933 17.0442C27.7313 16.7217 34.6871 20.5912 36.668 24.3686C38.2802 27.4089 37.405 31.5087 34.7793 33.3513C32.6142 34.8715 27.8695 34.2726 25.8887 32.2918C25.382 31.7851 25.6584 31.3705 25.9348 30.9098C25.9808 30.6334 26.119 30.3571 26.2572 30.1267Z" fill="black"/>
<path d="M11.7467 25.2439C13.5432 26.027 15.2937 25.8427 17.1824 25.3821C15.4319 27.1786 13.5432 27.0865 11.7467 25.2439Z" fill="#B69F6B"/>
</svg>
