<svg width="48" height="48" viewBox="0 0 48 48" fill="none" xmlns="http://www.w3.org/2000/svg">
<path d="M24 48C37.2548 48 48 37.2548 48 24C48 10.7452 37.2548 0 24 0C10.7452 0 0 10.7452 0 24C0 37.2548 10.7452 48 24 48Z" fill="#EA4028"/>
<path fill-rule="evenodd" clip-rule="evenodd" d="M37.6231 31.725C37.3143 32.2401 36.8164 32.614 36.2356 32.7668C35.6548 32.9196 35.0373 32.8391 34.5151 32.5425L27.3466 28.4775V25.8975L29.6236 24.6075L36.7906 28.671C37.8796 29.2875 38.2516 30.6555 37.6231 31.7235V31.725ZM26.2756 37.2135C26.2756 38.448 25.2571 39.4485 24.0001 39.4485C22.7431 39.4485 21.7246 38.448 21.7246 37.2135V29.085L24.0001 27.795L26.2756 29.085V37.2135ZM13.4851 32.5425C12.9627 32.8389 12.345 32.9192 11.7642 32.7662C11.1834 32.6131 10.6855 32.2389 10.3771 31.7235C10.2282 31.4692 10.1315 31.1877 10.0928 30.8956C10.0541 30.6035 10.0741 30.3066 10.1516 30.0223C10.2292 29.7379 10.3627 29.472 10.5443 29.24C10.726 29.0079 10.9522 28.8145 11.2096 28.671L18.3766 24.606L20.6536 25.8975V28.4775L13.4851 32.5425ZM11.2096 19.329C10.9522 19.1855 10.726 18.9921 10.5443 18.76C10.3627 18.528 10.2292 18.2621 10.1516 17.9777C10.0741 17.6934 10.0541 17.3965 10.0928 17.1044C10.1315 16.8123 10.2282 16.5308 10.3771 16.2765C10.6855 15.7611 11.1834 15.3869 11.7642 15.2338C12.345 15.0808 12.9627 15.1611 13.4851 15.4575L20.6536 19.5225V22.1025L18.3766 23.3925L11.2096 19.329ZM21.7246 10.7865C21.7246 9.552 22.7446 8.5515 24.0001 8.5515C25.2571 8.5515 26.2756 9.552 26.2756 10.7865V18.9135L24.0001 20.205L21.7246 18.915V10.7865ZM27.3466 23.3175L28.5526 24L27.3466 24.6825V23.3175ZM25.0711 20.8125L26.2756 20.1285V21.495L25.0711 20.8125ZM21.7246 21.495V20.13L22.9291 20.8125L21.7246 21.495ZM20.6536 24.6825L19.4476 24L20.6536 23.3175V24.6825ZM22.9291 27.1875L21.7246 27.8715V26.505L22.9291 27.1875ZM26.2756 26.505V27.87L25.0711 27.1875L26.2756 26.505ZM24.0001 26.58L21.7246 25.29V22.71L24.0001 21.42L26.2756 22.71V25.29L24.0001 26.58ZM34.5151 15.4575C35.0374 15.1611 35.6551 15.0808 36.2359 15.2338C36.8167 15.3869 37.3146 15.7611 37.6231 16.2765C38.2531 17.3445 37.8781 18.7125 36.7906 19.329L29.6236 23.394L27.3466 22.1025V19.5225L34.5151 15.4575ZM37.3261 27.7605L30.6946 24L37.3261 20.2395C37.7048 20.0287 38.0377 19.7443 38.3051 19.4031C38.5725 19.0619 38.769 18.6707 38.8831 18.2525C38.9973 17.8343 39.0268 17.3975 38.9698 16.9678C38.9129 16.5381 38.7707 16.124 38.5516 15.75C37.6276 14.178 35.5801 13.6395 33.9796 14.547L27.3466 18.3075V10.785C27.3466 8.9715 25.8481 7.5 24.0001 7.5C22.1521 7.5 20.6536 8.9715 20.6536 10.7865V18.3075L14.0206 14.547C12.4201 13.6395 10.3726 14.178 9.45005 15.75C9.23093 16.124 9.08872 16.5381 9.03178 16.9678C8.97483 17.3975 9.00431 17.8343 9.11846 18.2525C9.23262 18.6707 9.42915 19.0619 9.69654 19.4031C9.96393 19.7443 10.2968 20.0287 10.6756 20.2395L17.3056 24L10.6756 27.7605C10.2967 27.9712 9.96366 28.2555 9.69612 28.5966C9.42858 28.9378 9.23189 29.3289 9.1176 29.7471C9.0033 30.1653 8.9737 30.6022 9.03053 31.032C9.08736 31.4618 9.22949 31.8759 9.44855 32.25C10.3726 33.822 12.4201 34.3605 14.0206 33.453L20.6536 29.6925V37.2135C20.6536 39.0285 22.1521 40.5 24.0001 40.5C25.8481 40.5 27.3466 39.0285 27.3466 37.2135V29.6925L33.9796 33.453C35.5801 34.3605 37.6276 33.822 38.5516 32.25C38.7707 31.876 38.9129 31.4619 38.9698 31.0322C39.0268 30.6025 38.9973 30.1657 38.8831 29.7475C38.769 29.3293 38.5725 28.9381 38.3051 28.5969C38.0377 28.2557 37.7048 27.9713 37.3261 27.7605Z" fill="white"/>
</svg>
