<svg width="48" height="48" viewBox="0 0 48 48" fill="none" xmlns="http://www.w3.org/2000/svg">
<path d="M0 24C0 10.7452 10.7452 0 24 0C37.2548 0 48 10.7452 48 24C48 37.2548 37.2548 48 24 48C10.7452 48 0 37.2548 0 24Z" fill="white"/>
<g clip-path="url(#clip0_2_12972)">
<path d="M41.1833 23.2969C41.1833 26.4583 41.1636 29.6198 41.1833 32.7812C41.2228 35.8439 39.9583 38.1557 37.3698 39.7759C35.0185 41.2381 32.7264 42.7595 30.3554 44.1822C26.3838 46.573 22.3134 46.6323 18.3023 44.3007C15.6744 42.799 13.1255 41.159 10.5766 39.5388C8.20548 38.0173 7.0397 35.7648 7.01994 32.9788C6.98042 26.399 7.00018 19.7995 7.00018 13.2198C7.00018 11.5402 7.69175 10.2559 9.15391 9.38651C19.1125 3.53783 29.071 3.53783 39.0296 9.38651C40.472 10.2361 41.1833 11.5007 41.1636 13.2198C41.1438 16.5788 41.1833 19.9378 41.1833 23.2969ZM31.1852 13.1012C31.4223 13.6545 31.6595 14.1682 31.857 14.6819C32.0744 15.2352 32.2127 15.7884 32.4301 16.3417C32.8845 17.4877 33.418 18.5942 33.7737 19.7798C33.8527 20.0564 33.3983 20.6492 33.0426 20.8665C32.7857 21.0246 32.3115 20.827 31.9361 20.7875C32.0546 20.827 32.193 20.8467 32.3115 20.8863C32.4301 20.5899 32.6672 20.2737 32.6474 19.9971C32.5881 19.6019 32.351 19.2265 32.1139 18.7128C31.857 19.1475 31.778 19.4636 31.5804 19.5822C30.1973 20.4713 30.1578 21.9928 29.7231 23.3364C29.5057 24.0082 29.2686 24.68 28.9327 25.2925C28.5573 25.9446 28.0238 26.4583 27.1544 26.0631C26.4036 25.7272 26.0084 24.759 26.1862 23.9292C26.4628 22.5658 25.9096 21.3407 25.633 19.8786C24.6252 20.8665 24.9809 21.7557 25.3366 22.5855C25.8305 23.7711 25.9293 24.8974 25.4946 26.1224C25.3761 26.4386 25.5539 27.0906 25.8305 27.2684C26.6011 27.8019 27.4705 28.2169 28.3202 28.6318C29.5848 29.2246 29.8219 29.8766 29.3279 31.1412C28.9525 32.1094 28.7154 33.1369 28.498 34.1446C28.3399 34.8361 28.1621 35.4092 27.431 35.7846C26.4826 36.2588 25.5737 36.8516 24.7438 37.5234C24.1115 38.0174 23.6966 37.9778 23.3607 37.4048C21.7799 37.8198 20.2585 38.2742 18.6975 38.6299C18.1443 38.7484 17.7689 38.0766 18.1048 37.5431C18.737 36.5354 19.3496 35.4882 20.6537 35.172C21.286 35.014 21.8985 34.7374 22.4913 34.4607C22.7284 34.3422 23.1038 33.9667 23.0643 33.8877C22.8074 33.3542 22.5505 32.6627 22.0763 32.4058C21.5231 32.1292 20.9501 31.2993 20.0807 32.0896C18.3419 33.6704 16.2474 34.5793 13.9554 35.093C13.1848 35.2708 12.4142 35.508 11.4262 35.7648C11.9202 36.16 12.1968 36.4366 12.513 36.6342C15.0816 38.2347 17.6108 39.8945 20.2585 41.3764C22.9852 42.9374 25.8108 42.8583 28.498 41.2183C30.8296 39.8154 33.1019 38.294 35.4334 36.8713C37.0339 35.8834 37.8045 34.5002 37.7848 32.6231C37.765 26.3398 37.765 20.0366 37.8045 13.7533C37.8045 12.8641 37.5081 12.3701 36.7573 11.9552C28.2214 7.21301 19.725 7.25253 11.2484 12.0935C10.6358 12.4294 10.4778 12.8641 10.4778 13.5161C10.4975 16.7369 10.4975 19.9773 10.4975 23.1981C10.4975 23.4747 10.5173 23.7711 10.5568 24.186C12.2956 23.1981 13.3823 21.7754 14.232 20.1749C14.4296 19.8193 14.4098 19.3055 14.3505 18.8708C14.3308 18.772 13.7183 18.772 13.3626 18.7325C14.1925 18.1002 15.1211 17.6458 16.0696 17.2111C17.0773 16.7566 17.2551 16.3219 16.8797 15.3735C16.6821 14.8993 16.6031 14.3658 16.4252 13.6149C17.1958 14.3065 17.7689 15.0376 18.5592 14.346C19.1717 13.8125 18.737 13.2988 18.1245 12.9036C18.1838 12.8246 18.2233 12.7455 18.2826 12.6665C19.0927 12.8048 19.9028 12.9431 20.8908 13.121C20.4956 12.7851 20.2783 12.5875 20.219 12.548C20.713 12.2516 21.3452 12.0342 21.7404 11.6193C22.6493 10.7104 22.9655 10.6313 24.151 11.1846C24.5264 11.3624 25.0204 11.3822 25.4551 11.3624C26.4233 11.2834 27.3125 11.2043 28.1621 11.9157C28.8932 12.5282 29.7428 12.9629 30.5727 13.4964C30.7308 13.4173 30.9284 13.279 31.1852 13.1012Z" fill="black"/>
</g>
<defs>
<clipPath id="clip0_2_12972">
<rect width="34.2029" height="41" fill="white" transform="translate(7 5)"/>
</clipPath>
</defs>
</svg>
