<svg width="48" height="48" viewBox="0 0 48 48" fill="none" xmlns="http://www.w3.org/2000/svg">
<path d="M24 48C37.2548 48 48 37.2548 48 24C48 10.7452 37.2548 0 24 0C10.7452 0 0 10.7452 0 24C0 37.2548 10.7452 48 24 48Z" fill="#006BFE"/>
<path d="M23.3381 7.76201C31.0685 7.80402 37.5701 13.0767 39.2296 20.639C41.1202 29.2727 35.4169 38.0745 26.7622 39.8495C21.5736 40.9104 16.9311 39.7025 12.8243 36.3835C11.795 35.5537 11.8055 35.5432 12.7508 34.5979C13.3705 33.9782 14.0112 33.39 14.5889 32.7388C14.8935 32.4027 15.072 32.4552 15.3661 32.7283C16.9416 34.1988 18.8112 35.1231 20.9119 35.5747C27.0038 36.8666 33.1062 33.1274 34.7342 27.1196C36.5618 20.3765 32.2659 13.5493 25.3232 12.3414C21.6051 11.7007 18.244 12.6565 15.4186 15.2298C15.0825 15.5344 14.8935 15.5765 14.5574 15.2193C13.7906 14.3896 12.9714 13.5913 12.1521 12.8141C11.9105 12.583 11.9 12.4465 12.1521 12.2049C14.5154 9.9887 17.2882 8.60227 20.4602 8.01409C21.416 7.83553 22.3718 7.76201 23.3381 7.76201Z" fill="#FEFEFE"/>
<path d="M26.3528 24.0317C28.9366 24.0317 31.3733 24.0422 33.8206 24.0212C34.1462 24.0212 34.1357 24.1787 34.1252 24.4098C34.0307 27.1196 33.0539 29.4724 31.1843 31.4155C27.1615 35.5958 21.0066 35.9739 16.4692 32.3608C11.9528 28.7687 11.186 21.889 14.8202 17.3201C16.9838 14.5997 19.8407 13.2133 23.2963 13.1818C26.1007 13.1503 28.569 14.1481 30.6696 16.0387C30.9217 16.2592 30.9322 16.3853 30.6801 16.6374C29.8083 17.4671 28.9576 18.3284 28.1278 19.1897C27.9072 19.4207 27.7917 19.4102 27.5501 19.2002C25.7226 17.6037 23.6009 17.1625 21.3112 17.9188C19.0215 18.675 17.551 20.2925 17.0574 22.6557C16.2066 26.752 19.2946 30.5122 23.4224 30.4072C25.8486 30.3441 27.6972 29.1993 28.9366 27.0986C29.0731 26.8571 29.0521 26.7205 28.8525 26.5315C28.0543 25.7437 27.256 24.935 26.3528 24.0317Z" fill="#FEFEFE"/>
<path d="M22.3087 24.0317C22.3087 25.6387 22.2982 27.2457 22.3192 28.8422C22.3192 29.2098 22.2562 29.3358 21.8571 29.2203C19.5779 28.5796 17.9289 26.4369 17.9079 24.0317C17.8763 21.658 19.5359 19.4523 21.7941 18.7801C22.2667 18.6435 22.3297 18.7696 22.3297 19.2107C22.2982 20.8282 22.3087 22.4247 22.3087 24.0317Z" fill="#FEFEFE"/>
</svg>
