<svg width="48" height="48" viewBox="0 0 48 48" fill="none" xmlns="http://www.w3.org/2000/svg">
<path d="M0 24C0 10.7452 10.7452 0 24 0C37.2548 0 48 10.7452 48 24C48 37.2548 37.2548 48 24 48C10.7452 48 0 37.2548 0 24Z" fill="#FEF700"/>
<path d="M21.4977 11.7132C21.1241 11.0727 20.8039 10.4456 20.8173 9.69846C20.8306 9.25816 20.8573 8.81786 21.2976 8.60439C21.7512 8.39091 22.1649 8.59104 22.5118 8.91126C22.6452 9.03134 22.7653 9.15142 22.9387 9.31153C23.0588 8.60439 23.0588 7.91058 23.379 7.29683C23.6325 6.8165 23.9394 6.36286 24.5665 6.3762C25.1669 6.38955 25.4471 6.80316 25.6873 7.27014C25.9808 7.83053 26.0875 8.43093 26.0742 9.05803C26.2209 9.1114 26.2877 9.018 26.3677 8.95129C26.6879 8.64441 27.0615 8.40425 27.5018 8.59104C27.9821 8.79118 28.0355 9.28485 28.0355 9.72515C28.0355 10.2322 27.9955 10.7792 27.7286 11.2062C27.3817 11.7799 27.6753 11.8733 28.1289 11.9934C30.4105 12.5938 32.3718 13.7279 33.9996 15.4624C35.9876 17.5838 37.0283 20.1589 37.522 22.9742C37.7221 24.1083 37.8022 25.2557 37.8288 26.4165C37.8422 26.8968 37.6954 27.0169 37.2284 27.0036C36.3879 26.9635 35.534 26.9769 34.6934 27.0036C34.2798 27.0169 34.1463 26.9102 34.1197 26.4565C34.0396 24.3084 33.6794 22.2403 32.5719 20.3457C31.0642 17.7573 28.756 16.3563 25.834 15.8893C24.0061 15.5958 22.2049 15.6759 20.457 16.303C17.6551 17.317 16.054 19.4518 15.1201 22.187C14.6531 23.5746 14.4129 25.0156 14.3195 26.4832C14.2928 26.8301 14.2528 27.0036 13.8525 26.9902C12.8919 26.9635 11.9446 26.9769 10.9839 26.9769C10.7571 26.9769 10.5303 27.0036 10.5703 26.6433C10.8505 23.7747 11.3041 20.9328 12.625 18.3177C14.3862 14.8086 17.1348 12.5938 21.0307 11.8466C21.1909 11.8199 21.3376 11.7665 21.4977 11.7132Z" fill="black"/>
<path d="M20.8438 22.307C20.8438 22.0401 20.8438 21.7733 20.8438 21.5064C20.8572 21.0928 21.044 20.8393 21.4709 20.7859C21.9246 20.7326 22.2448 20.9861 22.2848 21.3863C22.3515 22.0668 22.3515 22.7606 22.2848 23.4411C22.2448 23.8414 21.9379 24.0949 21.4709 24.0282C21.0573 23.9748 20.8572 23.7213 20.8438 23.3077C20.8305 22.9741 20.8438 22.6405 20.8438 22.307Z" fill="black"/>
<path d="M28.0621 22.4005C28.0621 22.7074 28.0754 23.0276 28.0621 23.3345C28.0354 23.7615 27.7953 24.0283 27.3416 24.0416C26.888 24.0416 26.6345 23.7748 26.6078 23.3612C26.5678 22.7474 26.5811 22.1203 26.6078 21.5066C26.6211 21.0796 26.8746 20.8128 27.3283 20.7994C27.7819 20.7994 28.0354 21.0396 28.0621 21.4799C28.0888 21.7734 28.0621 22.0937 28.0621 22.4005Z" fill="black"/>
<path d="M31.5311 32.4206C31.4644 30.4593 29.8233 28.9249 27.7686 28.9249C26.928 28.9249 26.0874 28.9382 25.2468 28.9115C24.8466 28.8982 24.7131 28.9916 24.7265 29.4186C24.7532 30.4859 24.7398 31.54 24.7398 32.6074C24.7398 33.7148 24.7398 34.8222 24.7398 35.9297C24.7398 36.1832 24.7265 36.3966 25.1001 36.3833C26.0741 36.3566 27.0481 36.4233 28.0221 36.3566C30.1568 36.2365 31.6112 34.5821 31.5311 32.4206ZM29.1695 34.1418C28.7159 34.7022 27.3149 35.0891 26.7278 34.8089C26.5277 34.7155 26.5944 34.5554 26.5944 34.4086C26.5811 33.8082 26.5944 33.2078 26.5944 32.6074C26.5944 32.007 26.5944 31.4066 26.5944 30.8062C26.5944 30.6327 26.5677 30.4726 26.8346 30.4192C27.7819 30.2058 28.8226 30.5793 29.3029 31.3265C29.8366 32.1938 29.7833 33.3679 29.1695 34.1418Z" fill="black"/>
<path d="M15.5336 32.4606C15.4936 30.4859 13.8525 28.9382 11.7978 28.9249C10.9572 28.9249 10.1166 28.9516 9.27605 28.9115C8.84909 28.8982 8.70233 28.9916 8.71567 29.4452C8.7557 30.5126 8.72901 31.58 8.72901 32.6341C8.72901 33.7415 8.74235 34.8489 8.72901 35.9563C8.72901 36.2499 8.78238 36.3833 9.12928 36.3833C10.0633 36.3566 10.9972 36.3966 11.9178 36.3699C14.0793 36.2899 15.587 34.6488 15.5336 32.4606ZM11.5576 34.8089C11.3975 34.8089 11.2374 34.7822 11.0906 34.8089C10.6637 34.8756 10.5569 34.7021 10.5836 34.3019C10.6236 33.7548 10.5969 33.1944 10.5969 32.6474C10.5969 32.2471 10.5969 31.8469 10.5969 31.4466C10.5969 30.4192 10.5969 30.4192 11.5976 30.4326C12.8385 30.4459 13.679 31.3532 13.6657 32.6874C13.6524 33.9817 12.8385 34.8089 11.5576 34.8089Z" fill="black"/>
<path d="M20.0301 28.9248C17.8686 28.9248 16.2942 30.4859 16.2942 32.634C16.2942 34.7555 17.9086 36.3699 20.0301 36.3699C22.1115 36.3699 23.7393 34.7555 23.7526 32.6741C23.7659 30.5393 22.1649 28.9248 20.0301 28.9248ZM19.9767 34.8088C18.9226 34.7955 18.0821 33.8482 18.0687 32.6607C18.0554 31.4599 18.936 30.4592 19.99 30.4592C21.0708 30.4592 21.9113 31.4199 21.9113 32.6607C21.9247 33.8882 21.0841 34.8222 19.9767 34.8088Z" fill="black"/>
<path d="M36.014 28.9248C33.8526 28.9248 32.2915 30.4859 32.2915 32.6607C32.2915 34.7822 33.9193 36.3966 36.0407 36.3699C38.1221 36.3566 39.7366 34.7288 39.7499 32.6607C39.7499 30.5259 38.1488 28.9248 36.014 28.9248ZM36.0007 34.8088C34.92 34.8088 34.066 33.8482 34.0794 32.6207C34.0927 31.4199 35 30.4192 36.0541 30.4592C37.1348 30.4992 37.9487 31.4599 37.9353 32.7007C37.9087 33.8882 37.0681 34.8088 36.0007 34.8088Z" fill="black"/>
</svg>
