<svg width="48" height="48" viewBox="0 0 48 48" fill="none" xmlns="http://www.w3.org/2000/svg">
<path d="M24 48C37.2548 48 48 37.2548 48 24C48 10.7452 37.2548 0 24 0C10.7452 0 0 10.7452 0 24C0 37.2548 10.7452 48 24 48Z" fill="#988430"/>
<path d="M24 47.2312C36.8303 47.2312 47.2312 36.8303 47.2312 24C47.2312 11.1698 36.8303 0.768799 24 0.768799C11.1698 0.768799 0.768799 11.1698 0.768799 24C0.768799 36.8303 11.1698 47.2312 24 47.2312Z" fill="#7A6A2A"/>
<path d="M24 46.7418C36.5599 46.7418 46.7417 36.56 46.7417 24C46.7417 11.4401 36.5599 1.2583 24 1.2583C11.4401 1.2583 1.25824 11.4401 1.25824 24C1.25824 36.56 11.4401 46.7418 24 46.7418Z" fill="#BA9F33"/>
<path fill-rule="evenodd" clip-rule="evenodd" d="M10.4932 21.4369C10.3572 21.3127 10.2136 21.1883 10.0815 21.0642C9.94943 20.94 9.81375 20.8156 9.67781 20.6914L9.27384 20.3074C9.20779 20.2414 9.13791 20.1833 9.07186 20.117C9.00581 20.0589 8.92824 19.9928 8.86219 19.9345C8.32613 19.4258 7.78699 18.9171 7.25835 18.4082C7.80594 18.9092 8.342 19.4066 8.88959 19.915L9.07979 20.1055C9.14584 20.1713 9.21573 20.2296 9.28178 20.2957L9.68549 20.6684C9.82143 20.7926 9.95352 20.917 10.0895 21.0524C10.2254 21.1878 10.3575 21.3125 10.4934 21.4364L10.4932 21.4369ZM3.37867 21.3601C3.37867 21.3601 5.32811 21.5618 6.27967 21.6978C7.16107 21.8222 9.91845 22.2453 9.91845 22.2453L3.37867 21.3601ZM3.37867 21.3601C3.92626 21.4067 4.47384 21.4648 5.02143 21.5232C5.30098 21.5503 5.56901 21.5813 5.83704 21.6084L6.24843 21.6553C6.38437 21.6745 6.51647 21.6939 6.6524 21.7134L8.28363 21.9735L9.09899 22.1094C9.36703 22.156 9.63506 22.2067 9.91461 22.2533C9.64658 22.2261 9.36703 22.1872 9.09899 22.1483L8.28363 22.0318L6.6524 21.7912C6.51647 21.7718 6.38437 21.7444 6.24843 21.7252L5.83679 21.6778C5.56875 21.6507 5.2892 21.6118 5.02117 21.5805C4.47359 21.5147 3.926 21.4446 3.37842 21.3593L3.37867 21.3601ZM9.7244 22.7532C9.7244 22.7532 7.64287 23.2816 6.93989 23.4836C6.24869 23.6738 4.15538 24.3107 4.15538 24.3107L9.72415 22.7535L9.7244 22.7532Z" fill="#CFB66C"/>
<path fill-rule="evenodd" clip-rule="evenodd" d="M9.72417 22.7532C9.26209 22.8891 8.80257 23.0212 8.33384 23.1456L6.9435 23.5184C6.48142 23.6543 6.0219 23.7864 5.5611 23.9223L4.8699 24.1125C4.64078 24.1786 4.40782 24.2367 4.17102 24.303C4.39988 24.2262 4.6331 24.1476 4.86222 24.0816L5.55342 23.8604C6.0155 23.7165 6.47502 23.5806 6.93582 23.437C7.40558 23.3205 7.86792 23.1961 8.33768 23.0834C8.78414 22.9708 9.25416 22.8584 9.72417 22.7534V22.7532ZM4.44673 25.5922C4.6756 25.5067 7.31649 24.2759 7.93012 23.9884C8.23732 23.8445 9.13025 23.5276 9.13025 23.5276L4.44673 25.5922Z" fill="#CFB66C"/>
<path fill-rule="evenodd" clip-rule="evenodd" d="M4.44673 25.5924C4.64846 25.5156 4.83892 25.4216 5.03297 25.3323L5.60769 25.0643L6.76122 24.509C7.14522 24.3265 7.51847 24.125 7.9145 23.9535C8.11649 23.8683 8.31847 23.7984 8.5202 23.7323L8.8274 23.6353C8.9321 23.6082 9.02938 23.5769 9.1346 23.5498C8.7506 23.7323 8.34638 23.8877 7.96186 24.0661C7.57786 24.2566 7.18516 24.412 6.78887 24.5827L5.61614 25.0991C5.22241 25.2586 4.83841 25.4293 4.44647 25.5924H4.44673ZM4.70273 26.6676C4.70273 26.6676 7.09479 25.2657 7.91809 24.8152C8.34919 24.5746 9.74337 23.8831 9.74337 23.8831L4.70273 26.6676Z" fill="#CFB66C"/>
<path fill-rule="evenodd" clip-rule="evenodd" d="M4.70294 26.6679C5.10666 26.4193 5.5183 26.1669 5.92995 25.9107L6.54436 25.5377C6.75402 25.4135 6.956 25.297 7.16977 25.1729C7.37943 25.0485 7.58141 24.9243 7.79492 24.8078C7.89656 24.7451 8.00305 24.6905 8.11338 24.6448L8.43953 24.4817C8.87063 24.272 9.30174 24.0583 9.75614 23.8757C9.34449 24.1361 8.92107 24.3575 8.4979 24.5864C8.28823 24.7029 8.07447 24.8078 7.86481 24.9243C7.65514 25.0408 7.45316 25.1652 7.2394 25.2778C7.02973 25.402 6.82775 25.5185 6.61424 25.6311L5.98115 25.9767L4.70345 26.6679H4.70294ZM9.72414 24.1901C9.72414 24.1901 8.23678 25.3319 7.75524 25.6969C7.2737 26.062 5.85623 27.0873 5.85623 27.0873L9.72414 24.1901Z" fill="#CFB66C"/>
<path fill-rule="evenodd" clip-rule="evenodd" d="M18.2602 33.398L17.4991 31.9573L17.9418 30.1553L21.099 28.936L19.7553 26.1788L20.4193 23.3943L21.6661 20.9009L25.5186 20.2952L28.3495 17.5962L34.4622 18.0583L35.6621 24.5942L33.3514 32.8233L32.0351 37.0837L26.699 37.2857L24.2215 35.5692L21.3205 34.3573L18.2602 33.398Z" fill="#E2CC85"/>
<path fill-rule="evenodd" clip-rule="evenodd" d="M27.6196 33.3515C27.6196 33.3515 26.8815 33.6894 25.6228 33.6116C25.2585 33.1224 22.7072 32.8932 22.7072 32.8932C22.7072 32.8932 22.3887 32.7962 21.8255 33.0292C21.2587 33.2596 20.7227 33.2312 20.2217 33.3553C19.7207 33.4795 19.2233 32.8272 18.8393 32.6912C18.4553 32.5476 17.9461 32.202 17.9461 32.202L16.8709 32.0971L14.7118 31.1844L11.2817 27.7671L10.3496 29.2263L10.0621 31.0321L11.0991 33.172L13.8913 35.7156L19.3359 37.098L22.5631 36.1472L26.6058 34.4384L27.6196 33.3512V33.3515Z" fill="#F1D789"/>
<path fill-rule="evenodd" clip-rule="evenodd" d="M8.27571 21.2738L8.96691 19.1808L9.79047 17.8291L12.4426 17.6077L11.6465 19.9301L9.42925 23.8758L10.3496 27.3981L8.7186 28.2135L8.21735 27.4447L7.81363 25.6817L7.7865 23.701L8.27571 21.2738Z" fill="#F4ECB4"/>
<path fill-rule="evenodd" clip-rule="evenodd" d="M11.2505 33.2077L10.7418 32.4971C10.7418 32.4971 10.6058 32.1592 10.6837 31.864C10.7605 31.565 10.7495 31.5455 10.7108 31.4329C10.6722 31.3202 10.3458 30.9319 10.3652 30.5978C10.3844 30.2599 10.3381 30.1473 10.5864 29.8795C10.8465 29.6194 10.7689 29.1688 10.7689 29.1688L11.1068 29.3785L11.1836 29.262C11.1836 29.262 11.3078 29.359 11.3078 29.5106C11.3349 29.3009 11.2223 28.3299 11.4786 28.1087C11.7348 27.8875 12.1892 29.1455 12.1892 29.1455L11.9097 27.3202L11.1911 25.4486L9.91336 23.7398L9.83656 21.8562V21.6931C9.83656 21.6931 9.25006 22.5942 9.08699 23.3059C8.97051 23.7951 9.25006 24.3893 9.19195 25.0923C9.1451 25.7914 9.08699 25.7369 9.25774 26.0139C9.4285 26.2909 9.84424 26.8605 9.68117 27.2721C9.53755 27.6257 9.04808 27.3771 9.04808 27.3771C9.04808 27.3771 8.95105 27.6643 8.81896 27.7693C8.77236 27.5985 8.72193 27.4897 8.62875 27.3853C8.62081 27.4513 8.60161 27.5407 8.60161 27.5407C8.60161 27.5407 8.51611 27.2726 8.4306 26.9347C8.31438 26.4844 8.18996 25.8902 8.07732 25.5718C8.03073 25.7543 7.91425 26.3096 7.91425 26.3096L7.98029 27.1641L8.29876 28.3368L8.60596 29.1048L8.90497 30.0446L9.16481 30.6759L9.37448 31.1574L9.55701 32.2411L10.4384 33.1729L10.9084 33.3828L11.2499 33.208L11.2505 33.2077Z" fill="#F3E19D"/>
<path fill-rule="evenodd" clip-rule="evenodd" d="M8.73778 19.5651C8.73778 19.5651 8.10468 20.6403 7.92241 21.7242C7.74014 22.8081 7.57681 23.9534 7.69201 25.429C7.80849 26.9166 8.02993 27.829 8.20862 28.4815C8.51582 29.5651 9.31147 31.072 9.31147 31.072L9.33861 31.0136C9.20487 30.7601 9.09813 30.4932 9.02014 30.2174C8.91518 29.8058 8.87627 29.3166 8.77925 29.0951C8.69374 28.8739 8.55013 28.6835 8.48024 28.4116C8.41419 28.1515 8.40344 27.7399 8.20068 27.4332C8.11518 27.3088 8.01022 26.9826 7.97924 26.6565C7.94033 26.167 7.9987 25.6194 7.95211 25.1691C7.8666 24.4196 7.80849 23.9109 7.88606 23.5185C7.96363 23.126 8.36785 22.0119 8.61643 21.1264C8.7795 20.5594 8.68222 20.0817 8.98123 19.5884C9.28024 19.0991 9.46303 18.668 9.52882 18.369C9.60562 18.0972 8.73675 19.5651 8.73675 19.5651H8.73778Z" fill="#F2E8B0"/>
<path fill-rule="evenodd" clip-rule="evenodd" d="M11.7399 19.134C11.7399 19.134 11.4138 19.2313 11.2584 19.4021C11.103 19.5651 11.037 19.7011 10.8273 19.9768C10.6176 20.2525 10.6059 20.4778 10.4348 20.8234C10.2641 21.1613 9.88726 21.67 9.84066 21.8525C9.79407 22.035 9.7165 22.8893 9.61948 23.2933C9.53398 23.6972 9.7165 24.1944 9.7165 24.1944L9.93769 24.1475C9.93769 24.1475 9.93769 24.435 10.1591 24.6293C10.3803 24.8196 10.4192 23.9845 10.4192 23.9845L11.2464 21.1923L12.4928 20.3457L12.6288 19.6622L11.7394 19.134H11.7399Z" fill="#F5EEC0"/>
<path fill-rule="evenodd" clip-rule="evenodd" d="M12.3456 20.4C12.3456 20.4 11.7591 20.4387 11.4719 20.6486C11.3554 20.7339 11.3088 20.8037 11.1847 20.9087C10.9555 21.0989 10.7223 21.2738 10.6099 21.5231C10.4855 21.7714 10.3496 22.1483 10.2564 22.8589C10.2175 23.1579 10.2175 23.4337 10.1903 23.6746C10.1514 24.0007 10.0933 24.2608 10.1243 24.4426C10.1632 24.8153 10.5477 25.0096 10.5851 25.4328L11.3813 25.0291L12.1308 22.0735L13.7231 21.0751L12.822 20.0654L12.3446 20.3982L12.3456 20.4Z" fill="#E6DB9D"/>
<path fill-rule="evenodd" clip-rule="evenodd" d="M8.1454 40.3018C8.14873 40.2726 8.15205 40.2434 8.15538 40.2135C8.27161 39.2151 8.29132 38.4583 8.37657 37.9845C8.50073 37.3127 8.58623 37.0629 8.56677 36.8115C8.53964 36.4078 8.50866 36.1126 8.54757 35.8018C8.60569 35.3902 9.00965 34.9009 8.99813 34.563C8.9902 34.295 8.85426 34.1204 8.73778 33.9573C8.6213 33.7943 8.52812 33.6583 8.52812 33.6583C8.52812 33.6583 9.32428 33.1107 9.3166 30.9048C9.33286 30.9094 9.3485 30.9159 9.36319 30.9242L9.75538 32.0386L10.0234 32.3648L11.0525 34.2832L12.3768 35.5689L14.3339 36.8852L15.5612 38.2208L15.6854 41.782L14.0815 43.8635L13.8189 44.3392C11.7321 43.2916 9.81861 41.9298 8.14514 40.3015L8.1454 40.3018Z" fill="#E5CB7A"/>
<path fill-rule="evenodd" clip-rule="evenodd" d="M13.0447 43.7086C13.0447 43.7086 13.0719 43.266 13.4369 42.9785C13.4953 43.0755 13.534 43.1689 13.5224 43.2386C13.5885 43.1223 14.0506 42.3766 15.0953 42.1823C16.14 41.9921 16.3924 41.231 16.3924 41.231L18.6096 39.2155L21.1456 36.8816L24.2291 35.7979L25.6701 35.4444C25.6701 35.4444 25.6972 35.5494 25.643 35.7823C25.9107 35.7631 26.5049 35.6272 27.1224 35.4096C27.371 35.3126 27.6042 35.2736 27.7283 35.4019C27.9109 35.5727 27.938 35.9766 27.9495 36.2173C28.2485 36.1512 28.5941 35.864 28.8711 35.8911C29.314 35.9377 29.7062 36.4582 30.1567 36.4582C30.7509 36.4582 31.0187 36.0931 31.4344 35.8056C31.683 35.6349 32.0401 35.4216 32.2421 35.2775C32.7236 34.9239 37.8188 33.3667 37.8188 33.3667L39.6052 33.4832L39.8927 35.4016L39.739 40.4167C39.7201 40.4349 39.7012 40.4538 39.682 40.472L31.5596 44.7142L20.3008 46.4401C17.7788 46.0281 15.345 45.1909 13.1031 43.9643L13.0455 43.7083L13.0447 43.7086Z" fill="#D8C173"/>
<path fill-rule="evenodd" clip-rule="evenodd" d="M8.82819 40.9398C8.98819 40.6052 9.13206 40.3254 9.1574 40.2253C9.17737 40.4271 9.21398 40.8697 9.28771 41.3402C9.13291 41.2086 8.97974 41.0751 8.82819 40.9396V40.9398Z" fill="#F1D789"/>
<path fill-rule="evenodd" clip-rule="evenodd" d="M17.0527 45.6594L18.5088 45.2544L18.633 45.2933C18.633 45.2933 18.699 45.3322 18.699 45.464C18.8816 45.3593 19.037 45.3785 19.1496 45.3089C19.2077 45.4331 19.2658 45.8447 19.5223 45.8951C19.7901 45.9535 20.0776 45.7787 20.3689 45.5575C20.6562 45.3284 20.9833 45.0409 21.2309 44.9244C21.3217 45.0914 21.4021 45.2638 21.4718 45.4407C21.7979 45.1806 22.365 44.1244 23.1726 44.1436C23.4061 43.5919 23.7961 43.1207 24.2944 42.7883C25.044 42.2796 25.5138 42.2407 26.1002 42.2873C26.3332 41.9847 26.6202 41.728 26.9468 41.5301C27.0439 41.569 27.3119 41.7321 27.646 41.5767C27.9839 41.4215 28.3643 40.8194 28.8653 40.7418C29.1353 40.7047 29.4098 40.7623 29.642 40.9049C29.642 40.9049 31.1012 39.4562 32.1081 38.9747C32.0691 38.8582 31.9916 38.4194 33.172 37.4484C33.238 37.5068 33.1914 37.6698 33.238 37.6788C33.2572 37.6788 33.5452 37.5546 33.9098 37.2748C34.3603 36.9372 34.9 36.5836 35.2261 36.4866C35.8405 36.3041 36.4923 36.6768 36.4923 36.6768C36.5477 36.6379 36.6095 36.609 36.6748 36.5913C36.83 36.5642 36.9426 36.5447 37.0281 36.5145C37.0204 36.7165 37.1331 37.0621 37.0281 37.3611C37.1497 37.4295 37.2785 37.4842 37.4121 37.5242C37.3463 37.6678 37.2025 38.0328 36.9618 38.2077C37.1635 38.3047 37.1907 38.4174 37.4782 38.5149C37.3617 38.678 37.171 38.9578 37.086 39.1293C37.0005 39.3118 36.6935 40.0691 36.5576 40.3563C36.414 40.6438 36.2199 41.1719 36.1265 41.2779C36.033 41.3839 35.6954 41.8332 35.4353 42.0544C35.6657 41.9689 36.6083 41.6816 37.0082 41.5728C36.8891 41.7474 36.2857 42.6427 35.7056 43.5036C32.9281 45.1683 29.8278 46.222 26.6111 46.5944C23.3944 46.9668 20.1353 46.6493 17.0509 45.6632L17.0527 45.6594Z" fill="#E0CD81"/>
<path fill-rule="evenodd" clip-rule="evenodd" d="M12.4417 20.2951C12.4417 20.2951 12.104 20.2951 12.0379 20.3416C11.9719 20.3882 12.3759 20.4855 12.5 20.5321C12.6242 20.5787 12.8922 20.7922 12.9621 20.9632C13.0282 21.1263 15.3893 22.0776 15.3893 22.0776L17.0591 21.9921L17.6349 21.1967L16.5397 20.2375L17.3077 17.9734L16.2904 18.1365L13.8438 19.5957L12.6165 20.0657L12.4417 20.2951Z" fill="#DFC57C"/>
<path fill-rule="evenodd" clip-rule="evenodd" d="M16.1088 21.0446C16.133 21.0837 16.167 21.1157 16.2074 21.1375C16.2478 21.1593 16.2933 21.1701 16.3392 21.1688C16.6848 21.1688 17.003 21.2543 17.1351 21.4289C17.3566 21.7087 17.9702 22.6019 17.9702 22.6019L19.4381 23.13L19.5328 21.4015L17.929 20.2871L16.1037 20.9589V21.0444H16.1078L16.1088 21.0446Z" fill="#E5CC7C"/>
<path fill-rule="evenodd" clip-rule="evenodd" d="M15.8208 21.6856C15.8208 21.6856 16.0886 21.7051 16.4265 21.5806C16.7644 21.4562 17.3197 21.1884 17.5606 21.2934C17.8982 21.437 17.8283 21.8876 18.1936 22.2918C18.4148 22.5404 18.8188 22.5327 19.0479 22.8007C19.277 23.0688 20.0653 22.9443 20.0653 22.9443L20.3643 24.5571L19.1644 26.0952L18.772 28.0057H17.1494L15.6672 27.4177L14.9371 25.6513L15.3021 23.8649L15.8208 21.6856Z" fill="#D2C281"/>
<path fill-rule="evenodd" clip-rule="evenodd" d="M18.9594 21.7631C18.9996 21.7755 19.0414 21.782 19.0835 21.7825C19.0369 21.8214 18.9397 21.9067 18.9786 22.1281C19.0175 22.3496 19.1416 22.6291 19.0369 22.7998C19.1205 22.8912 19.1829 23 19.2195 23.1183C19.2855 23.3088 19.305 23.4834 19.7358 23.5108C19.6736 23.549 19.6163 23.5947 19.5651 23.6467C19.5651 23.6467 19.8641 23.9068 20.0156 24.1474C20.1708 24.1408 20.5824 24.0128 20.5824 24.0128L20.6679 24.0711L20.8504 23.9943C20.8504 23.9943 20.6797 23.9283 20.8038 23.5128C20.9203 23.1477 21.0253 23.1672 21.0342 23.1401C21.0432 23.1129 21.1198 22.7284 21.1198 22.573C21.1779 22.3713 21.2245 21.7577 21.2245 21.7577L21.1003 20.4024L20.4014 19.979L19.8331 19.4304L19.297 20.4401L18.944 20.7921L18.9169 21.6658L18.9594 21.7631Z" fill="#E2C270"/>
<path fill-rule="evenodd" clip-rule="evenodd" d="M20.6407 20.6293C20.6407 20.6293 20.7649 20.9826 20.8118 21.2545C20.8283 21.2016 20.8374 21.1468 20.8389 21.0914C20.8389 21.0914 20.9359 21.6275 20.9551 21.8489C20.994 21.841 21.0319 21.8294 21.0406 21.8681C21.0493 21.9068 21.1379 22.3381 21.1174 22.5788C21.2791 22.312 21.5029 22.0882 21.7697 21.9265C21.9251 21.8292 22.1076 21.7245 22.2981 21.7166C22.5971 21.7089 22.8144 21.907 23.1718 21.907C24.0338 21.907 24.8146 21.2739 25.3893 21.0799C25.8125 20.936 26.1775 20.8313 26.4338 20.5981C26.5582 20.4934 26.7796 20.2604 26.9814 19.9146C27.2494 19.4538 27.5289 19.0526 27.8087 19.0022C27.6822 19.0254 27.5534 19.0345 27.4247 19.0293C27.4247 19.0293 27.5103 18.9438 27.6551 18.8273C27.8 18.7109 27.9736 18.5672 28.2219 18.5672C28.6648 18.5672 28.886 18.633 29.1346 18.633C29.3831 18.6254 29.5268 18.5672 29.5268 18.5672C29.5268 18.5672 29.7871 18.7498 30.3734 18.7498C30.9599 18.7574 31.352 18.8079 31.659 18.8353C31.9659 18.8627 32.9948 18.7498 33.29 18.7585C33.4824 18.7659 33.6714 18.8121 33.8455 18.8944L32.8939 16.1296L29.4758 13.1421L27.4409 14.5829L24.3105 17.713L21.2815 18.8353L20.6484 19.5459V20.6293H20.6407Z" fill="#CCB360"/>
<path fill-rule="evenodd" clip-rule="evenodd" d="M27.437 19.0446C27.437 19.0446 27.5225 18.9594 27.6659 18.8429C27.8093 18.7264 27.9846 18.5825 28.2329 18.5825C28.6756 18.5825 28.897 18.6486 29.1456 18.6486C29.3942 18.6409 29.5378 18.5825 29.5378 18.5825C29.5378 18.5825 29.7984 18.7648 30.3844 18.7648C30.9709 18.7725 31.3631 18.8229 31.67 18.8501C31.977 18.8772 33.0058 18.7648 33.301 18.7733C33.4934 18.7805 33.6823 18.8267 33.8563 18.9092L33.4252 17.6625L32.9244 16.7112L31.4952 15.146C31.4952 15.146 29.78 14.1363 29.7669 14.1286C29.7592 14.121 29.1727 13.9656 29.1727 13.9656L27.6193 14.9054L26.2098 18.5521L26.1826 19.3201L27.095 19.7512C27.3241 19.3672 27.5768 19.06 27.8136 19.0211C27.5998 19.0444 27.4368 19.0444 27.4368 19.0444L27.437 19.0446Z" fill="#D5B457"/>
<path fill-rule="evenodd" clip-rule="evenodd" d="M27.4176 19.305C27.2817 19.3127 27.1693 19.2856 27.138 19.1886C27.0216 18.8624 26.9284 18.8158 26.8308 18.8158C26.7333 18.8158 26.6017 19.0255 26.5237 19.0447C26.4456 19.0639 26.3529 18.804 26.3529 18.804L26.2674 18.7651C26.2674 18.7651 25.7664 19.0913 25.4131 19.4758C25.0598 19.8603 24.481 20.5128 24.2209 20.6291C23.9608 20.7453 23.0674 20.7845 22.7617 20.8505C22.4561 20.9166 22.1171 21.138 22.0705 21.1884C22.024 21.2389 22.2067 21.2931 22.2339 21.3436C22.261 21.3902 21.9346 21.3707 21.9075 21.4204C21.8883 21.4593 21.9843 21.6805 22.0319 21.7931C22.1152 21.7517 22.2066 21.7291 22.2997 21.7271C22.5987 21.7194 22.8163 21.9175 23.1734 21.9175C24.0356 21.9175 24.8161 21.2844 25.3909 21.0901C25.8143 20.9465 26.1793 20.8416 26.4356 20.6086C26.5597 20.5039 26.7812 20.2707 26.9832 19.9251C27.1306 19.6883 27.2745 19.4668 27.4184 19.3038L27.4176 19.305Z" fill="#D2B257"/>
<path fill-rule="evenodd" clip-rule="evenodd" d="M15.0528 38.5245C15.0528 38.5245 14.976 38.2371 14.2643 37.4954C14.0623 37.2858 13.9382 37.1114 13.8022 36.9867C13.4643 36.668 13.2662 36.5828 13.0255 36.4002C12.4974 36.008 11.9227 36.008 11.4801 35.5265C11.0374 35.045 10.5216 34.1249 10.1632 33.1846C9.80993 32.2448 9.71265 31.9458 9.71265 31.9187C9.71265 31.8915 9.80993 31.709 9.93409 31.7361C10.0582 31.7633 10.0582 32.0039 10.0895 32.0623C10.1513 32.1576 10.2215 32.2472 10.2991 32.3301C10.4817 32.54 10.7418 32.7909 10.8739 33.1651C10.8467 32.8467 10.7379 32.4934 10.7379 32.4934C10.7379 32.4934 11.4214 32.9245 12.0038 33.3748C12.5903 33.8254 12.831 33.9808 13.0022 34.268C13.1735 34.5552 13.577 35.3127 13.7702 35.5342C13.9635 35.7556 16.6118 36.5905 16.6118 36.5905L17.8716 37.5297L18.497 38.9006L18.0076 39.6686L17.0678 39.8706L15.5415 39.1871L15.0528 38.5243V38.5245Z" fill="#D2B159"/>
<path fill-rule="evenodd" clip-rule="evenodd" d="M11.6621 33.8021C11.6621 33.8021 11.9806 34.3107 12.7573 34.7923C13.4564 35.2157 14.5631 35.6002 15.5497 35.8293C16.1165 35.9652 16.6835 36.07 17.1922 36.0779C18.5631 36.0971 19.5067 35.7052 20.6759 35.5769C21.309 35.5108 22.0857 35.4604 22.8933 35.2697C23.9301 35.0211 24.5438 34.7413 25.3788 34.3481C25.9845 34.0685 26.5401 33.8589 26.9904 33.5909C27.6235 33.2181 28.0855 32.8026 28.6216 32.6785C28.5555 32.861 28.4857 33.1871 27.9575 33.5251C28.2371 33.5171 28.6216 33.4979 28.6216 33.4979C28.6216 33.4979 28.2489 33.7191 27.5925 34.2163C27.1885 34.5235 26.6527 35.0434 26.1051 35.389C25.7516 35.6104 25.3671 35.773 25.1147 35.9056C24.5003 36.2435 24.2524 36.4143 23.8487 36.8272C23.9923 36.8195 24.0041 36.8272 24.0041 36.8272C24.0041 36.8272 23.4952 36.8932 23.1304 37.0873C23.0536 37.0873 22.9205 37.0602 22.6875 37.1262C22.505 37.1843 22.2641 37.3167 22.0158 37.3863C21.6622 37.4913 21.546 37.4447 21.546 37.4447L21.6041 37.5612C21.6041 37.5612 21.1433 37.5532 20.9897 37.5688C21.0169 37.5765 21.0092 37.5883 21.0092 37.5883C20.9822 37.5928 20.9562 37.602 20.9324 37.6154C20.8585 37.6633 20.7772 37.6987 20.6917 37.7201C20.6451 37.7278 20.6062 37.7278 20.5479 37.7396C20.5673 37.7862 20.7189 38.0468 20.7888 38.2004C20.7307 38.2393 19.8567 38.8995 19.8567 38.8995C19.8838 38.9422 19.9059 38.9878 19.9227 39.0355C19.9499 39.1207 19.9616 39.2451 19.9888 39.3032C20.0546 39.4197 20.0935 39.4392 20.0935 39.4392C20.0935 39.4392 19.9888 39.4586 19.806 39.5052C19.6508 39.5441 19.4604 39.6099 19.1916 39.6488C19.1091 39.6596 19.0261 39.6661 18.943 39.6683C18.9819 39.7538 19.1527 40.0799 18.838 40.4565C18.5234 40.8331 18.4264 40.8879 18.3294 41.1285C18.2805 41.0916 18.2285 41.059 18.174 41.0312C18.0693 40.9846 17.9254 40.915 17.875 40.8216C17.8456 40.9461 17.8066 41.0681 17.7585 41.1866C17.6615 41.4467 17.5179 41.7032 17.4907 41.8973C17.3858 41.7808 17.1917 41.5517 16.9237 41.5983C16.6556 41.6449 16.4421 42.0099 16.3955 42.1149C16.3955 42.0488 16.349 41.9984 16.3374 42.076C16.3295 42.1615 16.182 43.0544 15.3587 43.7768C15.3511 43.5943 15.3511 43.1903 15.3316 43.0585C15.2548 43.1353 15.1609 43.2487 14.6015 43.4896C14.0539 43.7302 14.1407 43.9711 14.1407 43.9711C14.1407 43.9711 14.0941 43.5871 14.3893 43.1827C14.6883 42.7789 14.8708 42.5885 14.8708 42.5575C14.866 42.526 14.8525 42.4964 14.8319 42.472C14.793 42.4331 14.7154 42.3865 14.7154 42.3555C14.762 42.3363 15.2241 42.1149 15.197 41.6564C15.1698 41.245 14.9952 41.0312 14.8708 40.8799C14.8516 40.8605 15.0536 40.7169 15.0262 40.6703C15.0067 40.6431 14.7584 40.4604 14.7272 40.3631C14.7345 40.305 14.7476 40.2478 14.7661 40.1923C14.7932 40.1068 14.8127 40.0485 14.805 39.9903C14.7856 39.8933 14.6806 39.6253 14.6496 39.5981C14.6768 39.6058 14.8708 39.5981 14.8708 39.5981C14.8708 39.5981 14.7157 39.3496 14.6883 39.2331C14.6609 39.1166 14.6028 38.8097 14.5718 38.7516C14.6379 38.7592 14.8009 38.7708 14.8009 38.7516C14.8089 38.6932 14.6573 38.5962 14.7241 38.5212C14.7707 38.5288 14.8601 38.5677 14.9453 38.6765C14.8987 38.5521 14.8211 38.3115 14.6578 38.2145C14.7346 38.1873 14.9957 38.1172 15.2249 38.2531C15.454 38.3891 15.5321 38.5793 15.5321 38.5793C15.5321 38.5793 15.668 38.6842 15.8779 38.8396C16.1186 39.0298 16.4252 39.3004 16.9147 39.4919C17.0197 39.5503 17.2875 39.5503 17.4818 39.5114C17.5664 39.4912 17.6475 39.4585 17.7224 39.4143C17.7495 39.3984 17.7781 39.3854 17.8079 39.3754C17.7662 39.2916 17.7181 39.2111 17.6643 39.1345C17.7303 39.1345 17.8079 39.1425 17.8079 39.1425C17.8079 39.1425 17.8545 39.0375 17.6448 38.8353C17.6914 38.7887 17.7498 38.7585 17.7498 38.6799C17.6837 38.6722 17.5673 38.5752 17.5401 38.5363C17.5788 38.5091 17.6371 38.4198 17.7032 38.3926C17.6448 38.346 17.5012 38.1517 17.4352 38.1325C17.4983 38.1091 17.5593 38.0805 17.6177 38.047C17.6177 38.047 17.2915 37.9615 17.1866 37.8917C17.0816 37.8149 16.9265 37.682 16.8333 37.6431C16.736 37.6042 16.5653 37.585 16.4954 37.5071C16.5612 37.5266 16.6661 37.5071 16.744 37.5071C16.8021 37.5071 16.8295 37.5148 16.8487 37.5148C16.841 37.4877 16.841 37.4293 16.9925 37.4101C17.0654 37.3991 17.1362 37.3768 17.2022 37.3441C17.2022 37.3441 17.0583 37.3364 16.895 37.181C16.7317 37.0256 16.596 36.9014 16.5028 36.882C16.4058 36.8625 16.2233 36.948 16.1106 36.9401C15.9552 36.9209 15.8892 36.8431 15.8892 36.8431C15.8892 36.8431 15.3728 36.8897 14.2272 36.1908C13.2368 35.5848 12.8057 35.049 12.8057 35.049C12.713 35.0154 12.6234 34.9738 12.5379 34.9246C12.1651 34.7306 11.6485 34.3266 11.6642 33.7982L11.6621 33.8021Z" fill="#C2A44D"/>
<path fill-rule="evenodd" clip-rule="evenodd" d="M25.9494 10.4932C26.0392 10.5224 26.119 10.5762 26.1798 10.6486C26.3623 10.8582 26.4788 11.2543 26.0633 11.6777C26.2264 11.7358 26.2937 11.7545 26.436 11.7358C26.2924 11.9068 25.9663 12.2719 25.9468 12.5903C25.9273 12.8504 26.0904 12.9283 26.0904 12.9283C26.0904 12.9283 25.8418 13.2155 25.8303 13.6963C25.9477 13.5639 26.0762 13.4418 26.2143 13.3312C26.5018 13.1021 26.8978 12.842 27.1659 12.6789C27.1622 12.7473 27.1714 12.8157 27.193 12.8806C27.193 12.8806 27.6938 12.469 28.1146 12.6518C28.3048 12.7373 28.2193 13.0051 28.2193 13.0051C28.2193 13.0051 28.4797 12.908 28.6622 13.0906C28.8447 13.2731 29.1028 13.7439 29.2351 13.9264C29.2933 14.0119 29.4448 14.175 29.5999 14.4274C29.8119 14.7808 29.9889 15.154 30.1283 15.5418C30.136 15.3398 30.1864 15.0254 30.7614 15.2233C31.3361 15.4253 31.9884 15.8487 32.536 16.6825C33.0836 17.5163 33.2193 18.4576 33.495 18.816C33.7746 19.1616 34.0621 19.7363 34.0815 19.9772C34.101 20.2181 33.996 20.9946 34.5707 23.0956C34.7338 22.4433 34.9824 20.9946 34.9824 20.9946L35.1183 19.7169L35.2737 15.7635L31.1454 12.3338L27.9183 9.99194L25.8173 10.1939L25.9491 10.4929L25.9494 10.4932Z" fill="#CAA13E"/>
<path fill-rule="evenodd" clip-rule="evenodd" d="M33.6195 16.3766C33.6195 16.3766 33.5611 15.9926 32.5903 15.3398C31.6193 14.6952 30.8621 14.6952 30.1632 14.1476C29.6271 13.7165 29.068 12.726 28.704 12.3999C28.3505 12.0776 28.2924 11.1455 28.2924 11.1455L29.4845 10.1471L31.2576 7.58427L32.7565 5.93384L33.4748 6.93224L34.4732 8.10497L35.0285 10.4584L35.2305 13.9031L33.6177 16.3768L33.6195 16.3766Z" fill="#B59544"/>
<path fill-rule="evenodd" clip-rule="evenodd" d="M34.8196 20.5057C34.849 19.9833 34.7845 19.4598 34.6291 18.9602C34.3731 18.164 33.8137 16.7504 33.5539 16.221C33.4489 15.6345 33.5268 15.5879 33.6394 15.5219C33.7521 15.4558 34.1755 15.2147 34.4074 14.3686C34.6394 13.5225 35.359 13.4948 35.359 13.4948L35.8016 13.1687L36.4736 14.8501L37.0598 16.3687L37.2424 17.5299L37.3783 18.5201L37.0598 20.6134L35.4872 22.0347L34.8193 20.5057H34.8196Z" fill="#C89D3A"/>
<path fill-rule="evenodd" clip-rule="evenodd" d="M12.874 43.8373V43.7943C12.9067 43.7738 12.9356 43.7478 12.9593 43.7175C12.9864 43.6785 13.0061 43.632 13.0253 43.6204C13.0642 43.601 13.2468 43.5436 13.3438 43.5621C13.4408 43.5805 13.6973 43.6862 13.8333 43.6785C14.1128 43.6709 14.439 43.4571 14.9556 43.5544C15.7323 43.698 15.9148 44.2261 16.3654 44.5251C16.6726 44.7351 16.9905 44.6416 17.0371 44.6416H17.1418C17.1613 44.6416 17.3049 44.4786 17.3827 44.4865C17.5381 44.4942 17.5534 44.6224 17.6505 44.6301C17.8796 44.6572 18.3225 44.5136 18.5439 44.572C18.6096 44.5926 18.6693 44.6287 18.718 44.6773C18.7666 44.726 18.8028 44.7856 18.8235 44.8513C18.8701 44.9949 18.8311 45.1774 18.7185 45.2824C18.4779 45.5036 18.2487 45.7135 18.2022 45.8968C18.2614 45.942 18.3183 45.9902 18.3726 46.0412C16.4512 45.5516 14.6024 44.8114 12.874 43.8396V43.8373Z" fill="#CEB052"/>
<path fill-rule="evenodd" clip-rule="evenodd" d="M33.5534 36.0777C33.5534 36.0777 34.1591 35.2701 34.369 34.8699C34.5787 34.4575 33.705 29.2351 33.705 29.2351L35.4604 23.4838L35.4135 21.6119C35.4135 21.6119 35.499 19.8837 35.701 19.1341C35.9419 19.5652 36.6915 20.0857 36.8546 20.3614C36.9314 19.833 37.1922 18.7186 37.1536 17.5303C37.2972 17.7515 37.6428 19.9769 37.6428 19.9769L37.9884 21.4757L38.439 23.0681L38.94 24.7497L39.239 25.9109L39.4097 26.1905L39.5536 26.6797L39.6895 27.2081L40.0817 28.4469L40.3121 29.4642L40.4947 31.309C40.5344 31.4502 40.563 31.5944 40.5802 31.7401C40.5879 31.942 40.553 32.0585 40.553 32.0936C40.553 32.1287 40.6191 32.5362 40.592 32.8432C40.553 33.1504 40.553 33.3908 40.3121 33.6112C40.0712 33.8316 39.9199 35.149 39.9199 35.149L39.4888 34.8617C39.4888 34.8617 39.5743 34.4693 39.3724 34.1122C39.1704 33.755 38.7782 33.6811 38.5567 33.7394C38.3355 33.786 37.8929 33.8556 37.749 33.9801C37.6131 34.1042 37.2793 34.4887 36.9723 34.6636C36.5883 34.894 35.9627 34.9122 35.6288 34.9897C35.2909 35.0665 34.9182 35.2969 34.5257 35.5645C34.218 35.7637 33.8931 35.935 33.5549 36.0765L33.5534 36.0777Z" fill="#CCA847"/>
<path fill-rule="evenodd" clip-rule="evenodd" d="M33.5534 44.5631C33.5534 44.5631 33.579 44.5798 33.6284 44.6069C36.3875 43.3143 38.8596 41.4819 40.8988 39.2181C40.8765 38.4322 40.8476 37.6266 40.8159 37.3281C40.7501 36.695 40.7967 36.0504 40.7772 35.6776C40.7578 35.3049 40.5481 33.7863 40.4511 33.3941C40.3461 33.0019 40.1439 32.8076 40.1131 32.8076C40.086 32.8156 39.9227 33.5457 39.9227 33.7292C39.9227 33.9128 39.8838 34.3546 39.8838 34.4673C39.8566 34.4593 39.8451 34.3905 39.8451 34.3623C39.8062 34.4593 39.7596 34.6303 39.7402 34.6498C39.7207 34.6692 39.7673 34.4867 39.7402 34.4478C39.713 34.4089 39.6634 34.4284 39.6741 34.3313C39.6787 34.2738 39.6878 34.2167 39.7012 34.1606C39.7012 34.1606 39.5848 34.3313 39.4995 34.7663C39.414 35.1974 39.414 35.2092 39.383 35.2478C39.3559 35.2947 39.2005 35.4498 39.1926 35.5082C39.1849 35.6129 39.3364 35.7178 39.348 35.7759C39.3556 35.8732 39.212 36.3235 39.1654 36.5439C39.1188 36.7644 39.1383 37.1962 39.0886 37.4177C39.0497 37.6196 39.0118 37.7361 38.879 37.8214C38.976 37.8408 39.0692 37.868 39.0692 37.868C39.0692 37.868 39.2051 38.4427 38.8595 38.9322C38.7354 39.1029 38.7044 39.1807 38.5723 39.3361C38.3119 39.6234 38.1099 39.9505 38.0905 40.1633C38.0771 40.1005 38.068 40.0368 38.0634 39.9728C38.0634 39.9728 37.6596 40.4428 37.4886 40.7108C37.2675 41.0564 36.9605 41.037 36.8742 41.1225C36.788 41.208 36.7693 41.3631 36.7974 41.4876C36.7206 41.5068 36.5763 41.5341 36.479 41.8332C36.4324 41.9883 36.3159 42.1404 36.1334 42.2448C35.9508 42.3492 35.7294 42.3807 35.6168 42.4079C35.7138 42.435 35.7527 42.435 35.7993 42.466C35.7412 42.563 35.4731 42.7146 35.1741 42.9089C34.8751 43.0914 34.7313 43.3592 34.6575 43.534C34.5807 43.6971 34.4673 43.802 34.2848 43.8215C34.3616 43.8681 34.4753 43.9766 34.5334 44.0117C34.4479 44.0312 34.303 44.0312 34.0442 44.2526C33.7723 44.4779 33.6791 44.5439 33.5547 44.5634L33.5534 44.5631Z" fill="#C39D3C"/>
<path fill-rule="evenodd" clip-rule="evenodd" d="M28.1498 46.3628C28.2985 46.2586 28.4595 46.1732 28.6293 46.1086C29.235 45.868 29.8757 45.8214 30.1281 45.7438C30.369 45.667 30.5593 45.561 30.8583 45.5029C30.8503 45.571 30.8437 45.635 30.8365 45.6954C29.955 45.9726 29.0573 46.1955 28.1485 46.3628H28.1498Z" fill="#D2BA6B"/>
<path fill-rule="evenodd" clip-rule="evenodd" d="M39.3216 30.4311C39.3216 30.4311 39.1974 31.1028 38.976 31.5262C38.7545 31.9497 38.5152 32.5359 38.5152 32.5359C38.5166 32.4038 38.5322 32.2722 38.5618 32.1435C38.2822 32.3065 37.6025 32.699 37.4098 32.8736C37.2272 33.0366 36.9203 33.3241 36.8427 33.4601C37.0252 32.9243 37.2155 32.4427 37.2467 32.2213C36.9671 32.4233 35.662 33.499 34.9826 34.2096L32.866 35.9223C32.6218 36.054 32.3702 36.1718 32.1126 36.275C31.7478 36.4302 31.3167 36.5623 30.9982 36.6867C31.0837 36.4576 31.2194 36.2553 31.4099 36.0613C31.6119 35.8711 32.2176 35.2147 32.3108 34.9093C32.3963 34.5908 32.4157 34.4006 32.3031 34.1326C32.1981 34.1597 31.9575 34.1715 31.7944 34.2181C31.6313 34.2647 31.4565 34.4393 31.4565 34.4393C31.4565 34.4393 31.5806 33.7286 31.8487 33.0569C31.6467 33.0645 31.3011 33.1227 31.3011 33.1227C31.3011 33.1227 31.7826 32.315 32.6067 31.752C32.3543 31.8057 32.1074 31.8824 31.8689 31.9809C31.3874 32.1829 30.8592 32.4819 30.467 32.645C30.6882 32.3378 32.2416 30.1208 33.166 28.0546C34.0876 25.9926 34.432 25.4644 34.634 24.3578C34.7387 23.8102 34.7108 23.001 34.7387 22.2762C34.7658 21.5576 34.8551 20.913 34.797 20.4819C35.0377 20.7809 35.9388 21.6237 35.9698 23.5073C35.9969 25.3907 35.1078 27.9346 34.1639 29.3052C34.3943 29.3712 34.9913 29.4491 35.6047 28.3836C36.2181 27.3181 36.2107 27.0207 36.4321 26.5778C36.4592 26.7992 36.4513 26.8768 36.4513 26.8768C36.4513 26.8768 37.3447 25.7934 37.7679 24.4302C37.8534 25.0167 38.1058 25.5333 37.7095 26.609C37.3563 27.5798 36.8942 27.8168 36.8942 27.8168C36.8942 27.8168 37.1233 27.7779 37.461 27.5759C37.5193 27.7195 37.5078 27.8831 37.6048 27.941C37.7019 27.9988 37.834 28.0964 37.8534 28.1896C37.9581 28.0342 38.1212 27.836 38.1719 27.6886C38.133 27.9958 38.1058 29.339 38.2487 30.0225C38.5479 29.9954 38.8546 29.9759 39.0643 29.436C38.9207 29.9644 38.9207 30.2826 39.0177 30.7332C39.1769 30.6246 39.3205 30.4303 39.3205 30.4303L39.3216 30.4311Z" fill="#C0993A"/>
<path fill-rule="evenodd" clip-rule="evenodd" d="M29.2311 9.02535C29.2311 9.02535 28.9321 9.14951 28.4234 9.14951C27.9808 9.14951 28.1049 8.97876 27.4137 8.97876C26.3498 8.97876 22.6332 9.59316 21.9806 9.58446C21.5572 9.57678 23.4096 9.76698 23.4096 9.76698L28.1438 9.83303L29.0951 9.75623L29.4487 9.03687L29.2311 9.02535Z" fill="#A88F33"/>
<path fill-rule="evenodd" clip-rule="evenodd" d="M16.9554 18.2796C16.9554 18.2796 16.3494 18.7417 16.0932 19.0952C15.8369 19.4488 15.701 19.6815 15.4097 19.9689C15.4781 19.9716 15.5464 19.9624 15.6117 19.9418C15.6117 19.9418 15.6117 20.0186 15.5651 20.0388C15.6053 20.0343 15.6461 20.0389 15.6844 20.0522C15.7226 20.0655 15.7574 20.0871 15.7862 20.1156C15.7007 20.1622 15.4678 20.3954 15.6503 20.6712C15.7862 20.8808 16.0737 20.9 16.0737 20.9C16.0737 20.9 16.0077 21.0905 16.2834 21.071C16.8776 21.0439 17.5416 20.7835 17.8483 20.8496C18.1555 20.9264 18.3301 20.9545 18.5475 21.3314C18.7779 21.7041 18.9786 21.7625 18.9786 21.7625C18.9786 21.7625 19.1145 21.4166 19.0835 20.9003C19.195 20.6219 19.2568 20.3262 19.2661 20.0265L19.0641 18.5392L18.1827 17.4246L17.0409 18.0576L16.9554 18.2788V18.2796Z" fill="#E3C571"/>
<path fill-rule="evenodd" clip-rule="evenodd" d="M18.0388 18.0583C18.0388 18.0583 18.1243 18.2603 18.4816 18.2795C18.4427 18.365 18.4427 18.3768 18.4545 18.4426C18.4622 18.5086 18.4737 18.6057 18.4737 18.6057C18.513 18.5866 18.5486 18.5606 18.5787 18.5289C18.5981 18.6144 18.5592 18.75 18.5787 18.8473C18.5907 18.9065 18.6102 18.9639 18.6368 19.0181C18.6424 19.0048 18.6489 18.9919 18.6562 18.9794C18.6639 18.96 18.733 19.1891 18.9243 19.3634C18.9241 19.3366 18.9307 19.3102 18.9435 19.2866C18.9464 19.3353 18.9625 19.3823 18.9901 19.4226C18.9757 19.4157 18.9627 19.4066 18.9514 19.3954C18.9514 19.3954 18.9706 20.0098 19.0756 20.3275C19.0931 20.307 19.1087 20.2849 19.1221 20.2615C19.1221 20.2423 19.1145 20.4325 19.095 20.5687C19.0679 20.7046 19.0873 20.8948 19.0873 20.8948C19.1573 20.8397 19.2343 20.794 19.3162 20.7589C19.4327 20.712 19.6234 20.5684 19.7396 20.2499C19.807 20.0696 19.859 19.8838 19.895 19.6947C19.9326 19.767 19.9585 19.8447 19.9718 19.9251C19.9797 20.0221 20.1623 19.9717 20.1623 19.9717L20.2012 19.5483L20.4316 18.589L20.6413 17.9948L21.6509 16.4222L23.4752 15.0173L25.0675 15.3824L26.411 13.5571L24.0965 12.1667L21.9062 12.3959L19.9183 15.1491L18.3262 17.6464L18.0388 18.0581V18.0583Z" fill="#D8B65B"/>
<path fill-rule="evenodd" clip-rule="evenodd" d="M29.5106 14.0738C29.5106 14.0738 29.3747 14.1009 28.9825 14.3042C28.5903 14.5075 28.3185 14.572 28.1669 14.871C28.0154 15.17 28.0038 15.407 28.0038 15.407C28.0038 15.407 28.2719 15.2906 28.4273 15.2517C28.5903 15.213 28.7729 15.2245 28.7534 15.2906C28.7347 15.3359 28.7088 15.3778 28.6766 15.4147C28.6766 15.4147 28.9838 15.407 28.9756 15.5586C28.9674 15.7101 28.9175 15.8771 28.8594 15.9508C28.801 16.0276 28.5604 16.1413 28.5332 16.2306C28.4672 16.4131 28.5604 16.4208 28.5253 16.5683C28.4982 16.7121 28.3702 16.9917 27.9506 17.4809C27.5195 17.9704 27.3362 18.316 27.3362 18.316C27.3362 18.316 27.1265 17.9238 27.0177 17.5859C26.9409 17.6245 26.5285 17.8536 26.5285 17.8536L25.5731 14.5256L25.5923 14.3042C25.5923 14.3042 25.6778 14.1995 25.6973 14.0052C25.5537 13.9586 25.5342 13.9197 25.3437 13.7374C25.1533 13.5551 24.9981 13.3334 24.6799 13.1819C24.6334 13.0964 24.575 12.9802 24.342 12.9333C24.1091 12.8865 23.9693 12.8481 23.9693 12.8481C23.9693 12.8481 24.0934 12.8012 24.1518 12.7042C24.0079 12.7236 23.8917 12.7702 23.5771 12.7626C23.2586 12.7546 23.2236 12.7431 23.049 12.7702C22.8744 12.7974 22.665 12.8752 22.5869 12.6072C22.5014 12.5411 22.3189 12.5995 22.1635 12.8283C22.0081 13.0572 21.9538 13.24 21.6548 13.3293C21.6338 13.4611 21.5876 13.5877 21.5189 13.7021C21.4334 13.8459 21.2974 13.9896 21.1149 14.2031C20.8274 14.541 20.874 15.0963 20.4158 15.5197C19.9537 15.9429 20.4926 14.3467 20.4926 14.3467L21.2304 12.5803L23.3313 10.5259L26.5935 10.3047L26.912 11.9943L28.5043 12.5419L29.5101 14.0758L29.5106 14.0738Z" fill="#D3AE4D"/>
<path fill-rule="evenodd" clip-rule="evenodd" d="M30.0273 14.4464L28.6564 12.4699L27.6972 11.7318C27.6972 11.7318 27.0137 10.4739 26.9671 10.435C26.9282 10.4078 26.2836 10.3379 25.872 10.3108L25.9488 10.501C26.0386 10.5302 26.1184 10.584 26.1791 10.6564C26.3617 10.8661 26.4782 11.2621 26.0627 11.6855C26.2257 11.7436 26.2931 11.7623 26.4354 11.7436C26.2918 11.9146 25.9656 12.2797 25.9462 12.5981C25.9267 12.8582 26.0898 12.9358 26.0898 12.9358C26.0898 12.9358 25.8412 13.2233 25.8297 13.7038C25.9471 13.5714 26.0756 13.4493 26.2137 13.3387C26.5012 13.1083 26.8972 12.8493 27.1652 12.6862C27.1616 12.7546 27.1708 12.8231 27.1924 12.8882C27.1924 12.8882 27.6931 12.4765 28.114 12.6591C28.3042 12.7446 28.2187 13.0126 28.2187 13.0126C28.2187 13.0126 28.479 12.9156 28.6615 13.0981C28.8441 13.2806 29.1042 13.7504 29.2363 13.9332C29.2944 14.0187 29.4459 14.1817 29.6011 14.4339C29.813 14.7874 29.99 15.1607 30.1294 15.5485C30.1371 15.3931 30.1683 15.1758 30.4366 15.1758L30.0288 14.4457L30.0273 14.4464Z" fill="#CAA13E"/>
<path fill-rule="evenodd" clip-rule="evenodd" d="M9.47586 20.0621C9.47586 20.0621 9.37884 19.8212 9.47586 19.3515C9.57289 18.8817 9.72444 18.6603 9.77487 17.9691C9.8253 17.2779 10.2759 16.4157 10.2759 16.4157L11.5223 15.8489L12.404 16.0895L12.6641 17.2702L11.5495 17.8846C11.5495 17.8846 11.4914 18.1447 11.1767 18.3543C10.8621 18.564 10.4272 18.7271 10.3225 18.9408C10.2599 19.0717 10.2142 19.2101 10.1865 19.3525C10.1865 19.3525 9.86806 19.2864 9.67785 19.4961C9.47586 19.7099 9.48354 19.9001 9.47586 20.0631V20.0621Z" fill="#F4EFC8"/>
<path fill-rule="evenodd" clip-rule="evenodd" d="M11.9923 19.7477C11.9923 19.7477 11.8873 19.8137 11.8098 19.9781C11.733 19.8539 11.5494 19.1159 11.5417 18.4518C11.5341 17.7878 11.4944 17.6232 11.648 17.3943C11.8016 17.1654 12.4039 16.9243 12.3184 16.5121C12.2329 16.1199 11.8756 15.9569 11.4368 16.0695C11.1296 16.1463 10.901 16.7996 10.5825 17.1258C10.3416 17.3743 10.0544 17.3354 9.97681 17.4714C9.87185 17.6539 9.96887 17.8364 9.9379 17.9529C9.92996 17.9918 9.83293 18.2015 9.65809 18.4539C9.30481 18.9625 8.70679 19.6811 8.62897 20.3257C8.6561 19.9607 8.6369 19.953 8.73393 19.549L8.67556 19.452L9.05956 18.1938L9.30814 17.157L9.86365 15.4208L10.8421 13.6462L11.7936 12.582L12.7838 12.6481L12.9003 14.1354L13.4674 16.9279L14.6596 18.3958L12.7488 19.6816L11.9915 19.7477H11.9923Z" fill="#EBCC73"/>
<path fill-rule="evenodd" clip-rule="evenodd" d="M12.5865 20.2752C12.5865 20.2752 12.4234 20.3141 12.3651 20.2831C12.3067 20.2521 12.2489 20.217 12.2681 20.1781C12.2873 20.1392 12.3922 20.0734 12.3922 20.0422C12.3944 20.014 12.3854 19.986 12.3673 19.9643C12.3492 19.9425 12.3233 19.9287 12.2952 19.9257C12.2058 19.9142 12.1787 19.9723 12.1787 19.9723C12.1787 19.9723 12.0932 19.9065 12.0236 19.8955C12.0648 19.8905 12.1062 19.8878 12.1477 19.8876C12.0404 19.839 11.9266 19.8063 11.8098 19.7905C11.9068 19.7324 12.0973 19.5614 12.2215 19.5614C12.3456 19.5614 12.4234 19.5422 12.404 19.4762C12.3845 19.4101 12.2875 19.3131 12.1828 19.2742C12.2215 19.2276 12.2489 19.1577 12.1557 18.967C12.0584 18.7768 12.0973 18.6485 12.1285 18.6022C12.1557 18.5438 12.2527 18.4391 12.2993 18.3731C12.3459 18.307 12.3848 18.2177 12.4624 18.1711C12.5013 18.1439 12.6254 18.0943 12.7498 18.0469C12.8858 18.0003 12.9984 17.9419 13.076 18.0003C13.1615 18.0584 13.1226 18.1363 13.1226 18.1363C13.1226 18.1363 13.3906 18.039 13.6313 18.1634C13.8721 18.2796 14.4586 18.3536 14.4586 18.3536L14.6688 18.777L13.2785 19.9692L12.7038 20.2567L12.5873 20.2759L12.5865 20.2752Z" fill="#E5C66B"/>
<path fill-rule="evenodd" clip-rule="evenodd" d="M14.5165 18.3262C14.5165 18.3262 14.0854 18.6137 13.9884 18.7184C14.0465 18.7263 14.1435 18.7653 14.1046 18.8234C14.058 18.8815 13.7784 19.0835 13.623 19.2739C13.46 19.4641 13.3046 19.705 13.2503 19.8215C13.1922 19.9262 12.7493 20.2332 12.598 20.2718C12.9165 20.2718 13.5573 19.8796 13.7979 19.8796C13.7902 19.9961 13.8639 20.1282 13.9999 20.1397C14.1358 20.1512 14.528 20.2252 15.0561 19.8991C15.5843 19.5806 15.4097 19.3436 15.6309 19.1884C16.0543 18.9086 16.225 18.66 16.458 18.5049C16.691 18.3498 16.8115 18.3144 16.8115 18.3144C16.8115 18.3144 16.8192 18.198 16.8883 18.2097C16.9072 18.2119 16.9252 18.2192 16.9403 18.2309C16.9554 18.2425 16.967 18.258 16.9738 18.2758C16.9738 18.2758 17.3778 17.9883 17.8954 17.9107C17.8834 17.9053 17.8737 17.8957 17.8683 17.8836C17.8683 17.8836 17.907 17.8641 17.9149 17.8447C17.9149 17.8447 17.942 17.8058 17.9615 17.8252C17.9809 17.8447 18.0081 17.9883 18.047 18.0467C18.1325 18.0078 18.2956 17.6427 18.2956 17.6427L18.688 16.5204V15.4951L18.3808 15.5535L16.0768 16.5319L14.6785 17.9806L14.5155 18.3262H14.5165Z" fill="#E6BD62"/>
<path fill-rule="evenodd" clip-rule="evenodd" d="M21.1494 13.2972C21.2741 13.267 21.3935 13.2185 21.504 13.1534C21.4574 13.2778 21.4574 13.4137 21.2554 13.7089C21.0534 14.004 21.0457 14.0468 20.8827 14.3535C20.7196 14.672 20.7002 15.1302 20.5448 15.3319C20.6144 15.2981 20.6891 15.2759 20.7659 15.2661C20.7659 15.2661 20.6108 15.4021 20.5448 15.5457C20.4787 15.6893 20.3622 15.9883 20.075 16.1711C19.7878 16.3539 19.4225 16.4701 19.0303 16.9012C18.6378 17.3244 18.2341 17.8605 18.0319 18.0532C18.1368 17.8707 18.2804 17.5056 18.3193 17.265C18.3583 17.0244 18.3114 16.7366 18.3775 16.4184C18.4435 16.1002 18.4435 15.8708 18.7615 15.3153C19.0794 14.7598 19.6237 12.8298 19.6237 12.8298L20.7964 12.457L21.1499 13.2959L21.1494 13.2972Z" fill="#B6933F"/>
<path fill-rule="evenodd" clip-rule="evenodd" d="M20.3029 12.5864C20.3029 12.5864 19.9496 13.0951 19.8526 13.5456C19.7555 13.9962 19.8446 13.9573 19.7865 14.1787C19.7517 14.3137 19.7517 14.4554 19.7865 14.5904C19.9089 14.3933 20.0764 14.2281 20.2752 14.1086C20.6093 13.9069 20.8812 13.763 21.0432 13.5922C21.2063 13.4097 21.3422 13.1107 21.6955 12.8816C21.5519 12.8621 21.3499 12.7961 21.3115 12.8048C21.4554 12.6417 21.8862 12.3931 22.3212 12.0941C22.7523 11.7869 22.7251 11.663 23.4243 11.3563C23.1951 11.3952 23.0863 11.3369 22.8959 11.3563C22.9727 11.1933 23.2415 11.1154 23.5103 10.8477C23.7791 10.5799 23.3395 10.1836 23.3395 10.1836L21.2915 11.4224L20.3013 12.5874L20.3029 12.5864Z" fill="#C49937"/>
<path fill-rule="evenodd" clip-rule="evenodd" d="M14.7456 11.662L14.7922 11.2893L15.3787 10.3495L15.9923 8.69906V6.44267L15.9457 5.13784L16.0428 4.28331L16.1165 4.0117L16.1943 3.90674L16.695 4.16683L17.3865 5.10661L17.4525 6.92037L16.7805 9.78245L14.8621 11.8758L14.7456 11.662Z" fill="#DFC068"/>
<path fill-rule="evenodd" clip-rule="evenodd" d="M16.2719 3.80186C16.2719 3.80186 15.9647 3.8098 15.8991 5.08749C15.8336 6.36519 15.8019 7.03693 15.7553 7.67002C15.7087 8.30311 15.6001 8.68737 15.5456 9.06036C15.4911 9.43335 15.4601 9.94177 15.2855 10.2526C15.2087 10.3962 15.0446 10.8467 14.6601 11.1846C14.229 11.5574 13.5849 11.8177 13.4874 11.8372C13.3164 11.8758 12.4503 11.9614 12.097 12.1557C11.9729 12.2217 11.7591 12.2993 11.5223 12.5207C11.0523 12.9439 10.4271 13.7011 9.97658 14.6138C9.28538 15.977 8.59418 19.8254 8.59418 19.8254L8.74957 19.5653C8.74957 19.5653 8.76903 19.2197 9.11463 18.6138C9.45255 18.0081 9.35552 17.3284 9.82528 16.1672C10.0078 15.7246 10.2369 15.1498 10.5165 14.6604C10.9594 13.8642 11.4952 13.1807 12.0351 12.8079C12.9165 12.2022 13.8875 12.0702 13.8875 12.0702L14.9322 11.379C14.9322 11.379 15.1148 11.0257 15.3556 10.6217C15.6933 10.0549 16.1236 9.42183 16.2176 8.50151C16.3615 7.13831 16.0156 6.24513 16.0351 5.43745C16.0545 4.62977 16.0622 4.03559 16.2255 3.89172C16.3889 3.74785 16.2721 3.80237 16.2721 3.80237L16.2719 3.80186Z" fill="#A88F33"/>
<path fill-rule="evenodd" clip-rule="evenodd" d="M16.2719 9.89891C16.2719 9.89891 16.7327 8.76483 16.9436 7.75901C16.9825 7.55702 17.0601 7.35529 17.0796 7.19222C17.1766 6.24067 17.2037 5.84848 17.0796 5.32803C16.9825 4.94403 16.6098 4.59792 16.4155 4.32963C16.2253 4.04982 16.1359 3.94563 16.1748 3.88675C16.2138 3.82787 16.3651 3.73161 16.5125 3.74313C16.6693 3.7477 16.8234 3.78409 16.9657 3.8501C17.1079 3.91612 17.2352 4.01037 17.3399 4.12713C17.6389 4.47273 17.8757 5.64573 17.8757 5.64573L18.1248 7.1935L18.7579 9.14294L16.2724 9.90045L16.2719 9.89891Z" fill="#C99E3D"/>
<path fill-rule="evenodd" clip-rule="evenodd" d="M20.6019 8.71871C20.6019 8.71871 20.5163 8.75737 20.3612 8.71871C20.3678 8.78211 20.3568 8.84611 20.3294 8.90365C20.302 8.96119 20.2592 9.01006 20.2058 9.04486C20.0427 8.97881 18.5162 9.11091 18.5162 9.11091C18.5162 9.11091 17.8056 8.98649 17.5841 8.04671C17.429 7.42131 17.7006 6.55935 17.6113 5.99231C17.4753 5.15724 17.2851 4.99391 17.2657 4.73407C17.2462 4.47423 17.2267 4.40793 17.2267 4.24486C17.1412 4.2254 17.0908 4.19827 17.0056 4.19827C16.9861 4.12147 17.0248 4.05439 16.9395 3.91846C16.9861 3.93791 17.3046 3.97683 17.6773 4.33011C17.9845 4.61759 17.9845 4.7223 18.0308 4.78067C18.089 4.83878 18.559 5.24147 18.761 5.64287C18.9629 6.04428 19.3551 7.32428 19.4445 7.53395C19.4716 7.61945 19.53 7.70495 19.6749 7.899C19.9002 8.17881 20.2301 8.6414 20.6029 8.7182L20.6019 8.71871Z" fill="#B58634"/>
<path fill-rule="evenodd" clip-rule="evenodd" d="M18.0856 4.80005C18.3209 5.18008 18.5322 5.5744 18.7185 5.98072C18.9476 6.49707 19.0835 6.9205 19.371 7.2661C19.2156 6.81579 18.9399 5.93029 18.7768 5.61566C18.5943 5.28286 18.2216 4.92446 18.0856 4.8003V4.80005Z" fill="#A88F33"/>
<path fill-rule="evenodd" clip-rule="evenodd" d="M15.4447 11.1846C15.4447 11.1846 15.0525 11.2816 14.3224 11.6661C14.0815 11.7903 13.8527 11.895 13.6312 11.9923C13.056 12.2524 12.439 12.4927 11.9496 12.6253C11.9885 12.6719 12.0077 12.6911 12.0077 12.6911C12.0077 12.6911 12.0077 12.8816 12.1127 12.9901C12.0545 13.0485 11.2776 13.5766 11.507 15.3436C11.6621 15.2854 11.8446 15.2076 11.8718 15.2076C11.9186 15.2156 11.9301 15.3436 11.9882 15.3436C12.0463 15.3436 12.2368 15.2668 12.4388 15.0056C12.4311 15.1106 12.3146 16.1669 12.9398 16.8775C13.0563 16.7416 13.3514 16.291 13.3514 16.291L13.3591 16.1474C13.3591 16.1474 13.3862 15.6464 13.5496 15.1882C13.7129 14.7299 14.0311 14.392 14.0311 14.392L15.6928 12.0191L15.4442 11.1843L15.4447 11.1846Z" fill="#E6C367"/>
<path fill-rule="evenodd" clip-rule="evenodd" d="M13.8913 14.6688C13.8152 14.7225 13.7314 14.7644 13.6427 14.7929C13.6156 14.6959 13.5767 14.3618 13.8058 14.0357C14.0738 13.6432 14.6601 13.1345 14.8231 12.7301C14.9281 12.4697 14.8815 11.8174 15.8136 10.9823C16.7457 10.1473 17.1105 9.86004 17.1105 9.86004L18.6173 9.10278L20.4697 9.8329L19.5494 13.44L18.8349 15.1296L15.9933 14.5938L13.891 14.6688H13.8913Z" fill="#DCBA5A"/>
<path fill-rule="evenodd" clip-rule="evenodd" d="M14.976 13.6894L15.3296 13.2467V12.9321C15.3296 12.9321 15.7217 12.8272 16.1449 12.3961C16.5681 11.9649 17.1546 11.1378 17.6712 11.1882C18.1878 11.2466 18.2382 12.3106 18.2577 12.6098C18.2771 12.9091 18.3432 13.5883 18.4479 13.9536C18.5644 14.3186 17.1897 15.701 17.1897 15.701L16.256 16.4117L14.976 13.6894Z" fill="#E9CE77"/>
<path fill-rule="evenodd" clip-rule="evenodd" d="M16.0699 17.3748C16.0699 17.3748 16.3574 16.9243 16.1467 16.8272C16.2708 16.5477 16.5 16.2525 16.5 16.2525C16.5 16.2525 16.663 15.8488 17.1912 15.3516C17.7193 14.8545 18.0457 14.5243 18.1312 14.1904C18.1839 13.9729 18.2126 13.7502 18.2167 13.5264C18.2738 13.573 18.3348 13.6146 18.3992 13.6505C18.4847 13.6894 18.8884 14.0233 18.8303 14.6953C18.7722 15.3673 18.5231 15.6468 18.5231 15.6468C18.5231 15.6468 18.2825 15.8875 18.1117 16.0119C17.9289 16.136 17.8631 16.2796 17.5562 16.2914C17.5877 16.2663 17.6232 16.2466 17.6612 16.2331C17.6612 16.2331 17.3427 16.1944 17.1717 16.3495C17.0007 16.5047 16.6372 16.9826 16.4546 17.1265C16.2721 17.243 16.0707 17.3751 16.0707 17.3751L16.0699 17.3748Z" fill="#CDAE50"/>
<path fill-rule="evenodd" clip-rule="evenodd" d="M28.9825 9.82128C28.5237 9.65406 28.0415 9.55974 27.5535 9.54173C26.7379 9.51459 25.5457 9.56118 24.3768 9.56886C23.1186 9.57654 21.9768 9.13776 20.3924 9.06019C20.1323 8.9048 19.4708 8.22512 17.4059 9.66589C17.5301 9.65821 18.9051 9.34742 19.3825 9.9457C19.8641 10.5399 19.7281 11.5495 19.6623 11.7902C19.5379 12.3263 19.1339 13.1068 18.9711 13.6544C18.8083 14.202 18.8467 14.4897 18.7302 14.8737C18.6138 15.2577 18.3575 15.4484 18.5088 15.8911C18.7108 15.7669 18.816 15.7669 19.1534 15.0097C19.4908 14.2524 19.4214 13.7125 19.9808 13.0717C20.5284 12.4271 21.44 11.5454 21.7866 11.324C22.1332 11.1026 24.8855 9.67357 27.7673 11.0368C28.4623 10.963 28.9828 9.82103 28.9828 9.82103L28.9825 9.82128Z" fill="#D2A83E"/>
<path fill-rule="evenodd" clip-rule="evenodd" d="M18.5669 9.29285C18.5641 9.26366 18.5576 9.23494 18.5477 9.20734C18.5208 9.15055 18.4854 9.09816 18.4428 9.05195C18.4428 9.05195 17.7593 8.92779 17.4137 8.96644C16.8077 9.03249 16.2601 9.78206 16.0038 10.1666C15.7476 10.5511 15.4291 11.145 15.0835 11.452C15.0873 11.4221 15.0804 11.3918 15.0641 11.3665C15.0641 11.3665 15.0835 11.3936 15.0449 11.4325C15.0062 11.4714 15.0059 11.4906 15.0254 11.5093L15.0838 11.5674C15.103 11.5674 15.639 11.3265 16.3692 10.6458C17.1459 9.93515 17.7401 9.57061 18.0508 9.44568C18.2166 9.37525 18.3898 9.32397 18.5672 9.29285H18.5669Z" fill="#C29637"/>
<path fill-rule="evenodd" clip-rule="evenodd" d="M31.8254 6.3728C31.8254 6.3728 31.701 6.52794 31.5456 6.69895C31.2 7.064 30.7494 7.47539 30.3649 7.89882C30.0001 8.30279 29.5885 8.61741 29.1261 9.14554C28.6638 9.67367 28.1277 10.2599 27.9921 10.4309C27.8679 10.6019 27.7709 10.8815 27.7709 11.0251C27.7048 10.9785 27.6273 10.9281 27.6273 10.9281C27.6599 10.989 27.699 11.0464 27.7437 11.0991C27.8408 11.235 27.9921 11.4063 28.0699 11.5107C28.1654 11.6437 28.2339 11.7941 28.2716 11.9533C28.3182 11.961 28.6172 12.0194 28.9902 11.4058C29.3632 10.7921 29.8522 10.1204 29.8522 10.1204L30.6289 8.96685L31.1183 7.98842L31.7327 6.89325L31.8262 6.3728H31.8254Z" fill="#AC8132"/>
<path fill-rule="evenodd" clip-rule="evenodd" d="M32.6216 5.58838C32.6216 5.58838 32.1515 5.97238 31.969 6.20279C31.7865 6.43319 31.3546 7.03787 31.3546 7.03787L31.51 7.01841L32.2985 6.31952L32.6057 5.77193L32.6213 5.5894L32.6216 5.58838Z" fill="#A88F33"/>
<path fill-rule="evenodd" clip-rule="evenodd" d="M32.4777 36.4505C32.4777 36.4505 32.47 36.1321 32.6487 35.9419C32.8312 35.7514 33.2933 35.4718 33.7439 34.4233C34.1944 33.3747 34.2446 33.1379 34.2446 33.1379C34.2446 33.1379 33.4369 33.8291 32.939 33.9922C33.0555 33.7513 33.1215 33.5805 33.1799 33.4561C33.1139 33.398 32.8343 33.3319 32.8072 33.301C32.9623 33.1456 33.0478 32.7649 33.3624 32.5125C33.7664 32.2053 34.5042 31.6774 35.0776 31.2069C35.6511 30.7364 36.7785 29.642 36.9224 29.3235C37.0079 29.4476 37.0271 29.5252 37.0271 29.5252C37.0271 29.5252 36.4603 30.2633 36.1651 30.733C35.9048 31.137 35.9242 31.3661 35.9242 31.3661L36.4603 31.1357C36.4603 31.1357 36.6154 31.7104 35.9127 32.5844C36.2199 32.4679 36.3438 32.5378 36.5184 32.4405C36.2309 32.6233 35.8349 32.8719 35.4621 33.5552C35.0971 34.2387 34.5999 35.0348 33.7613 35.5317C32.9457 36.056 32.4756 36.4482 32.4756 36.4482L32.4777 36.4505Z" fill="#A67A2E"/>
<path fill-rule="evenodd" clip-rule="evenodd" d="M30.3728 10.2253C30.3728 10.2253 30.0544 10.8891 30.0078 11.4057C30.0001 11.5301 29.9689 11.6272 29.9689 11.7708C29.9612 12.2328 29.996 12.7495 29.8921 12.9901C29.8532 12.8931 29.8337 12.827 29.7948 12.7884C29.7367 12.9514 29.6317 13.4601 29.5462 13.6503C29.5076 13.5262 29.4221 13.0951 29.43 12.5864C29.4379 12.0777 29.4492 11.9804 29.4492 11.8757C29.43 12.0309 29.325 12.2408 29.2861 12.3649C29.228 12.2602 29.162 12.1243 29.0842 12.0117C29.0376 12.0885 28.9795 12.2019 28.929 12.2602C28.9211 12.2136 28.9019 12.0892 28.8901 11.9146C28.8824 11.7127 28.8707 11.4526 28.8824 11.398C28.9016 11.2933 29.065 10.8817 29.4105 10.5049C29.8222 10.0543 30.2456 9.18851 30.3698 8.92048C30.4939 8.65245 31.022 7.53809 31.022 7.53809H31.426L30.8395 8.87389C30.8395 8.87389 30.4862 9.604 30.3037 9.87228C30.1212 10.1406 29.7367 10.9093 29.5657 11.2083C29.6898 11.0453 29.7948 10.9598 29.9192 10.8044C30.0395 10.6956 30.3733 10.2258 30.3733 10.2258L30.3728 10.2253Z" fill="#8C6228"/>
<path fill-rule="evenodd" clip-rule="evenodd" d="M32.6292 5.53784C32.5632 5.74093 32.459 5.92951 32.322 6.09336C32.0811 6.38085 31.5645 6.76511 31.3124 7.07179C31.082 7.3708 30.6212 8.18642 30.8306 9.15333C30.9074 8.94367 31.052 8.52818 31.4365 8.05816C31.821 7.58815 32.2327 7.0485 32.4349 6.62917C32.6366 6.20575 32.6638 5.87192 32.6638 5.87192L32.7406 5.7749L32.694 5.55346L32.6279 5.53784H32.6292Z" fill="#CBA94C"/>
<path fill-rule="evenodd" clip-rule="evenodd" d="M40.4933 31.297C40.4933 31.297 40.3379 30.8738 40.2913 30.4893C40.2447 30.1048 40.3681 30.0285 40.2253 29.5884C40.1398 29.3204 39.9846 29.358 39.9457 29.3204C39.9068 29.2827 39.8797 28.8778 39.8874 28.6563C39.895 28.4349 39.8797 28.1476 39.8408 28.0232C39.7827 27.9766 39.7438 27.9377 39.6582 27.6505C39.5612 27.363 39.5146 27.2194 39.468 27.1341C39.4214 27.0489 39.2853 26.9711 39.2853 26.8856C39.2853 26.7146 39.4406 26.6255 39.4406 26.5784C39.433 26.4813 39.3165 26.5592 39.2853 26.5318C39.2466 26.4852 39.3825 26.2056 39.3321 26.1667C39.3126 26.1475 39.1767 26.3106 39.1416 26.264C39.1027 26.2171 39.0561 25.7551 38.9862 25.4484C38.9205 25.1494 38.8503 24.932 38.8426 24.8427C38.8349 24.7572 38.3066 23.2504 38.1786 22.8853C38.0754 22.5768 37.9886 22.2631 37.9185 21.9455C37.8796 21.763 37.8524 21.39 37.833 21.4289C37.8135 21.4678 37.8253 21.658 37.794 21.6504C37.7669 21.6424 37.6699 20.9786 37.6389 20.8737C37.6118 20.7687 37.4484 20.4129 37.4085 20.1553C37.3696 19.895 37.2844 19.2153 37.226 18.7532C37.1676 18.2911 37.1405 18.1009 37.1405 17.9852C37.15 17.7022 37.1344 17.4189 37.0939 17.1386C37.0171 16.6492 36.8635 16.055 36.7288 15.7096C36.4687 15.0571 35.7773 13.3872 35.6536 12.9717C35.6536 12.8668 35.7896 12.9251 35.7896 12.9251C35.7896 12.9251 36.1272 13.7717 36.3758 14.424C36.6167 15.0765 36.8458 15.6513 36.9042 15.7096C36.9508 15.7677 37.3158 16.4085 37.4789 17.4571C37.642 18.5057 37.7001 19.4726 37.7974 20.1172C37.844 20.4244 37.8829 20.7503 37.9799 21.0764C38.0846 21.43 38.2477 21.795 38.4614 22.3541C38.644 22.8241 38.7799 23.2163 38.8536 23.5542C38.9391 23.9853 38.9391 24.3115 38.9896 24.5252C39.0364 24.7078 39.1061 25.0726 39.2694 25.6004C39.4327 26.1283 39.6731 26.8083 39.8362 27.2314C40.1549 28.078 40.297 28.7848 40.3451 29.1617C40.3876 29.55 40.5315 30.8938 40.4926 31.2975L40.4933 31.297Z" fill="#A88F33"/>
<path fill-rule="evenodd" clip-rule="evenodd" d="M32.6487 5.49128L32.6292 5.53787C32.6292 5.53787 32.6873 5.55733 32.6758 5.63515C32.6766 5.74163 32.6701 5.84803 32.6564 5.95362C32.6372 6.08955 32.5982 6.19426 32.5906 6.27976C32.5906 6.46229 32.6177 6.67196 32.3602 7.19241C32.2834 7.33602 32.236 7.46018 32.1971 7.54569C32.1001 7.75535 32.0806 7.78658 31.9951 7.88361C32.1311 7.80681 32.6205 7.49961 32.8688 7.54569C32.6981 7.64271 32.4377 7.83318 32.2747 8.08175C32.3136 8.08943 32.4766 8.12066 32.7355 8.08175C33.1666 8.0157 33.6481 7.86031 34.0712 7.89129C34.5336 7.91842 34.351 7.33602 34.351 7.33602L33.8175 6.16328L32.8079 5.45288L32.6487 5.49154V5.49128Z" fill="#BE9C44"/>
<path fill-rule="evenodd" clip-rule="evenodd" d="M35.2816 14.2757C35.2816 14.2757 34.8311 13.8252 34.6486 12.2789C34.466 10.7255 34.5049 8.43893 34.5049 8.43893L34.1399 7.54575C34.1399 7.54575 34.0631 6.95157 33.8719 6.73039C33.6806 6.5092 33.3051 6.13621 33.1341 5.95368C32.9631 5.77115 32.769 5.52258 32.6525 5.48367C32.7106 5.38664 32.971 4.83906 33.9689 4.83138C34.9668 4.8237 35.2745 5.37896 35.3787 5.58095C35.4829 5.78293 35.9534 6.65615 36.128 8.32015C36.2911 9.9821 36.299 10.1065 36.2719 10.6812C36.2524 10.9997 36.1474 11.7375 35.9647 12.5257C35.7977 13.1939 35.6152 13.9396 35.2811 14.2773L35.2816 14.2757Z" fill="#A17C34"/>
<path fill-rule="evenodd" clip-rule="evenodd" d="M33.8688 15.6001C34.0189 15.6109 34.1689 15.5771 34.2999 15.5028C34.4435 15.4951 34.964 15.5612 35.3639 15.0525C35.391 15.1687 35.4612 15.4836 35.2784 15.7631C35.3756 15.6659 35.5193 15.6272 35.5387 15.6001C35.5464 15.7437 35.6823 16.1863 35.1076 17.262C35.2627 17.0913 35.4453 17.0989 35.6084 17.0795C35.6163 17.2815 35.7248 17.9609 35.4376 18.3262C35.2474 18.5748 34.9366 18.497 34.9366 18.497C34.9411 18.4427 34.9411 18.3881 34.9366 18.3339C34.9289 18.2289 34.89 18.1242 34.9174 18.0543C34.7672 17.9857 34.6304 17.891 34.5134 17.7745C34.1755 17.4561 33.7367 16.9126 33.7057 16.5086C33.6668 16.0581 34.0708 15.961 34.0708 15.961C34.0369 15.9308 34.0081 15.8953 33.9853 15.8561C33.9658 15.7903 33.9464 15.6853 33.8688 15.6001Z" fill="#8C6228"/>
<path fill-rule="evenodd" clip-rule="evenodd" d="M30.8736 10.7146C30.8736 10.7146 30.8542 10.6875 30.7495 10.8117C30.7689 10.6875 30.7884 10.5708 30.796 10.4581C30.8456 10.3539 30.9097 10.2571 30.9865 10.1709C30.9281 10.2871 30.8892 10.3921 30.8892 10.3921C30.8892 10.3921 31.0331 10.1241 31.2428 9.96098C31.3864 9.8445 31.5689 9.79023 31.6465 9.68143C31.732 9.56495 31.7125 9.5455 31.732 9.52604C31.732 9.52604 31.9224 9.40188 32.2138 9.03657C32.2524 8.98998 32.3108 8.93954 32.3497 8.89295C32.4155 8.86582 32.5709 8.79593 32.7534 8.70249C32.9439 8.59778 33.1574 8.45417 33.2894 8.39529C33.5495 8.27881 33.8255 8.29058 33.9535 8.1078C34.0505 8.08066 34.1552 7.78934 34.136 7.54102C34.2796 7.59913 35.0174 8.05737 35.2701 9.05935C35.4526 9.77001 35.1262 10.8652 34.9903 11.3936C34.8544 11.9219 34.8352 12.3139 34.6447 12.5545C34.4038 12.8732 33.6274 13.3225 33.4369 13.545C33.2738 13.7275 32.7846 14.1896 32.8038 14.5234C32.8233 14.772 33.13 14.9074 33.1963 14.9545C33.2626 15.0016 33.2621 15.0595 33.3865 15.0313C33.5109 15.0032 33.5572 14.9458 33.6079 14.9458C33.666 14.9535 33.666 14.9653 33.6932 14.9653C33.7128 14.9647 33.7324 14.962 33.7515 14.9573C33.7515 14.9573 33.7321 15.3109 32.9049 15.4181C32.8466 15.4261 32.7885 15.4453 32.7145 15.457C32.8118 15.4105 32.8699 15.4105 32.9748 15.2668C32.8583 15.2474 32.5243 15.2279 32.4388 15.2008C32.4659 15.1542 32.5552 15.0298 32.629 14.9717C32.695 14.9136 32.6213 14.8949 32.5632 14.9251C32.4631 14.9932 32.3671 15.067 32.2757 15.1463C32.1787 15.2318 32.0932 15.3482 31.9378 15.4535C31.8912 15.2981 31.8989 15.0029 32.0817 14.7894C32.0348 14.7971 31.9455 14.933 31.8602 14.9059C31.8448 14.7642 31.854 14.621 31.8874 14.4825C31.9339 14.3076 32.1864 14.0009 32.1864 14.0009L33.4057 11.8221L33.6658 10.1717L30.8736 10.7141V10.7146Z" fill="#92723A"/>
<path fill-rule="evenodd" clip-rule="evenodd" d="M30.8079 10.8077C30.8079 10.8077 30.7418 10.8543 30.8739 10.9436C30.8545 10.9708 30.8079 11.0678 30.7495 11.1338C30.6837 11.2106 30.6136 11.2583 30.5864 11.3243C30.5283 11.4602 30.4817 11.5534 30.4817 11.6118C30.4817 11.6702 30.4623 12.0429 30.2992 12.2835C30.2408 12.369 30.1748 12.5127 30.1282 12.6097C30.0311 12.7804 29.9456 12.9169 29.9262 12.9937C29.8875 13.1296 29.8604 13.5023 29.8604 13.5023C29.8604 13.5023 29.9459 13.3974 29.9769 13.3587C29.93 13.4558 29.8796 13.5605 29.8058 13.6383C29.8524 13.5994 29.9884 13.5023 30.2175 13.3004C30.536 13.0326 31.0331 12.582 31.6391 12.2252C31.4563 12.2912 31.3012 12.2912 31.177 12.3107C31.274 12.2136 32.1478 11.1884 32.6061 11.0913C32.6339 11.0561 32.6477 11.0118 32.645 10.9669L32.2525 10.9283L31.4563 11.099L31.3401 10.4846L30.8079 10.8069V10.8077Z" fill="#B18E3E"/>
<path fill-rule="evenodd" clip-rule="evenodd" d="M32.074 14.3031C32.074 14.3031 31.9691 14.4078 31.872 14.6681C31.7973 14.5901 31.7333 14.5026 31.6816 14.4078C31.5379 14.1672 31.3168 13.8602 30.8002 14.0351C30.7925 13.872 30.7807 13.7865 30.8002 13.67C30.8857 13.6508 31.1458 13.4411 31.4059 13.1342C31.5886 12.9245 31.7594 12.6836 31.8759 12.3769C31.9527 12.3186 32.0855 12.2216 32.2599 12.1089C32.5084 11.9382 32.8074 11.7049 32.854 11.4449C32.7376 11.4914 32.489 11.6079 32.116 11.5887C32.2599 11.5227 32.481 11.4528 32.4539 11.1653C32.5123 11.1264 32.5589 11.0993 32.5589 11.0993C32.5151 11.0846 32.4691 11.0781 32.4229 11.0798C32.415 11.0527 32.4035 11.014 32.3374 11.0332C32.2714 11.0524 32.2606 11.0527 32.2519 11.0798C32.2248 11.0877 32.1354 11.0798 32.0694 11.1266C32.0034 11.1735 31.8208 11.3284 31.7509 11.3555C31.7781 11.3089 31.8167 11.2393 31.8167 11.2393C31.8167 11.2393 31.6265 11.2585 31.4906 11.3161C31.242 11.4016 30.9548 11.557 30.6635 11.7083C30.6906 11.6617 30.7024 11.6315 30.7216 11.6228C30.7408 11.6141 30.7876 11.6036 30.7876 11.5956C30.7876 11.5877 30.7684 11.5188 30.7799 11.4909C30.867 11.3064 30.9698 11.1297 31.0871 10.9628C31.2231 10.78 31.2502 10.5199 31.2502 10.5199L31.8444 10.2209L33.5143 9.83691L34.5979 9.90296L34.462 10.6525L33.822 11.9612L33.2744 13.1534L32.649 13.8838L32.0743 14.3031H32.074Z" fill="#543E26"/>
<path fill-rule="evenodd" clip-rule="evenodd" d="M34.7806 11.0593C34.7806 11.0593 34.1281 11.867 33.9456 11.9914C34.0621 11.7428 34.7806 10.2631 35.0407 9.8515C34.9826 9.8049 34.9048 9.8049 35.0873 9.0835C34.9322 9.4483 34.8777 9.63876 34.7497 9.73578C34.6217 9.83281 34.6058 9.80183 34.5193 9.80183C34.5356 9.77228 34.5423 9.73836 34.5385 9.70481C34.5385 9.70481 33.9909 9.63876 33.6169 9.63876C33.2429 9.63876 32.5025 9.84074 32.0906 10.0038C31.7645 10.1398 31.582 10.1398 31.4655 10.225C31.349 10.322 31.283 10.427 31.2246 10.4541C31.178 10.4813 30.9568 10.5511 30.9061 10.6249C30.8595 10.7017 30.782 10.7879 30.782 10.8074C30.782 10.8269 30.7625 10.8542 30.8209 10.8345C30.8401 10.8269 30.984 10.749 31.147 10.652C31.3682 10.5278 31.6362 10.3842 31.8305 10.2987C32.3858 10.0773 32.5606 10.1162 32.809 10.0696C33.0691 10.023 33.442 9.91422 33.6904 9.91422C33.9389 9.90654 34.4089 9.91422 34.5177 9.93367C34.4711 9.97258 34.4322 10.0192 34.4517 10.1822C34.4517 10.2288 34.4128 10.2793 34.3749 10.3919C34.2587 10.7104 34.0372 11.2385 33.9141 11.5065C33.7433 11.8713 33.5493 12.1783 33.4533 12.3685C33.3573 12.5587 33.1461 13.0597 32.937 13.3277C32.7278 13.5958 32.6185 13.7588 32.553 13.8172C32.4874 13.8756 32.0169 14.2209 32.052 14.3453C32.1375 14.3182 32.6774 14.1149 33.0693 13.6736C33.4612 13.2322 33.5393 12.9629 33.846 12.722C34.1527 12.4811 34.3936 12.0774 34.5372 11.7436C34.6575 11.4328 34.6304 11.3358 34.7817 11.0601L34.7806 11.0593Z" fill="#806031"/>
<path fill-rule="evenodd" clip-rule="evenodd" d="M20.7186 17.0875C20.7186 17.0875 20.6331 17.4408 20.4388 17.6156C20.2486 17.7866 19.9107 17.9341 19.872 18.2216C19.8254 18.5088 20.2099 18.6527 20.2099 18.6527C20.2099 18.6527 20 18.9983 20 19.2584C20 19.5264 19.9923 19.5768 20.0195 19.8331C19.9887 19.8529 19.9625 19.8791 19.9427 19.9099C19.9427 19.9099 19.9619 20.1585 20.1523 20.3136C20.3428 20.4687 20.5056 20.5622 20.6027 20.5233C20.6175 20.5549 20.6305 20.5874 20.6416 20.6205C20.6416 20.6205 20.7854 20.2555 20.8825 19.937C20.9795 19.6109 21.065 19.6572 21.1037 19.2184C21.1423 18.7796 21.5645 18.0262 21.5645 18.0262L21.8525 17.3824L21.3827 17.0173L20.7186 17.0872V17.0875Z" fill="#B6903C"/>
<path fill-rule="evenodd" clip-rule="evenodd" d="M21.5923 17.7202C21.4955 17.8197 21.406 17.9261 21.3248 18.0387C21.2006 18.2097 21.1036 18.3648 20.9211 18.4311C20.7386 18.4974 20.6221 18.4969 20.6336 18.6797C20.6451 18.8625 20.8161 18.9398 20.9132 19.033C21.0181 19.13 21.1036 19.2931 21.057 19.4759C21.1151 19.4487 21.2201 19.4175 21.3171 19.2078C21.4141 18.9982 22.0928 17.7205 22.0928 17.7205H21.5923V17.7202Z" fill="#685026"/>
<path fill-rule="evenodd" clip-rule="evenodd" d="M24.2688 14.7728C24.2688 14.7728 24.3269 14.6176 24.2688 14.505C24.2104 14.3885 23.8572 14.3496 23.6823 14.2175C23.4998 14.0816 23.2783 13.9871 23.0958 14.0468C23.1229 13.9807 23.2317 13.8368 23.1424 13.8059C23.0569 13.7787 22.7387 13.9223 22.6532 13.9884C22.5677 14.0544 22.3734 14.132 22.3347 14.1789C22.2961 14.2257 22.2298 14.3148 22.1909 14.2759C22.1519 14.2487 22.1327 14.1789 22.0667 14.2175C22.0006 14.2562 21.6827 14.5165 21.6241 14.6681C21.5654 14.8196 21.4336 15.1575 21.0376 15.5418C20.6415 15.926 20.4705 16.1749 20.587 16.3185C20.7035 16.4621 20.758 16.3574 20.7775 16.4816C20.7924 16.6034 20.7859 16.727 20.758 16.8466C20.7114 17.0486 20.6339 17.2388 20.7386 17.2777C21.0066 17.3632 21.267 17.2009 21.3251 17.2506C21.4415 17.3553 21.259 17.7321 21.5347 17.8058C21.8145 17.8826 22.0902 17.7398 22.0902 17.7398L23.1076 17.1922L24.0863 16.6759L24.587 15.6854L24.3185 14.8583L24.2673 14.7728H24.2688Z" fill="#D4B968"/>
<path fill-rule="evenodd" clip-rule="evenodd" d="M23.3088 17.1378C23.3088 17.1378 23.1378 16.8777 23.3477 16.6483C23.5577 16.419 23.8564 16.3222 23.9729 16.1786C23.9507 16.1512 23.921 16.131 23.8874 16.1205C23.9647 15.9821 24.0827 15.8708 24.2253 15.8017C24.1672 15.7436 24.0894 15.697 24.0041 15.697C23.8137 15.697 23.6969 15.8135 23.5223 15.8135C23.3516 15.8135 23.3321 15.728 23.3321 15.728C23.3321 15.728 23.6196 15.7009 23.5922 15.5726C23.5651 15.4367 23.5154 15.4367 23.5154 15.4367C23.5154 15.4367 24.0707 15.2063 24.1677 15.0834C24.2647 14.9605 24.2532 14.8154 24.2727 14.7573C24.3385 14.7573 24.723 14.5553 24.8784 14.6408C25.0338 14.7263 24.925 14.9593 24.925 14.9593C24.925 14.9593 25.3952 14.6057 25.6349 14.2591C25.8445 14.2785 25.9421 14.1155 26.0957 14.1155C26.2861 14.1155 26.5851 14.3756 26.6432 14.9308C26.6822 15.2493 26.7403 15.4318 26.6822 15.995C26.655 16.3135 26.6627 16.9934 26.759 17.3308C26.8247 17.5989 26.9801 17.5717 26.9801 17.5717C26.9563 17.6534 26.909 17.7263 26.8442 17.7814C26.7392 17.8784 26.7277 18.1349 26.7392 18.2319C26.7547 18.3029 26.7742 18.3729 26.7976 18.4416C26.7976 18.4416 26.6734 18.5852 26.6422 18.6825C26.6151 18.7795 26.4871 18.8456 26.3936 18.8456C26.3002 18.8456 26.347 18.8376 26.2229 18.8456C26.0987 18.8535 26.0598 18.8727 25.982 18.8456C25.9042 18.8184 25.8461 18.7872 25.8773 18.5384C25.9044 18.2898 24.918 17.7112 24.918 17.7112L23.3052 17.1365L23.3088 17.1378Z" fill="#CCA849"/>
<path fill-rule="evenodd" clip-rule="evenodd" d="M21.4564 19.5922C21.4564 19.5922 21.8096 20.0623 23.2622 20.0623C23.9534 20.0623 24.1943 19.9962 24.3374 19.9573C24.4928 19.9184 25.0752 19.6895 25.6617 18.9981C26.1899 18.3729 26.0734 18.1167 26.0734 18.1167L25.7662 18.0701L24.7678 18.206L21.8135 19.4642L21.4551 19.5922H21.4564Z" fill="#585136"/>
<path fill-rule="evenodd" clip-rule="evenodd" d="M22.5398 19.7086C22.5398 19.7086 21.2816 19.9884 21.2816 19.1923C21.2816 18.4156 22.0583 17.6 22.2526 17.4564C22.4545 17.3125 22.9361 17.1492 22.9361 17.1492H24.0973L24.3185 17.7357L24.2215 19.0016L22.5398 19.7084V19.7086Z" fill="#252211"/>
<path fill-rule="evenodd" clip-rule="evenodd" d="M23.701 17.3865C23.701 17.3865 23.4604 17.165 22.9128 17.4633C22.3652 17.7615 21.9223 18.3849 21.8952 18.9509C21.868 19.4516 22.3068 19.8246 22.9903 19.8441C23.499 19.8633 23.806 19.8052 23.9614 19.7673C23.9224 19.7207 23.7205 19.4683 23.7205 19.4683L23.7013 17.3867L23.701 17.3865Z" fill="#C3B378"/>
<path fill-rule="evenodd" clip-rule="evenodd" d="M23.4642 17.5104C23.4642 17.5104 23.406 17.4638 23.2338 17.557C23.0901 17.6338 22.8805 17.8368 22.7174 17.9804C22.6124 18.0659 22.5464 18.1046 22.487 18.1706C22.2461 18.4581 22.0441 18.9281 22.1609 19.1611C22.2776 19.394 22.6619 19.6621 23.6405 19.4795L23.4613 17.5107L23.4642 17.5104Z" fill="#E6D89C"/>
<path fill-rule="evenodd" clip-rule="evenodd" d="M23.1457 17.9922C23.1457 17.9922 22.9903 18.2331 22.9903 18.6176C22.9903 19.0098 23.2118 19.635 24.0274 19.6816C24.6525 19.7205 25.0718 18.7807 25.5262 18.4157C25.8718 18.1361 26.0815 18.1282 26.0815 18.1282C26.0815 18.1282 25.7282 17.7442 24.7846 17.2468C23.8525 16.7458 22.8078 16.6797 22.2408 17.4487C22.5088 17.4293 23.3748 17.2078 23.3748 17.2078L23.7983 17.3438L23.1457 17.9925V17.9922Z" fill="#252211"/>
<path fill-rule="evenodd" clip-rule="evenodd" d="M24.3651 18.5008C24.3379 18.4427 24.3185 18.3649 24.4311 18.3457C24.5437 18.3265 24.5942 18.3377 24.6331 18.4225C24.672 18.5072 24.7099 18.5778 24.6523 18.6129C24.5942 18.6439 24.4426 18.6129 24.3648 18.5003L24.3651 18.5008ZM24.1826 17.9532C24.1826 17.9532 24.1436 17.9803 24.1631 17.9261C24.1708 17.8603 24.2215 17.7435 24.3456 17.7709C24.4698 17.7983 24.4429 17.934 24.4224 17.9729C24.4019 18.0118 24.2983 18.0776 24.2204 18.0497C24.2106 18.0472 24.2014 18.0424 24.1938 18.0357C24.1861 18.029 24.1802 18.0205 24.1764 18.0111C24.1726 18.0016 24.1711 17.9914 24.172 17.9813C24.1729 17.9711 24.1761 17.9613 24.1815 17.9527L24.1826 17.9532Z" fill="#6F674D"/>
<path fill-rule="evenodd" clip-rule="evenodd" d="M13.6704 18.2017C13.6704 18.2017 13.9776 18.4321 14.3345 18.4231C14.6878 18.4152 15.1422 18.0504 15.3518 17.8172C15.476 17.6812 15.5822 17.5376 15.6974 17.425C15.7947 17.3279 15.8605 17.2813 15.9071 17.2153C15.9731 17.1385 16.043 16.9941 16.0781 16.9473C15.9926 17.0133 15.8684 17.13 15.7402 17.2076C15.616 17.2844 15.348 17.4288 15.2392 17.4677C15.1345 17.5066 14.047 18.0821 14.047 18.0821L13.6704 18.2017Z" fill="#AC924C"/>
<path fill-rule="evenodd" clip-rule="evenodd" d="M14.1399 15.332C14.1399 15.332 14.3106 15.2155 14.6409 15.1416C14.9593 15.0648 15.6001 15.0056 15.6001 15.0056L16.1282 15.236L16.3379 16.0322L15.9539 16.8596L15.4647 17.1668L14.9092 16.2736L14.1412 15.3336L14.1399 15.332Z" fill="#9F8E57"/>
<path fill-rule="evenodd" clip-rule="evenodd" d="M13.4487 16.0428L13.2659 16.1792C13.2659 16.1792 13.3128 16.0937 13.3514 15.8336C13.3901 15.5735 13.5923 14.9404 13.8875 14.5754C14.1827 14.2103 14.175 14.2298 14.175 14.2298C14.1478 14.2248 14.1199 14.2257 14.0931 14.2323C14.0663 14.239 14.0413 14.2513 14.0196 14.2684C14.0585 14.1824 14.3071 13.8752 14.5557 13.7216C14.8042 13.568 14.9013 13.5196 15.1614 13.6448C15.4215 13.77 15.4875 13.835 15.678 13.8273C15.8684 13.8197 16.0312 13.6177 16.0312 13.6177C16.0312 13.6177 16.0702 13.7418 15.9265 14.0293C15.7829 14.3168 15.2159 14.9031 15.2159 14.9031L14.0352 15.7107L13.4487 16.0435V16.0428Z" fill="#EAC970"/>
<path fill-rule="evenodd" clip-rule="evenodd" d="M14.3222 15.235C14.3222 15.235 15.1767 15.3515 15.4368 15.1108C15.4445 15.138 15.4757 15.138 15.4757 15.1574C15.4736 15.1721 15.4668 15.1856 15.4563 15.1961C15.4846 15.1915 15.5131 15.189 15.5418 15.1884C15.576 15.1986 15.6112 15.2051 15.6467 15.2078C15.6754 15.2072 15.704 15.2046 15.7322 15.1999C15.7295 15.2192 15.723 15.2378 15.713 15.2545C15.7029 15.2712 15.6896 15.2857 15.6739 15.2972C15.7128 15.2972 15.7507 15.3049 15.7507 15.3358C15.7507 15.3668 15.7584 15.4603 15.7118 15.4797C15.6732 15.4904 15.6321 15.4876 15.5953 15.4718C15.5984 15.5453 15.6183 15.6171 15.6536 15.6817C15.7304 15.8253 15.8943 15.9889 16.1144 15.9418C16.1144 15.9418 16.2307 16.2213 15.7415 16.8427C15.6757 16.9282 15.6055 17.0446 15.5203 17.1417C15.4866 17.2151 15.4608 17.2919 15.4435 17.3708C15.4435 17.3708 16.2709 17.0523 16.5077 16.326C16.7486 15.5959 16.7952 14.8776 16.7486 14.2059C16.7406 14.0154 16.7096 13.8797 16.6631 13.7824C16.5466 13.5415 16.2202 13.5804 16.0883 13.7164C15.8979 13.9068 15.5794 14.3804 15.1368 14.7066C14.6862 15.0327 14.667 15.0906 14.3212 15.235H14.3222Z" fill="#D7BC6B"/>
<path fill-rule="evenodd" clip-rule="evenodd" d="M13.2972 16.2836C13.2972 16.2836 13.1341 16.3806 13.0486 16.7444C12.9631 17.1171 13.1254 17.5715 13.2193 17.7151C13.3133 17.8588 13.5265 18.2512 13.9689 18.2707C14.0784 18.2701 14.1867 18.2476 14.2874 18.2046C14.4418 18.1338 14.5867 18.0438 14.7185 17.9366C14.909 17.793 15.0641 17.6688 15.0447 17.657C14.9981 17.6376 13.8719 16.7055 13.8719 16.7055L13.4485 16.2329L13.2969 16.2841L13.2972 16.2836Z" fill="#585136"/>
<path fill-rule="evenodd" clip-rule="evenodd" d="M14.3616 17.8292C14.3616 17.8292 14.5907 17.81 14.7267 17.7245C14.8626 17.639 13.9305 16.7148 13.9305 16.7148L13.9965 17.7132L14.3616 17.8292Z" fill="#453A25"/>
<path fill-rule="evenodd" clip-rule="evenodd" d="M13.3709 16.2136C13.3709 16.2136 13.2544 16.435 13.2544 16.4934C13.2349 16.6836 13.2933 17.2816 13.3399 17.4718C13.3865 17.6738 13.6389 17.9805 13.9653 17.9805C14.167 17.9805 14.4468 17.8563 14.4468 17.8254C14.4468 17.7864 14.1593 17.7486 14.0818 17.6039C14.0352 17.5271 14.0157 17.3361 14.005 17.1431C13.9973 17.019 13.9973 16.883 14.0439 16.8359C14.1489 16.7194 14.1681 16.3854 14.1681 16.3854L14.5408 15.6929H14.0505L13.4641 16.0579L13.3709 16.2136Z" fill="#84754B"/>
<path fill-rule="evenodd" clip-rule="evenodd" d="M13.2273 16.4272C13.2273 16.4272 13.6113 15.9186 13.9574 15.8018C14.3035 15.6851 14.4584 15.7552 14.4584 15.7552L14.2564 16.2718L13.9689 16.5903L13.9884 16.7534C13.9884 16.7534 13.9415 17.1845 14.229 17.4835C14.5165 17.7825 14.73 17.771 14.8544 17.771C14.9788 17.771 15.3359 17.666 15.5185 17.2349C15.6815 16.8312 15.8175 16.3133 15.4913 15.7941C15.1726 15.2775 14.6097 15.2576 14.5009 15.2576C14.3921 15.2576 13.5378 15.3003 13.2273 16.4265V16.4272Z" fill="#252211"/>
<path fill-rule="evenodd" clip-rule="evenodd" d="M23.0874 18.1552C22.9437 18.0891 23.0797 17.6854 23.2233 17.561C23.3669 17.4366 23.5494 17.2932 23.8682 17.2735C23.9844 17.2658 24.097 17.3395 24.0778 17.4174C24.0507 17.561 23.8487 17.763 23.6662 17.9066C23.4138 18.1047 23.2504 18.2289 23.0874 18.1552Z" fill="#F7F7E7"/>
<path fill-rule="evenodd" clip-rule="evenodd" d="M15.3203 15.9534C15.4253 15.9457 15.5612 16.0302 15.5883 16.1438C15.6155 16.268 15.5223 16.5166 15.3203 16.5166C15.1572 16.5166 15.0717 16.3146 15.0717 16.2565C15.0736 16.2087 15.0869 16.1621 15.1106 16.1205C15.1183 16.1088 15.1378 15.9728 15.3203 15.9534Z" fill="#F8F6DE"/>
<path fill-rule="evenodd" clip-rule="evenodd" d="M13.8058 16.0427C13.8058 16.0427 13.5378 16.1669 13.4137 16.4267C13.3249 16.6186 13.2981 16.8333 13.3369 17.0411C13.3563 17.1381 13.4533 17.3788 13.5194 17.4643C13.5854 17.5498 13.6748 17.6081 13.7408 17.6002C13.8069 17.5923 13.9425 17.4177 13.9425 17.313C13.9425 17.2083 13.9505 16.7654 14.0785 16.5245C14.1911 16.2839 13.8066 16.043 13.8066 16.043L13.8058 16.0427Z" fill="#D4C38B"/>
<path fill-rule="evenodd" clip-rule="evenodd" d="M13.8447 16.0234C13.7981 16.0505 13.7206 16.0894 13.7398 16.1398C13.7592 16.1864 13.9223 16.2166 13.9806 16.3303C14.0467 16.4468 14.0467 16.5709 14.0272 16.6293C14.078 16.6052 14.124 16.5723 14.1632 16.532C14.2487 16.435 14.3534 16.3032 14.4427 16.3032C14.5011 16.3032 14.5592 16.3303 14.6137 16.3303C14.6992 16.3303 14.7845 16.3032 14.7963 16.2138C14.8155 16.0974 14.6332 15.9924 14.5282 16.0119C14.5477 15.9351 14.5748 15.8216 14.4893 15.7438C14.4038 15.666 14.136 15.8022 14.0777 15.8411C14.0193 15.88 13.8447 16.0236 13.8447 16.0236V16.0234Z" fill="#E2D59D"/>
<path fill-rule="evenodd" clip-rule="evenodd" d="M20.0156 24.1824L20.5903 24.0127L20.7534 24.1292C20.7534 24.1292 20.8696 24.3778 21.0524 24.4087C20.994 24.5329 20.8425 24.6391 20.8504 24.7272C20.8584 24.8153 20.9359 24.8826 20.9359 24.8826C20.9359 24.8826 20.4193 25.7369 21.4369 26.5978C21.196 26.6948 20.8893 26.8282 20.7263 26.905C20.8425 26.9321 21.0911 26.9818 21.196 27.076C21.301 27.1702 21.301 27.2002 21.398 27.2585C21.495 27.3169 21.5531 27.3945 21.5339 27.4293C21.4679 27.3904 21.2465 27.2741 21.2078 27.3827C21.1691 27.4912 20.2486 27.4487 20.2486 27.4487L18.6952 27.7477C18.6952 27.7477 18.7533 27.5923 18.5902 27.4487C18.4 27.278 18.167 27.4564 17.9185 27.2662C17.5923 27.0176 17.5805 26.7301 17.4758 26.6216C17.5805 26.5555 17.7943 26.4585 18.303 26.3912C18.2835 26.3523 18.2175 26.2358 18.2564 26.1311C18.303 25.9952 18.497 25.9097 18.4389 25.7471C18.5244 25.7276 18.5631 25.7276 18.7768 25.4596C18.9788 25.1916 19.103 25.1335 19.2584 25.114C19.4138 25.0946 19.5069 25.114 19.7944 24.846C19.9961 24.6558 19.9304 24.4927 19.9304 24.4927C19.9304 24.4927 20.0622 24.4499 20.0159 24.1819L20.0156 24.1824Z" fill="#CBAC5A"/>
<path fill-rule="evenodd" clip-rule="evenodd" d="M18.3186 24.2688C18.3263 24.2299 18.3575 24.2105 18.5672 24.2299C18.7768 24.2494 20.105 24.1058 20.4662 24.0863C20.8312 24.0592 22.1166 24.0784 22.742 24.2105C23.3674 24.3426 24.0003 24.4979 24.307 24.5755C24.6142 24.661 24.7109 24.6917 24.6992 24.7306C24.6915 24.7695 24.6224 24.8074 24.5827 24.7967C24.544 24.789 23.5264 24.4782 23.212 24.4127C22.8977 24.3472 21.8099 24.1718 21.2152 24.1823C20.66 24.1902 20.4385 24.1746 19.9688 24.2289C19.4988 24.2873 18.722 24.3648 18.4891 24.3338C18.2587 24.3067 18.3063 24.3067 18.3181 24.2678L18.3186 24.2688Z" fill="#D6BC6F"/>
<path fill-rule="evenodd" clip-rule="evenodd" d="M21.4446 27.3126C21.4446 27.3126 22.2407 27.7437 22.5282 28.2718C22.7379 28.664 22.404 28.8583 22.404 28.8583C22.404 28.8583 22.8546 28.8583 22.7962 29.1069C22.7691 29.262 22.0195 29.6814 21.5185 29.9028C21.0099 30.1242 21.0293 30.1127 20.7808 30.1514C20.5399 30.1903 19.8796 30.0746 19.7437 30.2679C19.6078 30.4611 19.6669 30.6603 19.7048 30.6913C19.7437 30.7184 20.0583 30.7573 20.0583 30.7573C20.0583 30.7573 19.9923 30.9399 19.34 30.9593C18.6877 30.9788 18.5244 31.0251 18.4855 31.0952C18.4466 31.161 18.6096 31.1224 18.9089 31.172C19.2079 31.2186 19.6272 31.2488 19.6272 31.2488C19.6272 31.2488 19.4913 31.3653 19.138 31.4585C18.734 31.5632 18.101 31.6605 17.9107 31.777C18.0078 31.843 18.1516 31.94 18.2179 31.9477C18.0549 31.9866 17.8255 32.0721 17.7868 32.1031C17.845 32.142 17.9228 32.1886 17.9228 32.1886C17.9228 32.1886 17.5964 32.5808 17.4062 32.6781C17.216 32.7754 16.1208 33.2838 15.744 33.1868C14.8042 32.9382 14.6877 31.9091 14.4586 31.8315C14.113 31.715 13.9499 31.9477 13.643 31.7846C13.7789 31.6876 13.8529 31.6295 13.9965 31.5635C13.8411 31.4867 13.0373 30.977 13.0373 30.977C12.9532 30.7938 12.8599 30.6149 12.7577 30.4412C12.6023 30.1731 12.3737 29.8158 12.2022 29.5011C11.8295 28.81 11.81 28.4915 11.4721 28.0993C11.5305 28.0225 11.7322 28.0333 11.7322 28.0333L14.5636 28.9653L19.584 29.1108L20.8896 27.2468L21.4448 27.3129L21.4446 27.3126Z" fill="#DFC677"/>
<path fill-rule="evenodd" clip-rule="evenodd" d="M14.0078 30.1552C14.0381 30.1889 14.0734 30.2178 14.1125 30.2407C14.2098 30.3068 14.3534 30.3846 14.4504 30.5008C14.4893 30.4427 14.5864 30.3377 14.7576 30.5008C14.9289 30.6639 15.1416 30.5477 15.274 30.5863C15.4099 30.6332 15.4176 30.6524 15.4176 30.6524C15.4176 30.6524 15.4944 30.5863 15.6662 30.5164C15.7711 30.4775 15.8953 30.4504 16.0312 30.4117C16.1554 30.3846 16.2913 30.3457 16.3848 30.3457C16.4703 30.4038 16.777 30.7297 18.0081 30.2486C19.1693 29.7981 19.4371 29.7477 19.6314 29.8173C19.6508 29.7707 19.6703 29.6813 19.9693 29.6931C19.9693 29.569 19.7207 29.1455 19.7207 29.1455L18.3498 28.6758H17.6L15.3516 29.0874L14.1056 29.7983L14.0086 30.1567L14.0078 30.1552Z" fill="#C4A859"/>
<path fill-rule="evenodd" clip-rule="evenodd" d="M13.2582 29.3671C13.2582 29.3671 13.2854 29.5768 13.5962 29.7982C13.9034 30.0194 13.9999 30.1515 13.9999 30.1515C13.9999 30.1515 14.0582 30.0747 14.1048 29.9964C14.1514 29.9109 14.1903 29.8139 14.2679 29.7867C14.4233 29.7207 14.7766 29.8448 14.8544 29.8254C14.9204 29.8062 14.901 29.6702 14.9709 29.6702C15.134 29.6623 15.2387 29.7749 15.297 29.7749C15.3554 29.7749 15.4988 29.7673 15.5182 29.7363C15.5377 29.7053 15.5453 29.3827 15.7668 29.2274C16.0077 29.0566 16.3028 29.1303 16.3812 29.1692C16.3812 29.2274 16.3889 29.3712 16.5443 29.3789C16.6996 29.3866 16.715 29.3595 16.8515 29.406C16.9879 29.4526 17.1505 29.3984 17.2242 29.6272C17.2902 29.608 17.4456 29.5886 17.4067 29.3671C17.4835 29.309 17.5506 29.2701 17.7139 29.041C17.7528 28.9829 17.8186 28.9168 17.8693 28.8313C18.0052 28.8313 18.1683 28.8042 18.3857 28.9944C18.3196 29.041 18.2807 29.0712 18.2615 29.1186C18.3183 29.1748 18.3702 29.2359 18.4166 29.3011C18.475 29.3779 18.5139 29.4721 18.5876 29.4916C18.7507 29.5381 19.0187 29.4721 19.3178 29.4916C19.6052 29.511 19.8459 29.6157 19.9508 29.6818C19.9898 29.6626 19.9898 29.6546 20.0868 29.6741C20.1838 29.6935 20.2575 29.7012 20.1528 29.5771C20.2109 29.6042 20.277 29.6626 20.3354 29.6042C20.3937 29.5458 20.4401 29.4606 20.6031 29.4411C20.7662 29.4217 20.8246 29.4488 20.8906 29.278C20.9761 29.0684 20.681 29.0684 20.681 29.0684C20.681 29.0684 20.8169 28.944 20.9684 28.7809C21.151 28.6101 21.3606 28.3887 21.4111 28.1168C21.4966 27.6158 21.0074 27.55 21.0074 27.55L18.6345 28.2802L15.7335 28.1363L13.2598 29.3674L13.2582 29.3671Z" fill="#927D49"/>
<path fill-rule="evenodd" clip-rule="evenodd" d="M11.1263 22.5126C11.1263 22.5126 11.0495 22.6096 11.0021 22.8387C10.9548 23.0678 10.975 23.0407 10.9361 23.2038C10.8972 23.3669 10.4192 24.9902 10.5984 25.5378C10.7776 26.0853 11.0879 26.2873 11.2819 26.73C11.3208 26.827 11.3587 26.8854 11.3789 26.9709C11.445 27.2581 11.3869 27.4795 11.4644 27.767C11.4916 27.8641 11.5617 27.9767 11.6664 28.0932C11.8968 28.3338 12.2724 28.5629 12.4344 28.726C12.6633 28.9669 12.9897 29.4564 13.4052 29.5027C13.6266 29.5299 13.9412 29.4367 14.2013 29.2815C14.4317 29.1377 14.5741 28.9359 14.8157 28.8207C14.9865 28.7352 15.169 28.7043 15.3321 28.6653C15.67 28.5993 15.977 28.5885 16.1595 28.6264C16.439 28.6848 17.0993 28.8868 17.4651 28.8868C17.7509 28.8822 18.0352 28.8431 18.3117 28.7703C18.8669 28.6072 19.5387 28.3274 19.9816 28.2033C20.2417 28.1265 20.4513 28.1062 20.6651 28.0596C21.0301 27.9741 21.3368 27.8577 21.5117 27.6362C21.3952 27.5003 21.2516 27.2906 20.4746 27.2983C19.5932 27.3177 18.5756 27.807 18.0746 27.8848C17.5736 27.9626 17.3563 28.0284 16.7969 27.8264C16.2486 27.6224 16.2304 27.4875 16.2304 27.4875C16.2304 27.4875 15.6547 27.0848 15.4138 26.0582C15.1729 25.0316 15.4138 24.2836 16.0392 23.5727C16.2022 23.3901 16.1633 23.2271 16.1633 23.2271C16.1633 23.2271 16.575 22.6718 16.4623 22.1519C16.3382 21.6352 15.542 21.7402 15.542 21.7402L11.1265 22.5126H11.1263Z" fill="#6E6342"/>
<path fill-rule="evenodd" clip-rule="evenodd" d="M11.7903 24.241C11.7561 24.3053 11.74 24.3778 11.7438 24.4506C11.7514 24.5553 11.7827 24.6912 12.097 24.9982C12.3651 25.2659 12.3067 25.5649 12.3067 25.5649C12.3067 25.5649 12.4416 25.5921 12.8077 25.4208C13.0952 25.2849 13.1917 25.5258 13.1917 25.5258C13.2754 25.4819 13.3661 25.453 13.4597 25.4403C13.5446 25.4325 13.6267 25.4062 13.7004 25.3635C13.7004 25.3635 14.0383 25.7091 14.3334 25.8721C14.6015 26.016 14.7569 26.113 14.889 26.016C15.0131 25.9305 15.0131 25.7556 15.0052 25.6781C14.9744 25.6065 14.9354 25.5387 14.889 25.4761C14.8035 25.352 14.6675 25.2081 14.6586 25.0921C14.6391 24.8244 14.8606 24.5057 14.8137 24.4281C14.7669 24.3505 14.5925 24.3311 14.1614 24.4865C13.715 24.6339 11.7886 24.2417 11.7886 24.2417L11.7903 24.241Z" fill="#39331F"/>
<path fill-rule="evenodd" clip-rule="evenodd" d="M12.8077 25.9769C12.8077 25.9769 12.5865 25.7672 12.6641 24.7496C12.758 24.7483 12.8517 24.7574 12.9436 24.7768C12.9436 24.7768 13.0641 25.5652 12.8077 25.9769Z" fill="#292311"/>
<path fill-rule="evenodd" clip-rule="evenodd" d="M11.2312 21.736C11.2621 21.7132 11.2907 21.6875 11.3167 21.6592C11.2399 21.8029 10.8854 22.3776 11.1729 23.2825C11.4604 24.1834 12.1825 24.8551 13.0719 24.8864C13.9612 24.9176 14.4287 24.4824 14.9632 23.8301C15.1729 23.57 15.4138 23.2436 15.6273 23.0224C15.9457 22.6766 16.1943 22.5796 16.1943 22.2457C16.1943 21.5622 15.4952 21.2553 14.466 20.9486C13.4369 20.6419 12.5087 20.6798 12.0271 20.8897C11.5574 21.1186 11.3554 21.3595 11.231 21.7363L11.2312 21.736Z" fill="#252211"/>
<path fill-rule="evenodd" clip-rule="evenodd" d="M14.5359 26.2836L14.6127 26.2447C14.6127 26.2447 14.6319 25.9375 14.7563 25.9457C14.8805 25.9652 14.9388 26.1285 14.9271 26.1866C14.9194 26.2447 14.8884 26.342 14.764 26.3302C14.6009 26.3341 14.5352 26.2836 14.5352 26.2836H14.5359Z" fill="#3F3824"/>
<path fill-rule="evenodd" clip-rule="evenodd" d="M14.1903 24.9785C14.1903 24.9785 14.2671 24.9514 14.3611 25.0446C14.4379 25.0446 14.7727 25.0057 14.8777 25.0718C14.9826 25.1378 15.0136 25.196 15.0136 25.196C15.0136 25.196 14.6214 25.2815 14.4077 25.196C14.1903 25.1222 14.1903 24.9785 14.1903 24.9785Z" fill="#2D2815"/>
<path fill-rule="evenodd" clip-rule="evenodd" d="M15.9186 25.0368C15.9186 25.0173 15.709 24.8737 15.4875 24.8269C15.4486 24.8192 15.4407 24.8463 15.4107 24.8463C15.3913 24.8386 15.3836 24.7803 15.3836 24.7803L15.2576 24.8466C15.2576 24.8466 15.2382 24.8737 15.3042 24.9234C15.3623 24.9699 15.4596 25.0089 15.4867 25.0864C15.5139 25.164 15.5139 25.1911 15.5257 25.2029C15.5333 25.2106 15.6693 25.2029 15.7353 25.164C15.8014 25.1251 15.9258 25.0616 15.9179 25.036L15.9186 25.0368Z" fill="#82764F"/>
<path fill-rule="evenodd" clip-rule="evenodd" d="M13.9574 25.8254C13.9574 25.8254 13.9961 25.5577 14.2564 25.546C14.5242 25.5265 14.5749 25.7865 14.5749 25.7865L14.4195 25.9419C14.4195 25.9381 14.303 25.775 13.9587 25.8254H13.9574Z" fill="#2D2816"/>
<path fill-rule="evenodd" clip-rule="evenodd" d="M15.6467 24.6718C15.6467 24.6718 15.5029 24.8272 15.1847 24.8738C15.1575 24.8349 15.0992 24.7573 15.1847 24.6332C15.2702 24.509 15.3672 24.4701 15.4642 24.5087C15.507 24.5157 15.547 24.5347 15.5793 24.5636C15.6116 24.5925 15.635 24.6301 15.6467 24.6718Z" fill="#574F35"/>
<path fill-rule="evenodd" clip-rule="evenodd" d="M16.233 24.8622C16.2409 24.8233 16.2138 24.8156 16.233 24.7961C16.2522 24.7767 16.3574 24.738 16.3768 24.7572C16.3845 24.7652 16.3768 24.7961 16.3768 24.834C16.3768 24.8719 16.3768 24.9108 16.3574 24.9387C16.3302 24.9776 16.2527 24.9971 16.2138 24.9856C16.1749 24.9741 16.1672 24.9195 16.1672 24.9088C16.1864 24.9011 16.233 24.8816 16.233 24.8622ZM16.896 24.4429C16.896 24.4234 16.9621 24.3845 17.001 24.3845C17.0591 24.3845 17.0591 24.4311 17.067 24.4429C17.0862 24.4506 17.0862 24.4349 17.1057 24.47C17.1251 24.5051 17.1525 24.567 17.1328 24.6059C17.1131 24.6449 17.0358 24.6717 17.0166 24.6641C16.9894 24.6446 16.9039 24.47 16.896 24.4429Z" fill="#82764F"/>
<path fill-rule="evenodd" clip-rule="evenodd" d="M15.5612 24.9517C15.5612 24.9517 15.6467 24.9709 15.7632 25.0682C15.7243 25.0953 15.6659 25.1263 15.6659 25.1263C15.6659 25.1263 15.6582 25.0369 15.5612 24.9514V24.9517Z" fill="#6E6342"/>
<path fill-rule="evenodd" clip-rule="evenodd" d="M15.371 24.097C15.3515 24.0778 15.4291 24.0312 15.4757 24.0389C15.5223 24.0466 15.5417 24.0778 15.5922 24.0855C15.6426 24.0932 15.6505 24.066 15.669 24.0466C15.6874 24.0271 15.7545 24.0389 15.766 24.0466C15.7732 24.0551 15.7797 24.0642 15.7855 24.0737C15.7863 24.059 15.7901 24.0445 15.7968 24.0313C15.8034 24.0181 15.8127 24.0064 15.8241 23.9969C15.839 23.986 15.8562 23.9785 15.8744 23.9752C15.8925 23.9718 15.9112 23.9726 15.9291 23.9775C15.9368 24.0046 15.9757 24.1016 15.968 24.1211C15.9603 24.1405 15.8438 24.1679 15.8241 24.1482C15.8436 24.1951 15.9291 24.2921 15.9406 24.3113C15.9521 24.3305 15.8551 24.3773 15.8164 24.3697C15.7622 24.3658 15.4281 24.1715 15.37 24.0978L15.371 24.097ZM15.8797 23.4524C15.8725 23.4329 15.8587 23.4164 15.8408 23.4058C15.8136 23.3981 15.7243 23.4058 15.7243 23.4524C15.7243 23.499 15.8011 23.7596 15.8874 23.8953C15.9846 24.0312 16.0504 24.1436 16.1165 24.1748C16.1372 24.1843 16.1608 24.1855 16.1824 24.1783C16.204 24.1711 16.2221 24.1559 16.233 24.1359C16.2406 24.1165 16.2601 23.9729 16.2524 23.6349C16.2447 23.297 16.233 22.9709 16.2135 22.9514C16.194 22.932 16.1165 22.9322 16.0893 22.9709C16.0622 23.0095 15.8874 23.3943 15.8794 23.4524H15.8797Z" fill="#585136"/>
<path fill-rule="evenodd" clip-rule="evenodd" d="M15.5341 25.4406C15.5341 25.4406 15.3982 25.3551 15.2661 25.4135C15.1419 25.4718 15.1496 25.7009 15.1496 25.7009C15.1775 25.7119 15.2077 25.7158 15.2375 25.7124C15.2673 25.709 15.2958 25.6984 15.3206 25.6815C15.4061 25.6234 15.5147 25.5264 15.5341 25.4408V25.4406Z" fill="#574F35"/>
<path fill-rule="evenodd" clip-rule="evenodd" d="M15.7904 25.7477C15.7827 25.6709 15.7136 25.6709 15.7136 25.6312C15.7183 25.6122 15.7293 25.5954 15.7448 25.5835C15.7602 25.5715 15.7793 25.565 15.7988 25.5652C15.8377 25.5652 15.8756 25.6118 15.9232 25.642C15.9698 25.6691 16.0397 25.7188 16.0474 25.7779C16.0551 25.837 15.9706 25.9991 15.8766 25.9991C15.7827 25.9991 15.8106 25.8242 15.7911 25.7467L15.7904 25.7477ZM16.5399 25.6427C16.5399 25.6427 16.3845 25.6893 16.3961 25.6427C16.4076 25.5961 16.4429 25.5846 16.4933 25.5846C16.519 25.5578 16.5534 25.5412 16.5904 25.5378C16.6115 25.5367 16.6322 25.5437 16.6485 25.5572C16.6485 25.5572 16.7534 25.5106 16.7844 25.5378C16.8154 25.5649 16.7923 25.5649 16.8115 25.5961C16.836 25.6308 16.852 25.6707 16.8584 25.7126C16.8584 25.7436 16.7419 25.8097 16.6485 25.7981C16.5399 25.7748 16.5591 25.6622 16.5399 25.6427ZM17.4446 25.4679C17.4446 25.4679 17.4912 25.495 17.4526 25.5263C17.4254 25.5534 17.2895 25.6031 17.1728 25.6118C17.0563 25.6118 16.9516 25.631 16.9516 25.5923C16.9516 25.5536 17.0486 25.4758 17.1067 25.4564C17.1184 25.4418 17.1332 25.43 17.15 25.4219C17.1669 25.4139 17.1853 25.4097 17.204 25.4098C17.2506 25.4098 17.4329 25.3903 17.4835 25.3826C17.5301 25.3747 17.569 25.4018 17.5417 25.4408C17.5301 25.4679 17.4446 25.4679 17.4446 25.4679ZM17.7127 24.2688C17.7127 24.2688 17.6543 24.3929 17.5885 24.3929C17.5225 24.3852 17.5225 24.3658 17.5225 24.3463C17.5225 24.3192 17.5885 24.2493 17.5806 24.2298C17.5614 24.2298 17.5145 24.2298 17.5225 24.1833C17.5225 24.1443 17.5885 24.0977 17.6466 24.1065C17.6905 24.0704 17.7452 24.0499 17.802 24.0483C17.8681 24.0483 17.9262 24.0675 17.9262 24.1065C17.9262 24.1454 17.8494 24.2306 17.8212 24.2503C17.7902 24.2813 17.7513 24.3015 17.7127 24.2695V24.2688ZM16.8272 26.5638C16.8272 26.5638 16.7504 26.5718 16.7504 26.6104C16.7504 26.6299 16.7696 26.6299 16.797 26.6184C16.8127 26.6175 16.8284 26.6148 16.8435 26.6104C16.8512 26.6184 16.8512 26.657 16.9096 26.657C16.9575 26.6506 17.0037 26.6347 17.0455 26.6104C17.0921 26.5912 17.131 26.5715 17.131 26.5336C17.1116 26.4676 17.0727 26.4364 17.0146 26.4364C16.9848 26.4345 16.9551 26.4412 16.929 26.4558C16.929 26.4558 16.9096 26.4169 16.8435 26.4558C16.7775 26.4947 16.7852 26.4947 16.8046 26.5142C16.8394 26.5452 16.8279 26.5654 16.8279 26.5654L16.8272 26.5638ZM16.3884 26.9678C16.3884 26.9484 16.4854 26.9094 16.5125 26.9212C16.5397 26.9289 16.6172 27.0764 16.6172 27.092C16.6172 27.1114 16.5202 27.158 16.4813 27.158C16.4424 27.158 16.3766 27.092 16.3766 27.0812C16.3766 27.0735 16.4232 27.062 16.4232 27.0541C16.4347 27.0349 16.3884 26.988 16.3884 26.9686V26.9678ZM16.0812 26.4008C16.1006 26.3931 16.1006 26.3736 16.1278 26.3542C16.1363 26.3485 16.1459 26.3449 16.1561 26.3436C16.1662 26.3422 16.1765 26.3432 16.1861 26.3465C16.193 26.3343 16.2025 26.3237 16.2139 26.3156C16.2253 26.3075 16.2384 26.3021 16.2522 26.2996C16.2988 26.292 16.3377 26.2996 16.329 26.3191C16.329 26.3775 16.3679 26.4161 16.3679 26.4627C16.3679 26.5093 16.3408 26.5677 16.2437 26.6066C16.1467 26.6337 16.0146 26.6337 15.9952 26.6261C15.9757 26.6184 15.9562 26.5405 15.9757 26.5016C15.9952 26.4627 16.0494 26.4202 16.0807 26.4008H16.0812Z" fill="#82764F"/>
<path fill-rule="evenodd" clip-rule="evenodd" d="M16.2048 26.4272C16.2048 26.4272 16.1387 26.4662 16.1387 26.4856C16.1329 26.5044 16.1303 26.524 16.1311 26.5437C16.1311 26.5552 16.2166 26.536 16.2281 26.5243C16.2319 26.5166 16.2048 26.4475 16.2048 26.4272Z" fill="#6E6342"/>
<path fill-rule="evenodd" clip-rule="evenodd" d="M15.6273 26.2447C15.6659 26.2526 15.732 26.2447 15.7824 26.2641C15.8213 26.2836 15.8485 26.3225 15.8095 26.3691C15.7706 26.4156 15.7327 26.4855 15.6465 26.4737C15.5495 26.4661 15.4563 26.4156 15.4563 26.3767C15.4546 26.3521 15.4579 26.3274 15.4659 26.3041C15.4739 26.2808 15.4865 26.2593 15.5029 26.2408C15.5418 26.2099 15.561 26.2293 15.627 26.2447H15.6273Z" fill="#585136"/>
<path fill-rule="evenodd" clip-rule="evenodd" d="M15.5806 26.2834C15.5806 26.2834 15.4565 26.3805 15.4252 26.4273C15.3863 26.4739 15.1961 26.7146 15.138 26.765C15.1573 26.7309 15.1793 26.6985 15.2038 26.668C15.127 26.7171 15.0694 26.7911 15.0408 26.8776C14.9942 27.0215 15.3011 27.0991 15.5028 27.1574C15.7045 27.2158 15.7826 27.2342 15.7826 27.2342C15.7083 27.1226 15.6446 27.0043 15.5921 26.881C15.5154 26.6984 15.4757 26.679 15.5261 26.5935C15.565 26.508 15.6234 26.4498 15.6234 26.3838C15.6001 26.3224 15.5806 26.2834 15.5806 26.2834Z" fill="#574F35"/>
<path fill-rule="evenodd" clip-rule="evenodd" d="M11.1534 26.5905C11.1817 26.5957 11.2106 26.5957 11.2389 26.5905C11.297 26.5826 11.903 26.3601 12.5361 26.4001C13.01 26.4287 13.4797 26.5059 13.9379 26.6305C14.7341 26.8401 15.7243 27.2556 16.3651 27.4927C16.5358 27.5585 16.703 27.6752 16.8259 27.7216C17.3153 27.912 17.3345 27.912 17.622 27.9625C17.9599 28.0091 18.3055 27.8964 18.6667 27.8188C19.1094 27.7216 19.8666 27.675 20.5307 27.5779C20.7454 27.5482 20.9572 27.5001 21.1638 27.4343C21.1638 27.4343 20.6356 27.9625 19.3695 28.1527C18.8577 28.2304 18.3376 28.2369 17.824 28.1721C17.42 28.1332 17.1523 28.0749 16.9503 28.0167C16.7211 27.9507 16.2511 27.7758 15.6726 27.6327C15.2686 27.5278 14.818 27.4502 14.3017 27.3532C13.0278 27.1199 11.6454 26.8522 11.1529 26.5921L11.1534 26.5905Z" fill="#252211"/>
<path fill-rule="evenodd" clip-rule="evenodd" d="M9.72416 24.1907C9.41696 24.4508 9.09108 24.6993 8.77287 24.94L7.81364 25.677C7.4875 25.9177 7.16903 26.1662 6.84264 26.4071C6.51624 26.648 6.19035 26.8769 5.84424 27.0983C6.15144 26.8382 6.47732 26.5973 6.80347 26.3605C7.12961 26.1237 7.46778 25.8915 7.78241 25.6514L8.74164 24.9134C9.07162 24.6727 9.39008 24.4241 9.72416 24.1912V24.1907ZM8.02714 26.9091C8.02714 26.9091 8.37274 26.6217 8.80384 26.2179C9.33965 25.7172 9.99603 25.0762 10.2057 24.96L8.02689 26.9094L8.02714 26.9091Z" fill="#CFB66C"/>
<path fill-rule="evenodd" clip-rule="evenodd" d="M8.02716 26.9087C8.19817 26.738 8.3807 26.5711 8.56322 26.4078L8.84278 26.1671C8.92828 26.0903 9.02556 26.0041 9.11081 25.9186C9.28156 25.7478 9.44873 25.565 9.61948 25.3904C9.70411 25.3026 9.7936 25.2197 9.88751 25.1419C9.93447 25.1003 9.98661 25.065 10.0426 25.0369C10.0895 25.0098 10.1399 24.9601 10.2057 24.9514C10.1671 25.0098 10.1205 25.0369 10.0816 25.0873C10.035 25.1263 9.99606 25.1728 9.9574 25.2115C9.8719 25.297 9.77487 25.3746 9.68937 25.4524C9.50684 25.6078 9.31663 25.7596 9.1341 25.9221C8.95158 26.0847 8.78082 26.26 8.59804 26.4231C8.40015 26.5903 8.21762 26.7533 8.02716 26.9095V26.9087ZM10.3496 25.3554C10.3496 25.3554 9.08367 26.5944 8.82332 26.7961L10.3496 25.3554Z" fill="#CFB66C"/>
<path fill-rule="evenodd" clip-rule="evenodd" d="M10.3496 25.3552C10.2357 25.487 10.1136 25.6115 9.98401 25.728L9.60001 26.093C9.47585 26.2172 9.35911 26.3416 9.22727 26.4658C9.09134 26.5822 8.96718 26.6962 8.8233 26.8037L9.19604 26.4386C9.32046 26.3145 9.45639 26.2098 9.58849 26.0853L9.96122 25.7203C10.0892 25.5923 10.2136 25.4679 10.3496 25.3552ZM10.4077 26.027C10.291 26.3526 10.1535 26.6705 9.99604 26.9785C9.6699 27.6311 9.18068 28.4464 8.96692 28.8622L10.4077 26.027Z" fill="#CFB66C"/>
<path fill-rule="evenodd" clip-rule="evenodd" d="M10.4077 26.0273C10.4077 26.171 10.3688 26.2954 10.3222 26.4196C10.2768 26.5438 10.225 26.6657 10.1671 26.7846C10.1087 26.9011 10.0426 27.0255 9.97659 27.1382C9.91054 27.2508 9.83297 27.367 9.7746 27.4838L9.38241 28.175C9.24648 28.4054 9.11438 28.6371 8.97076 28.8586C9.06779 28.61 9.19988 28.377 9.3243 28.1479C9.46024 27.9175 9.5844 27.6871 9.7083 27.4487C9.76879 27.3299 9.82322 27.2082 9.87137 27.0839C9.92948 26.9595 9.9876 26.843 10.0344 26.7304C10.0926 26.6062 10.1391 26.4894 10.1975 26.3771C10.2633 26.2565 10.3178 26.14 10.4072 26.0273H10.4077Z" fill="#CFB66C"/>
<path fill-rule="evenodd" clip-rule="evenodd" d="M11.7903 29.2117C11.7903 29.2117 11.4063 29.7203 11.4447 30.365C11.5494 30.0273 11.6815 29.5107 11.7903 29.2117ZM12.1554 29.7216C12.1554 29.7216 12.0194 31.104 11.9068 31.7837C12.066 30.998 12.097 31.0641 12.1554 29.7216ZM14.699 31.8654C14.699 31.8654 14.1243 33.555 14.1125 34.0245C14.2369 33.5417 14.4776 32.5553 14.699 31.8641V31.8654Z" fill="#DEC270"/>
<path fill-rule="evenodd" clip-rule="evenodd" d="M16.0427 29.1072C16.0427 29.1072 16.9748 30.645 17.674 31.9575C17.4848 31.297 17.0496 30.0856 16.0427 29.1072Z" fill="#CBAF59"/>
<path fill-rule="evenodd" clip-rule="evenodd" d="M18.5477 31.3711C19.0595 32.2757 19.521 33.2079 19.9301 34.1633C19.8526 33.5031 19.6426 32.3731 18.5477 31.3711Z" fill="#E3C677"/>
<path fill-rule="evenodd" clip-rule="evenodd" d="M25.9108 33.6383C26.0659 33.5413 26.3729 33.0129 26.6409 32.8811C26.9087 32.7452 27.1107 32.718 27.3516 32.45C27.5922 32.1702 27.6588 31.9994 28.1864 31.7782C28.9244 31.4595 28.4168 31.0479 28.4168 31.0479C28.4981 30.968 28.585 30.8941 28.6769 30.8267C28.8674 30.6831 29.0885 30.5082 29.0693 30.2013C29.0422 29.6849 28.9452 28.9354 28.5218 28.5004C28.9334 28.4149 29.7216 28.3568 30.2114 28.2326C30.7781 28.0888 31.0385 27.8868 31.0385 27.8868C31.0385 27.8868 30.7124 27.3315 31.2405 26.7724C31.7686 26.2133 32.1997 25.8792 32.5182 25.2538C32.1531 25.2072 31.5966 25.0132 30.1763 25.5528C30.253 25.5889 30.327 25.6304 30.3977 25.677C30.3977 25.677 29.524 25.9179 29.2055 26.1859C28.65 26.6557 28.5801 27.0402 27.9783 27.3277C27.3764 27.6152 26.7705 27.5373 26.2697 27.7703C25.769 28.0033 25.695 28.2014 25.5122 28.2869C25.5511 28.3335 25.5045 28.4111 25.5783 28.4771C25.5317 28.5432 25.2598 28.9858 24.9841 28.9858C25.0112 29.0908 25.2442 29.1683 25.2442 29.1683C25.2442 29.1683 25.0734 29.2927 24.6385 29.3237C24.8597 29.5541 25.0696 29.8053 25.6481 30.1703C25.6016 30.2673 25.4072 30.4112 25.4851 30.5937C25.5706 30.7763 25.7923 31.0248 26.6773 31.2268C26.2267 31.246 25.6988 31.351 24.9877 31.254C24.277 31.1685 24.1605 31.118 23.7217 31.2268C23.7683 31.2734 23.8925 31.2734 24.0013 31.3976C23.8848 31.4053 23.1547 31.3121 22.9061 31.6385C22.646 31.9761 22.5334 32.5317 22.5528 32.9044C22.4169 32.9704 22.2848 33.0869 22.3509 33.3278C22.4169 33.5687 22.7625 33.6463 22.9839 33.7976C23.2051 33.9606 23.2246 34.0188 23.4345 33.9801C23.6557 33.9335 23.9818 33.7123 24.1723 33.7123C24.3628 33.7123 24.4984 33.8559 24.4984 33.8559C24.4984 33.8559 25.0151 33.6074 25.0655 33.654C25.1121 33.7005 25.0732 33.9996 25.1236 34.0462C25.1748 34.0812 25.7567 33.7356 25.9121 33.6383H25.9108Z" fill="#ECD592"/>
<path fill-rule="evenodd" clip-rule="evenodd" d="M37.2002 18.0971C34.773 11.8292 28.7729 10.668 28.7729 10.668H11.6544L11.7205 17.0524H15.1296V31.3087H11.6542V37.6816H28.299C32.3106 37.6816 35.5262 33.6504 35.5262 33.6504C40.6756 26.3418 37.1999 18.0971 37.1999 18.0971H37.2002ZM28.3884 29.3552C28.3884 29.3552 27.0828 31.2389 25.6622 31.2389H22.8206L22.7533 17.068H26.4C26.4 17.068 28.0896 17.4212 29.27 20.7649C29.27 20.7649 30.835 25.5521 28.3884 29.3552Z" fill="white" fill-opacity="0.8"/>
</svg>
