<svg width="48" height="48" viewBox="0 0 48 48" fill="none" xmlns="http://www.w3.org/2000/svg">
<rect width="48" height="48" rx="24" fill="white"/>
<g clip-path="url(#clip0_2_13662)">
<path d="M28.4927 20.8892C27.7055 17.93 26.1895 15.5394 23.93 13.6152C21.6851 11.691 19.0612 10.6122 16 10.2624C16.379 9.95627 16.6851 10.0146 16.9767 10C23.5073 9.75219 29.4548 13.965 31.3353 20.2187C31.4956 20.7289 31.6851 20.9184 32.2099 20.8892C33.172 20.8455 34.1487 20.8892 35.1254 20.8746C35.6501 20.8601 36.0146 21.0641 36 21.6035C35.9854 22.1283 35.5773 22.2303 35.1108 22.2157C34.1924 22.2012 33.2741 22.2303 32.3411 22.2012C31.9184 22.1866 31.7872 22.3178 31.8455 22.7405C32.0204 23.8484 32.035 24.9563 31.8455 26.0641C31.7726 26.516 31.9767 26.5743 32.3557 26.5743C33.2303 26.5598 34.105 26.5743 34.9796 26.5598C35.4898 26.5452 35.9854 26.6472 36 27.2303C36.0146 27.8717 35.4898 27.9592 34.965 27.9592C33.9883 27.9592 33.0262 27.9738 32.0496 27.9446C31.6706 27.93 31.5102 28.0612 31.3936 28.4257C29.484 34.2711 25.4752 37.6822 19.4111 38.688C18.7988 38.7901 18.1574 38.7609 17.5306 38.7901C17.0787 38.8047 16.6268 38.7901 16.1312 38.7901C16.2624 38.3965 16.5248 38.4985 16.6997 38.4694C22.4869 37.4636 26.3499 34.1691 28.3178 28.6443C28.551 27.9883 28.3032 27.9446 27.7638 27.9592C24.9067 27.9738 22.035 27.9738 19.1778 27.9738C19.0029 27.9738 18.8426 27.9738 18.6676 27.9738C18.172 27.9592 17.691 27.8571 17.7347 27.2303C17.7638 26.6618 18.2157 26.5889 18.6822 26.5889C21.8163 26.5889 24.9359 26.5743 28.07 26.6035C28.6093 26.6035 28.8571 26.4723 28.8863 25.9184C28.93 24.8834 28.9592 23.8338 28.8571 22.7988C28.8134 22.3324 28.6093 22.2157 28.172 22.2303C25.0962 22.2449 22.0058 22.2449 18.93 22.2449C18.7114 22.2449 18.4927 22.2449 18.2741 22.2303C17.9388 22.1866 17.7493 21.9825 17.7201 21.6618C17.6764 21.2974 17.8659 21.0496 18.2012 20.9475C18.4052 20.8892 18.6385 20.9184 18.8571 20.9184C22.035 20.8892 25.2128 20.8892 28.4927 20.8892Z" fill="#411B91"/>
</g>
<defs>
<clipPath id="clip0_2_13662">
<rect width="20" height="28.7901" fill="white" transform="translate(16 10)"/>
</clipPath>
</defs>
</svg>
