<svg width="48" height="48" viewBox="0 0 48 48" fill="none" xmlns="http://www.w3.org/2000/svg">
<path d="M24 48C37.2548 48 48 37.2548 48 24C48 10.7452 37.2548 0 24 0C10.7452 0 0 10.7452 0 24C0 37.2548 10.7452 48 24 48Z" fill="#2B1130"/>
<path d="M45.4589 24.0332C45.5253 35.3938 36.3239 45.3259 24.3322 45.4422C12.4069 45.5751 2.7239 36.0083 2.55781 24.4152C2.37511 12.7889 11.7094 2.64082 23.7509 2.55777C35.8422 2.47473 45.4422 12.0249 45.4589 24.0332Z" fill="#FDFBFD"/>
<path d="M3.45467 23.9834C3.48789 12.6228 12.6893 3.43805 24.0332 3.45466C35.4768 3.47127 44.5619 12.656 44.5453 24.1993C44.5287 35.427 35.3107 44.5453 23.9834 44.5453C12.6228 44.5453 3.43806 35.3439 3.45467 23.9834Z" fill="#2B1131"/>
<path d="M22.0567 41.0906C20.8609 41.0906 19.6817 41.0408 18.4858 41.1073C17.6886 41.1571 17.4394 40.8249 17.3564 40.0941C17.0076 37.3038 16.5924 34.5135 16.2104 31.7232C15.6955 27.9197 15.164 24.1163 14.6491 20.3128C14.1176 16.4595 13.5862 12.6062 13.0381 8.75293C12.9384 8.07197 13.1543 7.88927 13.8187 7.88927C16.3432 7.92248 18.8512 7.90588 21.3758 7.88927C21.7578 7.88927 22.0733 7.97231 22.4055 8.15501C28.3017 11.5599 34.1813 14.9813 40.0775 18.3862C40.7253 18.7682 40.8249 19.0505 40.3931 19.7149C35.9086 26.591 31.4574 33.5003 27.0062 40.4097C26.674 40.908 26.3086 41.1073 25.7273 41.0906C24.4983 41.0574 23.2692 41.0906 22.0567 41.0906Z" fill="#FEFEFE"/>
<path d="M18.2198 11.4935C19.615 12.3074 20.8607 13.0049 22.1064 13.7191C22.3389 13.852 22.4385 14.0513 22.4718 14.3337C22.97 18.0541 23.4849 21.7745 23.9832 25.4949C24.116 26.4748 24.1659 27.488 24.3984 28.4513C24.5977 29.2818 24.3984 29.9129 23.9167 30.5939C23.0697 31.7897 22.3223 33.0354 21.3922 34.4638C20.3126 26.7074 19.2828 19.2001 18.2198 11.4935Z" fill="#2A1130"/>
<path d="M23.0199 14.2838C25.4946 15.7288 27.8365 17.0908 30.195 18.4527C31.3244 19.1171 31.3244 19.1171 30.6102 20.2299C28.8829 22.8873 27.1721 25.5447 25.4448 28.2022C25.3452 28.3517 25.2953 28.5676 25.013 28.6174C24.3486 23.8838 23.7009 19.1503 23.0199 14.2838Z" fill="#2B1131"/>
<path d="M38.9811 18.7184C36.8053 18.7184 34.6129 18.7184 32.4372 18.7184C32.0219 18.7184 31.6898 18.5357 31.3576 18.3364C28.7167 16.8084 26.0759 15.2638 23.4351 13.7357C23.1361 13.5697 22.8704 13.387 22.8205 13.0216C22.6379 11.6762 22.4718 10.3475 22.2891 8.83609C27.9361 12.1247 33.4835 15.3302 39.0309 18.5524C39.0143 18.6188 38.9977 18.6686 38.9811 18.7184Z" fill="#2B1131"/>
<path d="M35.2275 19.3496C32.0385 24.2825 28.9492 29.0492 25.7603 33.9655C25.5444 32.5869 25.3617 31.3745 25.179 30.162C25.1292 29.8631 25.3285 29.6305 25.478 29.4146C27.5541 26.1925 29.6468 22.9869 31.723 19.7814C31.8724 19.5323 32.0053 19.3496 32.3541 19.3496C33.251 19.3662 34.1645 19.3496 35.2275 19.3496Z" fill="#2B1130"/>
<path d="M22.0566 39.3468C21.8905 38.1177 21.741 36.9053 21.5749 35.6762C21.5583 35.4935 21.6413 35.3607 21.7244 35.2278C22.6711 33.7662 23.6012 32.3212 24.6808 30.8762C24.6642 32.5869 25.8766 34.2811 24.4649 36.0084C23.6178 37.0382 22.9867 38.2506 22.2559 39.38C22.1894 39.38 22.123 39.3634 22.0566 39.3468Z" fill="#2B1131"/>
<path d="M22.2559 13.0548C20.8441 12.241 19.5652 11.4936 18.2863 10.7461C18.1036 10.6299 17.7548 8.86933 17.8545 8.70324C17.9375 8.55376 18.087 8.58698 18.2199 8.58698C19.2164 8.58698 20.1963 8.58698 21.1929 8.58698C21.4586 8.58698 21.6579 8.62019 21.7078 8.96898C21.8572 10.2811 22.0399 11.5932 22.2559 13.0548Z" fill="#2A122F"/>
</svg>
