<svg width="48" height="48" viewBox="0 0 48 48" fill="none" xmlns="http://www.w3.org/2000/svg">
<path d="M0 24C0 10.7762 10.72 0 23.9437 0C37.1675 0 47.8875 10.7762 47.8875 24C47.8875 37.2238 37.1675 48 23.9437 48C10.72 48 0 37.2238 0 24Z" fill="white"/>
<path fill-rule="evenodd" clip-rule="evenodd" d="M32.9763 14.9531C32.8591 14.8359 32.7888 14.7187 32.7888 14.5547C32.7888 14.3906 32.8591 14.2734 32.9763 14.1562C33.2107 13.9453 33.5857 13.9453 33.8435 14.1562C33.9607 14.2734 34.031 14.3906 34.031 14.5547C34.031 14.7187 33.9607 14.8359 33.8435 14.9531C33.7263 15.0469 33.5622 15.1172 33.4216 15.1172C33.2576 15.1406 33.0935 15.0937 32.9763 14.9531Z" fill="#0D022B"/>
<path fill-rule="evenodd" clip-rule="evenodd" d="M31.4763 16.5702C31.3826 16.4531 31.3123 16.3359 31.3123 16.1718C31.3123 16.0077 31.3826 15.8906 31.4763 15.7734C31.6873 15.5624 32.0622 15.5624 32.2732 15.7734C32.3669 15.8906 32.4372 16.0077 32.4372 16.1718C32.4372 16.3359 32.3669 16.4531 32.2732 16.5702C32.156 16.664 32.0388 16.7343 31.8747 16.7343C31.7107 16.7343 31.5935 16.664 31.4763 16.5702Z" fill="#0D022B"/>
<path fill-rule="evenodd" clip-rule="evenodd" d="M29.8357 18.1171C29.7419 18.0233 29.6716 17.8827 29.6716 17.7186C29.6716 17.5546 29.7419 17.4374 29.8357 17.3202C30.0466 17.1093 30.4216 17.1093 30.6326 17.3202C30.7263 17.4139 30.7966 17.5546 30.7966 17.7186C30.7966 17.8827 30.7263 17.9999 30.6326 18.1171C30.5154 18.2342 30.3982 18.2811 30.2341 18.2811C30.0701 18.2811 29.9294 18.2108 29.8357 18.1171Z" fill="#0D022B"/>
<path fill-rule="evenodd" clip-rule="evenodd" d="M28.2654 19.6874C28.1482 19.5937 28.0779 19.4531 28.0779 19.289C28.0779 19.1249 28.1482 19.0077 28.2654 18.8906C28.4997 18.6796 28.8747 18.6796 29.1326 18.8906C29.2497 18.9843 29.32 19.1249 29.32 19.289C29.32 19.4531 29.2497 19.5937 29.1326 19.6874C29.0154 19.8046 28.8513 19.8515 28.7107 19.8515C28.5466 19.8515 28.406 19.828 28.2654 19.6874Z" fill="#0D022B"/>
<path fill-rule="evenodd" clip-rule="evenodd" d="M26.7654 21.2576C26.6482 21.1639 26.6013 21.0232 26.6013 20.8592C26.6013 20.6951 26.6716 20.5779 26.7654 20.4608C26.9763 20.2498 27.3513 20.2498 27.5622 20.4608C27.6794 20.5545 27.7263 20.6951 27.7263 20.8592C27.7263 21.0232 27.656 21.1639 27.5622 21.2576C27.4685 21.3748 27.3279 21.4217 27.1638 21.4217C27.0232 21.4451 26.8591 21.3982 26.7654 21.2576Z" fill="#0D022B"/>
<path fill-rule="evenodd" clip-rule="evenodd" d="M24.9607 22.4294C24.9607 22.2653 25.031 22.1481 25.1248 22.0309C25.3357 21.82 25.7107 21.82 25.9216 22.0309C26.0388 22.1481 26.0857 22.2653 26.0857 22.4294C26.0857 22.5934 26.0154 22.7106 25.9216 22.8278C25.8279 22.9216 25.6872 22.9919 25.5232 22.9919C25.3591 22.9919 25.2419 22.9216 25.1248 22.8278C25.0076 22.7341 24.9607 22.5934 24.9607 22.4294Z" fill="#0D022B"/>
<path fill-rule="evenodd" clip-rule="evenodd" d="M22.031 25.8983C21.9373 25.8046 21.8669 25.6639 21.8669 25.4999C21.8669 25.3358 21.9373 25.2186 22.031 25.1014C22.2419 24.8905 22.6169 24.8905 22.8279 25.1014C22.9451 25.2186 22.9919 25.3358 22.9919 25.4999C22.9919 25.6639 22.9216 25.7811 22.8279 25.8983C22.7341 26.0155 22.5935 26.0624 22.4294 26.0624C22.2888 26.0858 22.1482 26.0389 22.031 25.8983Z" fill="#0D022B"/>
<path fill-rule="evenodd" clip-rule="evenodd" d="M20.4138 27.4684C20.2966 27.3747 20.2263 27.2341 20.2263 27.07C20.2263 26.9059 20.2966 26.7888 20.4138 26.6716C20.6482 26.4606 21.0232 26.4606 21.281 26.6716C21.3982 26.7888 21.4685 26.9059 21.4685 27.07C21.4685 27.2341 21.3982 27.3512 21.281 27.4684C21.1638 27.5856 20.9997 27.6325 20.8591 27.6325C20.6716 27.6559 20.531 27.5856 20.4138 27.4684Z" fill="#0D022B"/>
<path fill-rule="evenodd" clip-rule="evenodd" d="M18.8904 29.0622C18.7966 28.9685 18.7263 28.8279 18.7263 28.6638C18.7263 28.4998 18.7966 28.3591 18.8904 28.2654C19.1013 28.0544 19.4763 28.0544 19.6872 28.2654C19.781 28.3591 19.8513 28.4998 19.8513 28.6638C19.8513 28.8279 19.781 28.9451 19.6872 29.0622C19.5701 29.1794 19.4529 29.2263 19.2888 29.2263C19.1248 29.2263 19.031 29.156 18.8904 29.0622Z" fill="#0D022B"/>
<path fill-rule="evenodd" clip-rule="evenodd" d="M17.3201 30.6324C17.2029 30.5387 17.156 30.3981 17.156 30.234C17.156 30.0699 17.2263 29.9528 17.3201 29.8356C17.531 29.6246 17.906 29.6246 18.1169 29.8356C18.2107 29.9528 18.281 30.0699 18.281 30.234C18.281 30.3981 18.2107 30.5387 18.1169 30.6324C17.9997 30.7496 17.8826 30.7965 17.7185 30.7965C17.5779 30.7965 17.4138 30.7496 17.3201 30.6324Z" fill="#0D022B"/>
<path fill-rule="evenodd" clip-rule="evenodd" d="M15.7031 32.2027C15.5859 32.1089 15.5156 31.9683 15.5156 31.8043C15.5156 31.6402 15.5859 31.523 15.7031 31.4058C15.9375 31.1949 16.3125 31.1949 16.5234 31.4058C16.6406 31.523 16.7109 31.6402 16.7109 31.8043C16.7109 31.9683 16.6406 32.1089 16.5234 32.2027C16.4062 32.2964 16.2422 32.3667 16.1016 32.3667C15.9375 32.3667 15.7969 32.3199 15.7031 32.2027Z" fill="#0D022B"/>
<path fill-rule="evenodd" clip-rule="evenodd" d="M14.1562 33.7731C14.0391 33.6559 13.9922 33.5387 13.9922 33.3747C13.9922 33.2106 14.0625 33.0934 14.1562 32.9763C14.3672 32.7653 14.7422 32.7653 14.9531 32.9763C15.0703 33.0934 15.1172 33.2106 15.1172 33.3747C15.1172 33.5387 15.0469 33.6559 14.9531 33.7731C14.8594 33.8669 14.7187 33.9372 14.5547 33.9372C14.4375 33.9606 14.2969 33.8903 14.1562 33.7731Z" fill="#0D022B"/>
<path fill-rule="evenodd" clip-rule="evenodd" d="M14.9531 14.9531C15.0469 14.8359 15.1172 14.7187 15.1172 14.5547C15.1172 14.3906 15.0469 14.2734 14.9531 14.1562C14.7422 13.9453 14.3672 13.9453 14.1562 14.1562C14.0391 14.2734 13.9922 14.3906 13.9922 14.5547C13.9922 14.7187 14.0625 14.8359 14.1562 14.9531C14.25 15.0469 14.3906 15.1172 14.5547 15.1172C14.7187 15.1406 14.8594 15.0937 14.9531 14.9531Z" fill="#0D022B"/>
<path fill-rule="evenodd" clip-rule="evenodd" d="M16.5234 16.5702C16.6406 16.4531 16.7109 16.3359 16.7109 16.1718C16.7109 16.0077 16.6406 15.8906 16.5234 15.7734C16.289 15.5624 15.9141 15.5624 15.6562 15.7734C15.5391 15.8906 15.4688 16.0077 15.4688 16.1718C15.4688 16.3359 15.5391 16.4531 15.6562 16.5702C15.7734 16.664 15.9375 16.7343 16.0781 16.7343C16.2422 16.7109 16.4062 16.664 16.5234 16.5702Z" fill="#0D022B"/>
<path fill-rule="evenodd" clip-rule="evenodd" d="M18.1169 18.1171C18.2107 18.0233 18.281 17.8827 18.281 17.7186C18.281 17.5546 18.2107 17.4374 18.1169 17.3202C17.906 17.1093 17.531 17.1093 17.3201 17.3202C17.2263 17.4139 17.156 17.5546 17.156 17.7186C17.156 17.8827 17.2263 17.9999 17.3201 18.1171C17.4373 18.2342 17.5544 18.2811 17.7185 18.2811C17.8591 18.2811 17.9997 18.2108 18.1169 18.1171Z" fill="#0D022B"/>
<path fill-rule="evenodd" clip-rule="evenodd" d="M19.6872 19.6874C19.781 19.5937 19.8513 19.4531 19.8513 19.289C19.8513 19.1249 19.781 19.0077 19.6872 18.8906C19.4763 18.6796 19.1013 18.6796 18.8904 18.8906C18.7966 18.9843 18.7263 19.1249 18.7263 19.289C18.7263 19.4531 18.7966 19.5937 18.8904 19.6874C19.0076 19.8046 19.1248 19.8515 19.2888 19.8515C19.4294 19.8515 19.5701 19.828 19.6872 19.6874Z" fill="#0D022B"/>
<path fill-rule="evenodd" clip-rule="evenodd" d="M21.2341 21.2576C21.3513 21.1639 21.4216 21.0232 21.4216 20.8592C21.4216 20.6951 21.3513 20.5779 21.2341 20.4608C21.0232 20.2498 20.6247 20.2498 20.4138 20.4608C20.2966 20.5545 20.2263 20.6951 20.2263 20.8592C20.2263 21.0232 20.2966 21.1639 20.4138 21.2576C20.531 21.3748 20.6951 21.4217 20.8357 21.4217C20.9763 21.4451 21.1404 21.3982 21.2341 21.2576Z" fill="#0D022B"/>
<path fill-rule="evenodd" clip-rule="evenodd" d="M22.9919 22.4294C22.9919 22.2653 22.9216 22.1481 22.8279 22.0309C22.6169 21.82 22.2419 21.82 22.031 22.0309C21.9138 22.1481 21.8669 22.2653 21.8669 22.4294C21.8669 22.5934 21.9373 22.7106 22.031 22.8278C22.1248 22.9216 22.2654 22.9919 22.4294 22.9919C22.5935 22.9919 22.7107 22.9216 22.8279 22.8278C22.9451 22.7341 22.9919 22.5934 22.9919 22.4294Z" fill="#0D022B"/>
<path fill-rule="evenodd" clip-rule="evenodd" d="M24.3982 24.4216C24.5154 24.3044 24.5622 24.1872 24.5622 24.0231C24.5622 23.8591 24.4919 23.7419 24.3982 23.6247C24.1872 23.4138 23.8123 23.4138 23.6013 23.6247C23.4841 23.7419 23.4373 23.8591 23.4373 24.0231C23.4373 24.1872 23.5076 24.3044 23.6013 24.4216C23.6951 24.5153 23.8357 24.5856 23.9997 24.5856C24.1638 24.5856 24.3044 24.5153 24.3982 24.4216Z" fill="#0D022B"/>
<path fill-rule="evenodd" clip-rule="evenodd" d="M25.9685 25.8983C26.0857 25.8046 26.156 25.6639 26.156 25.4999C26.156 25.3358 26.0857 25.2186 25.9685 25.1014C25.7341 24.8905 25.3591 24.8905 25.1482 25.1014C25.031 25.2186 24.9607 25.3358 24.9607 25.4999C24.9607 25.6639 25.031 25.7811 25.1482 25.8983C25.2654 26.0155 25.4294 26.0624 25.5701 26.0624C25.6872 26.0858 25.8513 26.0389 25.9685 25.8983Z" fill="#0D022B"/>
<path fill-rule="evenodd" clip-rule="evenodd" d="M27.5622 27.4684C27.656 27.3747 27.7263 27.2341 27.7263 27.07C27.7263 26.9059 27.656 26.7888 27.5622 26.6716C27.3513 26.4606 26.9763 26.4606 26.7654 26.6716C26.6716 26.7888 26.6013 26.9059 26.6013 27.07C26.6013 27.2341 26.6716 27.3512 26.7654 27.4684C26.8826 27.5856 26.9998 27.6325 27.1638 27.6325C27.281 27.6559 27.4451 27.5856 27.5622 27.4684Z" fill="#0D022B"/>
<path fill-rule="evenodd" clip-rule="evenodd" d="M29.1326 29.0622C29.2263 28.9685 29.2966 28.8279 29.2966 28.6638C29.2966 28.4998 29.2263 28.3591 29.1326 28.2654C28.9216 28.0544 28.5466 28.0544 28.3357 28.2654C28.2419 28.3591 28.1716 28.4998 28.1716 28.6638C28.1716 28.8279 28.2419 28.9451 28.3357 29.0622C28.4529 29.1794 28.5701 29.2263 28.7341 29.2263C28.8982 29.2263 29.0154 29.156 29.1326 29.0622Z" fill="#0D022B"/>
<path fill-rule="evenodd" clip-rule="evenodd" d="M30.6091 30.6324C30.7263 30.5387 30.7732 30.3981 30.7732 30.234C30.7732 30.0699 30.7029 29.9528 30.6091 29.8356C30.3982 29.6246 30.0232 29.6246 29.8123 29.8356C29.7185 29.9528 29.6482 30.0699 29.6482 30.234C29.6482 30.3981 29.7185 30.5387 29.8123 30.6324C29.9294 30.7496 30.0466 30.7965 30.2107 30.7965C30.3513 30.7965 30.5154 30.7496 30.6091 30.6324Z" fill="#0D022B"/>
<path fill-rule="evenodd" clip-rule="evenodd" d="M32.2732 32.2027C32.3904 32.1089 32.4372 31.9683 32.4372 31.8043C32.4372 31.6402 32.3669 31.523 32.2732 31.4058C32.0622 31.1949 31.6873 31.1949 31.4763 31.4058C31.3591 31.523 31.3123 31.6402 31.3123 31.8043C31.3123 31.9683 31.3826 32.1089 31.4763 32.2027C31.5701 32.2964 31.7107 32.3667 31.8747 32.3667C32.0388 32.3667 32.1794 32.3199 32.2732 32.2027Z" fill="#0D022B"/>
<path fill-rule="evenodd" clip-rule="evenodd" d="M33.8435 33.7731C33.9607 33.6559 34.031 33.5387 34.031 33.3747C34.031 33.2106 33.9607 33.0934 33.8435 32.9763C33.6091 32.7653 33.2341 32.7653 33.0232 32.9763C32.906 33.0934 32.8357 33.2106 32.8357 33.3747C32.8357 33.5387 32.906 33.6559 33.0232 33.7731C33.1404 33.8669 33.3044 33.9372 33.4451 33.9372C33.5622 33.9606 33.7029 33.8903 33.8435 33.7731Z" fill="#0D022B"/>
<path fill-rule="evenodd" clip-rule="evenodd" d="M18.6796 15.3983C20.2734 14.3437 22.0312 13.8515 23.9764 13.8281C25.8748 13.8281 27.6326 14.3437 29.2732 15.3983L32.6482 12.0234C29.9998 10.0078 27.1404 9 23.9764 9C20.8124 9 17.9062 10.0078 15.3281 12.0234L18.6796 15.3983Z" fill="#0D022B"/>
<path fill-rule="evenodd" clip-rule="evenodd" d="M15.3046 29.2496C14.2265 27.609 13.7109 25.8747 13.7109 23.9997C13.7109 22.1013 14.2265 20.3435 15.3046 18.7498L11.9531 15.3983C9.98436 17.9763 9 20.8357 9 24.0231C9 27.1637 9.98436 30.0465 11.9765 32.6714L15.3046 29.2496Z" fill="#0D022B"/>
<path fill-rule="evenodd" clip-rule="evenodd" d="M29.2498 32.6013C27.6561 33.6794 25.8983 34.2419 23.9999 34.2654C22.0546 34.2654 20.2734 33.7497 18.6796 32.6248L15.3047 35.9763C17.9062 38.0153 20.8124 39.0231 23.9999 38.9997C27.1639 38.9762 30.0232 37.945 32.6013 35.9763L29.2498 32.6013Z" fill="#0D022B"/>
<path fill-rule="evenodd" clip-rule="evenodd" d="M32.5544 18.7029C33.6326 20.3435 34.195 22.1247 34.1482 24.0466C34.1247 25.9215 33.5857 27.6324 32.5544 29.2027L35.9294 32.5542C37.9216 29.9762 38.9528 27.1168 38.9528 23.9762C38.9762 20.7888 37.9684 17.8826 35.9294 15.2811L32.5544 18.7029Z" fill="#0D022B"/>
<path fill-rule="evenodd" clip-rule="evenodd" d="M36.07 33.6559C37.3591 33.6559 38.4372 34.7106 38.4372 36.023C38.4372 37.3121 37.3825 38.3902 36.07 38.3902C34.781 38.3902 33.7029 37.3355 33.7029 36.023C33.7029 34.7106 34.7576 33.6559 36.07 33.6559Z" fill="#0D022B"/>
<path fill-rule="evenodd" clip-rule="evenodd" d="M11.9297 33.6559C13.2187 33.6559 14.2734 34.7106 14.2734 36.023C14.2734 37.3121 13.2187 38.3902 11.9297 38.3902C10.6406 38.3902 9.58594 37.3355 9.58594 36.023C9.58594 34.7106 10.6406 33.6559 11.9297 33.6559Z" fill="#0D022B"/>
<path fill-rule="evenodd" clip-rule="evenodd" d="M36.1167 9.51562C37.4057 9.51562 38.4604 10.5703 38.4604 11.8828C38.4604 13.1953 37.4057 14.2499 36.1167 14.2499C34.8276 14.2499 33.7729 13.1953 33.7729 11.8828C33.7729 10.5703 34.8276 9.51562 36.1167 9.51562Z" fill="#0D022B"/>
<path fill-rule="evenodd" clip-rule="evenodd" d="M11.8828 9.51562C13.1718 9.51562 14.2499 10.5703 14.2499 11.8593C14.2499 13.1484 13.1953 14.2031 11.8828 14.2031C10.5937 14.2031 9.51562 13.1484 9.51562 11.8593C9.51562 10.5703 10.5703 9.51562 11.8828 9.51562Z" fill="#0D022B"/>
</svg>
