<svg width="48" height="48" viewBox="0 0 48 48" fill="none" xmlns="http://www.w3.org/2000/svg">
<circle cx="24" cy="24" r="24" fill="#7866D5"/>
<path d="M32.1434 14.5122C32.7905 14.5931 33.4644 14.647 34.1114 14.7548C35.3785 14.9974 35.8098 15.6445 35.5942 16.9385C35.5403 17.4237 35.1628 17.8012 34.6776 17.882C34.381 17.936 34.0575 17.9629 33.761 17.936C29.5554 17.936 25.3768 17.9629 21.1712 17.9629C20.5511 17.9629 19.9041 18.0168 19.2841 18.1247C17.2082 18.4482 16.3995 19.3109 16.2377 21.4137C16.1569 22.3842 16.1569 22.3842 17.1543 22.3842H33.8688C34.0306 22.3842 34.1923 22.3842 34.3541 22.3842C34.6237 22.3842 34.8663 22.465 35.1089 22.5998C35.8638 23.0851 35.6751 23.8669 35.6481 24.5678C35.6211 25.134 35.2707 25.4575 34.6776 25.5653C34.4349 25.6192 34.1923 25.6192 33.9227 25.6192C28.2075 25.6192 22.4922 25.6192 16.7769 25.6192C16.1569 25.6192 16.1569 25.6192 16.2108 26.2393C16.2377 26.8054 16.2916 27.3716 16.4264 27.9377C16.696 28.9621 17.3161 29.6091 18.3675 29.9057C19.4997 30.2292 20.6859 30.2831 21.8452 30.3101C25.916 30.3101 30.0137 30.3101 34.1114 30.3101C34.6237 30.3101 35.1089 30.364 35.4324 30.8492C35.9446 31.658 35.675 32.7094 34.8663 33.2216C34.7584 33.3025 34.6506 33.3564 34.5158 33.3834C33.6262 33.6799 32.7096 33.7338 31.766 33.7608C27.9109 33.8417 24.0828 33.8417 20.2546 33.7608C19.0684 33.7338 17.8822 33.599 16.723 33.3564C14.0001 32.7903 12.6252 31.3884 12.1669 28.6386C12.0591 28.0186 12.0052 27.3716 11.9243 26.7245V21.7102C11.9782 21.2249 12.0322 20.7127 12.0861 20.2275C12.4365 17.1272 13.8384 15.5905 16.8847 14.8896C17.9631 14.647 19.0954 14.5931 20.1737 14.4852L32.1434 14.5122Z" fill="black"/>
<path d="M25.9969 34.3C24.0558 34.3 22.1417 34.273 20.2277 34.2461C19.0145 34.2191 17.8014 34.0843 16.6152 33.8147C13.6767 33.1947 12.167 31.6311 11.6817 28.7195C11.6008 28.2612 11.5469 27.8029 11.52 27.3716C11.493 27.1829 11.466 26.9942 11.4391 26.7785V26.7246V21.6563L11.493 21.171C11.52 20.8206 11.5739 20.4971 11.6008 20.1736C11.9783 16.8576 13.5419 15.1592 16.8039 14.4313C17.6666 14.2426 18.5023 14.1618 19.338 14.0809C19.6076 14.0539 19.8772 14.027 20.1468 14H20.2007H32.1974H32.2243C32.4131 14.027 32.6287 14.0539 32.8174 14.0539C33.2757 14.1078 33.734 14.1348 34.2193 14.2426C35.756 14.5392 36.349 15.4019 36.0795 16.9655C35.9986 17.6394 35.4594 18.2056 34.7315 18.3134C34.408 18.3673 34.0845 18.3943 33.734 18.3943C29.5554 18.4212 25.3498 18.4482 21.1712 18.4482C20.5781 18.4482 19.9581 18.5021 19.365 18.61C17.5048 18.9065 16.8848 19.5805 16.723 21.4676C16.723 21.6294 16.6961 21.7911 16.6961 21.9259C16.8039 21.9259 16.9926 21.9259 17.1544 21.9259H34.3541C34.7046 21.9259 35.055 22.0337 35.3516 22.1955C36.2682 22.7886 36.1873 23.6782 36.1334 24.3252C36.1334 24.4061 36.1064 24.5139 36.1064 24.5948C36.0525 25.3497 35.5942 25.8619 34.7585 26.0236C34.4619 26.0776 34.1923 26.0776 33.9228 26.0776H16.8039C16.7769 26.0776 16.723 26.0776 16.6961 26.0776C16.6961 26.1045 16.6961 26.1315 16.6961 26.1584V26.1854C16.723 26.7515 16.7769 27.2907 16.9117 27.8299C17.1274 28.6656 17.6396 29.1778 18.5023 29.4205C19.6615 29.744 20.8477 29.7979 21.8722 29.7979C25.0533 29.8248 28.2884 29.8248 31.4425 29.8248H34.1384C34.5428 29.8248 35.3785 29.8248 35.8638 30.6066C36.1873 31.1189 36.2682 31.712 36.1334 32.2781C35.9986 32.8442 35.6481 33.3295 35.1359 33.653C35.0011 33.7339 34.8394 33.8147 34.6776 33.8687C33.6801 34.1922 32.6557 34.2461 31.793 34.273C29.8789 34.273 27.9379 34.3 25.9969 34.3ZM12.4096 26.6976C12.4366 26.8863 12.4635 27.075 12.4635 27.2637C12.5174 27.6951 12.5714 28.1264 12.6253 28.5578C13.0566 31.0919 14.2698 32.332 16.8039 32.8712C17.9362 33.1138 19.0954 33.2486 20.2546 33.2756C24.0558 33.3564 27.9379 33.3564 31.766 33.2756C32.5479 33.2486 33.4914 33.1947 34.3541 32.9251C34.435 32.8981 34.5158 32.8442 34.5967 32.8173C34.8663 32.6286 35.082 32.359 35.1629 32.0355C35.2437 31.712 35.1898 31.3884 35.0011 31.0919C34.8394 30.8493 34.6237 30.7684 34.1115 30.7684H31.4156C28.2884 30.7684 25.0263 30.7684 21.8452 30.7414C20.7668 30.7414 19.4998 30.6875 18.2327 30.3101C17.0196 29.9866 16.2647 29.2048 15.9682 27.9916C15.8334 27.3985 15.7525 26.7785 15.7525 26.1854V26.1584C15.7255 25.781 15.6986 25.5114 15.9143 25.2688C16.1299 25.0262 16.4265 25.0262 16.8039 25.0262H33.9497C34.1654 25.0262 34.408 25.0262 34.6237 24.9722C35.055 24.8914 35.1629 24.7027 35.1898 24.4331C35.1898 24.3252 35.2168 24.2444 35.2168 24.1365C35.2707 23.4626 35.2707 23.139 34.8933 22.8964C34.7585 22.8155 34.5698 22.7616 34.408 22.7616H17.1544C16.5613 22.7616 16.2108 22.7616 15.9412 22.492C15.6716 22.2224 15.7255 21.845 15.7525 21.2789C15.9412 18.9604 16.9117 17.909 19.2032 17.5586C19.8502 17.4507 20.4973 17.3968 21.1712 17.3699C25.3768 17.3699 29.5554 17.3429 33.761 17.3429C34.0576 17.3429 34.3271 17.3429 34.5967 17.289C34.8663 17.262 35.082 17.0463 35.1089 16.7768C35.2977 15.6984 35.0281 15.3479 34.0036 15.1323C33.5723 15.0514 33.1409 14.9975 32.7096 14.9705C32.5209 14.9436 32.3052 14.9166 32.1165 14.9166H20.2007C19.9311 14.9436 19.6615 14.9705 19.3919 14.9975C18.5562 15.0784 17.7744 15.1323 16.9656 15.321C14.135 16.0219 12.8949 17.3968 12.5714 20.3084C12.5444 20.6319 12.4905 20.9554 12.4635 21.3058L12.4096 21.7641V26.6976Z" fill="black"/>
</svg>
