<svg width="48" height="48" viewBox="0 0 48 48" fill="none" xmlns="http://www.w3.org/2000/svg">
<path d="M0 24C0 10.7452 10.7452 0 24 0C37.2548 0 48 10.7452 48 24C48 37.2548 37.2548 48 24 48C10.7452 48 0 37.2548 0 24Z" fill="#0D0934"/>
<g clip-path="url(#clip0_2_10690)">
<path d="M34.2248 15C38.7825 14.97 42.6806 17.8186 43.9999 22.0765C45.2593 26.2444 43.6701 30.7422 40.0119 33.2009C36.3237 35.6897 31.3163 35.4798 27.898 32.6912C27.3582 32.2414 26.9085 31.7317 26.3687 31.2819C25.829 30.8321 25.6791 30.4723 26.2788 29.8726C26.9085 29.2729 27.2983 29.3029 27.838 29.9326C29.907 32.2114 32.4557 33.3508 35.5441 32.8711C38.9624 32.3314 41.5411 29.8126 42.2308 26.5143C42.8905 23.3658 41.4512 20.0675 38.6926 18.2684C35.844 16.4393 32.1858 16.5293 29.4572 18.5383C28.8875 18.958 28.3777 19.4378 27.898 19.9176C27.3582 20.4873 26.9984 20.8171 26.2488 20.0675C25.5291 19.3478 25.9489 19.048 26.4287 18.5383C28.5576 16.3194 31.1064 15 34.2248 15Z" fill="#00EBBE"/>
<path d="M40.312 23.9055C39.9521 21.6267 38.1231 19.6477 35.7542 19.1079C33.4454 18.5682 31.4364 19.2279 29.7572 20.907C26.4289 24.2054 23.1306 27.5037 19.7722 30.7421C16.9237 33.4408 12.6358 33.7106 9.48738 31.4918C6.30897 29.2729 5.16954 25.2849 6.66879 21.8366C8.19802 18.2984 12.0061 16.3793 15.8742 17.1289C18.7827 17.6987 20.4919 19.9475 22.4409 21.8366C22.9207 22.2864 22.4109 22.5562 22.171 22.7961C20.4319 24.5052 18.6928 26.2144 16.9536 27.8936C15.9641 28.8231 14.7348 29.2129 13.3854 28.913C13.0556 28.8531 12.6058 28.8831 12.4859 28.4933C12.336 28.0735 12.7857 27.9235 12.9956 27.6837C14.8247 25.8546 16.6238 23.9955 18.5428 22.2564C19.2625 21.5667 19.1126 21.2069 18.4829 20.6372C15.9941 18.3583 12.216 18.3583 9.8472 20.6972C7.53835 22.976 7.47838 26.6642 9.69727 29.033C11.9761 31.4618 15.7842 31.6717 18.303 29.3928C20.5518 27.2939 22.7108 25.015 24.9896 22.8261C25.6193 22.2264 25.4094 21.8666 24.8997 21.3868C23.6103 20.1574 22.3509 18.8681 21.0616 17.6387C19.0826 15.8696 16.7737 15 14.1051 15C8.19802 15.03 3.46039 20.0675 4.06009 25.7346C4.50987 29.8726 6.66879 32.8111 10.5369 34.2504C14.4649 35.7196 18.1231 34.97 21.1815 32.1214C23.9102 29.5727 26.5189 26.904 29.1575 24.2954C29.9971 23.4558 30.8067 22.5862 31.7363 21.8066C33.0856 20.6972 35.0646 20.6372 36.4739 21.5667C37.8832 22.4663 38.6028 24.0855 38.303 25.6747C37.9731 27.4138 36.6838 28.6732 34.8847 28.973C33.2055 29.2429 31.8862 28.4933 30.8067 27.2939C30.267 26.6942 29.8472 26.2744 29.0376 27.1139C28.198 28.0135 29.0076 28.3133 29.4274 28.7331C29.8472 29.1529 30.267 29.6027 30.7767 29.9025C32.9956 31.3118 35.2745 31.3718 37.5234 30.0525C39.6823 28.7631 40.7018 26.3943 40.312 23.9055ZM10.237 26.2144C10.1171 25.7946 10.0871 25.3448 10.0571 25.1349C10.0871 22.1964 12.8757 20.2174 15.3944 21.1169C15.9641 21.3268 16.294 21.5367 15.6943 22.1064C14.195 23.5457 12.7258 25.015 11.2565 26.4843C10.6868 27.024 10.4169 26.8441 10.237 26.2144Z" fill="#00EBBE"/>
</g>
<defs>
<clipPath id="clip0_2_10690">
<rect width="40.4198" height="20" fill="white" transform="translate(4 15)"/>
</clipPath>
</defs>
</svg>
