<svg width="48" height="48" viewBox="0 0 48 48" fill="none" xmlns="http://www.w3.org/2000/svg">
<path d="M24 48C37.2548 48 48 37.2548 48 24C48 10.7452 37.2548 0 24 0C10.7452 0 0 10.7452 0 24C0 37.2548 10.7452 48 24 48Z" fill="#00EF8B"/>
<path d="M34.512 20.2559H27.744V27.0239H34.512V20.2559Z" fill="black"/>
<path d="M20.976 29.5679C20.976 30.9599 19.824 32.1119 18.432 32.1119C17.04 32.1119 15.888 30.9599 15.888 29.5679C15.888 28.1759 17.04 27.0239 18.432 27.0239H20.976V20.2559H18.432C13.296 20.2559 9.12 24.4319 9.12 29.5679C9.12 34.7039 13.296 38.8799 18.432 38.8799C23.568 38.8799 27.744 34.7039 27.744 29.5679V27.0239H20.976V29.5679Z" fill="black"/>
<path d="M30.288 16.8482H37.92V10.0802H30.288C25.152 10.0802 20.976 14.2562 20.976 19.3922V20.2562H27.744V19.3922C27.744 18.0002 28.896 16.8482 30.288 16.8482Z" fill="black"/>
<path d="M27.744 20.2559H20.976V27.0239H27.744V20.2559Z" fill="#16FF99"/>
</svg>
