<svg width="48" height="48" viewBox="0 0 48 48" fill="none" xmlns="http://www.w3.org/2000/svg">
<path d="M24 48C37.2548 48 48 37.2548 48 24C48 10.7452 37.2548 0 24 0C10.7452 0 0 10.7452 0 24C0 37.2548 10.7452 48 24 48Z" fill="white"/>
<path d="M17.9157 13.0015C24.6095 12.9995 31.3038 12.9995 37.9985 13.0015C38.0006 15.1653 38.0006 17.3286 37.9985 19.4916C31.3045 19.4936 24.6102 19.4936 17.9157 19.4916C17.9135 17.3279 17.9135 15.1645 17.9157 13.0015Z" fill="#02A6C2"/>
<path d="M10.0084 21.9333C12.168 21.9221 14.328 21.9221 16.4883 21.9333C16.4995 24.0929 16.4995 26.2529 16.4883 28.4133C14.3281 28.4244 12.1681 28.4246 10.0084 28.4138C9.9972 26.2538 9.9972 24.0937 10.0084 21.9333Z" fill="#5FCADE"/>
<path d="M17.9206 21.9331C22.7522 21.9228 27.5834 21.9228 32.4142 21.9331C32.4245 24.0927 32.4245 26.2527 32.4142 28.413C27.5828 28.4231 22.7516 28.4231 17.9206 28.413C17.9106 26.2533 17.9106 24.0934 17.9206 21.9331Z" fill="#5FCADE"/>
<path d="M17.9267 30.8668C20.0827 30.8434 22.2383 30.8434 24.3935 30.8668C24.4159 33.0214 24.4162 35.177 24.3945 37.3336C22.2385 37.3549 20.083 37.3545 17.9279 37.3325C17.9055 35.1781 17.9051 33.0229 17.9267 30.8668Z" fill="#ABEBF4"/>
</svg>
