<svg width="48" height="48" viewBox="0 0 48 48" fill="none" xmlns="http://www.w3.org/2000/svg">
<path d="M0 24C0 10.7452 10.7452 0 24 0C37.2548 0 48 10.7452 48 24C48 37.2548 37.2548 48 24 48C10.7452 48 0 37.2548 0 24Z" fill="#ECECEC"/>
<g clip-path="url(#clip0_2_10602)">
<path d="M43.7739 21.3014C43.0258 22.1585 42.2466 22.9689 41.2336 23.53C40.8284 23.7637 41.031 23.9507 41.2181 24.1845C42.1531 25.3533 42.7142 26.7092 43.057 28.1585C43.0882 28.2832 43.1349 28.4079 43.1349 28.5325C43.1349 28.8287 43.3375 29.2183 42.9947 29.3897C42.6207 29.5611 42.4181 29.1715 42.1843 28.9377C41.9973 28.7351 41.8258 28.5014 41.5765 28.2053C41.4518 28.9222 41.67 29.4832 41.8258 30.0598C42.0284 30.8079 41.9038 30.917 41.2025 30.6832C41.0155 30.6209 40.8908 30.6209 40.844 30.7923C40.6414 31.4624 40.1271 31.9611 40.0025 32.6936C39.6752 34.4079 38.6778 35.5923 36.9947 36.1066C36.5895 36.2313 36.4181 36.4494 36.2934 36.8235C36.0908 37.4157 35.8882 37.9923 35.6077 38.5533C35.3427 39.0832 35.3583 39.317 36.0596 39.317C36.9947 39.3326 37.9142 39.504 38.8025 39.7689C39.0674 39.8468 39.3635 39.8624 39.5973 40.1741C38.8336 40.0183 38.1323 39.8936 37.1973 39.7066C37.9609 40.252 38.709 40.3611 39.3635 40.9689C37.431 40.3923 35.8258 39.3326 33.8466 39.4884C35.857 39.3949 35.3427 37.5871 36.122 36.4962C35.1557 36.5585 34.3765 36.6209 33.6129 36.652C32.5999 36.6832 31.5869 36.6832 30.5895 36.5118C30.1375 36.4338 29.9505 36.5741 30.0285 37.0261C30.0908 37.4157 30.1531 37.7897 30.1999 38.1793C30.2778 38.7092 30.5116 39.0209 31.1194 38.9897C31.3687 38.9741 31.6181 39.0209 31.9297 39.317C30.0129 39.1144 28.3453 39.8312 26.4596 40.065C27.1921 39.4572 28.0336 39.4416 28.7661 39.13C27.8466 38.9585 26.9583 39.2702 26.0544 39.239C26.7557 38.8183 27.5349 38.6936 28.3297 38.678C28.844 38.678 29.5453 38.8806 29.8103 38.6157C30.122 38.3196 29.6544 37.665 29.7012 37.1507C29.7479 36.5118 29.4362 36.2936 28.8752 36.091C25.1194 34.7507 24.1843 32.2261 26.1012 28.7351C26.522 27.9715 27.0518 27.2702 27.5817 26.5533C26.896 26.304 21.8934 26.117 20.9116 26.2884C21.1297 26.6001 21.3479 26.8806 21.5505 27.1611C22.4077 28.3455 23.1401 29.5923 23.4207 31.0416C23.7479 32.7871 23.1557 34.1429 21.722 35.1403C21.3479 35.4053 20.9272 35.7481 20.5064 35.7949C18.9323 35.9975 18.9635 37.2131 18.7921 38.3196C18.7142 38.7403 18.9635 38.7248 19.244 38.6936C20.1012 38.6157 20.9583 38.6157 21.7843 38.8338C22.096 38.9118 22.4233 38.9585 22.7817 39.2702C21.7375 39.2702 20.8492 38.9274 19.7116 39.0676C20.631 39.4261 21.5038 39.4105 22.2051 40.0338C20.3661 39.8312 18.683 39.0832 16.844 39.2858C16.9375 38.9897 17.1713 39.0364 17.3583 38.9741C17.6856 38.8806 18.1375 39.0832 18.309 38.6313C18.5583 37.9923 18.683 37.3377 18.6207 36.652C18.6051 36.3871 18.3557 36.465 18.1843 36.4806C16.5012 36.7144 14.8336 36.6988 13.1505 36.4806C12.6986 36.4183 12.6674 36.6209 12.7921 36.9637C13.0414 37.6183 13.3064 38.2572 13.5401 38.9118C13.7739 39.5819 14.4129 39.0988 14.8025 39.4416C12.87 39.3481 11.2337 40.3144 9.2856 40.9533C9.9869 40.3144 10.7194 40.2053 11.2648 39.7222C10.5635 39.8624 9.87781 39.9871 9.17651 40.1274C10.1895 39.5351 11.3272 39.4105 12.4492 39.2858C13.3531 39.1923 13.3531 39.2079 12.9947 38.3351C12.9324 38.1637 12.8388 38.0079 12.7921 37.8364C12.496 36.8546 12.0752 36.1066 10.9375 35.7325C9.62846 35.2962 8.94274 34.1118 8.69339 32.7715C8.55313 32.0235 8.07002 31.478 7.83625 30.7923C7.75833 30.5741 7.63365 30.5429 7.41547 30.6832C6.80768 31.0728 6.72976 30.7455 6.77651 30.2157C6.80768 29.7014 6.77651 29.1871 6.77651 28.6261C6.43365 28.6884 6.35573 29.0001 6.16872 29.1715C5.93495 29.3897 5.73235 29.8105 5.35833 29.6235C4.99989 29.4364 5.1869 29.0157 5.24924 28.704C5.60768 27.0676 6.21547 25.5403 7.30638 24.2313C7.64924 23.8105 7.69599 23.6079 7.1817 23.3274C6.48041 22.9222 5.87261 22.4079 5.35833 21.7689C4.71937 20.9897 4.76612 20.4442 5.51417 19.7585C6.1843 19.1351 7.04144 18.917 7.92976 18.7923C8.77131 18.6676 9.62846 18.652 10.4856 18.7767C10.922 18.839 11.0466 18.6832 10.922 18.2624C10.7194 17.5144 10.5635 16.7507 10.6259 15.9715C10.657 15.5975 10.7038 15.2079 11.0934 15.0676C11.5298 14.9118 11.6233 15.3637 11.8103 15.6131C11.9194 15.7533 11.9817 15.9871 12.1999 15.9403C12.4804 15.8936 12.4181 15.6287 12.4181 15.4261C12.3869 14.4442 12.2778 13.4624 12.496 12.4806C12.6207 11.8884 12.8388 11.3274 13.4155 11.0157C14.0077 10.6884 14.5064 11.0001 14.5064 11.6858C14.5064 12.1689 14.2259 12.6209 14.3505 13.1819C14.7557 13.0261 14.7557 12.652 14.8492 12.3715C15.2233 11.2494 15.4414 10.065 16.0181 9.00528C16.6259 7.89878 17.4986 7.60268 18.5427 8.13255C19.3687 8.53774 19.6181 9.20787 19.244 10.065C18.9323 10.7975 18.3557 11.3274 17.7323 11.8105C17.1246 12.2936 16.5012 12.7611 16.1116 13.4624C15.9713 13.7118 15.644 14.0235 15.9401 14.2572C16.1895 14.4598 16.4233 14.0858 16.6259 13.8988C16.7973 13.7429 16.9531 13.5559 17.1401 13.4312C17.4518 13.2131 17.8103 13.0728 18.1375 13.3689C18.4804 13.6806 18.4181 14.0702 18.1843 14.4287C18.0908 14.5533 17.9973 14.678 17.8882 14.7871C17.5609 15.0832 17.4986 15.3014 17.8726 15.6442C18.5116 16.2209 18.8233 17.0312 18.8388 17.8728C18.8544 18.6676 19.1194 18.73 19.8051 18.5118C20.6155 18.2468 21.4726 18.1689 22.3297 18.2624C23.483 18.3871 23.7947 18.6053 24.3246 19.665C24.5895 18.5118 25.4622 18.3248 26.3973 18.2468C27.3012 18.1845 28.2207 18.278 29.0778 18.5741C29.6077 18.7611 29.7012 18.5897 29.7168 18.1066C29.7479 17.3118 29.9817 16.5793 30.4492 15.9403C31.1194 15.0209 31.883 14.7559 33.0051 15.0832C33.27 15.1611 33.3947 15.1455 33.4258 14.865C33.722 12.6364 34.0804 10.4079 33.5973 8.16372C33.4726 7.58709 33.3012 7.15073 32.522 7.44683C31.9609 7.64943 31.2752 7.8832 30.87 7.15073C30.5583 6.57411 30.9947 5.63904 31.6648 5.23385C31.7895 5.15593 31.9142 5.078 32.0544 4.9845C32.522 4.9845 32.9895 4.9845 33.457 4.9845C34.5791 5.32735 35.4362 5.93515 35.7323 7.15073C35.9349 7.99229 35.9817 8.83385 35.9505 9.69099C35.9349 10.065 35.9194 10.439 35.9038 10.9066C36.3713 10.5481 36.6518 10.1585 37.1505 10.0962C37.6025 10.0494 37.9765 10.1897 38.1947 10.5949C38.4129 11.0001 38.257 11.3429 37.9297 11.6235C37.6181 11.8884 37.3064 12.1689 37.0103 12.4494C36.6362 12.8079 36.1999 13.1507 36.0908 13.7585C36.231 13.7429 36.309 13.7429 36.3713 13.7274C36.9168 13.5403 37.5245 13.2754 37.8674 13.9611C38.1791 14.6001 37.6648 15.0053 37.2284 15.3793C37.1661 15.4261 37.1038 15.4728 37.0414 15.5196C36.5116 15.8157 36.044 16.1585 36.4804 16.8287C36.1999 17.0312 36.0752 16.439 35.7947 16.8287C35.4051 17.3585 35.5297 17.904 35.9505 18.4027C36.4648 19.0261 36.9791 18.9637 37.6492 18.839C38.3038 18.7144 38.9895 18.6832 39.6596 18.7144C41.2336 18.7767 42.7453 19.0261 43.7271 20.491C43.7739 20.7715 43.7739 21.0364 43.7739 21.3014ZM28.283 26.039C27.4414 27.3326 26.6466 28.517 26.1012 29.8261C25.0414 32.4131 25.6492 34.2209 28.1895 35.3741C31.2284 36.7611 34.3609 36.6676 37.4778 35.53C38.4129 35.1871 39.0986 34.5014 39.3791 33.504C39.8778 31.7118 39.5973 29.9351 38.9116 28.2676C38.5687 27.4261 38.3349 26.6468 38.4908 25.7585C38.631 25.0105 38.4752 24.917 37.7116 25.0728C36.231 25.3689 34.6882 25.5092 33.5194 26.6313C33.4882 26.6624 33.4259 26.678 33.3791 26.6936C33.0207 26.9118 32.6934 26.8806 32.4129 26.5533C31.6025 25.5871 30.5739 25.0261 29.3272 24.8235C29.1246 24.7923 28.922 24.7144 28.7505 24.5897C27.4726 23.6546 26.0233 23.6235 24.5427 23.717C24.0752 23.7481 23.6077 23.7481 23.1401 23.717C22.1895 23.6546 21.3168 23.7793 20.4908 24.3403C20.0388 24.652 19.4622 24.8702 18.9168 24.9637C17.9973 25.1196 17.3116 25.5715 16.6882 26.2261C15.8622 27.052 15.7375 27.0988 14.7869 26.3663C13.9609 25.7274 13.0726 25.3533 12.0285 25.3066C11.7791 25.291 11.5298 25.1975 11.2648 25.1663C10.8908 25.104 10.5324 24.7923 10.1427 25.2598C9.7843 25.6962 9.79988 26.1793 10.0025 26.5689C10.1895 26.9274 10.1116 27.1767 10.0025 27.4884C9.47261 29.0624 9.03625 30.652 9.12976 32.3507C9.20768 33.9559 9.95573 35.078 11.483 35.6702C12.4181 36.0287 13.3687 36.2312 14.3505 36.3092C16.7817 36.4806 19.1817 36.3871 21.3012 34.9689C23.031 33.8157 23.483 32.4598 22.844 30.4806C22.4077 29.1092 21.644 27.9092 20.8648 26.7092C20.7246 26.491 20.444 26.3196 20.522 26.0546C23.109 26.039 25.6492 26.039 28.283 26.039ZM12.6051 25.0105C12.1375 24.5897 11.7791 24.0442 11.1713 23.8416C9.87781 23.4209 8.84924 22.6105 7.91417 21.6754C7.61807 21.3793 7.36872 21.052 6.87002 21.4261C7.54015 20.5066 8.41287 20.117 9.72196 20.1014C8.97391 20.4598 9.30118 20.7559 9.4882 21.0364C10.9843 23.3429 13.1038 24.9793 15.4103 26.4131C15.6129 26.5377 15.8155 26.6468 16.0336 26.4131C17.67 24.6364 19.3064 22.891 20.3505 20.678C20.7713 19.7741 20.709 19.7118 19.7583 19.665C20.5375 19.2598 21.4882 19.3689 22.0336 19.93C22.1272 20.0235 22.3142 20.117 22.2051 20.304C21.4103 21.504 20.7557 22.8442 19.3843 23.5144C18.8388 23.7793 18.5427 24.2312 18.2622 24.7299C20.5064 24.3403 22.2674 23.2338 23.4518 21.2702C23.6544 20.9429 23.7791 20.5689 23.8414 20.1793C23.9817 19.3533 23.67 18.8702 22.844 18.73C21.7064 18.5274 20.5687 18.6209 19.4778 19.0105C19.1817 19.1196 18.9479 19.2754 18.8077 19.6027C18.122 21.239 17.67 21.5196 15.9557 21.3949C16.0804 21.7689 16.5635 21.7066 16.7661 22.0338C16.2986 22.0183 15.9246 21.8468 15.5973 21.5975C15.3635 21.4261 15.2233 21.4416 15.0051 21.6287C14.3817 22.1741 13.6336 22.1429 12.8856 21.9871C13.0259 21.9248 13.1817 21.9403 13.3375 21.9248C13.4934 21.9092 13.6492 21.878 13.8051 21.8468C12.5895 21.5351 11.9817 20.8338 11.9973 19.6027C11.9973 19.2598 11.7324 19.2754 11.5142 19.2287C10.4388 19.0105 9.34794 18.9949 8.27261 19.1507C7.39989 19.2754 6.54274 19.5092 5.85703 20.117C5.42067 20.491 5.20248 20.9274 5.6856 21.4416C7.54015 23.4832 9.87781 24.6209 12.6051 25.0105ZM36.1531 25.0105C38.8804 24.6053 41.2181 23.4676 43.1038 21.4416C43.509 21.0053 43.3999 20.6001 43.0258 20.2261C42.6362 19.8364 42.1375 19.6027 41.6232 19.4312C40.283 18.9949 38.9271 18.9949 37.5557 19.1819C37.057 19.2442 36.7297 19.3377 36.7297 20.0079C36.7297 20.8183 36.231 21.3949 35.4051 21.6287C35.2492 21.6754 35.031 21.6287 34.9687 21.8936C35.2804 21.9248 35.5765 21.9559 36.0908 22.0027C35.4518 22.1274 34.9531 22.2364 34.6414 22.0338C33.7531 21.4416 32.9271 21.6287 32.0856 22.0338C32.07 22.0338 32.0388 21.9871 32.0077 21.9715C32.2259 21.7222 32.6622 21.7533 32.8025 21.3793C31.1349 21.5351 30.5427 21.1767 29.9505 19.665C29.8414 19.3689 29.67 19.1819 29.3895 19.0728C28.2051 18.6053 26.9739 18.5274 25.7272 18.7611C25.0726 18.8858 24.8544 19.3533 24.87 19.9611C24.8856 20.3975 25.0414 20.8183 25.2596 21.2079C26.0856 22.6884 27.3479 23.6858 28.8908 24.3403C29.4051 24.5585 29.9194 24.7767 30.6362 24.7455C30.2466 24.2936 30.0596 23.8416 29.6233 23.6546C28.3453 23.078 27.5661 22.0183 26.9427 20.8494C26.8181 20.6157 26.2414 20.4131 26.6622 19.9767C26.9272 19.7118 27.2388 19.5248 27.5973 19.4624C28.0648 19.3845 28.5635 19.3066 29.031 19.665C28.0336 19.6962 28.0025 19.7274 28.3609 20.6157C28.3921 20.7092 28.4388 20.8027 28.4856 20.8962C29.5453 22.9689 31.1038 24.6676 32.6622 26.3663C32.8492 26.5689 33.0207 26.6001 33.27 26.4442C35.6233 24.9949 37.7739 23.3274 39.3012 20.9585C39.4882 20.6624 39.6596 20.3975 38.9895 20.0858C40.3453 20.117 41.2025 20.5066 41.857 21.4105C41.4051 21.0676 41.1557 21.3325 40.8752 21.6287C40.0648 22.4702 39.1765 23.2494 38.0544 23.639C37.2752 23.9196 36.7142 24.4494 36.1531 25.0105ZM35.3739 12.278C35.4674 11.4364 35.5765 10.6572 35.6233 9.878C35.7012 8.74034 35.6388 7.60268 35.0778 6.55852C34.4388 5.38969 32.8181 4.92216 31.8986 5.63904C31.509 5.93515 31.2129 6.32476 31.431 6.83904C31.6492 7.33774 32.1168 7.19748 32.522 7.13515C33.0674 7.04164 33.5817 6.74554 34.2207 6.74554C34.0336 6.99489 33.7999 7.11956 33.909 7.478C34.4388 9.19229 34.3921 10.9533 34.1895 12.6988C33.9869 14.3819 33.7999 16.0494 34.4856 17.6858C34.6258 18.0131 34.7661 18.1066 35.0466 17.9663C35.4051 17.7949 35.4986 16.5481 35.1557 16.2209C36.2778 16.252 36.6518 15.2079 37.431 14.7559C37.6648 14.6312 37.7116 14.3196 37.5245 14.0702C37.3687 13.852 37.1349 13.8364 36.9012 13.93C36.5271 14.1014 36.1687 14.2728 35.7635 14.4598C35.5921 13.8676 35.8726 13.4468 36.1843 13.0728C36.6051 12.5585 37.1038 12.091 37.5557 11.6079C37.8207 11.3274 38.1947 11.0312 37.8362 10.6261C37.4778 10.2209 37.057 10.4858 36.7297 10.7351C36.4648 10.9377 36.2934 11.2338 36.0752 11.4988C35.8726 11.7481 35.7635 12.091 35.3739 12.278ZM14.9583 14.678C15.0362 14.4131 15.3947 14.5222 15.457 14.2416C15.7843 12.839 16.8752 12.0754 17.9038 11.2494C18.2311 10.9845 18.5427 10.7196 18.7142 10.33C19.1038 9.51956 18.9947 8.89619 18.4181 8.55333C17.7323 8.14813 17.0311 8.33515 16.5323 9.02086C16.1895 9.48839 15.9869 10.0183 15.8311 10.5637C15.5661 11.4209 15.3012 12.2936 15.0362 13.1507C14.9427 13.4624 14.7869 13.7585 14.3973 13.6962C13.9453 13.6183 13.9765 13.2287 14.0077 12.9014C14.0388 12.5741 14.1168 12.2468 14.1479 11.904C14.1635 11.7014 14.1791 11.4676 13.9298 11.3741C13.7116 11.2962 13.5246 11.452 13.3843 11.6079C12.9947 12.0287 12.9012 12.5741 12.8856 13.1196C12.8544 13.9455 12.8856 14.7715 12.8388 15.5975C12.8233 15.9248 12.7609 16.3144 12.3869 16.439C12.0129 16.5637 11.8726 16.1897 11.6856 15.9559C11.5609 15.8001 11.483 15.5196 11.2337 15.6287C11.0311 15.7066 11.0311 15.9715 11.0155 16.1741C10.9687 16.9845 11.1557 17.7637 11.4207 18.5274C11.6388 19.1663 11.9349 19.2287 12.4025 18.7455C12.7609 18.3715 13.1661 18.0754 13.6648 18.091C14.1791 18.1066 14.2414 17.8416 14.2882 17.4364C14.3817 16.6728 14.6466 15.9559 15.2233 15.4416C15.7999 14.9118 15.5349 14.7559 14.9583 14.678ZM15.6908 19.9923C15.6285 20.865 15.9557 21.2079 16.7661 21.1455C17.3895 21.1144 17.8259 20.7559 18.1375 20.2572C19.1194 18.7611 18.7453 16.6105 17.3116 15.5351C16.6259 15.0209 15.9557 15.0832 15.3947 15.7222C14.9427 16.252 14.7246 16.8754 14.5999 17.5455C14.5531 17.8105 14.4285 18.1533 14.8025 18.278C15.1609 18.4027 15.083 17.9819 15.2077 17.8416C15.4726 17.5455 15.7687 17.3741 16.1583 17.4832C16.5791 17.6079 16.8129 17.8884 16.8285 18.3248C16.844 18.73 16.6414 19.104 16.2674 19.1507C15.644 19.2442 15.6129 19.5871 15.6908 19.9923ZM30.0129 18.1845C30.0129 19.0261 30.3713 20.039 30.7921 20.5222C31.3375 21.1611 32.1635 21.3325 32.8181 20.9741C33.4882 20.6001 32.9116 20.039 33.0674 19.5871C33.1765 19.291 32.9116 19.291 32.6934 19.2598C32.1947 19.1663 31.9142 18.8546 31.9142 18.3559C31.9142 17.9196 32.1635 17.6235 32.5843 17.5144C33.0518 17.4053 33.3791 17.6079 33.6129 18.0131C33.6908 18.1533 33.6752 18.4183 33.9557 18.3092C34.1583 18.2312 34.2051 18.0598 34.1895 17.8728C34.0804 17.0157 33.831 16.2053 33.1765 15.5819C32.6778 15.1144 32.0856 15.0832 31.5557 15.4728C30.6051 16.1585 30.122 17.1248 30.0129 18.1845ZM9.45703 27.9248C9.79988 26.865 9.53495 26.0546 9.31677 25.0572C9.67521 25.4312 9.90898 25.3066 10.0181 25.0105C10.1739 24.5897 9.73755 24.6676 9.56612 24.5585C9.34794 24.4183 9.083 24.3715 8.86482 24.2313C8.30378 23.8572 7.91417 24.0754 7.57131 24.5429C6.57391 25.8988 5.96612 27.4105 5.51417 29.0157C5.483 29.1092 5.483 29.2183 5.67002 29.2806C6.35573 28.7507 6.62067 27.8468 7.32196 27.1923C7.41547 28.1118 6.96352 28.9222 7.22846 29.904C7.96092 28.7975 8.13235 27.5975 8.72456 26.4598C8.9895 26.9741 9.17651 27.3637 9.45703 27.9248ZM42.8544 28.9689C42.4336 27.2858 41.9194 25.6494 40.8129 24.278C40.657 24.091 40.4856 23.9507 40.2207 24.0754C39.7687 24.278 39.3168 24.465 38.8648 24.652C38.7401 24.6988 38.6155 24.9014 38.709 24.9014C39.4258 24.917 38.9116 25.3377 38.896 25.4936C38.8181 26.1481 38.6466 26.7871 38.9271 27.4728C39.3479 27.1455 39.3012 26.5845 39.722 26.2572C40.2986 27.2858 40.3921 28.5325 41.2492 29.6079C41.3895 28.5949 40.9843 27.8001 41.0934 26.8494C41.7635 27.6287 42.0908 28.4702 42.8544 28.9689ZM14.6466 21.2235C14.1791 20.4131 14.1947 20.3663 15.1298 20.1481C15.3635 20.1014 15.3323 19.9611 15.3323 19.8209C15.3479 19.1507 14.7869 18.4494 14.1168 18.3248C13.4155 18.1845 12.8388 18.4183 12.4804 19.0416C12.122 19.665 12.1687 20.2728 12.6518 20.8183C13.1817 21.4261 13.8674 21.5507 14.6466 21.2235ZM34.0648 21.2235C34.9999 21.5975 35.8414 21.3481 36.2934 20.5689C36.6518 19.9611 36.5427 19.3689 36.1375 18.839C35.6856 18.2468 35.0622 18.1533 34.4077 18.3871C33.7531 18.6209 33.4882 19.1819 33.4258 19.8364C33.4103 19.9767 33.4103 20.1014 33.644 20.1481C34.5479 20.304 34.5791 20.4131 34.0648 21.2235ZM24.3713 20.304C24.1064 21.2546 23.5453 22.0027 22.7973 22.8131C23.9349 22.8131 24.8856 22.8131 25.9609 22.8131C25.2129 22.0338 24.6518 21.2858 24.3713 20.304ZM39.6908 27.3637C39.4103 27.6131 39.1765 27.8936 39.27 28.1897C39.5505 29.2183 39.8622 30.2468 40.0025 31.3689C40.4856 30.9793 40.4233 30.4338 40.7817 30.0754C40.9531 30.2001 41.1245 30.3248 41.296 30.4183C41.4051 30.4806 41.5453 30.5741 41.6232 30.4027C41.6856 30.2468 41.6388 30.1066 41.4518 30.0598C40.7817 29.904 40.5635 29.3118 40.2986 28.7975C40.0492 28.3611 39.8934 27.8624 39.6908 27.3637ZM8.72456 27.5819C8.31937 28.6728 8.00768 29.6858 7.07261 30.4338C7.57131 30.5274 7.69599 30.0754 8.02326 30.1222C8.2882 30.4806 8.27261 30.9793 8.81807 31.4468C8.61547 30.0754 9.89339 28.9377 8.72456 27.5819ZM26.3973 23.4209C26.3973 23.3429 26.3973 23.2806 26.3973 23.2027C25.0414 23.1715 23.67 23.0312 22.3142 23.2027C22.3142 23.2806 22.3142 23.3429 22.3142 23.4209C23.67 23.4209 25.0259 23.4209 26.3973 23.4209ZM16.2051 14.8338C16.7038 14.9118 17.2492 15.2702 17.6077 14.6001C17.7479 14.3351 18.122 14.0702 17.8259 13.8053C17.4674 13.478 17.2025 13.93 17.0466 14.1481C16.844 14.4754 16.5479 14.6312 16.2051 14.8338ZM8.45963 20.5222C8.25703 20.6936 7.7895 20.6468 7.82066 21.0209C7.83625 21.3325 8.11677 21.691 8.44404 21.7066C8.72456 21.7222 8.9895 21.3949 8.9895 21.0988C8.9895 20.8338 8.86482 20.5377 8.45963 20.5222ZM40.9531 21.0209C40.844 20.678 40.5168 20.6001 40.2362 20.5377C39.8622 20.4754 39.7531 20.8338 39.7375 21.0676C39.7375 21.3793 40.0025 21.7066 40.283 21.691C40.6258 21.691 40.7973 21.317 40.9531 21.0209ZM21.7375 20.3351C21.6752 20.039 21.4726 19.8676 21.2077 19.8676C20.7401 19.852 20.8492 20.2884 20.7713 20.5533C20.6778 20.8806 20.9895 21.052 21.2233 21.052C21.5973 21.0053 21.5661 20.5845 21.7375 20.3351ZM27.9713 20.491C27.7843 20.3507 28.0181 19.852 27.5349 19.8676C27.2856 19.8676 26.9739 20.0079 27.0362 20.3196C27.083 20.6001 27.1453 20.9897 27.5038 21.0364C27.7375 21.0676 27.9869 20.8806 27.9713 20.491ZM21.0674 21.504C21.0207 21.2858 20.8181 21.1455 20.6778 21.1923C20.3505 21.2702 20.2103 21.5663 20.1947 21.878C20.1791 22.0183 20.3194 22.2209 20.4752 22.1741C20.7869 22.065 20.9272 21.7689 21.0674 21.504ZM28.2362 22.1741C28.47 22.1429 28.5947 21.9715 28.5635 21.8157C28.5012 21.5507 28.3921 21.2546 28.0804 21.1923C27.9246 21.1611 27.6752 21.2858 27.6908 21.4884C27.722 21.8001 27.9869 22.0027 28.2362 22.1741ZM9.64404 21.9871C9.56612 21.8001 9.53495 21.5196 9.30118 21.5351C9.05183 21.5507 8.84924 21.7845 8.83365 22.0494C8.83365 22.2676 9.05183 22.439 9.23885 22.4702C9.51937 22.4858 9.56612 22.1897 9.64404 21.9871ZM39.457 22.4858C39.6908 22.4079 39.909 22.2676 39.909 22.0183C39.909 21.7845 39.6908 21.5663 39.4882 21.5196C39.2388 21.4572 39.1609 21.7533 39.1297 21.9248C39.083 22.1741 39.2233 22.3611 39.457 22.4858Z" fill="black"/>
<path d="M13.213 17.2961C12.7454 17.3896 12.2779 17.4519 11.9351 17.9351C11.9351 17.1558 12.4026 16.9376 13.213 17.2961Z" fill="black"/>
</g>
<defs>
<clipPath id="clip0_2_10602">
<rect width="38.774" height="36" fill="white" transform="translate(5 5)"/>
</clipPath>
</defs>
</svg>
