<svg width="48" height="48" viewBox="0 0 48 48" fill="none" xmlns="http://www.w3.org/2000/svg">
<path d="M24 48C37.2548 48 48 37.2548 48 24C48 10.7452 37.2548 0 24 0C10.7452 0 0 10.7452 0 24C0 37.2548 10.7452 48 24 48Z" fill="white"/>
<path d="M10.0092 16.3232L12.1315 17.6095C12.1315 17.6095 12.1315 26.0344 12.1223 30.2423C12.0856 30.6098 14.2354 31.648 14.6489 31.9603C16.8906 33.3385 19.114 34.7717 21.3833 36.0855C21.4109 32.5667 21.3925 25.5199 21.3925 25.5199L18.4157 23.8202C18.4157 23.8202 18.3882 22.7085 18.3698 21.1191C20.0787 22.1481 21.8519 23.0393 23.524 24.1234C23.7077 29.3603 23.524 34.6982 23.5883 39.9718C19.7571 37.7485 16.0637 35.3138 12.2601 33.0445C11.5527 32.5116 10.6064 32.1992 10 31.5653C10.0092 26.4938 10.0092 16.3232 10.0092 16.3232Z" fill="black"/>
<path d="M38.4812 16.3047C38.4812 21.3762 38.4812 31.51 38.4812 31.51L24.8929 39.9625L24.8654 37.3073L36.3589 30.2329C36.3589 30.2329 36.3773 23.4434 36.3497 20.0532C34.4112 21.1281 27.0979 25.5105 27.0979 25.5105V28.7078L24.8929 30.1594V24.3621C24.8929 24.3437 34.3009 18.6842 38.4812 16.3047Z" fill="black"/>
<path d="M15.3287 15.3035C17.5245 16.6633 24.2957 20.4118 24.2957 20.4118L27.7961 18.3354L29.4682 19.7778C29.4682 19.7778 24.8745 22.6259 24.4335 22.8832C24.1854 23.0669 24.0476 22.8464 23.8823 22.7546C19.5458 20.2372 15.1541 17.7474 10.8452 15.2025C14.1895 13.4017 17.5337 11.601 20.8688 9.77265C21.8243 9.31328 22.7246 8.73447 23.6893 8.28428C23.8914 8.16484 24.2222 7.85247 24.4427 8.08216C28.8619 10.4525 33.2627 12.8688 37.6819 15.23C36.9469 15.6251 35.5228 16.4611 35.5228 16.4611C35.5228 16.4611 29.0272 13.0434 26.3261 11.5275C23.5515 10.0483 24.6448 10.3515 21.9069 11.6928C19.7479 12.9148 17.3959 13.9989 15.3287 15.3035Z" fill="black"/>
</svg>
