<svg width="48" height="48" viewBox="0 0 48 48" fill="none" xmlns="http://www.w3.org/2000/svg">
<g clip-path="url(#clip0_2_6738)">
<path d="M14.7393 0C20.8887 0 27.0258 0 33.1752 0C33.5696 0.382519 33.4094 0.888432 33.434 1.34499C33.471 2.12236 33.5079 2.1964 34.2843 2.1964C35.3072 2.20874 36.33 2.18406 37.3529 2.20874C38.1293 2.22108 38.3388 2.43085 38.3511 3.19589C38.3757 4.77532 38.2155 4.65193 39.8176 4.66427C40.594 4.67661 40.8035 4.88638 40.8158 5.66375C40.8404 7.23085 40.6925 7.10745 42.2946 7.13213C43.0463 7.14447 43.2682 7.36658 43.2805 8.14396C43.3051 9.67404 43.1696 9.57532 44.71 9.58766C45.511 9.6 45.7205 9.80977 45.7328 10.6242C45.7452 11.6483 45.7329 12.6725 45.7452 13.6967C45.7575 14.4 45.8314 14.4987 46.5092 14.4987C48.3578 14.4987 47.9757 14.6098 47.988 16.0658C47.988 16.8802 48.0866 17.6946 47.9264 18.509C47.6923 18.7434 47.3965 18.7064 47.1131 18.7064C41.6907 18.7188 36.2561 18.7558 30.8337 18.6941C28.2581 18.6694 25.6825 18.7311 23.1069 18.7188C15.7991 18.6817 8.49126 18.7064 1.1711 18.7064C0.776752 18.7064 0.333106 18.8051 0.0126953 18.4473C0.0126953 17.2134 0.0126953 15.9918 0.0126953 14.7578C0.271489 14.4494 0.641193 14.4987 0.986251 14.4987C2.2186 14.4864 2.2186 14.4864 2.2186 13.2401C2.2186 12.364 2.20628 11.4756 2.2186 10.5995C2.23092 9.80977 2.4281 9.61234 3.19216 9.58766C4.62168 9.5383 4.62168 9.5383 4.67098 8.08226C4.69562 7.35424 4.8928 7.15681 5.63221 7.11979C7.07406 7.07044 7.07406 7.07044 7.12335 5.62673C7.148 4.88637 7.34517 4.68895 8.08458 4.66427C9.52643 4.61491 9.52643 4.61491 9.58805 3.18355C9.6127 2.41851 9.8222 2.22108 10.5986 2.20874C11.4735 2.1964 12.3608 2.20874 13.2358 2.20874C14.4805 2.20874 14.4805 2.20874 14.4928 0.974807C14.4928 0.629306 14.4312 0.259126 14.7393 0Z" fill="#FE00FA"/>
<path d="M47.9015 18.4596C47.9015 20.9151 47.9015 23.383 47.9015 25.8385C47.7167 26.0729 47.4579 26.0976 47.1868 26.0976C44.8576 26.1099 42.5408 26.1099 40.2117 26.0976C39.9898 26.0976 39.768 26.0729 39.5708 25.9372C39.4599 25.8385 39.3737 25.7151 39.3613 25.5794C39.2751 24.5922 39.2751 23.6174 39.3613 22.6303C39.3983 22.1984 39.7434 22.038 40.1624 22.0256C40.7909 22.0133 41.4317 22.0133 42.0602 22.0133C42.4545 22.0133 42.738 21.9269 42.7503 21.4457C42.7626 20.9398 42.4792 20.8164 42.0479 20.8164C39.8173 20.8164 37.5868 20.8164 35.3562 20.8164C34.9495 20.8164 34.6907 20.9398 34.6907 21.4087C34.6907 21.8776 34.9372 22.0133 35.3439 22.0133C35.96 22.0133 36.5762 22.0009 37.1801 22.0256C37.8455 22.0503 38.0797 22.2601 38.1043 22.9141C38.129 23.6914 38.1167 24.4688 38.1043 25.2462C38.1043 25.493 38.0674 25.7398 37.8702 25.9249C37.6484 26.0976 37.3773 26.0976 37.1185 26.1099C35.3562 26.1223 33.5816 26.1223 31.8194 26.1099C31.5729 26.1099 31.3264 26.1099 31.1169 25.9619C30.8335 25.0734 30.131 25.0734 29.3793 25.1228C28.8124 25.1598 28.2455 25.1351 27.6787 25.1228C27.3829 25.1228 27.1118 25.0858 26.9023 24.839C26.5203 24.0123 26.5572 23.1732 26.8653 22.3465C27.0871 22.0503 27.4076 22.0256 27.7403 22.0256C29.1328 22.0256 30.5131 22.038 31.9056 22.0256C32.4602 22.0133 32.5957 21.8529 32.5588 21.3223C32.5341 21.0015 32.3739 20.8411 32.0535 20.8287C31.6838 20.8164 31.3141 20.8287 30.9567 20.8164C30.2296 20.7917 30.0448 20.5943 29.9832 19.8539C29.9708 19.5948 30.0448 19.311 29.7244 19.1506C29.2561 18.9285 28.8248 19.1752 28.7755 19.6935C28.6892 20.693 28.6769 20.7177 27.7156 20.804C27.3336 20.8411 27.1734 21.0138 27.1734 21.384C27.1734 21.6801 27.2104 22.0009 26.9516 22.2354C26.7174 22.5315 26.3847 22.5315 26.0643 22.5192C25.6206 22.5069 25.4235 22.7043 25.4604 23.1362C25.4728 23.2719 25.4604 23.42 25.4604 23.568C25.4604 24.4812 25.4604 24.4935 26.397 24.6045C26.6312 24.6292 26.8283 24.7279 26.9762 24.9007C27.2843 25.4066 27.272 25.9125 26.9886 26.4308C26.9516 26.4554 26.9023 26.4925 26.8776 26.4801C26.1506 25.9002 25.2879 26.147 24.4746 26.1099C24.0309 26.0853 23.8584 26.3074 23.8584 26.7393C23.8584 27.8004 23.8707 28.8616 23.8461 29.9228C23.8337 30.2189 23.9323 30.6138 23.4394 30.6385C23.1559 30.3794 23.2299 30.0339 23.2299 29.713C23.2176 27.0107 23.2299 24.3084 23.2176 21.6061C23.2176 21.2236 23.2052 20.8534 22.663 20.8287C22.2194 20.8164 22.0222 21.0015 22.0222 21.4457C22.0222 22.3094 22.0345 23.1608 22.0099 24.0246C21.9975 24.9254 21.8127 25.1105 20.9377 25.1228C20.0627 25.1351 19.1755 25.1351 18.3005 25.1228C17.5734 25.1105 17.3516 24.8884 17.3269 24.1603C17.3023 23.2596 17.3269 22.3588 17.3146 21.458C17.3146 21.1125 17.2037 20.8657 16.797 20.8411C16.3164 20.804 16.1316 20.9521 16.1192 21.4827C16.0946 22.6673 16.1192 23.8642 16.1069 25.0488C16.1069 25.3572 16.1316 25.6657 15.8974 25.9249C15.3675 26.2333 14.8253 26.184 14.283 25.9866C14.2337 25.9249 14.2584 26.0236 14.2337 25.9495C14.0242 25.0734 13.3588 25.1105 12.6687 25.1351C11.9416 25.1598 11.2022 25.1722 10.4751 25.1351C9.83425 25.0981 9.30434 25.1722 9.14414 25.9125C8.93464 26.1099 8.66352 26.1346 8.3924 26.1223C7.87482 26.0976 7.71461 26.3567 7.72693 26.838C7.75158 27.3315 7.73926 27.8128 7.72693 28.3063C7.72693 28.5531 7.73926 28.7999 7.57905 29.0097C7.52976 29.0714 7.45582 29.1084 7.38188 29.1084C7.30794 29.0714 7.24632 29.022 7.20935 28.948C7.08611 28.7629 7.09844 28.5531 7.09844 28.3557C7.08611 26.6035 7.08611 24.839 7.09844 23.0868C7.09844 22.8153 7.09844 22.5562 7.32026 22.3465C7.55441 22.0503 7.87482 22.0503 8.20755 22.0503C9.88355 22.0503 11.5595 22.0503 13.2355 22.0503C13.5313 22.0503 13.864 22.0873 13.9626 21.6554C14.0735 21.1495 13.8764 20.8657 13.3464 20.8534C11.6458 20.8287 9.95749 20.8411 8.25684 20.8411C7.82552 20.8411 7.61602 21.0138 7.61602 21.458C7.61602 21.7665 7.62835 22.075 7.35723 22.3094C7.19702 22.4822 6.98752 22.5439 6.75338 22.5562C6.06326 22.6303 6.02629 22.6673 6.02629 23.3953C6.01397 24.9994 6.02629 26.6159 6.01397 28.22C6.01397 28.5161 6.06326 28.8369 5.77982 29.0714C5.43476 29.0714 5.42244 28.7999 5.38547 28.5655C5.3485 28.2447 5.37315 27.9115 5.36082 27.5783C5.36082 26.0112 5.47174 26.1346 3.882 26.1346C2.83451 26.1346 1.79934 26.1346 0.751838 26.1346C0.456074 26.1346 0.172634 26.1223 -0.0368652 25.8755C-0.0368652 23.42 -0.0368652 20.9521 -0.0368652 18.4966C15.9713 18.4596 31.9303 18.4596 47.9015 18.4596Z" fill="#E500FE"/>
<path d="M23.5012 30.6262C23.6737 29.491 23.5628 28.3434 23.5751 27.1959C23.5997 25.8385 23.5751 25.8385 24.943 25.8385C25.3127 25.8385 25.6824 25.8756 26.0521 25.8262C26.5451 25.7645 26.8285 25.9373 26.8655 26.4432C27.457 26.2087 28.0732 26.3321 28.677 26.3198C29.2439 26.3074 29.8108 26.3198 30.3777 26.3198C30.6488 26.3198 30.9076 26.3568 31.1171 26.5419C31.4868 27.3439 31.4498 28.1583 31.154 28.9727C30.9322 29.2689 30.6118 29.2935 30.2791 29.2935C28.8865 29.2935 27.494 29.2935 26.1137 29.2935C25.6947 29.2935 25.4606 29.4169 25.4606 29.8858C25.4606 30.293 25.6085 30.5028 26.0398 30.5028C26.5944 30.5028 27.1489 30.5028 27.6911 30.5028C28.5538 30.5151 28.714 30.6756 28.7756 31.5393C28.8126 32.1069 28.9605 32.2426 29.4781 32.218C29.7985 32.2056 29.9833 32.0576 29.971 31.7244C29.9587 31.1691 30.0203 30.6632 30.6488 30.4288C30.8583 30.3424 30.8213 30.0833 30.8336 29.8735C30.846 29.5897 30.809 29.2935 31.0555 29.0714C31.3019 28.7506 31.6593 28.7753 32.0044 28.7753C32.3864 28.7753 32.5959 28.6272 32.5589 28.2324C32.5096 27.7635 32.7315 27.2576 32.3741 26.8257C32.0783 26.6529 31.7456 26.6529 31.4252 26.6036C30.9569 26.5419 30.8829 26.2951 31.1171 25.8262C33.36 25.8262 35.6028 25.8262 37.8457 25.8262C38.1291 26.0113 38.1045 26.3198 38.1045 26.6036C38.1168 27.6894 38.0922 28.7753 38.1168 29.8612C38.1291 30.3794 38.314 30.5028 38.8069 30.4781C39.2259 30.4534 39.2999 30.1943 39.3122 29.8488C39.3245 28.7876 39.3122 27.7141 39.3245 26.6529C39.3245 26.3568 39.2752 26.0236 39.5956 25.8262C42.3684 25.8262 45.1412 25.8262 47.914 25.8262C47.9263 28.1583 47.9263 30.4905 47.9386 32.8103C47.9386 33.1558 47.8031 33.2175 47.5073 33.2051C46.8295 33.1928 46.1641 33.2051 45.4863 33.2051C45.3137 33.3779 45.1166 33.4519 44.8824 33.4519C44.6606 33.4519 44.4264 33.4642 44.2046 33.4642C30.7227 33.4642 17.2285 33.4642 3.7466 33.4642C3.31527 33.4642 2.83466 33.5876 2.46495 33.2175C1.6516 33.2175 0.838253 33.2175 0.0249023 33.2051C0.0249023 30.7496 0.0249023 28.2817 0.0249023 25.8262C1.68857 25.8262 3.36457 25.8385 5.02824 25.8139C5.5335 25.8015 5.68139 25.9743 5.69371 26.4802C5.70603 27.3316 5.55815 28.183 5.7923 29.0221C6.33453 28.6642 6.87676 28.6642 7.40667 29.0344L7.39435 29.0221C7.66547 29.2442 7.66547 29.5527 7.65314 29.8612C7.64082 30.293 7.82567 30.4905 8.26932 30.4905C9.4154 30.4781 10.5492 30.4781 11.6953 30.4905C12.1512 30.4905 12.3114 30.2807 12.2991 29.8488C12.2868 29.5897 12.2745 29.3182 12.4223 29.0714C12.4593 29.0097 12.5086 28.9604 12.5579 28.911C12.792 28.7506 13.0632 28.7506 13.322 28.763C13.8149 28.7876 14.0367 28.5779 14.0121 28.072C13.9874 27.566 13.9997 27.0478 14.0121 26.5419C14.0121 26.2828 13.9997 25.9989 14.2462 25.8139C14.7761 25.8139 15.3184 25.8139 15.8483 25.8139C16.1564 26.0236 16.1071 26.3445 16.1071 26.6529C16.1194 27.7141 16.0947 28.7876 16.1194 29.8488C16.1317 30.3547 16.3289 30.5028 16.8095 30.4658C17.2162 30.4288 17.3024 30.1696 17.3148 29.8365C17.3271 29.0344 17.3148 28.2447 17.3271 27.4426C17.3394 26.5049 17.5243 26.3198 18.4362 26.3074C19.3112 26.2951 20.1985 26.2951 21.0734 26.3074C21.7759 26.3198 21.9854 26.5419 22.01 27.2329C22.0347 28.072 22.01 28.911 22.0223 29.7501C22.0347 30.3794 22.1086 30.4534 22.7371 30.4781C22.9959 30.5028 23.2547 30.5275 23.5012 30.6262Z" fill="#BF00FE"/>
<path d="M2.44019 33.2175C16.7847 33.2175 31.1293 33.2175 45.4615 33.2175C45.4615 34.6736 45.4369 36.1296 45.4615 37.5733C45.4738 38.0546 45.3259 38.1656 44.8823 38.1409C44.3894 38.1039 43.8964 38.1533 43.4158 38.1286C43.0954 38.1163 42.9845 38.2026 42.9968 38.5358C43.0214 39.0664 42.9722 39.597 43.0091 40.1276C43.0338 40.5224 42.8859 40.6088 42.5162 40.5965C41.863 40.5718 41.2099 40.5965 40.5567 40.5965C40.2856 40.8926 39.9283 40.8556 39.5832 40.8556C37.3896 40.8679 35.2084 40.8556 33.0148 40.8556C24.8689 40.8556 16.7231 40.8556 8.57728 40.8556C8.15829 40.8556 7.70232 40.9666 7.35726 40.5965C6.70411 40.5965 6.05097 40.5718 5.39782 40.5965C5.04044 40.6088 4.88024 40.5348 4.90488 40.1276C4.94185 39.597 4.89256 39.0664 4.91721 38.5358C4.92953 38.2026 4.81862 38.1163 4.49821 38.1286C4.00527 38.1533 3.51233 38.1039 3.03171 38.1409C2.58807 38.178 2.44019 38.0546 2.45251 37.5733C2.47716 36.1296 2.45251 34.6736 2.44019 33.2175Z" fill="#9F00FE"/>
<path d="M7.3575 40.6087C18.424 40.6087 29.4905 40.6087 40.557 40.6087C40.557 41.238 40.5077 41.8796 40.557 42.5089C40.594 43.0025 40.4091 43.1012 39.9655 43.0642C39.4602 43.0272 38.9426 43.0642 38.425 43.0518C38.1539 43.0395 38.0676 43.1382 38.08 43.4097C38.0923 43.9032 38.0553 44.3968 38.0923 44.8904C38.1416 45.384 38.006 45.5567 37.4761 45.5444C36.2068 45.495 34.9375 45.5444 33.6682 45.5197C33.2615 45.5074 33.1382 45.6431 33.1629 46.0379C33.1999 46.4698 33.1382 46.9017 33.1752 47.3336C33.2245 47.8642 33.0766 48.0122 32.5221 48.0122C27.7652 47.9876 23.0207 47.9999 18.2638 47.9999C17.2656 47.9999 16.2551 47.9752 15.2569 48.0122C14.8132 48.0246 14.69 47.8765 14.7269 47.457C14.7639 46.9881 14.7146 46.5068 14.7393 46.0379C14.7639 45.6431 14.6407 45.5197 14.234 45.5197C12.9647 45.5444 11.6954 45.495 10.426 45.5444C9.88382 45.5691 9.76058 45.384 9.80987 44.8904C9.84685 44.3968 9.80987 43.9032 9.8222 43.4097C9.83452 43.1382 9.73593 43.0518 9.47714 43.0518C8.97188 43.0642 8.45429 43.0272 7.9367 43.0642C7.49306 43.1012 7.30821 42.9901 7.34518 42.5089C7.40679 41.8796 7.36982 41.238 7.3575 40.6087Z" fill="#8C00FE"/>
<path d="M23.501 30.6262C23.0204 30.8607 22.5028 30.7126 21.9976 30.7249C21.6771 30.7373 21.7634 30.4411 21.7634 30.2684C21.7511 29.2072 21.7388 28.1337 21.7634 27.0725C21.7757 26.653 21.6525 26.5049 21.2212 26.5172C20.1737 26.5419 19.1385 26.5419 18.091 26.5172C17.6474 26.5049 17.5488 26.6653 17.5488 27.0725C17.5734 28.1337 17.5365 29.2072 17.5611 30.2684C17.5734 30.6509 17.4379 30.7496 17.0682 30.7496C15.8481 30.762 15.8481 30.7743 15.8481 29.528C15.8481 28.2941 15.8358 27.0725 15.8235 25.8386C15.8358 24.2838 15.8605 22.729 15.8358 21.1743C15.8235 20.6931 15.9714 20.545 16.452 20.5573C17.5488 20.582 17.5488 20.5573 17.5488 21.6555C17.5488 22.581 17.5611 23.4941 17.5365 24.4195C17.5241 24.8021 17.6967 24.8514 18.0171 24.8391C19.1015 24.8267 20.186 24.8144 21.2705 24.8391C21.6525 24.8514 21.7511 24.7033 21.7511 24.3455C21.7264 23.2843 21.7634 22.2108 21.7388 21.1496C21.7264 20.7054 21.825 20.545 22.3056 20.545C23.4641 20.5697 23.4641 20.545 23.4641 21.7049C23.4887 24.691 23.501 27.6524 23.501 30.6262Z" fill="#FEFEFE"/>
<path d="M39.583 25.8385C39.5707 27.2945 39.5584 28.7506 39.5707 30.2066C39.5707 30.6385 39.4475 30.7619 39.0161 30.7495C37.8577 30.7372 37.8577 30.7495 37.8577 29.5896C37.8577 28.3434 37.8454 27.0848 37.8331 25.8385C37.8454 24.7773 37.8454 23.7038 37.8701 22.6426C37.8701 22.3464 37.7591 22.2601 37.4757 22.2601C36.6377 22.2724 35.7997 22.2477 34.9617 22.2724C34.6043 22.2848 34.4564 22.2107 34.4564 21.8035C34.4318 20.5572 34.4195 20.5572 35.6641 20.5572C37.8947 20.5572 40.1253 20.5696 42.3558 20.5449C42.8611 20.5326 42.972 20.7053 42.972 21.1742C42.9473 22.2601 42.972 22.2601 41.8629 22.2601C41.2344 22.2601 40.5935 22.2724 39.965 22.2601C39.6816 22.2477 39.5707 22.3341 39.5707 22.6426C39.583 23.7038 39.583 24.765 39.583 25.8385Z" fill="#FEFEFE"/>
<path d="M7.4928 28.9974C7.4928 28.1336 7.51745 27.2822 7.4928 26.4185C7.48048 25.9619 7.65301 25.7892 8.09665 25.8262C8.41706 25.8509 8.7498 25.8262 9.08253 25.8262C9.46456 26.2581 9.9575 26.3444 10.4997 26.3074C11.005 26.2704 11.5103 26.2828 12.0155 26.3198C12.4961 26.3444 12.7919 26.6159 12.7673 27.0971C12.7426 27.7511 13.0137 28.4421 12.5208 29.0344L12.5331 29.0221C12.3236 29.2689 12.0525 29.2812 11.7567 29.2812C10.586 29.2812 9.40294 29.2935 8.23221 29.2812C7.94877 29.2812 7.65301 29.3059 7.4928 28.9974Z" fill="#BF00FE"/>
<path d="M12.5331 29.0344C12.5331 28.4421 12.4715 27.8498 12.5331 27.2575C12.607 26.5912 12.3359 26.4554 11.7444 26.5048C11.0912 26.5542 10.4381 26.4801 9.78494 26.5295C9.23038 26.5788 8.99623 26.3814 9.07017 25.8385C9.11947 24.839 9.11947 24.839 10.13 24.839C11.2145 24.839 12.2989 24.876 13.3834 24.8267C13.9872 24.802 14.3323 24.913 14.1967 25.604C14.1844 25.6781 14.2214 25.7644 14.2337 25.8508C14.2214 26.7516 14.1967 27.6524 14.2091 28.5408C14.2214 28.9356 14.0982 29.0837 13.6915 29.0467C13.3095 29.0097 12.9151 29.0344 12.5331 29.0344Z" fill="#FEFDFE"/>
<path d="M26.9269 22.2849C26.9146 22.1862 26.9022 22.0875 26.8899 21.9764C26.8653 20.6438 26.8653 20.6314 28.1469 20.5697C28.4796 20.5574 28.5782 20.434 28.5536 20.1255C28.5413 19.9775 28.5536 19.8417 28.5536 19.6937C28.5536 18.8669 28.5536 18.8669 29.3793 18.8669C30.3898 18.8793 30.2296 18.7559 30.2419 19.7677C30.2542 20.6438 30.1433 20.5451 31.0306 20.5574C31.4619 20.5574 31.8933 20.5821 32.3246 20.5574C32.7189 20.5327 32.8052 20.6931 32.8052 21.051C32.8175 22.2602 32.8298 22.2602 31.6468 22.2602C30.0694 22.2602 28.492 22.2602 26.9269 22.2602V22.2849Z" fill="#FEFDFE"/>
<path d="M7.36962 22.2601C7.38194 21.8529 7.40659 21.4457 7.38194 21.0385C7.35729 20.6436 7.5175 20.5572 7.87488 20.5572C9.82199 20.5696 11.7568 20.5696 13.7039 20.5572C14.0736 20.5572 14.1968 20.6683 14.1968 21.0385C14.2215 22.2601 14.2338 22.2601 13.0507 22.2601C11.1529 22.2601 9.24279 22.2477 7.34497 22.2477L7.36962 22.2601Z" fill="#FEFDFE"/>
<path d="M7.38182 29.0345C6.83958 29.0345 6.30967 29.0345 5.76744 29.0221C5.75512 26.8998 5.75512 24.7898 5.73047 22.6674C5.73047 22.3466 5.82906 22.2355 6.14947 22.2479C6.55614 22.2725 6.96282 22.2479 7.36949 22.2479L7.35717 22.2355C7.46808 23.7162 7.38182 25.2093 7.40646 26.7024C7.40646 27.4921 7.38182 28.2695 7.38182 29.0345Z" fill="#FEFEFE"/>
<path d="M7.49274 28.9974C9.18106 29.0098 10.8571 29.0221 12.5454 29.0221C12.533 29.454 12.5084 29.8735 12.5084 30.3054C12.5207 30.6139 12.4221 30.7373 12.0894 30.7373C10.6599 30.7249 9.23035 30.7249 7.81315 30.7373C7.48041 30.7373 7.39415 30.6139 7.39415 30.3054C7.40647 29.8735 7.3695 29.454 7.35718 29.0221C7.40647 29.0221 7.44344 29.0098 7.49274 28.9974Z" fill="#FEFDFE"/>
<path d="M31.1293 26.5666C29.9462 26.5543 28.7755 26.542 27.5924 26.5173C27.346 26.5173 27.0995 26.579 26.8777 26.4432C26.89 25.9126 26.9147 25.382 26.927 24.8391L26.9147 24.8515C28.1717 24.8391 29.4286 24.8391 30.6733 24.8268C30.9814 24.8268 31.1293 24.9008 31.0923 25.234C31.0677 25.4314 31.1046 25.6412 31.1046 25.8386C30.9814 26.3692 31.1786 26.5666 31.7331 26.5173C32.0412 26.4803 32.374 26.4309 32.6944 26.579C32.1768 26.9368 31.6222 26.9245 31.1293 26.5666Z" fill="#FDFBFE"/>
<path d="M26.9146 22.2725C26.9146 23.1362 26.9146 24 26.9146 24.8637L26.9269 24.8514C26.7914 24.8391 26.6435 24.8267 26.5079 24.8267C25.2017 24.8144 25.2017 24.8144 25.2017 23.4817C25.2017 22.2725 25.2017 22.2725 26.397 22.2725C26.5819 22.2725 26.7667 22.2848 26.9393 22.2848C26.9269 22.2848 26.9146 22.2725 26.9146 22.2725Z" fill="#FEFCFE"/>
<path d="M31.08 29.0221C31.08 29.3923 31.0677 29.7625 31.0923 30.1327C31.117 30.5276 31.0923 30.836 30.5624 30.7497C30.3282 30.7126 30.2297 30.8484 30.2543 31.0828C30.2543 31.1445 30.2543 31.2062 30.2543 31.2679C30.2297 32.5142 30.2297 32.5019 28.985 32.4402C28.6646 32.4278 28.566 32.3168 28.5537 32.0083C28.5413 31.6134 28.7508 31.0828 28.4551 30.836C28.147 30.5769 27.6294 30.762 27.2104 30.7497C26.6558 30.7373 26.1013 30.7373 25.559 30.7497C25.3003 30.7497 25.214 30.6633 25.1893 30.4042C25.0784 29.0468 25.0661 29.0468 26.434 29.0468C27.9868 29.0468 29.5395 29.0468 31.0923 29.0468L31.08 29.0221Z" fill="#FEFEFE"/>
<path d="M31.1295 26.5665C31.6471 26.5665 32.1647 26.5789 32.6822 26.5789C32.9041 27.3316 32.7439 28.0843 32.7685 28.837C32.7808 29.0838 32.559 29.0344 32.3988 29.0344C31.9552 29.0344 31.5115 29.0344 31.0679 29.0221L31.0802 29.0344C31.1048 28.2077 31.1172 27.3933 31.1295 26.5665Z" fill="#FEFDFE"/>
</g>
<defs>
<clipPath id="clip0_2_6738">
<rect width="48" height="48" fill="white"/>
</clipPath>
</defs>
</svg>
