<svg width="48" height="48" viewBox="0 0 48 48" fill="none" xmlns="http://www.w3.org/2000/svg">
<circle cx="24" cy="24" r="24" fill="#6747ED"/>
<path fill-rule="evenodd" clip-rule="evenodd" d="M22.6501 25.1001C19.1001 25.1001 16.25 22.2501 16.25 18.7001C16.25 15.1501 19.1001 12.3001 22.6501 12.3001C26.2001 12.3001 29.0501 15.1501 29.0501 18.7001C29.0501 22.2501 26.2001 25.1001 22.6501 25.1001ZM22.6501 9.1001C27.9501 9.1001 32.25 13.4001 32.25 18.7001C32.25 24.0001 27.9501 28.3001 22.6501 28.3001C17.3501 28.3001 13.05 24.0001 13.05 18.7001C13.05 13.4001 17.3501 9.1001 22.6501 9.1001ZM31.8001 28.8001C32.4501 29.4501 32.4501 30.4501 31.8001 31.0501L25.4001 37.4501C24.7501 38.1001 23.7501 38.1001 23.1501 37.4501C22.5001 36.8001 22.5001 35.8001 23.1501 35.2001L29.5501 28.8001C30.1501 28.1501 31.2001 28.1501 31.8001 28.8001ZM35.5 10.7001C35.5 11.6001 34.8001 12.3001 33.9001 12.3001C33.0001 12.3001 32.3001 11.6001 32.3001 10.7001C32.3001 9.8001 33.0001 9.1001 33.9001 9.1001C34.7501 9.1001 35.5 9.8001 35.5 10.7001Z" fill="black"/>
</svg>
