<svg width="48" height="48" viewBox="0 0 48 48" fill="none" xmlns="http://www.w3.org/2000/svg">
<circle cx="24" cy="24" r="24" fill="#02E2AC"/>
<path fill-rule="evenodd" clip-rule="evenodd" d="M18.4626 9.2753C18.4626 8.76486 18.8764 8.35107 19.3869 8.35107C19.8973 8.35107 20.3111 8.76486 20.3111 9.2753V11.6499C21.0818 11.4389 21.8717 11.2925 22.6711 11.2123V9.2753C22.6711 8.76486 23.0849 8.35107 23.5954 8.35107C24.1058 8.35107 24.5196 8.76486 24.5196 9.2753V11.145C27.9647 11.2383 31.4506 12.5532 34.2356 15.2045L35.224 16.1454C35.2665 16.1859 35.2652 16.2541 35.2211 16.2929L32.3307 18.8398C32.2924 18.8736 32.2857 18.9307 32.3147 18.9727C33.4996 20.6838 34.1946 22.7618 34.1946 25.0004C34.1946 27.1782 33.5369 29.2039 32.4102 30.8878C32.3801 30.9329 32.3907 30.9938 32.4347 31.0256L34.6132 32.5957C34.6393 32.6145 34.6547 32.6447 34.6547 32.6769V38.7616C34.6547 38.8168 34.6099 38.8616 34.5547 38.8616H23.6355C17.0971 38.8616 9.08488 33.1537 10.3522 23.3322C11.0568 17.8716 14.3283 14.0785 18.4626 12.2971V9.2753ZM18.4626 15.3061C15.6715 16.8835 13.5421 19.709 13.03 23.6777C12.0139 31.5522 18.3715 36.1616 23.6355 36.1616H31.8547C31.9099 36.1616 31.9547 36.1168 31.9547 36.0616V34.059C31.9547 34.0269 31.9393 33.9967 31.9132 33.9779L24.973 28.9756C24.9495 28.9587 24.9198 28.9528 24.8915 28.9592C24.6046 29.0235 24.3062 29.0575 23.9999 29.0575C21.7595 29.0575 19.9434 27.2413 19.9434 25.0009C19.9434 22.7605 21.7595 20.9443 23.9999 20.9443C24.5167 20.9443 25.0109 21.041 25.4654 21.2171C25.5007 21.2308 25.5408 21.2241 25.5692 21.199L31.1468 16.2844C31.1945 16.2424 31.1912 16.1669 31.1398 16.1295C27.9792 13.825 24.0555 13.308 20.658 14.3609C20.5418 14.3969 20.4261 14.4348 20.3111 14.4745V18.9771C20.3111 19.4875 19.8973 19.9013 19.3869 19.9013C18.8764 19.9013 18.4626 19.4875 18.4626 18.9771V15.3061ZM30.4053 29.5628C30.4511 29.5958 30.5153 29.5844 30.5462 29.5371C31.3993 28.2331 31.8946 26.6754 31.8946 25.0004C31.8946 23.3526 31.4152 21.8182 30.5874 20.5274C30.5547 20.4763 30.4841 20.4669 30.4386 20.5071L27.616 22.9941C27.5809 23.0251 27.5721 23.0763 27.5938 23.1178C27.8893 23.6805 28.0565 24.3212 28.0565 25.0009C28.0565 25.8351 27.8047 26.6105 27.373 27.2552C27.3424 27.3007 27.3527 27.3626 27.3972 27.3946L30.4053 29.5628ZM22.2434 25.0009C22.2434 24.0308 23.0298 23.2443 23.9999 23.2443C24.97 23.2443 25.7565 24.0308 25.7565 25.0009C25.7565 25.971 24.97 26.7575 23.9999 26.7575C23.0298 26.7575 22.2434 25.971 22.2434 25.0009Z" fill="black"/>
</svg>
