<svg width="48" height="48" viewBox="0 0 48 48" fill="none" xmlns="http://www.w3.org/2000/svg">
<path d="M0 24C0 10.7452 10.7452 0 24 0C37.2548 0 48 10.7452 48 24C48 37.2548 37.2548 48 24 48C10.7452 48 0 37.2548 0 24Z" fill="#8834FF"/>
<path d="M9.16518 12.6063C8.6857 12.644 8.31667 12.7194 8.33741 12.776C8.52866 13.2312 9.71118 15.9114 9.72734 15.9276C9.74351 15.9437 10.0183 15.9626 10.3415 15.976C11.7745 16.0299 12.9086 16.3101 14.1342 16.9161C15.015 17.3498 15.6669 17.8158 16.3457 18.4919C17.345 19.4886 17.9969 20.5957 18.3794 21.9506C18.4225 22.1068 18.4575 22.2469 18.4575 22.2685C18.4575 22.2981 18.2393 22.3035 17.275 22.3035C16.6231 22.3035 16.0628 22.3142 16.0278 22.3277C15.9767 22.3466 15.842 22.6375 15.2817 23.9224C14.9046 24.787 14.5921 25.5143 14.5867 25.5386C14.5679 25.6086 14.7941 25.6706 15.3598 25.7541C15.4756 25.7729 16.1706 25.7918 16.9922 25.8025L18.4225 25.8187L18.3363 26.115C17.372 29.3851 14.3793 31.672 10.7132 31.9468C10.5058 31.9603 10.2338 31.9737 10.1072 31.9737H9.87819L9.17245 33.598C8.56637 34.9853 8.47209 35.2223 8.5125 35.2358C8.69567 35.3031 9.10511 35.3274 10.0533 35.3274C11.2654 35.3274 11.8553 35.2735 12.8547 35.0688C16.9356 34.231 20.3269 31.6343 21.8623 28.1649C22.1586 27.4969 22.5061 26.3978 22.5681 25.9372L22.5869 25.8052H25.6496L25.6604 25.8645C25.8813 26.9474 26.121 27.6773 26.5358 28.5393C27.783 31.136 30.1211 33.2559 33.0168 34.4196C34.7752 35.1238 36.6587 35.462 38.5523 35.4136C39.3442 35.3893 39.9745 35.3004 39.9422 35.2169C39.9153 35.1469 38.5738 32.068 38.5657 32.0599C38.5577 32.0519 38.2802 32.0411 37.9435 32.0276C36.998 31.9899 36.2869 31.8795 35.4842 31.6505C34.2478 31.2949 33.0249 30.6511 32.0875 29.8646C30.9077 28.8706 30.0538 27.6342 29.6012 26.2632C29.55 26.1069 29.4989 25.9426 29.4908 25.8941L29.4719 25.8079L30.6248 25.7999C31.2578 25.7945 31.7966 25.781 31.8181 25.7702C31.8531 25.7514 33.2323 22.624 33.2323 22.5621C33.2323 22.5217 32.8848 22.4193 32.5696 22.3681C32.338 22.3304 32.0444 22.3196 30.8726 22.3116L29.4531 22.2981L29.5069 22.1068C30.2935 19.3216 32.707 17.1101 35.8182 16.3262C36.5051 16.1538 37.1731 16.0649 38.0405 16.0299C38.5577 16.0084 38.6223 16.0003 38.6546 15.9572C38.6762 15.9276 38.994 15.2137 39.3604 14.3706C39.8102 13.3389 40.0176 12.8298 39.9988 12.8164C39.9395 12.784 39.5624 12.7167 39.2661 12.6871C38.8351 12.6413 37.5772 12.6494 37.0223 12.6978C33.8491 12.9807 30.9885 14.2602 28.8443 16.3505C27.5352 17.6273 26.6166 19.0603 26.051 20.7142C25.9055 21.1317 25.7304 21.789 25.6765 22.1068L25.6442 22.3035H22.6335L22.6227 22.2415C22.6147 22.2092 22.585 22.0557 22.5527 21.8994C22.1082 19.6906 20.853 17.5438 19.0806 15.9626C17.063 14.1605 14.5471 13.0319 11.778 12.689C10.9457 12.5874 9.8728 12.5524 9.16518 12.6063Z" fill="white"/>
</svg>
