<svg width="48" height="48" viewBox="0 0 48 48" fill="none" xmlns="http://www.w3.org/2000/svg">
<path d="M0 24C0 10.7452 10.7452 0 24 0C37.2548 0 48 10.7452 48 24C48 37.2548 37.2548 48 24 48C10.7452 48 0 37.2548 0 24Z" fill="#1FC5C9"/>
<path d="M37.2415 13.5172C38.765 13.5172 40.0001 12.2822 40.0001 10.7586C40.0001 9.23508 38.765 8 37.2415 8C35.7179 8 34.4828 9.23508 34.4828 10.7586C34.4828 12.2822 35.7179 13.5172 37.2415 13.5172Z" fill="white"/>
<path d="M16.0332 28.7339C14.9942 26.9701 14.5706 24.9113 14.8289 22.8807C15.0872 20.8501 16.0128 18.9628 17.4602 17.5154C18.9076 16.0679 20.7949 15.1424 22.8255 14.8841C24.8561 14.6258 26.915 15.0494 28.6787 16.0883L30.8856 13.8814L30.7752 13.7932C28.4015 12.2285 25.5589 11.5351 22.7313 11.8308C19.9038 12.1266 17.2662 13.3933 15.2676 15.4153C13.2691 17.4372 12.0332 20.0894 11.7704 22.9202C11.5076 25.751 12.2341 28.5854 13.8263 30.9407L16.0332 28.7339Z" fill="white"/>
<path d="M31.9669 19.3876C33.0058 21.1513 33.4294 23.2101 33.1711 25.2407C32.9128 27.2714 31.9872 29.1586 30.5398 30.606C29.0924 32.0535 27.2051 32.979 25.1745 33.2373C23.1439 33.4956 21.085 33.072 19.3213 32.0331L17.1144 34.24C19.4781 35.8447 22.3273 36.5752 25.1715 36.3056C28.0157 36.0361 30.6769 34.7834 32.697 32.7633C34.7172 30.7431 35.9699 28.0819 36.2394 25.2377C36.5089 22.3935 35.7785 19.5443 34.1737 17.1807L31.9669 19.3876Z" fill="white"/>
<path d="M10.7586 40.0001C12.2822 40.0001 13.5172 38.765 13.5172 37.2415C13.5172 35.7179 12.2822 34.4828 10.7586 34.4828C9.23508 34.4828 8 35.7179 8 37.2415C8 38.765 9.23508 40.0001 10.7586 40.0001Z" fill="white"/>
</svg>
