<svg width="48" height="48" viewBox="0 0 48 48" fill="none" xmlns="http://www.w3.org/2000/svg">
<path d="M0 24C0 10.7452 10.7452 0 24 0C37.2548 0 48 10.7452 48 24C48 37.2548 37.2548 48 24 48C10.7452 48 0 37.2548 0 24Z" fill="url(#paint0_linear_2_6370)"/>
<path d="M21.6219 36.2266C21.6099 36.4067 21.4718 36.5148 21.3396 36.6169C20.8531 36.9831 20.3605 37.3434 19.8859 37.7217C18.7686 38.6103 17.6634 39.5169 16.5521 40.4115C16.498 40.4536 16.444 40.5376 16.3779 40.4956C16.2938 40.4416 16.3539 40.3575 16.3839 40.2855C16.6722 39.583 16.9185 38.8685 17.1227 38.1359C17.4832 36.851 17.8015 35.5661 17.8075 34.2212C17.8256 31.3512 17.8736 28.4811 17.8616 25.6051C17.8556 24.6745 17.8436 23.7438 17.6934 22.8252C17.5492 21.9425 17.309 21.0899 16.7383 20.3694C16.4139 19.9551 16.4199 19.8471 16.7203 19.4148C17.2189 18.7003 17.6333 17.9377 17.9877 17.1392C18.7927 15.3199 19.2372 13.3925 19.5676 11.4472C19.8079 10.0662 19.952 8.67921 20.1022 7.28623C20.1142 7.16614 20.0481 6.94999 20.1923 6.95599C20.3785 6.962 20.2944 7.17815 20.3004 7.30424C20.3184 10.0061 20.3365 12.708 20.3545 15.4099C20.3905 21.18 20.4025 26.9561 20.4025 32.7261C20.4025 33.8849 20.6068 34.9477 21.4297 35.8243C21.5318 35.9204 21.6219 36.0525 21.6219 36.2266Z" fill="white"/>
<path d="M31.1489 40.5317C31.1309 40.5497 31.1129 40.5617 31.0949 40.5797C30.8606 40.3876 30.6263 40.1954 30.3921 40.0033C28.9744 38.8505 27.5628 37.6797 26.0851 36.5989C25.7967 36.3888 25.7607 36.2206 25.9589 35.9144C26.0791 35.7283 26.2052 35.5482 26.3434 35.38C26.7879 34.8397 26.9981 34.2152 27.0101 33.5247C27.0342 32.2759 27.0522 31.027 27.0642 29.7721C27.0822 27.6406 27.0882 25.5091 27.0942 23.3836C27.1123 18.5502 27.1303 13.7228 27.1483 8.8894C27.1483 8.30699 27.1543 7.73058 27.1603 7.14817C27.1603 7.08213 27.1483 6.98606 27.2324 6.97405C27.3525 6.96204 27.3345 7.07612 27.3405 7.14817C27.3766 7.79663 27.4727 8.43908 27.5508 9.08754C27.785 11.117 28.1274 13.1164 28.7041 15.0798C29.1907 16.7189 29.8755 18.262 30.8846 19.649C31.0408 19.8651 31.0168 20.0212 30.8546 20.2014C30.32 20.7898 30.0436 21.4983 29.8694 22.2608C29.5991 23.4316 29.5691 24.6205 29.5691 25.8093C29.5691 28.271 29.6532 30.7268 29.6232 33.1885C29.5991 35.272 29.9535 37.2834 30.6744 39.2348C30.8426 39.6611 30.9927 40.0994 31.1489 40.5317Z" fill="white"/>
<path d="M29.7433 40.922C29.7313 40.94 29.7193 40.958 29.7072 40.976C29.6832 40.97 29.6532 40.97 29.6292 40.958C28.59 40.3696 27.4847 39.9433 26.3614 39.553C24.9497 39.0667 23.5141 38.9406 22.0484 39.2888C20.7869 39.589 19.5915 40.0634 18.4322 40.6278C18.1979 40.7418 17.9697 40.8679 17.7234 41C17.7114 40.8739 17.7895 40.8379 17.8375 40.8019C19.6516 39.3789 21.4717 37.9559 23.2858 36.5329C23.6522 36.2447 23.7844 36.2507 24.1568 36.5389C25.3943 37.5056 26.6257 38.4782 27.8571 39.4509C28.4938 39.9373 29.1186 40.4296 29.7433 40.922Z" fill="white"/>
<path d="M23.7303 27.7845C23.5381 26.7638 23.5381 12.1675 23.7423 11.8553C23.9225 17.1631 23.9165 22.4708 23.7303 27.7845Z" fill="white"/>
<defs>
<linearGradient id="paint0_linear_2_6370" x1="24" y1="0" x2="24" y2="48" gradientUnits="userSpaceOnUse">
<stop stop-color="#5D307B"/>
<stop offset="0.720061" stop-color="#23284E"/>
</linearGradient>
</defs>
</svg>
