<svg width="48" height="48" viewBox="0 0 48 48" fill="none" xmlns="http://www.w3.org/2000/svg">
<path d="M24 48C37.2548 48 48 37.2548 48 24C48 10.7452 37.2548 0 24 0C10.7452 0 0 10.7452 0 24C0 37.2548 10.7452 48 24 48Z" fill="white"/>
<g clip-path="url(#clip0_2_3730)">
<path d="M24 8L10 16.0827V32.248L24 40.3307L38 32.248V16.0827L24 8ZM24.2862 34.1831L13.5404 28.0542L13.584 25.0738L24.28 31.1964L29.4382 28.2222L25.9787 26.2249L24.6844 26.9716L22.2578 25.5778L23.5582 24.8249L21.8596 23.8418L20.8329 24.4391L18.4 23.0453L19.4329 22.448L13.9511 19.2809L24.28 13.32L34.024 18.8764L31.4107 20.3947L24.28 16.3067L19.1218 19.2809L22.0089 20.9484L23.4836 20.0898L25.9164 21.4836L24.4293 22.3422L26.128 23.3253L27.3351 22.6222L29.768 24.016L28.5484 24.7253L34.5964 28.216L24.2862 34.1831Z" fill="black"/>
</g>
<defs>
<clipPath id="clip0_2_3730">
<rect width="28" height="32.3307" fill="white" transform="translate(10 8)"/>
</clipPath>
</defs>
</svg>
