<svg width="50" height="48" viewBox="0 0 50 48" fill="none" xmlns="http://www.w3.org/2000/svg">
<path d="M0 24C0 10.7452 10.7452 0 24 0H25.5789C38.8337 0 49.5789 10.7452 49.5789 24C49.5789 37.2548 38.8337 48 25.5789 48H24C10.7452 48 0 37.2548 0 24Z" fill="white"/>
<path d="M32.1577 11.9467C33.1473 11.9467 33.9515 11.1295 33.9515 10.1256C33.9515 9.1216 33.1473 8.30573 32.1577 8.30573C31.168 8.31091 30.3638 9.12679 30.3638 10.1307C30.3638 11.1347 31.168 11.9467 32.1577 11.9467ZM32.6869 16.6785C33.0928 16.6754 33.4809 16.5112 33.7657 16.222C34.0506 15.9328 34.2089 15.5423 34.2058 15.1364C34.2058 14.2881 33.5261 13.5941 32.6869 13.5941C31.8476 13.5941 31.168 14.2829 31.168 15.1364C31.168 15.9899 31.8464 16.6785 32.6869 16.6785ZM36.8571 17.2817C37.6924 17.2817 38.3721 16.5929 38.3721 15.7433C38.3721 14.8937 37.6924 14.2049 36.8571 14.2049C36.0217 14.2049 35.342 14.8937 35.342 15.7433C35.342 16.5929 36.023 17.2817 36.8571 17.2817ZM36.3564 21.3299C37.0724 21.3299 37.6522 20.7411 37.6522 20.016C37.6522 19.2909 37.0724 18.702 36.3564 18.702C35.6404 18.702 35.0606 19.2909 35.0606 20.016C35.0606 20.7411 35.6404 21.3299 36.3564 21.3299ZM39.6951 22.6426C40.4163 22.6426 41 22.0498 41 21.3196C41 20.5893 40.4163 19.9965 39.6951 19.9965C39.5226 19.9977 39.3519 20.0329 39.193 20.1C39.034 20.1671 38.8898 20.2649 38.7687 20.3878C38.6475 20.5106 38.5517 20.6562 38.4868 20.816C38.4218 20.9759 38.389 21.147 38.3902 21.3196C38.3902 22.0498 38.9752 22.6426 39.6951 22.6426ZM32.1602 20.7826C32.3357 20.7815 32.5092 20.746 32.6709 20.6779C32.8326 20.6098 32.9793 20.5105 33.1027 20.3858C33.226 20.261 33.3236 20.1131 33.3898 19.9506C33.456 19.7881 33.4895 19.6142 33.4885 19.4388V19.4362C33.4885 18.6929 32.8957 18.0898 32.1602 18.0898C31.4248 18.0898 30.832 18.6916 30.832 19.4362C30.832 20.1755 31.4261 20.7826 32.1602 20.7826ZM30.9565 24.0033C31.5727 24.0033 32.0695 23.4974 32.0695 22.8761C32.0719 22.5796 31.9564 22.2942 31.7484 22.0828C31.5405 21.8715 31.2571 21.7513 30.9606 21.7489H30.9565C30.3404 21.7489 29.8436 22.2548 29.8436 22.8761C29.8436 23.4974 30.3404 24.0033 30.9565 24.0033ZM35.1332 24.5727C35.2792 24.5717 35.4235 24.542 35.558 24.4852C35.6924 24.4284 35.8144 24.3457 35.9169 24.2417C36.0194 24.1378 36.1004 24.0147 36.1554 23.8795C36.2103 23.7442 36.2381 23.5995 36.237 23.4536V23.4508C36.237 22.8308 35.7441 22.3288 35.1332 22.3288C34.5223 22.3288 34.0294 22.8308 34.0294 23.4508C34.0275 23.5963 34.0543 23.7407 34.1082 23.8758C34.1621 24.0109 34.2421 24.134 34.3436 24.2382C34.4451 24.3424 34.5662 24.4255 34.6998 24.4829C34.8335 24.5403 34.9771 24.5708 35.1226 24.5727H35.1332ZM38.4629 25.8802C39.079 25.8802 39.5758 25.3743 39.5758 24.7491C39.5758 24.1239 39.079 23.618 38.4629 23.618C37.8467 23.618 37.35 24.1239 37.35 24.7491C37.3468 25.046 37.4618 25.3319 37.6695 25.544C37.8772 25.7561 38.1607 25.8771 38.4576 25.8802H38.4629ZM36.8181 28.3239C37.3383 28.3239 37.7585 27.8946 37.7585 27.3705C37.7585 26.8465 37.3383 26.4172 36.8181 26.4172C36.298 26.4172 35.8777 26.8465 35.8777 27.3705C35.8777 27.8946 36.298 28.3239 36.8181 28.3239ZM33.4729 27.0372C34.0021 27.0372 34.4354 26.5988 34.4354 26.0605C34.4354 25.5222 34.006 25.0838 33.4729 25.0838C32.9398 25.0838 32.5105 25.5222 32.5105 26.0605C32.5105 26.5988 32.9437 27.0372 33.4729 27.0372ZM29.3014 26.4405C29.5553 26.4365 29.7975 26.3329 29.9757 26.152C30.1539 25.9711 30.2539 25.7274 30.254 25.4735C30.2542 25.2196 30.1546 24.9758 29.9766 24.7946C29.7986 24.6135 29.5566 24.5096 29.3027 24.5052H29.3014C29.0475 24.5092 28.8054 24.6128 28.6272 24.7937C28.449 24.9746 28.349 25.2183 28.3489 25.4722C28.3487 25.7262 28.4483 25.97 28.6263 26.1511C28.8042 26.3323 29.0462 26.4362 29.3001 26.4405H29.3014ZM31.6207 28.7364C32.0811 28.7364 32.4508 28.3576 32.4508 27.8972C32.4529 27.6767 32.3673 27.4644 32.2128 27.307C32.0584 27.1496 31.8478 27.06 31.6273 27.0579H31.6207C31.1602 27.0579 30.7905 27.4367 30.7905 27.8972C30.7881 28.1173 30.8732 28.3294 31.0272 28.4868C31.1811 28.6442 31.3913 28.734 31.6114 28.7364H31.6207ZM34.9646 30.0452C35.4251 30.0452 35.8038 29.6664 35.8038 29.1969C35.8038 28.7273 35.4302 28.3486 34.9646 28.3486C34.7396 28.3486 34.5238 28.4379 34.3647 28.597C34.2057 28.7561 34.1163 28.9719 34.1163 29.1969C34.1163 29.4219 34.2057 29.6376 34.3647 29.7967C34.5238 29.9558 34.7396 30.0452 34.9646 30.0452ZM33.0812 31.0271C33.4457 31.0271 33.7427 30.7262 33.7427 30.3565C33.7438 30.1799 33.6747 30.0101 33.5507 29.8844C33.4266 29.7586 33.2578 29.6872 33.0812 29.6859C32.7167 29.6859 32.4197 29.9868 32.4197 30.3565C32.4193 30.5329 32.4886 30.7023 32.6125 30.8279C32.7364 30.9534 32.9048 31.025 33.0812 31.0271ZM31.2964 31.5537C31.3754 31.5532 31.4535 31.5372 31.5264 31.5065C31.5992 31.4758 31.6652 31.431 31.7208 31.3748C31.7763 31.3186 31.8202 31.252 31.85 31.1788C31.8798 31.1056 31.8948 31.0272 31.8943 30.9482V30.9467C31.8943 30.6094 31.6245 30.3396 31.2964 30.3396C31.2174 30.3401 31.1392 30.3562 31.0664 30.3869C30.9936 30.4175 30.9275 30.4623 30.872 30.5185C30.8165 30.5747 30.7726 30.6413 30.7428 30.7145C30.713 30.7877 30.6979 30.8661 30.6984 30.9451V30.9467C30.6957 31.1049 30.7559 31.2577 30.8658 31.3715C30.9757 31.4853 31.1264 31.5508 31.2846 31.5536L31.2964 31.5537ZM29.7334 29.8078C30.1264 29.8078 30.4455 29.4835 30.4455 29.0866C30.4455 28.6897 30.1264 28.3654 29.7334 28.3654C29.3403 28.3654 29.0213 28.6897 29.0213 29.0866C29.0209 29.2764 29.0955 29.4587 29.2289 29.5938C29.3622 29.7289 29.5436 29.8058 29.7334 29.8078ZM27.4401 28.154C27.8967 28.154 28.2702 27.7804 28.2702 27.3148C28.2702 26.8491 27.9006 26.4755 27.4401 26.4755C26.9835 26.4755 26.6099 26.8491 26.6099 27.3148C26.6096 27.5359 26.6967 27.7482 26.8522 27.9054C27.0077 28.0626 27.219 28.1519 27.4401 28.154ZM34.2408 38.6683C35.2266 38.6683 36.0256 37.8563 36.0256 36.8563C36.0256 35.8562 35.2266 35.0442 34.2408 35.0442C33.255 35.0442 32.456 35.8562 32.456 36.8563C32.456 37.8563 33.255 38.6683 34.2408 38.6683ZM29.7074 36.375C30.5285 36.375 31.1952 35.6992 31.1952 34.8652C31.1952 34.0312 30.5285 33.3554 29.7074 33.3554C28.8864 33.3554 28.2197 34.0312 28.2197 34.8652C28.2197 35.6992 28.8851 36.375 29.7074 36.375ZM27.1171 39.6943C27.9473 39.6943 28.6179 39.0146 28.6179 38.1702C28.6179 37.331 27.9473 36.6461 27.1171 36.6461C26.287 36.6461 25.6164 37.3258 25.6164 38.1702C25.6133 38.5713 25.7696 38.9572 26.051 39.2431C26.3324 39.5289 26.7159 39.6912 27.117 39.6943H27.1171ZM26.3376 33.5785C26.5096 33.5773 26.6797 33.5422 26.8382 33.4753C26.9967 33.4084 27.1405 33.3109 27.2613 33.1884C27.3821 33.0659 27.4776 32.9208 27.5423 32.7614C27.607 32.602 27.6397 32.4314 27.6385 32.2593C27.6397 32.0873 27.607 31.9167 27.5423 31.7573C27.4776 31.5979 27.3821 31.4528 27.2613 31.3303C27.1405 31.2078 26.9967 31.1103 26.8382 31.0434C26.6797 30.9764 26.5096 30.9414 26.3376 30.9402C26.1655 30.9414 25.9954 30.9764 25.8369 31.0434C25.6784 31.1103 25.5347 31.2078 25.4138 31.3303C25.293 31.4528 25.1975 31.5979 25.1328 31.7573C25.0681 31.9167 25.0354 32.0873 25.0366 32.2593C25.0379 32.9857 25.6216 33.5785 26.3376 33.5785ZM23.7537 36.9432C24.4697 36.9432 25.0495 36.3543 25.0495 35.6292C25.0495 34.9041 24.4697 34.3152 23.7537 34.3152C23.0377 34.3152 22.4579 34.9041 22.4579 35.6292C22.4545 35.9742 22.5883 36.3065 22.8298 36.5529C23.0713 36.7993 23.4008 36.9397 23.7458 36.9432H23.7537ZM20.9688 39.2261C21.6848 39.2261 22.2608 38.6372 22.2608 37.916C22.2608 37.1909 21.681 36.6059 20.9688 36.6059C20.2528 36.6059 19.6769 37.1948 19.6769 37.916C19.6769 38.6372 20.2567 39.2261 20.9688 39.2261ZM18.6509 36.2544C18.9453 36.2517 19.2267 36.1326 19.4335 35.9231C19.6403 35.7136 19.7558 35.4307 19.7548 35.1363C19.7548 34.5202 19.2619 34.0182 18.6509 34.0182C18.3573 34.0227 18.0773 34.1424 17.8712 34.3516C17.6652 34.5608 17.5497 34.8427 17.5497 35.1363C17.5497 35.4299 17.6652 35.7118 17.8712 35.921C18.0773 36.1302 18.3573 36.2499 18.6509 36.2544ZM21.441 33.9611C21.7356 33.9591 22.0173 33.8402 22.2243 33.6305C22.4313 33.4209 22.5466 33.1376 22.5448 32.843C22.5448 32.223 22.0519 31.7249 21.441 31.7249C21.1474 31.7289 20.8671 31.8481 20.6607 32.057C20.4542 32.2658 20.3382 32.5475 20.3377 32.8411C20.3372 33.1347 20.4522 33.4168 20.6579 33.6264C20.8636 33.8359 21.1435 33.9562 21.4371 33.9611H21.441ZM24.0443 30.5977C24.1902 30.5967 24.3346 30.567 24.469 30.5102C24.6035 30.4534 24.7255 30.3707 24.828 30.2668C24.9305 30.1629 25.0115 30.0398 25.0664 29.9045C25.1214 29.7693 25.1491 29.6246 25.1481 29.4786V29.4759C25.1481 28.8559 24.6552 28.3539 24.0443 28.3539C23.8983 28.3549 23.754 28.3846 23.6195 28.4414C23.485 28.4982 23.3631 28.5809 23.2606 28.6848C23.1581 28.7888 23.077 28.9118 23.0221 29.0471C22.9672 29.1823 22.9394 29.3271 22.9404 29.473V29.4757C22.9404 30.0958 23.4333 30.5977 24.0443 30.5977ZM20.0622 31.0608C20.5914 31.0608 21.0207 30.6276 21.0207 30.0893C21.0207 29.551 20.5914 29.1177 20.0622 29.1177C19.533 29.1177 19.1036 29.551 19.1036 30.0893C19.1036 30.6276 19.533 31.0608 20.0622 31.0608ZM17.2864 33.345C17.4117 33.3443 17.5357 33.319 17.6513 33.2703C17.7669 33.2217 17.8717 33.1509 17.9599 33.0617C18.0481 32.9726 18.1178 32.867 18.1652 32.7509C18.2125 32.6348 18.2365 32.5105 18.2359 32.3851V32.3825C18.2383 32.1297 18.1402 31.8863 17.9631 31.7058C17.786 31.5253 17.5445 31.4225 17.2917 31.4201H17.2864C17.161 31.4208 17.037 31.4461 16.9214 31.4948C16.8059 31.5434 16.701 31.6142 16.6128 31.7034C16.5247 31.7925 16.4549 31.8981 16.4076 32.0142C16.3602 32.1303 16.3362 32.2546 16.3369 32.38V32.3825C16.336 32.5081 16.3599 32.6326 16.4072 32.7489C16.4544 32.8652 16.5241 32.9711 16.6123 33.0604C16.7005 33.1498 16.8054 33.2209 16.921 33.2698C17.0367 33.3186 17.1608 33.3442 17.2864 33.345ZM16.6482 30.6678C16.867 30.6661 17.0762 30.5778 17.2301 30.4222C17.384 30.2666 17.47 30.0564 17.4693 29.8376C17.4693 29.3772 17.0996 29.0075 16.6482 29.0075C16.1968 29.0075 15.8271 29.3811 15.8271 29.8376C15.8271 30.2981 16.1968 30.6678 16.6482 30.6678ZM16.6248 28.3187C16.718 28.3179 16.8101 28.2987 16.8959 28.2622C16.9816 28.2258 17.0594 28.1728 17.1247 28.1063C17.1899 28.0399 17.2415 27.9612 17.2764 27.8747C17.3112 27.7883 17.3287 27.6959 17.3279 27.6027C17.3279 27.2097 17.0127 26.8867 16.6248 26.8867C16.237 26.8867 15.9218 27.2058 15.9218 27.6027C15.9218 27.9996 16.237 28.3187 16.6248 28.3187ZM17.0114 26.3653C17.3447 26.3653 17.6093 26.0916 17.6093 25.7582C17.6093 25.4249 17.3396 25.1512 17.0114 25.1512C16.678 25.1512 16.4134 25.4249 16.4134 25.7582C16.4134 26.0916 16.678 26.3653 17.0114 26.3653ZM19.4045 26.0384C19.7976 26.0384 20.1166 25.7141 20.1166 25.3172C20.1166 24.9203 19.7976 24.596 19.4045 24.596C19.0115 24.596 18.6924 24.9203 18.6924 25.3172C18.6917 25.5071 18.7663 25.6896 18.8997 25.8247C19.0331 25.9599 19.2146 26.0367 19.4045 26.0384ZM22.0312 25.015C22.4878 25.015 22.8613 24.6363 22.8613 24.1758C22.8634 23.9553 22.7778 23.743 22.6234 23.5856C22.4689 23.4282 22.2583 23.3386 22.0378 23.3366H22.0312C21.5746 23.3366 21.201 23.7153 21.201 24.1758C21.2002 24.2851 21.2209 24.3936 21.2619 24.495C21.303 24.5963 21.3636 24.6886 21.4403 24.7665C21.5171 24.8445 21.6084 24.9065 21.7091 24.9491C21.8098 24.9918 21.9179 25.0142 22.0273 25.015H22.0312ZM22.6564 27.6793C22.9062 27.6787 23.1455 27.5791 23.3219 27.4022C23.4982 27.2253 23.5972 26.9856 23.5969 26.7358C23.5966 26.486 23.4972 26.2465 23.3205 26.07C23.1438 25.8935 22.9042 25.7943 22.6544 25.7943C22.4046 25.7943 22.1651 25.8935 21.9883 26.07C21.8116 26.2465 21.7122 26.486 21.712 26.7358C21.7117 26.9856 21.8106 27.2253 21.987 27.4022C22.1633 27.5791 22.4027 27.6787 22.6525 27.6793H22.6564ZM19.4383 28.3888C19.8948 28.3888 20.2593 28.0152 20.2593 27.5534C20.2593 27.0917 19.8897 26.7181 19.4383 26.7181C19.3298 26.7188 19.2225 26.7408 19.1225 26.7829C19.0225 26.8251 18.9318 26.8865 18.8555 26.9637C18.7793 27.0409 18.719 27.1323 18.6781 27.2328C18.6372 27.3333 18.6165 27.4409 18.6172 27.5494V27.5534C18.6157 27.6616 18.6354 27.769 18.6754 27.8695C18.7153 27.97 18.7747 28.0616 18.8501 28.1392C18.9255 28.2167 19.0154 28.2787 19.1147 28.3215C19.214 28.3643 19.3208 28.3871 19.4289 28.3886H19.4383V28.3888ZM10.3585 27.15C11.3392 27.15 12.1382 26.3419 12.1382 25.3471C12.1382 24.3522 11.3392 23.5441 10.3585 23.5441C9.37793 23.5441 8.57892 24.3535 8.57892 25.3484C8.57892 26.3432 9.37793 27.15 10.3585 27.15ZM14.3977 23.9306C15.2421 23.9306 15.9218 23.2367 15.9218 22.3832C15.9218 21.5297 15.2369 20.8357 14.3977 20.8357C13.9908 20.8385 13.6016 21.0028 13.3158 21.2925C13.0299 21.5821 12.8709 21.9735 12.8736 22.3805V22.3832C12.8736 23.2419 13.5585 23.9306 14.3977 23.9306ZM12.8217 19.9615C13.661 19.9615 14.3368 19.2727 14.3368 18.4231C14.3368 17.5735 13.6571 16.8848 12.8217 16.8848C12.6214 16.8861 12.4233 16.9269 12.2388 17.0048C12.0542 17.0827 11.8868 17.1962 11.7462 17.3388C11.6055 17.4814 11.4943 17.6503 11.4189 17.8359C11.3435 18.0215 11.3054 18.2201 11.3067 18.4204V18.4231C11.3026 18.827 11.4591 19.2159 11.7417 19.5044C12.0243 19.7929 12.41 19.9573 12.8138 19.9615H12.8217ZM16.7156 18.0807C17.4316 18.0807 18.0166 17.4918 18.0166 16.7615C18.0166 16.0313 17.4329 15.4424 16.7156 15.4424C15.9983 15.4424 15.4147 16.0313 15.4147 16.7615C15.4147 17.4918 15.9996 18.0807 16.7156 18.0807ZM18.3072 22.0407C19.0284 22.0407 19.6121 21.448 19.6121 20.7177C19.6121 19.9874 19.0284 19.3947 18.3072 19.3947C17.586 19.3947 17.0023 19.9874 17.0023 20.7177C17.0023 21.448 17.586 22.0407 18.3072 22.0407ZM21.8509 21.2184C22.1474 21.216 22.4308 21.0959 22.6388 20.8845C22.8467 20.6731 22.9622 20.3878 22.9599 20.0913C22.9621 19.9457 22.9357 19.801 22.882 19.6656C22.8283 19.5302 22.7485 19.4067 22.6471 19.3022C22.5457 19.1976 22.4247 19.114 22.291 19.0562C22.1573 18.9984 22.0135 18.9675 21.8679 18.9653C21.7222 18.9631 21.5776 18.9896 21.4422 19.0432C21.3068 19.0969 21.1833 19.1767 21.0787 19.2781C20.9741 19.3795 20.8906 19.5005 20.8328 19.6342C20.775 19.7679 20.7441 19.9117 20.7419 20.0573C20.7419 20.0688 20.7419 20.08 20.7419 20.0913C20.7384 20.3868 20.8525 20.6716 21.059 20.8829C21.2655 21.0943 21.5475 21.215 21.843 21.2185L21.8509 21.2184ZM24.912 21.2288C25.4413 21.2288 25.8706 20.7955 25.8706 20.2611C25.8706 19.7267 25.4413 19.2935 24.912 19.2935C24.6554 19.2935 24.4093 19.3954 24.2278 19.5769C24.0463 19.7584 23.9444 20.0045 23.9444 20.2611C23.9444 20.5178 24.0463 20.7639 24.2278 20.9453C24.4093 21.1268 24.6554 21.2288 24.912 21.2288ZM27.4414 21.8112C27.8837 21.8112 28.2495 21.4467 28.2495 20.994C28.2495 20.5413 27.8889 20.1768 27.4414 20.1768C27.226 20.1785 27.0201 20.2654 26.8686 20.4186C26.7172 20.5717 26.6326 20.7786 26.6333 20.994C26.6385 21.4415 26.9978 21.8112 27.4414 21.8112ZM27.7709 18.8304C27.9585 18.8291 28.1379 18.7533 28.2697 18.6198C28.4015 18.4863 28.475 18.3059 28.4739 18.1183C28.4739 17.7253 28.1587 17.4062 27.7709 17.4062C27.383 17.4062 27.0678 17.7253 27.0678 18.1183C27.0668 18.3059 27.1402 18.4863 27.272 18.6198C27.4038 18.7533 27.5832 18.8291 27.7709 18.8304ZM25.8252 17.855C26.0399 17.8545 26.2456 17.7687 26.3971 17.6166C26.5487 17.4645 26.6336 17.2585 26.6334 17.0438C26.6331 16.8291 26.5476 16.6233 26.3957 16.4716C26.2438 16.3199 26.0379 16.2347 25.8232 16.2347C25.6085 16.2347 25.4026 16.3199 25.2507 16.4716C25.0988 16.6233 25.0133 16.8291 25.013 17.0438C25.0128 17.2585 25.0977 17.4645 25.2492 17.6166C25.4008 17.7687 25.6065 17.8545 25.8212 17.855H25.8252ZM23.3257 17.2635C23.5791 17.2615 23.8214 17.159 23.9994 16.9786C24.1774 16.7981 24.2765 16.5545 24.2752 16.3011C24.2752 15.7667 23.851 15.3386 23.3257 15.3386C22.8004 15.3386 22.3762 15.7719 22.3762 16.3011C22.3752 16.4264 22.3989 16.5508 22.4459 16.667C22.4929 16.7832 22.5624 16.889 22.6503 16.9784C22.7382 17.0678 22.8429 17.139 22.9583 17.1879C23.0738 17.2368 23.1977 17.2625 23.3231 17.2635H23.3257ZM20.2697 17.2674C20.8858 17.2674 21.3826 16.7615 21.3826 16.1402C21.3826 15.5189 20.8858 15.013 20.2697 15.013C19.6536 15.013 19.1568 15.5189 19.1568 16.1402C19.1558 16.437 19.2722 16.7222 19.4807 16.9334C19.6893 17.1446 19.9729 17.2647 20.2697 17.2674ZM16.154 14.4488C16.8518 14.4488 17.4135 13.8781 17.4135 13.1712C17.4135 12.4642 16.8479 11.8935 16.154 11.8935C15.4562 11.8935 14.8945 12.4642 14.8945 13.1712C14.8945 13.8781 15.46 14.4488 16.154 14.4488ZM19.6964 13.6744C20.3125 13.6744 20.8093 13.1686 20.8093 12.5473C20.8093 11.9259 20.3125 11.4201 19.6964 11.4201C19.0803 11.4201 18.5835 11.9259 18.5835 12.5473C18.5835 13.1686 19.0803 13.6744 19.6964 13.6744ZM22.7563 13.6887C23.2855 13.6887 23.7148 13.2555 23.7148 12.7172C23.7148 12.1789 23.2855 11.7456 22.7563 11.7456C22.6297 11.7463 22.5045 11.7719 22.3878 11.821C22.2712 11.87 22.1653 11.9416 22.0763 12.0316C21.9873 12.1216 21.9169 12.2282 21.8691 12.3454C21.8213 12.4626 21.797 12.588 21.7977 12.7146V12.7172C21.7966 12.9729 21.8969 13.2187 22.0765 13.4008C22.2561 13.5828 22.5005 13.6863 22.7563 13.6887ZM25.2674 14.2672C25.7149 14.2672 26.0755 13.9027 26.0755 13.45C26.0755 12.9973 25.7149 12.6329 25.2674 12.6329C25.0507 12.6329 24.8429 12.719 24.6896 12.8722C24.5364 13.0255 24.4503 13.2333 24.4503 13.45C24.4503 13.6668 24.5364 13.8746 24.6896 14.0279C24.8429 14.1811 25.0507 14.2672 25.2674 14.2672ZM27.1962 15.2686C27.3887 15.2672 27.5727 15.1895 27.7079 15.0526C27.8431 14.9157 27.9185 14.7307 27.9174 14.5383C27.9174 14.1323 27.5932 13.808 27.1962 13.808C26.7993 13.808 26.475 14.1362 26.475 14.5383C26.475 14.9404 26.7993 15.2686 27.1962 15.2686ZM28.6114 16.4178C28.6897 16.4173 28.7672 16.4014 28.8394 16.3709C28.9116 16.3404 28.9771 16.2961 29.0321 16.2403C29.0872 16.1845 29.1307 16.1185 29.1602 16.0459C29.1897 15.9733 29.2047 15.8956 29.2042 15.8172V15.816C29.2048 15.7376 29.1901 15.6599 29.1607 15.5872C29.1314 15.5146 29.088 15.4484 29.0331 15.3925C28.9781 15.3366 28.9127 15.2921 28.8406 15.2615C28.7685 15.2309 28.691 15.2148 28.6127 15.2141H28.6114C28.533 15.2146 28.4555 15.2305 28.3833 15.261C28.3111 15.2915 28.2456 15.3358 28.1906 15.3916C28.1356 15.4474 28.092 15.5134 28.0625 15.586C28.033 15.6586 28.0181 15.7363 28.0186 15.8147V15.816C28.0174 15.8938 28.0315 15.9711 28.0602 16.0435C28.0889 16.1159 28.1316 16.1819 28.1858 16.2377C28.24 16.2936 28.3047 16.3383 28.3761 16.3691C28.4476 16.4 28.5245 16.4165 28.6023 16.4177H28.6116L28.6114 16.4178Z" fill="black"/>
</svg>
