<svg width="48" height="48" viewBox="0 0 48 48" fill="none" xmlns="http://www.w3.org/2000/svg">
<path d="M0 24C0 10.7452 10.7452 0 24 0C37.2548 0 48 10.7452 48 24C48 37.2548 37.2548 48 24 48C10.7452 48 0 37.2548 0 24Z" fill="white"/>
<g clip-path="url(#clip0_2_10802)">
<path d="M25.6897 24.4601C25.6897 21.8504 25.7077 19.2408 25.7077 16.6311C25.8516 16.5591 25.9956 16.5951 26.1396 16.6671C28.1553 17.8729 30.2251 18.9888 32.1868 20.2846C32.2408 20.3566 32.2588 20.4466 32.2588 20.5366C32.2228 20.6626 32.1328 20.7706 32.0429 20.8606C30.2251 22.1204 28.2273 23.0743 26.2836 24.3701C27.9574 25.504 29.6852 26.4219 31.3409 27.4117C31.6829 27.7177 32.2588 27.8257 32.2048 28.4556C30.2611 29.6075 28.3533 30.8133 26.3916 31.9292C26.1936 32.0372 25.9776 32.1811 25.7436 31.9832H25.7256C25.4557 31.6952 25.4377 31.3353 25.4377 30.9753C25.4197 29.1395 25.4377 27.2858 25.4377 25.45C25.4377 25.126 25.4737 24.7661 25.6897 24.4601Z" fill="#33F5BD"/>
<path d="M32.1868 20.3925C29.9551 19.2586 27.8674 17.9088 25.7256 16.631C25.5457 16.343 25.4557 16.037 25.4557 15.7131C25.4377 13.8233 25.4377 11.9156 25.4737 10.0258C25.4737 9.66584 25.4197 9.2159 25.9416 9.10791C28.0653 10.2958 30.1711 11.5196 32.2228 12.8334C32.4208 13.1214 32.4568 13.4454 32.4568 13.7693C32.4568 15.6771 32.4568 17.5669 32.4568 19.4746C32.4388 19.7986 32.4568 20.1405 32.1868 20.3925Z" fill="#00F2AD"/>
<path d="M38.648 16.6311C38.918 16.7931 38.828 17.0451 38.828 17.279C38.828 22.0304 38.828 26.7638 38.828 31.5152C38.828 31.7312 38.936 32.0012 38.648 32.1632C38.576 32.0912 38.504 32.0012 38.468 31.9112C38.306 29.9494 38.45 28.0057 38.378 26.0439C38.36 25.738 38.558 25.306 38.234 25.144C37.9461 25.0001 37.6581 25.36 37.3702 25.522C36.0203 26.2959 34.7425 27.1598 33.3747 27.8977C32.4388 28.4016 32.1148 28.2396 32.1148 27.1958C32.0968 25.324 32.0968 23.4522 32.1148 21.5805C32.1148 21.2565 32.0968 20.9146 32.4028 20.6986C33.0687 20.5726 33.5366 20.9866 34.0406 21.3105C35.2464 22.0844 36.5243 22.7503 37.7481 23.5062C38.234 23.8122 38.414 23.7222 38.414 23.1283C38.396 21.4365 38.396 19.7267 38.414 18.0349C38.414 17.657 38.378 17.261 38.486 16.8831C38.522 16.7751 38.576 16.7031 38.648 16.6311Z" fill="#33F5BD"/>
<path d="M10.6614 23.2183C10.0135 23.2903 9.58153 23.8122 8.84362 24.0642C8.84362 23.5782 8.84362 23.1643 8.84362 22.7323C8.84362 20.9506 8.84362 19.1688 8.84362 17.387C8.84362 17.117 8.68164 16.7211 8.98761 16.5771C9.23957 16.4511 9.45555 16.7751 9.67152 16.9011C11.6153 17.9809 13.469 19.2408 15.4668 20.2126C15.5208 20.3386 15.4668 20.4466 15.3588 20.5186C13.829 21.4545 12.3172 22.4624 10.6614 23.2183Z" fill="#99F7DF"/>
<path d="M17.2847 27.1777C17.7886 27.3397 18.2205 27.6457 18.7425 28.0236C16.5468 29.3375 14.405 30.5973 12.2813 31.8571C12.2273 31.7492 12.2453 31.9111 12.2273 31.8031C11.8313 29.9674 11.7774 28.1136 12.2633 26.2778C12.2633 25.5759 12.2633 24.874 12.2633 24.1721C12.6232 23.9921 12.8752 24.2441 13.1452 24.4061C14.459 25.18 15.7908 25.9539 17.1047 26.7458C17.2307 26.8358 17.1407 27.0697 17.2847 27.1777Z" fill="#B2FAE6"/>
<path d="M17.0866 26.8178C16.4027 26.8358 15.9887 26.2959 15.4488 26.0259C14.3509 25.45 13.307 24.8021 12.2272 24.1721C11.7052 23.8482 11.1833 23.5422 10.6614 23.2182C12.0832 22.0844 13.739 21.3285 15.2688 20.3746C15.3408 20.3206 15.4128 20.2666 15.4848 20.2126C15.9707 19.9247 16.4567 19.6367 16.9606 19.3307C17.0866 19.2947 17.1766 19.3307 17.2486 19.4567C17.4825 20.0506 17.3925 20.6806 17.3925 21.2925C17.4105 22.7323 17.4105 24.1901 17.3925 25.6299C17.3745 26.0439 17.4285 26.4758 17.0866 26.8178Z" fill="#0CF3B1"/>
<path d="M19.0485 36.2486C18.2746 36.6806 17.5187 37.1305 16.6548 37.6165C16.6548 35.0608 16.6548 32.5951 16.6548 30.0394C18.3286 31.0113 19.9664 31.9652 21.6042 32.9191C21.6582 32.9551 21.7122 32.9911 21.7661 32.9911C22.3241 33.0451 22.936 33.225 23.026 33.801C23.116 34.3409 22.4681 34.5029 22.0721 34.7008C21.0462 35.2048 20.2003 36.0327 19.0485 36.2486Z" fill="#19F7B4"/>
<path d="M17.0326 19.3127L16.9966 19.3307H16.9427C15.5928 18.2508 14.027 17.5309 12.5692 16.613C11.6873 16.0551 11.6693 16.0911 12.6052 15.5331C14.189 14.5973 15.7728 13.6434 17.3746 12.7075C17.5906 12.5815 17.8425 12.4735 18.1125 12.3475C18.3645 13.4634 17.9685 14.5433 18.3645 15.5691C18.5085 16.955 18.5625 18.3588 18.3285 19.7446C17.6446 20.3025 17.4106 19.5826 17.0326 19.3127Z" fill="#66F5CD"/>
<path d="M25.9236 9.108C25.6176 9.35997 25.7256 9.71992 25.7256 10.0259C25.7076 12.2216 25.7256 14.4353 25.7256 16.6311C25.4916 16.4871 25.2577 16.3431 25.0057 16.1991C24.8797 16.1991 24.7537 16.1991 24.6637 16.0911C22.8999 15.0113 21.1182 13.9314 19.2644 12.7975C21.4061 11.5377 23.4759 10.3139 25.5456 9.07201C25.6716 9.00001 25.7976 8.94602 25.9236 9.108Z" fill="#33F4BD"/>
<path d="M12.2452 26.2599C12.2632 28.1137 12.2632 29.9854 12.2812 31.8392C12.2812 32.4511 12.2812 33.063 12.2812 33.8549C10.6974 32.9371 9.27562 32.1092 7.8538 31.2633C7.49384 31.0473 7.13389 30.8313 6.79193 30.6153C5.76606 29.9854 5.76606 29.9674 6.77393 29.3915C8.59171 28.3656 10.4095 27.3218 12.2452 26.2599Z" fill="#73F9D2"/>
<path d="M25.6895 24.4601C25.6895 26.9798 25.7075 29.4815 25.7075 32.0012C23.6377 30.9393 21.694 29.6615 19.6782 28.4916C19.2643 28.2577 19.4622 28.0777 19.7322 27.9337C21.73 26.7819 23.7097 25.612 25.6895 24.4601Z" fill="#66F4CE"/>
<path d="M25.7075 40.9999C25.7075 38.4982 25.7075 36.1585 25.7075 33.8188C25.7075 33.3149 25.9595 33.4769 26.2115 33.6209C28.1552 34.7727 30.117 35.9246 32.1867 37.1484C30.027 38.4262 27.9392 39.6681 25.7075 40.9999Z" fill="#4CF8C4"/>
<path d="M25.7256 32.0011C27.4534 31.1912 29.0012 30.0934 30.639 29.1575C31.1249 28.8695 31.6108 28.5635 32.1688 28.4376C32.4927 28.7615 32.3848 29.1935 32.4207 29.5714C32.4207 31.3172 32.4207 33.045 32.4207 34.7908C32.4207 35.1687 32.4747 35.5647 32.1868 35.8886C30.027 34.6108 27.8133 33.4049 25.7256 32.0011Z" fill="#4CF0C7"/>
<path d="M38.6298 32.0191C38.6298 32.0731 38.6298 32.1091 38.6478 32.1451C36.614 33.3509 34.5803 34.5568 32.5466 35.7626C32.0606 35.6726 32.2946 35.2947 32.2946 35.0607C32.2766 33.2969 32.2766 31.5511 32.2766 29.8054C32.2766 29.5714 32.2766 29.3374 32.2766 29.0854C32.2766 28.1136 32.3666 28.0416 33.1765 28.5095C34.7783 29.4274 36.3621 30.3993 37.9639 31.3172C38.2698 31.4791 38.5038 31.6951 38.6298 32.0191Z" fill="#00EDAF"/>
<path d="M38.6479 16.6311C38.6479 16.685 38.6479 16.757 38.6299 16.811C38.126 17.423 37.388 17.7289 36.7401 18.1249C35.7143 18.7368 34.6884 19.3487 33.6625 19.9426C33.2846 20.1586 32.9066 20.4826 32.4387 20.1586C32.3847 20.0866 32.3127 20.0146 32.3127 19.9246C32.2947 17.5849 32.1867 15.2452 32.3667 12.9055C34.4904 14.0934 36.5961 15.3172 38.6479 16.6311Z" fill="#19F8B4"/>
<path d="M17.0327 19.3127C17.4107 19.4927 17.7706 19.6906 18.1486 19.8706C18.5265 20.2306 18.3466 20.6985 18.4185 21.1305C18.4905 21.6164 18.2386 22.1383 18.5985 22.5703C19.4624 22.4083 20.0203 21.6164 20.9022 21.4904C22.0001 21.8324 23.044 22.2823 23.7459 23.2362C22.2161 23.7401 20.9742 24.802 19.5704 25.5399C18.9765 25.8639 18.4005 26.2238 17.8066 26.5658C17.5546 26.7098 17.2487 26.8177 17.2667 27.1957C17.1047 27.1237 17.0867 26.9797 17.0687 26.8357C17.0687 24.3161 17.0507 21.8144 17.0327 19.3127Z" fill="#CBFCEE"/>
<path d="M19.0483 36.2485C20.3622 35.4746 21.658 34.6827 22.9898 33.8908C22.6119 33.3689 22 33.2789 21.586 32.9189C22.5579 32.703 23.2598 31.9291 24.2497 31.6051C24.2497 34.0888 24.2497 36.5365 24.2497 39.1282C22.7379 38.2463 21.2981 37.4184 19.8582 36.5725C19.6063 36.4285 19.3543 36.2665 19.0483 36.2485Z" fill="#98F7DF"/>
<path d="M20.8662 21.6164C20.0923 22.0484 19.3364 22.4803 18.5625 22.9123C18.5265 22.9123 18.4725 22.9303 18.4725 22.9303C18.0406 21.9224 18.2925 20.8605 18.3105 19.8347C18.3285 19.2947 18.9584 19.0967 19.4084 18.8988C20.2183 18.5388 20.8482 17.8189 21.7841 17.6749C21.8921 17.6749 22.0001 17.6749 22.126 17.6749C23.0619 18.0349 23.8898 18.5748 24.6997 19.1507C24.7717 19.3847 24.7177 19.5827 24.5197 19.6907C23.3139 20.3566 22.252 21.2925 20.8662 21.6164Z" fill="#0CF1B1"/>
<path d="M20.8662 21.6165C21.9641 20.9686 23.0439 20.3207 24.1418 19.6727C24.3398 19.5468 24.5917 19.4928 24.6277 19.2048C24.2318 18.2509 24.3578 17.261 24.4658 16.2712C24.5378 16.2172 24.5917 16.1632 24.6637 16.0912C24.7717 16.1272 24.8977 16.1632 25.0057 16.1992C24.6817 16.4331 24.7897 16.7931 24.7897 17.0991C24.7717 18.9348 24.7897 20.7706 24.7897 22.6064C24.7897 23.7222 24.7897 23.7222 23.7639 23.2183C22.81 22.6604 21.9281 21.9585 20.8662 21.6165Z" fill="#6AF2D0"/>
<path d="M21.7841 17.6569C20.9922 18.2868 20.1463 18.8087 19.2285 19.2227C18.6165 19.5107 18.2206 19.8886 18.3466 20.6445C18.4726 21.3824 18.1306 22.1743 18.5445 22.8942C18.0766 23.1642 18.1846 22.7683 18.1846 22.5703C18.1666 21.6704 18.1666 20.7705 18.1486 19.8706C18.1486 18.7188 18.1486 17.5669 18.1666 16.397C18.1666 16.1091 18.0586 15.8031 18.3286 15.5692C19.4984 16.2711 20.6323 16.973 21.7841 17.6569Z" fill="#1AFAB3"/>
<path d="M24.4477 16.2711C24.8436 17.225 24.5557 18.2329 24.6097 19.2048C23.7278 18.7548 22.8459 18.3409 22.126 17.6569C22.8459 17.099 23.6378 16.6671 24.4477 16.2711Z" fill="#66FDCC"/>
<path d="M32.3667 12.9235C32.3667 15.0112 32.3667 17.117 32.3667 19.2047C32.3667 19.5827 32.2588 19.9966 32.7267 20.2126C32.8167 20.4106 32.7087 20.5365 32.5467 20.6265C32.4207 20.6625 32.2948 20.6805 32.1868 20.5725C32.1868 20.5185 32.1868 20.4465 32.1868 20.3926C32.1868 17.8729 32.2048 15.3532 32.2048 12.8335C32.2588 12.8515 32.3128 12.8875 32.3667 12.9235Z" fill="#0CF4B0"/>
<path d="M32.3666 29.5174C32.3666 31.2992 32.3666 33.0809 32.3846 34.8447C32.3846 35.1507 32.2587 35.5106 32.5646 35.7626C32.4746 35.8886 32.3666 35.9606 32.2227 35.8886C32.2227 33.7648 32.2227 31.6231 32.2227 29.4994C32.2587 29.4274 32.3126 29.4274 32.3666 29.5174Z" fill="#33F5BD"/>
<path d="M32.3668 29.5175C32.3128 29.5175 32.2588 29.5175 32.2048 29.5175C32.2048 29.1575 32.2048 28.7975 32.2048 28.4556C32.0608 28.0056 31.4849 27.9696 31.3049 27.5737C31.8269 27.3217 31.9528 26.8718 31.9528 26.3319C31.9349 24.802 31.9528 23.2722 31.9528 21.7424C31.9528 21.4185 31.9349 21.0945 32.0428 20.7706C32.0968 20.7166 32.1688 20.6626 32.2228 20.5906C32.3488 20.5906 32.4568 20.5906 32.5828 20.5906C32.6188 20.6266 32.6368 20.6626 32.6188 20.6986C32.6008 20.7346 32.6008 20.7526 32.5828 20.7526C32.5288 20.8245 32.4388 20.8965 32.4388 20.9685C32.4208 23.2002 32.4028 25.414 32.4028 27.6457C32.4028 28.3116 32.8167 27.9876 33.0507 27.8437C34.5985 26.9258 36.1463 25.9899 37.7121 25.054C37.9821 24.892 38.2341 24.6761 38.666 24.6761C38.666 27.1418 38.666 29.5894 38.666 32.0551C36.6323 30.8313 34.5805 29.6074 32.4028 28.3116C32.3668 28.7795 32.3668 29.1395 32.3668 29.5175Z" fill="#1AF1B6"/>
<path d="M32.0067 20.7346C32.2227 20.9145 32.1867 21.1485 32.1867 21.3825C32.1867 23.1823 32.1687 25 32.2047 26.7998C32.2227 27.5197 31.9347 27.6997 31.2868 27.5197C29.4871 26.7098 27.9032 25.576 26.1935 24.6041C25.7615 24.3701 26.1215 24.1361 26.3194 24.0101C28.2092 22.9303 30.099 21.8324 32.0067 20.7346Z" fill="#0CF4B0"/>
<path d="M32.5466 20.7346C32.5466 20.6806 32.5466 20.6266 32.5466 20.5546C32.6006 20.4286 32.6726 20.3207 32.7266 20.1947C34.5624 19.1148 36.3981 18.0349 38.2339 16.9551C38.3599 16.8831 38.5039 16.8471 38.6479 16.8111C38.6479 19.2408 38.6479 21.6705 38.6479 24.2442C36.5601 23.0563 34.5444 21.9045 32.5466 20.7346Z" fill="#00F2AD"/>
</g>
<defs>
<clipPath id="clip0_2_10802">
<rect width="32.8459" height="32" fill="white" transform="translate(6 9)"/>
</clipPath>
</defs>
</svg>
