<svg width="48" height="48" viewBox="0 0 48 48" fill="none" xmlns="http://www.w3.org/2000/svg">
<rect width="48" height="48" rx="24" fill="#BEBEBF"/>
<g clip-path="url(#clip0_2_16269)">
<path d="M33.4949 13.3973C32.5512 13.3678 31.5779 12.6894 30.7816 13.3678C29.9263 14.1051 30.0148 15.3143 29.6903 16.3171C29.2479 17.7033 28.953 19.1484 28.5106 20.5641C28.2747 21.3899 28.4221 21.8618 29.3364 22.0387C30.2802 22.2157 31.224 22.5401 32.1678 22.7761C32.8756 22.953 32.9641 23.3659 32.8166 23.9853C32.6691 24.5751 32.4037 24.988 31.6959 24.8406C30.7521 24.6046 29.8083 24.3392 28.8645 24.0738C28.1567 23.8673 27.6258 23.9558 27.3899 24.7816C27.1539 25.5779 27.4489 25.9613 28.2452 26.1088C29.1595 26.2857 30.0443 26.6102 30.9291 26.8166C31.6369 26.9641 31.9318 27.259 31.7254 28.0258C31.5189 28.8222 31.1355 29.0876 30.3687 28.8516C29.5724 28.6157 28.7171 28.5272 27.9797 28.2028C26.8295 27.7309 26.4461 28.2323 26.1807 29.2645C25.7678 31.0636 25.2369 32.8627 24.765 34.6618C24.2636 36.5493 24.3521 36.6673 26.1512 37.3457C26.6526 37.5226 27.2719 37.5521 27.5079 38.083C27.7438 38.6139 27.4784 39.1447 27.2719 39.6166C27.0065 40.236 26.5051 39.8821 26.1217 39.7936C22.435 38.8203 18.7484 37.847 15.0913 36.8443C14.5309 36.6968 13.7641 36.6968 14.059 35.6645C14.3244 34.7208 14.7373 34.3963 15.7106 34.5438C18.1585 34.9272 18.1585 34.8977 18.7779 32.5383C19.2498 30.7392 19.7217 28.9401 20.2231 27.1705C20.4295 26.4627 20.282 26.0793 19.5152 25.9023C18.5714 25.6959 17.6277 25.3715 16.6839 25.165C15.9171 24.988 15.7696 24.5751 15.9466 23.8968C16.1235 23.189 16.5364 22.9235 17.2443 23.13C18.0996 23.3659 18.9549 23.5724 19.7807 23.8378C20.577 24.0738 21.0489 23.9558 21.3143 23.071C21.5797 22.1567 21.0784 21.9503 20.4 21.8028C19.4857 21.5963 18.6009 21.3014 17.7161 21.095C17.0673 20.9475 16.8314 20.6231 17.0083 19.9447C17.1853 19.2959 17.3917 18.824 18.188 19.0304C18.9843 19.2369 19.8396 19.3254 20.577 19.6793C21.8452 20.2397 22.2876 19.7383 22.5235 18.5291C22.8479 16.9069 23.3493 15.3143 23.7622 13.7217C24.3816 11.3622 24.3816 11.3033 22.1401 10.4774C21.1079 10.094 20.9309 9.53367 21.2848 8.58989C21.4913 8.05902 21.7272 7.94104 22.2581 8.08851C26.1807 9.15026 30.0738 10.1825 33.9963 11.2443C34.5862 11.3917 34.8221 11.6867 34.5862 12.306C34.4682 12.8664 34.3502 13.5447 33.4949 13.3973Z" fill="#FEFEFE"/>
</g>
<defs>
<clipPath id="clip0_2_16269">
<rect width="20.7631" height="32" fill="white" transform="translate(14 8)"/>
</clipPath>
</defs>
</svg>
