<svg width="48" height="48" viewBox="0 0 48 48" fill="none" xmlns="http://www.w3.org/2000/svg">
<path d="M0.0304762 47.9695C0.0304762 32.3352 0.0304762 16.6705 0 1.03619C0 0.0914286 0.243809 0 1.09714 0C16.3657 0.0304762 31.6343 0.0304762 46.9029 0C47.7562 0 48 0.121905 47.9695 1.03619C47.939 16.3048 47.939 31.5733 47.9695 46.8724C47.9695 47.8781 47.6952 48 46.8114 48C31.2381 47.9695 15.6343 47.9695 0.0304762 47.9695Z" fill="#3C3140"/>
<path d="M17.7067 14.0799C19.5048 13.9276 21.6686 14.2018 23.8325 14.3847C26.1791 14.598 28.4953 14.0495 30.842 14.0495C36.602 14.0799 40.6248 17.6761 41.2344 23.3752C41.4172 25.0514 41.7525 26.758 41.4477 28.4647C40.6553 33.3104 36.7239 36.5714 31.6039 36.7542C30.1106 36.8152 28.6172 36.7847 27.1848 36.3276C24.5029 35.4742 21.9125 35.718 19.2001 36.3885C14.9944 37.4247 11.1848 36.4495 8.13722 33.1885C6.43055 31.3599 5.8515 29.1961 6.27817 26.6971C6.61341 24.7161 6.91817 22.7047 7.04008 20.6933C7.28389 16.579 9.5696 14.2018 13.6839 14.0495C14.9029 14.0495 16.122 14.0799 17.7067 14.0799Z" fill="#2D2630"/>
<path d="M8.35044 28.4648C8.31996 27.1848 8.19806 25.9048 9.2952 24.96C9.63044 23.9238 10.4228 24.0152 11.2457 24.1371C11.8247 24.1371 12.4038 24.1371 12.9828 24.1371C12.3733 24.1371 11.7638 24.1371 11.1238 24.1371C9.9352 23.9848 9.56949 23.0705 9.50854 22.1257C9.41711 20.7238 9.32568 19.3219 9.59996 17.92C10.0266 16.5791 10.9104 15.9695 12.3428 15.9695C15.4819 16 18.6209 15.9695 21.7295 15.9695C22.3695 15.9695 23.1619 15.9391 23.5276 16.4267C24.4723 17.7676 25.2647 17.2495 26.4533 16.701C29.9276 15.0857 33.3409 15.2686 36.48 17.6762C37.9123 18.7733 38.7352 20.1752 38.7047 22.0343C39.2228 24.0762 39.4057 26.1791 39.2533 28.2819C39.1314 30.0495 38.1257 31.4819 36.6323 32.4572C33.0666 34.8648 29.2876 34.7124 25.5695 33.0057C24.0457 32.3048 23.0095 32.0305 21.3942 32.9752C17.9809 35.0172 13.1962 34.4381 10.3009 32.061C9.11234 31.1771 8.62473 29.8972 8.35044 28.4648Z" fill="#01390B"/>
<path d="M8.35057 28.4648C11.2763 33.9505 17.8287 35.2914 22.5525 31.36C23.2839 30.7505 23.6496 30.9333 24.2896 31.4514C27.642 34.1333 32.9449 34.3467 36.541 31.9695C38.8877 30.4152 39.7715 27.6724 38.6744 24.7772C38.3087 23.8019 38.1868 22.9791 38.7353 22.0952C39.101 22.3391 39.3144 22.7048 39.3753 23.1619C40.3201 29.5619 39.0096 34.9562 30.2934 34.9562C29.501 34.9562 28.6782 34.8648 27.9468 34.6514C25.021 33.7371 22.1563 33.8895 19.1391 34.621C15.9087 35.3829 12.6782 35.1695 10.0572 32.64C8.83819 31.4514 8.16772 30.141 8.35057 28.4648Z" fill="#2D2630"/>
<path d="M11.5199 24.6248C10.758 24.6553 9.99609 24.5639 9.29514 24.9601C8.99037 22.6134 9.20371 20.2667 9.5999 17.9505C9.5999 18.8953 9.66085 19.8705 9.5999 20.8153C9.53894 22.2782 10.1485 23.2229 11.5504 23.7105C11.7942 24.0153 11.7942 24.3201 11.5199 24.6248Z" fill="#2D2630"/>
<path d="M25.1734 29.4704C24.5639 28.9218 24.3201 28.1295 24.5639 27.4895C24.8382 26.7885 25.6915 27.1542 26.301 27.1542C27.5506 27.1237 28.861 26.8799 29.9582 27.7637C30.0801 27.8552 30.2629 27.8552 30.4153 27.8552C31.0553 27.7637 32.0306 28.2209 32.1525 27.3371C32.2134 26.758 31.2382 26.6666 30.6287 26.5447C29.6534 26.3618 28.6172 26.2399 27.7029 25.9352C25.1125 25.0818 24.2591 23.1009 25.2039 20.4495C27.3372 19.7485 29.6229 20.2361 31.7563 19.6876C33.4325 19.2609 34.9867 19.5047 36.4191 20.4799C37.0896 21.5161 37.0591 22.1866 35.5963 22.0647C34.1029 21.9428 32.5487 22.3999 31.1163 21.5161C30.781 21.3028 30.0191 21.3028 29.8972 21.8818C29.7448 22.5523 30.4458 22.5523 30.842 22.6437C31.6648 22.8571 32.5182 22.8876 33.341 23.0704C36.0229 23.6495 37.2115 24.7771 37.3639 26.8799C37.4858 28.7695 36.4496 30.0799 34.0115 31.0857C30.8725 31.4818 28.0687 30.2018 25.1734 29.4704Z" fill="#9EDD90"/>
<path d="M17.5543 21.7904C17.2495 21.7599 16.9447 21.7599 16.6705 21.7294C16.0609 20.8761 16.4266 20.2361 17.1276 19.6875C18.2552 18.8037 21.4552 18.9256 22.7047 19.8704C22.7352 22.1256 22.7962 24.4113 22.7352 26.6666C22.6438 29.318 21.059 30.9637 18.3466 31.3904C17.7981 31.6952 17.3409 31.299 16.8228 31.1771C15.8171 30.9637 15.299 30.2628 15.2381 29.2571C15.1771 28.0685 16.1524 28.038 16.9752 27.8552C17.4324 27.5199 17.5847 27.0628 17.6762 26.5447C17.7371 24.9599 17.9809 23.3752 17.5543 21.7904Z" fill="#9EDD90"/>
<path d="M22.6742 19.84C21.4246 19.84 20.1751 19.8095 18.9256 19.8705C17.737 19.9314 16.7618 20.3276 16.6704 21.7295C15.9389 21.7295 15.177 21.7295 14.4456 21.7295C13.5618 20.4191 13.8666 19.1695 15.2075 18.4991C15.6646 18.2552 16.2437 18.2552 16.7008 17.9505C18.1027 17.92 19.5351 18.0114 20.937 17.8591C22.4913 17.7371 23.0094 18.3467 22.6742 19.84Z" fill="#9EDD90"/>
<path d="M36.4191 20.48C33.3715 19.8095 30.3848 20.9371 27.3677 20.8152C26.6362 20.7848 25.9048 20.8152 25.2039 20.4495C25.4477 19.7486 25.9353 19.2609 26.5753 18.8952C28.8915 18.5295 31.2381 18.1333 33.6153 18.2552C34.8343 18.5905 35.8096 19.2914 36.4191 20.48Z" fill="#9EDD90"/>
<path d="M16.9753 27.8552C15.5125 28.739 15.4211 29.5314 16.7925 30.5676C17.2496 30.9028 17.7982 31.1161 18.3163 31.3904C17.0058 31.8476 15.6953 31.7866 14.4153 31.36C12.4039 29.7447 12.1906 28.1904 13.7753 26.5752C14.4153 26.4533 15.0553 26.3923 15.3906 27.1542C15.6953 27.8552 16.3353 27.8552 16.9753 27.8552Z" fill="#9EDD90"/>
<path d="M25.1733 29.4706C26.8495 28.8915 28.4038 29.6229 29.9886 29.9886C31.3295 30.3239 32.64 30.6896 33.981 31.0553C30.8419 32.3353 27.0629 31.6648 25.1733 29.4706Z" fill="#9EDD90"/>
<path d="M16.6398 17.9505C15.4817 18.9562 14.1103 19.8401 14.4151 21.7296C13.7751 21.7296 13.1351 21.7296 12.4951 21.7296C11.4589 20.1753 11.8855 18.8953 13.7751 17.9505C14.7198 17.9505 15.6951 17.9505 16.6398 17.9505Z" fill="#9EDD90"/>
<path d="M33.5847 18.2247C31.299 18.9561 28.9828 19.5657 26.5447 18.8647C28.7999 17.4628 31.1161 17.2495 33.5847 18.2247Z" fill="#9EDD90"/>
<path d="M13.7753 26.5753C13.1963 28.2819 13.5925 29.8362 14.4153 31.36C13.5315 31.3905 12.8306 30.9334 12.1296 30.4762C11.4287 29.1657 10.4839 27.8553 12.1601 26.6057C12.7087 26.5753 13.2268 26.5753 13.7753 26.5753Z" fill="#9EDD90"/>
<path d="M13.7753 17.9504C12.861 19.0476 12.5562 20.3581 12.4953 21.7295C11.9772 21.8514 11.581 21.8209 11.3372 21.2114C10.5753 19.0781 11.4895 17.7981 13.7753 17.9504Z" fill="#9EDD90"/>
<path d="M12.16 26.5753C11.8857 27.8553 11.9771 29.1658 12.1295 30.4458C11.459 30.08 10.9714 29.5315 10.6362 28.861C10.3009 28.1905 9.96567 27.4286 10.3923 26.7886C10.7885 26.24 11.5504 26.5143 12.16 26.5753Z" fill="#9EDD90"/>
<path d="M11.52 24.6247C11.52 24.32 11.52 24.0152 11.52 23.7104C12.6172 23.7104 13.7448 23.7104 14.8419 23.7104C15.1467 23.7104 15.5124 23.8019 15.4514 24.2285C15.421 24.5638 15.0857 24.5943 14.8419 24.5943C13.7448 24.6247 12.6476 24.6247 11.52 24.6247Z" fill="#2D2630"/>
<path d="M17.5542 21.7905C18.2247 23.3752 18.0418 24.96 17.6761 26.5447C17.6152 24.96 17.5847 23.3752 17.5542 21.7905Z" fill="#A0DE92"/>
</svg>
