<svg width="49" height="48" viewBox="0 0 49 48" fill="none" xmlns="http://www.w3.org/2000/svg">
<circle cx="24.5" cy="24" r="24" fill="white"/>
<path d="M22.625 4.9375C22.625 4.41973 23.0447 4 23.5625 4H25.4375C25.9553 4 26.375 4.41973 26.375 4.9375V5.875H22.625V4.9375Z" fill="#F6931E"/>
<path d="M26.375 43.0625C26.375 43.5803 25.9553 44 25.4375 44H23.5625C23.0447 44 22.625 43.5803 22.625 43.0625V42.125H26.375V43.0625Z" fill="#F6931E"/>
<path d="M22.625 4.9375C22.625 4.41973 23.0447 4 23.5625 4H25.4375C25.9553 4 26.375 4.41973 26.375 4.9375V5.875H22.625V4.9375Z" fill="#F6931E"/>
<path d="M26.375 43.0625C26.375 43.5803 25.9553 44 25.4375 44H23.5625C23.0447 44 22.625 43.5803 22.625 43.0625V42.125H26.375V43.0625Z" fill="#F6931E"/>
<path d="M31.2448 41.9278C31.3788 42.4279 31.082 42.9419 30.5819 43.076L28.7708 43.5612C28.2707 43.6952 27.7566 43.3985 27.6226 42.8983L27.38 41.9928L31.0022 41.0222L31.2448 41.9278Z" fill="#F6931E"/>
<path d="M17.7551 6.07241C17.6211 5.57228 17.9179 5.05822 18.418 4.92421L20.2291 4.43892C20.7293 4.30492 21.2433 4.60171 21.3773 5.10184L21.62 6.00739L17.9978 6.97796L17.7551 6.07241Z" fill="#F6931E"/>
<path d="M35.655 39.5712C35.9139 40.0196 35.7603 40.5929 35.3119 40.8518L33.6881 41.7893C33.2397 42.0482 32.6663 41.8946 32.4074 41.4462L31.9387 40.6343L35.1863 38.7593L35.655 39.5712Z" fill="#F6931E"/>
<path d="M13.3449 8.42894C13.086 7.98054 13.2397 7.40717 13.6881 7.14829L15.3119 6.21079C15.7603 5.95191 16.3336 6.10554 16.5925 6.55394L17.0613 7.36584L13.8137 9.24084L13.3449 8.42894Z" fill="#F6931E"/>
<path d="M39.3051 36.1532C39.6712 36.5194 39.6712 37.113 39.3051 37.4791L37.9793 38.8049C37.6131 39.171 37.0195 39.171 36.6534 38.8049L35.9905 38.142L38.6422 35.4903L39.3051 36.1532Z" fill="#F6931E"/>
<path d="M9.69498 11.8465C9.32886 11.4803 9.32886 10.8867 9.69498 10.5206L11.0208 9.1948C11.3869 8.82869 11.9805 8.82869 12.3466 9.1948L13.0095 9.85772L10.3579 12.5094L9.69498 11.8465Z" fill="#F6931E"/>
<path d="M41.9461 31.9074C42.3945 32.1663 42.5481 32.7397 42.2892 33.1881L41.3517 34.8119C41.0928 35.2603 40.5195 35.4139 40.0711 35.155L39.2592 34.6863L41.1342 31.4387L41.9461 31.9074Z" fill="#F6931E"/>
<path d="M7.05386 16.0925C6.60546 15.8336 6.45183 15.2603 6.71072 14.8119L7.64822 13.1881C7.9071 12.7397 8.48047 12.586 8.92886 12.8449L9.74076 13.3137L7.86576 16.5613L7.05386 16.0925Z" fill="#F6931E"/>
<path d="M43.3982 27.1225C43.8983 27.2565 44.1951 27.7706 44.0611 28.2707L43.5759 30.0818C43.4418 30.582 42.9278 30.8788 42.4276 30.7448L41.5221 30.5021L42.4927 26.8799L43.3982 27.1225Z" fill="#F6931E"/>
<path d="M5.60172 20.8773C5.1016 20.7433 4.8048 20.2292 4.93881 19.7291L5.4241 17.918C5.5581 17.4178 6.07217 17.121 6.5723 17.2551L7.47785 17.4977L6.50728 21.1199L5.60172 20.8773Z" fill="#F6931E"/>
<path d="M43.5625 22.125C44.0803 22.125 44.5 22.5447 44.5 23.0625V24.9375C44.5 25.4553 44.0803 25.875 43.5625 25.875H42.625V22.125H43.5625Z" fill="#F6931E"/>
<path d="M5.4375 25.875C4.91973 25.875 4.5 25.4553 4.5 24.9375L4.5 23.0625C4.5 22.5447 4.91973 22.125 5.4375 22.125H6.375L6.375 25.875H5.4375Z" fill="#F6931E"/>
<path d="M42.4277 17.255C42.9278 17.121 43.4419 17.4178 43.5759 17.9179L44.0612 19.7291C44.1952 20.2292 43.8984 20.7432 43.3983 20.8773L42.4927 21.1199L41.5221 17.4977L42.4277 17.255Z" fill="#F6931E"/>
<path d="M6.57233 30.7447C6.07221 30.8787 5.55814 30.5819 5.42413 30.0818L4.93885 28.2707C4.80484 27.7706 5.10164 27.2565 5.60176 27.1225L6.50732 26.8799L7.47789 30.5021L6.57233 30.7447Z" fill="#F6931E"/>
<path d="M40.0711 12.8449C40.5195 12.586 41.0928 12.7397 41.3517 13.1881L42.2892 14.8119C42.5481 15.2603 42.3945 15.8336 41.9461 16.0925L41.1342 16.5613L39.2592 13.3137L40.0711 12.8449Z" fill="#F6931E"/>
<path d="M8.92886 35.155C8.48046 35.4139 7.9071 35.2603 7.64821 34.8119L6.71071 33.1881C6.45183 32.7397 6.60546 32.1663 7.05386 31.9074L7.86576 31.4387L9.74076 34.6863L8.92886 35.155Z" fill="#F6931E"/>
<path d="M36.6534 9.19508C37.0195 8.82896 37.6131 8.82896 37.9792 9.19508L39.3051 10.5209C39.6712 10.887 39.6712 11.4806 39.3051 11.8467L38.6421 12.5096L35.9905 9.85799L36.6534 9.19508Z" fill="#F6931E"/>
<path d="M12.3466 38.8052C11.9805 39.1713 11.3869 39.1713 11.0208 38.8052L9.69496 37.4794C9.32884 37.1132 9.32884 36.5196 9.69496 36.1535L10.3579 35.4906L13.0095 38.1423L12.3466 38.8052Z" fill="#F6931E"/>
<path d="M27.6226 5.10178C27.7566 4.60166 28.2707 4.30486 28.7708 4.43887L30.5819 4.92416C31.082 5.05816 31.3788 5.57223 31.2448 6.07235L31.0022 6.97791L27.38 6.00734L27.6226 5.10178Z" fill="#F6931E"/>
<path d="M21.3774 42.8983C21.2433 43.3984 20.7293 43.6952 20.2292 43.5612L18.418 43.0759C17.9179 42.9419 17.6211 42.4278 17.7551 41.9277L17.9978 41.0221L21.62 41.9927L21.3774 42.8983Z" fill="#F6931E"/>
<path d="M32.4074 6.55384C32.6663 6.10544 33.2397 5.95181 33.6881 6.21069L35.3119 7.14819C35.7603 7.40708 35.9139 7.98044 35.655 8.42884L35.1863 9.24074L31.9387 7.36574L32.4074 6.55384Z" fill="#F6931E"/>
<path d="M16.5925 41.4461C16.3336 41.8945 15.7603 42.0481 15.3119 41.7892L13.6881 40.8517C13.2397 40.5928 13.086 40.0195 13.3449 39.5711L13.8137 38.7592L17.0613 40.6342L16.5925 41.4461Z" fill="#F6931E"/>
<path d="M42.7604 23.9815C42.7604 34.1194 34.5807 42.3377 24.4905 42.3377C14.4002 42.3377 6.2205 34.1194 6.2205 23.9815C6.2205 13.8437 14.4002 5.62537 24.4905 5.62537C34.5807 5.62537 42.7604 13.8437 42.7604 23.9815Z" fill="#F6931E"/>
<mask id="path-3-inside-1_2_16350" fill="white">
<path fill-rule="evenodd" clip-rule="evenodd" d="M40.4375 23.9998C40.4375 32.8018 33.302 39.9373 24.5 39.9373C15.698 39.9373 8.5625 32.8018 8.5625 23.9998C8.5625 15.1977 15.698 8.06226 24.5 8.06226C33.302 8.06226 40.4375 15.1977 40.4375 23.9998ZM41.6875 23.9998C41.6875 33.4922 33.9924 41.1873 24.5 41.1873C15.0076 41.1873 7.3125 33.4922 7.3125 23.9998C7.3125 14.5074 15.0076 6.81226 24.5 6.81226C33.9924 6.81226 41.6875 14.5074 41.6875 23.9998ZM24.8361 16.1873C26.2168 16.1873 27.3361 15.068 27.3361 13.6873C27.3361 12.3065 26.2168 11.1873 24.8361 11.1873C23.4554 11.1873 22.3361 12.3065 22.3361 13.6873C22.3361 15.068 23.4554 16.1873 24.8361 16.1873ZM27.0236 17.1248L18.5861 21.8123V23.0623L23.5861 21.1873V26.1873C17.5861 27.4373 16.5027 31.2914 16.7111 33.0623C16.9194 34.8331 18.2943 37.5187 22.3361 37.1248C27.0236 36.6678 27.0236 31.1873 27.0236 31.1873V26.4998H27.3361L35.7736 20.5623L27.0236 24.0623V17.1248ZM23.3213 27.957C23.3213 27.957 23.4255 30.5612 23.0088 32.0195C22.5922 33.4779 20.6241 35.8848 18.9463 34.207C17.866 33.1267 18.5364 31.1588 20.1963 29.832C20.8044 29.346 21.5875 28.9235 22.2743 28.553C22.6736 28.3375 23.0403 28.1397 23.3213 27.957Z"/>
</mask>
<path fill-rule="evenodd" clip-rule="evenodd" d="M40.4375 23.9998C40.4375 32.8018 33.302 39.9373 24.5 39.9373C15.698 39.9373 8.5625 32.8018 8.5625 23.9998C8.5625 15.1977 15.698 8.06226 24.5 8.06226C33.302 8.06226 40.4375 15.1977 40.4375 23.9998ZM41.6875 23.9998C41.6875 33.4922 33.9924 41.1873 24.5 41.1873C15.0076 41.1873 7.3125 33.4922 7.3125 23.9998C7.3125 14.5074 15.0076 6.81226 24.5 6.81226C33.9924 6.81226 41.6875 14.5074 41.6875 23.9998ZM24.8361 16.1873C26.2168 16.1873 27.3361 15.068 27.3361 13.6873C27.3361 12.3065 26.2168 11.1873 24.8361 11.1873C23.4554 11.1873 22.3361 12.3065 22.3361 13.6873C22.3361 15.068 23.4554 16.1873 24.8361 16.1873ZM27.0236 17.1248L18.5861 21.8123V23.0623L23.5861 21.1873V26.1873C17.5861 27.4373 16.5027 31.2914 16.7111 33.0623C16.9194 34.8331 18.2943 37.5187 22.3361 37.1248C27.0236 36.6678 27.0236 31.1873 27.0236 31.1873V26.4998H27.3361L35.7736 20.5623L27.0236 24.0623V17.1248ZM23.3213 27.957C23.3213 27.957 23.4255 30.5612 23.0088 32.0195C22.5922 33.4779 20.6241 35.8848 18.9463 34.207C17.866 33.1267 18.5364 31.1588 20.1963 29.832C20.8044 29.346 21.5875 28.9235 22.2743 28.553C22.6736 28.3375 23.0403 28.1397 23.3213 27.957Z" fill="white"/>
<path d="M18.5861 21.8123L17.6148 20.0639L16.5861 20.6355V21.8123H18.5861ZM27.0236 17.1248H29.0236V13.7257L26.0523 15.3764L27.0236 17.1248ZM18.5861 23.0623H16.5861V25.9483L19.2883 24.9349L18.5861 23.0623ZM23.5861 21.1873H25.5861V18.3013L22.8838 19.3146L23.5861 21.1873ZM23.5861 26.1873L23.994 28.1452L25.5861 27.8135V26.1873H23.5861ZM16.7111 33.0623L14.7248 33.2959H14.7248L16.7111 33.0623ZM22.3361 37.1248L22.5301 39.1153H22.5301L22.3361 37.1248ZM27.0236 26.4998V24.4998H25.0236V26.4998H27.0236ZM27.3361 26.4998V28.4998H27.9692L28.4871 28.1354L27.3361 26.4998ZM35.7736 20.5623L36.9246 22.1979L35.0308 18.7053L35.7736 20.5623ZM27.0236 24.0623H25.0236V27.0163L27.7663 25.9192L27.0236 24.0623ZM23.0088 32.0195L24.9319 32.569L23.0088 32.0195ZM23.3213 27.957L25.3197 27.8771L25.1792 24.3641L22.2313 26.2801L23.3213 27.957ZM18.9463 34.207L20.3606 32.7928L18.9463 34.207ZM20.1963 29.832L18.9476 28.2697L18.9476 28.2697L20.1963 29.832ZM22.2743 28.553L23.2239 30.3131H23.2239L22.2743 28.553ZM24.5 41.9373C34.4066 41.9373 42.4375 33.9064 42.4375 23.9998H38.4375C38.4375 31.6972 32.1975 37.9373 24.5 37.9373V41.9373ZM6.5625 23.9998C6.5625 33.9064 14.5934 41.9373 24.5 41.9373V37.9373C16.8025 37.9373 10.5625 31.6972 10.5625 23.9998H6.5625ZM24.5 6.06226C14.5934 6.06226 6.5625 14.0931 6.5625 23.9998H10.5625C10.5625 16.3023 16.8025 10.0623 24.5 10.0623V6.06226ZM42.4375 23.9998C42.4375 14.0931 34.4066 6.06226 24.5 6.06226V10.0623C32.1975 10.0623 38.4375 16.3023 38.4375 23.9998H42.4375ZM24.5 43.1873C35.097 43.1873 43.6875 34.5967 43.6875 23.9998H39.6875C39.6875 32.3876 32.8878 39.1873 24.5 39.1873V43.1873ZM5.3125 23.9998C5.3125 34.5967 13.903 43.1873 24.5 43.1873V39.1873C16.1122 39.1873 9.3125 32.3876 9.3125 23.9998H5.3125ZM24.5 4.81226C13.903 4.81226 5.3125 13.4028 5.3125 23.9998H9.3125C9.3125 15.6119 16.1122 8.81226 24.5 8.81226V4.81226ZM43.6875 23.9998C43.6875 13.4028 35.097 4.81226 24.5 4.81226V8.81226C32.8878 8.81226 39.6875 15.6119 39.6875 23.9998H43.6875ZM25.3361 13.6873C25.3361 13.9634 25.1122 14.1873 24.8361 14.1873V18.1873C27.3214 18.1873 29.3361 16.1725 29.3361 13.6873H25.3361ZM24.8361 13.1873C25.1122 13.1873 25.3361 13.4111 25.3361 13.6873H29.3361C29.3361 11.202 27.3214 9.18726 24.8361 9.18726V13.1873ZM24.3361 13.6873C24.3361 13.4111 24.5599 13.1873 24.8361 13.1873V9.18726C22.3508 9.18726 20.3361 11.202 20.3361 13.6873H24.3361ZM24.8361 14.1873C24.5599 14.1873 24.3361 13.9634 24.3361 13.6873H20.3361C20.3361 16.1725 22.3508 18.1873 24.8361 18.1873V14.1873ZM19.5574 23.5606L27.9949 18.8731L26.0523 15.3764L17.6148 20.0639L19.5574 23.5606ZM20.5861 23.0623V21.8123H16.5861V23.0623H20.5861ZM22.8838 19.3146L17.8838 21.1896L19.2883 24.9349L24.2883 23.0599L22.8838 19.3146ZM25.5861 26.1873V21.1873H21.5861V26.1873H25.5861ZM18.6974 32.8286C18.6518 32.4412 18.7404 31.5463 19.4268 30.6209C20.0822 29.7373 21.39 28.6877 23.994 28.1452L23.1782 24.2293C19.7821 24.9368 17.5482 26.4393 16.2141 28.2379C14.9109 29.9949 14.562 31.9125 14.7248 33.2959L18.6974 32.8286ZM22.142 35.1342C20.6274 35.2818 19.8755 34.8524 19.4741 34.4654C19.0083 34.0163 18.7614 33.3725 18.6974 32.8286L14.7248 33.2959C14.8691 34.5228 15.4138 36.1072 16.698 37.3452C18.0466 38.6453 20.003 39.3617 22.5301 39.1153L22.142 35.1342ZM27.0236 31.1873C25.0236 31.1873 25.0236 31.1864 25.0236 31.1856C25.0236 31.1854 25.0236 31.1846 25.0236 31.1842C25.0236 31.1832 25.0236 31.1823 25.0236 31.1815C25.0236 31.1799 25.0236 31.1786 25.0236 31.1777C25.0236 31.1757 25.0236 31.175 25.0236 31.1754C25.0236 31.1764 25.0235 31.182 25.0232 31.1921C25.0227 31.2123 25.0213 31.2498 25.0181 31.3024C25.0117 31.4081 24.9981 31.571 24.9698 31.7723C24.912 32.1835 24.7989 32.7101 24.5875 33.2251C24.1812 34.2147 23.5153 35.0003 22.142 35.1342L22.5301 39.1153C25.8444 38.7923 27.5222 36.6091 28.2878 34.7442C28.6623 33.8319 28.8422 32.9599 28.9308 32.3292C28.9758 32.0096 28.9988 31.7407 29.0107 31.5449C29.0167 31.4467 29.0199 31.3661 29.0216 31.3058C29.0225 31.2756 29.023 31.2504 29.0232 31.2305C29.0234 31.2206 29.0235 31.212 29.0235 31.2048C29.0235 31.2012 29.0235 31.1979 29.0236 31.195C29.0236 31.1935 29.0236 31.1922 29.0236 31.1909C29.0236 31.1902 29.0236 31.1893 29.0236 31.189C29.0236 31.1881 29.0236 31.1873 27.0236 31.1873ZM25.0236 26.4998V31.1873H29.0236V26.4998H25.0236ZM27.3361 24.4998H27.0236V28.4998H27.3361V24.4998ZM34.6226 18.9266L26.1851 24.8641L28.4871 28.1354L36.9246 22.1979L34.6226 18.9266ZM27.7663 25.9192L36.5164 22.4192L35.0308 18.7053L26.2808 22.2053L27.7663 25.9192ZM25.0236 17.1248V24.0623H29.0236V17.1248H25.0236ZM24.9319 32.569C25.2134 31.5836 25.2938 30.3538 25.3203 29.5039C25.3345 29.0516 25.3344 28.6506 25.3309 28.3623C25.3292 28.2176 25.3265 28.1 25.3242 28.0168C25.3231 27.9752 25.322 27.9422 25.3212 27.9186C25.3208 27.9068 25.3205 27.8974 25.3202 27.8904C25.3201 27.8869 25.32 27.8841 25.3199 27.8818C25.3198 27.8807 25.3198 27.8798 25.3198 27.879C25.3198 27.8786 25.3198 27.8782 25.3197 27.8779C25.3197 27.8778 25.3197 27.8775 25.3197 27.8775C25.3197 27.8773 25.3197 27.8771 23.3213 27.957C21.3229 28.037 21.3229 28.0368 21.3229 28.0367C21.3229 28.0366 21.3229 28.0365 21.3229 28.0364C21.3229 28.0362 21.3229 28.0361 21.3229 28.036C21.3229 28.0359 21.3229 28.0359 21.3229 28.036C21.3229 28.0363 21.3229 28.0372 21.323 28.0387C21.3231 28.0417 21.3233 28.047 21.3235 28.0547C21.3241 28.07 21.3248 28.0943 21.3257 28.1267C21.3275 28.1917 21.3297 28.2889 21.3312 28.4111C21.3342 28.6567 21.3342 28.9979 21.3223 29.379C21.2968 30.1957 21.2209 30.9971 21.0858 31.4701L24.9319 32.569ZM17.5321 35.6212C18.2869 36.3761 19.2394 36.808 20.2888 36.7773C21.2686 36.7486 22.0799 36.3241 22.6625 35.8802C23.785 35.025 24.6142 33.6809 24.9319 32.569L21.0858 31.4701C21.0486 31.6003 20.947 31.8374 20.7694 32.1041C20.5936 32.3682 20.4007 32.5748 20.2384 32.6984C20.0672 32.8289 20.0459 32.7827 20.1718 32.779C20.3674 32.7733 20.4446 32.8769 20.3606 32.7928L17.5321 35.6212ZM18.9476 28.2697C17.8675 29.1331 17.0092 30.2785 16.6295 31.5324C16.2432 32.8085 16.3242 34.4133 17.5321 35.6212L20.3606 32.7928C20.4881 32.9204 20.3642 33.0011 20.4579 32.6915C20.5584 32.3596 20.8652 31.8577 21.445 31.3943L18.9476 28.2697ZM21.3246 26.7928C20.6756 27.143 19.7229 27.6501 18.9476 28.2697L21.445 31.3943C21.886 31.0419 22.4994 30.7041 23.2239 30.3131L21.3246 26.7928ZM22.2313 26.2801C22.0339 26.4085 21.7488 26.5639 21.3246 26.7928L23.2239 30.3131C23.5983 30.1111 24.0468 29.8708 24.4113 29.6339L22.2313 26.2801Z" fill="white" mask="url(#path-3-inside-1_2_16350)"/>
</svg>
