<svg width="48" height="48" viewBox="0 0 48 48" fill="none" xmlns="http://www.w3.org/2000/svg">
<g clip-path="url(#clip0_2_9999)">
<path d="M0 26.3653C0 24.8268 0 23.3076 0 21.7691C0.172869 20.673 0.134454 19.5576 0.384154 18.4807C1.57503 13.4038 4.16807 9.173 8.06723 5.76915C11.2557 2.98069 14.9436 1.15376 19.0924 0.326841C21.3589 -0.115466 23.6639 -0.0193126 25.9496 0.0576105C31.1357 0.230687 35.611 2.26915 39.491 5.55761C44.0048 9.38453 46.9436 14.2115 47.6735 20.1345C48.1345 23.8653 48.1729 27.6538 47.0012 31.3076C46.4058 33.1922 45.6567 35.0384 44.5618 36.6922C44.3313 37.0576 44.12 37.4999 43.5822 37.4999C43.1405 37.2691 43.0444 36.8076 42.8715 36.4038C42.1417 34.7884 41.431 33.1922 39.6639 32.423C39.0876 32.173 38.9724 31.5576 38.8764 30.9807C38.5306 28.8653 38.4922 26.7307 38.1273 24.6153C37.1092 18.7307 33.7479 14.923 28.0624 13.173C26.8715 12.8076 26.8523 12.7884 27.4286 11.6153C27.6975 11.0576 27.7551 10.4999 27.3325 9.99992C26.91 9.49992 26.3529 9.51915 25.7575 9.71146C24.7395 10.0576 24.6819 10.0191 24.3745 8.98069C24.2017 8.3653 23.9712 7.76915 23.5486 7.26915C22.934 6.51915 21.916 6.173 21.1669 6.49992C20.3217 6.8653 19.8607 7.55761 19.7839 8.49992C19.7071 9.59607 20.0912 10.5576 20.6291 11.4807C21.3205 12.6345 21.2437 12.7884 19.976 13.2115C15.9616 14.4999 12.8884 16.8845 11.1405 20.8268C10.1417 23.1153 9.81513 25.5384 9.66146 27.9999C9.60384 28.7307 9.46939 29.4615 9.43097 30.1922C9.35414 31.4615 8.87395 32.3653 7.66387 32.9999C6.31933 33.6922 5.89676 35.1922 5.28211 36.4807C5.05162 36.9615 5.01321 37.5576 4.39856 37.7691C3.87995 37.7499 3.64946 37.3461 3.41897 36.9615C1.4982 33.7884 0.0768307 30.4422 0.0960384 26.6345C0.0960384 26.5192 0.0576231 26.4422 0 26.3653Z" fill="#FEDA10"/>
<path d="M26.9484 48C25.0277 48 23.1261 48 21.2053 48C18.7467 47.8462 16.3842 47.2885 14.1561 46.2692C11.928 45.25 9.85358 43.9615 7.99044 42.3462C7.6447 42.0577 7.33737 41.7308 7.27975 41.25C7.26054 39.6154 7.56787 38.0192 8.04806 36.4615C9.1621 32.7885 9.62309 29 10.0457 25.1923C10.4106 21.9038 11.6591 18.9615 14.1369 16.6731C20.9172 10.3462 31.4046 11.9615 36.0144 19.0192C37.4742 21.25 38.1273 23.7885 38.3386 26.4231C38.5883 29.6154 39.0685 32.75 40.0096 35.8077C40.5283 37.4423 40.8548 39.1538 40.874 40.8846C40.8164 41.4808 40.3938 41.8462 39.9904 42.1923C36.3026 45.4423 32.1153 47.5769 27.1213 47.9423C27.0637 47.9231 27.006 47.9615 26.9484 48Z" fill="#FED800"/>
<path d="M4.89805 38.4615C4.68677 38.25 4.43707 38.0576 4.39865 37.7307C4.91726 36.6346 5.39745 35.5384 5.95447 34.4615C6.47308 33.4423 7.18377 32.5961 8.35543 32.2692C8.778 32.1538 8.85483 31.8653 8.93166 31.5C9.29661 29.8461 9.39265 28.1538 9.5271 26.4807C10.0649 19.5769 13.7528 14.6153 20.4947 12.8269C20.9941 12.6923 21.0325 12.5577 20.7252 12.1346C19.8993 11.0384 19.3614 9.82688 19.5151 8.40381C19.6303 7.32688 20.1105 6.51919 21.1862 6.17304C22.1466 5.86534 23.1646 6.24996 23.8944 7.15381C24.5091 7.92304 24.7588 8.84611 24.874 9.80765C26.4107 9.11534 27.1598 9.13457 27.6976 9.84611C28.2354 10.5384 28.0625 11.4615 27.2174 12.5192C27.2558 12.7692 27.4863 12.75 27.6592 12.7884C34.0937 14.4423 38.0889 19.1923 38.7036 25.8653C38.8764 27.673 39.1069 29.4807 39.299 31.2884C39.3566 31.8269 39.5679 32.2115 40.1634 32.4038C41.4503 32.8269 42.0649 33.923 42.6412 35.0576C43.0445 35.8461 43.3903 36.673 43.7552 37.4807C43.6592 37.75 43.5247 37.9807 43.275 38.1346C42.7756 38.0769 42.7564 37.6153 42.6219 37.2884C42.1802 36.3076 41.7384 35.3076 41.1237 34.423C40.9125 34.1153 40.6628 33.8269 40.221 33.5961C40.4707 34.9423 40.9317 36.1346 41.1622 37.3846C41.3542 38.3653 41.7192 39.3461 41.4119 40.3846C41.2582 40.6538 41.0853 40.923 40.7972 41.0769C40.4131 37.1538 38.7996 33.5 38.377 29.5961C38.1466 27.4038 38.0313 25.2115 37.4935 23.0769C35.3806 14.7115 25.5271 10.6538 17.7096 14.6346C13.6375 16.6153 11.0829 19.8846 10.5451 24.2884C9.93046 29.2884 8.98929 34.2115 7.79841 39.1153C7.62554 39.8461 7.58713 40.6346 7.49109 41.3846C7.22218 41.2307 6.99169 41.0384 6.87644 40.7692C6.62674 40.3653 6.66516 39.923 6.74199 39.4807C7.0109 37.8269 7.39505 36.173 7.85603 34.5576C7.93287 34.2692 8.12494 33.9807 8.0097 33.5769C7.2606 34.1153 6.83803 34.8461 6.45387 35.6153C6.10813 36.2884 5.85844 37.0192 5.5319 37.7115C5.35904 37.9807 5.2822 38.3461 4.89805 38.4615Z" fill="#390513"/>
<path d="M20.2643 19.6729C20.3219 19.6345 20.3603 19.596 20.4179 19.5575C21.2439 20.596 22.2619 19.9229 23.1454 19.7691C24.0866 19.6152 24.951 19.596 25.8345 19.8652C26.5644 20.096 27.2559 20.2114 27.8321 19.4998C27.9282 19.3845 28.0626 19.4229 28.1202 19.5575C28.1779 19.9422 27.9282 20.2114 27.7553 20.4998C26.987 21.7498 27.0638 22.7498 28.005 23.8845C28.1971 24.096 28.4083 24.2883 28.4083 24.6152C28.3891 24.7691 28.3123 24.8845 28.1779 24.9614C27.3519 25.4806 27.2943 25.6922 27.8513 26.4422C28.2547 26.9998 28.8309 27.346 29.3879 27.7114C30.7709 28.6537 30.9438 29.5768 29.9834 30.9229C27.1983 34.8652 21.2247 34.8652 18.4588 30.9229C17.6136 29.7306 17.6905 28.8268 18.7277 27.7691C18.9005 27.596 19.1118 27.4229 19.3039 27.2691C20.5716 26.1922 20.7253 25.6729 20.1106 24.2306C20.1298 24.0383 20.2259 23.8652 20.3411 23.7114C21.1286 22.6152 21.1478 21.4806 20.4756 20.3268C20.3411 20.1537 20.1298 19.9614 20.2643 19.6729Z" fill="#FED800"/>
<path d="M20.2834 24.2884C21.1286 25.0961 20.8597 26.5384 19.6496 27.423C19.0541 27.8654 18.5163 28.3077 18.2474 29.0384C18.0745 29.5192 18.1322 29.8846 18.3819 30.2884C20.9557 34.6153 27.2942 34.7115 30.0025 30.4423C30.598 29.5 30.3675 28.6346 29.3879 28.0384C28.5427 27.5192 27.6592 27.0384 27.3134 26.0384C27.0637 25.3654 27.4287 24.8461 28.1394 24.8269C27.9281 25.8269 28.4851 26.3269 29.2918 26.7115C29.676 26.8846 30.1562 26.923 30.4251 27.3269C30.4443 27.5192 30.5211 27.673 30.6748 27.8269C31.3855 28.4807 31.4623 29.2692 31.0397 30.1346C29.4071 33.5192 26.5451 34.75 23.0493 34.3461C20.341 34.0384 18.2858 32.5 17.2486 29.8461C16.8837 28.8846 17.4215 28.0769 17.9785 27.3269C18.1322 26.9807 18.4779 26.8846 18.7852 26.7115C19.8609 26.0961 19.9953 25.8077 19.784 24.5961C19.8609 24.3654 19.9569 24.1346 20.2834 24.2884Z" fill="#FED800"/>
<path d="M19.88 24.5961C20.4371 25.3461 20.341 26.0192 19.5151 26.5961C19.0541 26.923 18.5355 27.1922 17.9785 27.3269C17.2486 27.3846 16.5379 27.4999 15.808 27.4999C14.886 27.4999 14.1177 27.0961 13.7336 26.2499C13.3302 25.4038 13.7528 24.6922 14.2522 23.9807C14.6363 23.423 15.0973 23.8076 15.4815 23.673C16.0577 23.923 16.0577 23.9999 15.4815 24.4615C15.2318 24.5384 15.0013 24.6153 14.9052 24.8845C14.8092 25.4422 15.0781 25.7884 15.5391 26.0384C16.7876 26.6922 18.6315 26.0384 19.1886 24.7692C19.3998 24.5769 19.5919 24.4422 19.88 24.5961Z" fill="#FEBF01"/>
<path d="M30.4057 27.3269C29.503 27.2115 28.677 26.9038 28.0624 26.2115C27.6398 25.75 27.5438 25.2692 28.12 24.8461C28.1776 24.7692 28.2545 24.6923 28.3121 24.6153C28.5234 24.5192 28.677 24.5769 28.7923 24.7692C29.138 26.0577 31.5198 26.7692 32.5378 25.9038C32.8643 25.6346 32.7875 25.2884 32.8259 24.9423C32.8835 24.7115 33.114 24.6346 33.2677 24.4807C34.5162 24.9423 34.7275 25.4807 33.9784 26.5C33.3253 27.3846 32.4033 27.6153 31.3661 27.4807C31.0204 27.4423 30.7131 27.3846 30.4057 27.3269Z" fill="#FDBD01"/>
<path d="M33.2293 24.4615C33.5558 25.0384 32.9988 24.6922 32.8836 24.7884C32.6915 24.8461 32.5186 24.8653 32.3266 24.8076C31.443 24.6346 30.5786 24.7499 29.7143 25.0192C29.3494 25.0961 28.946 25.2884 28.6579 24.8461C28.5426 24.7499 28.4082 24.673 28.2929 24.5769C26.5258 22.8076 26.4874 21.4807 28.1201 19.5384C30.521 17.9038 32.9604 19.5769 33.1909 21.6346C33.2869 22.4999 33.2101 23.3461 32.3266 23.8461C32.2497 23.7884 32.2113 23.6922 32.1921 23.5961C32.2689 22.8846 32.4802 22.173 32.365 21.423C32.2113 20.423 31.3662 19.6538 30.2521 19.5576C29.2149 19.4615 28.2353 20.0961 27.8704 21.0961C27.5054 22.1346 27.8512 23.2499 28.6771 23.8076C29.1957 24.1538 29.7335 23.8653 30.2521 23.923C30.9628 23.9999 31.6927 23.7307 32.3458 24.173C32.6723 24.2115 32.9604 24.3269 33.2293 24.4615Z" fill="#653A1F"/>
<path d="M30.5594 17.9229C29.6374 17.4998 28.7154 17.6921 27.7743 18.2883C27.3325 18.5768 27.198 18.1729 27.2941 17.8268C27.5822 16.9229 28.3505 16.5768 29.1764 16.4421C29.9831 16.3075 30.7707 16.3845 31.3469 17.0575C31.4813 17.2114 31.5006 17.4037 31.3661 17.5768C31.2509 17.8652 31.0012 17.9614 30.5594 17.9229Z" fill="#481500"/>
<path d="M18.3819 16.3845C19.4959 16.4037 20.2834 16.7114 20.8404 17.5191C20.9749 17.7306 21.0901 17.9998 20.8981 18.2306C20.6676 18.5191 20.4371 18.2883 20.2258 18.1537C19.5151 17.6921 18.7852 17.4998 17.9593 17.7883C17.4791 17.9614 16.9413 18.0768 16.7876 17.4229C16.6532 16.8845 17.1718 16.6729 17.5943 16.5191C17.9017 16.4229 18.2282 16.4037 18.3819 16.3845Z" fill="#491500"/>
<path d="M19.8799 24.5961C19.6878 24.6922 19.5149 24.7691 19.3229 24.8653C19.15 24.9999 18.9579 25.0384 18.7466 25.0191C18.3625 24.9037 17.9399 24.8461 17.7286 24.4422C17.7478 24.1922 17.9015 24.1153 18.1128 24.0384C19.7454 24.0384 20.4753 23.4422 20.5329 22.1153C20.5906 20.7307 19.5533 19.673 18.0551 19.5961C17.767 19.5768 17.4789 19.5961 17.21 19.4614C17.0756 19.3845 16.9795 19.2884 17.0179 19.1153C18.228 18.5768 19.2844 18.9422 20.2832 19.673C21.6086 21.3653 21.6086 22.6153 20.2832 24.2884C20.1488 24.3845 20.0143 24.4999 19.8799 24.5961Z" fill="#64371A"/>
<path d="M18.228 24.2306C18.0743 24.2883 17.9206 24.346 17.767 24.4037C17.0947 25.0576 16.2304 24.8268 15.4428 24.8268C15.1355 24.8268 14.8858 24.5768 15.3084 24.2883C15.7694 24.2114 15.923 24.0383 15.4813 23.673C14.4633 22.1345 15.1931 19.6537 16.9987 19.1153C17.0947 19.1922 17.1715 19.2691 17.2676 19.3268C17.2099 19.7691 16.8258 19.923 16.5569 20.173C15.9038 20.7883 15.6925 21.5576 15.827 22.423C15.9614 23.2691 16.4032 23.673 17.2676 23.7883C17.6325 23.8268 18.0743 23.7114 18.228 24.2306Z" fill="#6D4226"/>
<path d="M32.3459 24.2306C31.5776 24.2499 30.7901 24.2499 30.0218 24.2691C29.9642 23.9614 30.1947 23.846 30.3867 23.846C31.0398 23.846 31.6544 23.5576 32.3075 23.6729C32.3075 23.7499 32.3075 23.8075 32.3267 23.8845C32.3267 23.9999 32.3267 24.1152 32.3459 24.2306Z" fill="#59362B"/>
<path d="M41.3349 40.346C40.9508 37.8652 40.3169 35.4614 39.5678 32.8268C41.892 34.0383 42.2569 36.2691 43.1789 38.096C42.7179 38.9614 42.084 39.6922 41.3349 40.346Z" fill="#FCCA01"/>
<path d="M4.89795 38.4614C5.47418 37.0768 5.95437 35.6537 6.7803 34.3845C7.20287 33.7499 7.70227 33.2114 8.62424 32.8653C7.87514 35.5768 7.10683 38.1153 6.85713 40.7499C6.06962 40.096 5.43576 39.3268 4.89795 38.4614Z" fill="#FCCF01"/>
<path d="M23.9521 11.8269C23.7216 12.3846 22.2426 12.7307 21.724 12.3653C20.6868 11.6153 19.9377 9.42303 20.2642 8.17302C20.9749 7.46149 21.7048 7.36533 22.5307 7.92302C23.4911 8.55764 24.0289 9.44226 24.0097 10.6153C23.9713 10.9999 24.0481 11.423 23.9521 11.8269Z" fill="#FD3F00"/>
<path d="M23.952 11.8269C23.8943 10.8846 23.952 9.9423 23.3373 9.11537C22.4154 7.88461 21.7623 7.65384 20.2641 8.17307C20.3793 6.71153 22.2041 6.38461 23.0684 7.30768C24.3169 8.61537 24.2593 10.1923 23.952 11.8269Z" fill="#EF0700"/>
<path d="M26.9676 11.5961C26.6219 12.1154 26.084 12.2884 25.527 12.3846C24.6627 12.5384 24.5282 12.3269 24.8163 11.423C25.7383 10.4615 26.5642 10.5192 26.9676 11.5961Z" fill="#F84000"/>
<path d="M26.9677 11.596C26.3147 10.7114 25.5848 10.9998 24.8357 11.4229C24.8933 10.9614 25.1814 10.6152 25.508 10.3268C25.9497 9.94214 26.4491 9.7306 26.9485 10.1537C27.4671 10.5768 27.4671 11.096 26.9677 11.596Z" fill="#EA0900"/>
<path d="M22.5692 25.7884C22.4347 25.3461 22.3387 24.8845 22.1466 24.4807C21.9545 24.0384 22.1658 23.923 22.5307 23.8461C22.646 23.7691 22.7612 23.8268 22.8573 23.8845C23.7216 23.8461 24.5668 23.9807 25.4119 23.7884C25.5079 23.7691 25.5848 23.7884 25.6616 23.8268C25.8729 23.9999 26.257 24.0384 26.0265 24.5191C25.8345 24.9037 25.7768 25.3653 25.6424 25.7884C25.4887 26.3076 25.2198 26.7691 25.0854 27.2691C24.4707 28.3845 24.0866 28.4614 23.3183 27.673C23.107 27.0576 22.7804 26.4422 22.5692 25.7884Z" fill="#491400"/>
<path d="M22.569 25.7884C22.9916 26.3076 23.4142 26.8269 23.5102 27.5192C23.4526 27.9807 23.7407 28.2884 24.1249 28.2307C24.6243 28.1345 24.97 27.7692 24.8932 27.173C24.8932 26.5576 25.3926 26.2499 25.6807 25.8076C25.6615 26.6345 25.4886 27.4422 25.1044 28.173C24.9124 28.5576 24.6243 28.8461 24.1633 28.8653C23.6639 28.8845 23.3373 28.5961 23.1261 28.173C22.7419 27.423 22.569 26.6153 22.569 25.7884Z" fill="#6F3203"/>
<path d="M25.6616 23.8462C25.5464 23.8654 25.4503 23.8846 25.3351 23.9038C25.1814 24 25.0278 24 24.8933 23.9038C24.3171 23.5385 23.7793 23.5769 23.2414 23.9808C23.107 24.0769 22.9149 24.1923 22.742 24.0192C22.6652 23.9615 22.5884 23.9038 22.5308 23.8462C23.8561 22.5 24.3939 22.5 25.6616 23.8462Z" fill="#693405"/>
<path d="M18.7659 24.8269C18.9579 24.8461 19.1308 24.8653 19.3229 24.8846C19.4573 25.673 19.0348 26.0769 18.3433 26.2692C17.3253 26.5576 16.3073 26.8269 15.2893 26.2692C14.617 25.9038 14.2905 25.4038 14.6938 24.6346C15.0396 24.673 15.3661 24.7115 15.6542 24.923C16.653 25.6538 17.1332 25.673 18.1704 24.9999C18.3625 24.9038 18.5162 24.7115 18.7659 24.8269Z" fill="#FDA100"/>
<path d="M18.7658 24.8268C18.2664 25.5191 17.6518 25.8845 16.7682 25.8268C16.2112 25.7883 15.6734 25.7883 15.4813 25.1345C15.3661 24.7499 14.8859 24.9614 14.713 24.6537C14.8475 24.4229 15.0203 24.2691 15.3277 24.2883C15.1164 24.6922 15.4045 24.6537 15.6158 24.596C16.3265 24.3845 17.0564 24.4422 17.7862 24.4037C18.1128 24.5383 18.4393 24.6729 18.7658 24.8268Z" fill="#FDA100"/>
<path d="M28.6577 24.8652C28.9842 25.0383 29.2723 24.7883 29.5797 24.8075C29.887 24.6921 30.0214 24.9614 30.1943 25.096C30.4632 25.2883 30.7513 25.3844 31.0586 25.3652C31.4812 25.346 31.4236 25.0383 31.5388 24.7498C31.6925 24.3267 32.1535 24.5383 32.4992 24.6344C32.6337 24.6921 32.7489 24.7306 32.8834 24.7883C33.3252 25.6152 33.2099 25.9998 32.3648 26.3075C31.1547 26.769 30.0022 26.5575 28.9458 25.8267C28.6001 25.596 28.4272 25.2883 28.6577 24.8652Z" fill="#FDA100"/>
<path d="M32.3075 23.673C31.9425 24.0577 31.5007 24.0961 31.0205 24.0769C30.694 24.0576 30.3291 24 30.041 24.2692C28.6004 24.5769 27.6784 23.9038 27.4287 22.4038C27.1982 20.923 28.3507 19.423 29.8297 19.3076C30.9053 19.2307 31.7889 19.6538 32.3651 20.5192C33.0181 21.5384 32.8837 22.6153 32.3075 23.673Z" fill="#FAFAFA"/>
<path d="M32.5185 24.6346C32.2688 24.6539 32.0191 24.6539 31.731 24.6731C32.2112 25.0962 32.2112 25.3846 31.6158 25.6154C30.8283 25.9039 30.156 25.6539 29.599 24.8077C30.5401 24.2885 31.5197 24.3077 32.5185 24.6346Z" fill="#FDA100"/>
<path d="M18.2282 24.2307C18.0169 24.0384 17.748 24.0576 17.4983 24.0576C16.7684 24.0384 16.0577 24.0769 15.712 23.1923C15.3663 22.3076 15.3663 21.4807 15.7888 20.6346C16.1154 19.9999 16.7108 19.6923 17.287 19.3461C19.7456 18.8269 21.1478 20.8461 20.8212 22.4807C20.6484 23.3653 20.1298 23.9615 19.3999 24.4038C18.9389 24.673 18.6316 24.1346 18.2282 24.2307Z" fill="#F9F8F9"/>
<path d="M22.742 24.0192C23.5679 23.1923 24.4323 23.0192 25.335 23.9038C25.4695 24.0769 25.5463 24.3076 25.2198 24.2499C24.4323 24.1153 23.664 24.1538 22.8765 24.2884C22.7612 24.3076 22.6844 24.173 22.742 24.0192Z" fill="#F98E00"/>
<path d="M24.144 26.1152C24.4513 25.9999 24.7778 25.9614 24.7586 26.3845C24.7394 26.7691 24.5089 27.1537 24.0864 27.1345C23.7214 27.1152 23.4525 26.7691 23.4333 26.4422C23.3949 25.8075 23.8751 26.1152 24.144 26.1152Z" fill="#E02B1B"/>
<path d="M24.8738 27.173C25.1043 27.8461 24.7778 28.2884 24.2016 28.4423C23.6253 28.5961 23.3756 28.0577 23.222 27.6346C23.1259 27.3461 23.3756 27.5 23.4909 27.5384C24.1439 28.25 24.3168 28.2115 24.8738 27.173Z" fill="#D37300"/>
<path d="M31.0781 21.7499C31.347 21.6922 31.5775 21.3076 31.8272 21.4999C32.1153 21.6922 31.9809 22.0961 31.9425 22.3845C31.7696 23.3653 30.7132 24.0384 29.7144 23.8268C28.6579 23.6153 28.1201 22.6538 28.4082 21.5576C28.5427 21.4807 28.6772 21.4999 28.7348 21.6153C29.0805 22.2499 29.5799 22.1345 30.0793 21.8653C30.4058 21.673 30.7324 21.5961 31.0781 21.7499Z" fill="#323234"/>
<path d="M31.078 21.75C30.7515 21.7692 30.521 22 30.2521 22.1346C29.2341 22.6923 29.0228 22.6346 28.4274 21.5385C28.9268 20.3269 29.503 20.0192 30.8667 20.3269C30.425 20.8846 30.3673 21.4038 31.078 21.75Z" fill="#37363A"/>
<path d="M18.9002 20.2308C18.7081 20.7115 18.3431 21.0192 18.7081 21.4038C18.9578 21.6731 19.2267 21.6731 19.5532 21.5C20.0334 21.25 19.9758 21.6731 19.995 21.9423C20.0526 22.8846 19.1114 23.8846 18.1703 23.9038C17.2675 23.9231 16.3648 23.0577 16.3263 22.0769C16.2879 21.1154 17.0178 20.25 17.959 20.1731C18.2471 20.1538 18.5352 20.2115 18.9002 20.2308Z" fill="#363539"/>
</g>
<defs>
<clipPath id="clip0_2_9999">
<rect width="48" height="48" fill="white"/>
</clipPath>
</defs>
</svg>
