<svg width="48" height="48" viewBox="0 0 48 48" fill="none" xmlns="http://www.w3.org/2000/svg">
<g clip-path="url(#clip0_2_16379)">
<path d="M47.9969 23.3278C47.9969 23.7758 47.9969 24.2238 47.9969 24.6719C47.9901 24.7187 47.98 24.7653 47.9774 24.8123C47.9596 25.1276 47.9472 25.4434 47.9263 25.7586C47.8451 26.9812 47.6636 28.1897 47.3863 29.3825C46.4417 33.4459 44.5662 37.0254 41.7697 40.1184C39.8135 42.282 37.5313 44.0276 34.9365 45.3614C32.8766 46.4203 30.7072 47.1613 28.431 47.5872C27.4204 47.7764 26.4019 47.9029 25.3745 47.9551C25.1315 47.9673 24.8885 47.9851 24.6455 48.0002C24.2135 48.0002 23.7816 48.0002 23.3496 48.0002C23.2944 47.9935 23.2394 47.9824 23.184 47.9807C21.8343 47.9411 20.4984 47.7822 19.1763 47.5118C16.8559 47.0374 14.652 46.2383 12.5724 45.1045C9.40182 43.3762 6.7388 41.0604 4.61481 38.1395C1.66606 34.0836 0.139699 29.5386 0.00764011 24.5276C-0.0334182 22.9688 0.0892765 21.4204 0.355075 19.883C0.767579 17.4958 1.51791 15.2198 2.63345 13.0706C4.95744 8.59313 8.34391 5.15552 12.7955 2.7799C15.9248 1.10996 19.2721 0.213639 22.8116 0.0309179C24.2407 -0.043035 25.6659 0.0167516 27.0847 0.198753C28.59 0.391799 30.0661 0.720025 31.5056 1.20216C36.0967 2.7398 39.8949 5.41243 42.891 9.21261C44.9801 11.8624 46.4318 14.8333 47.2621 18.1054C47.6377 19.5852 47.8682 21.0876 47.951 22.6122C47.964 22.8507 47.9815 23.0891 47.9969 23.3278ZM9.95239 10.9476C10.005 14.3941 11.6999 19.3682 16.6881 22.3738C21.2333 25.1125 27.0881 25.0145 31.5839 21.9536C33.8435 20.4153 35.5115 18.3828 36.5853 15.8686C37.2554 14.2995 37.6105 12.6584 37.6694 10.9503C36.0743 10.9503 34.4935 10.9503 32.9066 10.9503C32.8444 12.0584 32.5971 13.1143 32.1541 14.123C31.7092 15.1365 31.0988 16.0393 30.3257 16.8312C29.5554 17.6202 28.6709 18.2497 27.673 18.7194C26.6718 19.1905 25.6186 19.4719 24.5161 19.5516C22.4639 19.6998 20.5538 19.2411 18.8392 18.0999C16.2895 16.4028 14.9397 13.9891 14.6899 10.9476C13.1091 10.9476 11.5306 10.9476 9.95239 10.9476ZM10.6581 26.5469C10.6581 28.0355 10.6581 29.517 10.6581 31.0037C19.4258 31.0037 28.1868 31.0037 36.9534 31.0037C36.9534 29.5158 36.9534 28.0341 36.9534 26.5469C28.1883 26.5469 19.4301 26.5469 10.6581 26.5469ZM20.587 14.2095C20.587 15.9824 22.0271 17.4262 23.7955 17.4264C25.5848 17.4267 27.0226 15.9925 27.024 14.2056C27.0257 12.4293 25.5826 10.988 23.8034 10.9889C22.0247 10.9899 20.587 12.4293 20.587 14.2095ZM23.8044 39.6025C25.5922 39.5993 27.0257 38.1616 27.0242 36.373C27.0226 34.5979 25.5773 33.1623 23.7948 33.1652C22.0187 33.1681 20.5855 34.6109 20.5872 36.3946C20.5886 38.1635 22.035 39.6056 23.8044 39.6025Z" fill="#B61106"/>
<path d="M9.95239 10.9476C11.5309 10.9476 13.1091 10.9476 14.6902 10.9476C14.9399 13.9888 16.29 16.4026 18.8395 18.0999C20.5541 19.2411 22.4641 19.7 24.5163 19.5516C25.6189 19.4719 26.672 19.1905 27.6732 18.7194C28.6714 18.2497 29.5557 17.6202 30.3259 16.8312C31.0991 16.0393 31.7094 15.1365 32.1544 14.123C32.5971 13.1143 32.8447 12.0586 32.9068 10.9503C34.4937 10.9503 36.0746 10.9503 37.6696 10.9503C37.6105 12.6584 37.2557 14.2993 36.5855 15.8686C35.5118 18.3827 33.8437 20.4152 31.5841 21.9536C27.0881 25.0145 21.2333 25.1124 16.6883 22.3738C11.6999 19.3681 10.005 14.3941 9.95239 10.9476Z" fill="white"/>
<path d="M10.6581 26.5469C19.4301 26.5469 28.1885 26.5469 36.9534 26.5469C36.9534 28.0343 36.9534 29.5157 36.9534 31.0036C28.1868 31.0036 19.4258 31.0036 10.6581 31.0036C10.6581 29.5169 10.6581 28.0355 10.6581 26.5469Z" fill="white"/>
<path d="M20.5869 14.2094C20.5869 12.4293 22.0244 10.9899 23.8034 10.9889C25.5825 10.9879 27.0256 12.4293 27.0239 14.2056C27.0222 15.9922 25.5847 17.4264 23.7954 17.4264C22.0271 17.4259 20.5872 15.9821 20.5869 14.2094Z" fill="white"/>
<path d="M23.8044 39.6023C22.035 39.6055 20.5886 38.1634 20.5872 36.3943C20.5855 34.6108 22.0187 33.1678 23.7948 33.1649C25.5773 33.162 27.0225 34.5976 27.0242 36.3727C27.0257 38.1612 25.5922 39.5992 23.8044 39.6023Z" fill="white"/>
</g>
<defs>
<clipPath id="clip0_2_16379">
<rect width="47.9969" height="48" fill="white"/>
</clipPath>
</defs>
</svg>
