<svg width="48" height="48" viewBox="0 0 48 48" fill="none" xmlns="http://www.w3.org/2000/svg">
<g clip-path="url(#clip0_2_5810)">
<path d="M22.0554 0C22.2228 0 22.3803 0 22.5477 0C22.7446 0.0787693 22.9416 0.0787693 23.1385 0C23.7292 0 24.32 0 24.9009 0C25.0979 0.0787693 25.2948 0.0787693 25.4917 0C25.6591 0 25.8166 0 25.984 0C26.6831 0.108308 27.3822 0.0984616 28.0813 0.157539C29.7551 0.295385 31.3305 0.827077 32.8763 1.42769C35.1016 2.28431 37.1397 3.47569 39.0105 4.96246C41.5409 6.97108 43.5791 9.37354 45.1643 12.1895C46.2573 14.1391 47.0351 16.2166 47.5766 18.3828C47.8523 19.4659 47.8326 20.5785 47.9311 21.6714C47.9409 21.7797 47.8917 21.8979 47.9803 21.9963C47.9803 22.1637 47.9803 22.3212 47.9803 22.4886C47.9016 22.6856 47.9016 22.8825 47.9803 23.0794C47.9803 23.6702 47.9803 24.2609 47.9803 24.8517C47.9016 25.0486 47.9016 25.2456 47.9803 25.4425C47.9803 25.6394 47.9803 25.8363 47.9803 26.0332C47.8523 26.6831 47.872 27.3329 47.8129 27.9926C47.6357 29.9717 46.9859 31.8129 46.2179 33.6246C45.1742 36.0862 43.7169 38.2819 41.9151 40.2609C38.3508 44.1699 33.9594 46.6314 28.7902 47.7145C28.0714 47.8622 27.3428 47.8819 26.624 47.9213C24.3692 48.0394 22.1145 48.0493 19.8794 47.7933C17.9988 47.5766 16.2166 46.9662 14.4739 46.2179C11.9828 45.1545 9.75756 43.6973 7.74894 41.8757C3.82033 38.2917 1.35879 33.8905 0.285559 28.7016C0.137867 27.9926 0.118174 27.264 0.0787897 26.5354C-0.0393642 24.32 -0.0492103 22.0948 0.196944 19.8794C0.413559 17.9495 1.04371 16.1182 1.81171 14.336C2.8751 11.8646 4.33233 9.64924 6.14402 7.66031C9.61971 3.85969 13.8831 1.42769 18.8948 0.305231C19.84 0.0984616 20.8148 0.118154 21.7797 0.0492308C21.8782 0.0393846 21.9766 0.0787693 22.0554 0Z" fill="#FE4244"/>
<path d="M23.1385 0C22.9416 0.137846 22.7447 0.137846 22.5477 0C22.7447 0 22.9416 0 23.1385 0Z" fill="#FE7073"/>
<path d="M25.4917 0C25.2947 0.137846 25.0978 0.137846 24.9009 0C25.1077 0 25.2947 0 25.4917 0Z" fill="#FE7073"/>
<path d="M47.9803 23.0794C47.8425 22.8824 47.8523 22.6855 47.9803 22.4886C47.9803 22.6855 47.9803 22.8824 47.9803 23.0794Z" fill="#FE7073"/>
<path d="M47.9803 25.4425C47.8523 25.2455 47.8425 25.0486 47.9803 24.8517C47.9803 25.0486 47.9803 25.2455 47.9803 25.4425Z" fill="#FE7073"/>
<path d="M36.9231 10.1711C36.1846 11.1558 35.456 12.1207 34.7372 13.0856C32.0886 16.6007 29.44 20.1158 26.7815 23.621C26.5452 23.9361 26.6338 24.1133 26.8209 24.3693C30.1292 28.741 33.4178 33.1225 36.7163 37.4942C36.7754 37.573 36.8344 37.6518 36.8837 37.7207C36.8049 37.8684 36.6769 37.8093 36.5784 37.8093C34.7963 37.8093 33.0141 37.8093 31.232 37.8191C30.976 37.8191 30.8184 37.7502 30.6609 37.5434C27.2837 33.1028 23.8966 28.6721 20.4997 24.2511C20.3224 24.0247 20.3421 23.8868 20.5095 23.6702C23.8966 19.2591 27.2738 14.8382 30.651 10.4173C30.779 10.2499 30.8972 10.1121 31.1631 10.1121C33.024 10.1219 34.8947 10.1219 36.7557 10.1219C36.7852 10.1219 36.8246 10.1416 36.9231 10.1711Z" fill="#FEFEFE"/>
<path d="M12.8492 23.9754C12.8492 19.5249 12.859 15.0745 12.8394 10.624C12.8394 10.2105 12.9477 10.1021 13.3514 10.112C14.6412 10.1415 15.931 10.1317 17.2307 10.112C17.5852 10.1021 17.7034 10.1809 17.7034 10.5649C17.6935 19.4954 17.6935 28.4357 17.7034 37.3661C17.7034 37.7305 17.6049 37.8289 17.2406 37.8289C15.931 37.8092 14.6215 37.7994 13.312 37.8289C12.8984 37.8388 12.8394 37.6911 12.8394 37.3268C12.8492 32.8763 12.8492 28.4258 12.8492 23.9754Z" fill="#FEFEFE"/>
</g>
<defs>
<clipPath id="clip0_2_5810">
<rect width="47.9803" height="48" fill="white"/>
</clipPath>
</defs>
</svg>
