<svg width="48" height="48" viewBox="0 0 48 48" fill="none" xmlns="http://www.w3.org/2000/svg">
<mask id="mask0_2_16676" style="mask-type:alpha" maskUnits="userSpaceOnUse" x="0" y="0" width="48" height="48">
<circle cx="24" cy="24" r="24" fill="#C4C4C4"/>
</mask>
<g mask="url(#mask0_2_16676)">
<path d="M17.5795 2.39221L15.0945 8.02567L18.4591 8.93629L17.5795 2.39221Z" fill="#21A0C0"/>
<path d="M18.4591 8.93626L15.0945 8.02563L13.1343 12.3009L18.4591 8.93626Z" fill="#246EB0"/>
<path d="M48 32.3104V29.2468L42.3047 31.2232L48 32.3104Z" fill="#8D2E82"/>
<path d="M7.82518 8.72009L1.15753 10.0783L7.4855 15.5267L7.82518 8.72009Z" fill="#503182"/>
<path d="M13.1343 12.3008L7.82516 8.72009L7.48547 15.5267L13.1343 12.3008Z" fill="#3E3A97"/>
<path d="M15.0945 8.02563L7.82513 8.72014L13.1343 12.3009L15.0945 8.02563Z" fill="#405B9F"/>
<path d="M37.2579 11.9306L31.6862 8.21094L34.8965 16.5763L37.2579 11.9306Z" fill="#D8A987"/>
<path d="M34.8964 16.5763L31.6862 8.21094L27.0869 13.3968L34.8964 16.5763Z" fill="#C5A28A"/>
<path d="M27.0869 13.3968L24.7871 5.40198L18.4591 8.93628L27.0869 13.3968Z" fill="#49A5B8"/>
<path d="M31.6862 8.21101L24.787 5.40198L27.0869 13.3968L31.6862 8.21101Z" fill="#73ACAB"/>
<path d="M24.787 5.40198L17.5795 2.39221L18.4591 8.93629L24.787 5.40198Z" fill="#26B4CA"/>
<path d="M46.2095 38.1992L47.9841 36.4028C47.9945 36.1958 47.9997 35.9877 47.9997 35.778V32.3104L42.3045 31.2231L46.2095 38.1992Z" fill="#A71D8B"/>
<path d="M38.724 36.2701L42.3047 31.2233L36.0693 30.7603L38.724 36.2701Z" fill="#DE379F"/>
<path d="M1.15749 10.0784L0.833435 19.1536L7.48545 15.5267L1.15749 10.0784Z" fill="#451B80"/>
<path d="M29.1241 30.0193L23.0276 30.8374L21.4379 37.3968L31.7942 39.789L38.7241 36.2701L36.0694 30.7602L29.1241 30.0193Z" fill="#F640DB"/>
<path d="M46.2095 38.1992L42.3048 31.2231L38.7241 36.27L46.2095 38.1992Z" fill="#CA1EA3"/>
<path d="M38.5851 7.47009L31.6862 8.211L37.2579 11.9307L38.5851 7.47009Z" fill="#D09E86"/>
<path d="M23.0269 30.8326L14.5544 31.9177L4.15167 32.998L12.1312 38.8476L21.4379 37.3968L23.0276 30.8374L23.0269 30.8326Z" fill="#AF1CD6"/>
<path d="M6.5441 27.411L4.15167 32.9981L14.5544 31.9177L6.5441 27.411Z" fill="#7210CA"/>
<path d="M0.833435 19.1536L4.49131 21.1138L7.48545 15.5267L0.833435 19.1536Z" fill="#350F95"/>
<path d="M13.2115 21.1138L7.48547 15.5267L4.49133 21.1138L7.88693 23.1665L13.2115 21.1138Z" fill="#2F12AD"/>
<path d="M23.0268 30.8327L21.222 18.9685L13.2115 21.1138L7.88693 23.1666L6.54407 27.411L14.5543 31.9177L23.0268 30.8327Z" fill="#570DCA"/>
<path d="M4.49133 21.1138L6.54408 27.411L7.88694 23.1665L4.49133 21.1138Z" fill="#350AB3"/>
<path d="M36.1775 20.2032L34.8964 16.5763L27.5807 22.1323L36.1775 20.2032Z" fill="#EC9676"/>
<path d="M27.0869 13.3969L16.3448 15.2642L21.222 18.9685L27.5807 22.1324L27.0869 13.3969Z" fill="#52579C"/>
<path d="M47.7864 38.0648C47.8891 37.5226 47.9558 36.9678 47.9844 36.4028L46.2098 38.1993L47.7864 38.0648Z" fill="#8A108B"/>
<path d="M13.1343 12.3009L7.48547 15.5268L13.2115 21.1138L21.222 18.9685L16.3448 15.2643L13.1343 12.3009Z" fill="#2B23A9"/>
<path d="M27.087 13.3968L18.4591 8.93628L13.1343 12.3009L16.3448 15.2642L27.087 13.3968Z" fill="#3C6BA9"/>
<path d="M42.3047 31.2231L39.4032 26.7318L36.0693 30.7601L42.3047 31.2231Z" fill="#E14F8B"/>
<path d="M27.5807 22.1324L34.8964 16.5763L27.0869 13.3969L27.5807 22.1324Z" fill="#D3907C"/>
<path d="M36.5864 46.7098L38.724 36.2701L31.7941 39.7891L36.5864 46.7098Z" fill="#E927D3"/>
<path d="M11.9954 47.7564L12.1311 38.8477L4.32159 39.8354L11.9954 47.7564Z" fill="#CB35D9"/>
<path d="M26.3614 2.39221L24.787 5.40198L31.6862 8.21102L26.3614 2.39221Z" fill="#55B9B9"/>
<path d="M4.32164 39.8354L12.1312 38.8476L4.15167 32.998L4.32164 39.8354Z" fill="#941CC0"/>
<path d="M37.2579 11.9307L44.0181 11.4677L38.5851 7.47009L37.2579 11.9307Z" fill="#D8967C"/>
<path d="M3.31846 5.98853L1.15753 10.0784L7.82518 8.72015L3.31846 5.98853Z" fill="#73496E"/>
<path d="M36.1776 20.2032L40.1905 15.3414L34.8965 16.5764L36.1776 20.2032Z" fill="#F3AE78"/>
<path d="M39.4032 26.7318L43.6322 22.0862L36.1776 20.2031L39.4032 26.7318Z" fill="#EB8F79"/>
<path d="M43.6322 22.0862L40.1905 15.3414L36.1776 20.2032L43.6322 22.0862Z" fill="#EEA87B"/>
<path d="M40.1905 15.3414L44.0181 11.4677L37.2579 11.9307L40.1905 15.3414Z" fill="#E7A07D"/>
<path d="M34.8965 16.5763L40.1905 15.3414L37.2579 11.9307L34.8965 16.5763Z" fill="#EEAA7D"/>
<path d="M23.0303 30.8321L23.3516 30.7909L23.0303 30.8321L23.0276 30.8373L29.124 30.0193L27.5807 22.1323L23.0303 30.8321Z" fill="#E741A0"/>
<path d="M27.5807 22.1324L21.222 18.9685L23.0269 30.8327L23.0303 30.8322L27.5807 22.1324Z" fill="#C4399C"/>
<path d="M29.124 30.0192L36.1775 20.2031L27.5807 22.1323L29.124 30.0192Z" fill="#EA6E81"/>
<path d="M36.0693 30.7601L36.1775 20.2031L29.124 30.0192L36.0693 30.7601Z" fill="#F2678F"/>
<path d="M36.0693 30.7601L39.4032 26.7318L36.1775 20.2031L36.0693 30.7601Z" fill="#EE7583"/>
<path d="M27.7777 0H21.9666L26.3614 2.39218L27.7777 0Z" fill="#23C6CF"/>
<path d="M7.82514 8.72017L7.62217 0.89502C7.51473 0.93869 7.40804 0.983849 7.30209 1.0305L3.31842 5.98855L7.82514 8.72017Z" fill="#7A647C"/>
<path d="M6.54408 27.411L0 26.421V27.6738L4.15165 32.9981L6.54408 27.411Z" fill="#520D9D"/>
<path d="M4.15165 32.998L0 33.2653V34.5176L4.32161 39.8354L4.15165 32.998Z" fill="#6C129B"/>
<path d="M0 27.6737V33.2652L4.15165 32.998L0 27.6737Z" fill="#5E0F89"/>
<path d="M0 34.5176V35.7781C0 38.1539 0.677881 40.3716 1.85102 42.2479L4.32161 39.8354L0 34.5176Z" fill="#71157F"/>
<path d="M0 18.0526V21.0681L0.833456 19.1535L0 18.0526Z" fill="#4D1E66"/>
<path d="M3.19091 3.98694C2.84502 4.36608 2.52271 4.76705 2.2262 5.18762L3.3182 5.98857L3.19091 3.98694Z" fill="#905F67"/>
<path d="M7.30212 1.03076C5.73074 1.72254 4.33255 2.73564 3.19092 3.98694L3.31821 5.98858L7.30212 1.03076Z" fill="#966C6F"/>
<path d="M0.692001 8.15784C0.473898 8.77666 0.30418 9.41832 0.187561 10.0783H1.15773L0.692001 8.15784Z" fill="#674467"/>
<path d="M3.31843 5.98857L2.22643 5.18762C1.58701 6.09452 1.06768 7.09224 0.692017 8.15794L1.1575 10.0784L3.31843 5.98857Z" fill="#7A4D67"/>
<path d="M1.15751 10.0784H0.187335C0.0642647 10.7744 0 11.4907 0 12.2219V18.0526L0.833456 19.1538L1.15751 10.0784Z" fill="#4E256B"/>
<path d="M48 29.2469V25.1005L42.3047 31.2232L48 29.2469Z" fill="#9C4880"/>
<path d="M38.7241 36.2701L42.9221 45.6955C43.2504 45.4585 43.5665 45.2059 43.8692 44.9382L46.2098 38.1991L38.7241 36.2701Z" fill="#CD0BB5"/>
<path d="M36.5864 46.7098L37.4052 47.8924C39.4463 47.6209 41.3284 46.8455 42.9221 45.6955L38.724 36.2701L36.5864 46.7098Z" fill="#E116CC"/>
<path d="M47.3018 39.8598C47.507 39.2801 47.6698 38.6807 47.7864 38.0648L46.2098 38.1996L47.3018 39.8598Z" fill="#C50BAE"/>
<path d="M36.3246 47.9878C36.6891 47.9717 37.0497 47.9397 37.4052 47.8925L36.5864 46.71L36.3246 47.9878Z" fill="#E72FD8"/>
<path d="M43.8692 44.9383C45.4083 43.5778 46.6018 41.8355 47.3018 39.8597L46.2098 38.1995L43.8692 44.9383Z" fill="#CD0BB5"/>
<path d="M11.9917 47.9975C12.0684 47.999 12.145 48 12.222 48H12.2314L11.9954 47.7563L11.9917 47.9975Z" fill="#C048D2"/>
<path d="M12.1311 38.8476L11.9954 47.7564L12.2314 48H14.2725L21.4379 37.3969L12.1311 38.8476Z" fill="#ED50E7"/>
<path d="M31.7941 39.7891L28.7134 48.0001H35.778C35.9611 48.0001 36.1435 47.9958 36.3246 47.9879L36.5864 46.71L31.7941 39.7891Z" fill="#F138E1"/>
<path d="M4.3216 39.8354L1.85101 42.248C3.97249 45.6416 7.71348 47.9187 11.9917 47.9978L11.9954 47.7564L4.3216 39.8354Z" fill="#A32AB9"/>
<path d="M21.4379 37.3969L26.3594 48H28.7134L31.7942 39.789L21.4379 37.3969Z" fill="#F655E2"/>
<path d="M14.2725 48H26.3594L21.4378 37.3969L14.2725 48Z" fill="#F96CE7"/>
<path d="M0.833456 19.1536L0 21.0681V24.8498L4.49133 21.1138L0.833456 19.1536Z" fill="#400D87"/>
<path d="M4.49133 21.1138L0 24.8498V26.4209L6.54408 27.411L4.49133 21.1138Z" fill="#440B9B"/>
<path d="M47.922 10.8357L44.0178 11.4674L47.9997 14.6908V12.2217C48 11.7533 47.9734 11.2908 47.922 10.8357Z" fill="#A5818D"/>
<path d="M47.9221 10.8356C47.7749 9.53248 47.4229 8.2916 46.8991 7.14575L44.0181 11.4674L47.9221 10.8356Z" fill="#906783"/>
<path d="M48 16.4116V14.6911L44.0181 11.4677L48 16.4116Z" fill="#AA9097"/>
<path d="M44.018 11.4677L46.899 7.14604C46.633 6.56443 46.3231 6.00739 45.973 5.47913L38.5853 7.47034L44.018 11.4677Z" fill="#AF737A"/>
<path d="M45.973 5.47881C45.0602 4.10121 43.8756 2.91964 42.4958 2.01001L38.5853 7.47002L45.973 5.47881Z" fill="#775E7B"/>
<path d="M39.4032 26.7318L48 25.0007V24.8766L43.6323 22.0862L39.4032 26.7318Z" fill="#CF807D"/>
<path d="M42.4958 2.01002C41.1674 1.13438 39.6578 0.511091 38.0353 0.20813L38.5851 7.47002L42.4958 2.01002Z" fill="#747386"/>
<path d="M40.1905 15.3414L48 17.717V16.4116L44.0181 11.4677L40.1905 15.3414Z" fill="#D09E86"/>
<path d="M10.9704 0.0632324C9.79726 0.182581 8.6735 0.467925 7.62244 0.895198L7.8254 8.72034L10.9704 0.0632324Z" fill="#70808F"/>
<path d="M48 24.8766V19.3138L43.6322 22.0862L48 24.8766Z" fill="#A98B8C"/>
<path d="M43.6322 22.0862L48 19.3139V17.717L40.1905 15.3414L43.6322 22.0862Z" fill="#D2A385"/>
<path d="M42.3048 31.2232L48 25.1004V25.0006L39.4032 26.7318L42.3048 31.2232Z" fill="#C6547F"/>
<path d="M38.5851 7.47001L38.0353 0.208121C38.0087 0.203158 37.9824 0.198196 37.9559 0.193481L31.686 8.21092L38.5851 7.47001Z" fill="#939190"/>
<path d="M19.1124 0H16.0508L17.5795 2.39218L19.1124 0Z" fill="#1DBCCB"/>
<path d="M24.787 5.40195L20.7599 0H19.1124L17.5795 2.39218L24.787 5.40195Z" fill="#23C2D0"/>
<path d="M17.5795 2.3922L11.6339 0.0141602C11.4679 0.0221002 11.3029 0.0330177 11.1389 0.047409L15.0945 8.02565L17.5795 2.3922Z" fill="#35A3B9"/>
<path d="M15.0945 8.02561L11.1389 0.0473633C11.0825 0.0523258 11.0265 0.0575364 10.9701 0.0632433L7.82513 8.72011L15.0945 8.02561Z" fill="#4780A6"/>
<path d="M16.0508 0H12.222C12.0247 0 11.8289 0.00496252 11.6339 0.0141432L17.5795 2.39243L16.0508 0Z" fill="#31B0C0"/>
<path d="M31.6862 8.21099L31.9795 0H30.8815L26.3614 2.39218L31.6862 8.21099Z" fill="#5FB3B2"/>
<path d="M26.3614 2.39218L21.9666 0H20.7599L24.787 5.40195L26.3614 2.39218Z" fill="#2CC4CC"/>
<path d="M37.9559 0.193538C37.2492 0.0664978 36.5212 0 35.7781 0H31.9795L31.6862 8.21099L37.9559 0.193538Z" fill="#6CA3A5"/>
<path d="M30.8815 0H27.7777L26.3614 2.39218L30.8815 0Z" fill="#2DBDC5"/>
<path d="M18.9452 9.25256H11.3826V40.0281H18.9452V9.25256Z" fill="white"/>
<path d="M38.6459 9.31433L26.8103 21.4671L21.5689 26.8489L18.9454 29.5426V20.3304L29.6742 9.31433H38.6459Z" fill="url(#paint0_linear_2_16676)"/>
<path d="M39.2377 40.0281H30.393L21.5689 26.8489L26.8103 21.467L39.2377 40.0281Z" fill="url(#paint1_linear_2_16676)"/>
</g>
<defs>
<linearGradient id="paint0_linear_2_16676" x1="18.9454" y1="19.4284" x2="38.6459" y2="19.4284" gradientUnits="userSpaceOnUse">
<stop offset="0.0419" stop-color="#F029A1"/>
<stop offset="0.0722" stop-color="#F242AC"/>
<stop offset="0.133" stop-color="#F46EBF"/>
<stop offset="0.1983" stop-color="#F795D0"/>
<stop offset="0.2673" stop-color="#F9B6DF"/>
<stop offset="0.3411" stop-color="#FAD1EB"/>
<stop offset="0.4215" stop-color="#FBE5F4"/>
<stop offset="0.5116" stop-color="#FCF4FA"/>
<stop offset="0.6196" stop-color="#FDFCFE"/>
<stop offset="0.7931" stop-color="#FDFFFF"/>
</linearGradient>
<linearGradient id="paint1_linear_2_16676" x1="22.2222" y1="26.63" x2="37.407" y2="36.4311" gradientUnits="userSpaceOnUse">
<stop offset="0.0803" stop-color="#E80D8C"/>
<stop offset="0.0834" stop-color="#E8108D"/>
<stop offset="0.1424" stop-color="#ED42A5"/>
<stop offset="0.2046" stop-color="#F06EBA"/>
<stop offset="0.271" stop-color="#F495CD"/>
<stop offset="0.3412" stop-color="#F7B6DC"/>
<stop offset="0.4161" stop-color="#F9D1E9"/>
<stop offset="0.4977" stop-color="#FBE5F3"/>
<stop offset="0.5894" stop-color="#FCF4FA"/>
<stop offset="0.6991" stop-color="#FDFCFE"/>
<stop offset="0.8754" stop-color="#FDFFFF"/>
</linearGradient>
</defs>
</svg>
