<svg width="48" height="48" viewBox="0 0 48 48" fill="none" xmlns="http://www.w3.org/2000/svg">
<path d="M0 24C0 10.7452 10.7452 0 24 0C37.2548 0 48 10.7452 48 24C48 37.2548 37.2548 48 24 48C10.7452 48 0 37.2548 0 24Z" fill="#49DBB4"/>
<path d="M24 2.85712C12.3552 2.85712 2.85715 12.3551 2.85715 24C2.85715 35.6448 12.3552 45.1428 24 45.1428C35.6448 45.1428 45.1429 35.6448 45.1429 24C45.1429 12.3551 35.6448 2.85712 24 2.85712ZM32.8475 19.251H31.5464L27.513 23.9349L31.5464 28.6189H32.8475V32.3921H24.3253V28.6189H25.6264L22.9591 25.6263H21.8532V28.749H23.3495V32.5222H15.0875V28.749H16.909V24.065V19.316H15.0875V15.5428H17.1692V16.974H18.2752V15.5428H20.2919V16.974H21.3978V15.5428H23.4145V19.251H21.9182V22.3736H23.0242L25.6914 19.251H24.3903V15.5428H32.9776L32.8475 19.251Z" fill="black"/>
</svg>
