<svg width="48" height="48" viewBox="0 0 48 48" fill="none" xmlns="http://www.w3.org/2000/svg">
<rect width="48" height="48" rx="24" fill="white"/>
<g clip-path="url(#clip0_2_16275)">
<path d="M11 14.2669C14.6701 11.735 18.3402 9.20313 22.6671 6.21887C22.076 13.0338 19.1574 18.9001 19.2961 24.8978C19.4347 30.8517 21.5726 36.7546 22.9954 43.4163C18.0557 41.1689 15.1225 37.4405 11 35.5069C11 28.4293 11 21.3444 11 14.2669Z" fill="#23CB9D"/>
<path d="M25.4981 44C24.4401 38.7247 23.3894 33.4493 22.1782 27.4078C27.0887 30.1367 31.5177 32.5227 35.8664 35.0472C37.5008 35.9958 36.1947 36.8057 35.3994 37.4332C32.6049 39.644 29.7738 41.8111 26.9574 44C26.4612 44 25.9797 44 25.4981 44Z" fill="#25CC9D"/>
<path d="M22.7838 24.8832C27.6287 22.147 31.8898 19.7538 36.1363 17.346C37.6905 16.4631 38.588 16.5579 38.5661 18.6301C38.515 22.7526 38.5004 26.8824 38.5734 31.0049C38.6098 33.369 37.5956 33.2523 35.9466 32.311C31.7877 29.9324 27.6068 27.6048 22.7838 24.8832Z" fill="#24CB9D"/>
<path d="M22.0104 22.49C23.2508 16.9301 24.3525 12.2677 25.3157 7.58337C25.7389 5.51117 26.629 5.74466 27.9643 6.75886C30.4305 8.63406 32.904 10.4874 35.3994 12.3188C36.8076 13.3476 37.0411 14.1356 35.2535 15.0987C31.0726 17.3387 26.9574 19.7174 22.0104 22.49Z" fill="#25CC9D"/>
</g>
<defs>
<clipPath id="clip0_2_16275">
<rect width="27.5661" height="38" fill="white" transform="translate(11 6)"/>
</clipPath>
</defs>
</svg>
