<svg width="48" height="48" viewBox="0 0 48 48" fill="none" xmlns="http://www.w3.org/2000/svg">
<circle cx="24" cy="24" r="24" fill="white"/>
<path d="M37.2465 15.9619C36.7951 15.6122 36.2569 15.1347 35.276 15.0153C34.3559 14.8959 33.4184 15.5014 32.7847 15.9022C32.151 16.303 30.9531 17.4798 30.4583 17.8379C29.9635 18.1961 28.6962 18.5287 26.6563 19.7311C24.6163 20.9335 16.6128 25.9818 16.6128 25.9818L18.6962 26.0074L9.40799 30.7061H10.3368L9 31.7038C9 31.7038 10.1806 32.0108 11.1701 31.3968V31.6782C11.1701 31.6782 22.2292 27.3974 24.3646 28.506L23.0625 28.8812C23.1753 28.8812 25.276 29.0176 25.276 29.0176C25.327 29.445 25.4732 29.856 25.7043 30.2215C25.9354 30.5871 26.2456 30.8981 26.6128 31.1325C27.8802 31.9511 27.9063 32.4031 27.9063 32.4031C27.9063 32.4031 27.2465 32.6674 27.2465 33C27.2465 33 28.2188 32.7101 29.1215 32.7356C29.6945 32.757 30.2628 32.8457 30.8142 33C30.8142 33 30.7448 32.6418 29.8681 32.4031C28.9913 32.1643 28.1233 31.2263 27.6979 30.7146C27.4374 30.3889 27.2676 30.0023 27.2052 29.5926C27.1428 29.1829 27.1899 28.7644 27.342 28.378C27.6458 27.602 28.7049 27.1757 30.8924 26.0671C33.4705 24.7538 34.0608 23.7817 34.4253 23.0227C34.7899 22.2638 35.3281 20.7544 35.6319 20.0466C36.0139 19.1341 36.4826 18.6481 36.8733 18.3581C37.2639 18.0682 39 17.4286 39 17.4286C39 17.4286 37.6719 16.2945 37.2465 15.9619Z" fill="black"/>
</svg>
