<svg width="48" height="48" viewBox="0 0 48 48" fill="none" xmlns="http://www.w3.org/2000/svg">
<path d="M0 24C0 10.7452 10.7452 0 24 0C37.2548 0 48 10.7452 48 24C48 37.2548 37.2548 48 24 48C10.7452 48 0 37.2548 0 24Z" fill="white"/>
<path d="M8.48725 25.8062C7.9185 25.4065 7.87238 25.0991 8.44113 24.5457C14.2516 18.7967 20.0468 13.0169 25.8419 7.23717C26.0571 7.02196 26.2415 6.77602 26.4414 6.54544C26.4875 6.54544 26.549 6.54544 26.5951 6.54544C27.6404 7.62146 28.6703 8.69748 29.7463 9.74275C30.1921 10.1732 30.1767 10.4652 29.7309 10.8495C29.362 11.1569 29.0699 11.5412 28.7318 11.8948C28.6703 12.2176 28.4089 12.4021 28.1937 12.6173C22.952 17.8436 17.6949 23.0854 12.4378 28.3117C11.6384 29.1111 11.577 29.1264 10.8084 28.3117C10.0398 27.4817 9.10212 26.8053 8.48725 25.8062Z" fill="#B3EBF3"/>
<path d="M13.8518 31.1709C13.7749 31.0787 13.7135 30.9557 13.6059 30.8788C13.1601 30.556 13.2216 30.3101 13.6059 29.9412C19.5393 24.0538 25.4421 18.1665 31.3448 12.2637C31.6676 11.9409 31.8674 11.8333 32.2363 12.233C33.174 13.2321 34.1578 14.2006 35.157 15.1536C35.4951 15.4764 35.449 15.6301 35.1262 15.9068C34.7112 16.2757 34.3423 16.7061 33.9733 17.1058C33.8657 17.3979 33.6352 17.5977 33.4046 17.8129C28.1628 23.0393 22.9057 28.281 17.6486 33.5074C16.8493 34.3067 16.8032 34.3221 16.0192 33.492C15.2967 32.7388 14.4206 32.0932 13.8518 31.1709Z" fill="#00C2F5"/>
<path d="M19.0782 36.3665C18.3865 35.8746 18.5248 35.5056 19.109 34.9369C24.9502 29.1725 30.7607 23.3774 36.5558 17.5669C36.9708 17.1519 37.1861 17.1057 37.6011 17.5669C38.5234 18.5507 39.4764 19.5037 40.4602 20.426C40.7677 20.7181 40.7369 20.8718 40.4448 21.1331C40.0452 21.4867 39.6916 21.8863 39.3227 22.2706C39.2459 22.5934 39.0153 22.7933 38.8001 23.0085C33.5276 28.2656 28.2397 33.5227 22.9672 38.7798C22.1987 39.5484 22.0911 39.5638 21.3071 38.7491C20.5539 37.9805 19.6623 37.3195 19.0782 36.3665Z" fill="#1A13AE"/>
<path d="M8.48719 25.8062C8.73313 26.0214 8.97908 26.2519 9.22503 26.4672C10.0551 27.2204 10.7468 28.1119 11.6538 28.7729C12.4377 28.0043 13.237 27.2665 14.021 26.4825C18.7247 21.7942 23.4285 17.1058 28.1322 12.4328C28.332 12.233 28.5472 12.0639 28.7624 11.8794C29.5771 12.525 29.5771 12.525 28.9008 13.2014C23.0595 19.0119 17.2337 24.8224 11.4232 30.6329C10.9313 31.1248 10.6546 31.2016 10.1627 30.6482C9.48635 29.8797 8.73313 29.1879 8.01067 28.4808C7.02688 27.5124 7.04225 27.5124 7.97992 26.544C8.19513 26.3288 8.48719 26.1597 8.48719 25.8062Z" fill="#E8FAFA"/>
<path d="M19.0783 36.3664C19.9084 37.1811 20.7845 37.9651 21.5685 38.8259C22.0143 39.3178 22.2602 39.2563 22.6906 38.8259C28.0707 33.4304 33.4816 28.0657 38.877 22.6856C39.0154 22.5473 39.1691 22.4089 39.3228 22.2706C39.9684 23.116 39.9684 23.116 39.1845 23.9C33.4354 29.6336 27.6864 35.3519 21.9374 41.1009C21.4916 41.5467 21.2457 41.5774 20.7999 41.1009C19.9545 40.1786 19.0629 39.3024 18.1406 38.457C17.6948 38.0419 17.7563 37.8114 18.156 37.4425C18.5095 37.135 18.9707 36.8891 19.0783 36.3664Z" fill="#B8B6E7"/>
<path d="M13.8517 31.1708C14.6971 31.9855 15.5579 32.7848 16.3572 33.6457C16.7723 34.0914 16.9875 34.0146 17.3718 33.6303C22.675 28.327 27.9936 23.0238 33.3122 17.736C33.5274 17.5208 33.758 17.3209 33.9886 17.1211C34.1576 17.2748 34.3267 17.4132 34.5112 17.5669C34.7264 17.7513 34.7264 17.8743 34.4958 18.1049C28.5624 23.9922 22.6289 29.8796 16.7108 35.7977C16.2189 36.2896 15.9576 36.3203 15.4811 35.7977C14.6356 34.8754 13.7287 34.0146 12.8371 33.1538C12.5143 32.8463 12.4528 32.6157 12.8218 32.2929C13.1753 31.9394 13.4981 31.5551 13.8517 31.1708Z" fill="#B1EDFC"/>
</svg>
