<svg width="49" height="48" viewBox="0 0 49 48" fill="none" xmlns="http://www.w3.org/2000/svg">
<g clip-path="url(#clip0_2_13612)">
<path d="M24.8359 47.9999C24.3054 47.9999 23.775 47.9999 23.2284 47.9999C22.9712 47.9517 22.714 47.8713 22.4568 47.8553C11.992 47.2766 2.81313 39.448 0.659076 29.1761C0.35365 27.7293 0.22505 26.2344 0 24.7555C0 24.225 0 23.6945 0 23.148C0.0643001 22.521 0.1286 21.878 0.208975 21.2511C1.68788 8.21426 13.5512 -1.27 26.6202 0.144603C40.0107 1.59135 49.5914 13.7762 47.8553 27.1185C46.5533 37.0689 39.0141 45.2672 29.1601 47.373C27.7455 47.6784 26.2827 47.791 24.8359 47.9999Z" fill="white"/>
<g clip-path="url(#clip1_2_13612)">
<path d="M34.3883 27.9825C33.5074 28.9565 32.6327 29.9304 31.7456 30.8982C29.9652 32.8399 28.1848 34.7816 26.4045 36.7232C25.7407 37.449 25.0769 38.1687 24.4193 38.8945C24.3201 38.9999 24.2581 39.0558 24.1278 38.9317C23.464 38.3113 22.8002 37.691 22.1241 37.083C21.9504 36.928 22.0124 36.8473 22.1303 36.717C23.1911 35.5632 24.2518 34.4031 25.3126 33.2431C26.8635 31.5557 28.4144 29.8622 29.959 28.1749C30.3499 27.7468 30.7345 27.3188 31.1315 26.8969C31.5781 26.4255 32.1303 26.2146 32.7816 26.3014C33.3027 26.7729 33.8176 27.2567 34.3263 27.7406C34.3945 27.8151 34.4628 27.8771 34.3883 27.9825Z" fill="#00EE79"/>
<path d="M14.0844 19.9676C15.294 18.8262 16.361 17.5483 17.4901 16.3262C19.6365 14.0061 21.7705 11.6674 23.9107 9.3411C24.3201 8.89445 24.3325 8.89445 24.7667 9.29147C25.3375 9.81256 25.902 10.3461 26.4789 10.8609C26.634 10.9974 26.6092 11.0719 26.4913 11.2021C24.5186 13.3485 22.5459 15.4887 20.5794 17.6351C19.6551 18.6401 18.7246 19.6327 17.8188 20.6562C17.1179 21.4441 16.299 21.5681 15.3499 21.2208C14.9714 20.8299 14.5806 20.4515 14.1712 20.0917C14.1278 20.0607 14.0968 20.0173 14.0844 19.9676Z" fill="#00C96C"/>
<path d="M21.3611 22.021C22.1675 21.3821 22.7941 20.5694 23.4889 19.825C25.3747 17.7841 27.2482 15.7307 29.1154 13.6774C29.2643 13.5161 29.3512 13.485 29.5249 13.6525C30.1514 14.2543 30.7966 14.8312 31.4355 15.4143C31.5844 15.5508 31.6154 15.6377 31.4541 15.8051C29.345 18.088 27.242 20.3771 25.1452 22.6724C24.5745 23.2989 23.8983 23.5223 23.0794 23.3238C22.8499 23.2679 22.6266 23.1997 22.3971 23.1377C22.2668 22.8957 22.0559 22.7344 21.845 22.5731C21.6589 22.4305 21.4665 22.2692 21.3611 22.021Z" fill="#00D574"/>
<path d="M26.8821 26.109C26.5347 26.5991 26.1005 27.0085 25.6973 27.449C23.9231 29.3969 22.1427 31.3323 20.3623 33.274C20.0459 33.6152 19.7233 33.9502 19.4193 34.2976C19.3015 34.4341 19.2332 34.4279 19.1092 34.31C18.4454 33.6897 17.7754 33.0755 17.093 32.4738C16.9131 32.3187 17.0248 32.238 17.1241 32.1326C17.8437 31.351 18.5633 30.5631 19.2829 29.7815C20.7407 28.1872 22.2047 26.5991 23.6625 25.0048C24.0161 24.6202 24.4193 24.3348 24.959 24.31C25.0831 24.2418 25.1513 24.341 25.2258 24.4031C25.7469 24.8559 26.268 25.3088 26.7891 25.7616C26.8821 25.8547 26.9876 25.9601 26.8821 26.109Z" fill="#00F178"/>
<path d="M19.9343 23.6773C18.1043 25.681 16.2742 27.6847 14.4504 29.6947C14.3077 29.856 14.2271 29.8684 14.072 29.7195C13.4393 29.1239 12.8003 28.5408 12.1551 27.9577C11.9938 27.815 11.9566 27.7344 12.1241 27.5483C13.5447 26.016 14.9467 24.4775 16.3549 22.9391C16.9318 22.3063 17.6514 22.1823 18.4517 22.3497C18.6502 22.356 18.7929 22.4428 18.9169 22.5979C19.1775 22.9205 19.5559 23.119 19.8226 23.4354C19.8847 23.5036 20.0149 23.5408 19.9343 23.6773Z" fill="#00E682"/>
<path d="M29.2333 23.6153C30.4181 22.3187 31.603 21.0222 32.7817 19.7257C33.2407 19.2232 33.706 18.7269 34.1588 18.2182C34.2705 18.0942 34.3387 18.0756 34.4752 18.1996C35.139 18.82 35.809 19.4341 36.4789 20.0421C36.5906 20.1413 36.6278 20.1971 36.5038 20.3274C35.1328 21.8163 33.768 23.3113 32.3908 24.7939C31.9814 25.2406 31.4541 25.4515 30.8338 25.3646C30.9268 25.2778 30.9206 25.2096 30.8338 25.1041C30.6787 24.9118 30.4616 24.8187 30.2817 24.6636C29.9405 24.3721 29.6551 24.0061 29.2705 23.7641C29.2333 23.7455 29.2023 23.6835 29.2333 23.6153Z" fill="#00CC5F"/>
<path d="M12.8003 21.4502C11.7333 22.6103 10.6725 23.7765 9.60548 24.9366C9.2705 25.3026 9.2705 25.3026 8.9169 24.98C8.30896 24.4217 7.70722 23.8572 7.09308 23.3051C6.96901 23.1934 6.96901 23.1252 7.08067 23.0073C7.76305 22.2753 8.42682 21.5247 9.12161 20.8051C9.48762 20.4267 9.96529 20.2468 10.4988 20.2778C10.9392 20.3026 11.3797 20.3646 11.8201 20.4081C12.1551 20.7492 12.5273 21.0532 12.8003 21.4502Z" fill="#00DC6D"/>
<path d="M35.8152 26.1835C36.4355 25.8609 36.8574 25.315 37.3226 24.8187C37.9244 24.1673 38.5261 23.5098 39.1154 22.846C39.2643 22.6785 39.345 22.6599 39.5187 22.8274C40.1576 23.4291 40.809 24.0185 41.4604 24.6016C41.6154 24.7381 41.603 24.8187 41.4666 24.9676C40.9269 25.5383 40.3996 26.1152 39.8723 26.6984C39.3636 27.2629 38.737 27.5172 37.9802 27.3559C37.4777 27.2505 36.9814 27.114 36.4852 26.9899C36.4355 26.7108 36.1998 26.5867 36.0137 26.4254C35.9331 26.3572 35.8152 26.32 35.8152 26.1835Z" fill="#00CC5F"/>
<path d="M26.8822 26.1091C26.9008 25.9664 26.8139 25.8796 26.7209 25.7989C26.1688 25.315 25.6167 24.8374 25.0645 24.3597C25.0335 24.3349 24.9901 24.3287 24.9529 24.3163C25.4181 24.2232 25.871 24.3659 26.3301 24.3969C26.4913 24.4031 26.603 24.4714 26.7209 24.5892C26.9442 24.8064 27.1427 25.0421 27.3846 25.2406C27.4529 25.2964 27.5832 25.3461 27.5025 25.4825C27.2916 25.6873 27.1427 25.9478 26.8822 26.1091Z" fill="#00EA73"/>
<path d="M29.2332 23.6152C29.7295 23.9378 30.0583 24.4589 30.5732 24.7629C30.7655 24.8745 30.9144 25.042 31.026 25.2157C31.1687 25.4391 30.9144 25.3274 30.8461 25.3708C30.4615 25.346 30.0955 25.2467 29.7295 25.1227C29.6985 24.8931 29.4627 24.8559 29.3387 24.7132C29.134 24.4775 28.9292 24.2356 28.6687 24.0557C28.8548 23.913 29.0471 23.7641 29.2332 23.6152Z" fill="#00D263"/>
<path d="M19.9343 23.6773C19.8536 23.4663 19.6489 23.3485 19.4938 23.2306C19.1278 22.9576 18.8797 22.542 18.4454 22.3435C19.0224 22.3683 19.5931 22.4862 20.17 22.4552C20.2196 22.4242 20.2755 22.4179 20.3127 22.449C20.5174 22.6351 20.7407 22.8026 20.8586 23.0631C20.474 23.1375 20.2134 23.4229 19.9343 23.6773Z" fill="#00E17E"/>
<path d="M20.8647 23.0632C20.5794 22.9206 20.4863 22.5608 20.1761 22.4553C20.5856 22.356 20.9888 22.232 21.361 22.0211C21.696 22.325 22.031 22.6228 22.3598 22.9268C22.4156 22.9764 22.5397 23.0384 22.4156 23.1439C21.9007 23.0508 21.392 22.9082 20.8647 23.0632Z" fill="#00DB79"/>
<path d="M12.8003 21.4503C12.4405 21.1402 12.0745 20.83 11.814 20.4206C12.3102 20.4826 12.8065 20.464 13.2966 20.3461C13.644 20.433 13.9045 20.7307 13.8611 20.9727C13.4765 21.0657 13.1105 21.2022 12.8003 21.4503Z" fill="#00D46C"/>
<path d="M13.861 20.9788C13.8052 20.65 13.4826 20.5632 13.2965 20.3523C13.5571 20.222 13.8238 20.0979 14.0844 19.9677C14.5682 20.2964 14.959 20.7245 15.3561 21.1463C15.3809 21.1711 15.3685 21.2021 15.3437 21.2208C15.0521 21.2145 14.7853 21.0781 14.5062 21.0409C14.2891 21.0098 14.0719 20.9974 13.861 20.9788Z" fill="#00CF6C"/>
<path d="M34.3883 27.9824C34.3821 27.8894 34.3263 27.846 34.2642 27.7901C33.799 27.3621 33.3337 26.9279 32.8746 26.4936C32.8188 26.444 32.7754 26.3882 32.7754 26.3075C33.0297 26.2889 33.2717 26.3509 33.5198 26.3757C33.6005 26.413 33.6997 26.3882 33.7742 26.4688C34.0781 26.7976 34.4441 27.0705 34.7605 27.3869C34.7977 27.4241 34.8225 27.4676 34.8163 27.5234C34.655 27.6599 34.5806 27.877 34.3883 27.9824Z" fill="#00E774"/>
<path d="M28.6687 24.0619C29.0099 24.0495 29.0843 24.4031 29.3015 24.5582C29.4379 24.6574 29.531 24.8125 29.6923 24.887C29.7977 24.9366 29.8474 25.0297 29.7295 25.1289C29.2828 25.0483 28.8362 24.9428 28.3771 25.0048C28.1228 24.8373 27.9119 24.6264 27.6761 24.4341C28.0111 24.3349 28.3461 24.217 28.6687 24.0619Z" fill="#00D967"/>
<path d="M27.6762 24.4341C27.9926 24.521 28.1911 24.7567 28.3772 25.0048C28.0671 25.1289 27.7693 25.2654 27.5087 25.4763C27.2544 25.222 27.0063 24.9552 26.7333 24.7133C26.603 24.6016 26.5348 24.4093 26.3301 24.3907C26.7767 24.4341 27.2234 24.4713 27.6762 24.4341Z" fill="#00E26D"/>
<path d="M34.8165 27.5235C34.4442 27.1761 34.041 26.8659 33.6998 26.4875C33.6564 26.4379 33.582 26.4131 33.5261 26.3759C33.7308 26.3945 33.9418 26.4193 34.1465 26.4379C34.68 26.3324 34.9095 26.7853 35.2507 27.0334C35.3438 27.1017 35.2755 27.1823 35.2011 27.2319C35.0708 27.3312 34.9467 27.4242 34.8165 27.5235Z" fill="#00E06F"/>
<path d="M35.1949 27.2319C35.2073 27.1698 35.2941 27.0768 35.1763 27.0582C35.0274 27.0396 34.9653 26.9279 34.9033 26.8349C34.7172 26.5619 34.4567 26.4564 34.1465 26.4316C34.5621 26.444 34.9715 26.4502 35.381 26.3448C35.6105 26.5061 35.8338 26.6736 35.8835 26.9837C35.6477 27.0706 35.4244 27.1512 35.1949 27.2319Z" fill="#00D969"/>
<path d="M35.8771 26.99C35.7096 26.7791 35.5421 26.562 35.3746 26.3511C35.5235 26.2953 35.6662 26.2394 35.8151 26.1836C36.0508 26.3821 36.3114 26.5496 36.5099 26.7853C36.5719 26.8598 36.696 26.9466 36.4851 26.99C36.2865 26.99 36.0818 26.99 35.8771 26.99Z" fill="#00D264"/>
</g>
</g>
<defs>
<clipPath id="clip0_2_13612">
<rect width="48.0643" height="48" fill="white"/>
</clipPath>
<clipPath id="clip1_2_13612">
<rect width="34.5782" height="30" fill="white" transform="translate(7 8.99994)"/>
</clipPath>
</defs>
</svg>
