<svg width="48" height="48" viewBox="0 0 48 48" fill="none" xmlns="http://www.w3.org/2000/svg">
<path d="M24 48C37.2548 48 48 37.2548 48 24C48 10.7452 37.2548 0 24 0C10.7452 0 0 10.7452 0 24C0 37.2548 10.7452 48 24 48Z" fill="white"/>
<path d="M32.04 10.3198H16.08L4.80005 21.8398L24.12 41.1598L43.44 21.8398L32.04 10.3198Z" fill="#05CF59"/>
<path d="M37.0802 21.8399C37.0802 21.8399 31.224 29.7599 24.0002 29.7599C16.7763 29.7599 10.9202 21.8399 10.9202 21.8399C10.9202 21.8399 16.7763 13.9199 24.0002 13.9199C31.224 13.9199 37.0802 21.8399 37.0802 21.8399Z" fill="#020202"/>
<path d="M24.1201 27.7197C27.4338 27.7197 30.1201 25.0334 30.1201 21.7197C30.1201 18.406 27.4338 15.7197 24.1201 15.7197C20.8064 15.7197 18.1201 18.406 18.1201 21.7197C18.1201 25.0334 20.8064 27.7197 24.1201 27.7197Z" fill="white"/>
<path d="M24.12 24.3596C25.578 24.3596 26.76 23.1776 26.76 21.7196C26.76 20.2616 25.578 19.0796 24.12 19.0796C22.662 19.0796 21.48 20.2616 21.48 21.7196C21.48 23.1776 22.662 24.3596 24.12 24.3596Z" fill="black"/>
</svg>
