<svg width="48" height="48" viewBox="0 0 48 48" fill="none" xmlns="http://www.w3.org/2000/svg">
<circle cx="24" cy="24" r="24" fill="#172852"/>
<path d="M19.332 10.7255C22.1424 9.67425 25.3056 9.67185 28.1688 10.5359C31.896 11.6927 35.0424 14.5055 36.6864 18.0359C37.14 19.0415 37.5744 20.0903 37.6176 21.2087C35.5224 19.9943 33.2256 19.2071 30.924 18.4895C27.2424 17.1623 23.388 16.2407 19.9032 14.4167C19.092 13.9319 18.0576 13.4351 17.8368 12.4247C17.748 11.5511 18.672 11.0639 19.332 10.7255Z" fill="#FFD83D"/>
<path d="M10.848 19.2214C11.6616 17.0134 12.996 14.9638 14.808 13.4446C15.2688 17.2342 16.8816 20.8966 19.5456 23.6518C22.74 26.971 27.2904 29.0086 31.92 28.9318C33.7584 28.9894 35.556 28.5646 37.3488 28.2214C35.5848 34.5958 28.5984 38.827 22.1256 37.8094C18.2184 37.3102 14.6112 34.9966 12.4344 31.7302C9.97923 28.1206 9.36004 23.3278 10.848 19.2214Z" fill="#FFD83D"/>
<path d="M30.9241 18.4897C33.2257 19.2073 35.5225 19.9945 37.6176 21.2089L37.7592 21.2833C37.9536 22.7449 38.0952 24.2353 37.836 25.6993C36.7824 25.2529 35.9281 24.4681 35.0353 23.7745C33.3169 22.3441 31.5625 20.7073 30.9241 18.4897Z" fill="#FF6F03"/>
</svg>
