<svg width="48" height="48" viewBox="0 0 48 48" fill="none" xmlns="http://www.w3.org/2000/svg">
<path d="M0 24C0 10.7452 10.7452 0 24 0C37.2548 0 48 10.7452 48 24C48 37.2548 37.2548 48 24 48C10.7452 48 0 37.2548 0 24Z" fill="#ECECEC"/>
<path d="M23.9925 5C24.0396 5 24.1023 5 24.1494 5C26.3931 5.81589 28.323 7.18094 30.3784 8.34201C33.6734 10.2091 36.9526 12.1234 40.2319 14.0376C40.6712 14.2886 40.985 14.5867 40.9379 15.1359C40.9379 21.412 40.9379 27.688 40.9379 33.9484C40.9693 34.4191 40.734 34.7173 40.3417 34.9526C36.2309 37.3218 32.12 39.7224 27.9935 42.076C27.1619 42.5467 26.3303 43.0331 25.5145 43.5352C24.5103 44.1628 23.5375 44.1471 22.5176 43.5352C17.6223 40.6482 12.6642 37.8396 7.75313 34.984C7.20397 34.6702 7 34.2779 7 33.666C7.01569 27.5625 7.01569 21.4433 7 15.3398C7 14.7593 7.18828 14.3671 7.70606 14.0689C11.4246 11.9351 15.1118 9.76982 18.8461 7.65165C19.5992 7.22801 20.321 6.78868 21.0584 6.34936C21.9842 5.8002 22.9099 5.26673 23.9925 5Z" fill="url(#paint0_linear_2_10557)"/>
<path d="M19.1754 16.2501C19.3637 15.9834 19.6461 16.0618 19.8972 16.0618C22.6273 16.0618 25.3574 16.0618 28.0875 16.0461C28.6052 16.0461 28.872 16.2344 29.123 16.6737C30.4567 19.0429 31.8374 21.4122 33.1868 23.7657C33.328 23.9383 33.3594 24.0324 33.4849 24.2364C33.532 24.4404 33.5163 24.6444 33.4064 24.8326C31.8845 27.5 30.3468 30.1516 28.8249 32.819C28.668 32.9131 28.5111 32.8817 28.3699 32.7719C27.6324 31.956 27.2245 30.9361 26.6753 29.9947C25.8124 28.4885 24.9651 26.9822 24.1178 25.4602C23.9452 25.1464 23.7256 24.8326 23.7726 24.4404C24.3218 22.9184 25.2789 21.6161 26.032 20.204C26.5341 19.2626 27.0519 18.3526 27.5854 17.4269C27.9776 16.7365 27.9149 16.6266 27.1304 16.6266C24.8553 16.5953 22.5802 16.611 20.3051 16.5953C19.9129 16.5796 19.4421 16.7051 19.1754 16.2501Z" fill="#EEEDED"/>
<path d="M19.1757 16.2499C22.0471 16.2499 24.9341 16.2655 27.8054 16.2342C28.4173 16.2342 28.6056 16.3126 28.2447 16.9245C26.8012 19.435 25.3891 21.9768 23.9769 24.5186C23.773 24.8638 23.4121 24.8638 23.0826 24.8638C20.5408 24.8952 18.0147 24.8952 15.4729 24.8638C15.0963 24.8638 14.7511 24.801 14.4844 24.5186C15.0178 23.2791 15.771 22.1651 16.43 21.004C17.3243 19.4036 18.2657 17.8346 19.1757 16.2499Z" fill="#FEFEFE"/>
<path d="M14.4844 24.5186C17.6538 24.5186 20.8232 24.5186 23.9769 24.5186C25.5303 27.2016 27.0679 29.9003 28.5114 32.6461C28.2761 32.9442 27.9466 32.8814 27.6485 32.8814C25.138 32.8814 22.6119 32.8814 20.1015 32.8814C19.7563 32.8814 19.4268 32.8657 19.1287 32.6775C18.9247 32.4421 18.7835 32.0969 18.658 31.8773C18.5481 31.6733 18.4697 31.5321 18.3285 31.2967C16.9791 29.0687 15.6454 26.8407 14.4844 24.5186Z" fill="#D9DAD9"/>
<path d="M19.1284 32.6775C22.2508 32.6618 25.3888 32.6618 28.5112 32.6461C28.621 32.6932 28.7151 32.756 28.825 32.803C28.825 32.8501 28.825 32.8815 28.8093 32.9285C28.6994 33.0541 28.5739 33.0854 28.417 33.0698C25.4673 33.007 22.5175 33.0384 19.5677 33.0541C19.4736 33.0541 19.3795 33.0384 19.2853 32.9756C19.2382 32.8658 19.1755 32.7716 19.1284 32.6775Z" fill="#D7DEDD"/>
<defs>
<linearGradient id="paint0_linear_2_10557" x1="10.5619" y1="11.0969" x2="37.4055" y2="37.9405" gradientUnits="userSpaceOnUse">
<stop stop-color="#E39D9B"/>
<stop offset="0.8843" stop-color="#6E41B9"/>
</linearGradient>
</defs>
</svg>
