<svg width="49" height="48" viewBox="0 0 49 48" fill="none" xmlns="http://www.w3.org/2000/svg">
<g clip-path="url(#clip0_2_5874)">
<path d="M25.4792 0C26.0645 0.144313 26.6658 0.144313 27.251 0.224486C29.3676 0.497077 31.4121 1.05028 33.3603 1.8921C38.9003 4.26524 43.0212 8.1697 45.675 13.5734C47.0299 16.3394 47.8076 19.2738 48.008 22.3524C48.3848 28.1891 46.8455 33.4805 43.4141 38.2028C40.9207 41.6422 37.6977 44.2078 33.8012 45.9315C29.6803 47.7595 25.375 48.3768 20.9093 47.7915C11.1922 46.5248 3.2791 39.5256 0.801737 30.1132C0.424921 28.6701 0.160347 27.2029 0.0721563 25.7117C0.064139 25.5914 0.0881911 25.4712 0 25.367C0 24.461 0 23.555 0 22.6491C0.0881911 22.0478 0.0400869 21.4304 0.120261 20.8291C0.344747 19.0332 0.79372 17.3015 1.41106 15.6018C2.32504 13.1164 3.63989 10.8555 5.3075 8.79505C7.27176 6.35777 9.65292 4.41757 12.3868 2.89427C14.8722 1.50727 17.534 0.649407 20.3321 0.176382C20.9253 0.0801737 21.5266 0.0721563 22.1279 0.0400869C22.2803 0.0320695 22.4486 0.0881911 22.593 0C23.555 0 24.5171 0 25.4792 0Z" fill="#0067FB"/>
<path d="M13.357 26.4012C14.4634 30.4019 16.8606 33.1198 20.7731 34.3865C25.6797 35.982 31.1796 33.7131 33.6089 29.1512C33.7452 28.8946 33.8895 28.7904 34.1862 28.7984C35.509 28.8145 36.8319 28.8145 38.1548 28.7984C38.3953 28.7984 38.4754 28.8465 38.4754 29.1031C38.4674 31.2598 38.4835 33.4244 38.4674 35.5811C38.4594 37.0884 37.2488 38.307 35.7415 38.3952C35.6373 38.4032 35.5251 38.4032 35.4208 38.4032C27.8364 38.4032 20.252 38.4032 12.6675 38.4032C11.0801 38.4032 9.93361 37.4812 9.66102 35.974C9.62895 35.7816 9.62895 35.5731 9.62093 35.3807C9.62093 29.8647 9.62093 24.3408 9.61292 18.8248C9.61292 18.464 9.71714 18.3999 10.0539 18.3999C19.3861 18.4079 28.7183 18.4079 38.0505 18.3999C38.4193 18.3999 38.4754 18.5041 38.4754 18.8408C38.4594 21.214 38.4594 23.5871 38.4754 25.9603C38.4754 26.313 38.4033 26.4173 38.0265 26.4173C29.9931 26.4012 21.9516 26.4092 13.9182 26.4092C13.7499 26.4012 13.5895 26.4012 13.357 26.4012Z" fill="#FEFEFE"/>
<path d="M24.028 16.0027C19.3539 16.0027 14.6878 16.0027 10.0137 16.0107C9.67694 16.0107 9.59676 15.9225 9.60478 15.5938C9.62883 14.5515 9.6128 13.5173 9.6128 12.4751C9.62081 10.9277 10.8154 9.67699 12.3628 9.60484C12.5071 9.59682 12.6594 9.59682 12.8037 9.59682C20.2919 9.59682 27.7802 9.62087 35.2684 9.58079C37.1525 9.57277 38.5475 10.9117 38.4673 12.8038C38.4272 13.6937 38.4433 14.5916 38.4673 15.4816C38.4833 15.8824 38.3952 16.0107 37.9622 16.0107C33.3202 15.9947 28.6781 16.0027 24.028 16.0027Z" fill="#FEFEFE"/>
<path d="M17.0448 28.8224C21.7109 28.8224 26.3289 28.8224 30.9389 28.8224C30.2013 30.2495 27.8923 32.1096 24.982 32.4623C21.9514 32.8311 18.7044 31.3639 17.0448 28.8224Z" fill="#FEFEFE"/>
<path d="M21.0535 24.1643C20.9573 24.1643 20.8691 24.1563 20.7729 24.1643C20.2277 24.2124 19.8509 24.1403 19.4901 23.571C18.6643 22.2883 16.7161 22.4807 16.0266 23.8517C15.8903 24.1242 15.738 24.1724 15.4814 24.1724C14.9041 24.1643 14.3349 24.1483 13.7577 24.1724C13.437 24.1884 13.4049 24.0601 13.469 23.8036C13.9501 22.0157 15.0885 20.8451 16.8925 20.4362C19.3378 19.883 21.6548 21.3983 22.232 23.8276C22.2962 24.1002 22.2481 24.1884 21.9675 24.1643C21.6708 24.1483 21.3662 24.1643 21.0535 24.1643Z" fill="#0067FB"/>
<path d="M27.0184 24.1644C26.7138 24.1644 26.4011 24.1403 26.0964 24.1724C25.7677 24.2044 25.7517 24.0441 25.8158 23.7956C26.1445 22.5048 26.8661 21.5026 28.0527 20.8772C30.7144 19.4662 33.8251 20.8692 34.5627 23.7956C34.6429 24.1163 34.5708 24.1804 34.2581 24.1644C33.6728 24.1403 33.0875 24.1483 32.4943 24.1644C32.2698 24.1724 32.1495 24.1002 32.0373 23.8918C31.6524 23.1221 31.0111 22.7132 30.1452 22.7293C29.2953 22.7453 28.678 23.1702 28.3092 23.9238C28.213 24.1163 28.1168 24.1724 27.9164 24.1644C27.6357 24.1563 27.3311 24.1644 27.0184 24.1644Z" fill="#0067FB"/>
</g>
<defs>
<clipPath id="clip0_2_5874">
<rect width="48.0641" height="48" fill="white"/>
</clipPath>
</defs>
</svg>
