<svg width="48" height="48" viewBox="0 0 48 48" fill="none" xmlns="http://www.w3.org/2000/svg">
<path d="M23.9937 47.9874C37.245 47.9874 47.9874 37.245 47.9874 23.9937C47.9874 10.7423 37.245 0 23.9937 0C10.7423 0 0 10.7423 0 23.9937C0 37.245 10.7423 47.9874 23.9937 47.9874Z" fill="url(#paint0_linear_2_10038)"/>
<path d="M24.0442 32.6773C23.9432 32.7405 23.8927 32.6521 23.8423 32.6142C21.1791 31.0113 18.5286 29.4084 15.878 27.8054C15.8149 27.7675 15.7518 27.7423 15.6887 27.7044C15.613 27.6666 15.6003 27.5908 15.6003 27.5151C15.6003 27.4268 15.6003 27.3384 15.6003 27.2501C15.6003 24.5869 15.6003 21.9364 15.6003 19.2732C15.6003 19.1091 15.5751 18.945 15.6887 18.8062C15.9664 18.8946 16.1936 19.0965 16.446 19.2227C16.5343 19.2732 16.6227 19.3237 16.6984 19.3742C18.3266 20.3587 19.9674 21.3431 21.5956 22.3403C22.3529 22.7946 23.1102 23.2616 23.8675 23.716C23.9306 23.7539 23.9811 23.7917 24.0568 23.7917C24.1199 23.8675 24.1073 23.9558 24.1073 24.0442C24.1073 26.8209 24.1073 29.5977 24.1073 32.3744C24.0947 32.4628 24.0694 32.5764 24.0442 32.6773Z" fill="#F4F7F4"/>
<path d="M15.6636 18.8063C15.6636 21.7724 15.6636 24.7385 15.6636 27.7046C14.818 28.2221 13.9723 28.7269 13.1267 29.2444C13.0383 29.2949 12.9626 29.358 12.8742 29.4085C12.2305 29.7998 11.5742 30.1784 10.9305 30.5697C9.80717 31.2513 8.68385 31.9202 7.56053 32.6018C7.35858 32.7154 7.35858 32.7154 7.35858 32.4882C7.35858 29.6609 7.35858 26.8337 7.35858 24.0064C7.35858 23.855 7.40907 23.7793 7.53528 23.7035C10.2111 22.088 12.8868 20.4724 15.55 18.8568C15.5879 18.8316 15.6257 18.7937 15.6636 18.8063Z" fill="#FEFEFE"/>
<path d="M24.0445 32.6774C23.9941 32.6017 24.0067 32.526 24.0067 32.4376C24.0067 29.6356 24.0067 26.8336 24.0067 24.0316C24.0067 23.9433 24.0067 23.8549 24.0445 23.7792C24.9533 23.2239 25.8747 22.6685 26.7834 22.1131C28.601 21.0151 30.4185 19.9044 32.236 18.8063C32.2486 18.7937 32.2739 18.8063 32.2991 18.7937C32.4001 18.8441 32.4253 18.9199 32.4379 19.0209C32.4379 19.0966 32.4379 19.1849 32.4379 19.2607C32.4379 21.9112 32.4379 24.5617 32.4379 27.2123C32.4379 27.3006 32.4379 27.4016 32.4253 27.49C32.4253 27.5783 32.3874 27.6414 32.2991 27.6793C31.2389 28.323 30.1913 28.9667 29.1311 29.5978C27.4903 30.5949 25.8368 31.5794 24.196 32.5765C24.1329 32.627 24.0824 32.6522 24.0445 32.6774Z" fill="#FEFEFE"/>
<path d="M32.2863 27.6919C32.3368 27.6035 32.3241 27.5152 32.3241 27.4142C32.3241 24.6374 32.3241 21.8733 32.3241 19.0966C32.3241 18.9956 32.3368 18.8946 32.2863 18.7936C32.362 18.7431 32.3999 18.8189 32.4377 18.8441C35.1261 20.4597 37.8145 22.0879 40.503 23.7161C40.5913 23.7666 40.6292 23.8297 40.6292 23.9433C40.6292 26.7957 40.6292 29.6609 40.6292 32.5133C40.6292 32.7153 40.5661 32.69 40.4398 32.6017C38.2815 31.3017 36.1232 29.989 33.9649 28.689C33.4601 28.3861 32.9552 28.0705 32.4504 27.7676C32.3999 27.7424 32.3368 27.7297 32.2863 27.6919Z" fill="#F4F7F4"/>
<path d="M17.5695 17.6198C18.0997 17.3043 18.6298 16.9888 19.1473 16.6732C20.7123 15.7392 22.2648 14.7926 23.8299 13.8586C23.9308 13.7955 23.994 13.7702 24.1202 13.8334C26.2027 15.0955 28.2853 16.3451 30.3679 17.5946C30.3805 17.6072 30.3931 17.6072 30.4057 17.6198C30.3931 17.6956 30.3174 17.7082 30.2669 17.7461C28.2222 18.983 26.1775 20.2073 24.1328 21.4316C24.0571 21.482 23.994 21.5073 23.893 21.4442C21.7978 20.182 19.7026 18.9199 17.6074 17.6577C17.5948 17.6577 17.5948 17.6451 17.5695 17.6198Z" fill="#FEAE00"/>
<defs>
<linearGradient id="paint0_linear_2_10038" x1="7.02908" y1="7.02908" x2="40.9685" y2="40.9685" gradientUnits="userSpaceOnUse">
<stop stop-color="#0050F1"/>
<stop offset="0.7415" stop-color="#0022AF"/>
<stop offset="1" stop-color="#0020AD"/>
</linearGradient>
</defs>
</svg>
