<svg width="48" height="48" viewBox="0 0 48 48" fill="none" xmlns="http://www.w3.org/2000/svg">
<path d="M24 48C37.2548 48 48 37.2548 48 24C48 10.7452 37.2548 0 24 0C10.7452 0 0 10.7452 0 24C0 37.2548 10.7452 48 24 48Z" fill="url(#paint0_linear_2_3770)"/>
<path d="M12.1872 31.1999V19.9039L20.7536 26.3511V31.1999H22.94V25.8959C22.9396 25.6988 22.8935 25.5045 22.8054 25.3282C22.7172 25.152 22.5894 24.9985 22.432 24.8799L12.0432 17.0583C11.8532 16.9172 11.6278 16.8315 11.392 16.8108C11.1562 16.7901 10.9193 16.8352 10.7076 16.941C10.4958 17.0469 10.3176 17.2094 10.1927 17.4104C10.0678 17.6115 10.0011 17.8432 10 18.0799V31.1999H12.1872ZM35.8784 31.1999V19.9039L27.312 26.3511V31.1999H25.1256V25.8959C25.126 25.6988 25.1721 25.5045 25.2602 25.3282C25.3484 25.152 25.4762 24.9985 25.6336 24.8799L36.0224 17.0615C36.2122 16.9206 36.4373 16.8349 36.6728 16.8141C36.9084 16.7932 37.145 16.838 37.3566 16.9435C37.5682 17.049 37.7465 17.211 37.8716 17.4116C37.9968 17.6122 38.0639 17.8435 38.0656 18.0799V31.1999H35.8784Z" fill="white"/>
<defs>
<linearGradient id="paint0_linear_2_3770" x1="24" y1="0" x2="24" y2="48" gradientUnits="userSpaceOnUse">
<stop stop-color="#4FA89B"/>
<stop offset="1" stop-color="#6ACEBB"/>
</linearGradient>
</defs>
</svg>
