<svg width="48" height="48" viewBox="0 0 48 48" fill="none" xmlns="http://www.w3.org/2000/svg">
<path d="M48 24C48 37.2548 37.2548 48 24 48C10.7452 48 0 37.2548 0 24C0 10.7452 10.7452 0 24 0C37.2548 0 48 10.7452 48 24Z" fill="white"/>
<path fill-rule="evenodd" clip-rule="evenodd" d="M21.9305 6.08369C20.7086 6.31003 18.1526 7.3038 17.1267 7.95127C15.7082 8.84673 13.8077 10.8864 12.9874 12.3939C11.5827 14.9747 11.5 15.807 11.5 27.3635V38H24.0294H36.5588L36.4808 26.5916L36.4028 15.1833L35.571 13.4273C35.1136 12.4617 34.3509 11.1863 33.876 10.5933C32.7175 9.14582 30.1054 7.31423 28.2908 6.6764C26.848 6.16922 23.2693 5.83596 21.9305 6.08369ZM27.4874 7.09466C30.379 7.97213 33.4093 10.4212 34.6766 12.9052C35.9202 15.3431 36.0117 16.3257 36.0117 27.2357V37.4837L24.0818 37.4159L12.1519 37.3481L12.0802 27.8303C12.0372 22.131 12.1177 17.5992 12.2807 16.5348C12.9279 12.3125 16.0688 8.611 20.2006 7.20184C21.8966 6.62321 25.747 6.56662 27.4874 7.09466ZM21.4152 8.4136C17.6402 9.4723 14.8075 12.4372 13.9796 16.1966C13.644 17.721 13.584 19.6321 13.6437 26.9176L13.7165 35.7835L24.0818 35.8516L34.4471 35.9199V26.4464C34.4471 16.0156 34.3634 15.3129 32.832 12.9011C31.7167 11.1446 29.7096 9.43475 28.0217 8.80318C26.0641 8.0707 23.2328 7.90381 21.4152 8.4136ZM20.9052 13.1258C23.8993 14.0135 26.1379 15.717 27.3645 18.0412L28.0584 19.3555L28.1419 26.7233C28.2384 35.2664 28.551 34.4797 25.0597 34.4797C22.4432 34.4797 20.6272 33.7777 18.7375 32.0358C16.2023 29.6991 15.5614 27.3486 15.733 21.0181C15.8545 16.5272 16.1092 15.3249 17.3132 13.5553C17.9886 12.5626 18.7135 12.476 20.9052 13.1258ZM22.8432 18.4832C22.5563 18.6399 22.1746 18.9528 21.9947 19.1784C21.7409 19.4963 21.598 19.5184 21.3558 19.2762C21.0374 18.9578 20.1052 18.8399 20.1052 19.1182C20.1052 19.2027 20.368 19.4848 20.6893 19.7448C21.2254 20.179 21.2796 20.471 21.3506 23.3068L21.4278 26.3961L20.8217 25.679C20.4885 25.2844 20.1323 24.9619 20.0301 24.9619C19.6126 24.9619 19.8848 25.952 20.4478 26.4811C21.2755 27.2587 22.2867 27.2102 22.9545 26.3609C23.5903 25.5528 23.6534 24.9619 23.1039 24.9619C22.8888 24.9619 22.7128 25.1235 22.7128 25.3212C22.7128 25.5186 22.5368 25.8263 22.3217 26.0049C21.9785 26.2897 21.9305 26.0109 21.9305 23.729C21.9305 19.9487 22.4014 18.9643 24.2104 18.9643C25.1947 18.9643 25.8041 19.4366 26.0615 20.3988C26.2965 21.2775 26.7113 21.3487 26.8388 20.5323C26.8923 20.1899 26.5929 19.6632 26.0174 19.0877C25.0542 18.1244 23.9006 17.9048 22.8432 18.4832ZM17.2368 21.724C17.2368 22.7728 17.328 23.1496 17.5627 23.0716C17.7421 23.0119 17.9474 22.6416 18.0191 22.2486L18.1494 21.5339L18.9064 22.3258C19.3229 22.7615 19.7628 23.0565 19.8843 22.9814C20.0058 22.9065 20.1052 22.3827 20.1052 21.8173C20.1052 21.0778 19.9956 20.7897 19.714 20.7897C19.4851 20.7897 19.3229 21.0272 19.3229 21.3623C19.3229 21.8995 19.2694 21.883 18.4629 21.1015C17.9901 20.6431 17.5207 20.2681 17.4198 20.2681C17.3192 20.2681 17.2368 20.9234 17.2368 21.724ZM23.2343 21.3112C22.6633 21.8823 22.579 22.2408 22.9605 22.4765C23.0966 22.5608 23.3355 22.3915 23.4912 22.1008C23.8617 21.4087 24.3783 21.4304 24.8732 22.1587C25.2393 22.6971 25.2873 22.7071 25.4584 22.2794C25.6852 21.7109 24.9298 20.7897 24.237 20.7897C23.9723 20.7897 23.5212 21.0243 23.2343 21.3112ZM20.4924 34.0612L21.5315 34.6101H19.9057H18.2798V33.5217V32.433L18.8665 32.9725C19.1894 33.2692 19.9208 33.7592 20.4924 34.0612Z" fill="black"/>
</svg>
