<svg width="48" height="48" viewBox="0 0 48 48" fill="none" xmlns="http://www.w3.org/2000/svg">
<path d="M0 24C0 10.7452 10.7452 0 24 0C37.2548 0 48 10.7452 48 24C48 37.2548 37.2548 48 24 48C10.7452 48 0 37.2548 0 24Z" fill="#FF65F7"/>
<circle cx="24" cy="24" r="24" fill="white"/>
<g clip-path="url(#clip0_2_10729)">
<path d="M32.6159 25.0794C30.9861 26.6905 29.3563 28.3015 27.7266 29.9126C27.7078 30.306 27.4268 30.5308 27.1833 30.7368C26.2841 31.4487 25.4786 32.2542 24.673 33.0598C24.2047 33.5281 23.7364 33.5468 23.3242 33.041C22.7435 32.2917 21.6757 32.0107 21.376 30.9991C18.1539 27.8894 14.9317 24.7797 11.6909 21.6699C10.5669 20.5834 9.44288 19.5156 8.31888 18.4291C8.05662 18.1855 7.81308 18.0169 8.20648 17.6235C11.0539 14.8323 13.8827 12.0223 16.7114 9.21231C16.9549 9.02498 17.1797 8.81891 17.4982 9.19358C19.409 11.4978 21.9005 13.2774 23.6802 15.6566C26.0031 18.7475 28.9817 21.1454 31.5294 23.9741C31.8666 24.3488 32.3911 24.5923 32.6159 25.0794Z" fill="#FE007E"/>
<path d="M18.6037 43.4754C20.9454 42.4638 22.238 40.4218 23.7928 38.6234C26.9962 34.9143 31.1363 33.3219 36.0069 33.528C36.3254 33.5467 36.5502 33.6404 36.7188 33.8839C36.9811 34.2586 37.2995 34.6145 37.5056 35.0267C38.4797 36.8813 38.1425 37.4995 36.1006 37.4058C33.7027 37.2934 31.4735 37.6868 29.3753 38.9044C27.8205 39.8036 26.6028 41.04 25.6662 42.52C24.9356 43.6814 24.0176 44.131 22.6501 43.9624C21.3388 43.8126 19.99 43.7751 18.6037 43.4754Z" fill="black"/>
<path d="M21.3756 31.0177C22.0874 31.6734 22.818 32.2916 23.4924 32.9847C23.8671 33.3594 24.0731 33.3594 24.4665 32.9847C25.5343 31.9357 26.6396 30.9428 27.7261 29.9125C29.8805 30.2871 31.9786 30.8117 34.1704 31.9544C33.3649 32.0481 32.7841 32.1417 32.2034 32.1792C31.6227 32.2167 31.0232 32.2167 30.4237 32.1979C28.5879 32.123 26.8457 32.4789 25.1784 33.2657C23.38 34.1275 21.9563 35.3639 20.851 36.9937C19.2587 39.2978 17.1418 40.8902 14.5754 41.9954C14.1445 42.1828 13.7886 42.2015 13.3577 41.9767C12.0089 41.321 10.7351 40.5717 9.76093 39.3166C10.529 39.148 11.2409 39.0543 11.9153 38.8295C14.2382 38.0802 16.2426 36.8438 17.6664 34.7831C18.6967 33.3219 19.8582 31.9731 21.3756 31.0177Z" fill="black"/>
<path d="M24.1297 2.03751C25.0851 3.01164 25.9656 4.0607 26.9959 4.9599C27.9888 5.82163 28.7943 6.87069 29.8059 7.73242C30.7988 8.57542 31.6043 9.60575 32.541 10.5049C33.3652 11.3105 34.1895 12.0973 34.9763 12.959C36.2502 14.3453 37.6552 15.6004 39.004 16.9117C39.1538 17.0616 39.3224 17.2115 39.4723 17.3801C39.8844 17.8484 40.0156 18.2605 39.3786 18.6914C38.8916 19.0286 38.4982 19.4782 38.0673 19.8716C37.7863 20.0027 37.6739 19.7592 37.5428 19.6093C33.1779 15.207 28.7943 10.8047 24.3733 6.45856C24.0361 6.12136 23.9424 5.70923 23.8113 5.2971C23.7363 4.99736 23.7551 4.71636 23.7363 4.41663C23.7363 3.7797 23.7176 3.1615 23.7738 2.52457C23.8113 2.31851 23.8675 2.09371 24.1297 2.03751Z" fill="#FE602D"/>
<path d="M16.8237 30.3623C14.838 33.4908 12.3652 35.8324 8.82463 37.0314C8.69349 35.5327 9.38663 34.4275 10.3982 33.4908C12.1966 31.8048 14.4259 30.9993 16.8237 30.3623Z" fill="#010101"/>
<path d="M37.3184 20.6022C37.1873 20.7333 37.0561 20.8457 36.925 20.9769C36.4567 20.9769 36.1944 20.6584 35.9134 20.3774C32.148 16.612 28.4201 12.8466 24.636 9.09997C24.2801 8.74403 23.9803 8.35064 23.8679 7.84484C23.8305 7.6575 23.8492 7.48891 23.9616 7.32031C24.5236 7.22664 24.7859 7.69497 25.0856 7.9947C28.7948 11.6852 32.504 15.3756 36.1944 19.0848C36.6627 19.5531 37.1123 19.984 37.3184 20.6022Z" fill="#FE4E41"/>
<path d="M32.6159 25.0791C32.5222 24.667 33.2528 24.4797 33.0093 24.1237C32.6346 23.5617 32.1476 23.0747 31.6793 22.5689C30.4991 21.3138 29.1503 20.2272 27.9888 18.9159C26.9397 17.7357 25.6846 16.7616 24.6168 15.6001C24.2609 15.2254 24.0173 14.8508 23.8113 14.4012C24.111 13.8954 24.4295 14.1202 24.7292 14.3824C25.1413 14.7196 25.4973 15.113 25.8719 15.4877C28.4759 18.1291 31.136 20.6956 33.7024 23.3557C33.8148 23.3369 33.9272 23.2995 34.0396 23.3369C34.152 23.4119 34.227 23.4868 34.1333 23.6179C33.6837 24.1612 33.1779 24.667 32.6159 25.0791Z" fill="#FE066E"/>
<path d="M24.0174 5.42801C24.186 5.85887 24.467 6.17734 24.7855 6.51454C29.0379 10.7483 33.2904 14.982 37.5241 19.2344C37.7114 19.4218 37.8988 19.6466 38.0674 19.8526C37.9175 19.965 37.7864 20.0962 37.6365 20.2086C37.318 20.2648 37.2056 20.0025 37.037 19.8339C32.9906 15.7688 28.9255 11.7224 24.8791 7.676C24.4857 7.2826 24.0549 6.90794 23.8488 6.36467C23.8113 6.23354 23.7739 6.08367 23.7739 5.95254C23.8113 5.74647 23.8488 5.55914 24.0174 5.42801Z" fill="#FE5935"/>
<path d="M24.0172 6.36469C24.3357 6.70188 24.6167 7.07655 24.9539 7.39502C28.9066 11.3477 32.8406 15.2817 36.7933 19.2344C37.093 19.5342 37.374 19.8901 37.655 20.2086C37.6363 20.4334 37.4864 20.5083 37.3178 20.602C36.8307 20.4146 36.7183 19.9088 36.3999 19.5904C32.3348 15.5627 28.2696 11.5351 24.2233 7.50741C24.1483 7.45122 24.0921 7.37628 24.0359 7.30135C23.9985 7.26388 23.961 7.22642 23.9235 7.18895C23.7737 6.88922 23.7549 6.60822 24.0172 6.36469Z" fill="#FE543B"/>
<path d="M34.1337 23.637C34.0588 23.562 34.0026 23.4871 33.9277 23.4122C30.6868 20.2275 27.5022 17.0054 24.2988 13.802C23.9428 13.4648 23.718 13.0714 23.8492 12.5469C23.8866 12.4532 23.9241 12.3783 23.999 12.3221C24.3737 12.2471 24.5798 12.5094 24.7858 12.7155C26.8278 14.7199 28.851 16.7431 30.8554 18.7851C32.2042 20.1526 33.6279 21.4639 34.9393 22.8689C34.677 23.1312 34.4147 23.3747 34.1337 23.637Z" fill="#FE2462"/>
<path d="M36.9996 39.1479C35.0888 41.602 32.3912 42.5574 29.5063 43.1756C31.5482 41.0025 34.0585 39.6725 36.9996 39.1479Z" fill="#020202"/>
<path d="M24.0172 7.86337C24.2232 8.35044 24.5792 8.7251 24.9538 9.09977C28.5693 12.6966 32.1661 16.3121 35.7629 19.9089C36.1376 20.2835 36.531 20.6207 36.9244 20.9767C36.7932 21.1078 36.6808 21.2202 36.5497 21.3513C36.1188 21.3701 35.8566 21.0891 35.613 20.8081C33.0653 18.1854 30.3865 15.6751 27.8949 12.9776C26.8646 11.8723 25.6844 10.8794 24.6166 9.81163C24.3544 9.54937 24.0546 9.30584 23.886 8.96864C23.8298 8.8375 23.8111 8.68764 23.7924 8.5565C23.7924 8.29424 23.7924 8.03197 24.0172 7.86337Z" fill="#FE4946"/>
<path d="M35.5199 22.3071C35.4637 22.3633 35.3888 22.4195 35.3326 22.4757C34.9017 22.663 34.6394 22.4007 34.3584 22.1385C32.5601 20.415 30.8179 18.6541 29.0757 16.8744C27.3522 15.1322 25.4976 13.5212 23.924 11.6291C23.8865 11.5354 23.8491 11.4605 23.8303 11.3668C23.7929 11.1233 23.8116 10.8985 23.9427 10.6924C24.3736 10.4676 24.5609 10.8236 24.7857 11.0671C28.0641 14.5702 31.5297 17.886 34.9204 21.2767C35.2014 21.5765 35.4262 21.8949 35.5199 22.3071Z" fill="#FE3359"/>
<path d="M35.519 22.3069C32.4843 19.2721 29.4869 16.2373 26.4334 13.2025C25.6092 12.3782 24.9348 11.3854 23.9981 10.6548C23.9232 10.5986 23.8857 10.5236 23.8482 10.4487C23.8108 10.2801 23.8295 10.0928 23.9232 9.94289C23.9981 9.88669 24.073 9.86796 24.1667 9.88669C28.1194 13.8207 32.0721 17.7547 36.0061 21.7261C35.8375 21.9135 35.6689 22.1195 35.519 22.3069Z" fill="#FE3954"/>
<path d="M23.9986 11.61C25.2537 12.8277 26.4901 14.0641 27.764 15.2817C29.8059 17.23 31.6605 19.3843 33.8336 21.2014C34.3394 21.6323 34.508 22.4566 35.3322 22.5128C35.2011 22.6439 35.07 22.7563 34.9576 22.8874C33.9085 22.5877 33.4027 21.5948 32.6908 20.9017C30.012 18.3353 27.4081 15.6751 24.7854 13.0337C24.5419 12.7902 24.2796 12.5841 24.0173 12.3593C23.7925 12.0971 23.7925 11.8535 23.9986 11.61Z" fill="#FE2B5D"/>
<path d="M24.0171 8.98727C25.572 10.4859 27.1643 11.9471 28.663 13.5207C31.0608 16.0123 33.5336 18.4288 35.9877 20.8642C36.1563 21.0328 36.3623 21.1826 36.5497 21.3325C36.4935 21.5011 36.3436 21.5198 36.1937 21.5386C35.7629 21.651 35.5943 21.295 35.3695 21.0702C31.8102 17.5484 28.2696 14.0078 24.7477 10.4485C24.4292 10.13 24.0733 9.79281 23.9047 9.34321C23.886 9.21207 23.9047 9.08094 24.0171 8.98727Z" fill="#FE434C"/>
<path d="M23.9989 9.36197C25.048 10.4485 26.097 11.5538 27.1836 12.6216C29.9186 15.3754 32.6724 18.1104 35.4262 20.8642C35.6697 21.1077 35.932 21.3138 36.1943 21.5386C36.1381 21.5948 36.0631 21.6697 36.0069 21.7259C35.651 21.7259 35.4637 21.4637 35.2389 21.2576C31.6983 17.6983 28.1577 14.1577 24.6171 10.6171C24.3923 10.3923 24.205 10.1488 24.0176 9.92397C23.849 9.73663 23.849 9.5493 23.9989 9.36197Z" fill="#FE3F50"/>
<path d="M24.0175 7.86336C24.0175 8.10689 24.0175 8.36915 23.9988 8.61269C23.7365 9.04355 23.4555 8.80002 23.2307 8.59395C22.2379 7.61982 21.2075 6.66442 20.2896 5.61536C20.4957 5.31563 20.7392 5.05336 21.0389 4.86603C21.8819 5.16576 22.3877 5.89636 23.0059 6.45836C23.3244 6.75809 23.6054 7.07656 23.9988 7.28262H24.0175C24.0175 7.48869 24.0175 7.67602 24.0175 7.86336Z" fill="#EA4069"/>
<path d="M20.2894 5.61526C21.4696 6.2522 22.2003 7.37619 23.1744 8.23793C23.3992 8.44399 23.5491 8.87486 23.9987 8.61259C23.9987 8.74372 23.9987 8.85612 24.0174 8.98726C24.0174 9.11839 24.0174 9.23079 24.0174 9.36192C24.0174 9.54926 24.0174 9.73659 24.0174 9.92392C23.4554 10.0176 23.1931 9.53052 22.8559 9.26826C21.7881 8.44399 21.0304 8.86176 20 8.00003C19.9064 7.9251 17.5437 8.73116 17.5999 8.60003C17.7123 8.4127 20.1396 5.8026 20.2894 5.61526Z" fill="#F03B69"/>
<path d="M23.9983 12.5469C23.2865 12.2846 22.8743 11.6851 22.3685 11.1793C21.0947 9.94294 19.8395 8.70654 18.5657 7.47014C18.753 7.28281 18.9403 7.09548 19.1277 6.90814C19.5023 6.90814 19.7646 7.15167 20.0081 7.39521C21.3382 8.74401 22.7057 10.0553 24.0171 11.4229C24.0171 11.4791 24.0171 11.554 24.0171 11.6102C24.0171 11.8537 24.0171 12.116 24.0171 12.3595C23.9983 12.4157 23.9983 12.4719 23.9983 12.5469Z" fill="#FD286D"/>
<path d="M32.6161 25.0795C32.2415 24.9297 31.923 24.6674 31.642 24.3864C29.2816 22.026 26.7526 19.8155 24.6358 17.249C23.3245 15.6754 21.9382 14.2142 20.5707 12.7156C19.4841 11.5354 18.0979 10.6174 17.2736 9.19371C17.0863 8.89398 16.9177 9.45597 16.7303 9.21244C17.8641 8.07867 17.8207 8.01737 18.4351 8.63171C20.3084 10.5238 22.3129 12.3034 24.0363 14.3454C24.7856 15.6754 25.9471 16.6121 26.9962 17.6611C29.0006 19.6469 31.0613 21.5951 32.9721 23.6745C33.5715 24.3677 32.8409 24.6487 32.6161 25.0795Z" fill="#FE0076"/>
<path d="M33.7397 23.5807C33.721 23.1124 33.3276 22.9063 33.0466 22.6253C28.3632 17.942 23.6799 13.24 18.9966 8.55665C18.7156 8.27565 18.3409 8.05085 18.3971 7.56379C18.4533 7.52632 18.5283 7.50759 18.5845 7.47012C18.8842 7.47012 19.109 7.61999 19.3151 7.82606C20.8887 9.39965 22.481 10.9358 24.0171 12.5468C23.9235 13.0714 24.2232 13.4086 24.5604 13.7458C27.4828 16.6494 30.4052 19.5718 33.3276 22.5129C33.5898 22.7752 33.9458 22.9625 33.9458 23.4121C33.8708 23.4683 33.8146 23.5245 33.7397 23.5807Z" fill="#FE1E70"/>
<path d="M33.74 23.5805C33.0094 22.8687 32.2601 22.1756 31.5295 21.4637C29.3002 19.2344 27.0523 16.9864 24.823 14.7572C24.542 14.4949 24.3172 14.064 23.8301 14.4012C21.9568 12.5092 20.1022 10.6171 18.2476 8.70632C17.5398 7.93952 17.488 8.74838 18.3975 7.54486C19.0532 8.29419 19.7838 8.98732 20.4769 9.69919C24.6731 14.1015 29.0005 18.3727 33.2904 22.6814C33.534 22.9249 33.9648 23.0935 33.74 23.5805Z" fill="#FE1273"/>
<path d="M23.9985 11.4228C23.5676 11.4228 23.3616 11.0669 23.0993 10.8046C21.7693 9.51204 20.4392 8.20071 19.1091 6.90811C19.2403 6.77698 19.3527 6.66458 19.4838 6.53345C19.9521 6.57091 20.2893 6.85191 20.5891 7.17038C21.6756 8.33184 22.7621 9.47457 23.9985 10.4862C23.9985 10.5424 23.9985 10.6173 23.9985 10.6735C23.9985 10.917 23.9985 11.1606 23.9985 11.4228Z" fill="#F92F6B"/>
<path d="M23.9984 10.4861C23.4926 10.4299 23.1742 10.1114 22.8182 9.79295C21.6942 8.72515 20.7014 7.50749 19.4837 6.55209C19.6148 6.42096 19.7272 6.30856 19.8584 6.17743C21.3196 7.33889 22.4061 8.89375 23.9797 9.94282C23.9984 10.1114 23.9984 10.2987 23.9984 10.4861Z" fill="#F6356A"/>
<path d="M23.9988 7.3014C23.7365 7.45127 23.493 7.39507 23.3244 7.17027C22.7062 6.25234 21.7133 5.70907 21.0389 4.86608C21.1513 4.62254 21.3574 4.43521 21.6009 4.30408C22.4814 4.39774 22.7624 5.24074 23.3619 5.69034C23.5492 5.84021 23.6429 6.1774 23.9988 5.99007C23.9988 6.1212 24.0175 6.2336 24.0175 6.36474C23.9988 6.6832 23.9988 6.98294 23.9988 7.3014Z" fill="#E2456A"/>
<path d="M23.9988 5.99033C23.8302 6.08399 23.8489 6.60853 23.4368 6.12146C22.8935 5.4658 22.2192 4.92253 21.601 4.32307C21.7696 4.13573 21.9569 3.92967 22.1255 3.74234C22.8186 3.59247 23.0621 4.26687 23.5679 4.49167C23.7178 4.5104 23.8489 4.41673 23.9988 4.49167C23.9988 4.81013 24.0175 5.10986 24.0175 5.42833C23.9988 5.61566 23.9988 5.80299 23.9988 5.99033Z" fill="#DB486B"/>
<path d="M23.9797 4.49134C23.8673 4.62248 23.7362 4.73488 23.6238 4.86601C23.3802 4.26654 22.556 4.09794 22.4998 3.36735C22.7246 3.10508 22.9119 2.78661 23.2304 2.61801C23.4926 2.58055 23.6987 2.35575 23.9797 2.43068C23.9984 3.12381 23.9797 3.79821 23.9797 4.49134Z" fill="#CF4872"/>
<path d="M22.4998 3.34891C22.7621 3.92964 23.5302 4.15444 23.6238 4.84757C23.0806 4.5291 22.7621 3.91091 22.1064 3.72357C22.2563 3.61117 22.3687 3.48004 22.4998 3.34891Z" fill="#D54D70"/>
<path d="M23.9982 2.43078C23.7734 2.56191 23.5674 2.84291 23.2489 2.61811C23.5486 2.43078 23.5861 1.85004 24.1294 2.03738C24.0732 2.16851 24.0357 2.29964 23.9982 2.43078Z" fill="#CB507F"/>
</g>
<defs>
<clipPath id="clip0_2_10729">
<rect width="31.8278" height="42" fill="white" transform="translate(8 2)"/>
</clipPath>
</defs>
</svg>
