<svg width="48" height="48" viewBox="0 0 48 48" fill="none" xmlns="http://www.w3.org/2000/svg">
<g clip-path="url(#clip0_2_16388)">
<path d="M47.9969 23.3278C47.9969 23.7758 47.9969 24.2238 47.9969 24.6719C47.9901 24.7187 47.98 24.7653 47.9774 24.8123C47.9596 25.1276 47.9472 25.4434 47.9263 25.7586C47.8451 26.9812 47.6636 28.1897 47.3863 29.3825C46.4417 33.4459 44.5662 37.0254 41.7697 40.1184C39.8135 42.282 37.5313 44.0276 34.9365 45.3614C32.8766 46.4203 30.7072 47.1613 28.431 47.5872C27.4204 47.7764 26.4019 47.9029 25.3745 47.9551C25.1315 47.9673 24.8885 47.9851 24.6455 48.0002C24.2135 48.0002 23.7816 48.0002 23.3496 48.0002C23.2944 47.9935 23.2394 47.9824 23.184 47.9807C21.8343 47.9411 20.4984 47.7822 19.1763 47.5118C16.8559 47.0374 14.652 46.2383 12.5724 45.1045C9.40182 43.3762 6.7388 41.0604 4.61481 38.1395C1.66606 34.0836 0.139699 29.5386 0.00764011 24.5276C-0.0334182 22.9688 0.0892765 21.4204 0.355075 19.883C0.767579 17.4958 1.51791 15.2198 2.63345 13.0706C4.95744 8.59313 8.34391 5.15552 12.7955 2.7799C15.9248 1.10996 19.2721 0.213639 22.8116 0.0309179C24.2407 -0.043035 25.6659 0.0167516 27.0847 0.198753C28.59 0.391799 30.0661 0.720025 31.5056 1.20216C36.0967 2.7398 39.8949 5.41243 42.891 9.21261C44.9801 11.8624 46.4318 14.8333 47.2621 18.1054C47.6377 19.5852 47.8682 21.0876 47.951 22.6122C47.964 22.8507 47.9815 23.0891 47.9969 23.3278ZM9.95239 10.9476C10.005 14.3941 11.6999 19.3682 16.6881 22.3738C21.2333 25.1125 27.0881 25.0145 31.5839 21.9536C33.8435 20.4153 35.5115 18.3828 36.5853 15.8686C37.2554 14.2995 37.6105 12.6584 37.6694 10.9503C36.0743 10.9503 34.4935 10.9503 32.9066 10.9503C32.8444 12.0584 32.5971 13.1143 32.1541 14.123C31.7092 15.1365 31.0988 16.0393 30.3257 16.8312C29.5554 17.6202 28.6709 18.2497 27.673 18.7194C26.6718 19.1905 25.6186 19.4719 24.5161 19.5516C22.4639 19.6998 20.5538 19.2411 18.8392 18.0999C16.2895 16.4028 14.9397 13.9891 14.6899 10.9476C13.1091 10.9476 11.5306 10.9476 9.95239 10.9476ZM10.6581 26.5469C10.6581 28.0355 10.6581 29.517 10.6581 31.0037C19.4258 31.0037 28.1868 31.0037 36.9534 31.0037C36.9534 29.5158 36.9534 28.0341 36.9534 26.5469C28.1883 26.5469 19.4301 26.5469 10.6581 26.5469ZM20.587 14.2095C20.587 15.9824 22.0271 17.4262 23.7955 17.4264C25.5848 17.4267 27.0226 15.9925 27.024 14.2056C27.0257 12.4293 25.5826 10.988 23.8034 10.9889C22.0247 10.9899 20.587 12.4293 20.587 14.2095ZM23.8044 39.6025C25.5922 39.5993 27.0257 38.1616 27.0242 36.373C27.0226 34.5979 25.5773 33.1623 23.7948 33.1652C22.0187 33.1681 20.5855 34.6109 20.5872 36.3946C20.5886 38.1635 22.035 39.6056 23.8044 39.6025Z" fill="#B61106"/>
<circle cx="24" cy="24" r="24" fill="white"/>
<g clip-path="url(#clip1_2_16388)">
<path d="M8 16.9215C8.02578 16.7873 8.04413 16.6514 8.07846 16.5195C8.34958 15.4782 9.311 14.7654 10.3854 14.8061C11.4993 14.8482 12.4218 15.6835 12.5744 16.7881C12.7472 18.0384 11.88 19.1963 10.637 19.3752C9.35846 19.5591 8.19346 18.6806 8.01914 17.4012C8.01392 17.3625 8.00649 17.3239 8 17.2853C8 17.164 8 17.0428 8 16.9215Z" fill="black"/>
<path d="M39.6362 17.2852C39.6102 17.4191 39.5912 17.5546 39.5571 17.6862C39.2932 18.7066 38.3305 19.4336 37.2951 19.3979C36.1823 19.3595 35.2743 18.5905 35.0785 17.5206C34.8407 16.2213 35.728 14.9962 37.0336 14.8209C38.313 14.6492 39.496 15.5818 39.6218 16.8608C39.6238 16.8812 39.6311 16.9012 39.636 16.9213C39.6362 17.0427 39.6362 17.1639 39.6362 17.2852Z" fill="black"/>
<path d="M23.9921 8C24.1492 8.03116 24.3094 8.05125 24.4625 8.09554C25.5065 8.39719 26.1955 9.39911 26.1087 10.4812C26.0207 11.5787 25.1609 12.4645 24.0676 12.5842C22.8221 12.7206 21.6903 11.8275 21.5378 10.5878C21.3828 9.3254 22.2651 8.1827 23.5214 8.01898C23.5571 8.01424 23.5927 8.00633 23.6283 8C23.7496 8 23.8708 8 23.9921 8Z" fill="black"/>
<path d="M23.7548 40C23.7303 39.9915 23.7058 39.9823 23.6811 39.9742C23.3959 39.8826 23.2227 39.6044 23.2672 39.3092C23.3104 39.0233 23.566 38.8029 23.8565 38.8016C24.146 38.8004 24.4053 39.0152 24.4502 39.2937C24.4994 39.5986 24.335 39.8751 24.0478 39.9715C24.0236 39.9796 24.0002 39.9904 23.9763 39.9999C23.9024 40 23.8287 40 23.7548 40Z" fill="black"/>
<path d="M32.9224 13.7034C32.9266 14.9577 31.8943 15.9949 30.6369 16.0002C29.3672 16.0052 28.3294 14.9788 28.3261 13.7144C28.3226 12.4416 29.3448 11.4069 30.6104 11.4025C31.8872 11.3979 32.9181 12.4237 32.9224 13.7034Z" fill="black"/>
<path d="M23.8129 19.3985C22.5383 19.3936 21.5149 18.3623 21.5199 17.0882C21.525 15.8197 22.5592 14.7956 23.8287 14.8023C25.1016 14.8089 26.1214 15.8431 26.1135 17.1195C26.1057 18.3797 25.0725 19.4034 23.8129 19.3985Z" fill="black"/>
<path d="M19.4002 20.415C19.4048 21.6629 18.3736 22.7062 17.1311 22.7106C15.8435 22.7154 14.8063 21.6986 14.8024 20.4278C14.7984 19.1551 15.8179 18.1234 17.0865 18.1161C18.3622 18.1089 19.3955 19.1354 19.4002 20.415Z" fill="black"/>
<path d="M23.8132 21.5144C25.0913 21.516 26.117 22.5464 26.1137 23.8258C26.1103 25.0923 25.0785 26.1135 23.8045 26.111C22.5419 26.1085 21.5186 25.0773 21.5199 23.8088C21.521 22.5437 22.5514 21.513 23.8132 21.5144Z" fill="black"/>
<path d="M32.9223 20.4225C32.9199 21.6918 31.8864 22.713 30.6067 22.7106C29.3466 22.7083 28.3238 21.6739 28.3261 20.4045C28.3283 19.1444 29.3574 18.1166 30.6168 18.1161C31.8955 18.1158 32.9245 19.1452 32.9223 20.4225Z" fill="black"/>
<path d="M19.3991 13.6529C19.4369 14.8259 18.5218 15.9477 17.1828 15.9969C15.9289 16.0429 14.8661 15.0761 14.806 13.7866C14.748 12.5414 15.7412 11.458 17.0044 11.4055C18.2964 11.3516 19.3676 12.3619 19.3991 13.6529Z" fill="black"/>
<path d="M18.7573 26.8014C18.7586 27.7351 17.9981 28.4995 17.067 28.5001C16.1143 28.5007 15.3574 27.7427 15.3569 26.7878C15.3566 25.8659 16.1263 25.1001 17.0533 25.1C17.9974 25.1 18.7561 25.8573 18.7573 26.8014Z" fill="black"/>
<path d="M10.3487 25.1012C9.39152 25.0977 8.6419 24.341 8.64601 23.3825C8.64997 22.4577 9.42236 21.6955 10.3495 21.7013C11.2928 21.7073 12.052 22.4736 12.0467 23.4147C12.0414 24.3442 11.2758 25.1045 10.3487 25.1012Z" fill="black"/>
<path d="M30.5744 28.5031C29.6199 28.4987 28.8715 27.7374 28.8783 26.778C28.8848 25.8582 29.6579 25.0976 30.5807 25.1033C31.5246 25.109 32.2826 25.8733 32.279 26.8158C32.2752 27.7483 31.5083 28.5076 30.5744 28.5031Z" fill="black"/>
<path d="M23.857 31.8157C22.9048 31.8043 22.151 31.0378 22.1627 30.0927C22.1741 29.1632 22.9445 28.4071 23.8709 28.416C24.8192 28.425 25.5734 29.1887 25.5634 30.13C25.5536 31.0675 24.7849 31.8268 23.857 31.8157Z" fill="black"/>
<path d="M37.3816 25.1012C36.4257 25.0956 35.6775 24.3372 35.6823 23.3788C35.6867 22.4612 36.4602 21.6977 37.382 21.7013C38.3382 21.7049 39.0911 22.48 39.0823 23.4517C39.0741 24.3537 38.2977 25.1066 37.3816 25.1012Z" fill="black"/>
<path d="M17.0571 30.8044C17.6838 30.7987 18.201 31.309 18.2058 31.9377C18.2105 32.5768 17.7018 33.0972 17.0688 33.1008C16.4362 33.1044 15.9155 32.5942 15.9104 31.9654C15.9049 31.3245 16.4128 30.8104 17.0571 30.8044Z" fill="black"/>
<path d="M25.0128 35.3583C25.0047 36.0071 24.49 36.5111 23.8424 36.504C23.2164 36.4971 22.7039 35.9676 22.7145 35.3387C22.7253 34.6999 23.2463 34.201 23.8936 34.2096C24.5086 34.2176 25.0204 34.743 25.0128 35.3583Z" fill="black"/>
<path d="M9.19788 28.5496C9.1963 27.9145 9.7096 27.4044 10.3505 27.4041C10.9768 27.4037 11.4937 27.9194 11.4942 28.5449C11.4947 29.1811 10.9788 29.7007 10.3474 29.7004C9.71055 29.7001 9.19946 29.1882 9.19788 28.5496Z" fill="black"/>
<path d="M37.3872 27.4042C38.012 27.4035 38.5297 27.9159 38.5301 28.5355C38.5306 29.1822 38.0213 29.7006 37.3859 29.7003C36.7487 29.7 36.2355 29.1873 36.235 28.5506C36.2344 27.9146 36.7467 27.4048 37.3872 27.4042Z" fill="black"/>
<path d="M29.4314 31.9528C29.4311 31.3153 29.9439 30.8064 30.5855 30.8074C31.2163 30.8083 31.7261 31.3234 31.7263 31.9599C31.7265 32.5855 31.2084 33.1029 30.5823 33.1026C29.9428 33.1022 29.4317 32.5918 29.4314 31.9528Z" fill="black"/>
<path d="M31.1738 36.0038C31.1731 36.3335 30.9039 36.6003 30.573 36.5994C30.2428 36.5984 29.9739 36.3297 29.9738 36.0007C29.9738 35.6725 30.245 35.3999 30.572 35.3998C30.9061 35.3995 31.1744 35.669 31.1738 36.0038Z" fill="black"/>
<path d="M10.9417 32.5987C10.9417 32.9278 10.6715 33.1978 10.3427 33.1975C10.0129 33.1972 9.74285 32.9287 9.74158 32.6C9.74032 32.271 10.0099 31.9984 10.3374 31.9973C10.6718 31.9961 10.9417 32.2647 10.9417 32.5987Z" fill="black"/>
<path d="M37.978 32.5985C37.9785 32.9289 37.7101 33.198 37.3807 33.1976C37.0506 33.1971 36.7815 32.9299 36.7793 32.6002C36.7771 32.2721 37.047 31.9988 37.3749 31.9972C37.7096 31.9956 37.9776 32.2626 37.978 32.5985Z" fill="black"/>
<path d="M17.6539 36.0033C17.6534 36.334 17.3856 36.6002 17.0544 36.5994C16.7227 36.5986 16.4566 36.3327 16.4563 36.0014C16.4558 35.6708 16.7238 35.4003 17.0523 35.3997C17.3859 35.399 17.6544 35.6682 17.6539 36.0033Z" fill="black"/>
</g>
</g>
<defs>
<clipPath id="clip0_2_16388">
<rect width="47.9969" height="48" fill="white"/>
</clipPath>
<clipPath id="clip1_2_16388">
<rect width="31.6362" height="32" fill="white" transform="translate(8 8)"/>
</clipPath>
</defs>
</svg>
