<svg width="48" height="48" viewBox="0 0 48 48" fill="none" xmlns="http://www.w3.org/2000/svg">
<path d="M24 0C37.2549 0 48 10.7451 48 24C48 37.2549 37.2549 48 24 48C10.7451 48 0 37.2549 0 24C0 10.7451 10.7451 0 24 0Z" fill="#1A82FF"/>
<path d="M32.7746 33.8825C30.6969 36.4279 27.7748 37.7006 24.0084 37.7006C20.242 37.7006 17.3195 36.4279 15.2409 33.8825C13.1618 31.3358 12.1227 28.0439 12.1237 24.0069C12.1246 19.9698 13.1632 16.6784 15.2395 14.1326C17.3172 11.5858 20.2398 10.3127 24.0071 10.3131C27.7744 10.3136 30.6964 11.5867 32.7732 14.1326C34.8509 16.6779 35.89 19.9694 35.8905 24.0069C35.8909 28.0443 34.8523 31.3362 32.7746 33.8825Z" fill="white"/>
<path d="M23.9644 32.3778C24.9559 32.3778 25.7989 32.1077 26.4933 31.5673C27.1877 31.027 27.6906 30.2942 28.0019 29.3689C28.3127 28.4432 28.5322 27.5559 28.6602 26.707C28.7882 25.8581 28.8517 24.9579 28.8508 24.0066C28.8508 22.8354 28.7799 21.7872 28.6382 20.8619L20.0956 29.7639C20.8855 31.5056 22.1751 32.3769 23.9644 32.3778Z" fill="#1A82FF"/>
<path d="M24.0496 15.6355C23.0581 15.6355 22.2151 15.9057 21.5207 16.446C20.8263 16.9864 20.3234 17.7192 20.0121 18.6444C19.6994 19.5702 19.48 20.4575 19.3538 21.3064C19.2258 22.1553 19.1623 23.0554 19.1632 24.0067C19.1632 24.6335 19.1833 25.225 19.2236 25.7814L27.3712 17.2922C26.5799 16.1882 25.4727 15.636 24.0496 15.6355Z" fill="#1A82FF"/>
<path d="M12.7871 32.4933L11.7379 31.4866L19.6935 23.1936L20.7427 24.2002L12.7871 32.4933ZM27.7767 23.8395L26.7276 22.8329L34.6832 14.5399L35.7323 15.5465L27.7767 23.8395Z" fill="#1A82FF"/>
</svg>
