<svg width="48" height="48" viewBox="0 0 48 48" fill="none" xmlns="http://www.w3.org/2000/svg">
<g clip-path="url(#clip0_2_3654)">
<path d="M21.0226 0.127407C10.6682 1.53407 2.33457 9.33816 0.429199 19.416C-0.764064 25.7749 0.544677 32.1531 4.18221 37.6063C5.45245 39.4947 8.62807 42.6934 10.4565 43.9074C13.2472 45.738 16.0956 46.9327 19.3867 47.6457C21.6577 48.1274 26.3538 48.1274 28.6249 47.6457C33.3209 46.6437 37.1124 44.6782 40.4613 41.518C44.0026 38.1459 46.3506 34.0608 47.3899 29.4554C49.199 21.4779 46.9857 13.3655 41.3851 7.41122C38.094 3.94274 33.3209 1.30284 28.5864 0.397179C26.604 0.0117912 22.8125 -0.123096 21.0226 0.127407Z" fill="white"/>
<path d="M8.47416 18.3372C5.97216 19.2428 4.37472 22.3452 4.95211 25.2356C5.2408 26.6808 5.56799 27.3552 6.47256 28.2994C7.66582 29.5905 8.43567 29.8795 10.5335 29.8795C12.2079 29.8795 12.4581 29.8217 13.3819 29.3207C15.0948 28.3572 16.0379 26.835 16.2496 24.6768C16.5191 21.7093 14.8062 18.9345 12.2849 18.2215C11.3034 17.9518 9.41722 18.0096 8.47416 18.3372ZM12.6891 20.7458C13.8246 21.5744 14.402 23.4821 13.9978 25.1585C13.228 28.3958 8.97456 29.0317 7.51185 26.122C6.62653 24.3877 7.08844 21.6708 8.43567 20.7266C9.55195 19.9172 11.5343 19.9365 12.6891 20.7458Z" fill="black"/>
<path d="M34.5142 18.4138C30.8959 19.859 29.8759 25.1967 32.6088 28.4339C34.0908 30.2067 37.5936 30.5343 39.1525 29.0313L39.5759 28.6266L39.6337 29.1661C39.6914 29.6479 39.7492 29.6864 40.6537 29.6864H41.616L41.6738 26.6419L41.7315 23.6166H39.0178H36.3233V24.58V25.5435H37.9593C39.7299 25.5435 39.7876 25.582 39.2872 26.6226C38.9408 27.3356 37.7091 28.0485 36.7852 28.0485C34.5719 28.0485 33.2439 26.4877 33.2439 23.9634C33.2632 21.1694 35.0531 19.57 37.4973 20.1481C38.4404 20.3793 39.4027 21.2079 39.4027 21.8052C39.4027 21.9979 39.6914 22.075 40.5575 22.075H41.693L41.4236 21.2079C40.8269 19.1846 39.345 18.1633 36.9007 18.0863C35.8229 18.0477 35.2263 18.1248 34.5142 18.4138Z" fill="black"/>
<path d="M17.847 24.0023V29.7831H18.8094H19.7717L19.8102 25.8907L19.8679 21.979L21.2921 25.8907L22.7163 29.8024L23.6786 29.7446L24.6409 29.6868L26.0459 25.8329L27.4509 21.979L27.5086 25.8329L27.5664 29.6868L28.5864 29.7446L29.5872 29.8024L29.5487 24.0601L29.491 18.3178H28.163H26.8158L25.2761 22.5956C24.4292 24.9658 23.6786 26.8349 23.6209 26.7385C23.5439 26.6615 22.8511 24.8309 22.0812 22.6534C21.3114 20.476 20.58 18.5876 20.4838 18.4527C20.3683 18.3178 19.8294 18.2215 19.0788 18.2215H17.847V24.0023Z" fill="black"/>
</g>
<defs>
<clipPath id="clip0_2_3654">
<rect width="48" height="48" fill="white"/>
</clipPath>
</defs>
</svg>
