<svg width="48" height="48" viewBox="0 0 48 48" fill="none" xmlns="http://www.w3.org/2000/svg">
<path d="M0 24C0 10.7452 10.7452 0 24 0C37.2548 0 48 10.7452 48 24C48 37.2548 37.2548 48 24 48C10.7452 48 0 37.2548 0 24Z" fill="black"/>
<g clip-path="url(#clip0_2_10643)">
<path d="M25.5562 48.0001C24.5986 48.0001 23.641 48.0001 22.6953 48.0001C22.1806 47.7966 21.642 47.8565 21.1033 47.7847C7.81652 46.049 -1.44832 33.8275 0.514769 20.6365C2.42998 7.75672 14.2205 -1.16098 27.1721 0.46695C37.3228 1.74775 45.618 9.51633 47.5213 19.5712C47.7128 20.6006 47.8325 21.642 47.9881 22.6834C47.9881 23.641 47.9881 24.5986 47.9881 25.5443C47.7966 26.059 47.8445 26.5976 47.7726 27.1243C46.444 37.1911 39.1063 45.2111 29.1831 47.4256C27.9861 47.7009 26.7651 47.7727 25.5562 48.0001ZM4.53671 26.1428C4.51277 33.8395 9.48036 40.6744 16.6744 42.9847C18.8529 43.6909 21.1153 43.8345 23.3537 44.1817C24.7422 44.3971 26.1307 44.3373 27.5193 44.1218C32.9537 43.2959 37.1312 40.5428 40.0878 35.9103C40.2435 35.659 40.3751 35.5512 40.6983 35.5991C41.4405 35.7188 42.039 35.4315 42.41 34.7852C42.7931 34.1148 42.7213 33.4325 42.2185 32.846C42.015 32.6186 42.039 32.463 42.1587 32.2236C43.8824 28.8839 44.445 25.3408 43.9422 21.63C43.9063 21.3547 43.8943 21.1512 44.1936 20.9956C44.5527 20.7921 44.6963 20.433 44.6125 20.0261C44.5287 19.5951 44.2415 19.2959 43.8105 19.26C43.4395 19.236 43.3557 19.0206 43.2719 18.7453C42.6853 16.9138 41.7996 15.2261 40.6504 13.6819C40.4709 13.4425 40.4469 13.2749 40.6145 13.0116C40.9617 12.449 40.8779 11.8625 40.4709 11.4196C40.0878 11.0006 39.4654 10.845 38.9507 11.1443C38.5916 11.3477 38.424 11.2041 38.1966 11.0006C36.1497 9.19314 33.8155 7.90037 31.1701 7.21807C29.9612 6.90685 28.7402 6.63154 27.5671 6.16471C27.208 6.02106 26.9806 5.9253 26.9926 5.4465C27.0045 4.38116 26.2026 3.51932 25.1492 3.35174C24.1557 3.19613 23.1143 3.77069 22.8031 4.77618C22.6594 5.23104 22.432 5.29089 22.0489 5.29089C18.7931 5.30286 15.7646 6.16471 12.9756 7.86446C12.6524 8.05598 12.4489 8.1278 12.1018 7.84052C11.6469 7.4455 11.0963 7.50535 10.6055 7.84052C10.1267 8.15174 9.88734 8.79812 10.1387 9.31284C10.3542 9.75573 10.1866 9.97119 9.89931 10.2585C7.25392 12.832 5.60205 15.9323 4.85991 19.5473C4.3811 21.7976 4.68036 24.048 4.53671 26.1428Z" fill="white"/>
<path d="M24.6106 9.48046C26.5139 9.32485 28.1657 10.079 29.8056 10.8451C30.0091 10.9408 30.069 11.1323 30.1647 11.2999C30.4879 11.8625 30.9787 12.1618 31.6251 12.1618C31.9243 12.1618 32.1518 12.2575 32.3792 12.4371C35.7428 15.0106 37.9333 18.3383 38.9149 22.468C38.9867 22.7912 38.9747 22.9827 38.6755 23.2101C37.9333 23.7847 38.0051 24.7902 38.7832 25.3288C39.0106 25.4845 39.1184 25.5922 39.0585 25.8914C38.053 30.883 35.4675 34.7613 31.1223 37.4904C28.3812 39.2141 25.4126 39.9922 22.2046 40.1119C20.2655 40.1837 18.5657 39.669 17.0216 38.5318C16.6026 38.2206 16.1837 37.9214 15.7767 37.6101C15.3338 37.287 14.9508 37.0356 15.2141 36.2934C15.5253 35.4196 14.5318 34.5578 13.6101 34.8451C13.1912 34.9767 13.0236 34.8451 12.7961 34.5578C11.0006 32.1757 9.91135 29.4944 9.46846 26.5498C9.42058 26.2027 9.45649 25.9034 9.63604 25.5922C10.043 24.886 10.0311 24.1318 9.58816 23.4376C9.39664 23.1264 9.34876 22.8391 9.38467 22.48C9.48043 21.5822 9.67195 20.7204 9.8515 19.8346C10.462 16.8061 12.449 14.7712 14.7473 12.9398C15.0106 12.7363 15.1543 12.856 15.3577 12.9997C15.6809 13.2151 16.04 13.2032 16.3752 12.9877C16.6984 12.7842 16.9139 12.449 16.8061 12.078C16.6984 11.683 16.8899 11.5633 17.1772 11.4076C19.5233 10.2106 22.0011 9.57622 24.6106 9.48046Z" fill="white"/>
<path d="M4.93175 22.5038C4.8719 20.6844 5.1951 18.9368 5.78163 17.249C6.70333 14.6156 8.17564 12.3293 10.1866 10.3901C10.414 10.1747 10.5816 10.043 10.9527 10.1627C11.8744 10.462 12.6884 9.83951 12.6644 8.85796C12.6525 8.53477 12.7482 8.36719 13.0235 8.19961C15.8245 6.48789 18.853 5.62604 22.1447 5.61407C22.4559 5.61407 22.6594 5.62604 22.7073 6.03303C22.7552 6.51183 22.3961 6.38016 22.2046 6.4041C16.9976 7.02654 12.9158 9.52829 9.76766 13.6939C8.70233 15.1063 7.48138 16.3871 6.64348 17.9672C5.92527 19.3318 5.37465 20.7442 5.01555 22.2405C4.9916 22.3243 4.95569 22.4081 4.93175 22.5038Z" fill="white"/>
<path d="M42.027 31.649C42.2305 30.7512 42.4459 29.9133 42.5537 29.0395C42.9367 25.9512 42.5896 22.9707 41.4045 20.0979C40.9138 18.9009 40.6025 17.644 40.0399 16.471C38.1606 12.5567 35.2639 9.67195 31.3257 7.84053C31.1222 7.74477 30.9307 7.64901 30.7392 7.55325C30.7033 7.54128 30.6913 7.4934 30.6315 7.40961C32.4509 7.84053 34.1028 8.54676 35.6469 9.50437C36.4729 10.0191 37.2509 10.6056 37.9931 11.24C38.2444 11.4555 38.3402 11.6231 38.2444 11.9941C37.9811 12.9877 38.7352 13.7897 39.7527 13.6221C40.0998 13.5622 40.2554 13.67 40.423 13.9094C41.5482 15.4415 42.41 17.1173 42.9966 18.9248C43.0803 19.1882 43.0803 19.3797 42.9008 19.631C42.5058 20.1817 42.6494 20.7682 43.2479 21.0794C43.4634 21.1991 43.5831 21.3069 43.619 21.5463C44.1337 25.0296 43.6549 28.3572 42.1587 31.5413C42.1467 31.5652 42.0988 31.5891 42.027 31.649Z" fill="white"/>
<path d="M11.0605 36.5926C13.8855 38.5198 16.8301 40.2435 20.1937 40.9497C23.5214 41.6559 26.897 42.1467 30.3443 41.3208C30.2605 41.5362 30.1049 41.5602 29.9852 41.632C28.8361 42.2305 27.6271 42.6853 26.3703 43.0205C26.0351 43.1043 25.8077 43.1642 25.6281 42.7332C25.4605 42.3382 25.0655 42.1826 24.6226 42.2664C24.1797 42.3382 23.8805 42.6255 23.8566 43.0564C23.8326 43.4514 23.6291 43.4754 23.3299 43.5113C21.3069 43.7866 19.4755 43.1761 17.7039 42.3143C15.1423 41.0814 13.0117 39.3337 11.3119 37.0594C11.2281 36.9517 11.1443 36.832 11.0725 36.7243C11.0605 36.6883 11.0725 36.6405 11.0605 36.5926Z" fill="white"/>
<path d="M18.8169 43.1284C11.0962 41.8715 4.87172 34.6895 4.90763 26.6097C5.26673 28.1179 5.79341 29.5663 6.51162 30.9309C6.61935 31.1344 6.49965 31.266 6.4398 31.4336C6.18842 32.1039 6.52359 32.7264 7.22982 32.7862C7.57695 32.8221 7.74453 32.9778 7.93606 33.2172C9.19291 34.7254 10.378 36.2935 11.5869 37.8376C13.3346 40.088 15.5969 41.7279 18.2184 42.865C18.4218 42.9608 18.6253 43.0446 18.8169 43.1284Z" fill="white"/>
<path d="M41.5121 21.4984C41.943 22.6356 42.1824 23.8086 42.3021 25.0176C42.5415 27.3638 42.2902 29.662 41.6079 31.9124C41.5241 32.1877 41.4403 32.3433 41.0812 32.2954C40.3869 32.2236 39.8363 32.5229 39.4891 33.1333C39.142 33.7438 39.154 34.3663 39.5849 34.9289C39.8123 35.2281 39.6926 35.3717 39.5011 35.5752C38.1605 37.0954 36.5924 38.3403 34.8208 39.3219C34.6772 39.4057 34.4737 39.6092 34.354 39.4535C34.2343 39.286 34.1984 38.9987 34.4138 38.7952C35.4433 37.8376 36.1854 36.6525 37.1071 35.6111C40.1714 32.1638 41.6797 28.1179 41.6318 23.5094C41.6438 22.8271 41.56 22.1687 41.5121 21.4984Z" fill="white"/>
<path d="M15.6928 10.3304C14.1966 11.5872 12.832 12.9877 11.8384 14.6755C10.4499 17.0336 8.94169 19.3439 8.23545 22.0371C8.16363 22.2885 7.43346 22.5638 7.09829 22.4441C6.7751 22.3244 6.95465 22.0371 6.97859 21.8336C7.27785 19.2481 8.13969 16.8541 9.51625 14.6516C9.8155 14.1728 10.2225 13.7897 10.6414 13.4187C12.1138 12.078 13.7896 11.0366 15.6928 10.3304Z" fill="white"/>
<path d="M32.0081 8.69028C31.1821 8.75013 30.5597 8.98953 30.1767 9.65985C30.033 9.91122 29.8415 9.81546 29.6619 9.76758C27.6151 9.27681 25.5203 9.03741 23.4375 8.78604C21.7258 8.58255 20.038 8.78604 18.3383 9.07332C19.8704 8.18754 21.4984 7.57706 23.234 7.25387C23.4136 7.21796 23.5333 7.32569 23.6769 7.39751C24.6106 7.90025 25.4964 7.85237 26.2624 7.15811C26.6575 6.79901 27.1003 6.8828 27.4954 6.95462C29.0275 7.22993 30.5118 7.64888 31.7926 8.59452C31.8525 8.6424 31.9362 8.65437 32.0081 8.69028Z" fill="white"/>
<path d="M38.017 15.4055C39.8365 17.3566 41.1292 19.5472 41.2968 22.3003C41.5482 26.5257 40.5906 30.3801 38.1367 33.8514C38.0769 33.9352 38.017 34.007 37.9332 34.1147C37.8375 33.9232 37.9691 33.8035 38.017 33.6838C39.1302 31.3018 39.6689 28.8 39.645 26.1666C39.645 25.8075 39.6449 25.5561 40.0759 25.4005C40.5906 25.221 40.83 24.7541 40.818 24.2155C40.8061 23.6768 40.5427 23.2579 40.04 23.0424C39.7647 22.9227 39.6569 22.791 39.645 22.4798C39.609 20.0619 39.0704 17.7516 38.0769 15.5492C38.041 15.5132 38.041 15.4534 38.017 15.4055Z" fill="white"/>
<path d="M12.76 36.8559C9.8154 34.1627 7.76852 31.1821 7.87625 27.1243C7.88822 26.6933 8.16353 26.7292 8.40293 26.6455C9.12114 26.3941 9.13311 26.3941 9.25281 27.1482C9.74358 30.009 10.8688 32.5826 12.6403 34.8689C12.8319 35.1203 12.8917 35.3118 12.7361 35.611C12.5805 35.9462 12.6044 36.1258 12.76 36.8559Z" fill="white"/>
<path d="M32.2354 37.2031C35.9221 34.4739 38.2563 30.9667 39.3097 26.5976C39.2498 29.9732 38.3401 33.0734 36.4249 35.8385C35.8383 36.6884 34.9406 37.2749 34.1147 37.8854C33.9351 38.0171 33.8154 38.0051 33.6598 37.8495C33.2887 37.4784 32.8219 37.3228 32.2354 37.2031Z" fill="white"/>
<path d="M8.06786 31.0623C7.67285 30.9307 7.3736 30.8349 7.0504 30.9067C6.83494 30.9546 6.78706 30.799 6.71524 30.6554C5.73369 28.7641 5.07534 26.7531 4.96761 24.6344C4.89579 23.3297 5.32671 22.0489 5.74567 20.792C6.34417 19.0324 7.19404 17.4045 8.31923 15.9202C8.42696 15.9441 8.37908 16.004 8.36711 16.0519C7.38557 18.015 6.82297 20.0858 6.60751 22.2643C6.58357 22.5396 6.49978 22.7312 6.28432 22.9227C5.24292 23.9042 5.2908 25.3526 6.39205 26.2504C6.64342 26.4539 6.77509 26.6574 6.82297 26.9805C7.0504 28.3571 7.46936 29.6738 8.06786 31.0623Z" fill="white"/>
<path d="M39.2977 22.5636C39.0463 21.7137 38.8189 20.8638 38.4957 20.0259C37.2987 16.9496 35.3955 14.4 32.7979 12.3651C32.6782 12.2693 32.3072 12.1736 32.5226 11.9701C32.7381 11.7786 32.8817 11.2878 33.3845 11.5631C34.6773 12.2933 35.8743 13.1312 36.9396 14.1606C37.2748 14.4838 37.4304 14.9267 37.6219 15.3456C38.7231 17.62 39.2857 20.0259 39.2977 22.5636Z" fill="white"/>
<path d="M39.585 36.0062C37.586 40.2436 30.1167 44.457 25.592 43.9184C25.616 43.5593 25.8554 43.4396 26.1666 43.3558C27.7466 42.9967 29.2429 42.4102 30.6434 41.5962C30.9187 41.4406 31.1581 41.4047 31.4813 41.5004C32.6185 41.8356 33.6599 41.3448 34.1387 40.2795C34.2344 40.064 34.3421 39.9084 34.5456 39.8007C36.4608 38.8311 38.1127 37.5503 39.585 36.0062Z" fill="white"/>
<path d="M11.3118 12.3533C14.005 9.33679 17.3327 7.4934 21.3187 6.82308C21.7736 6.75126 22.2285 6.71535 22.6833 6.66747C22.827 6.65549 22.9946 6.69141 23.0065 6.84702C23.0185 7.00263 22.8629 7.00263 22.7432 7.02657C20.6843 7.48143 18.805 8.34328 16.9976 9.42058C16.2674 9.85151 15.4175 10.043 14.6394 10.3902C13.4544 10.9168 12.3771 11.6231 11.3118 12.3533Z" fill="white"/>
<path d="M20.9237 40.3753C22.5636 40.4471 24.1197 40.3753 25.6638 40.0521C27.184 39.7289 28.6324 39.2022 30.1167 38.496C30.009 38.9748 29.9132 39.3818 29.985 39.8007C30.0209 40.0042 29.9252 40.088 29.7456 40.1478C26.8968 41.0336 24.0359 41.5843 21.1033 40.5309C21.0434 40.5189 21.0075 40.4591 20.9237 40.3753Z" fill="white"/>
<path d="M12.2095 14.7592C12.9157 13.5144 13.8973 12.5089 14.8668 11.4914C16.4469 9.8156 18.4339 9.21709 20.6484 9.08542C21.7257 9.02557 22.791 9.02557 23.8803 9.18118C23.2579 9.27694 22.6234 9.34876 22.001 9.45649C20.2534 9.77969 18.5776 10.3423 17.0095 11.1802C16.7461 11.3238 16.5187 11.4076 16.1835 11.2759C15.5731 11.0246 14.9985 11.4435 14.9147 12.1258C14.8908 12.3293 14.8908 12.5089 14.6992 12.6405C13.8015 13.275 13.0115 14.0291 12.2095 14.7592Z" fill="white"/>
<path d="M33.4803 9.43265C36.3771 11.3 38.5197 13.8257 39.9442 17.0336C37.5262 14.6636 36.03 11.6112 33.4803 9.43265Z" fill="white"/>
<path d="M13.5144 37.4186C13.9453 37.4186 14.2805 37.4545 14.5797 37.2749C14.7593 37.1672 14.867 37.263 14.9987 37.3707C15.9324 38.2086 16.9618 38.9028 18.087 39.5612C16.7942 39.5013 14.8191 38.5916 13.5144 37.4186Z" fill="white"/>
<path d="M33.193 9.67203C34.378 10.6775 35.3476 11.7309 36.1376 12.9638C35.2518 12.3533 34.3541 11.7548 33.4085 11.2401C33.2888 11.1683 33.2409 11.0845 33.2768 10.9528C33.3845 10.5578 33.3127 10.1628 33.193 9.67203Z" fill="white"/>
<path d="M25.7955 41.3806C27.1841 41.1771 28.5606 40.9138 29.8893 40.435C30.3561 40.2674 30.2843 40.7462 30.5716 40.9497C28.9317 41.3567 27.3756 41.4764 25.7955 41.3806Z" fill="white"/>
<path d="M9.36072 33.4925C10.2824 34.7733 11.2999 35.9822 12.449 37.0596C11.0246 36.2216 9.77967 35.2281 9.36072 33.4925Z" fill="white"/>
<path d="M9.62408 19.3557C9.37271 20.4569 9.16922 21.5582 9.06149 22.6714C8.40314 22.5278 8.40314 22.5158 8.57072 21.9173C8.83406 21.0315 9.14528 20.1577 9.62408 19.3557Z" fill="white"/>
<path d="M9.15719 34.2823C8.78611 33.8035 8.40307 33.3367 8.04397 32.8579C7.74472 32.4509 8.3911 32.3551 8.36716 32.02C8.65444 32.7621 8.94173 33.4923 9.24098 34.2344C9.20507 34.2464 9.18113 34.2703 9.15719 34.2823Z" fill="white"/>
<path d="M7.70872 29.0754C7.40947 28.441 7.2778 27.7707 7.14613 27.0884C7.12219 26.9567 6.97856 26.7412 7.24189 26.7053C7.45735 26.6694 7.60099 26.7891 7.60099 27.0525C7.58902 27.7228 7.6369 28.3931 7.70872 29.0754Z" fill="white"/>
<path d="M28.4411 9.79175C28.86 9.88751 29.267 9.98327 29.6859 10.091C29.8415 10.1269 30.0211 10.1987 29.9373 10.4022C29.8535 10.6057 29.7099 10.4501 29.5902 10.4022C29.1952 10.2346 28.8121 10.0551 28.4171 9.87554C28.4291 9.8516 28.4291 9.81569 28.4411 9.79175Z" fill="white"/>
<path d="M18.3262 40.0639C18.9247 40.1477 19.5351 40.1836 20.0499 40.5547C19.4514 40.5068 18.8888 40.3033 18.3262 40.0639Z" fill="white"/>
<path d="M35.0124 37.7058C34.797 37.9332 34.5696 38.1726 34.3421 38.4C34.2823 38.4599 34.2224 38.5796 34.1147 38.4599C34.0309 38.3641 34.0788 38.2803 34.1626 38.2205C34.4259 38.0289 34.6773 37.8374 34.9406 37.6459C34.9765 37.6698 35.0005 37.6818 35.0124 37.7058Z" fill="white"/>
</g>
<defs>
<clipPath id="clip0_2_10643">
<rect width="48" height="48" fill="white"/>
</clipPath>
</defs>
</svg>
