<svg width="48" height="48" viewBox="0 0 48 48" fill="none" xmlns="http://www.w3.org/2000/svg">
<path d="M0 24C0 10.7452 10.7452 0 24 0C37.2548 0 48 10.7452 48 24C48 37.2548 37.2548 48 24 48C10.7452 48 0 37.2548 0 24Z" fill="white"/>
<path d="M9.60227 22.9408V10.8675L34.0796 35.5213C33.5724 35.9403 27.4641 40.8247 20.1871 38.6526C13.8693 36.7562 9.38175 30.3171 9.60227 22.9408ZM39.2397 26.5573L39.2728 38.5424L14.7183 13.9768C15.2254 13.5468 21.3227 8.64031 28.5998 10.7904C34.9507 12.6758 39.4602 19.1369 39.2287 26.5573H39.2397Z" fill="#48A3FF"/>
</svg>
