<svg width="48" height="48" viewBox="0 0 48 48" fill="none" xmlns="http://www.w3.org/2000/svg">
<path d="M0 24C0 10.7452 10.7452 0 24 0C37.2548 0 48 10.7452 48 24C48 37.2548 37.2548 48 24 48C10.7452 48 0 37.2548 0 24Z" fill="#0D0934"/>
<g clip-path="url(#clip0_2_10704)">
<path d="M39.7584 16.5779C39.7584 16.2177 39.6117 15.8576 39.4383 15.6042C39.2515 15.3507 38.9181 15.124 38.6246 14.9506C34.2096 12.403 29.7812 9.86866 25.3662 7.30768C24.6726 6.90753 24.0724 6.90753 23.3788 7.30768C18.9238 9.89533 14.4554 12.4563 10.0004 15.0173C9.73361 15.164 9.53354 15.2974 9.32012 15.6175C9.09337 15.9376 9.01334 16.3378 9.01334 16.7379C9.01334 21.8866 9.02668 27.0352 9 32.1838C9 33.0508 9.33346 33.5977 10.0671 34.0112C11.2542 34.6648 12.4146 35.3584 13.5884 36.0253C15.109 36.9056 16.2828 36.2254 16.2828 34.4647C16.2828 29.8229 16.2828 25.1945 16.2828 20.5527C16.2828 20.286 16.2694 20.0192 16.3761 19.7658C16.6429 19.1522 21.3514 16.938 23.819 15.4975C24.2191 15.2707 24.4992 15.244 24.8994 15.4841C26.62 16.4978 32.1555 19.2589 32.4756 20.0192C32.689 20.5261 32.4356 25.568 32.4623 28.329C32.4623 28.9293 32.2622 29.2494 31.7553 29.5295C29.8213 30.6099 27.9139 31.7437 25.9798 32.8241C25.4062 33.1442 24.5259 33.7044 24.2191 33.7311C23.9123 33.7578 20.9646 31.837 19.3239 30.9033C18.0168 30.1564 16.7896 30.89 16.7763 32.3972C16.763 33.8378 16.7896 35.2783 16.763 36.7189C16.7496 37.5192 17.0831 38.0661 17.7767 38.4529C19.1639 39.2398 20.5377 40.0401 21.9383 40.8271C22.5918 41.2006 23.1921 41.6541 23.9257 41.8942C24.4859 42.1343 24.9661 41.8942 25.4196 41.6274C26.7934 40.8405 28.154 40.0535 29.5145 39.2665C32.5957 37.4925 35.6635 35.7185 38.7447 33.9445C39.3449 33.5977 39.745 33.1575 39.745 32.4239C39.7584 27.1419 39.7584 21.8599 39.7584 16.5779ZM37.2508 32.7174C32.8624 35.185 24.806 40.1068 24.3392 40.1068C23.8723 40.1068 20.6444 38.0394 19.1905 37.1857C18.737 36.919 18.5236 36.5988 18.537 36.0653C18.5636 35.1583 18.537 34.2513 18.5503 33.3309C18.5503 32.5706 18.5636 32.5706 19.2172 32.9174C20.6178 33.6511 21.9383 34.5047 23.3255 35.2517C23.6189 35.4117 24.0991 35.6785 24.3659 35.6518C24.6326 35.6251 24.806 35.4918 25.0728 35.385C25.5263 35.2116 25.9531 34.9716 26.38 34.7315C28.4741 33.5177 30.5415 32.2772 32.6623 31.1168C33.8094 30.4898 34.3163 29.6095 34.303 28.3157C34.2763 25.7414 34.2896 23.1671 34.2896 20.6061C34.2896 20.2059 34.2763 19.8058 34.1296 19.419C34.0629 19.2322 34.0762 19.1655 33.9028 18.8988C33.7428 18.632 33.3559 18.2985 33.0091 18.0985C30.5015 16.6579 28.0072 15.204 25.4996 13.7768C24.7127 13.3366 23.939 13.3366 23.1654 13.7902C22.5918 14.1236 22.005 14.4437 21.4314 14.7905C19.524 15.9243 15.5758 17.8584 14.8422 18.7921C14.4421 19.1789 14.5354 19.8458 14.5354 20.326C14.5354 24.6209 14.5354 28.9159 14.5354 33.2242C14.5354 33.451 14.5354 33.6644 14.5221 33.8911C14.4954 34.2246 14.3354 34.3446 14.0419 34.1712C12.9748 33.531 11.8411 33.0375 10.8674 32.2505C10.8407 32.2238 10.8274 32.2238 10.814 32.1705C10.774 32.0371 10.8407 22.22 10.814 17.5783C10.814 16.898 11.0274 16.4845 11.6277 16.1511C15.6292 13.8969 19.604 11.5893 23.5655 9.26843C24.1658 8.90829 24.6326 8.94831 25.2195 9.29511C28.7275 11.3759 32.2889 13.3767 35.8236 15.4308C36.5171 15.8443 37.7176 16.3778 37.811 16.6446C38.1044 17.5783 37.8777 26.7951 37.891 31.4502C37.9043 32.0104 37.7843 32.4239 37.2508 32.7174Z" fill="white"/>
<path d="M29.3144 21.6188C29.1943 21.4054 29.0343 21.3253 28.8609 21.232C27.5537 20.4717 26.2466 19.7247 24.9394 18.9778C24.5526 18.751 24.1924 18.751 23.8056 18.9778C22.4985 19.7381 21.1913 20.4717 19.8841 21.232C19.6841 21.352 19.484 21.432 19.4039 21.6321C19.3373 21.7922 19.3106 21.9122 19.3106 21.9923C19.2972 23.6329 19.2972 25.2868 19.2972 26.9275C19.2972 27.3676 19.5773 27.6077 19.9241 27.7945C21.178 28.5147 22.4318 29.235 23.6722 29.9553C23.8857 30.0753 24.0591 30.2487 24.3658 30.2487C24.6726 30.2487 24.7793 30.1153 24.9661 30.0086C26.2732 29.2617 27.5804 28.5014 28.8876 27.7678C29.3011 27.5277 29.4478 27.1809 29.4344 26.7274C29.4211 25.2468 29.4344 23.7529 29.4344 22.2724C29.4478 22.0189 29.4078 21.7922 29.3144 21.6188ZM27.6338 27.1809C26.42 28.0479 24.886 28.9682 24.3792 28.9682C23.8723 28.9682 21.7248 27.581 20.7245 27.0075C20.5777 26.9275 20.4177 26.4206 20.431 26.1538C20.4577 25.0201 20.4443 23.8996 20.431 22.7659C20.431 22.3524 20.5777 22.0589 20.9512 21.8455C21.8982 21.312 22.8319 20.7651 23.7656 20.2182C24.2058 19.9648 24.5659 19.9915 25.0061 20.2449C25.9665 20.8051 26.9135 21.352 27.8738 21.9122C28.0472 22.0189 28.2073 22.1256 28.314 22.299C28.314 22.299 28.2873 22.0189 28.314 22.3124C28.3407 22.6058 28.2607 24.9534 28.2873 26.0071C28.314 26.5673 28.0873 26.8608 27.6338 27.1809Z" fill="white"/>
</g>
<defs>
<clipPath id="clip0_2_10704">
<rect width="30.7584" height="35" fill="white" transform="translate(9 7)"/>
</clipPath>
</defs>
</svg>
