<svg width="49" height="48" viewBox="0 0 49 48" fill="none" xmlns="http://www.w3.org/2000/svg">
<g clip-path="url(#clip0_2_6383)">
<path d="M24.8359 47.9999C24.3054 47.9999 23.775 47.9999 23.2284 47.9999C22.9712 47.9517 22.714 47.8713 22.4568 47.8553C11.992 47.2766 2.81313 39.448 0.659076 29.1761C0.35365 27.7293 0.22505 26.2344 0 24.7555C0 24.225 0 23.6945 0 23.148C0.0643001 22.521 0.1286 21.878 0.208975 21.2511C1.68788 8.21428 13.5512 -1.26998 26.6202 0.144618C40.0107 1.59137 49.5914 13.7762 47.8553 27.1185C46.5533 37.0689 39.0141 45.2672 29.1601 47.373C27.7455 47.6784 26.2827 47.791 24.8359 47.9999Z" fill="white"/>
<g clip-path="url(#clip1_2_6383)">
<path d="M23.7765 6.06275C24.3265 5.8899 24.8764 6.04704 25.3636 6.25132C26.7149 6.78558 28.0506 7.3827 29.3863 7.96411C29.4491 8.10553 29.5277 8.24695 29.512 8.40409C29.3706 9.6769 29.7477 10.934 29.5906 12.1911C29.3863 12.4582 29.1191 12.4111 28.8677 12.2854C27.4535 11.6725 26.0864 10.9811 24.625 10.4783C24.405 10.3997 24.185 10.3212 24.0436 10.1169C23.7765 9.53547 23.9022 8.93835 23.8865 8.34123C23.8551 7.58698 23.9022 6.81701 23.7765 6.06275Z" fill="#845BA4"/>
<path d="M18.6853 39.8943C16.4696 38.9672 14.254 38.0558 12.0541 37.1287C11.8027 37.0187 11.5513 36.893 11.2998 36.783C10.9541 36.453 11.1584 36.2645 11.4884 36.1074C11.8027 36.0288 12.1012 36.1073 12.3841 36.2488C13.2012 36.783 14.1754 36.7202 15.0868 36.9245C16.3125 37.2073 17.5853 37.3644 18.8267 37.5373C20.6338 37.7887 22.3937 38.2287 24.185 38.5273C24.2479 38.5744 24.3108 38.6372 24.3579 38.7158C24.405 38.8101 24.4365 38.9044 24.4522 39.0144C24.625 40.3658 24.3265 40.6486 22.9908 40.57C22.0008 40.5229 21.058 40.1772 20.0681 40.0672C19.5967 40.0201 19.141 39.9415 18.6853 39.8943Z" fill="#00BEF1"/>
<path d="M18.6853 39.8942C19.0467 39.6585 19.4081 39.6428 19.8324 39.7371C21.0581 40.0042 22.2994 40.2871 23.5565 40.3656C23.9651 40.3971 24.2008 40.2714 24.1851 39.8157C24.1694 39.4857 24.1851 39.14 24.1851 38.81C24.3579 38.4486 24.6094 38.5586 24.9079 38.6686C26.2121 39.14 27.5792 39.4385 28.9463 39.6585C29.182 39.69 29.5434 39.5171 29.5434 39.9728C28.1449 40.5856 26.7464 41.2142 25.3322 41.7799C24.5936 42.0784 23.7765 42.0942 23.038 41.7956C21.5766 41.1828 20.131 40.5228 18.6853 39.8942Z" fill="#00C1EE"/>
<path d="M29.5434 39.9572C28.1449 40.0672 26.9192 39.2186 25.5364 39.2658C25.2536 39.2815 25.0336 39.1243 24.8607 38.9358C24.6565 38.7158 24.4522 38.6215 24.1693 38.8101C24.1693 38.7629 24.1693 38.7001 24.1693 38.6529C24.0908 38.5587 24.0122 38.4487 23.9808 38.3229C23.9493 38.1501 23.9965 37.9772 24.0908 37.8358C24.9393 37.3644 25.835 36.9873 26.7778 36.7202C26.8564 36.7202 26.9349 36.7202 27.0135 36.7202C28.5692 37.1916 30.0462 37.8515 31.6019 38.3387C31.9319 38.4487 32.1047 38.6215 31.869 38.9672C31.1305 39.3601 30.3605 39.69 29.5434 39.9572Z" fill="#00BFF1"/>
<path d="M8.73854 35.0701C8.20428 34.4416 8 33.7031 8 32.8859C8 26.9148 8 20.9593 8 14.9881C8 14.2653 8.15714 13.5896 8.61283 13.0082C8.91139 13.071 9.05282 13.2753 9.09996 13.5739C9.11567 13.7153 9.09996 13.8567 9.0371 13.9824C8.95853 14.2024 8.87997 14.4067 8.87997 14.6581C8.97425 20.4564 8.91139 26.2548 8.91139 32.0531C8.91139 32.9802 8.98996 33.923 8.91139 34.8502C8.89568 34.9601 8.83282 35.023 8.73854 35.0701Z" fill="#F55C30"/>
<path d="M39.6002 35.0701C39.0503 36.0601 38.0603 36.4215 37.0703 36.7515C36.4575 36.2958 35.8447 35.8872 35.0904 35.6986C34.3047 35.4944 33.7862 34.7558 32.9848 34.583C32.8591 34.5515 32.7805 34.3473 32.7805 34.1901C33.2991 33.5144 34.1319 33.3887 34.8233 33.0116C34.9019 32.9959 34.9804 32.9802 35.059 32.9802C35.7347 33.1216 36.3004 33.4987 36.9604 33.703C37.2432 33.7973 37.4789 33.9701 37.7617 34.0487C38.0132 34.1744 38.296 34.2687 38.5474 34.363C38.7988 34.4887 39.0817 34.5673 39.3488 34.7087C39.4588 34.803 39.5688 34.913 39.6002 35.0701Z" fill="#00A3DD"/>
<path d="M39.7102 13.0396C40.2602 13.7467 40.3859 14.5639 40.3702 15.4438C40.3387 17.3609 40.3545 19.2937 40.3387 21.2107C40.4959 22.185 39.9302 22.9707 39.6473 23.8192C39.5373 24.1178 39.3331 24.3692 38.9402 24.2278C38.5631 23.8192 38.7202 23.3478 38.7831 22.8921C38.8302 22.5621 38.8617 22.2164 38.8774 21.8864C39.1288 19.5137 39.1445 17.1252 39.2545 14.7367C39.2702 14.3439 39.2074 13.951 39.1759 13.5739C39.1288 13.181 39.2859 12.9611 39.7102 13.0396Z" fill="#E54B9A"/>
<path d="M24.1851 37.8673C24.1851 38.0244 24.1851 38.1815 24.1851 38.323C23.2894 38.5744 22.4252 38.2287 21.5923 38.0558C19.0781 37.5373 16.5325 37.2544 14.0026 36.7673C13.4212 36.6573 12.8555 36.4687 12.2427 36.4373C11.9913 36.2959 11.7399 36.2645 11.457 36.2802C10.797 36.3745 10.2156 36.013 9.5871 35.9345C9.20997 35.7459 8.94284 35.4474 8.75427 35.0702C8.7857 35.0702 8.80141 35.0388 8.80141 35.0231C8.8957 34.9445 9.00569 34.8502 9.1314 34.8345C11.9284 35.4002 14.7726 35.6516 17.5539 36.3273C19.0467 36.6887 20.5552 36.8616 22.0795 37.003C22.6294 37.0187 23.1008 37.2858 23.588 37.4901C23.7922 37.6001 24.0594 37.6316 24.1851 37.8673Z" fill="#00B3EA"/>
<path d="M34.7289 10.1955C35.1218 10.2898 35.4989 10.4312 35.8446 10.6512C35.8132 11.8926 35.7503 13.134 35.7975 14.3753C35.4361 14.7996 35.6403 15.3024 35.5775 15.7738C35.4832 16.8581 35.3732 17.9266 35.3261 18.9951C35.3104 19.3566 35.3418 19.718 35.1218 20.0323C34.6975 20.2522 34.5875 19.9223 34.509 19.6237C34.4304 19.3251 34.3518 19.0266 34.1947 18.7594C33.849 17.5495 33.8961 16.3238 34.1318 15.0982C34.2733 14.8782 34.4461 14.6582 34.3047 14.3596C34.1475 14.0611 33.9747 13.7625 34.0375 13.4011C34.1633 12.5525 34.1475 11.6883 34.179 10.824C34.1947 10.4941 34.2418 10.1641 34.7289 10.1955Z" fill="#B23E96"/>
<path d="M39.7103 13.0396C39.5688 13.1496 39.286 13.181 39.3488 13.3853C39.6631 14.5796 39.2546 15.7895 39.3646 16.9523C39.5374 18.618 39.0974 20.205 39.1131 21.8393C38.7046 21.8393 38.6417 21.4464 38.4375 21.2264C38.0289 20.3465 38.2803 19.4351 38.2332 18.5394C38.1703 16.8266 38.3432 15.1295 38.186 13.4167C38.2332 13.291 38.296 13.181 38.406 13.0868C38.7832 12.8511 39.1603 12.6153 39.6317 12.8511C39.6474 12.9139 39.6788 12.9768 39.7103 13.0396Z" fill="#E0529D"/>
<path d="M32.8276 34.2374C33.8961 34.4731 34.6032 35.4316 35.7346 35.6202C36.2374 35.6988 36.6774 36.1073 37.1331 36.3902C37.1803 36.4216 37.1017 36.6259 37.0703 36.7359C36.7246 36.9559 36.3631 37.113 35.9703 37.2073C34.9332 37.1287 34.069 36.5316 33.1261 36.1859C32.5762 35.9816 32.0576 35.6516 31.4605 35.5573C31.1934 35.5102 30.9734 35.3688 30.9891 35.0388C31.1148 34.5045 31.6805 34.536 32.0105 34.2531C32.2619 34.1745 32.5447 34.0803 32.8276 34.2374Z" fill="#00A8E1"/>
<path d="M23.7765 6.06282C24.2008 6.04711 24.1851 6.32995 24.1851 6.62851C24.1851 7.82275 24.2008 9.01699 24.2008 10.1955C24.1694 10.2269 24.1537 10.2584 24.1222 10.2898C23.6665 10.5255 23.1794 10.6512 22.6609 10.5569C22.3937 10.4155 22.1895 10.1798 22.1737 9.89695C22.1423 8.76557 22.1266 7.60276 22.4566 6.47138C22.8651 6.21996 23.3208 6.12567 23.7765 6.06282Z" fill="#FEC430"/>
<path d="M15.0711 9.58267C15.8253 9.18983 16.611 8.87556 17.4124 8.59271C17.711 9.07984 17.1296 9.28411 17.0353 9.66124C16.7682 10.8555 16.8624 12.0497 16.7682 13.2282C16.6896 13.4325 16.5482 13.5582 16.3596 13.6525C16.0925 13.7625 15.8253 13.8725 15.5268 13.7939C15.3696 13.7468 15.2282 13.6368 15.1968 13.4954C14.8668 12.2069 14.5683 10.9026 15.0711 9.58267Z" fill="#FDAB51"/>
<path d="M31.0992 35.023C31.1463 35.1016 31.1934 35.2587 31.2563 35.2744C32.6391 35.5259 33.8333 36.2173 35.059 36.8301C35.3576 36.9715 35.8132 36.7358 35.9704 37.2229C35.4518 37.4586 34.9804 37.8043 34.399 37.8358C33.1262 37.3644 31.8063 36.9872 30.5806 36.3744C30.2035 36.1858 29.7006 36.1544 29.6221 35.5887C29.9835 35.0702 30.4549 34.803 31.0992 35.023Z" fill="#00AEE6"/>
<path d="M16.6424 13.1967C16.5482 12.1596 16.3753 11.1068 16.7839 10.1011C16.7996 10.054 16.8624 9.99111 16.8467 9.95968C16.6739 9.34685 16.9567 8.93829 17.4281 8.6083C17.6953 8.49831 17.9467 8.3726 18.2138 8.2626C18.7009 9.14257 18.5909 10.0854 18.4181 11.0125C18.3238 11.5468 18.261 12.081 18.1824 12.6153C18.0881 12.851 17.8838 12.9924 17.6638 13.0867C17.3181 13.1338 17.0196 13.4795 16.6424 13.1967Z" fill="#FDB04B"/>
<path d="M29.6849 35.6515C30.5334 36.0286 31.3191 36.5786 32.2619 36.7672C33.0633 36.94 33.7547 37.3329 34.399 37.8357C34.0847 37.9928 33.7704 38.15 33.4562 38.3071C31.7591 38.2128 30.2191 37.6 28.6949 36.9243C28.4278 36.8143 28.2549 36.5786 28.2235 36.2643C28.5535 35.7301 29.0092 35.4315 29.6849 35.6515Z" fill="#00B4EA"/>
<path d="M11.4413 11.1068C12.007 10.8082 12.5726 10.5568 13.1855 10.3839C13.4998 11.0596 13.2483 11.7667 13.3112 12.4581C13.3426 12.9296 13.3269 13.401 13.3269 13.8567C13.3269 14.1552 13.2483 14.4224 12.9969 14.6109C12.4627 14.8152 12.0541 14.4538 11.6141 14.2495C11.5513 14.2024 11.5041 14.1395 11.457 14.0767C11.2684 13.1024 11.1584 12.0967 11.4413 11.1068Z" fill="#FA9E5D"/>
<path d="M18.0567 12.5683C17.8524 11.5783 18.2924 10.6355 18.3238 9.66124C18.3238 9.53553 18.5124 9.37839 18.3238 9.26839C17.8053 8.98555 18.0881 8.60842 18.1981 8.26272C18.6224 8.08987 19.0467 7.91702 19.4709 7.72845C19.7224 7.7756 19.9738 7.9013 19.8795 8.16844C19.3924 9.42553 19.7538 10.7455 19.4866 12.0183C19.4395 12.144 19.3609 12.254 19.2509 12.3326C18.8581 12.4583 18.5281 12.8511 18.0567 12.5683Z" fill="#FEB545"/>
<path d="M30.6277 8.48271C31.0205 8.56128 31.3819 8.71841 31.7276 8.95412C31.8376 9.18982 32.0419 9.36267 32.0105 9.66123C31.9476 10.5255 32.0105 11.3897 32.0419 12.254C32.0576 12.5997 32.0105 12.9297 31.7905 13.2282C31.3819 13.5111 31.0519 13.1654 30.6905 13.0711C30.5177 12.9925 30.392 12.8668 30.3134 12.694C30.0463 11.4369 30.1877 10.1641 30.282 8.89126C30.2977 8.7027 30.3134 8.45128 30.6277 8.48271Z" fill="#93519E"/>
<path d="M30.6276 8.48271C30.3762 9.88122 30.4862 11.3112 30.4705 12.7254C30.3291 12.8354 30.1877 12.804 30.0305 12.7568C29.8262 12.6311 29.4805 12.6468 29.5277 12.254C29.2448 10.824 28.9934 9.40981 29.402 7.96416C29.8262 8.07415 30.2505 8.23129 30.6276 8.48271Z" fill="#8C55A1"/>
<path d="M28.2706 36.2801C29.3234 36.9872 30.4234 37.5371 31.7276 37.6629C32.3247 37.71 32.8276 38.2128 33.4404 38.3071C32.9219 38.5271 32.4033 38.7471 31.8848 38.9671C31.8533 38.8414 31.8062 38.6214 31.7905 38.6214C30.9576 38.7 30.3605 38.04 29.5748 37.8986C28.6792 37.7414 27.8463 37.2543 26.9978 36.9086C27.2178 36.2801 27.6735 36.1543 28.2706 36.2801Z" fill="#00BAEE"/>
<path d="M20.728 7.22547C20.9637 7.05262 21.2152 6.9112 21.5137 6.92691C21.8123 7.0212 21.8751 7.27262 21.8751 7.53975C21.8908 8.67113 21.9537 9.80251 21.7808 10.9339C21.7494 11.0596 21.6709 11.1696 21.5766 11.2482C21.1523 11.4996 20.7752 11.8767 20.2095 11.641C19.8481 11.091 19.9895 10.4939 20.1152 9.91251C20.2409 9.37825 20.398 8.84398 20.2409 8.294C20.0995 7.80688 20.618 7.6026 20.728 7.22547Z" fill="#FEBC3A"/>
<path d="M15.0712 9.58261C14.8512 10.4311 15.2912 11.264 15.1498 12.1282C15.0555 12.6782 15.244 13.1968 15.5426 13.6682C15.5426 14.1553 15.0869 14.1396 14.8041 14.3124C14.6155 14.391 14.4112 14.4224 14.2069 14.3596C13.6255 14.061 13.4684 13.5582 13.6413 12.9768C13.8455 12.2696 13.9555 11.5468 13.877 10.824C13.8455 10.4469 14.0498 10.1797 14.2698 9.9126C14.5212 9.75546 14.7726 9.61404 15.0712 9.58261Z" fill="#FCA654"/>
<path d="M32.5133 9.26836C33.0162 9.40978 33.519 9.58263 33.9747 9.88119C33.9275 10.934 33.8961 12.0025 33.8961 13.0553C33.8961 13.4168 33.8804 13.7939 33.5504 14.0453C33.2833 14.2024 33.0319 14.0925 32.7804 13.9982C32.5762 13.8882 32.419 13.731 32.3405 13.511C32.2933 12.3011 32.2305 11.0911 32.2305 9.86548C32.2305 9.61406 32.2462 9.37835 32.5133 9.26836Z" fill="#A1499B"/>
<path d="M14.2854 9.91254C14.0183 10.6197 14.3169 11.3582 14.1283 12.081C14.0812 12.2853 14.1283 12.5367 14.034 12.6781C13.6098 13.3067 13.8455 13.7938 14.2854 14.2809C14.1754 14.7052 13.8297 14.7995 13.4683 14.9095C13.2012 14.9252 12.9812 14.8623 12.8712 14.5952C13.0441 14.3281 13.0598 14.0452 13.0598 13.7152C13.0441 12.5996 12.9026 11.4839 13.1855 10.3839C13.5155 10.1482 13.8926 10.0225 14.2854 9.91254Z" fill="#FBA359"/>
<path d="M20.728 7.22559C20.4137 8.12126 20.7437 9.11123 20.3666 10.0069C20.1466 10.5255 20.288 11.0911 20.2566 11.6254C20.2566 11.7354 20.1938 11.8297 20.1152 11.9083C19.8638 12.0497 19.6281 12.254 19.3138 12.0811C19.3452 10.7454 19.1724 9.37836 19.7066 8.08984C19.7852 7.90127 19.5652 7.83842 19.4866 7.72842C19.8952 7.55557 20.3038 7.38272 20.728 7.22559Z" fill="#FEB83F"/>
<path d="M38.9559 24.1963C39.1445 24.1806 39.3173 24.1021 39.3802 23.8978C39.553 23.3635 39.5373 22.7821 40.1344 22.3893C40.4173 22.2007 40.0716 21.5879 40.3387 21.2108C40.3387 22.7193 40.3387 24.2435 40.3387 25.752C39.7416 25.5163 40.0087 25.0449 40.0244 24.6363C39.7259 25.5791 39.6316 26.5534 39.4902 27.5276C39.2387 27.8419 39.663 28.6119 38.8302 28.5176C38.5002 28.2662 38.5631 27.9205 38.5945 27.5748C38.6731 26.8677 38.6416 26.1606 38.5788 25.4534C38.5945 25.0135 38.5631 24.542 38.9559 24.1963Z" fill="#E24498"/>
<path d="M21.6709 10.9969C21.4667 10.6355 21.5138 10.2584 21.5924 9.86551C21.8124 8.87555 21.5138 7.9013 21.5138 6.92706C21.7966 6.72278 22.0952 6.54993 22.4566 6.47136C22.7237 7.39847 22.4723 8.32557 22.4095 9.23696C22.378 9.75551 22.4566 10.1326 22.7552 10.5098C22.7552 10.6355 22.6923 10.7298 22.598 10.8083C22.3152 10.9969 22.0481 11.2483 21.6709 10.9969Z" fill="#FEC137"/>
<path d="M39.2701 27.4962C39.3801 26.2549 39.5373 25.0292 40.0873 23.7564C40.3701 24.4949 40.0401 25.1706 40.3387 25.752C40.3387 26.3806 40.3387 27.0248 40.3387 27.6534C40.213 28.0934 40.433 28.7062 39.7416 28.879C39.3487 28.879 39.3016 28.6591 39.3173 28.3134C39.333 28.0305 39.5058 27.7477 39.2701 27.4962Z" fill="#E73E95"/>
<path d="M11.4413 11.1069C11.6455 12.0654 11.5198 13.024 11.6141 13.9825C11.4098 14.1711 11.1741 14.0925 10.9541 14.0296C10.7027 13.9353 10.4513 13.8254 10.2156 13.6996C10.0742 13.6211 9.96418 13.5111 9.90133 13.3539C9.8699 12.8197 9.83847 12.2854 9.88561 11.7511C10.357 11.4683 10.8913 11.2797 11.4413 11.1069Z" fill="#F99860"/>
<path d="M32.5133 9.26842C32.5604 10.2427 32.4033 11.2012 32.6547 12.1754C32.7647 12.6154 32.419 13.0554 32.5133 13.5111C32.2305 13.7625 31.979 13.6525 31.7276 13.4325C31.6805 13.354 31.6648 13.2754 31.7276 13.1968C31.7276 11.7826 31.7276 10.3527 31.7433 8.93843C31.9476 9.14271 32.309 9.03271 32.5133 9.26842Z" fill="#9B4D9C"/>
<path d="M33.4562 13.9824C33.7861 12.851 33.519 11.7039 33.6447 10.5568C33.6761 10.2897 33.5504 9.95971 33.959 9.86543C34.2418 9.92829 34.4933 10.0069 34.729 10.1797C34.4775 10.3368 34.3833 10.5097 34.399 10.8711C34.4461 11.7196 34.5404 12.5839 34.289 13.4167C34.1633 13.841 34.5404 14.0767 34.5561 14.4381C34.3361 14.6424 34.1161 14.5324 33.8804 14.4538C33.6761 14.3595 33.409 14.3124 33.4562 13.9824Z" fill="#A84598"/>
<path d="M35.656 14.454C35.4675 13.1811 35.3103 11.9083 35.8446 10.667C36.1274 10.6984 36.3946 10.8084 36.6146 10.9969C36.6774 12.0026 36.6617 13.0083 36.6931 14.014C36.6774 14.0925 36.6617 14.1711 36.6146 14.234C36.3317 14.4697 36.0489 14.7054 35.656 14.454Z" fill="#BB3893"/>
<path d="M39.7416 28.7533C40.1659 28.5176 40.1659 28.0462 40.3387 27.6534C40.3387 28.3919 40.3387 29.1147 40.3387 29.8533C40.2287 30.5604 40.1345 31.2832 39.6788 31.8646C39.4902 32.116 39.2859 32.446 38.8774 32.1789C38.6574 31.9118 38.7202 31.5975 38.7359 31.2989C38.7988 30.3404 39.0188 29.4447 39.7416 28.7533Z" fill="#E23492"/>
<path d="M36.5989 13.9825C36.4104 13.8254 36.2847 13.6211 36.3475 13.3697C36.5047 12.7411 36.4261 12.1283 36.3318 11.4998C36.2847 11.2483 36.2532 11.0284 36.5989 10.9812C36.8346 10.9969 37.0389 11.0912 37.2275 11.2483C37.7932 12.034 37.4789 12.914 37.4632 13.7625C37.2432 14.0925 36.9761 14.2497 36.5989 13.9825Z" fill="#C52F91"/>
<path d="M39.6002 35.0701C39.4902 35.0072 39.3802 34.9444 39.2702 34.8972C38.6102 34.6301 38.7359 34.2058 39.0188 33.7344C39.0659 33.0587 39.6159 32.6345 39.8359 32.0373C39.8987 31.8645 40.1187 31.7388 40.3387 31.8959C40.4016 33.0273 40.4016 34.143 39.6002 35.0701Z" fill="#DE248A"/>
<path d="M40.3387 31.8803C40.2916 31.896 40.213 31.896 40.1973 31.9275C39.9459 32.6189 39.2545 33.1217 39.2702 33.9231C38.5474 33.8288 38.8459 33.1688 38.6573 32.776C38.6573 32.5246 38.7202 32.3046 38.9559 32.1946C39.8202 31.6446 39.8987 30.6389 40.3387 29.8532C40.3387 30.5289 40.3387 31.2046 40.3387 31.8803Z" fill="#E02D90"/>
<path d="M37.3846 13.6681C37.0703 12.8824 37.4317 12.0496 37.2432 11.2482C37.636 11.3582 38.0131 11.4839 38.3431 11.7196C38.7988 12.1753 38.4374 12.7096 38.4845 13.1967C38.4374 13.2438 38.3746 13.3067 38.3274 13.3538C38.2017 13.5581 38.076 13.7624 37.8246 13.7938C37.6517 13.8252 37.4946 13.8095 37.3846 13.6681Z" fill="#CD288F"/>
<path d="M9.88571 11.7669C10.3885 12.254 10.1214 12.8197 10.0428 13.354C9.87 13.5111 9.66572 13.464 9.47716 13.4011C9.1786 13.2754 8.89575 13.1654 8.7229 12.8511C8.99003 12.364 9.39859 12.034 9.88571 11.7669Z" fill="#F68F61"/>
<path d="M38.4845 13.1967C38.2016 13.181 38.1388 12.8039 38.1702 12.7881C38.6573 12.4896 38.2488 12.0653 38.343 11.7196C38.8773 11.971 39.333 12.3167 39.6158 12.851C39.2387 12.961 38.8616 13.0867 38.4845 13.1967Z" fill="#D12089"/>
<path d="M9.58716 35.9343C9.94857 35.3687 10.2471 36.0286 10.6085 35.9815C10.9071 35.9501 11.2214 36.0601 11.4728 36.28C11.2214 36.3743 11.2214 36.5629 11.2999 36.7829C10.7185 36.5157 10.0429 36.4215 9.58716 35.9343Z" fill="#00B9EE"/>
<path d="M8.72282 12.851C9.00567 12.961 9.28851 13.0867 9.57136 13.1967C9.63421 13.4167 9.58707 13.6053 9.36708 13.7153C9.1628 13.8096 9.0371 13.6682 8.94281 13.511C8.83282 13.3539 8.72282 13.1967 8.62854 13.0239C8.65997 12.961 8.69139 12.9139 8.72282 12.851Z" fill="#F4612F"/>
<path d="M24.2165 10.2112C24.7979 10.1169 25.285 10.3997 25.7564 10.6197C26.8092 11.1068 27.9249 11.4368 28.8991 12.0811C28.8991 12.1125 28.8991 12.1597 28.8991 12.1911C28.1449 13.4953 27.7678 15.0038 26.6678 16.1195C26.495 16.2924 26.5264 16.5595 26.3378 16.7166C26.2278 16.7795 26.1021 16.8109 25.9764 16.8109C25.3322 16.6538 24.625 16.7638 24.0751 16.2924C23.8551 15.9309 23.8394 15.5538 23.9022 15.161C23.9965 13.8725 23.7765 12.5839 23.8551 11.2954C23.8708 10.9026 23.8551 10.5097 24.1536 10.1955L24.2165 10.2112Z" fill="#654C9E"/>
<path d="M29.5277 12.254C29.732 12.3639 29.952 12.4739 30.1562 12.5839C30.4862 13.5425 30.0934 14.4696 30.0777 15.4124C30.0619 15.9781 30.1877 16.6224 29.7948 17.1409C29.4177 17.4709 29.0091 17.7066 28.4906 17.5023C28.2235 17.2509 28.3492 16.9681 28.4277 16.7009C28.632 15.9624 28.6634 15.2081 28.522 14.4539C28.3806 13.621 28.6163 12.8511 28.8991 12.0968C29.1034 12.144 29.3234 12.1911 29.5277 12.254Z" fill="#65459B"/>
<path d="M12.2427 36.4372C13.0598 36.1387 13.814 36.5315 14.584 36.6415C17.6167 37.0972 20.6338 37.6629 23.6508 38.1814C23.8236 38.2129 23.9965 38.2757 24.1851 38.3229C24.1851 38.4329 24.1851 38.5271 24.1851 38.6371C22.6923 38.4643 21.2152 38.2914 19.7538 37.82C19.0467 37.6 18.2296 37.6786 17.4753 37.5529C15.904 37.2858 14.3483 37.0501 12.7927 36.7201C12.5727 36.6729 12.3841 36.6101 12.2427 36.4372Z" fill="#00B9EE"/>
<path d="M28.2706 36.2802C27.8463 36.4845 27.3592 36.563 26.982 36.893C26.9349 36.8773 26.8878 36.8773 26.8406 36.8616C26.3064 36.7673 26.0235 36.5473 26.4321 35.9973C26.5106 35.6045 26.8249 35.5102 27.1549 35.4316C27.532 35.3374 27.8934 35.2274 28.0506 34.8188C29.3548 34.9445 30.5019 34.2531 31.759 34.1117C31.869 34.096 31.9633 34.1431 32.0418 34.206C32.089 34.2688 32.0733 34.3474 32.0261 34.4103C31.8218 34.8031 31.319 34.6931 31.0833 35.0231C30.5962 35.1959 30.0933 35.3216 29.6691 35.6516C29.182 35.7931 28.7105 36.0288 28.2706 36.2802Z" fill="#1C73B8"/>
<path d="M26.5421 36.1231C26.6049 36.1545 26.6678 36.1859 26.7306 36.2173C26.1649 36.5473 26.8721 36.6416 26.8563 36.8616C25.9764 37.2073 25.175 37.773 24.185 37.8516C23.965 37.8358 23.7293 37.883 23.5408 37.6944C23.855 37.3959 23.9179 36.9716 24.075 36.5945C24.5307 36.1859 25.0336 35.8716 25.6464 35.7931C26.0078 35.7616 26.3378 35.7616 26.5421 36.1231Z" fill="#2377BA"/>
<path d="M8.94277 13.511C9.3199 13.7467 9.44561 13.4795 9.57132 13.2124C9.72846 13.2596 9.8856 13.3224 10.0427 13.3696C10.137 13.4324 10.247 13.4795 10.3413 13.5424C10.4041 14.2967 10.5141 15.0352 10.5141 15.7895C10.5141 21.2578 10.5141 26.7105 10.5141 32.1788C10.5141 32.9016 10.5299 33.6402 10.3413 34.363C10.247 34.5516 10.0899 34.6616 9.8856 34.7087C9.28848 34.473 8.94277 33.8759 8.94277 33.1059C8.95849 27.1504 8.94277 21.2107 8.94277 15.2552C8.94277 14.7838 8.92706 14.3124 8.94277 13.841C8.94277 13.7153 8.94277 13.6053 8.94277 13.511Z" fill="#F5642B"/>
<path d="M8.9428 13.8253C9.30421 14.0453 9.24136 14.3753 9.24136 14.7524C9.22565 18.1151 9.27279 21.4936 9.25707 24.872C9.24136 27.7162 9.36707 30.5761 9.17851 33.4202C9.14708 33.8759 9.82277 33.6245 9.64992 34.0645C9.53992 34.3316 9.47706 34.5673 9.90133 34.5673C9.85419 35.133 9.31993 34.8188 9.06851 35.023C8.97423 35.023 8.89566 35.023 8.80138 35.0387C8.47139 34.3631 8.81709 33.5617 8.39282 32.9174C9.00566 32.0689 8.5971 31.1103 8.61281 30.2147C8.65995 25.1234 8.62853 20.0636 8.62853 14.9881C8.62853 14.5638 8.58139 14.1396 8.9428 13.8253Z" fill="#F4612F"/>
<path d="M32.0419 34.4102C32.0419 34.3473 32.0419 34.3002 32.0419 34.2373C31.9633 34.1273 31.8376 34.0959 31.7119 34.1116C31.5548 34.1273 31.3819 34.0959 31.3034 33.9545C31.2248 33.8288 31.2405 33.7031 31.4448 33.7345C31.3976 33.6245 31.3191 33.7188 31.2562 33.6873C31.0519 33.6245 30.8948 33.6559 30.9105 33.923C30.9577 34.3473 30.6277 34.2845 30.392 34.3159C30.0934 34.3473 29.7791 34.3473 29.512 34.1273C29.292 33.9545 29.7163 33.7659 29.4649 33.6245C29.3863 33.4674 29.4492 33.3259 29.5592 33.2002C29.622 33.1217 29.9206 33.0588 29.512 32.9959C28.9935 32.9174 29.0092 32.6031 29.3706 32.3203C29.622 32.116 29.8577 31.8488 30.2191 31.8017C30.4863 31.7703 30.5177 31.5503 30.612 31.3774C30.832 31.2203 31.0519 31.346 31.2719 31.3774C31.8062 31.566 32.309 31.8488 32.8433 32.0217C33.3304 32.2103 33.8018 32.446 34.289 32.6345C34.5404 32.7445 34.7918 32.8545 34.8546 33.1688C34.2418 33.6716 33.4718 33.8445 32.8119 34.253C32.5762 34.3787 32.309 34.4102 32.0419 34.4102Z" fill="#0D70B6"/>
<path d="M36.9131 33.9231C36.2532 33.7345 35.6246 33.4517 35.0275 33.1374C34.9175 32.666 35.3261 32.3989 35.4518 32.0217C35.5618 31.6603 35.766 31.3146 35.7346 30.9218C35.6246 30.199 35.6718 29.4761 35.6875 28.7533C35.7818 28.1876 35.5618 27.6219 35.7503 27.0719C35.7818 26.9305 35.8289 26.8048 35.9389 26.7105C36.3946 26.6791 36.3317 27.0405 36.3789 27.2919C36.5046 27.999 36.4417 28.7062 36.426 29.3976C36.4103 30.1361 36.5046 30.8589 36.7874 31.5346C37.1174 32.3203 36.8817 33.1217 36.9131 33.9231Z" fill="#BF4698"/>
<path d="M36.9131 33.9231C36.426 33.2317 36.7874 32.4617 36.756 31.7389C36.5046 31.1889 36.5203 30.6547 36.8503 30.1361C37.0545 29.979 37.2745 29.9633 37.4945 30.0576C37.8559 30.3247 37.8402 30.7332 37.8402 31.1104C37.8402 31.6604 37.7459 32.1946 37.7774 32.7446C37.7459 33.2474 37.8559 33.7503 37.6988 34.2531C37.4002 34.206 37.1488 34.0803 36.9131 33.9231Z" fill="#CB3F96"/>
<path d="M37.6989 34.2373C37.3217 33.7973 37.5574 33.2945 37.5417 32.823C37.8717 32.5716 37.7146 32.1316 37.9031 31.8331C38.0917 31.5502 38.2803 31.2831 38.626 31.1574C38.7517 31.1417 38.8617 31.1731 38.9559 31.2517C38.9559 31.5659 38.9559 31.8802 38.9559 32.1945C38.9088 32.3988 38.846 32.6188 38.7988 32.823C38.8617 33.4359 38.2645 33.923 38.4845 34.5515C38.186 34.5201 37.9188 34.4258 37.6989 34.2373Z" fill="#D63493"/>
<path d="M35.9546 31.1103C35.9074 31.9117 35.5303 32.5402 35.0274 33.1373C34.9803 33.1531 34.9175 33.1531 34.8703 33.1688C34.666 33.0588 34.446 32.9488 34.2418 32.8388C33.8332 32.0688 34.3832 31.4874 34.6189 30.8431C35.0746 30.796 35.546 30.796 35.9546 31.1103Z" fill="#882B79"/>
<path d="M38.4845 34.5673C38.1231 34.1901 38.0759 33.8287 38.4374 33.4044C38.5788 33.2316 38.6731 33.0273 38.7988 32.823C39.1445 33.1059 38.7988 33.6873 39.2702 33.923C38.9402 34.2373 38.8773 34.5673 39.2702 34.8815C38.9716 34.8658 38.7045 34.7558 38.4845 34.5673Z" fill="#D82B90"/>
<path d="M38.9559 24.1962C38.9088 24.6676 38.8459 25.1391 38.7988 25.6105C38.6574 25.7519 38.4845 25.7676 38.3117 25.689C37.966 25.4219 37.8717 25.0291 37.7931 24.6205C37.746 23.6148 37.7145 22.6092 38.0917 21.6349C38.1859 21.3835 38.2017 21.0221 38.6416 21.2106C39.0502 21.2264 38.8773 21.682 39.113 21.8392C39.2388 22.6249 38.8616 23.3948 38.9559 24.1962Z" fill="#DB4D9B"/>
<path d="M24.1851 36.5945C24.1066 37.0345 24.468 37.7573 23.5409 37.7102C23.0695 37.553 22.6138 37.3802 22.1424 37.223C21.4195 37.0188 20.681 36.8302 20.021 36.4688C19.2039 36.0445 18.3396 35.7459 17.5068 35.3531C16.4697 34.7717 15.3226 34.426 14.2698 33.876C13.9398 33.7032 13.5313 33.5932 13.4213 33.1375C13.5313 32.6975 13.9241 32.6346 14.2698 32.5246C14.3955 32.5089 14.5212 32.5246 14.6312 32.5561C15.5112 33.5146 16.7368 33.4989 17.8682 33.6246C18.8425 33.7189 19.7696 33.876 20.6653 34.2846C20.9481 34.4103 21.2152 34.3474 21.4981 34.3474C22.5195 34.3317 23.5252 34.3946 24.3423 35.1331C24.5308 35.6517 24.578 36.1545 24.1851 36.5945Z" fill="#2D5FAA"/>
<path d="M20.0995 36.2957C20.8066 36.5629 21.5294 36.7986 22.158 37.2386C19.9423 37.1129 17.7581 36.72 15.6054 36.1858C14.694 35.9658 13.7669 35.7458 12.8083 35.7458C11.5198 35.7458 10.3256 35.2429 9.06848 35.0229C9.35133 34.8658 9.61846 34.7244 9.90131 34.5672C10.0113 34.5044 10.1213 34.4572 10.2156 34.3944C10.2627 34.3944 10.2941 34.3944 10.3413 34.3944C12.9026 34.8344 15.4482 35.3215 18.0096 35.7458C18.7167 35.8558 19.3924 36.1229 20.0995 36.2957Z" fill="#00ADE4"/>
<path d="M35.656 14.4539C35.9703 14.3439 36.2846 14.2496 36.5989 14.1396C36.976 14.1239 37.0074 14.4539 37.0074 14.6738C37.0546 16.9209 37.2274 19.1837 37.0388 21.4307C36.9446 21.8078 36.976 22.2007 36.8031 22.5621C36.6931 22.7821 36.536 22.9707 36.2846 22.9549C35.9703 22.9392 35.9232 22.6878 35.9232 22.4521C35.9075 22.1378 35.8289 21.8393 35.7503 21.5407C35.6875 21.305 35.7189 21.0693 35.7346 20.8336C35.5618 19.0737 35.7975 17.298 35.4989 15.5381C35.3103 15.1453 34.8389 14.7053 35.656 14.4539Z" fill="#CA5BA1"/>
<path d="M34.399 15.0825C34.179 16.2924 34.1476 17.4867 34.399 18.6966C34.4775 19.498 34.8704 20.2837 34.4304 21.0851C34.3047 21.3836 34.1161 21.6036 33.7547 21.5879C33.519 21.5094 33.3776 21.3522 33.299 21.1322C33.0476 20.0323 33.3776 18.9323 33.2362 17.8166C33.1419 17.1095 33.2519 16.371 33.1576 15.6482C33.2519 15.3182 33.5033 15.161 33.8019 15.0196C34.0061 14.9725 34.2104 14.8939 34.399 15.0825Z" fill="#A44397"/>
<path d="M35.4989 15.5538C35.8917 16.0095 35.9546 16.5909 35.9703 17.1566C35.986 18.398 35.9703 19.6551 35.9703 20.8965C35.6717 21.0065 35.3889 21.3364 35.0275 21.0065C34.8232 20.7079 34.7446 20.4093 35.0275 20.1108C34.9175 18.838 35.2003 17.5809 35.1846 16.3238C35.1846 16.0252 35.2632 15.7581 35.4989 15.5538Z" fill="#B73793"/>
<path d="M35.0275 20.1108C35.0746 20.4251 35.1375 20.7393 35.1846 21.0536C35.4675 21.745 35.546 22.4678 35.3417 23.1907C35.216 23.4264 35.0903 23.6464 34.8389 23.7721C34.6346 23.7721 34.5089 23.6778 34.3989 23.5207C34.0847 22.7193 34.3518 21.8707 34.2261 21.0536C34.6189 20.2836 34.1946 19.4665 34.3832 18.6966C34.8232 19.058 34.4932 19.7808 35.0275 20.1108Z" fill="#A93993"/>
<path d="M34.399 15.0825C34.2418 15.1296 34.0847 15.1768 33.9275 15.2239C33.629 14.9096 33.6447 14.5954 33.9275 14.2811C34.1318 14.3282 34.3518 14.3911 34.5561 14.4382C35.0118 14.7839 34.6189 14.9096 34.399 15.0825Z" fill="#902A85"/>
<path d="M38.6416 21.2107C38.233 21.7764 38.1387 22.4521 38.0287 23.1121C37.9502 23.6149 38.013 24.1492 38.013 24.652C37.6359 24.8406 37.5102 24.5578 37.3531 24.3063C37.1645 23.6306 37.2116 22.9392 37.2745 22.2636C37.3688 21.1165 37.5573 19.9222 37.5259 18.8066C37.4945 17.2509 37.9345 15.7267 37.7302 14.1867C37.6988 13.9982 37.793 13.8253 37.8402 13.6525C37.9973 13.5582 38.1702 13.4482 38.3273 13.3539C38.563 14.5324 38.3902 15.7267 38.453 16.9052C38.5473 18.3509 38.2173 19.7965 38.6416 21.2107Z" fill="#D7539E"/>
<path d="M24.1537 10.1954C24.1537 11.8768 24.1537 13.5424 24.1537 15.2238C23.9337 15.2709 23.7765 15.1452 23.7294 14.9724C23.478 13.951 22.7552 13.0553 22.9437 11.9082C23.0223 11.4682 22.9594 11.0282 22.598 10.6825C22.6452 10.6354 22.708 10.5725 22.7552 10.5254C23.2109 10.3211 23.6666 10.164 24.1537 10.1954Z" fill="#FDAA18"/>
<path d="M16.6426 13.1968C16.9569 13.0868 17.2712 12.9925 17.5854 12.8825C18.0254 13.8725 18.2611 14.9096 18.2297 16.0095C18.2297 16.2609 18.2768 16.5281 18.1197 16.7638C17.334 16.9838 16.7997 16.5752 16.2812 16.0724C16.1869 15.2081 15.8255 14.3439 16.3283 13.4953C16.4383 13.401 16.5326 13.291 16.6426 13.1968Z" fill="#F8882C"/>
<path d="M16.3282 13.4954C16.2025 14.3282 16.6111 15.1768 16.3282 16.0096C16.2968 16.041 16.2811 16.0567 16.2496 16.0882C15.9511 16.1824 15.7468 16.0253 15.5425 15.8682C15.1968 15.4439 14.7568 15.0668 14.9925 14.4225C15.0083 14.3911 14.7883 14.2811 14.7568 14.1397C15.024 13.9825 15.2911 13.8254 15.5425 13.6683C15.8097 13.6054 16.0611 13.5583 16.3282 13.4954Z" fill="#F87F31"/>
<path d="M18.0567 16.7951C17.9467 16.0723 17.8525 15.3494 17.8996 14.6266C17.9153 14.4223 17.9625 14.1709 17.7582 14.0452C17.2396 13.7152 17.4282 13.3067 17.5853 12.8824C17.7425 12.7724 17.8996 12.6781 18.0567 12.5681C18.4496 12.5367 18.7481 12.2067 19.1567 12.2381C19.3138 12.5367 19.251 12.8667 19.2353 13.1495C19.1724 14.438 19.471 15.6637 19.7224 16.9051C19.7538 17.0936 19.7852 17.2665 19.6752 17.4394C18.9996 17.6908 18.5439 17.2979 18.0882 16.9051C18.0724 16.8737 18.0724 16.8422 18.0567 16.7951Z" fill="#F98D24"/>
<path d="M12.8713 14.5796C13.0756 14.6425 13.2956 14.6896 13.4998 14.7525C13.547 14.8311 13.547 14.9253 13.5156 15.0196C13.4684 15.0982 13.4056 15.1768 13.3584 15.2396C12.8556 16.0096 12.7142 16.8581 12.7142 17.7695C12.7456 21.8394 12.7299 25.9092 12.7142 29.979C12.7142 30.9061 12.777 31.8018 13.2956 32.6032C13.3741 32.7289 13.4213 32.8861 13.4056 33.0589C12.9656 33.8603 12.1956 34.1117 11.4885 33.6875C11.2842 33.326 11.3314 32.9332 11.3314 32.5404C11.3314 26.7263 11.3314 20.928 11.3314 15.1139C11.3314 14.7525 11.2685 14.3597 11.6456 14.1239C12.0856 14.1239 12.447 14.4539 12.8713 14.5796Z" fill="#F67125"/>
<path d="M11.6142 14.1239C11.4728 14.611 11.6142 15.1138 11.6142 15.6009C11.6142 21.6821 11.6142 27.7633 11.6299 33.8445C11.5985 34.0959 11.4257 34.2059 11.2214 34.3002C10.9543 34.3788 10.6714 34.4416 10.53 34.0959C10.8128 28.0776 10.5771 22.0593 10.6557 16.0409C10.6557 15.5695 10.6871 15.0981 10.5143 14.6424C10.3571 14.2181 10.53 13.9353 10.97 13.8253C11.1742 13.8724 11.3942 13.9353 11.5985 13.9824C11.6142 14.0296 11.6142 14.0767 11.6142 14.1239Z" fill="#F56C27"/>
<path d="M19.6282 17.4394C19.3139 16.1037 18.8739 14.7995 19.0154 13.3696C19.0625 12.9924 18.8111 12.5996 19.1568 12.2539C19.2039 12.2067 19.2668 12.1439 19.3139 12.0967C19.5811 12.0025 19.8325 11.8925 20.0996 11.7982C20.5867 12.2696 20.4924 12.9453 20.6024 13.5267C20.8224 14.6109 20.901 15.7266 21.4196 16.7323C21.341 17.2351 20.8381 17.2665 20.5553 17.5494C20.4924 17.5965 20.4453 17.628 20.3667 17.6594C20.1782 17.738 19.9896 17.8794 19.7696 17.8165C19.6439 17.7065 19.6125 17.5808 19.6282 17.4394Z" fill="#FA951C"/>
<path d="M29.6848 16.968C29.7634 16.2609 29.9834 15.5223 29.9048 14.8466C29.8105 14.0452 30.0934 13.3381 30.1562 12.5839C30.2662 12.631 30.3605 12.6781 30.4705 12.7253C30.5805 12.7881 30.6748 12.8353 30.7848 12.8981C30.8948 13.0081 31.0362 13.1181 31.0362 13.2753C31.0362 14.3595 31.2247 15.4438 31.0048 16.5123C30.8948 16.7166 30.7376 16.858 30.5333 16.968C30.2505 17.0623 29.9677 17.2037 29.6848 16.968Z" fill="#684098"/>
<path d="M30.7848 16.4966C31.0676 16.0881 30.769 15.6952 30.769 15.2867C30.8005 14.4853 30.7848 13.6839 30.7848 12.8825C31.099 12.9925 31.4133 13.1025 31.7276 13.1968C31.7276 13.2439 31.7276 13.291 31.7276 13.3539C32.2775 14.1553 31.9476 15.051 32.0104 15.9152C31.9947 16.0566 31.9476 16.1824 31.8533 16.2924C31.539 16.5438 31.209 16.7481 30.7848 16.4966Z" fill="#713995"/>
<path d="M22.6137 10.6826C23.038 10.6512 23.3051 10.6669 23.2737 11.2797C23.2265 12.2068 23.0223 13.1968 23.7922 14.0296C24.0751 14.3282 23.6822 14.941 24.1694 15.2396C24.1851 15.601 24.1851 15.9624 24.2008 16.3238C24.1694 16.3552 24.1536 16.3867 24.1222 16.4338C23.6194 16.7009 23.0851 16.7166 22.5351 16.6538C21.9066 16.1981 21.9223 15.4595 21.8752 14.831C21.8123 13.8253 21.7337 12.8197 21.498 11.8454C21.4352 11.6097 21.4352 11.3897 21.5295 11.1697C21.5766 11.1226 21.6395 11.0597 21.6866 11.0126C21.9852 10.8869 22.2994 10.7769 22.6137 10.6826Z" fill="#FDA51A"/>
<path d="M21.5137 11.154C22.0794 12.144 22.0794 13.291 22.1423 14.3282C22.1894 15.0667 22.4408 15.7581 22.4565 16.4809C22.1894 16.968 21.8437 17.1095 21.3566 16.7795C20.9166 16.3552 20.8066 15.8524 20.6652 15.2553C20.4766 14.4539 20.5552 13.5896 20.1781 12.8196C20.0052 12.4739 20.2252 12.1125 20.0995 11.7668C20.1466 11.7197 20.2095 11.6568 20.2566 11.6097C20.6809 11.4683 21.0894 11.3111 21.5137 11.154Z" fill="#FB9D1C"/>
<path d="M13.4998 14.8939C13.4998 14.8468 13.4998 14.7996 13.4998 14.7525C13.7669 14.5954 14.0183 14.4382 14.2854 14.2654C14.4426 14.2182 14.5997 14.1711 14.7568 14.1239C14.9454 14.2497 15.4482 14.1397 15.0868 14.6739C15.0397 14.7368 15.2754 15.4753 15.6997 15.711C15.3383 16.0096 15.0397 15.7582 14.7097 15.6325C14.4269 15.5382 14.1912 15.3339 13.8769 15.2868C13.6883 15.2239 13.5312 15.1296 13.4998 14.8939Z" fill="#F77534"/>
<path d="M31.8848 16.0252C31.5391 15.1453 31.8062 14.2496 31.7277 13.3539C31.9948 13.4168 32.2462 13.4639 32.5133 13.5268C32.6233 13.621 32.7333 13.731 32.8276 13.8253C33.519 14.2653 33.2833 14.9253 33.2205 15.5381C33.1733 15.6481 33.1262 15.7424 33.0476 15.8367C32.7962 16.0095 32.5291 16.1824 32.1991 16.1824C32.0734 16.1667 31.9634 16.1195 31.8848 16.0252Z" fill="#7C2E90"/>
<path d="M33.1419 15.5538C32.8591 15.0038 33.2519 14.3439 32.8276 13.8253C33.0319 13.8724 33.2519 13.9353 33.4562 13.9824C33.6133 14.0924 33.7705 14.1867 33.9276 14.2967C33.9276 14.611 33.9276 14.9253 33.9276 15.2395C33.7233 15.3495 33.5033 15.4595 33.299 15.5538C33.2362 15.6009 33.189 15.6009 33.1419 15.5538Z" fill="#862B8B"/>
<path d="M38.3273 25.6106C38.4845 25.6106 38.6416 25.6106 38.7987 25.6106C39.0659 26.5535 38.783 27.4963 38.7987 28.4391C39.0187 28.9419 38.9087 29.3976 38.6259 29.8219C38.233 29.8219 37.8559 30.2619 37.4316 29.9005C37.5102 28.6434 37.7459 27.3863 37.7931 26.1292C37.7931 25.8463 37.9188 25.5478 38.3273 25.6106Z" fill="#D84499"/>
<path d="M38.4846 29.8533C38.5946 29.3819 38.6888 28.9104 38.7988 28.439C39.4902 28.3919 38.9717 27.7319 39.2702 27.4962C39.6788 27.5905 39.6002 27.8891 39.5374 28.1719C39.4745 28.4233 39.3331 28.6747 39.7416 28.7533C39.5374 29.6176 39.0031 30.3561 38.956 31.2675C38.846 31.2675 38.7517 31.2675 38.6417 31.2675C38.0446 30.7489 38.0289 30.5132 38.4846 29.8533Z" fill="#DF3A95"/>
<path d="M40.1659 23.065C40.1816 23.285 40.1031 23.3635 39.9459 23.3635C39.8202 23.3635 39.7731 23.2692 39.7731 23.1592C39.7731 23.0178 39.8359 22.8921 39.9931 22.9078C40.0716 22.9078 40.1345 23.0335 40.1659 23.065Z" fill="#E54B9A"/>
<path d="M10.9856 13.8253C10.797 14.0767 10.4827 14.281 10.8756 14.6424C11.0641 14.7995 10.9856 15.0824 10.9856 15.3181C10.9856 21.1164 10.9856 26.9147 11.0013 32.7131C11.0013 33.2631 10.7813 33.7345 10.6713 34.2373C10.6399 34.6144 10.4042 34.4887 10.1999 34.4416L10.2156 34.3787C10.2156 33.3416 10.2156 32.3045 10.2156 31.2674C10.2156 26.1448 10.2156 21.0064 10.2156 15.8838C10.2156 15.2552 10.247 14.6109 10.0899 14.0295C9.97989 13.6367 10.2627 13.6838 10.3727 13.5267C10.5613 13.621 10.7656 13.731 10.9856 13.8253Z" fill="#F66829"/>
<path d="M37.8402 13.6524C38.1073 14.721 38.1388 15.7895 37.8088 16.8423C37.7616 16.9837 37.6673 17.2351 37.7145 17.2666C38.2016 17.6751 37.4631 18.3037 37.9816 18.6808C38.013 18.7122 38.013 18.8537 37.9659 18.9008C37.2431 19.8908 37.7459 21.0693 37.5259 22.1221C36.7874 22.3421 36.9759 21.6193 36.7402 21.3364C36.9445 20.5036 36.6774 19.6551 36.7559 18.8222C36.8817 17.518 36.6617 16.2295 36.7245 14.9252C36.7402 14.6424 36.8031 14.3438 36.5674 14.1081C36.5674 14.061 36.5674 14.0138 36.5831 13.951C36.8817 13.951 37.1488 13.8724 37.3688 13.6367C37.5416 13.6681 37.6831 13.6524 37.8402 13.6524Z" fill="#D258A1"/>
<path d="M24.1851 16.308C24.8136 16.3709 25.4736 16.3395 26.0707 16.6223C26.165 16.748 26.3693 16.7637 26.4321 16.9051C26.715 17.5808 27.2964 17.7851 27.9564 17.8323C28.9777 19.0736 29.0877 20.5507 28.9149 22.0435C28.6163 24.5891 27.155 26.3648 24.9865 27.6219C24.735 27.7633 24.4679 27.8733 24.1694 27.7161C24.0594 27.6376 23.9965 27.5119 23.9651 27.3862C23.9179 27.2133 23.9494 27.0405 23.9808 26.8676C24.0122 26.789 24.0436 26.7105 24.1065 26.6476C24.5151 26.3648 24.955 26.1291 25.3793 25.8776C26.5893 25.1548 27.2178 24.0863 27.4535 22.7349C27.6264 21.6821 27.8621 20.645 27.4692 19.5765C27.2178 18.8851 26.8564 18.5237 26.1021 18.6651C25.4107 18.068 24.7979 17.3923 24.0908 16.8109C24.0279 16.6537 24.0436 16.4966 24.1694 16.3552L24.1851 16.308Z" fill="#EDEBF2"/>
<path d="M28.8991 12.0968C28.6477 13.8725 29.1663 15.6795 28.5849 17.4395C28.6163 17.5966 28.522 17.6595 28.412 17.6909C27.6578 17.5023 26.8721 17.3295 26.385 16.6224C26.3064 16.4181 25.8821 16.1667 26.3064 16.0095C27.2649 15.6481 27.3592 14.7053 27.7206 13.9982C28.0663 13.3225 28.4277 12.6782 28.8991 12.0968Z" fill="#624A9C"/>
<path d="M26.385 16.6223C27.0607 16.9366 27.7521 17.2666 28.4278 17.5808C28.4749 17.6437 28.4749 17.7223 28.4278 17.7851C28.2392 17.9894 27.9878 17.8008 27.7992 17.8951C27.0135 18.2565 26.6207 17.7694 26.3378 17.1723C26.2436 16.9994 26.1493 16.8109 26.0864 16.6223C26.1807 16.6223 26.275 16.6223 26.385 16.6223Z" fill="#E5E0EC"/>
<path d="M28.4749 17.7224C28.4592 17.6752 28.4434 17.6281 28.4277 17.581C28.4749 17.5338 28.522 17.4867 28.5849 17.4238C28.9777 17.3138 29.3863 17.2667 29.6848 16.9524C29.952 16.9053 30.2034 16.8424 30.4705 16.7953C30.9733 17.4552 30.8634 18.5395 30.2348 19.1838C29.7948 19.3095 29.6848 18.8852 29.4177 18.7123C29.1191 18.4609 28.8049 18.2095 28.5534 17.9109C28.5063 17.8638 28.4906 17.8009 28.4749 17.7224Z" fill="#7E54A2"/>
<path d="M29.5277 33.6087C29.5434 33.7187 30.0305 33.373 29.7162 33.813C29.6691 33.8759 29.5905 33.9387 29.6691 34.0016C29.9519 34.1744 30.2662 34.0487 30.5805 34.0959C30.989 34.1587 30.5019 33.7816 30.7533 33.7659C30.6433 33.5145 30.7219 33.4045 30.989 33.483C31.2719 33.5459 31.5704 33.6245 31.9476 33.703C31.7276 33.7659 31.5862 33.7973 31.4133 33.8602C31.6804 34.0173 32.0104 33.9073 32.2147 34.143C32.2304 34.1587 32.2147 34.2059 32.199 34.2059C32.1518 34.2373 32.1047 34.2373 32.0576 34.253C31.4604 34.3316 30.9419 34.7873 30.2819 34.5673C30.2191 34.5516 30.0619 34.5673 30.0619 34.583C29.8577 35.8087 29.1663 34.9601 28.6634 34.9287C28.4906 34.913 28.302 34.8973 28.1292 34.8816C27.1235 34.8501 26.1335 34.693 25.1436 35.0544C24.7821 35.1801 24.3736 35.023 24.0907 34.7087C23.965 34.5201 23.965 34.3159 23.965 34.0959C23.9336 33.8444 23.9336 33.593 24.075 33.3573C24.295 33.0588 24.625 32.9959 24.9079 33.1059C25.5521 33.3573 26.1964 33.1688 26.8249 33.2159C26.9506 33.2316 27.1078 33.2473 27.202 33.1688C28.1606 32.3045 28.7734 33.3573 29.5277 33.6087Z" fill="#1073B8"/>
<path d="M24.1851 34.7087C25.0493 35.0701 25.8193 34.4416 26.6364 34.4887C27.155 34.5202 27.6892 34.4416 28.0978 34.8659C28.1606 35.6201 27.4849 35.6201 27.0764 35.7144C26.7621 35.7773 26.6521 35.903 26.5264 36.1229C25.9136 35.9187 25.3322 35.9658 24.8136 36.3587C24.6093 36.5158 24.4208 36.6101 24.1851 36.5944C24.1851 36.0758 24.1851 35.5415 24.1851 35.023C24.0908 34.9287 24.1065 34.8187 24.1851 34.7087Z" fill="#1876B9"/>
<path d="M29.5277 33.6089C29.0563 33.3574 28.3335 33.7031 28.0349 32.9803C27.9721 32.8389 27.7521 32.9489 27.6421 33.0589C26.8721 33.8288 25.9921 33.5146 25.1122 33.3417C24.8136 33.2789 24.4993 33.3103 24.1851 33.2946C23.7451 32.7917 23.8551 32.2261 24.0279 31.6761C24.2793 31.2675 24.7036 31.3775 25.0807 31.3147C26.1493 31.0947 27.1549 30.7018 28.1292 30.2304C28.2078 30.199 28.2863 30.199 28.3649 30.199C29.1192 30.4033 29.8106 30.749 30.4862 31.1104C30.5805 31.189 30.6434 31.2832 30.6119 31.4089C30.7377 31.5661 30.8634 31.7232 31.0519 31.9589C30.282 31.8489 29.842 32.3675 29.2291 32.6503C29.4806 32.9175 29.6848 32.7917 29.8891 32.7289C30.062 32.6817 30.282 32.6189 30.3605 32.8389C30.4548 33.106 30.2191 33.106 30.0463 33.1532C29.8263 33.216 29.5748 33.2946 29.5277 33.6089Z" fill="#0673B8"/>
<path d="M32.8276 32.2102C32.2619 32.0845 31.7591 31.8488 31.2562 31.566C30.8791 31.2674 31.052 30.9217 31.1619 30.576C31.2877 30.2146 31.4134 29.8375 31.6019 29.5075C32.0576 29.1146 32.2933 28.4389 33.0476 28.4704C33.1733 28.5961 33.2047 28.7532 33.2047 28.9261C33.3304 29.586 33.2676 30.246 33.2047 30.906C33.0633 31.3145 33.0476 31.786 32.8276 32.2102Z" fill="#803389"/>
<path d="M32.8276 32.2104C32.6076 31.7547 32.7176 31.3461 32.9848 30.9533C33.4719 30.6704 33.9119 30.309 34.5247 30.419C34.6661 30.4976 34.729 30.639 34.7133 30.7961C34.5561 31.4718 34.399 32.1475 34.2419 32.8232C33.739 32.6818 33.2676 32.4618 32.8276 32.2104Z" fill="#852E80"/>
<path d="M31.7276 29.5389C31.7276 30.246 31.099 30.8117 31.2562 31.566C31.0519 31.5188 30.8476 31.456 30.6276 31.4088C30.5648 31.3617 30.5176 31.2988 30.4548 31.2517C29.5905 30.7017 30.1876 30.0417 30.3448 29.4289C30.769 29.3032 31.0362 28.8632 31.5076 28.8475C31.6961 29.0361 31.8847 29.2246 31.7276 29.5389Z" fill="#7D3893"/>
<path d="M36.9131 30.1517C36.866 30.6703 36.8032 31.2045 36.756 31.7231C36.0803 31.456 36.2217 30.796 36.1589 30.3089C36.0489 29.3818 36.1275 28.4389 36.1275 27.5118C36.1275 27.229 36.206 26.9304 35.986 26.6947C35.4989 26.0347 35.7032 25.2962 35.6875 24.5734C35.7503 24.3534 35.7503 24.102 35.9075 23.9134C36.4732 23.8034 36.3632 24.2748 36.4103 24.5577C36.4889 25.1234 36.426 25.7048 36.5046 26.2705C36.5674 26.7262 36.7403 27.0247 37.2117 27.0876C37.416 28.1404 37.6674 29.1932 36.9131 30.1517Z" fill="#C74B9A"/>
<path d="M34.7132 30.7803C34.6661 30.6703 34.6032 30.5761 34.5561 30.4661C34.2418 29.9004 34.5875 29.3504 34.6032 28.7847C34.6661 28.5961 34.8075 28.4547 34.9489 28.3133C35.4674 27.999 35.7346 28.2976 35.9546 28.7219C35.9546 29.5075 35.9546 30.2932 35.9546 31.0789C35.546 30.9846 34.9646 31.5189 34.7132 30.7803Z" fill="#8F2D7C"/>
<path d="M35.9546 24.495C35.9546 25.2335 35.9703 25.9563 35.9703 26.6949C35.9703 26.8049 35.9546 26.8992 35.9546 27.0092C35.6089 27.1977 35.4832 26.9149 35.4046 26.6949C35.3103 26.3963 35.1532 26.1449 34.9961 25.8935C34.8704 25.4535 34.7604 25.0135 34.6661 24.5578C34.6032 24.2593 34.5875 23.945 34.8703 23.7093C34.8703 23.4736 34.8861 23.2693 35.1846 23.2379C36.0017 23.3164 35.7346 24.055 35.9546 24.495Z" fill="#A53186"/>
<path d="M35.1847 25.9248C35.7818 26.0505 35.4361 26.8362 35.9704 27.0248C35.9704 27.6062 35.9704 28.1719 35.9704 28.7533C35.6718 28.5962 35.4518 28.2347 35.0432 28.439C34.6033 27.889 34.6818 27.2448 34.6818 26.6162C34.8075 26.3648 34.729 25.9405 35.1847 25.9248Z" fill="#992F81"/>
<path d="M36.9131 30.1519C37.1645 29.1148 37.0388 28.062 37.0702 27.0092C37.0074 26.082 37.0702 25.1707 37.5416 24.3378C37.6988 24.4478 37.7773 24.6521 38.013 24.6521C38.123 24.9664 38.2173 25.2806 38.3273 25.5949C37.8402 25.8463 37.9502 26.3649 37.9816 26.7106C38.0759 27.842 37.7773 28.9105 37.5416 29.9947C37.5731 30.0262 37.5888 30.0576 37.5731 30.1047C37.5573 30.1362 37.5416 30.1519 37.5416 30.1519C37.3216 30.1519 37.1174 30.1519 36.9131 30.1519Z" fill="#D14A9A"/>
<path d="M37.5416 30.1675C37.5416 30.1204 37.5416 30.0575 37.5416 30.0104C37.6359 29.9633 37.7302 29.9318 37.8088 29.869C38.1859 29.5233 38.1859 29.5233 38.4844 29.8533C38.3587 30.3404 38.3744 30.8118 38.6416 31.2675C38.3902 31.6603 37.9502 31.9275 37.9816 32.4932C37.9973 32.7132 37.7616 32.8074 37.5416 32.8389C37.5416 31.9432 37.5416 31.0475 37.5416 30.1675Z" fill="#D43C95"/>
<path d="M13.3426 33.1216C12.6355 32.3516 12.3684 31.4403 12.3841 30.4032C12.4155 25.9876 12.3998 21.5721 12.3998 17.1565C12.3998 16.2766 12.6826 15.5223 13.3426 14.9409C13.6412 15.2552 13.7354 15.6323 13.7512 16.088C13.7983 17.2508 14.3797 18.2722 14.584 19.4036C14.6311 19.655 14.7411 19.9064 14.7254 20.1736C14.584 22.5935 14.8825 25.0291 14.7411 27.449C14.6626 28.8004 14.5054 30.1517 14.7097 31.5031C14.7883 31.9588 14.6311 32.3831 14.2854 32.7288C14.0183 32.8702 13.7512 33.0273 13.484 33.1688C13.4369 33.1845 13.3897 33.1845 13.3426 33.1216Z" fill="#F23822"/>
<path d="M14.3012 32.7132C14.5683 31.8333 14.2383 30.9533 14.3012 30.089C14.4583 27.7634 14.5526 25.4378 14.3954 23.1279C14.2854 21.5408 14.7411 19.8909 14.0654 18.3509C13.594 17.251 13.5155 16.0882 13.3269 14.9411C13.374 14.9254 13.4369 14.9254 13.484 14.9096C13.6412 14.9725 13.7983 15.0353 13.9555 15.0982C14.1126 15.3339 14.2854 15.5853 14.2854 15.8839C14.2697 17.251 14.8354 18.4609 15.2597 19.718C15.574 20.6608 15.5111 21.6194 15.5897 22.5779C15.7939 24.8564 15.5897 27.1506 15.6525 29.4448C15.6682 29.9162 15.6368 30.3719 15.8568 30.8276C16.0925 31.299 15.7311 31.7233 15.6682 32.179C15.4325 32.6189 15.0711 32.7918 14.584 32.7132C14.5054 32.6975 14.3954 32.6975 14.3012 32.7132Z" fill="#F23E22"/>
<path d="M14.5997 32.6817C14.914 32.5089 15.2283 32.3518 15.5426 32.1789C15.8097 31.8646 16.0925 31.6289 16.5482 31.8175C16.6582 31.8961 16.6739 32.0532 16.7368 32.1475C16.8154 32.2575 16.4382 32.3046 16.7211 32.3832C18.9996 32.9332 21.2938 33.4517 23.6194 33.7974C23.8394 33.8288 24.0122 33.9231 24.1694 34.0803C24.1694 34.2845 24.1694 34.5045 24.1851 34.7088C24.1851 34.8188 24.1851 34.9131 24.1851 35.0231C23.8237 35.0545 23.5251 34.8345 23.2108 34.8031C22.5823 34.7402 21.9852 34.426 21.278 34.6774C20.5709 34.9288 20.0367 34.1431 19.2824 34.1117C18.9524 34.096 18.5439 33.8917 18.1667 33.9231C17.1611 34.0331 16.2497 33.4831 15.2283 33.5146C14.8512 33.5303 14.8512 32.9332 14.5997 32.6817Z" fill="#285CA7"/>
<path d="M10.2 34.4417C10.3728 34.3945 10.5614 34.3945 10.6714 34.2374C10.8756 34.1902 11.0799 34.1274 11.2842 34.0802C11.5828 33.9545 11.897 34.0174 12.1956 34.0645C14.0184 34.2845 15.8412 34.6302 17.5854 35.1959C18.4496 35.4788 19.2824 35.8559 20.0838 36.2959C18.8739 36.1702 17.6954 35.9188 16.5011 35.7459C15.0555 35.5259 13.6412 35.1331 12.1799 35.0231C11.4885 34.9602 10.7971 34.8502 10.2 34.4417Z" fill="#00A6E0"/>
<path d="M17.6011 35.1802C16.7525 35.3059 15.9354 35.0702 15.1812 34.803C14.3326 34.5202 13.4684 34.6145 12.6356 34.3945C12.1956 34.2845 11.7556 34.1274 11.2842 34.0645C11.4099 33.9859 11.5199 33.9074 11.6456 33.8288C12.2113 33.5931 12.777 33.3574 13.3584 33.1217C13.4055 33.1217 13.4684 33.1374 13.5155 33.1374C14.4898 33.8445 15.6526 34.1745 16.7211 34.7088C17.004 34.8659 17.3339 34.9445 17.6011 35.1802Z" fill="#01A1DB"/>
<path d="M37.5417 24.3535C37.4789 25.2649 37.4789 26.1763 37.0703 27.0248C36.6618 27.2448 36.4103 27.2448 36.2689 26.6948C36.1118 26.0505 36.1589 25.422 36.1275 24.7777C36.1118 24.4792 36.2218 24.1492 35.9861 23.8821C35.5304 23.0964 35.4675 22.3107 35.9861 21.525C36.2218 21.7921 36.0961 22.1221 36.1432 22.4207C36.1589 22.5621 36.0804 22.7664 36.3004 22.7978C36.5203 22.8292 36.5832 22.6407 36.6146 22.4364C36.6618 22.075 36.7246 21.7293 36.7718 21.3679C37.0703 21.5879 37.1175 22.075 37.5574 22.1536C37.5417 22.8764 37.5417 23.6149 37.5417 24.3535Z" fill="#CC519D"/>
<path d="M35.9703 21.525C35.9703 22.3106 35.9703 23.0963 35.9703 23.882C35.9703 24.0863 35.9546 24.3063 35.9546 24.5105C35.6717 24.102 35.6089 23.5677 35.1689 23.2535C35.326 22.5149 34.8703 21.7921 35.1689 21.0535C35.4674 21.1793 35.5932 20.4721 35.9546 20.8964C35.9703 21.1007 35.9703 21.305 35.9703 21.525Z" fill="#AF338B"/>
<path d="M33.1419 15.5538C33.1891 15.5538 33.2519 15.5538 33.2991 15.5538C33.4719 16.9995 33.6291 18.4294 33.4719 19.8908C33.4248 20.3308 33.4562 20.7708 33.4562 21.2107C33.3462 21.4622 33.2205 21.6664 32.8905 21.5093C32.3877 20.8179 32.4191 20.0165 32.4505 19.2308C32.5448 18.398 32.6863 17.5809 32.6863 16.7481C32.6863 16.3866 32.6862 16.0095 32.9691 15.711C33.0319 15.6481 33.0791 15.601 33.1419 15.5538Z" fill="#9A4699"/>
<path d="M32.9847 21.525C33.1418 21.415 33.2204 21.2108 33.4561 21.2108C33.5661 21.3207 33.6604 21.415 33.7704 21.525C34.2104 22.1221 34.1004 22.845 34.2418 23.5049C34.2889 23.7564 34.2889 24.0078 34.4146 24.2435C34.5089 24.5578 34.5089 24.8563 34.3204 25.1392C33.739 25.4692 33.5032 25.092 33.3775 24.6206C33.2675 24.1963 33.189 23.7564 32.8433 23.4421C32.6233 22.8921 32.6704 22.3107 32.7018 21.7293C32.749 21.6036 32.8118 21.4779 32.9847 21.525Z" fill="#973E95"/>
<path d="M34.2418 24.1964C34.1632 24.1492 33.9904 24.0864 33.9904 24.0549C34.0846 23.1907 33.629 22.3893 33.7704 21.525C33.9747 21.415 34.1318 21.2579 34.2418 21.0536C34.5875 21.1322 34.5561 21.3993 34.5561 21.6507C34.5561 22.295 34.5561 22.9235 34.5561 23.5678C34.6346 23.8664 34.4775 24.0549 34.2418 24.1964Z" fill="#A13A94"/>
<path d="M34.2418 24.1963C34.1946 23.9135 34.3832 23.7406 34.556 23.5678C34.666 23.6149 34.7603 23.6778 34.8703 23.7249C34.7132 24.4949 35.3417 25.1549 35.1846 25.9248C35.0746 26.1291 34.9803 26.3491 34.8703 26.5534C34.4461 26.302 34.1632 25.9405 33.9904 25.4848C33.9904 25.312 34.1161 25.2334 34.2418 25.1391C34.2418 24.8249 34.2418 24.5106 34.2418 24.1963Z" fill="#9D348C"/>
<path d="M16.3282 16.0096C16.9096 16.2767 17.491 16.5281 18.0567 16.7953V16.811C18.4024 17.4081 18.7166 18.0209 18.7166 18.7281C18.5124 19.3095 18.2452 19.8437 17.601 20.0637C17.3496 20.0637 17.0981 19.9694 17.0353 19.7494C16.6424 18.5395 16.0453 17.3767 16.3282 16.041V16.0096Z" fill="#F45723"/>
<path d="M16.3282 16.0409C16.5482 17.1566 16.7996 18.2565 17.0825 19.3408C17.1768 19.655 17.3182 19.8436 17.5853 19.9536C17.7739 20.1893 17.6796 20.425 17.5853 20.645C17.2396 21.0221 17.3968 21.7292 16.7682 21.9335C16.3125 21.8707 16.0925 21.5407 15.9825 21.1635C15.5111 19.5765 14.9454 18.0051 14.6469 16.3709C14.584 16.0409 14.474 15.7109 14.7411 15.4123C15.0554 15.538 15.3226 15.7423 15.684 15.7266C15.8568 15.8995 16.0925 15.978 16.3282 16.0409Z" fill="#F34C22"/>
<path d="M18.5439 18.7437C18.4653 18.068 17.9939 17.5023 18.041 16.8109C18.5596 17.0152 19.0938 17.2195 19.6124 17.4395C19.6752 17.518 19.7224 17.6123 19.7852 17.6909C19.6438 18.3509 19.1724 18.6337 18.5439 18.7437Z" fill="#F56423"/>
<path d="M20.2567 17.4552C20.2724 17.4238 20.3038 17.4081 20.351 17.4081C21.7809 17.1095 23.1794 16.9209 24.3265 18.1309C24.4994 18.4923 24.4522 18.8537 24.4208 19.2308C24.4365 19.5765 24.4365 19.938 24.0594 20.1108C23.7451 20.2522 23.5094 20.0165 23.2894 19.828C22.3309 19.0266 21.4666 19.388 20.5552 19.9537C19.8324 20.3937 19.6281 21.5093 19.9581 22.4364C20.2724 23.285 21.1209 23.8035 22.158 23.7407C22.5823 23.7092 22.9752 23.615 23.3523 23.4264C24.1851 22.9864 24.3265 23.0807 24.4208 24.0864C24.4365 24.2907 24.3894 24.4949 24.2794 24.6678C22.8966 25.6263 21.3881 25.7835 19.9424 24.9978C18.591 24.2592 17.8054 23.0021 17.9625 21.3679C18.0882 20.1265 18.701 19.0894 19.7539 18.3823C20.1153 18.1309 20.3353 17.8952 20.2567 17.4552Z" fill="#FDFBF9"/>
<path d="M20.2567 17.4551C20.4296 17.6751 20.6181 17.8951 20.8538 18.1937C19.4239 18.4451 18.8896 19.5765 18.3554 20.645C17.9311 21.4778 18.3554 23.112 19.0468 23.9134C19.9896 24.9977 21.0895 25.3277 22.5195 25.0919C23.1009 24.9977 23.588 24.6363 24.1851 24.6677C24.5151 24.9662 24.468 25.3119 24.3265 25.6891C22.0324 27.229 18.6225 26.2233 17.6482 23.8191C17.2083 22.7349 17.0825 21.6821 17.3811 20.5664C17.444 20.3621 17.5225 20.1579 17.5854 19.9536C17.8997 19.545 18.2139 19.1522 18.5439 18.7436C18.9525 18.3979 19.3767 18.0365 19.7853 17.6908C19.9424 17.6122 20.0996 17.5337 20.2567 17.4551Z" fill="#FDF7F2"/>
<path d="M24.1851 18.0679C24.0593 18.0522 23.8865 18.0836 23.8079 18.005C22.9908 17.1722 21.9537 17.5651 20.9952 17.5022C20.7752 17.4865 20.5552 17.4079 20.3352 17.4236C20.6652 17.2194 21.0109 17.0151 21.3409 16.7951C21.7337 16.8108 22.0794 16.6065 22.4408 16.4965C23.0065 16.4337 23.5722 16.2923 24.1536 16.3708C24.1536 16.5123 24.1693 16.6694 24.1693 16.8108C24.3108 16.968 24.4208 17.1565 24.4208 17.3765C24.405 17.5494 24.405 17.7222 24.3422 17.8793C24.3108 17.9579 24.2636 18.0208 24.1851 18.0679Z" fill="#FDF7F2"/>
<path d="M30.1562 19.1679C30.6434 18.4294 30.5805 17.628 30.4705 16.8108C30.5805 16.7009 30.6748 16.6066 30.7848 16.5123C31.0991 16.4023 31.4133 16.308 31.7276 16.198C32.1833 16.6537 31.9319 17.2351 31.9947 17.7537C32.1362 19.0108 32.4819 20.2521 32.2462 21.5249C32.0262 22.2478 32.3719 23.0649 31.9162 23.7563C31.539 23.7877 31.5705 23.4577 31.4605 23.2535C31.2562 22.7035 31.4448 22.0592 31.0833 21.5407C30.8633 21.0693 30.8319 20.5193 30.4705 20.1107C30.3291 19.7964 30.0148 19.545 30.1562 19.1679Z" fill="#854E9D"/>
<path d="M32.0419 21.525C32.1205 19.7336 31.6019 17.9737 31.7276 16.1824C31.7748 16.1352 31.8376 16.0724 31.8848 16.0252C31.9948 16.0252 32.0891 16.0252 32.199 16.0252C32.6547 16.6852 32.529 17.4552 32.5762 18.1937C32.5919 18.5708 32.5605 18.9637 32.6705 19.3251C32.6547 20.0793 32.8433 20.8022 32.9847 21.525C32.9376 21.5721 32.8747 21.635 32.8276 21.6821C32.4505 22.1535 32.3248 21.4621 32.0419 21.525Z" fill="#8E499B"/>
<path d="M14.7569 15.3966C15.0083 17.3608 15.7626 19.1993 16.234 21.1164C16.3126 21.4307 16.5011 21.6821 16.7997 21.8235C16.9411 21.9492 16.9725 22.1064 16.9725 22.2792C16.9097 22.5935 16.8625 22.9235 16.8468 23.2378C16.7211 23.6934 16.6425 24.1491 16.8468 24.6206C16.9097 24.9191 16.8311 25.2491 17.004 25.5319C17.0354 25.7991 17.1611 26.0505 17.2082 26.3176C17.2868 26.7733 17.6796 27.1505 17.5854 27.6533C17.1768 28.8632 17.1611 30.1046 17.3654 31.346C17.2239 31.7546 16.9568 31.9746 16.5011 31.8646C16.1868 31.9588 15.8726 32.0688 15.5583 32.1631C15.4954 31.8488 15.2912 31.5031 15.7154 31.2674C15.8097 31.2046 15.8411 31.0632 15.7626 31.0003C15.1497 30.4818 15.4483 29.7746 15.4169 29.1618C15.3069 27.0405 15.6212 24.9034 15.3854 22.7821C15.244 21.5407 15.2597 20.2993 14.7726 19.0422C14.3798 18.068 13.7512 16.9837 14.1126 15.7895C14.1755 15.5695 13.5784 15.3809 14.0026 15.0509C14.2384 15.1924 14.4898 15.3024 14.7569 15.3966Z" fill="#F34223"/>
<path d="M32.6704 19.3251C32.5133 19.1523 32.2776 19.0423 32.3247 18.7594C32.4662 17.848 32.0733 16.9523 32.199 16.0252C32.4662 15.9152 32.7176 15.8053 32.9847 15.711C33.0633 16.9209 32.8904 18.1309 32.6704 19.3251Z" fill="#954B9B"/>
<path d="M24.1851 17.9109C24.1851 17.7537 24.1851 17.5966 24.1851 17.4395C24.7194 17.3609 25.1122 17.6123 25.4579 17.9737C25.6465 18.178 25.8193 18.398 26.0708 18.5394C27.1236 18.1937 27.8935 18.9165 27.9407 20.3151C28.0035 22.0593 27.7993 23.7878 26.6993 25.1706C26.1022 25.9248 25.2379 26.5534 24.1851 26.7105C24.1065 26.6634 24.0594 26.6005 24.028 26.522C23.9651 26.3177 23.9808 26.1134 24.1065 25.9406C24.5622 25.5163 25.0179 25.092 25.4736 24.652C26.2436 23.9135 26.6207 23.0021 26.6679 21.9179C26.715 21.1636 26.9036 20.4093 26.5265 19.6865C26.385 19.4037 26.2436 19.058 25.8979 19.0423C25.0808 18.9951 24.688 18.398 24.1851 17.9109Z" fill="#F3F2F7"/>
<path d="M28.4749 17.7223C28.5221 17.7223 28.5535 17.738 28.5849 17.7694C29.8734 19.7179 29.8106 22.9549 28.5221 24.9348C27.6264 26.3176 26.5736 27.4962 25.0022 28.1247C24.7351 28.2347 24.5151 28.439 24.2008 28.2976C24.0437 28.1719 24.0122 28.0147 24.0437 27.8419C24.0751 27.7633 24.1222 27.6847 24.1851 27.6376C25.5836 27.2762 26.5421 26.2862 27.4064 25.2177C28.1292 24.3063 28.4906 23.2221 28.6478 22.0592C28.852 20.5664 28.5849 19.1836 27.7992 17.9108C27.9878 17.6908 28.2392 17.7694 28.4749 17.7223Z" fill="#E9E6F0"/>
<path d="M16.6268 24.6678C16.4696 24.1807 16.4696 23.6935 16.6268 23.2064C17.1767 24.2121 17.7424 25.202 18.6538 25.9249C19.3924 26.5063 20.2095 26.9463 21.1837 26.9305C21.9851 26.9305 22.8022 26.9934 23.6036 26.7734C23.8079 26.7106 24.0122 26.6791 24.185 26.852C24.185 27.0091 24.185 27.1662 24.185 27.3234C24.0436 27.6377 23.7451 27.7477 23.4308 27.8105C21.278 28.2034 19.3924 27.5905 17.711 26.302C17.161 25.8934 16.7996 25.3278 16.6268 24.6678Z" fill="#FAE6D9"/>
<path d="M16.6268 24.6677C17.5067 26.1291 18.921 26.9148 20.4452 27.5276C21.0266 27.7633 21.6709 27.7633 22.3151 27.6062C22.9279 27.4491 23.6036 27.7476 24.185 27.3391C24.185 27.4491 24.185 27.5433 24.2008 27.6533C24.2008 27.7005 24.2008 27.7633 24.185 27.8105C23.965 28.0933 23.6979 28.2819 23.3522 28.329C21.1052 28.6433 19.1567 27.9362 17.3967 26.5848C17.0668 26.3334 17.0039 25.9248 16.7996 25.6106C16.6268 25.312 16.6111 24.9977 16.6268 24.6677Z" fill="#FAE3D3"/>
<path d="M24.1851 26.8676C23.0223 27.2919 21.8281 27.1819 20.6338 27.1819C20.0681 27.1819 19.5496 26.8519 19.1567 26.5848C17.9625 25.7677 16.8154 24.8249 16.6111 23.2221C16.5954 22.8921 16.6111 22.5778 16.7683 22.2792C17.114 22.4678 17.1454 22.8292 17.2554 23.1435C18.2453 25.8305 20.4767 27.0876 23.2737 26.5376C23.5723 26.4748 23.8865 26.3176 24.1694 26.5691C24.1694 26.6162 24.1694 26.6791 24.1694 26.7262C24.1851 26.7576 24.1851 26.8048 24.1851 26.8676Z" fill="#FCEAE0"/>
<path d="M26.0707 18.5394C25.4421 18.178 24.8136 17.8009 24.1851 17.4395C24.1851 17.2352 24.1851 17.0152 24.1851 16.8109C25.0493 17.1252 25.615 17.7695 26.0707 18.5394Z" fill="#F3F2F7"/>
<path d="M30.1563 19.168C30.3135 19.4351 30.4706 19.7023 30.6277 19.9694C31.1306 21.5565 30.9892 23.0807 30.2192 24.5578C29.1507 26.6477 27.705 28.3133 25.4894 29.2405C25.3165 29.2719 25.1594 29.2719 25.0022 29.2247C24.7665 29.1305 24.578 29.0047 24.4523 28.769C24.4523 28.4076 24.7665 28.3919 24.9865 28.2976C27.7521 27.072 29.8263 24.0235 29.7006 20.7708C29.6849 20.3779 29.5592 20.0008 29.4806 19.6237C29.4021 19.278 29.2449 18.9166 29.5121 18.5709C29.7321 18.7752 29.9363 18.9637 30.1563 19.168Z" fill="#DED8E7"/>
<path d="M29.5119 18.5708C29.9991 20.1265 30.1405 21.7292 29.6534 23.2849C29.2448 24.5734 28.6163 25.7991 27.5634 26.7419C26.9349 27.3233 26.3221 27.889 25.5521 28.329C25.2064 28.5176 24.7821 28.4861 24.4836 28.7533C24.4207 28.8475 24.3264 28.879 24.2164 28.879C24.1379 28.8633 24.075 28.8475 24.0279 28.8004C23.9022 28.6118 23.965 28.4704 24.0907 28.329C24.1222 28.3133 24.1536 28.2976 24.185 28.2818C26.1492 27.5276 27.6106 26.1605 28.6005 24.3534C29.3077 23.0649 29.2762 21.6035 29.2134 20.1579C29.182 19.2936 28.6791 18.6022 28.5848 17.8008C28.9462 17.9737 29.2448 18.2565 29.5119 18.5708Z" fill="#E5E0EC"/>
<path d="M16.4854 31.8959C16.7526 31.7388 17.004 31.566 17.2711 31.4088C18.0568 30.8274 18.9682 30.5131 19.8639 30.2146C20.021 30.1832 20.1781 30.2303 20.3196 30.2774C20.3981 30.2932 20.461 30.3403 20.5238 30.3717C21.0895 30.7331 21.7495 30.8903 22.378 31.0945C22.928 31.3145 23.5409 31.2674 24.0908 31.5188C24.1065 31.5502 24.138 31.5817 24.1537 31.6288C24.1537 32.1945 24.1537 32.7602 24.1694 33.3259C24.1694 33.593 24.1694 33.8444 24.1537 34.1116C22.9594 34.1116 21.7966 33.7973 20.6181 33.6087C19.471 33.4202 18.3396 33.043 17.2082 32.7759C16.7526 32.6345 16.4069 32.4616 16.4854 31.8959Z" fill="#2558A5"/>
<path d="M28.4121 30.3403C28.3649 30.3403 28.3335 30.3403 28.2864 30.3403C27.9092 30.466 27.5793 30.3875 27.3121 30.0732C27.2807 30.0103 27.265 29.9318 27.2807 29.8532C28.1292 28.9418 29.2606 28.3447 30.062 27.3862C30.282 27.119 30.6749 27.1505 31.0048 27.339C31.1934 27.8261 30.8477 28.1404 30.6434 28.5018C30.2034 29.0047 29.7949 29.5389 29.2449 29.9475C28.9778 30.136 28.7421 30.3403 28.4121 30.3403Z" fill="#C3B6D2"/>
<path d="M28.412 30.3403C29.1505 29.7432 29.8262 29.0989 30.4548 28.3761C30.8005 28.7061 30.7376 29.0361 30.4705 29.3661C30.4862 29.696 30.4705 30.026 30.3291 30.3403C30.1719 30.6703 30.2191 30.9689 30.4705 31.236C29.7634 30.9846 29.0562 30.7489 28.412 30.3403Z" fill="#764399"/>
<path d="M27.3278 29.9947C27.6421 30.1047 27.9721 30.2147 28.2863 30.3247C27.0607 31.2203 25.6621 31.5189 24.1851 31.5818L24.2008 31.5346C24.0908 31.4403 24.1065 31.3146 24.1536 31.2046C25.0807 30.6861 26.1178 30.4347 27.0449 29.9004C27.1392 29.869 27.2492 29.9318 27.3278 29.9947Z" fill="#A5C2E2"/>
<path d="M34.0846 25.4535C34.3989 25.7835 34.7918 26.0506 34.8703 26.5534C34.9018 27.182 35.106 27.7948 35.0275 28.4391C35.0118 28.6276 34.9018 28.7376 34.7132 28.7533C33.9904 29.5705 33.8018 29.5862 32.9847 28.9105C32.9847 28.7533 32.9847 28.5962 32.9847 28.4391C32.6704 28.0934 32.7804 27.7005 32.8747 27.3077C33.1418 26.8677 33.3618 26.3963 33.5818 25.9406C33.6761 25.7206 33.7232 25.4063 34.0846 25.4535Z" fill="#8F3489"/>
<path d="M32.9848 27.339C33.1105 27.7004 32.9533 28.0775 32.9848 28.4389C32.6234 28.8789 32.2305 29.256 31.7277 29.5389C31.7434 29.3032 31.2563 29.2089 31.5705 28.9103C31.3191 27.8418 31.4134 26.8204 31.9477 25.8462C32.0577 25.799 32.1834 25.7833 32.2934 25.8304C32.5134 26.3176 32.9219 26.7418 32.9848 27.339Z" fill="#863992"/>
<path d="M32.9847 28.9104C33.1576 28.9419 33.3776 28.9104 33.519 29.0047C33.9276 29.3033 34.1475 29.2718 34.3047 28.7533C34.3518 28.5804 34.5718 28.3605 34.7132 28.7533C34.9804 29.3661 34.619 29.9004 34.5561 30.4818C33.9904 30.5132 33.629 31.1732 32.9847 30.9532C32.9847 30.2618 32.9847 29.5861 32.9847 28.9104Z" fill="#893184"/>
<path d="M32.0419 25.9249C31.6648 26.8834 31.8376 27.9362 31.5705 28.9105C31.4134 28.9262 31.2562 29.0047 31.2248 29.1619C31.1148 29.759 30.7848 29.5233 30.4705 29.3819C30.4705 29.0519 30.4548 28.7219 30.4548 28.3919C30.6277 28.0462 30.7848 27.7005 30.9577 27.3391C30.9891 26.5534 31.1462 25.8149 31.7591 25.2492C32.1048 25.3592 32.2305 25.5634 32.0419 25.9249Z" fill="#813F97"/>
<path d="M32.0419 25.9248C32.0105 25.6733 31.9319 25.4533 31.7276 25.2962C31.2719 24.7305 31.5548 24.2434 31.8691 23.7563C31.9633 23.0177 31.6962 22.2478 32.0419 21.5249C32.3719 21.2421 32.529 21.8392 32.8276 21.6821C33.1104 22.232 32.9376 22.8292 32.9847 23.4106C33.409 24.4005 32.8433 25.1548 32.3562 25.9248C32.2462 25.9248 32.1362 25.9248 32.0419 25.9248Z" fill="#8B4398"/>
<path d="M32.3561 25.9248C32.4032 25.0449 33.0318 24.3063 32.9847 23.4107C33.4718 23.5992 33.6446 23.9606 33.6132 24.4635C33.5818 24.9035 33.7546 25.1706 34.2417 25.1392C34.1946 25.2492 34.1317 25.3434 34.0846 25.4534C33.8803 25.8934 33.6289 26.3334 33.4875 26.7891C33.3932 27.0877 33.2361 27.2291 32.9847 27.3391C32.7647 26.8677 31.9318 26.6791 32.3561 25.9248Z" fill="#8E3A94"/>
<path d="M24.1851 26.5534C22.0637 27.2606 20.1152 27.0563 18.4024 25.4692C17.4596 24.5892 17.0354 23.4893 16.7839 22.2636C16.7839 22.1222 16.7996 21.9808 16.7996 21.8394C17.0511 21.4465 17.0668 20.928 17.3811 20.5665C17.6482 21.0222 17.4439 21.5251 17.4596 21.9965C17.5539 23.835 18.7481 25.5006 20.5395 25.972C21.7023 26.2706 22.708 26.082 23.7765 25.7363C23.8865 25.7049 24.0279 25.752 24.1694 25.7678C24.2165 25.7992 24.2165 25.8306 24.2165 25.8778C24.2008 25.9092 24.1851 25.9249 24.1694 25.9249C24.1851 26.1292 24.1851 26.3335 24.1851 26.5534Z" fill="#FCF1E8"/>
<path d="M24.1851 24.0391C24.1537 23.8191 24.2951 23.5048 24.0751 23.3791C23.8237 23.222 23.698 23.5677 23.5095 23.6777C22.5195 24.2277 20.8538 24.1648 20.0839 23.2063C19.2668 22.1849 19.361 20.5192 20.2724 19.7336C21.2781 18.8536 22.5823 18.8536 23.5723 19.7336C23.698 19.8435 23.808 20.0793 24.0123 19.9693C24.2637 19.8278 24.1537 19.545 24.1851 19.325C24.4994 18.995 24.7665 19.105 25.0337 19.4036C25.8979 20.3935 25.9608 22.5306 25.1437 23.5677C24.908 23.8662 24.6566 24.1962 24.1851 24.0391Z" fill="#FEFEFE"/>
<path d="M24.1851 24.0392C25.4893 23.3007 25.8507 21.5879 25.0493 19.938C24.8765 19.5922 24.7979 19.0894 24.1851 19.3251C24.1851 18.9008 24.1851 18.4923 24.1851 18.068C24.1851 18.0209 24.1851 17.958 24.1851 17.9109C24.2951 17.9266 24.405 17.9109 24.4836 17.958C25.0179 18.288 25.3636 18.8694 26.1493 18.8066C26.5107 18.7751 27.2178 20.2994 27.0764 20.8336C26.8407 21.6665 27.0135 22.5621 26.6364 23.3792C26.1021 24.5263 25.3007 25.3749 24.1851 25.9249C24.1851 25.8777 24.1851 25.8149 24.1851 25.7677C24.1851 25.4063 24.1851 25.0292 24.1851 24.6678C24.1851 24.4478 24.1851 24.2435 24.1851 24.0392Z" fill="#F8F9FB"/>
<path d="M25.4421 29.0676C26.5421 28.4234 27.6735 27.7948 28.4749 26.7734C29.8734 24.9821 31.0362 23.1121 30.5962 20.6765C30.5491 20.4565 30.6119 20.2051 30.6276 19.9851C31.0519 20.3465 31.0362 20.9122 31.2719 21.3522C31.6647 23.5678 30.7062 25.3435 29.4648 27.0248C29.292 27.2605 29.072 27.4334 28.9306 27.7005C28.2077 28.4862 27.3435 29.099 26.4321 29.649C26.3535 29.6805 26.275 29.6805 26.1964 29.6805C25.8664 29.539 25.4421 29.5705 25.4421 29.0676Z" fill="#D7CFE1"/>
<path d="M31.869 23.7407C31.8219 24.2592 31.7747 24.762 31.7276 25.2806C31.4919 25.972 31.3976 26.7105 30.9576 27.3234C29.7948 27.4334 29.3862 28.5962 28.4906 29.0833C28.082 29.3033 27.8463 29.7747 27.3278 29.8376C27.2335 29.9318 27.1235 29.9161 27.0135 29.8847C26.8721 29.4447 27.2492 29.2876 27.5006 29.099C28.5534 28.3133 29.4962 27.4491 30.1562 26.302C30.3448 25.9877 30.5648 25.6891 30.6119 25.312C30.8633 24.7306 31.1305 24.1492 31.3033 23.5364C31.3662 23.3321 31.3819 23.065 31.7119 23.0807C31.759 23.3164 31.8219 23.5364 31.869 23.7407Z" fill="#C9BBD4"/>
<path d="M31.7119 23.0964C31.4448 23.8978 31.2877 24.7463 30.7848 25.4534C30.4077 26.2391 29.7792 26.8676 29.2292 27.5276C29.1192 27.669 28.9463 27.7476 28.7421 27.6533C28.7578 27.4648 28.8521 27.3076 28.9778 27.1819C30.5177 25.532 31.1463 23.5363 31.2562 21.3364C31.6962 21.8393 31.4448 22.5307 31.7119 23.0964Z" fill="#D2C5DA"/>
<path d="M19.9582 30.3404C19.0939 30.7489 18.2454 31.2361 17.2711 31.4089C17.1926 31.3303 17.0826 31.2675 17.0668 31.1889C16.9411 29.979 16.7054 28.769 17.4597 27.6533C17.5225 27.6219 17.6011 27.6062 17.664 27.6376C17.9311 27.8733 18.1197 28.1876 18.3554 28.4704C18.5439 28.7533 18.7325 29.0518 19.0153 29.2718C19.3139 29.6175 19.8639 29.7747 19.9582 30.3404Z" fill="#F34622"/>
<path d="M16.784 25.6105C18.5125 27.559 21.4352 28.8161 24.1851 27.8105C24.1851 27.9676 24.2008 28.1247 24.2008 28.2819H24.1851C23.3994 28.8476 22.5037 28.879 21.5766 28.8161C20.131 28.7533 18.8896 28.0933 17.6796 27.4176C17.3025 27.2133 17.2554 26.7105 16.9882 26.3962C16.8782 26.1448 16.7525 25.8934 16.784 25.6105Z" fill="#FADDCC"/>
<path d="M16.9725 26.3804C17.6325 27.229 18.5282 27.7004 19.5024 28.0461C20.2095 28.2975 20.8695 28.6589 21.6552 28.5803C21.7023 28.6589 21.7023 28.7375 21.6709 28.8161C21.4038 29.1618 21.0424 29.1618 20.681 29.0989C19.5181 28.8946 18.4182 28.5332 17.5539 27.6532C17.5225 27.6532 17.4754 27.6375 17.4439 27.6375C17.2868 27.229 17.1297 26.8047 16.9725 26.3804Z" fill="#F9D7C6"/>
<path d="M15.7625 24.872C15.9039 25.0606 15.8568 25.2491 15.8097 25.4534C15.6211 25.2334 15.7311 25.0448 15.7625 24.872Z" fill="#F23E22"/>
<path d="M15.8255 22.8606C15.8098 22.8135 15.7469 22.7506 15.7626 22.7349C15.7941 22.6721 15.8726 22.6406 15.9198 22.5935C15.9355 22.6406 15.9826 22.6878 15.9826 22.7192C15.9826 22.8135 15.9355 22.8606 15.8255 22.8606Z" fill="#F23E22"/>
<path d="M25.4422 29.0676C25.6308 29.3504 26.0079 29.3033 26.2279 29.539C25.6622 30.1361 24.9865 30.4189 24.1537 30.2304C23.9809 30.0575 23.9494 29.8532 23.9809 29.6175C23.9966 29.539 24.028 29.4604 24.0752 29.3818C24.3109 29.1147 24.6251 29.0518 24.9708 29.0676C25.128 29.0518 25.2851 29.0676 25.4422 29.0676Z" fill="#C5D7EB"/>
<path d="M24.9708 29.0518C24.8137 29.3975 24.4994 29.366 24.1851 29.366C23.9808 29.1618 24.0123 28.9575 24.1851 28.7375C24.2951 28.7375 24.3894 28.7375 24.4994 28.7375C24.7194 28.7532 24.8765 28.8632 24.9708 29.0518Z" fill="#D2DFEF"/>
<path d="M24.1851 28.7533C24.1851 28.9576 24.1851 29.1619 24.1851 29.3819C24.1851 29.429 24.1851 29.4919 24.1694 29.539C23.3994 30.2147 22.5195 30.2147 21.5924 29.979C21.4666 29.8847 21.4352 29.7747 21.5138 29.6333C21.8595 29.1619 22.4566 29.1776 22.8966 28.879C23.2737 28.8005 23.6194 28.4548 24.028 28.7376C24.0751 28.7376 24.138 28.7376 24.1851 28.7533Z" fill="#B6C9E2"/>
<path d="M24.0279 28.7376C23.6508 28.7847 23.3523 29.099 22.9437 29.0676C22.4723 29.1776 21.938 29.4447 21.6709 28.7533C21.6709 28.7062 21.6709 28.6433 21.6709 28.5962C22.5351 28.6747 23.3365 28.3762 24.1851 28.2819C24.1222 28.4233 24.0751 28.5805 24.0279 28.7376Z" fill="#F6DBC4"/>
<path d="M22.2681 31.2676C21.5767 31.1576 20.9324 30.9219 20.3667 30.4976C20.4138 30.3719 20.4924 30.2305 20.6181 30.2305C21.7809 30.199 22.9437 30.0576 24.1065 30.2462C24.248 30.309 24.3108 30.4347 24.3423 30.5762C24.358 30.7176 24.3423 30.8433 24.2794 30.969C23.7137 31.6761 22.9752 31.2833 22.2681 31.2676Z" fill="#96B5DA"/>
<path d="M24.1851 30.3247C22.928 30.6075 21.6552 30.3875 20.3824 30.4975C20.3352 30.4975 20.2881 30.4818 20.2567 30.4504C20.0838 30.0261 20.4609 29.979 20.6809 29.8218C20.9638 29.7118 21.2309 29.5861 21.498 29.8376C22.4094 29.9161 23.3051 29.7276 24.1851 29.539C24.1851 29.7433 24.2008 29.9475 24.2008 30.1518C24.2322 30.199 24.2479 30.2304 24.2322 30.2618C24.2008 30.309 24.1851 30.3247 24.1851 30.3247Z" fill="#A6C0DF"/>
<path d="M20.7281 30.0104C20.6024 30.1833 20.2567 30.1518 20.241 30.4504C20.1467 30.419 20.0367 30.3718 19.9424 30.3404C19.5967 29.9947 19.1253 29.7904 18.8582 29.3662C19.5967 29.209 20.4767 29.5233 20.7281 30.0104Z" fill="#F7C2A8"/>
<path d="M22.2679 31.2675C22.9122 31.1889 23.5722 31.2989 24.1693 30.9532C24.2636 31.0475 24.2793 31.1575 24.185 31.2675C24.185 31.3618 24.185 31.4717 24.185 31.566C23.525 31.5975 22.8965 31.5189 22.2679 31.2675Z" fill="#84A9D5"/>
<path d="M24.185 31.2517C24.185 31.1417 24.1693 31.0474 24.1693 30.9374C24.1693 30.8274 24.185 30.7174 24.185 30.6231C25.0178 30.1832 25.8507 29.7903 26.7935 29.7117C26.8721 29.7275 26.9506 29.7746 27.0135 29.8375C27.1235 29.8375 27.2178 29.8375 27.3278 29.8375C27.3278 29.8846 27.3278 29.9475 27.3278 29.9946C26.5421 30.3717 25.8035 30.8588 24.955 31.1103C24.7036 31.1888 24.4522 31.2674 24.185 31.2517Z" fill="#AFC8E5"/>
<path d="M27.0136 29.8376C26.9664 29.8376 26.9036 29.8376 26.8564 29.8376C26.6836 29.759 26.4164 29.8062 26.385 29.5233C27.0764 28.7848 27.9721 28.282 28.7421 27.6377C29.5749 27.0406 30.062 26.1292 30.7848 25.4378C30.8163 25.7206 30.6591 25.9249 30.5177 26.1449C29.7163 27.512 28.6478 28.6277 27.3435 29.5076C27.2178 29.6019 27.1236 29.7276 27.0136 29.8376Z" fill="#CEC3DC"/>
<path d="M26.3849 29.5232C26.5421 29.6332 26.6992 29.7274 26.8564 29.8374C25.945 30.0103 25.175 30.6702 24.185 30.6231C24.185 30.5131 24.185 30.4188 24.1693 30.3088C24.1693 30.2617 24.185 30.1988 24.185 30.1517C24.9079 30.0888 25.5364 29.696 26.2278 29.5232C26.2749 29.5232 26.3378 29.5232 26.3849 29.5232Z" fill="#BBCFE8"/>
<path d="M21.6708 28.7533C22.0637 28.989 22.5037 29.0676 22.9437 29.0676C22.5822 29.3976 22.0794 29.4447 21.6708 29.6647C20.9794 29.5704 20.288 29.6019 19.6124 29.3662C19.0781 29.1933 18.6381 28.9105 18.1981 28.5962C17.9153 28.3291 17.6953 28.0305 17.5696 27.6534C18.5753 28.0148 19.4395 28.7219 20.5552 28.8319C20.9323 28.8633 21.3094 28.9419 21.6708 28.7533Z" fill="#F9D3BD"/>
<path d="M18.1824 28.5962C19.2666 28.9419 20.3037 29.4761 21.4822 29.429C21.5451 29.429 21.608 29.5861 21.6551 29.6647C21.5922 29.7276 21.5451 29.7747 21.4822 29.8376C21.2308 29.9004 20.9794 29.9476 20.728 30.0104C20.0994 29.7904 19.4866 29.5861 18.8581 29.3661C18.5595 29.1776 18.3552 28.9104 18.1824 28.5962Z" fill="#F8CBB4"/>
</g>
</g>
<defs>
<clipPath id="clip0_2_6383">
<rect width="48.0643" height="48" fill="white"/>
</clipPath>
<clipPath id="clip1_2_6383">
<rect width="32.3701" height="36" fill="white" transform="translate(8 5.99995)"/>
</clipPath>
</defs>
</svg>
