<svg width="48" height="48" viewBox="0 0 48 48" fill="none" xmlns="http://www.w3.org/2000/svg">
<circle cx="24" cy="24" r="24" fill="white"/>
<path fill-rule="evenodd" clip-rule="evenodd" d="M20 14.0757L25.5521 19.6278L29.5899 15.5899L23.5331 9.53312C21.5818 7.58184 18.4182 7.58183 16.4669 9.53312L7.53312 18.4669C5.58183 20.4182 5.58183 23.5818 7.53312 25.5331L21.918 39.918L25.9558 35.8801L12.0757 22L20 14.0757Z" fill="#3CEAAA"/>
<path fill-rule="evenodd" clip-rule="evenodd" d="M29.4636 20.4607L16.593 33.3313L12.5551 29.2935L25.4258 16.4228L29.4636 20.4607Z" fill="#3CEAAA"/>
<path fill-rule="evenodd" clip-rule="evenodd" d="M28.429 13.4196C30.3803 11.4683 33.544 11.4683 35.4953 13.4196L40.4669 18.3912C42.4182 20.3425 42.4182 23.5062 40.4669 25.4575L25.971 39.9534C24.856 41.0684 23.0482 41.0684 21.9331 39.9534C20.8181 38.8383 20.8181 37.0305 21.9331 35.9155L35.9243 21.9243L31.9622 17.9622L25.976 23.9483C24.861 25.0633 23.0532 25.0633 21.9382 23.9483C20.8232 22.8333 20.8232 21.0255 21.9382 19.9105L28.429 13.4196Z" fill="#03BCE4"/>
<path fill-rule="evenodd" clip-rule="evenodd" d="M24.6436 18.5173L34.2335 28.1072L30.1957 32.145L20.6058 22.5551L24.6436 18.5173Z" fill="#03BCE4"/>
<path d="M19.9497 21.8992L23.9875 17.8613L28.0254 21.8992L23.9875 25.937L19.9497 21.8992Z" fill="#00A5E1"/>
</svg>
