<svg width="49" height="48" viewBox="0 0 49 48" fill="none" xmlns="http://www.w3.org/2000/svg">
<g clip-path="url(#clip0_2_6564)">
<path d="M24.8359 47.9999C24.3054 47.9999 23.775 47.9999 23.2284 47.9999C22.9712 47.9517 22.714 47.8713 22.4568 47.8553C11.992 47.2766 2.81313 39.448 0.659076 29.1761C0.35365 27.7293 0.22505 26.2344 0 24.7555C0 24.225 0 23.6945 0 23.148C0.0643001 22.521 0.1286 21.878 0.208975 21.2511C1.68788 8.21428 13.5512 -1.26998 26.6202 0.144618C40.0107 1.59137 49.5914 13.7762 47.8553 27.1185C46.5533 37.0689 39.0141 45.2672 29.1601 47.373C27.7455 47.6784 26.2827 47.791 24.8359 47.9999Z" fill="white"/>
<g clip-path="url(#clip1_2_6564)">
<path d="M31.3576 27.255C31.3576 28.0988 30.9857 28.6996 30.3707 28.9141C29.6555 29.1572 29.0834 28.8283 28.6973 28.2848C27.7962 27.0118 27.2527 25.6102 27.2527 24.0226C27.2527 23.3932 27.553 22.9212 28.1108 22.6495C28.6544 22.3777 29.1549 22.6209 29.5697 22.9498C30.5995 23.7794 30.9142 24.9951 31.2145 26.1966C31.2861 26.5684 31.3147 26.9546 31.3576 27.255Z" fill="#D600A8"/>
<path d="M16.1967 23.5936C16.1967 23.4077 16.1824 23.2074 16.1967 23.0215C16.2396 22.7068 16.1252 22.1919 16.4827 22.006C17.0119 21.9345 17.5125 22.149 17.8415 22.4351C18.3993 22.9214 18.4279 23.6365 18.199 24.3516C18.0131 24.9237 17.5983 25.1669 17.0262 25.2384C16.4684 25.3099 16.1538 25.1383 16.1967 24.509C16.211 24.2229 16.1967 23.9083 16.1967 23.5936Z" fill="#D600A8"/>
<path d="M37.7366 20.2037C36.8356 20.5613 35.863 20.7615 34.8332 20.7615C30.4851 20.7615 26.9524 17.2287 26.9524 12.8807C26.9524 12.2228 27.0382 11.5792 27.1812 10.9784C23.5626 10.0202 20.0012 10.249 16.54 11.6936C10.7903 14.0964 6.98574 19.6745 7.00004 26.2681C7.15737 30.7877 9.25987 34.9784 13.4649 37.8676C19.1431 41.7722 25.1931 42.044 31.186 38.6256C37.6794 34.9355 40.54 27.1978 37.7652 20.2752C37.7509 20.2466 37.7366 20.218 37.7366 20.2037ZM19.6151 26.8402C18.6711 27.1978 17.6842 27.1262 16.7259 27.0833C16.1109 27.0547 15.925 27.2836 15.9965 27.87C16.0823 28.628 16.068 29.3575 16.9404 29.7722C17.484 30.0297 17.4267 30.5589 16.9261 30.9165C16.7402 31.0452 16.5114 31.1739 16.2825 31.2168C14.795 31.5029 13.3075 31.5172 11.8201 31.2025C11.4053 31.1167 10.9905 30.9308 10.919 30.4159C10.8475 29.9153 11.2337 29.7579 11.5626 29.5863C11.9488 29.3861 12.0918 29.0857 12.0918 28.6566C12.0918 26.6256 12.0918 24.609 12.1061 22.578C12.1061 22.0917 11.9202 21.777 11.4196 21.634C10.9762 21.5053 10.5185 21.305 10.6043 20.7186C10.6901 20.1036 11.1907 20.0321 11.677 20.0178C12.2491 20.0035 12.8213 20.0178 13.3934 20.0178C13.3934 19.9749 16.4828 19.9177 18.0275 19.9034C18.5424 19.9034 19.0143 19.9892 19.5006 20.1322C21.1884 20.6471 22.118 21.7627 22.1466 23.2788C22.1896 25.0094 21.3171 26.1966 19.6151 26.8402ZM35.5197 26.8259C35.0477 29.243 33.2885 30.5589 31 31.1882C30.3707 31.3599 29.7414 31.4314 29.0835 31.3885C26.5233 31.3456 24.4208 30.4302 23.2766 28.013C21.689 24.6376 23.7486 20.7615 27.4387 20.075C29.3838 19.7031 31.3004 19.7603 32.9881 20.9475C35.0048 22.3777 36.006 24.3801 35.5197 26.8259Z" fill="#D600A8"/>
<path d="M34.8331 4.99995C30.4851 4.99995 26.9523 8.53273 26.9523 12.8808C26.9523 17.2288 30.4851 20.7616 34.8331 20.7616C39.1812 20.7616 42.7139 17.2288 42.7139 12.8808C42.6996 8.53273 39.1812 4.99995 34.8331 4.99995ZM34.5042 14.4541C34.4041 15.2407 34.0036 15.5268 33.2598 15.398C32.3445 15.2407 31.4005 15.3551 30.4851 15.3265C30.2706 15.3122 30.0274 15.3551 29.913 15.1263C29.7843 14.8545 30.0274 14.7544 30.1848 14.6257C30.4279 14.4398 30.4279 14.1823 30.4279 13.9106C30.4279 13.2955 30.4136 12.6662 30.3993 12.0512C30.3993 11.665 30.3993 11.3218 29.9702 11.0786C29.5554 10.8355 29.7414 10.5637 30.1132 10.4207C30.528 10.2777 30.9571 10.2777 31.3862 10.3206C31.6436 10.3206 31.9154 10.3063 32.1728 10.3206C32.416 10.3349 32.6591 10.3921 32.7449 10.6638C32.8308 10.9213 32.6734 11.0643 32.4875 11.193C32.2586 11.3504 32.23 11.5792 32.23 11.8224C32.23 12.4946 32.23 13.1525 32.23 13.8247C32.23 14.168 32.2443 14.5256 32.6877 14.5828C33.0882 14.6257 33.4458 14.5256 33.646 14.1251C33.7747 13.8963 33.8033 13.4958 34.2181 13.6531C34.5757 13.7818 34.5328 14.1394 34.5042 14.4541ZM36.8641 13.3241C37.2789 14.0822 38.0513 14.3253 38.8808 13.9964C39.1526 13.8963 39.4958 13.4672 39.7104 13.9535C39.9106 14.3969 39.6246 14.783 39.2241 15.0262C38.8808 15.2407 37.8939 15.4696 37.4362 15.4696C36.3063 15.4267 35.4195 14.969 34.919 13.9106C34.4613 12.9523 34.6329 12.0369 35.3337 11.2646C36.1204 10.3921 37.1073 10.1203 38.2515 10.4064C38.4517 10.4636 38.652 10.5637 38.8665 10.5923C39.6389 10.7211 39.9392 11.05 39.9249 11.7938C39.9106 12.1513 39.8248 12.466 39.4386 12.5804C39.0524 12.7091 38.8236 12.4946 38.6091 12.1942C38.0942 11.4362 37.5221 11.1644 37.0501 11.4362C36.5781 11.6936 36.4923 12.6376 36.8641 13.3241Z" fill="#6E0057"/>
</g>
</g>
<defs>
<clipPath id="clip0_2_6564">
<rect width="48.0643" height="48" fill="white"/>
</clipPath>
<clipPath id="clip1_2_6564">
<rect width="35.6996" height="36" fill="white" transform="translate(7 4.99995)"/>
</clipPath>
</defs>
</svg>
