<svg width="48" height="48" viewBox="0 0 48 48" fill="none" xmlns="http://www.w3.org/2000/svg">
<circle cx="24" cy="24" r="24" fill="white"/>
<g clip-path="url(#clip0_2_3673)">
<path d="M15.3281 9.07746L24.2177 19.4929L30.1848 15.9829C30.1848 15.9829 22.9856 6.3554 21.0659 7.03591C19.2607 7.72359 15.3281 9.07746 15.3281 9.07746Z" fill="black"/>
<path d="M30.4069 15.9829C30.4069 15.9829 31.7607 13.6046 32.4341 10.4313C32.4341 10.4313 39.1891 13.1462 36.596 19.9442L30.4069 15.9829Z" fill="black"/>
<path d="M36.596 19.9512L37.1619 27.0859L39.7479 26.7492C39.7479 26.7492 40.4212 26.52 40.3138 25.2808C40.1992 23.9197 39.9771 21.0902 39.9771 21.0902C39.9771 21.0902 40.0917 20.4097 38.5158 20.1876C36.596 19.8366 36.596 19.9512 36.596 19.9512Z" fill="black"/>
<path d="M37.1548 27.0861L31.9757 31.2766L34.3396 35.9185C34.3396 35.9185 34.9055 37.7308 36.5889 35.6892C38.1648 33.6477 38.8382 33.311 38.7236 32.0646C38.6233 30.8182 38.2794 27.874 37.1548 27.0861Z" fill="black"/>
<path d="M31.8682 31.2693L24.7765 28.0959L18.5874 40.6676C18.5874 40.6676 18.1361 41.5702 19.712 41.6848C21.2879 41.914 23.8739 42.4799 25.2278 41.1189C26.5816 39.8796 31.8682 31.2693 31.8682 31.2693Z" fill="black"/>
<path d="M24.7765 27.9885L24.1031 19.6074L8.7951 20.6318C8.7951 20.6318 7.89252 20.7464 8.00713 22.4441C8.12174 24.7077 8.34381 27.2006 8.34381 27.2006C8.34381 27.2006 8.22919 28.2177 10.2564 28.3324C12.2836 28.4398 24.5544 28.4398 24.7765 27.9885Z" fill="black"/>
</g>
<defs>
<clipPath id="clip0_2_3673">
<rect width="32.3281" height="35" fill="white" transform="translate(8 7)"/>
</clipPath>
</defs>
</svg>
