<svg width="48" height="48" viewBox="0 0 48 48" fill="none" xmlns="http://www.w3.org/2000/svg">
<path d="M0 24C0 10.7452 10.7452 0 24 0C37.2548 0 48 10.7452 48 24C48 37.2548 37.2548 48 24 48C10.7452 48 0 37.2548 0 24Z" fill="#2E9ACF"/>
<path d="M28.592 37.6135H19.7559L12.6263 32.389L9.90884 23.9503L12.6204 15.5116L19.7501 10.2871H28.592L35.7217 15.5116L38.4333 23.9503L35.7217 32.389L35.6223 32.4883L28.592 37.6135ZM19.9546 37.0057H28.3933L35.2249 31.9858L37.8372 23.9503L35.2249 15.9149L28.3933 10.8949H19.9546L13.1289 15.9149L10.5166 23.9503L13.1289 31.9858L19.9546 37.0057Z" fill="white"/>
<path d="M39.4444 36.205L35.3244 32.4883L31.3037 30.9805L24.174 31.8863L16.945 30.9805L12.9244 32.4883L12.7257 31.8863L16.8398 30.2792H16.945L24.174 31.2844L31.4089 30.2792L31.5082 30.3786L35.7276 31.9857L39.8418 35.8018L39.4444 36.205Z" fill="white"/>
<path d="M28.3933 37.9116L24.174 32.0851L19.7559 37.9116L16.5417 30.7819L17.1437 30.4781L19.9546 36.7077L24.174 30.9806L28.294 36.7077L31.1049 30.4781L34.921 22.8458L35.8269 32.1845H35.2249L34.5178 25.0548L31.7069 30.7819L28.3933 37.9116Z" fill="white"/>
<path d="M10.3121 23.6464H38.2345V24.2483H10.3121V23.6464Z" fill="white"/>
<path d="M34.921 25.0548L31.4088 18.1238L28.3933 24.6515L24.1739 17.1187L19.8552 24.6515L16.8398 18.1238L13.3275 25.0548L12.5211 15.8155L13.1288 15.7161L13.7308 22.9451L16.8398 16.8206L19.8552 23.3483L24.1739 15.9148L28.2939 23.3483L31.4088 16.8206L34.5178 22.8457L35.0203 15.7161H35.6281L34.921 25.0548Z" fill="white"/>
<path d="M31.1049 17.6213L28.2939 11.2923L24.1739 17.1187L19.9546 11.2923L17.1436 17.6213L16.6411 17.3233L19.7559 10.0884L24.1739 16.0142L28.3933 10.0884L31.7068 17.3233L31.1049 17.6213ZM35.2249 32.1844L34.5178 25.0548L31.4088 31.2845L28.2939 24.6516L24.1739 32.1844L19.8552 24.6516L16.8398 31.2845L13.7308 25.0548L13.1288 32.1844H12.5211L13.3275 22.8458L16.8398 29.8761L19.8552 23.3484L24.1739 30.8812L28.3933 23.3484L31.4088 29.9754L34.921 22.8458L35.8268 32.1844H35.2249Z" fill="white"/>
<path d="M31.4089 17.8259L24.0747 16.8208L16.8398 17.8259L12.7257 16.0143L12.9244 15.4124L16.945 17.1188L24.0747 16.2188L31.4089 17.1188L35.3243 15.4124L35.6282 16.0143L31.4089 17.8259Z" fill="white"/>
<path d="M19.8553 38.5135C20.5201 38.5135 21.0591 37.9745 21.0591 37.3097C21.0591 36.6449 20.5201 36.1059 19.8553 36.1059C19.1904 36.1059 18.6514 36.6449 18.6514 37.3097C18.6514 37.9745 19.1904 38.5135 19.8553 38.5135Z" fill="white"/>
<path d="M28.2941 38.5135C28.9589 38.5135 29.4979 37.9745 29.4979 37.3097C29.4979 36.6449 28.9589 36.1059 28.2941 36.1059C27.6292 36.1059 27.0902 36.6449 27.0902 37.3097C27.0902 37.9745 27.6292 38.5135 28.2941 38.5135Z" fill="white"/>
<path d="M19.8553 11.8942C20.5201 11.8942 21.0591 11.3552 21.0591 10.6903C21.0591 10.0254 20.5201 9.48645 19.8553 9.48645C19.1904 9.48645 18.6514 10.0254 18.6514 10.6903C18.6514 11.3552 19.1904 11.8942 19.8553 11.8942Z" fill="white"/>
<path d="M28.2941 11.8942C28.9589 11.8942 29.4979 11.3552 29.4979 10.6903C29.4979 10.0254 28.9589 9.48645 28.2941 9.48645C27.6292 9.48645 27.0902 10.0254 27.0902 10.6903C27.0902 11.3552 27.6292 11.8942 28.2941 11.8942Z" fill="white"/>
<path d="M35.3243 16.92C35.9892 16.92 36.5282 16.381 36.5282 15.7161C36.5282 15.0513 35.9892 14.5123 35.3243 14.5123C34.6594 14.5123 34.1204 15.0513 34.1204 15.7161C34.1204 16.381 34.6594 16.92 35.3243 16.92Z" fill="white"/>
<path d="M12.825 16.92C13.4899 16.92 14.0289 16.381 14.0289 15.7161C14.0289 15.0513 13.4899 14.5123 12.825 14.5123C12.1602 14.5123 11.6212 15.0513 11.6212 15.7161C11.6212 16.381 12.1602 16.92 12.825 16.92Z" fill="white"/>
<path d="M12.825 33.4933C13.4899 33.4933 14.0289 32.9543 14.0289 32.2895C14.0289 31.6246 13.4899 31.0856 12.825 31.0856C12.1602 31.0856 11.6212 31.6246 11.6212 32.2895C11.6212 32.9543 12.1602 33.4933 12.825 33.4933Z" fill="white"/>
<path d="M10.3121 25.1542C10.977 25.1542 11.5159 24.6152 11.5159 23.9503C11.5159 23.2854 10.977 22.7465 10.3121 22.7465C9.6472 22.7465 9.10822 23.2854 9.10822 23.9503C9.10822 24.6152 9.6472 25.1542 10.3121 25.1542Z" fill="white"/>
<path d="M38.1352 25.1542C38.8001 25.1542 39.339 24.6152 39.339 23.9503C39.339 23.2854 38.8001 22.7465 38.1352 22.7465C37.4703 22.7465 36.9314 23.2854 36.9314 23.9503C36.9314 24.6152 37.4703 25.1542 38.1352 25.1542Z" fill="white"/>
<path d="M34.7225 25.1542C35.3874 25.1542 35.9264 24.6152 35.9264 23.9503C35.9264 23.2854 35.3874 22.7465 34.7225 22.7465C34.0576 22.7465 33.5186 23.2854 33.5186 23.9503C33.5186 24.6152 34.0576 25.1542 34.7225 25.1542Z" fill="white"/>
<path d="M13.5262 25.1542C14.1911 25.1542 14.7301 24.6152 14.7301 23.9503C14.7301 23.2854 14.1911 22.7465 13.5262 22.7465C12.8614 22.7465 12.3224 23.2854 12.3224 23.9503C12.3224 24.6152 12.8614 25.1542 13.5262 25.1542Z" fill="white"/>
<path d="M19.8553 25.1542C20.5201 25.1542 21.0591 24.6152 21.0591 23.9503C21.0591 23.2854 20.5201 22.7465 19.8553 22.7465C19.1904 22.7465 18.6514 23.2854 18.6514 23.9503C18.6514 24.6152 19.1904 25.1542 19.8553 25.1542Z" fill="white"/>
<path d="M28.2941 25.1542C28.9589 25.1542 29.4979 24.6152 29.4979 23.9503C29.4979 23.2854 28.9589 22.7465 28.2941 22.7465C27.6292 22.7465 27.0902 23.2854 27.0902 23.9503C27.0902 24.6152 27.6292 25.1542 28.2941 25.1542Z" fill="white"/>
<path d="M25.3625 16.7109C25.4691 16.0546 25.0234 15.4362 24.3671 15.3297C23.7108 15.2232 23.0924 15.6688 22.9859 16.3251C22.8794 16.9814 23.3251 17.5998 23.9814 17.7063C24.6376 17.8128 25.256 17.3671 25.3625 16.7109Z" fill="white"/>
<path d="M16.8398 18.7258C17.5047 18.7258 18.0437 18.1868 18.0437 17.522C18.0437 16.8571 17.5047 16.3181 16.8398 16.3181C16.175 16.3181 15.636 16.8571 15.636 17.522C15.636 18.1868 16.175 18.7258 16.8398 18.7258Z" fill="white"/>
<path d="M31.4087 18.7258C32.0736 18.7258 32.6126 18.1868 32.6126 17.522C32.6126 16.8571 32.0736 16.3181 31.4087 16.3181C30.7438 16.3181 30.2048 16.8571 30.2048 17.522C30.2048 18.1868 30.7438 18.7258 31.4087 18.7258Z" fill="white"/>
<path d="M24.174 32.7864C24.8388 32.7864 25.3778 32.2474 25.3778 31.5825C25.3778 30.9177 24.8388 30.3787 24.174 30.3787C23.5091 30.3787 22.9701 30.9177 22.9701 31.5825C22.9701 32.2474 23.5091 32.7864 24.174 32.7864Z" fill="white"/>
<path d="M16.8398 31.7812C17.5047 31.7812 18.0437 31.2422 18.0437 30.5774C18.0437 29.9125 17.5047 29.3735 16.8398 29.3735C16.175 29.3735 15.636 29.9125 15.636 30.5774C15.636 31.2422 16.175 31.7812 16.8398 31.7812Z" fill="white"/>
<path d="M31.4087 31.7812C32.0736 31.7812 32.6126 31.2422 32.6126 30.5774C32.6126 29.9125 32.0736 29.3735 31.4087 29.3735C30.7438 29.3735 30.2048 29.9125 30.2048 30.5774C30.2048 31.2422 30.7438 31.7812 31.4087 31.7812Z" fill="white"/>
<path d="M39.6429 37.6135C40.5305 37.6135 41.25 36.894 41.25 36.0064C41.25 35.1188 40.5305 34.3993 39.6429 34.3993C38.7553 34.3993 38.0358 35.1188 38.0358 36.0064C38.0358 36.894 38.7553 37.6135 39.6429 37.6135Z" fill="white"/>
</svg>
