<svg width="48" height="48" viewBox="0 0 48 48" fill="none" xmlns="http://www.w3.org/2000/svg">
<path d="M24 48C37.2548 48 48 37.2548 48 24C48 10.7452 37.2548 0 24 0C10.7452 0 0 10.7452 0 24C0 37.2548 10.7452 48 24 48Z" fill="white"/>
<path d="M13.2208 35.1017C15.1556 35.6545 17.0903 36.0691 19.0711 36.2534C23.0788 36.6219 26.9483 36.2994 30.4492 34.2265C35.4704 31.2322 37.359 26.4875 35.7467 20.8215C35.6085 20.2687 35.4243 19.7159 35.1479 18.8868C37.5433 20.5451 39.0174 22.3877 39.5702 24.9674C40.7679 30.6334 38.0961 36.2073 32.8446 38.9712C26.5798 42.2879 18.979 41.1823 13.9579 36.2534C13.6815 35.9309 13.2669 35.7006 13.2208 35.1017Z" fill="#FEC000"/>
<path d="M22.2957 14.3723C18.1498 15.8003 15.5702 18.7024 14.9713 23.0786C14.4186 27.4088 16.123 30.8176 19.7161 33.3051C21.098 34.2725 22.3879 34.641 25.5664 35.1017C23.2631 35.7005 21.098 35.5623 19.0251 35.3781C16.7679 35.1938 14.5568 34.8253 12.4838 33.8118C12.1153 33.6276 11.7007 33.4433 11.4704 33.0748C9.67384 29.9424 8.61434 26.6717 9.25925 23.0326C9.76597 19.2552 12.2535 17.0441 15.3399 15.3857C16.9982 14.5105 18.7948 14.0499 20.6834 13.8656C21.2362 13.8195 22.0193 13.451 22.2957 14.3723Z" fill="#FEC000"/>
<path d="M35.3321 24.2303C31.8312 22.1573 28.5145 22.1573 25.6584 25.0595C22.9406 27.8234 22.9866 31.094 24.8753 34.4107C23.7697 34.5028 22.9866 34.1804 22.2957 33.3512C19.716 30.0806 19.4857 25.474 21.835 21.8809C24.0461 18.4261 28.5145 16.7216 32.43 17.689C33.3053 17.9193 33.9502 18.38 34.3187 19.2552C34.9636 20.8214 35.3321 22.4337 35.3321 24.2303Z" fill="#FEC000"/>
<path d="M9.44337 20.4529C10.0422 18.0115 11.1478 15.8003 12.8061 13.9117C16.5835 9.4894 21.4664 7.64679 27.2246 8.10744C27.5009 8.10744 27.7773 8.15351 28.0077 8.24564C29.5278 8.66022 30.5413 9.99612 30.4031 11.4241C30.2649 12.8061 29.1132 13.9117 27.547 14.0038C26.9021 14.0499 26.2111 13.9577 25.5662 13.9577C20.3148 13.7274 15.3858 14.3263 11.5624 18.5182C10.9175 19.2092 10.5029 20.0383 9.99615 20.8215C9.85796 21.0057 9.81189 21.3282 9.5355 21.236C9.21304 21.0518 9.35124 20.7293 9.44337 20.4529Z" fill="#FEC000"/>
<path d="M25.5202 31.048C25.4742 26.5336 30.2189 23.4933 34.2266 25.4741C35.1018 25.8887 35.3782 26.4415 35.1018 27.4088C34.3187 29.9424 32.6603 31.785 30.4953 33.167C29.7582 33.6277 28.9751 33.9962 28.2381 34.3186C26.8101 34.9635 26.6719 34.9175 26.073 33.4895C25.6584 32.6603 25.5202 31.9232 25.5202 31.048Z" fill="#FEC000"/>
<path d="M9.44346 20.4529C9.44346 20.545 9.44346 20.7293 9.48953 20.7753C9.76592 21.0978 9.76592 20.6832 9.81198 20.5911C10.3187 19.7619 10.8254 18.9327 11.4703 18.1957C14.1882 15.1554 17.6891 13.9116 21.6508 13.6813C22.9406 13.5892 24.2765 13.451 25.5663 13.8655C24.4147 13.8195 23.3552 14.0498 22.2496 14.3262C21.5126 13.9577 20.7295 14.188 19.9924 14.3262C14.8792 15.1554 11.1018 17.6429 9.3974 22.7101C9.35133 22.8022 9.2592 22.8943 9.21314 22.9865C8.93675 22.1573 8.98281 21.2821 9.44346 20.4529Z" fill="#FEE198"/>
</svg>
