<svg width="49" height="48" viewBox="0 0 49 48" fill="none" xmlns="http://www.w3.org/2000/svg">
<g clip-path="url(#clip0_2_13566)">
<path d="M24.8359 47.9999C24.3054 47.9999 23.775 47.9999 23.2284 47.9999C22.9712 47.9517 22.714 47.8713 22.4568 47.8553C11.992 47.2766 2.81313 39.448 0.659076 29.1761C0.35365 27.7293 0.22505 26.2344 0 24.7555C0 24.225 0 23.6945 0 23.148C0.0643001 22.521 0.1286 21.878 0.208975 21.2511C1.68788 8.21426 13.5512 -1.27 26.6202 0.144603C40.0107 1.59135 49.5914 13.7762 47.8553 27.1185C46.5533 37.0689 39.0141 45.2672 29.1601 47.373C27.7455 47.6784 26.2827 47.791 24.8359 47.9999Z" fill="#5750FE"/>
<g clip-path="url(#clip1_2_13566)">
<path d="M7 20.634C11.5854 18.7315 18.9268 20.6584 22.3902 28.2193C23.2195 26.6584 23.5366 24.9998 24.0976 23.4389C25.3415 19.9754 26.439 16.4632 28.7073 13.512C30.8049 10.8047 33.5122 9.26812 36.9268 9.04861C37.2927 9.02422 37.878 8.80471 37.7073 9.53641C37.1951 11.7803 37.0488 14.073 36.4146 16.2925C35.2195 20.4145 30.8049 22.6096 27.6341 22.4876C26.5122 22.4389 26.0488 22.9267 25.6098 23.7803C24.5366 25.9023 24.0244 28.1706 23.9024 30.5364C23.7805 32.8291 23.9024 35.1218 24.439 37.3901C24.5366 37.7803 24.5854 38.195 24.5854 38.5852C24.6585 40.1706 23.8293 41.0242 22.3171 41.0242C20.7805 40.9998 19.9268 40.1218 20.1463 38.512C20.4878 35.9998 21 33.512 21.0732 30.951C21.1463 28.8047 20.7561 26.8535 19.2439 25.2437C18.9024 24.8779 18.6585 24.5364 18.1951 25.2437C16.5366 27.8291 13.2683 27.5608 11.3902 25.6828C10.6341 24.8779 9.92683 23.9754 9.19512 23.1462C8.46341 22.3169 7.7561 21.512 7 20.634Z" fill="#00DF37"/>
</g>
</g>
<defs>
<clipPath id="clip0_2_13566">
<rect width="48.0643" height="48" fill="white"/>
</clipPath>
<clipPath id="clip1_2_13566">
<rect width="30.7317" height="32" fill="white" transform="translate(7 8.99994)"/>
</clipPath>
</defs>
</svg>
