<svg width="48" height="48" viewBox="0 0 48 48" fill="none" xmlns="http://www.w3.org/2000/svg">
<path d="M0 24C0 10.7452 10.7452 0 24 0C37.2548 0 48 10.7452 48 24C48 37.2548 37.2548 48 24 48C10.7452 48 0 37.2548 0 24Z" fill="#FF65F7"/>
<circle cx="24" cy="24" r="24" fill="#FE64F6"/>
<path fill-rule="evenodd" clip-rule="evenodd" d="M16.0909 43.0909C30.4001 43.0909 42 31.491 42 17.1818C42 12.9414 40.9813 8.93898 39.1754 5.40582C35.0401 2.02683 29.7567 0 24 0C10.7452 0 0 10.7452 0 24C0 31.0348 3.02667 37.3626 7.84884 41.7524C10.4379 42.6205 13.2095 43.0909 16.0909 43.0909Z" fill="url(#paint0_radial_2_10720)"/>
<path d="M33.9929 23.6745C36.09 24.6255 36.7971 26.308 36.6996 28.4539C36.6508 29.4293 36.6752 30.4291 36.6996 31.4045C36.724 31.9654 36.5289 32.1848 35.9437 32.1848C34.1148 32.1604 32.2859 32.1604 30.4571 32.1848C29.9206 32.1848 29.7499 31.9654 29.7743 31.4533C29.7987 30.4291 29.7987 29.4293 29.7743 28.4052C29.7499 27.0396 29.2134 26.4787 27.8723 26.4544C25.4338 26.43 22.9953 26.4544 20.5568 26.43C19.9715 26.43 19.8008 26.6251 19.8008 27.1859C19.8252 28.6002 19.8008 30.0389 19.8252 31.4533C19.8252 31.9897 19.6301 32.1604 19.1181 32.1604C17.2892 32.136 15.4603 32.136 13.6315 32.1604C13.0462 32.1604 12.8999 31.8922 12.8999 31.3801C12.8999 26.2349 12.9243 21.0897 12.8999 15.9688C12.8999 15.3348 13.1438 15.1885 13.729 15.1885C19.1912 15.2129 24.6291 15.1397 30.0913 15.2373C31.4568 15.2617 32.6761 15.3836 33.9685 15.8713C35.6267 16.4809 36.4558 18.1391 36.4558 19.846C36.4558 21.4554 35.8461 22.7235 34.3343 23.455C34.2367 23.4794 34.1392 23.5525 33.9929 23.6745ZM19.9471 20.3094C19.7277 21.7481 19.7521 21.7724 21.0201 21.7724C21.4346 21.7724 21.8248 21.7724 22.2393 21.7724C24.2633 21.7724 26.2872 21.7724 28.3112 21.7481C28.7745 21.7481 29.3354 21.6261 29.2622 21.0165C29.2134 20.7483 28.7501 20.3337 28.4819 20.3337C25.6532 20.285 22.8246 20.3094 19.9471 20.3094Z" fill="white"/>
<defs>
<radialGradient id="paint0_radial_2_10720" cx="0" cy="0" r="1" gradientUnits="userSpaceOnUse" gradientTransform="translate(10.0909 14.5909) rotate(40.2521) scale(29.1235)">
<stop offset="0.0528174" stop-color="#004EFF"/>
<stop offset="0.533511" stop-color="#3D9CFF"/>
<stop offset="1" stop-color="#3D9CFF" stop-opacity="0"/>
</radialGradient>
</defs>
</svg>
