<svg width="48" height="48" viewBox="0 0 48 48" fill="none" xmlns="http://www.w3.org/2000/svg">
<path d="M0 24C0 10.7452 10.7452 0 24 0C37.2548 0 48 10.7452 48 24C48 37.2548 37.2548 48 24 48C10.7452 48 0 37.2548 0 24Z" fill="url(#paint0_linear_2_5820)"/>
<g clip-path="url(#clip0_2_5820)">
<path d="M20.0229 28.243C19.7451 28.7984 19.5662 29.3415 19.3748 29.8784C18.6713 31.8533 17.9986 33.8344 17.1037 35.7352C16.6285 36.7474 16.036 37.6793 15.1782 38.4199C14.4684 39.0309 13.4563 39.179 12.6725 38.7778C11.8826 38.3767 11.648 37.6793 11.6542 36.8585C11.6604 36.2166 11.8147 35.6118 12.1232 35.0564C14.6289 30.5264 16.9988 25.9225 19.6402 21.4666C20.4117 20.1644 21.2386 18.8992 22.3187 17.8254C22.5964 17.5476 22.8803 17.2884 23.2506 17.1218C24.0159 16.7824 24.7935 17.2637 24.8305 18.0969C24.8614 18.8622 24.5528 19.5411 24.2936 20.2323C23.7196 21.7752 23.0099 23.2563 22.3063 24.7437C22.2693 24.8239 22.2384 24.9103 22.1829 25.0337C22.7754 25.0708 23.3493 25.0831 23.9048 24.9597C27.5336 24.1574 29.9467 21.9788 31.0823 18.4487C31.5328 17.0416 31.3724 15.6345 30.5269 14.3755C29.8542 13.3818 28.8667 12.8017 27.7311 12.5302C24.9971 11.876 22.3248 12.0611 19.7822 13.3201C18.4121 13.999 17.4617 15.1284 16.6717 16.4059C16.1286 17.2884 15.6904 18.2327 15.0239 19.0412C14.3142 19.9052 13.4316 20.2384 12.3393 19.9854C11.4937 19.8003 11.0309 19.2016 11 18.2697C10.9692 17.2761 11.3271 16.3997 11.827 15.5666C12.6478 14.2088 13.7772 13.1411 15.0547 12.2216C17.3752 10.5429 19.9858 9.59249 22.8062 9.18517C25.0959 8.85808 27.3608 8.93831 29.5764 9.62952C31.6316 10.2714 33.4213 11.3205 34.5939 13.1905C36.001 15.4431 36.18 17.8315 35.174 20.294C34.3656 22.2812 32.9585 23.7809 31.2551 25.0337C29.2617 26.5026 27.0523 27.5147 24.6392 28.0763C23.9727 28.2306 23.9665 28.2306 24.1393 28.8971C24.6083 30.7363 25.3057 32.4643 26.5153 33.9578C26.7437 34.2355 26.9844 34.5009 27.2683 34.7231C27.6694 35.0317 28.1138 35.2107 28.626 35.2292C31.2304 35.3341 33.3041 34.2787 34.9827 32.347C35.2851 31.9953 35.5875 31.6497 36.0442 31.483C36.7601 31.23 37.3896 31.6682 37.3958 32.4211C37.402 33.1432 37.1057 33.7603 36.6367 34.2602C34.7976 36.2166 32.6807 37.7533 30.0146 38.3828C28.6198 38.7099 27.2374 38.7223 25.9476 37.9879C24.8552 37.3645 24.0159 36.4758 23.2938 35.4513C22.041 33.6678 21.2078 31.6867 20.4919 29.6439C20.3438 29.2057 20.1957 28.749 20.0229 28.243Z" fill="white"/>
</g>
<defs>
<linearGradient id="paint0_linear_2_5820" x1="24" y1="0" x2="24" y2="48" gradientUnits="userSpaceOnUse">
<stop stop-color="#C02BC0"/>
<stop offset="0.805506" stop-color="#9E00F6"/>
</linearGradient>
<clipPath id="clip0_2_5820">
<rect width="26.402" height="30" fill="white" transform="translate(11 9)"/>
</clipPath>
</defs>
</svg>
