<svg width="48" height="48" viewBox="0 0 48 48" fill="none" xmlns="http://www.w3.org/2000/svg">
<rect width="48" height="48" rx="24" fill="#091E3C"/>
<g clip-path="url(#clip0_2_13709)">
<path d="M11.0773 31.0772C11.2178 31.3114 11.3489 31.5269 11.4848 31.7517C17.1475 28.4918 22.7822 25.2365 28.4356 21.9719C28.5714 22.2014 28.7026 22.4215 28.8384 22.651C28.9555 22.5854 29.0585 22.5292 29.1569 22.4684C31.1148 21.3395 33.0726 20.2061 35.0304 19.0773C37.096 17.8829 39.1616 16.6932 41.2272 15.4988C41.3021 15.4566 41.4052 15.3817 41.4052 15.3161C41.4192 14.9602 41.4801 14.5761 41.3724 14.2482C41.3115 14.0609 40.9649 13.9719 40.7447 13.836C40.7119 13.8173 40.6745 13.8032 40.6464 13.7751C40.4918 13.6393 40.356 13.6768 40.1874 13.7751C29.3396 20.0562 18.4824 26.3232 7.62529 32.5948C7.08665 32.9039 6.53864 33.2037 6 33.5082C6 33.6627 6 33.822 6 33.9765C6.07026 33.9438 6.1452 33.9203 6.21077 33.8829C7.47541 33.1569 8.73536 32.4262 10 31.7002C10.356 31.4941 10.7119 31.288 11.0773 31.0772Z" fill="white"/>
<path d="M11.4848 28.5339C17.1429 25.2693 22.7869 22.014 28.4403 18.7494C28.5808 18.9882 28.7073 19.2084 28.8431 19.4379C32.4497 17.3536 36.0328 15.2833 39.6393 13.199C39.0398 12.8524 38.4543 12.5246 37.8829 12.1779C37.7096 12.0702 37.5831 12.0702 37.4005 12.1733C33.4333 14.473 29.4614 16.7634 25.4941 19.0538C19.0585 22.7728 12.623 26.4871 6.18735 30.2014C6.13115 30.2341 6.06089 30.2529 6 30.2763C6 30.4496 6 30.6182 6 30.7915C7.69087 29.8126 9.38173 28.8337 11.0773 27.8501C11.2225 28.0983 11.3489 28.3091 11.4848 28.5339Z" fill="white"/>
<path d="M10.8244 24.7823C10.9087 24.7354 10.993 24.6886 11.082 24.6371C11.2272 24.8806 11.3536 25.0961 11.4848 25.3162C16.2201 22.5809 20.9321 19.8642 25.644 17.1429C25.7892 17.3818 25.9204 17.6019 26.0562 17.8221C29.6581 15.7425 33.2365 13.6769 36.8525 11.5879C36.3232 11.2834 35.8173 11.0352 35.363 10.7167C34.9883 10.4544 34.7119 10.5012 34.3279 10.7214C26.5527 15.2272 18.7682 19.7237 10.9836 24.2155C9.32553 25.1804 7.66276 26.1359 6 27.0914C6 27.246 6 27.4052 6 27.5598C6.07494 27.5223 6.15457 27.4849 6.22482 27.4427C7.76112 26.5575 9.29274 25.6675 10.8244 24.7823Z" fill="white"/>
<path d="M9.2459 22.4824C9.8548 22.1311 10.459 21.7798 11.0773 21.4238C11.2131 21.658 11.3443 21.8735 11.4801 22.1077C15.26 19.925 19.0164 17.7564 22.7775 15.5878C22.9227 15.8313 23.0492 16.0421 23.185 16.2669C26.815 14.1686 30.4262 12.0796 34.0562 9.98121C33.4286 9.62055 32.8337 9.27863 32.2436 8.92734C32.103 8.84303 32 8.85709 31.8642 8.93671C24.0187 13.4754 16.1686 18.0093 8.31382 22.5433C7.54567 22.9836 6.77283 23.4191 6 23.8594C6 24.014 6 24.1732 6 24.3278C6.07026 24.295 6.1452 24.2716 6.21077 24.2341C7.22248 23.6533 8.23419 23.0679 9.2459 22.4824Z" fill="white"/>
<path d="M11.4848 18.8899C14.3326 17.2459 17.1569 15.6112 19.9953 13.9719C20.1358 14.2061 20.267 14.4262 20.4028 14.6557C24.0281 12.5621 27.6393 10.4824 31.274 8.38407C31.185 8.32787 31.1194 8.28571 31.0539 8.24824C30.5293 7.94379 30 7.64403 29.4754 7.33021C29.3302 7.24122 29.2225 7.25058 29.0773 7.33489C23.0773 10.8056 17.0773 14.267 11.0773 17.733C9.38642 18.7119 7.69087 19.6955 6 20.6745C6 20.829 6 20.9883 6 21.1429C7.69087 20.1639 9.38173 19.185 11.0773 18.2014C11.2225 18.445 11.3536 18.6651 11.4848 18.8899Z" fill="white"/>
<path d="M41.4004 32.3934C34.829 36.1873 28.2904 39.9672 21.7236 43.7611C21.8548 43.8548 21.9625 43.925 22.0656 44C22.0983 44 22.1264 44 22.1592 44C22.7166 43.6721 23.2693 43.3396 23.8267 43.0117C24.2154 42.7822 24.6042 42.562 25.007 42.3279C25.1475 42.5667 25.274 42.7869 25.4098 43.0164C26.3981 42.445 27.3723 41.8829 28.3513 41.3161C28.4965 41.5597 28.6276 41.7752 28.7541 41.9906C28.8009 41.9672 28.8197 41.9625 28.8431 41.9485C32.9883 39.5597 37.1335 37.1663 41.2787 34.7681C41.3489 34.726 41.4098 34.5995 41.4098 34.5152C41.4192 33.8688 41.4145 33.2178 41.4145 32.5714C41.4145 32.5246 41.4051 32.4731 41.4004 32.3934Z" fill="white"/>
<path d="M11.4801 15.6675C13.4005 14.5621 15.2974 13.4661 17.2084 12.3654C17.3536 12.6043 17.4848 12.8244 17.6253 13.0539C21.2459 10.9602 24.8524 8.87594 28.4965 6.77289C27.9766 6.47312 27.466 6.22956 27.0164 5.90638C26.6323 5.63003 26.3513 5.68624 25.9625 5.91106C19.3115 9.76587 12.6557 13.6019 6 17.4427C6 17.5973 6 17.7565 6 17.9111C7.68618 16.9415 9.37705 15.972 11.082 14.993C11.2178 15.2225 11.3489 15.438 11.4801 15.6675Z" fill="white"/>
<path d="M10.7822 11.9391C10.8806 11.8829 10.9789 11.8267 11.082 11.7705C11.2225 12.0047 11.3443 12.2201 11.4801 12.4496C12.4684 11.8829 13.4379 11.3302 14.4215 10.7635C14.5621 10.9977 14.6932 11.2131 14.829 11.4379C18.4637 9.33958 22.0703 7.25995 25.7049 5.16159C25.5269 5.05855 25.3864 4.97892 25.2459 4.89461C24.7494 4.59953 24.2529 4.29977 23.7518 4C23.719 4 23.6909 4 23.6581 4C23.5925 4.04684 23.5269 4.10304 23.4567 4.1452C17.8782 7.37237 12.2951 10.5948 6.71663 13.822C6.48244 13.9578 6.23888 14.0843 6 14.2108C6 14.3653 6 14.5246 6 14.6792C6.07026 14.6464 6.1452 14.623 6.21077 14.5855C7.73302 13.7049 9.25995 12.8197 10.7822 11.9391Z" fill="white"/>
<path d="M11.0304 34.3232C11.1662 34.5527 11.288 34.7635 11.4285 34.9977C17.0819 31.733 22.7119 28.4871 28.3512 25.2272C28.4917 25.4661 28.6182 25.6862 28.7494 25.911C28.8243 25.8689 28.8805 25.8454 28.9367 25.8127C32.8946 23.5269 36.843 21.2365 40.8102 18.9742C41.2786 18.7073 41.48 18.4309 41.4238 17.8923C41.3723 17.3771 41.4145 16.8525 41.4145 16.2904C30.1873 22.7822 18.9976 29.2412 7.80322 35.7096C8.05147 35.9625 8.25756 35.9344 8.51985 35.7705C9.27863 35.3068 10.0561 34.8759 10.8243 34.4309C10.8899 34.3934 10.9601 34.3653 11.0304 34.3232Z" fill="white"/>
<path d="M14.2716 36.5808C18.9695 33.8688 23.658 31.1662 28.3512 28.4543C28.4918 28.6932 28.6182 28.9086 28.7494 29.1288C28.7962 29.1147 28.8149 29.11 28.8243 29.1054C32.9742 26.7072 37.1288 24.3138 41.2786 21.911C41.3489 21.8735 41.4098 21.7564 41.4098 21.6768C41.4192 21.0117 41.4145 20.3512 41.4145 19.6861C41.4145 19.644 41.4004 19.6018 41.3911 19.5363C31.11 25.466 20.8524 31.3911 10.5854 37.3161C10.9414 37.5831 10.9414 37.5878 11.2974 37.3817C12.1452 36.8899 12.9976 36.3981 13.8641 35.8969C13.9953 36.1218 14.1264 36.3419 14.2716 36.5808Z" fill="white"/>
<path d="M41.4144 23.7517C41.4144 23.4286 41.4144 23.1054 41.4144 22.7354C32.0421 28.1405 22.7119 33.5269 13.3723 38.918C13.7189 39.2037 13.7189 39.2037 14.0702 39.0023C14.6651 38.6557 15.2552 38.3138 15.8501 37.9719C16.1124 37.822 16.3747 37.6674 16.651 37.5082C16.7915 37.7471 16.9273 37.9672 17.0632 38.192C20.8384 36.0094 24.5901 33.8454 28.3559 31.6674C28.4917 31.9016 28.6182 32.1124 28.7587 32.3513C28.8383 32.3091 28.8992 32.2763 28.9601 32.2435C31.1522 30.9789 33.3489 29.7096 35.5409 28.445C37.4332 27.3536 39.3208 26.2576 41.213 25.1756C41.3676 25.0866 41.4332 24.993 41.4238 24.8103C41.4051 24.4543 41.4144 24.103 41.4144 23.7517Z" fill="white"/>
<path d="M19.4426 39.1241C19.5831 39.3583 19.7096 39.5737 19.8454 39.7986C22.6979 38.1545 25.5222 36.5246 28.356 34.8852C28.4965 35.1241 28.6229 35.3349 28.7541 35.555C28.8009 35.5363 28.815 35.5316 28.829 35.5222C32.9789 33.1241 37.1335 30.7307 41.2787 28.3279C41.3489 28.2857 41.4098 28.1592 41.4098 28.0703C41.4192 27.4286 41.4145 26.7916 41.4145 26.1499C41.4145 26.0937 41.4005 26.0375 41.3911 25.9625C32.9649 30.829 24.5667 35.6815 16.1545 40.5386C16.5105 40.8056 16.5105 40.8056 16.8618 40.6042C17.6393 40.1545 18.4168 39.7096 19.1897 39.2599C19.2693 39.2131 19.3489 39.1709 19.4426 39.1241Z" fill="white"/>
<path d="M22.6277 41.4098C24.548 40.2998 26.445 39.2037 28.3513 38.0983C28.4918 38.3419 28.6183 38.5527 28.7494 38.7822C28.8478 38.7307 28.9274 38.6885 29.0071 38.6417C31.6487 37.1194 34.2857 35.5925 36.9227 34.0702C38.3513 33.2459 39.7846 32.4168 41.2131 31.5878C41.2928 31.541 41.4005 31.4567 41.4005 31.3864C41.4145 30.6651 41.4099 29.9391 41.4099 29.1663C33.8923 33.5082 26.4216 37.822 18.9462 42.1405C19.185 42.3747 19.3958 42.3887 19.6628 42.2108C20.0422 41.9531 20.4544 41.7424 20.8525 41.5129C21.3115 41.2506 21.7658 40.9883 22.2295 40.7213C22.3701 40.9602 22.4965 41.1803 22.6277 41.4098Z" fill="white"/>
</g>
<defs>
<clipPath id="clip0_2_13709">
<rect width="35.4379" height="40" fill="white" transform="translate(6 4)"/>
</clipPath>
</defs>
</svg>
