<svg width="48" height="48" viewBox="0 0 48 48" fill="none" xmlns="http://www.w3.org/2000/svg">
<rect width="48" height="48" rx="24" fill="white"/>
<g clip-path="url(#clip0_2_13654)">
<path d="M28.5277 26.0403L34.7954 19.7903C35.2734 19.33 35.5213 18.6926 35.5213 18.0198L35.539 12.9738C35.539 12.7082 35.4328 12.4603 35.2557 12.2833L23.2161 24.2698C22.2423 25.2436 22.2246 26.8194 23.1984 27.7932L23.2161 27.8109L31.6969 36.2741C32.6707 37.2479 34.2642 37.2479 35.2203 36.2563C36.1941 35.2826 36.1941 33.6891 35.2203 32.733L28.5277 26.0403Z" fill="#008C62"/>
<path d="M34.5465 12H15.6549C14.1322 12 12.999 13.1508 12.999 14.7266V34.4327C12.9813 35.8137 14.0968 36.9469 15.4778 36.9823C15.4955 36.9823 15.5132 36.9823 15.5486 36.9823C16.9296 37 18.0628 35.9023 18.0805 34.5212C18.0805 34.4858 18.0805 34.4681 18.0805 34.4327V16.869H30.6513L35.2547 12.2833C35.0777 12.0885 34.8121 12 34.5465 12Z" fill="#00E6A0"/>
</g>
<defs>
<clipPath id="clip0_2_13654">
<rect width="22.9639" height="25" fill="white" transform="translate(13 12)"/>
</clipPath>
</defs>
</svg>
