<svg width="47" height="48" viewBox="0 0 47 48" fill="none" xmlns="http://www.w3.org/2000/svg">
<g clip-path="url(#clip0_2_12977)">
<path d="M14.5296 46.2305C13.0121 45.6223 11.5991 44.8236 10.2659 43.8898C7.15113 41.715 4.70598 38.9319 2.89975 35.5959C2.24853 34.3918 1.67718 33.1385 1.27784 31.8238C0.792497 30.2387 0.528322 28.6045 0.25186 26.9703C-0.239629 24.089 0.0306902 21.2568 0.645051 18.4368C0.890795 17.4907 1.14883 16.5508 1.48673 15.6292C2.19324 13.7124 3.10864 11.9 4.26978 10.2167C4.99473 9.16614 5.79954 8.17702 6.67807 7.24319C8.21397 5.62128 9.94647 4.25126 11.8694 3.12083C13.5466 2.13786 15.3344 1.38834 17.2144 0.859986C18.4062 0.528231 19.6165 0.294774 20.8391 0.153471C21.9327 0.0305992 23.0385 -0.0431241 24.1444 0.0244556C26.0796 0.141184 27.9902 0.417646 29.8518 0.982858C32.2969 1.72623 34.5578 2.84437 36.6343 4.33112C37.734 5.11751 38.7661 5.98375 39.7 6.96059C40.9471 8.25689 42.0591 9.66377 43.0052 11.1997C43.8899 12.6311 44.5964 14.1486 45.1862 15.7152C45.6654 16.987 45.9787 18.3078 46.2306 19.6471C46.4579 20.8636 46.5132 22.0923 46.6361 23.321C46.7344 24.3347 46.5808 25.3361 46.5992 26.3437C46.6238 27.9103 46.1876 29.3909 45.7023 30.8531C44.9343 33.1508 44.0005 35.3809 42.6489 37.4083C41.6782 38.8643 40.5846 40.2221 39.3252 41.4447C38.3914 42.3478 37.3961 43.171 36.3271 43.9144C34.9755 44.8482 33.5564 45.6469 32.0389 46.2674C30.4293 46.9309 28.7766 47.4285 27.0503 47.6927C26.2639 47.8156 25.4775 47.8893 24.685 47.9507C23.9293 48.006 23.1737 48.0183 22.418 47.9876C20.8882 47.92 19.3769 47.7173 17.884 47.3364C16.729 47.0415 15.617 46.6729 14.5296 46.2305Z" fill="white"/>
<path d="M38.7477 36.3762C36.966 38.7047 34.8096 40.603 32.2109 41.9853C30.4538 42.9192 28.5984 43.5765 26.6448 43.9144C24.5252 44.283 22.3995 44.3076 20.2677 43.9513C15.6846 43.1833 11.9001 40.9962 8.83446 37.5435C6.83778 35.2949 5.44933 32.6901 4.60151 29.8087C4.47864 29.2496 4.35577 28.6967 4.23904 28.1376C4.03015 27.1547 3.91957 26.1655 3.85813 25.1641C3.77212 23.7695 3.8397 22.3872 4.04244 21.0111C4.44792 18.2034 5.40018 15.5924 6.88693 13.178C8.28153 10.911 10.0693 9.00031 12.2196 7.44598C14.3207 5.9285 16.643 4.8718 19.1864 4.31274C20.7653 3.96255 22.3565 3.78439 23.96 3.85197C26.6325 3.96255 29.1821 4.58306 31.5965 5.76263C33.7529 6.81933 35.6452 8.22007 37.2916 9.95871C38.975 11.7342 40.2713 13.7677 41.2174 16.0225C41.7703 17.3372 42.1819 18.6949 42.4461 20.0895C42.5997 20.9128 42.7164 21.7422 42.7594 22.5777C42.7963 23.2596 42.827 23.9416 42.8086 24.6296C42.7472 26.6017 42.4215 28.5247 41.8133 30.4046C41.1314 32.4996 40.1423 34.4348 38.8398 36.2165C38.7968 36.2656 38.7784 36.3271 38.7477 36.3762Z" fill="#FEFEFE"/>
<path d="M26.0106 31.0973C25.3102 30.1389 24.616 29.1805 23.9156 28.2221C23.4917 27.6446 23.0432 27.0855 22.6439 26.4896C22.0726 25.6356 22.0234 24.7141 22.4965 23.8109C22.9511 22.9324 23.7068 22.4716 24.702 22.4409C25.4393 22.4163 26.1765 22.4471 26.9137 22.4163C27.8475 22.3795 28.8121 21.6115 28.9227 20.4504C29.0333 19.277 28.5786 18.3186 27.6571 17.8762C27.3561 17.7349 27.0427 17.6673 26.7048 17.6673C24.3273 17.6673 21.9558 17.6673 19.5783 17.6673C17.8458 17.6673 16.1194 17.6612 14.3869 17.6735C14.1412 17.6735 14.049 17.612 14.0552 17.3479C14.0674 16.5185 13.9999 15.6891 14.0674 14.8659C14.1596 13.7539 14.7985 13.0105 15.8552 12.6357C15.9044 12.6173 15.9474 12.5927 15.9965 12.5743C16.2669 12.5129 16.5433 12.519 16.8198 12.519C19.6643 12.519 22.5088 12.5313 25.3532 12.5129C26.5328 12.5067 27.7001 12.5681 28.849 12.863C31.8532 13.631 33.8683 16.1499 33.9789 19.2524C34.0342 20.7023 33.8744 22.1092 33.2785 23.4485C32.6211 24.9352 31.5767 26.0534 30.1145 26.7845C30.0162 26.8336 29.9179 26.895 29.8135 26.9319C29.5739 27.0118 29.58 27.1346 29.7152 27.3189C30.1453 27.8903 30.563 28.4739 30.9869 29.0514C32.0129 30.4399 33.045 31.8284 34.0649 33.2168C35.2199 34.7834 34.4089 36.9767 32.5044 37.3453C31.4907 37.5419 30.5815 37.2347 29.9425 36.3869C28.6708 34.6974 27.4236 32.9834 26.1703 31.2816C26.1212 31.2201 26.0659 31.1648 26.0106 31.0973Z" fill="#FE0000"/>
<path d="M14.0614 28.6339C14.0614 26.6925 14.0675 24.745 14.0552 22.8036C14.0552 22.521 14.129 22.4412 14.4177 22.4412C16.2792 22.4534 18.1407 22.4534 20.0022 22.4412C20.2418 22.4412 20.3217 22.5026 20.3156 22.7483C20.248 26.4591 20.3033 30.176 20.2787 33.8929C20.2726 34.6854 20.2111 35.4595 19.7135 36.1414C18.9025 37.2534 17.5632 37.6773 16.3161 37.321C14.9338 36.9278 14.0614 35.7728 14.0614 34.4089C14.0552 32.4798 14.0614 30.5569 14.0614 28.6339Z" fill="black"/>
</g>
<defs>
<clipPath id="clip0_2_12977">
<rect width="46.6607" height="48" fill="white"/>
</clipPath>
</defs>
</svg>
