<svg width="48" height="48" viewBox="0 0 48 48" fill="none" xmlns="http://www.w3.org/2000/svg">
<path d="M0 24C0 10.7452 10.7452 0 24 0C37.2548 0 48 10.7452 48 24C48 37.2548 37.2548 48 24 48C10.7452 48 0 37.2548 0 24Z" fill="white"/>
<g clip-path="url(#clip0_2_10679)">
<path d="M24 37.1C22.6 31.2 21.2 25.3 19.9 19.4C19.5 17.8 20.5 17.4 21.8 17.4C23.6 17.4 25.3 17.4 27.1 17.4C28.8 17.4 29.5 18 29.1 19.8C27.7 25.5 26.4 31.3 25.1 37C24.6 37.1 24.3 37.1 24 37.1Z" fill="#FE0002"/>
<path d="M21.5 40.2C18.4 35.7 15.4 31.2 12.2 26.7C11 25.1 11.1 23.9 12.6 22.6C14.1 21.4 15.4 20 17.5 18C19.4 25.8 21.1 32.8 22.7 39.9C22.3 40 21.9 40.1 21.5 40.2Z" fill="#FE0002"/>
<path d="M31.3 18.6C33.9 19.9 35.8 22 36.7 23.1C37.3 23.9 38 24.5 37.2 25.6C33.8 30.6 30.5 35.6 27.1 40.6C26.7 40.4 26.4 40.2 26 40.1C27.8 33 29.5 25.9 31.3 18.6Z" fill="#FE0002"/>
<path d="M10 21.5V10L15.6 15.3L10 21.5Z" fill="#FE0002"/>
<path d="M38.7 21.5L33.2 15.4L38.7 10V21.5Z" fill="#FE0002"/>
</g>
<defs>
<clipPath id="clip0_2_10679">
<rect width="28.7" height="30.7" fill="white" transform="translate(10 10)"/>
</clipPath>
</defs>
</svg>
