<svg width="48" height="48" viewBox="0 0 48 48" fill="none" xmlns="http://www.w3.org/2000/svg">
<rect width="48" height="48" rx="24" fill="white"/>
<g clip-path="url(#clip0_2_16284)">
<path d="M24.3188 6.00178C24.3549 6.00178 24.4413 5.99998 24.5097 6.00178C24.5296 6.00358 24.562 5.99998 24.5944 6.01619C24.6052 6.0378 24.5998 6.05581 24.5872 6.07382C24.5548 6.10264 24.5134 6.10984 24.4719 6.11705C23.874 6.22871 23.2832 6.3728 22.6997 6.55111C22.651 6.56552 22.6024 6.58173 22.5556 6.60154C22.4619 6.61414 22.4187 6.63936 22.3521 6.66097C21.9684 6.78345 21.5956 6.93114 21.2246 7.08783C20.7239 7.30036 20.2394 7.5435 19.7639 7.80646C19.1677 8.13606 18.5986 8.50888 18.0511 8.91593C17.6206 9.23652 17.2064 9.57512 16.8119 9.94074C16.5814 10.1551 16.3472 10.3658 16.1293 10.5927C15.634 11.1078 15.1657 11.6446 14.7317 12.2119C14.276 12.8081 13.8599 13.4312 13.4817 14.0796C13.1215 14.6956 12.7991 15.3332 12.5091 15.9852C12.239 16.5975 11.9994 17.2207 11.7923 17.8583C11.4447 18.9263 11.1871 20.016 11.0196 21.1291C10.9566 21.5469 10.9044 21.9666 10.8683 22.3862C10.8485 22.6059 10.8341 22.8275 10.8233 23.049C10.8035 23.4471 10.7819 23.8451 10.7927 24.2431C10.8035 24.6106 10.8233 24.978 10.8575 25.3454C10.926 26.0784 11.0502 26.8007 11.2322 27.5139C11.4519 28.3784 11.7491 29.2177 12.1327 30.0246C12.5073 30.8135 12.954 31.5573 13.4817 32.2507C13.8491 32.7334 14.2508 33.1873 14.6956 33.5998C15.2684 34.1329 15.8934 34.5957 16.5778 34.9776C17.2334 35.345 17.9232 35.6224 18.6508 35.8097C19.0903 35.9231 19.5352 35.9952 19.9872 36.0402C20.4033 36.0816 20.8211 36.0852 21.2354 36.0654C21.8405 36.0384 22.4385 35.9358 23.0239 35.7701C23.629 35.599 24.2108 35.3702 24.7673 35.0748C25.3527 34.7651 25.8984 34.3976 26.4099 33.978C26.7287 33.715 27.0331 33.434 27.3212 33.1369C27.7139 32.728 28.0741 32.2904 28.4001 31.8275C28.7117 31.3862 28.9908 30.9251 29.243 30.4479C29.6969 29.5905 30.0391 28.69 30.2966 27.757C30.4767 27.105 30.601 26.4423 30.6839 25.7723C30.7235 25.4607 30.7487 25.1473 30.7631 24.8321C30.7757 24.5457 30.8009 24.2575 30.7937 23.9712C30.7829 23.5461 30.7667 23.1211 30.7289 22.6978C30.6587 21.9125 30.5218 21.1417 30.3237 20.3798C30.1363 19.6612 29.8896 18.9642 29.5888 18.2852C29.2826 17.5953 28.917 16.9379 28.4919 16.3148C28.2308 15.9329 27.9498 15.5691 27.6454 15.2197C27.4113 14.9532 27.1664 14.6992 26.9088 14.4561C26.644 14.2039 26.3613 13.9716 26.0695 13.75C26.0263 13.7176 25.9542 13.6942 25.9704 13.624C25.9866 13.5501 26.0623 13.5591 26.1181 13.5483C26.3451 13.5105 26.5756 13.4889 26.8061 13.4763C26.9592 13.4673 27.1105 13.4601 27.2636 13.4619C27.8994 13.4763 28.5226 13.5663 29.1331 13.75C29.551 13.8761 29.9544 14.0382 30.3417 14.2363C30.9108 14.5245 31.4367 14.8775 31.923 15.2936C32.1464 15.4845 32.3661 15.679 32.5696 15.8915C33.0631 16.4048 33.5008 16.9632 33.8808 17.5665C34.1942 18.0654 34.4571 18.5913 34.6967 19.1281C34.7273 19.1965 34.7363 19.2721 34.7795 19.3352C35.138 20.2231 35.3775 21.1435 35.5198 22.089C35.5522 22.3088 35.572 22.5285 35.6062 22.7482C35.6116 22.7825 35.6116 22.8167 35.6134 22.8509C35.6152 22.8851 35.6152 22.9193 35.6242 22.9536C35.6296 22.9986 35.6278 23.0418 35.6314 23.0868C35.6332 23.1337 35.6315 23.1787 35.6423 23.2255C35.6459 23.2832 35.6441 23.339 35.6495 23.3966C35.6531 23.4795 35.6459 23.5641 35.6621 23.647C35.6603 23.7839 35.6314 23.9189 35.6314 24.0594C35.6314 24.1837 35.6621 24.3026 35.6621 24.4268C35.6459 24.5169 35.6549 24.6069 35.6495 24.697C35.6441 24.7654 35.6459 24.8339 35.6423 24.9023C35.6315 24.9546 35.6332 25.0068 35.6314 25.059C35.6278 25.1095 35.6296 25.1599 35.6242 25.2103C35.6152 25.2499 35.6134 25.2896 35.6134 25.3292C35.6116 25.3688 35.6116 25.4066 35.6062 25.4463C35.5972 25.4787 35.5972 25.5129 35.5954 25.5471C35.5918 25.5849 35.5936 25.6228 35.5882 25.6606C35.581 25.6894 35.5792 25.7164 35.5774 25.7452C35.5756 25.7795 35.5756 25.8119 35.5702 25.8461C35.5558 25.9181 35.5414 25.9902 35.5414 26.064C35.5396 26.0964 35.5396 26.1307 35.5342 26.1631C35.5306 26.1811 35.5252 26.1991 35.5234 26.2171C35.5198 26.2477 35.5198 26.2802 35.5144 26.3108C35.4549 26.6134 35.4171 26.9195 35.3631 27.2239C35.2064 28.0902 34.9849 28.9386 34.7039 29.7725C34.5112 30.347 34.2842 30.9071 34.0339 31.4601C33.607 32.4056 33.0955 33.3026 32.5066 34.1545C32.1481 34.675 31.7573 35.1721 31.3395 35.6476C31.0423 35.9862 30.7361 36.3158 30.4101 36.6238C29.9905 37.0218 29.5546 37.4018 29.0935 37.7512C28.6306 38.1007 28.1533 38.4266 27.6544 38.7202C26.97 39.1219 26.2586 39.4641 25.5166 39.7432C24.8303 40.0026 24.1261 40.1971 23.4075 40.3394C23.0599 40.4078 22.7105 40.4529 22.3611 40.5051C22.3286 40.5087 22.298 40.5087 22.2656 40.5123C22.2386 40.5141 22.2098 40.5159 22.1827 40.5231C22.1503 40.5285 22.1179 40.5285 22.0837 40.5303C22.0549 40.5321 22.0261 40.5339 21.999 40.5411C21.9558 40.5447 21.9126 40.5447 21.8694 40.5483C21.8297 40.5501 21.7883 40.5501 21.7505 40.5591C21.7055 40.5645 21.6604 40.5627 21.6136 40.5663C21.5506 40.5699 21.4857 40.5645 21.4227 40.5771C21.3416 40.5789 21.2624 40.5771 21.1813 40.5843C20.9454 40.5861 20.7113 40.5879 20.4753 40.5843C20.3835 40.5789 20.2934 40.5717 20.2016 40.5771C20.1439 40.5645 20.0845 40.5681 20.0269 40.5645C19.9818 40.5609 19.935 40.5627 19.89 40.5573C19.8449 40.5465 19.7999 40.5483 19.7549 40.5465C19.7207 40.5447 19.6864 40.5447 19.654 40.5393C19.6216 40.5303 19.5892 40.5285 19.555 40.5285C19.5225 40.5267 19.4901 40.5267 19.4577 40.5213C19.0993 40.4853 18.7445 40.4331 18.3897 40.37C17.8998 40.2818 17.4171 40.1629 16.9398 40.0206C16.3905 39.8549 15.8537 39.6568 15.3314 39.4226C14.7515 39.1633 14.1895 38.8661 13.6474 38.5311C13.0945 38.1907 12.5704 37.8125 12.0679 37.4036C11.7797 37.1695 11.4987 36.9263 11.234 36.6652C11.1169 36.5499 10.989 36.4455 10.8737 36.3266C10.4631 35.9015 10.0687 35.4639 9.70123 35.001C9.16451 34.3256 8.69262 33.607 8.26577 32.8595C7.78127 32.0094 7.37063 31.1233 7.03562 30.2011C6.69522 29.2663 6.43226 28.31 6.25035 27.3338C6.17651 26.9394 6.11887 26.5413 6.07024 26.1433C6.06484 26.1109 6.06484 26.0784 6.06124 26.046C6.04323 25.9686 6.04683 25.8893 6.03602 25.8101C6.03062 25.7759 6.03242 25.7434 6.03242 25.7092C6.03242 25.6804 6.03422 25.6516 6.02702 25.6228C6.02161 25.5849 6.02522 25.5453 6.02342 25.5075C6.02342 25.4679 6.02342 25.43 6.02342 25.3904C6.02342 25.3508 6.02522 25.3112 6.01621 25.2715C6.01441 25.2319 6.01621 25.1923 6.01441 25.1509C6.01081 25.0914 6.02161 25.0302 6.00721 24.9708C5.9982 24.9167 6.01621 24.8609 5.9964 24.8087C5.9964 24.8033 5.9964 24.7961 5.9964 24.7907C6.01441 24.742 6.0018 24.6898 6.0054 24.6394C6.0054 24.5817 6.0054 24.5241 6.0054 24.4647C6 24.3638 6.01621 24.2611 5.9964 24.1603C5.9964 24.0162 5.9964 23.8721 5.9964 23.728C6.01621 23.6506 6 23.5731 6.0054 23.4939C6.0054 23.4417 6.0054 23.3912 6.0054 23.339C6.0054 23.3102 6.0054 23.2796 6.0054 23.2507C6.0054 22.4366 6.09006 21.6262 6.23594 20.8229C6.40885 19.8647 6.6556 18.9263 6.97799 18.0078C7.17611 17.4477 7.40305 16.9001 7.6552 16.3616C8.02442 15.5763 8.44948 14.8217 8.92496 14.0958C9.3212 13.4943 9.75346 12.9197 10.2163 12.3686C10.6414 11.8625 11.0953 11.3834 11.5726 10.9295C12.0679 10.4577 12.5884 10.0164 13.1341 9.60394C13.8293 9.07983 14.557 8.60614 15.3206 8.18469C15.9564 7.83348 16.612 7.52369 17.2856 7.25173C18.0493 6.94374 18.8291 6.68979 19.6288 6.48987C20.3673 6.30616 21.1165 6.17288 21.8748 6.08102C22.2242 6.0396 22.5754 6.02699 22.9284 6.01799C23.0455 6.01438 23.1625 6.01078 23.2778 6.01078C23.3444 6.01078 24.2774 6.00178 24.3188 6.00178Z" fill="#0088E0"/>
<path d="M36.4185 19.2127C36.2762 18.784 36.0979 18.368 35.9034 17.9591C35.2802 16.6462 34.4715 15.4646 33.4197 14.4578C32.2022 13.2907 30.7883 12.473 29.1367 12.0948C28.1839 11.8769 27.2204 11.821 26.2496 11.9363C24.571 12.1326 23.0851 12.7918 21.7613 13.8293C20.2304 15.0288 19.1209 16.5543 18.3338 18.3248C17.8457 19.4234 17.5215 20.5689 17.3378 21.7576C17.1703 22.8347 17.1217 23.9171 17.2009 25.005C17.354 27.1141 17.9232 29.0989 18.9822 30.9342C19.7495 32.2634 20.7275 33.4125 21.9648 34.331C21.9774 34.34 21.9882 34.349 22.0008 34.358C22.0044 34.3616 22.0062 34.367 22.0134 34.3814C21.7685 34.4355 21.5253 34.4625 21.2786 34.4787C19.3136 34.5976 17.6152 33.9384 16.1275 32.6938C14.7605 31.5537 13.8203 30.1093 13.1845 28.4559C12.8441 27.5679 12.6208 26.6512 12.4965 25.7074C12.3614 24.679 12.3596 23.6506 12.4425 22.6186C12.6694 19.7674 13.5177 17.1144 15.0072 14.6722C16.2193 12.6838 17.7737 11.0124 19.7171 9.71738C20.596 9.13203 21.5271 8.65114 22.5177 8.28371C22.5394 8.27471 22.561 8.2621 22.5808 8.2531C23.2184 8.02436 23.8668 7.83704 24.5314 7.70376C24.9456 7.62091 25.3635 7.55247 25.7849 7.51465C25.8389 7.50925 25.8912 7.50024 25.9452 7.49304C25.9758 7.48043 26.0118 7.49484 26.0425 7.48043C26.0767 7.47863 26.1091 7.47683 26.1433 7.47503C26.1865 7.45882 26.2334 7.47863 26.2784 7.46242C26.3234 7.46062 26.3685 7.45882 26.4135 7.45702C26.4693 7.44081 26.5288 7.46242 26.5846 7.44261C26.671 7.44081 26.7575 7.43901 26.8439 7.43901C27.0835 7.43 27.323 7.43 27.5626 7.43901C27.649 7.44081 27.7355 7.44261 27.8219 7.44261C27.8724 7.46062 27.9264 7.44081 27.9768 7.45702C28.0219 7.45882 28.0687 7.46062 28.1137 7.46242C28.1569 7.48043 28.2038 7.46062 28.247 7.47503C28.2794 7.47683 28.3136 7.47863 28.346 7.48043C28.3785 7.49484 28.4127 7.48043 28.4451 7.49304C28.4739 7.49484 28.5009 7.49664 28.5298 7.49844C28.5604 7.51465 28.5946 7.49844 28.6252 7.51105C29.297 7.5975 29.9634 7.71277 30.6172 7.89108C31.4241 8.10901 32.2022 8.39898 32.955 8.761C33.8484 9.18966 34.6877 9.70657 35.4765 10.3081C35.9142 10.6413 36.3285 10.9998 36.7301 11.378C37.4956 12.1002 38.1782 12.8927 38.7833 13.7536C39.3723 14.5929 39.8838 15.4754 40.3197 16.403C40.8366 17.5035 41.231 18.6472 41.5138 19.8305C41.611 20.2393 41.6921 20.6536 41.7623 21.0678C41.8073 21.3308 41.8398 21.5973 41.8776 21.8621C41.892 21.8927 41.8758 21.9269 41.892 21.9576C41.8848 22.0404 41.9064 22.1233 41.9154 22.2043C41.928 22.2367 41.9136 22.2709 41.928 22.3016C41.9298 22.3286 41.9316 22.3556 41.9334 22.3844C41.9478 22.4204 41.9298 22.4619 41.946 22.4979C41.9478 22.5375 41.9496 22.5771 41.9514 22.6186C41.964 22.6564 41.9478 22.6978 41.964 22.7374C41.9658 22.7752 41.9658 22.8149 41.9676 22.8527C41.9857 22.9139 41.9622 22.9788 41.9821 23.0418C41.9893 23.3408 42.0001 23.6416 42.0001 23.9406C42.0001 27.386 41.1049 30.5794 39.2822 33.5025C37.6072 36.1915 35.3703 38.2916 32.593 39.8171C30.972 40.7069 29.2484 41.3246 27.4329 41.6758C26.1901 41.9172 24.9348 42.0271 23.6668 41.9982C23.6542 41.9982 23.6434 42 23.6308 42.0018C23.5696 41.982 23.5029 42.0054 23.4417 41.9874C23.4309 41.9856 23.4183 41.9838 23.4075 41.982C23.3967 41.9622 23.4129 41.9586 23.4255 41.9514C24.0685 41.8415 24.7007 41.6866 25.3238 41.4939C25.7561 41.3607 26.1793 41.2076 26.5972 41.0347C26.8764 40.9194 27.1519 40.7915 27.4239 40.66C28.1551 40.3106 28.8485 39.8982 29.5149 39.4407C29.8536 39.2084 30.1832 38.958 30.5001 38.695C30.7163 38.5167 30.9252 38.333 31.1377 38.1493C31.4547 37.8756 31.7447 37.5766 32.0401 37.2812C32.2544 37.0669 32.4453 36.8309 32.647 36.6022C33.1261 36.0565 33.5602 35.4765 33.9636 34.8731C34.1906 34.5327 34.4067 34.1869 34.6102 33.8321C34.8336 33.4413 35.0497 33.045 35.2424 32.638C35.4675 32.1643 35.6765 31.6834 35.8674 31.1935C36.0151 30.8153 36.1447 30.4335 36.2744 30.0498C36.4293 29.5888 36.55 29.1169 36.6707 28.645C36.7391 28.373 36.7985 28.0993 36.8526 27.8255C36.9138 27.5157 36.9696 27.2059 37.0147 26.8925C37.0435 26.6944 37.0831 26.4945 37.0867 26.2928C37.0867 26.2621 37.1155 26.2333 37.1047 26.1991C37.1209 26.1685 37.1029 26.1343 37.1191 26.1037C37.1263 26.0208 37.1335 25.9398 37.1425 25.8569C37.1588 25.8263 37.1425 25.7921 37.1552 25.7614C37.157 25.729 37.1588 25.6966 37.1588 25.6642C37.175 25.6264 37.1588 25.5849 37.1732 25.5471C37.175 25.5147 37.1768 25.4805 37.1768 25.4481C37.193 25.4102 37.1768 25.3688 37.1912 25.331C37.1966 25.286 37.2038 25.2427 37.1948 25.1977C37.2128 25.1473 37.193 25.0932 37.2092 25.0428C37.211 24.9978 37.2128 24.9528 37.2146 24.9059C37.2344 24.8321 37.211 24.7564 37.2272 24.6826C37.229 24.607 37.2308 24.5331 37.2308 24.4575C37.2488 24.2702 37.2362 24.0828 37.238 23.8937C37.238 23.7749 37.2488 23.656 37.2308 23.5371C37.2416 23.4615 37.2308 23.3876 37.2272 23.3138C37.211 23.2579 37.2326 23.1985 37.2128 23.1409C37.2218 23.0958 37.2128 23.0508 37.2092 23.0076C37.1948 22.9644 37.2128 22.9175 37.1966 22.8743C37.1948 22.8401 37.193 22.8077 37.1912 22.7734C37.1786 22.741 37.193 22.705 37.1768 22.6744C37.175 22.642 37.1732 22.6095 37.1714 22.5771C37.1569 22.5465 37.175 22.5123 37.1588 22.4835C37.1569 22.4601 37.1551 22.4384 37.1533 22.415C37.1389 22.3844 37.157 22.3502 37.1389 22.3214C37.1065 22.1269 37.0849 21.9305 37.0543 21.736C37.0129 21.4767 36.9606 21.2191 36.9084 20.9616C36.8237 20.5365 36.7013 20.1222 36.5806 19.7062C36.5356 19.5405 36.4707 19.3784 36.4185 19.2127Z" fill="#0088E0"/>
</g>
<defs>
<clipPath id="clip0_2_16284">
<rect width="35.9982" height="36" fill="white" transform="translate(6 6)"/>
</clipPath>
</defs>
</svg>
