<svg width="48" height="48" viewBox="0 0 48 48" fill="none" xmlns="http://www.w3.org/2000/svg">
<path d="M0 24C0 10.7452 10.7452 0 24 0C37.2548 0 48 10.7452 48 24C48 37.2548 37.2548 48 24 48C10.7452 48 0 37.2548 0 24Z" fill="#ECECEC"/>
<g clip-path="url(#clip0_2_10567)">
<path d="M43.5818 19.6605C43.4298 18.9637 43.3791 18.2161 42.9356 17.5953C42.8089 16.8731 42.5429 16.2015 42.1628 15.5807C41.9981 15.1246 41.8207 14.6811 41.5166 14.301C41.1491 13.7182 40.8197 13.11 40.4143 12.5525C38.8558 10.3732 36.9553 8.54871 34.6746 7.1043C32.3053 5.59654 29.7459 4.65894 26.9965 4.22816C24.285 3.81004 21.5736 3.97475 18.9255 4.68428C16.7589 5.26712 14.7063 6.11602 12.8945 7.47174C12.8058 7.52242 12.7044 7.54776 12.6157 7.61111C9.79026 9.58767 7.62364 12.1471 6.09054 15.2386C5.48237 16.4676 4.95022 17.7473 4.68414 19.1157C4.39273 19.8379 4.26603 20.5981 4.2787 21.3837C4.24069 21.5231 4.19 21.6624 4.16466 21.8018C3.87325 23.6643 3.99995 25.5269 4.32938 27.3514C5.14027 31.8493 7.23087 35.6631 10.5758 38.7799C10.9052 39.084 11.108 39.0967 11.4627 38.7926C13.5026 37.0948 15.5552 35.4223 17.6078 33.7245C19.0015 32.5715 20.3826 31.4059 21.7636 30.2402C22.7012 29.632 23.5121 28.8718 24.3864 28.1749C24.6145 27.9976 24.8045 27.7822 25.1339 28.1116C27.782 30.7723 30.4428 33.4331 33.1035 36.0812C33.3189 36.2966 33.3823 36.4866 33.1796 36.7274C32.9642 36.8667 32.8755 36.9554 32.6727 37.0948C32.0012 37.4749 30.6455 38.2478 30.6455 38.2478C30.6455 38.2478 30.3287 38.3238 30.164 38.3872C28.3268 39.1727 26.4136 39.6035 24.3991 39.6542C22.3085 39.7049 20.2939 39.2994 18.3427 38.5645C18.0766 38.4632 17.7979 38.3111 17.5191 38.5519C16.5182 39.3881 15.5045 40.2117 14.4909 41.0352C14.1868 41.2887 14.2375 41.428 14.5796 41.6054C15.9987 42.3403 17.4811 42.9231 19.0395 43.3286C21.6243 44.0001 24.2343 44.1521 26.8698 43.7847C28.6309 43.544 30.3287 43.0878 31.9379 42.3149C32.0139 42.2643 32.0899 42.2136 32.1659 42.1756C32.584 42.1629 32.9261 41.9728 33.2176 41.6814C33.8637 41.3267 34.624 41.1619 35.1054 40.5411C35.5362 40.3764 35.8783 40.0596 36.2331 39.7682C36.3471 39.7936 36.4358 39.7302 36.5118 39.6669C37.4748 38.818 38.4124 37.9437 39.2613 36.9681C39.5654 36.6133 39.5527 36.4106 39.2359 36.0812C38.0449 34.8395 36.8032 33.6358 35.5742 32.4195C33.3063 30.1895 31.0763 27.9215 28.8083 25.7042C28.3775 25.2861 28.1748 24.9694 28.745 24.5512C29.0871 24.2978 29.2138 24.1711 29.4545 23.9938C30.5188 23.1702 31.5324 22.2833 32.5714 21.4217C32.7868 21.409 32.9008 21.2443 33.0402 21.1303C34.5859 19.8759 36.1317 18.6089 37.6648 17.3419C37.8929 17.1518 38.0576 17.0505 38.2477 17.3672C38.463 17.874 38.6784 18.3808 38.8938 18.8876C39.2233 20.0533 39.5273 21.2316 39.654 22.448C39.9201 24.9187 39.5654 27.3134 38.6531 29.6193C38.5011 29.9995 38.5391 30.2655 38.8432 30.5696C39.6414 31.3172 40.4143 32.1027 41.1745 32.8883C41.5546 33.2811 41.7446 33.3191 42.0234 32.7616C44.0506 28.5677 44.5448 24.1965 43.5818 19.6605ZM17.4304 28.0736C17.253 28.2129 16.5815 28.7831 16.3661 28.9478C14.8964 30.1768 13.3633 31.3425 11.9315 32.6095C11.6148 32.8883 11.374 32.9136 11.1206 32.5208C10.1197 30.9624 9.35947 29.3153 8.96669 27.5034C8.82732 26.8446 8.7513 26.173 8.63726 25.5142C8.58658 25.2354 8.42187 23.1322 8.5359 22.1692C8.57391 21.9412 8.59925 21.7004 8.62459 21.4724C8.6626 21.2063 8.70062 20.9402 8.73863 20.6741C8.90334 20.1293 9.06805 19.5845 9.2201 19.0524C9.27078 19.065 10.2464 18.9763 10.6898 18.9763C16.1761 18.9763 21.6496 18.9763 27.1358 18.9763C27.63 18.9763 28.1368 18.9763 28.6309 18.9257C28.5549 18.9763 28.4916 19.0143 28.4409 19.0777C27.9594 19.5845 27.3639 19.9266 26.8444 20.3954C26.4643 20.7375 25.1846 21.7511 24.9439 21.9538C22.4352 23.9811 19.9645 26.059 17.4304 28.0736ZM23.8162 17.3672C23.8162 17.3545 23.8289 17.3545 23.8162 17.3672C23.8289 17.3545 23.8289 17.3672 23.8162 17.3672C23.8289 17.3672 23.8289 17.3672 23.8162 17.3672ZM32.3306 14.1236C27.6426 14.1236 22.942 14.1236 18.254 14.1363C17.9372 14.1363 14.4022 14.1996 12.9958 14.1616C12.7804 14.149 12.451 14.2757 12.3623 14.0603C12.2483 13.8069 12.5777 13.6422 12.7171 13.4521C12.7298 13.4394 12.7298 13.4268 12.7298 13.4268C12.7298 13.4268 12.7298 13.4268 12.7551 13.4014C14.2375 11.881 15.9227 10.652 17.8866 9.80307C18.0893 9.71438 18.8875 9.39762 19.0522 9.33427C20.8007 8.7261 22.6126 8.49803 24.4624 8.53604C27.5413 8.59939 30.3287 9.53699 32.8755 11.2601C33.9651 11.995 34.8647 12.9453 35.853 13.7942C35.8656 13.8069 35.8656 13.8069 35.8783 13.8195C35.7263 14.0729 35.4855 14.1236 35.1815 14.1236C34.2312 14.111 33.2809 14.1236 32.3306 14.1236Z" fill="url(#paint0_linear_2_10567)"/>
</g>
<defs>
<linearGradient id="paint0_linear_2_10567" x1="32.2955" y1="7.34258" x2="14.5632" y2="43.1798" gradientUnits="userSpaceOnUse">
<stop stop-color="#B12CBD"/>
<stop offset="0.7569" stop-color="#632E9E"/>
</linearGradient>
<clipPath id="clip0_2_10567">
<rect width="40.0634" height="40" fill="white" transform="translate(4 4)"/>
</clipPath>
</defs>
</svg>
