<svg width="48" height="48" viewBox="0 0 48 48" fill="none" xmlns="http://www.w3.org/2000/svg">
<path d="M0 24C0 10.7452 10.7452 0 24 0C37.2548 0 48 10.7452 48 24C48 37.2548 37.2548 48 24 48C10.7452 48 0 37.2548 0 24Z" fill="white"/>
<path fill-rule="evenodd" clip-rule="evenodd" d="M24.0013 45.3327C35.7517 45.3327 45.3346 35.7497 45.3346 23.9993C45.3346 12.2511 35.7517 2.66602 24.0013 2.66602C12.253 2.66602 2.66797 12.2511 2.66797 23.9993C2.66584 35.7497 12.2509 45.3327 24.0013 45.3327Z" fill="black"/>
<path fill-rule="evenodd" clip-rule="evenodd" d="M18.5293 12.9423H21.6013C21.7186 12.9423 21.8125 13.0383 21.8125 13.1557V17.6442C21.8125 17.7637 21.9085 17.8575 22.0258 17.8575H25.9703C26.0877 17.8575 26.1837 17.7637 26.1837 17.6442V13.1557C26.1837 13.0383 26.2775 12.9423 26.397 12.9423H29.4669C29.5842 12.9423 29.6802 13.0383 29.6802 13.1557V17.6442C29.6802 17.7637 29.7741 17.8575 29.8935 17.8575H33.6482C33.7677 17.8575 33.8615 17.9535 33.8615 18.0709V21.1343C33.8615 21.2538 33.7677 21.3477 33.6482 21.3477H29.8935C29.7741 21.3477 29.6802 21.4437 29.6802 21.561V26.329C29.6802 26.4463 29.7741 26.5423 29.8935 26.5423H33.6482C33.7677 26.5423 33.8615 26.6362 33.8615 26.7557V29.8191C33.8615 29.9365 33.7677 30.0325 33.6482 30.0325H29.8935C29.7741 30.0325 29.6802 30.1285 29.6802 30.2458V34.7343C29.6802 34.8517 29.5842 34.9477 29.4669 34.9477H26.397C26.2775 34.9477 26.1837 34.8517 26.1837 34.7343V30.2458C26.1837 30.1263 26.0877 30.0325 25.9703 30.0325H22.0279C21.9106 30.0325 21.8146 30.1285 21.8146 30.2458V34.7343C21.8146 34.8517 21.7207 34.9477 21.6034 34.9477H18.5314C18.4141 34.9477 18.3181 34.8517 18.3181 34.7343V30.2458C18.3181 30.1263 18.2242 30.0325 18.1047 30.0325H14.3501C14.2306 30.0325 14.1367 29.9365 14.1367 29.8191V26.7557C14.1367 26.6362 14.2306 26.5423 14.3501 26.5423H18.1047C18.2242 26.5423 18.3181 26.4463 18.3181 26.329V21.561C18.3181 21.4437 18.2242 21.3477 18.1047 21.3477H14.3501C14.2306 21.3477 14.1367 21.2538 14.1367 21.1343V18.0709C14.1367 17.9535 14.2306 17.8575 14.3501 17.8575H18.1047C18.2242 17.8575 18.3181 17.7637 18.3181 17.6442V13.1557C18.3138 13.0383 18.4119 12.9423 18.5293 12.9423ZM26.1858 26.3311V21.561C26.1858 21.4437 26.0898 21.3477 25.9725 21.3477H22.0279C21.9106 21.3477 21.8146 21.4437 21.8146 21.561V26.329C21.8146 26.4463 21.9106 26.5423 22.0279 26.5423H25.9725C26.0898 26.5445 26.1858 26.4463 26.1858 26.3311Z" fill="white"/>
</svg>
