<svg width="48" height="48" viewBox="0 0 48 48" fill="none" xmlns="http://www.w3.org/2000/svg">
<path d="M0 24C0 10.7452 10.7452 0 24 0C37.2548 0 48 10.7452 48 24C48 37.2548 37.2548 48 24 48C10.7452 48 0 37.2548 0 24Z" fill="white"/>
<path fill-rule="evenodd" clip-rule="evenodd" d="M38 26.952V29.1412C38 35.2712 29.1161 38.774 26.4161 39.6497L25.4581 40V36.2345L25.9806 36.0593C30.2484 34.483 34.5161 31.7684 34.5161 29.1412V26.952H38ZM24.5 9L28.1581 10.1384V13.9915L24.5 12.8531L24.2387 12.9407V21.6102H28.071V25.2006H24.2387V39.9124L23.1935 39.5621C22.7581 39.387 21.9742 39.1243 21.0161 38.6864L20.5806 38.5113V10.1384L24.5 9ZM19.5355 10.5763V14.4294L14.571 15.9181V21.6102H19.5355V38.161L18.4032 37.6356C15.0065 35.8842 11 32.9944 11 28.8785V26.952H14.571V28.8785C14.571 29.7542 15.0065 30.6299 15.8774 31.5056V25.2006H11V13.1158L19.5355 10.5763ZM29.2032 10.4887L37.9129 13.2034V25.2881H32.7742V30.5424C32.7742 30.5424 31.6419 32.0311 29.2032 33.2571C29.2032 32.5565 29.2032 21.9605 29.2032 15.4802V10.4887ZM32.8613 15.3927V21.6102H34.429V15.9181L32.8613 15.3927Z" fill="#050101"/>
</svg>
