<svg width="48" height="48" viewBox="0 0 48 48" fill="none" xmlns="http://www.w3.org/2000/svg">
<circle cx="24" cy="24" r="24" fill="white"/>
<path d="M31.5371 9.99303C30.6623 10.8678 29.8609 11.8159 29.1485 12.8269L28.9233 12.7535C27.6242 12.3292 26.278 12.0673 24.9213 11.9783C24.5128 11.9469 22.9885 11.9469 22.4908 11.9783C20.9875 12.0778 19.8351 12.303 18.5256 12.7588C18.4732 12.7797 18.426 12.7954 18.3789 12.8111C17.6403 11.8054 16.8179 10.8626 15.9117 9.99827C20.2594 7.77206 25.3456 7.50491 29.8976 9.25969C30.3847 9.44302 30.8614 9.65779 31.3276 9.88827L31.5371 9.99303Z" fill="#F00500"/>
<path d="M39.6457 29.8611C38.9857 31.7416 37.9957 33.4859 36.7124 35.005C36.0157 35.8221 35.2457 36.5712 34.4181 37.2522C32.48 38.8131 30.2171 39.9288 27.8023 40.5155C25.1309 41.1598 22.3442 41.1598 19.6727 40.5155C17.2527 39.9288 14.9951 38.8131 13.057 37.2522C12.2293 36.5712 11.4593 35.8221 10.7627 35.005C7.06978 30.6416 5.94882 24.6492 7.82931 19.2487C8.1855 18.2482 8.63074 17.2844 9.16503 16.3677C9.41123 15.9487 9.71504 15.4772 9.86171 15.2834C10.3646 17.4468 10.9827 19.3482 11.2131 20.0344C11.1974 20.0711 11.1765 20.113 11.1555 20.1497C9.93504 22.622 9.27504 25.0054 9.11789 27.5407C9.11789 27.5721 9.11265 27.6088 9.11265 27.6402C9.07075 28.3997 9.0917 28.7611 9.21742 29.2378C9.61028 30.7307 10.8203 32.3755 12.7165 33.9888C15.8227 36.6288 20.0342 38.5355 23.2242 38.7555C26.5504 38.9807 31.4585 37.0374 34.7271 34.1983C35.2405 33.7426 35.7224 33.2607 36.1729 32.7474C36.4976 32.3702 36.9795 31.7207 36.9429 31.7207C36.9324 31.7207 36.9429 31.7102 36.9638 31.6997C36.9795 31.6893 36.9952 31.6735 36.9848 31.6631C36.9795 31.6578 36.99 31.6421 37.0057 31.6369C37.0214 31.6316 37.0319 31.6212 37.0267 31.6107C37.0214 31.6002 37.0267 31.5897 37.0476 31.5845C37.0633 31.5793 37.0686 31.5635 37.0633 31.5531C37.0581 31.5426 37.0633 31.5321 37.0738 31.5321C37.0843 31.5321 37.0948 31.5164 37.0948 31.5059C37.0948 31.4954 37.1052 31.4797 37.1157 31.4797C37.1262 31.4797 37.1367 31.4693 37.1367 31.4588C37.1524 31.4169 37.1786 31.375 37.2048 31.3383C37.2833 31.2178 37.5976 30.6573 37.6395 30.5631C37.9381 29.8873 38.1267 29.285 38.2157 28.6826C38.2576 28.3945 38.2838 27.8654 38.2629 27.7397C38.2576 27.7188 38.2576 27.6821 38.2524 27.6245C38.2419 27.5197 38.2367 27.3626 38.2262 27.2054C38.2157 26.9697 38.1948 26.6397 38.1791 26.4773C37.9538 24.0992 37.3462 22.1559 36.1938 20.0973C36.1467 20.0187 36.1048 19.9401 36.0786 19.8773C36.0681 19.8616 36.0629 19.8458 36.0576 19.8354C36.22 19.3482 36.8853 17.3106 37.4143 14.9796L37.4248 14.9901L37.5033 15.0949C37.6395 15.2782 38.001 15.823 38.1634 16.0849C38.9019 17.2896 39.4781 18.5834 39.8867 19.9349C40.8348 23.1878 40.7562 26.6554 39.6457 29.8611Z" fill="#F00500"/>
<path d="M32.8467 23.6016C32.8309 23.6854 32.5848 23.9369 32.3386 24.1202C31.6157 24.6492 30.3219 25.1416 29.0071 25.3773C28.258 25.5135 27.509 25.5345 27.2837 25.4245C27.1371 25.3512 27.1161 25.2935 27.1685 25.105C27.2785 24.7121 27.6347 24.2826 28.1899 23.8792C28.4728 23.6749 29.62 22.9783 30.1542 22.6849C31.0343 22.203 31.7466 21.9149 32.2286 21.8468C32.3805 21.8259 32.5638 21.8206 32.6214 21.8468C32.7157 21.8835 32.8205 22.1611 32.8624 22.4964C32.8833 22.6745 32.8728 23.4602 32.8467 23.6016Z" fill="black"/>
<path d="M20.5057 25.3358C20.4743 25.3987 20.3171 25.4668 20.139 25.493C19.9609 25.5192 19.4162 25.5035 19.1071 25.4668C17.9966 25.3201 16.818 24.9797 15.959 24.5606C15.4771 24.3249 15.1313 24.0892 14.8747 23.8325L14.728 23.6806L14.7123 23.4815C14.6861 23.1358 14.6913 22.5911 14.7333 22.3973C14.7594 22.2349 14.8171 22.0777 14.8956 21.9363C14.9375 21.8839 14.9375 21.8839 15.1261 21.8839C15.3566 21.8839 15.5504 21.9206 15.8647 22.0201C16.509 22.2192 17.4676 22.7011 18.6357 23.403C19.5995 23.9792 19.9609 24.262 20.2385 24.6496C20.4271 24.8906 20.5528 25.2311 20.5057 25.3358Z" fill="black"/>
<path d="M27.9228 32.627C27.9228 32.6427 27.86 32.8941 27.7814 33.1927C27.7028 33.4913 27.64 33.7322 27.64 33.7427C27.5824 33.7479 27.53 33.7532 27.4724 33.7479H27.3047L27.0743 34.2927C26.9486 34.5913 26.8333 34.8689 26.8176 34.9108L26.7862 34.9841L26.6762 34.806L26.5662 34.628V33.177L26.5243 33.1875C26.4352 33.2084 25.8014 33.2922 25.5238 33.3184C24.3766 33.4337 23.2242 33.4075 22.0823 33.2451C21.899 33.2189 21.7418 33.1979 21.7366 33.2032C21.7314 33.2084 21.7366 33.5437 21.7471 33.9575L21.7628 34.7013L21.6737 34.8375C21.6266 34.9108 21.5794 34.9737 21.5794 34.9789C21.5637 34.9946 21.5114 34.9108 21.3909 34.6699C21.2599 34.4184 21.1656 34.1513 21.0975 33.8737L21.0609 33.7218L20.8985 33.7322L20.7361 33.7479L20.6942 33.5541C20.6732 33.4494 20.6471 33.287 20.6366 33.1979L20.6209 33.0303L20.4847 32.9098C20.4061 32.8417 20.3275 32.7737 20.3118 32.7632C20.2856 32.7422 20.2751 32.7056 20.2751 32.6741V32.6113L20.9299 32.6165L21.5847 32.6217L21.6056 32.6898L21.6266 32.7579L21.8518 32.7684C21.9776 32.7737 22.3756 32.7841 22.7318 32.7946L23.3866 32.8103L23.5542 32.5484L23.7271 32.2865H23.9471L23.9419 31.7417L23.9366 31.197L23.6485 31.0713C22.7214 30.6627 22.1766 30.1965 21.9723 29.6308C21.9304 29.5155 21.9304 29.4736 21.9199 28.9498C21.9147 28.4312 21.9147 28.3841 21.9514 28.2689C22.0247 28.0069 22.229 27.8027 22.4909 27.7346C22.5799 27.7084 22.8157 27.7084 24.0519 27.7084L25.5081 27.7136L25.6704 27.7922C25.8643 27.8865 25.9533 27.9546 26.0633 28.1012C26.189 28.2689 26.2257 28.3998 26.2257 28.7193C26.2257 29.1751 26.1943 29.5679 26.1471 29.7251C26.079 29.9398 25.9743 30.1441 25.8433 30.3274C25.5814 30.6627 25.1047 30.9979 24.67 31.1498L24.5442 31.197L24.5495 31.747L24.5547 32.297L24.67 32.3075L24.7852 32.3179L24.9423 32.5536L25.0942 32.7894H25.7962C26.1838 32.7894 26.5243 32.7946 26.5557 32.7998C26.6081 32.8103 26.6186 32.8051 26.6709 32.716L26.7338 32.6217H27.3362C27.7867 32.6008 27.9228 32.6113 27.9228 32.627Z" fill="black"/>
<path d="M25.1571 34.1302C25.0576 34.1878 24.9895 34.214 24.9738 34.2035C24.9581 34.1983 24.8847 34.1354 24.8062 34.0778L24.6647 33.9626L24.5181 34.1197C24.1985 34.4654 24.1881 34.4811 24.0938 34.4864C23.9471 34.5021 23.9157 34.4759 23.7376 34.2087C23.6433 34.0726 23.57 33.9573 23.57 33.9573C23.57 33.9573 23.5019 33.9468 23.4233 33.9416L23.2766 33.9259L23.2085 34.0673L23.1404 34.2087L23.02 34.1721C22.9257 34.1407 22.8314 34.104 22.7423 34.0621L22.5852 33.9835V33.6849L23.9785 33.6902L25.3719 33.6954L25.3771 33.8368C25.3824 34.0045 25.3876 33.9992 25.1571 34.1302Z" fill="black"/>
<path d="M38.2524 27.7399C38.2472 27.7189 38.2471 27.6823 38.2419 27.6247C36.9848 27.4885 33.3966 27.4047 30.0652 30.1547C30.0652 30.1547 28.9914 25.2308 23.9627 25.2308C18.9341 25.2308 17.0694 30.1547 17.0694 30.1547C14.2512 27.1218 10.4798 27.3418 9.11787 27.5408C9.11787 27.5723 9.11263 27.6089 9.11263 27.6404C9.07073 28.3999 9.09168 28.7613 9.21739 29.238C9.61025 30.7309 10.8203 32.3756 12.7165 33.989C15.8227 36.629 20.0341 38.5357 23.2242 38.7557C26.5504 38.9809 31.4585 37.0376 34.7271 34.1985C35.2405 33.7428 35.7224 33.2609 36.1728 32.7476C36.4976 32.3704 36.9795 31.7209 36.9429 31.7209C36.9324 31.7209 36.9429 31.7104 36.9638 31.6999C36.9795 31.6894 36.9952 31.6737 36.9848 31.6633C36.9795 31.658 36.99 31.6423 37.0057 31.6371C37.0214 31.6318 37.0319 31.6214 37.0267 31.6109C37.0214 31.6004 37.0267 31.5899 37.0476 31.5847C37.0633 31.5794 37.0686 31.5637 37.0633 31.5533C37.0581 31.5428 37.0633 31.5323 37.0738 31.5323C37.0843 31.5323 37.0948 31.5166 37.0948 31.5061C37.0948 31.4956 37.1052 31.4799 37.1157 31.4799C37.1262 31.4799 37.1367 31.4694 37.1367 31.459C37.1524 31.4171 37.1786 31.3752 37.2048 31.3385C37.2833 31.218 37.5976 30.6575 37.6395 30.5632C37.9381 29.8875 38.1267 29.2851 38.2157 28.6828C38.2471 28.3947 38.2733 27.8656 38.2524 27.7399ZM25.157 34.1304C25.0575 34.188 24.9894 34.2142 24.9737 34.2037C24.958 34.1985 24.8847 34.1357 24.8061 34.078L24.6647 33.9628L24.518 34.1199C24.1985 34.4657 24.188 34.4814 24.0937 34.4866C23.947 34.5023 23.9156 34.4761 23.7375 34.209C23.6432 34.0728 23.5699 33.9576 23.5699 33.9576C23.5699 33.9576 23.5018 33.9471 23.4232 33.9418L23.2766 33.9261L23.2085 34.0676L23.1404 34.209L23.0199 34.1723C22.9256 34.1409 22.8313 34.1042 22.7423 34.0623L22.5851 33.9837V33.6852L23.9785 33.6904L25.3718 33.6957L25.377 33.8371C25.3823 34.0047 25.3875 33.9995 25.157 34.1304ZM27.7761 33.1876C27.6975 33.4861 27.6347 33.7271 27.6347 33.7376C27.5771 33.7428 27.5247 33.748 27.4671 33.7428H27.2994L27.0742 34.2928C26.9485 34.5914 26.8332 34.869 26.8175 34.9109L26.7861 34.9842L26.6761 34.8061L26.5661 34.628V33.1771L26.5242 33.1876C26.4352 33.2085 25.8013 33.2923 25.5237 33.3185C24.3766 33.4337 23.2242 33.4076 22.0823 33.2452C21.8989 33.219 21.7418 33.198 21.7365 33.2033C21.7313 33.2085 21.7365 33.5437 21.747 33.9576L21.7627 34.7014L21.6737 34.8376C21.6265 34.9109 21.5794 34.9738 21.5794 34.979C21.5637 34.9947 21.5113 34.9109 21.3908 34.6699C21.2599 34.4185 21.1656 34.1514 21.0975 33.8737L21.0608 33.7218L20.8984 33.7323L20.7361 33.748L20.6942 33.5542C20.6732 33.4495 20.647 33.2871 20.6365 33.198L20.6208 33.0304L20.4846 32.9099C20.4061 32.8418 20.3275 32.7737 20.3118 32.7633C20.2856 32.7423 20.2751 32.7056 20.2751 32.6742V32.6114L20.9299 32.6166L21.5846 32.6218L21.6056 32.6899L21.6265 32.758L21.8518 32.7685C21.9775 32.7737 22.3756 32.7842 22.7318 32.7947L23.3866 32.8104L23.5542 32.5485L23.727 32.2866H23.947L23.9418 31.7418L23.9366 31.1971L23.6485 31.0713C22.7213 30.6628 22.1765 30.1966 21.9723 29.6309C21.9304 29.5156 21.9304 29.4737 21.9199 28.9499C21.9146 28.4313 21.9146 28.3842 21.9513 28.2689C22.0246 28.007 22.2289 27.8028 22.4908 27.7347C22.5799 27.7085 22.8156 27.7085 24.0518 27.7085L25.508 27.7137L25.6704 27.7923C25.8642 27.8866 25.9532 27.9547 26.0632 28.1013C26.189 28.2689 26.2256 28.3999 26.2256 28.7194C26.2256 29.1751 26.1942 29.568 26.1471 29.7251C26.079 29.9399 25.9742 30.1442 25.8432 30.3275C25.5813 30.6628 25.1047 30.998 24.6699 31.1499L24.5442 31.1971L24.5494 31.7471L24.5547 32.2971L24.6699 32.3075L24.7851 32.318L24.9423 32.5537L25.0942 32.7895H25.7961C26.1837 32.7895 26.5242 32.7947 26.5556 32.7999C26.608 32.8104 26.6185 32.8052 26.6709 32.7161L26.7337 32.6218H27.3361C27.8023 32.6218 27.9385 32.6271 27.9385 32.6428C27.9228 32.6375 27.8547 32.8942 27.7761 33.1876Z" fill="white"/>
<path d="M38.2105 27.2055C38.2 26.9697 38.1791 26.6397 38.1634 26.4774C37.9381 24.0992 37.3305 22.1559 36.1781 20.0973C36.131 20.0187 36.0891 19.9402 36.0629 19.8773C36.0524 19.8616 36.0472 19.8459 36.0419 19.8354C36.2043 19.3482 36.8695 17.3106 37.3986 14.9796C38.1162 11.8158 38.5719 8.11768 37.1786 7.0072C37.1786 7.0072 34.7691 6.8291 31.5424 9.99294C30.6676 10.8677 29.8662 11.8158 29.1538 12.8268L28.9285 12.7534C27.6295 12.3291 26.2833 12.0672 24.9266 11.9782C24.518 11.9468 22.9937 11.9468 22.4961 11.9782C20.9928 12.0777 19.8404 12.303 18.5308 12.7587C18.4784 12.7796 18.4313 12.7953 18.3842 12.8111C17.6456 11.8053 16.8232 10.8625 15.917 9.99817C12.5594 6.81863 10.0608 7.00196 10.0608 7.00196C8.58361 8.14911 9.08647 12.0149 9.85124 15.2835C10.3541 17.4468 10.9722 19.3482 11.2027 20.0344C11.187 20.0711 11.166 20.113 11.1451 20.1497C9.92457 22.6221 9.26457 25.0054 9.10742 27.5407C10.4746 27.3416 14.2408 27.1164 17.0642 30.1545C17.0642 30.1545 18.9289 25.2307 23.9575 25.2307C28.9861 25.2307 30.06 30.1545 30.06 30.1545C33.3914 27.4045 36.9795 27.4935 38.2367 27.6245C38.2315 27.5197 38.221 27.3626 38.2105 27.2055ZM12.1927 18.0597C12.1927 18.0597 10.2336 13.162 10.7365 10.3648C10.8203 9.89341 10.9774 9.4796 11.2236 9.16531C11.2236 9.16531 13.4446 9.38531 17.0275 13.3663C17.0275 13.3663 16.3465 13.6963 15.4351 14.3982C15.4351 14.3982 15.4299 14.4034 15.4246 14.4034C14.4346 15.163 13.167 16.3677 12.1927 18.0597ZM20.5056 25.3354C20.4742 25.3983 20.317 25.4664 20.1389 25.4926C19.9608 25.5188 19.4161 25.5031 19.107 25.4664C17.9965 25.3197 16.818 24.9792 15.9589 24.5602C15.477 24.3245 15.1313 24.0888 14.8746 23.8321L14.7279 23.6802L14.7122 23.4811C14.686 23.1354 14.6913 22.5907 14.7332 22.3968C14.7594 22.2345 14.817 22.0773 14.8956 21.9359C14.9375 21.8835 14.9375 21.8835 15.126 21.8835C15.3565 21.8835 15.5503 21.9202 15.8646 22.0197C16.5089 22.2187 17.4675 22.7007 18.6356 23.4026C19.5994 23.9788 19.9608 24.2616 20.2385 24.6492C20.427 24.8902 20.5527 25.2307 20.5056 25.3354ZM32.8467 23.6016C32.8309 23.6854 32.5847 23.9369 32.3386 24.1202C31.6157 24.6492 30.3219 25.1416 29.0071 25.3773C28.258 25.5135 27.509 25.5345 27.2838 25.4245C27.1371 25.3512 27.1161 25.2935 27.1685 25.105C27.2785 24.7121 27.6347 24.2826 28.19 23.8792C28.4728 23.6749 29.62 22.9783 30.1543 22.6849C31.0343 22.203 31.7466 21.9149 32.2286 21.8468C32.3805 21.8259 32.5638 21.8206 32.6214 21.8468C32.7157 21.8835 32.8205 22.1611 32.8624 22.4964C32.8833 22.6745 32.8728 23.4602 32.8467 23.6016ZM31.9771 14.3982L31.9667 14.393C31.0866 13.6911 30.4266 13.3611 30.4266 13.3611C33.889 9.38007 36.0314 9.16007 36.0314 9.16007C36.2672 9.4796 36.4191 9.88817 36.5029 10.3596C36.99 13.1568 35.0991 18.0597 35.0991 18.0597C34.3081 16.6506 33.2448 15.4039 31.9771 14.3982Z" fill="#FFA409"/>
<path d="M36.5081 10.3598C36.0995 10.3074 34.1666 10.297 31.9771 14.3984L31.9666 14.3932C31.0866 13.6913 30.4266 13.3613 30.4266 13.3613C33.889 9.38028 36.0314 9.16028 36.0314 9.16028C36.2724 9.4798 36.4243 9.88838 36.5081 10.3598Z" fill="#FF9300"/>
<path d="M35.1042 18.0597C34.308 16.6454 33.2499 15.404 31.9771 14.3983C34.1666 10.2968 36.0942 10.3073 36.508 10.3596C36.9952 13.1621 35.1042 18.0597 35.1042 18.0597Z" fill="#FF8300"/>
<path d="M36.5866 10.3753C36.5604 10.3701 36.5342 10.3649 36.5081 10.3596L36.5866 10.3753Z" fill="#FF8300"/>
<path d="M17.0276 13.3613C17.0276 13.3613 16.3466 13.6913 15.4352 14.3932C15.4352 14.3932 15.4299 14.3984 15.4247 14.3984C13.1566 10.2917 11.1609 10.3074 10.7313 10.3598C10.8151 9.88838 10.9723 9.47457 11.2185 9.16028C11.2237 9.16028 13.4447 9.38028 17.0276 13.3613Z" fill="#FF9300"/>
<path d="M15.4298 14.3984C14.4346 15.1631 13.167 16.3627 12.1927 18.0598C12.1927 18.0598 10.2336 13.1622 10.7365 10.3598C11.1608 10.3074 13.1617 10.2969 15.4298 14.3984Z" fill="#FF8300"/>
<path d="M10.7365 10.36C10.7103 10.3652 10.6789 10.3705 10.6527 10.3757L10.7365 10.36Z" fill="#FF8300"/>
<path d="M29.8033 20.7781C29.8033 20.7781 28.1271 20.8828 28.3366 19.5733C28.5461 18.2638 29.8557 18.1066 30.2223 18.159C30.589 18.2114 32.0557 18.7352 31.7938 19.8352C31.5319 20.9352 31.1652 20.7257 30.9557 20.7781C30.7461 20.8304 29.8033 20.7781 29.8033 20.7781Z" fill="white"/>
<path d="M17.4413 20.7781C17.4413 20.7781 15.7651 20.8828 15.9747 19.5733C16.1842 18.2638 17.4937 18.1066 17.8604 18.159C18.2271 18.2114 19.6937 18.7352 19.4318 19.8352C19.1699 20.9352 18.8033 20.7257 18.5937 20.7781C18.3842 20.8304 17.4413 20.7781 17.4413 20.7781Z" fill="white"/>
</svg>
