<svg width="48" height="48" viewBox="0 0 48 48" fill="none" xmlns="http://www.w3.org/2000/svg">
<path d="M0 24C0 10.7452 10.7452 0 24 0C37.2548 0 48 10.7452 48 24C48 37.2548 37.2548 48 24 48C10.7452 48 0 37.2548 0 24Z" fill="white"/>
<path d="M45.9999 24.0043C46.0273 36.0692 36.1876 45.9636 24.141 45.9909C11.9394 46.0183 2.02669 36.2333 2.00845 24.132C1.99021 11.8848 11.7752 2.02687 23.9677 2.00863C36.1511 1.99039 45.9726 11.7936 45.9999 24.0043Z" fill="#0D1119"/>
<path d="M13.0524 23.9938C13.0524 20.3725 13.0631 16.7618 13.0416 13.1404C13.0416 12.7213 13.1491 12.6031 13.5682 12.6139C20.2414 12.6246 26.9254 12.6246 33.5986 12.6139C34.0392 12.6139 34.1574 12.7428 34.1252 13.1512C34.0929 13.6455 34.0822 14.1613 34.1252 14.6556C34.1682 15.1284 33.9855 15.2037 33.5556 15.2037C30.6542 15.1822 27.7528 15.1929 24.8514 15.1929C21.9178 15.1929 18.9734 15.2037 16.0397 15.1822C15.6314 15.1822 15.5347 15.2789 15.5454 15.6872C15.5562 21.2321 15.5562 26.7878 15.5454 32.3327C15.5454 32.784 15.6959 32.8485 16.0935 32.8377C21.9178 32.827 27.7313 32.8377 33.5556 32.8163C34.0392 32.8163 34.1789 32.9345 34.1359 33.3965C34.0929 33.9338 34.1037 34.4711 34.1359 35.0084C34.1467 35.3201 34.0285 35.3953 33.7383 35.3953C32.8034 35.3738 31.8793 35.3845 30.9444 35.3845C25.1631 35.3845 19.3817 35.3738 13.5897 35.3953C13.1276 35.3953 13.0416 35.2663 13.0416 34.8365C13.0631 31.2259 13.0524 27.6152 13.0524 23.9938Z" fill="#FEFEFE"/>
<path d="M30.0311 26.0141C30.3858 26.0141 30.7834 25.9174 31.095 26.0356C31.4604 26.1753 31.2884 26.6589 31.3959 26.9813C31.6753 27.8087 32.2126 28.3568 33.0722 28.5502C33.7922 28.7221 34.5337 28.7544 35.2429 28.5072C35.9092 28.2815 36.3283 27.8195 36.3927 27.0995C36.468 26.3688 36.1133 25.8637 35.4793 25.5413C34.9958 25.2942 34.48 25.1545 33.9534 25.0685C33.1045 24.9288 32.277 24.7139 31.4711 24.4022C28.5912 23.2847 28.5912 19.6203 30.4932 18.0514C32.3738 16.4932 36.0489 16.6974 37.693 18.492C38.37 19.2442 38.6816 20.1361 38.7139 21.1355C38.7246 21.3397 38.6601 21.4256 38.4452 21.4149C37.779 21.3826 37.1235 21.3719 36.4572 21.3504C36.253 21.3504 36.2101 21.2322 36.1778 21.0495C36.0166 20.2113 35.5116 19.6633 34.6949 19.4591C33.803 19.2442 32.9003 19.212 32.1588 19.889C31.5248 20.4585 31.6538 21.4901 32.406 21.9522C33.1367 22.4035 33.9749 22.5432 34.7916 22.7044C35.8017 22.9086 36.7689 23.1987 37.6285 23.7897C38.2625 24.2196 38.6924 24.8106 38.8536 25.5521C39.5306 28.7006 37.7897 30.6779 35.0817 31.0003C33.5128 31.1829 31.9977 31.054 30.6544 30.1191C29.3541 29.2057 28.8168 27.8839 28.7309 26.3365C28.7201 26.0894 28.7739 25.9819 29.0425 26.0034C29.3864 26.0356 29.7088 26.0141 30.0311 26.0141Z" fill="#FEFEFE"/>
</svg>
