<svg width="48" height="48" viewBox="0 0 48 48" fill="none" xmlns="http://www.w3.org/2000/svg">
<path d="M23.9974 47.9948C37.2508 47.9948 47.9948 37.2508 47.9948 23.9974C47.9948 10.744 37.2508 0 23.9974 0C10.744 0 0 10.744 0 23.9974C0 37.2508 10.744 47.9948 23.9974 47.9948Z" fill="url(#paint0_linear_2_5140)"/>
<path d="M16.0931 18.0311C15.9013 17.793 15.6103 17.6607 15.2994 17.6607H8.88994C8.83702 17.6607 8.79072 17.6409 8.75104 17.6078C8.71796 17.5747 8.69812 17.535 8.69812 17.4887V13.1695C8.69812 13.1232 8.71796 13.0835 8.75104 13.0504C8.79072 13.0107 8.83702 12.9909 8.88994 12.9975H15.6632C17.3697 12.9975 18.8448 13.6986 20.0883 15.0943L21.7353 17.1051L18.5273 21.0143L16.0931 18.0311ZM27.9331 15.0745C29.17 13.692 30.6516 12.9975 32.378 12.9975H39.1314C39.1777 12.9909 39.224 13.0107 39.2571 13.0372C39.2902 13.0703 39.3034 13.1166 39.2968 13.1695V17.4887C39.2968 17.535 39.2836 17.5747 39.2571 17.6078C39.224 17.6475 39.1777 17.6673 39.1314 17.6607H32.722C32.4177 17.6541 32.1267 17.793 31.9282 18.0311L27.2055 23.7791L31.9481 29.5668C32.1399 29.7851 32.4243 29.9174 32.7154 29.9108H39.1248C39.1711 29.9042 39.224 29.9306 39.2505 29.9637C39.277 30.0034 39.2968 30.0563 39.2902 30.1026V34.4219C39.2902 34.4682 39.277 34.5079 39.2505 34.5409C39.2174 34.5806 39.1711 34.6005 39.1248 34.5938H32.378C30.6516 34.5938 29.1832 33.8927 27.9529 32.497L24.0239 27.7015L20.0949 32.497C18.858 33.8927 17.3763 34.5938 15.65 34.5938H8.88994C8.84364 34.6005 8.79072 34.574 8.76427 34.5409C8.73119 34.5012 8.71796 34.4483 8.72458 34.402V30.0827C8.72458 30.0364 8.73781 29.9968 8.76427 29.9637C8.79734 29.924 8.84364 29.9042 8.88994 29.9108H15.2994C15.6037 29.9108 15.8947 29.7719 16.0931 29.5404L20.7299 23.8783L27.9331 15.0745Z" fill="#00D1FF"/>
<defs>
<linearGradient id="paint0_linear_2_5140" x1="24.0007" y1="-0.000138904" x2="24.0007" y2="12.6997" gradientUnits="userSpaceOnUse">
<stop stop-color="#090220"/>
<stop offset="1" stop-color="#170659"/>
</linearGradient>
</defs>
</svg>
