<svg width="48" height="48" viewBox="0 0 48 48" fill="none" xmlns="http://www.w3.org/2000/svg">
<circle cx="24" cy="24" r="24" fill="white"/>
<g clip-path="url(#clip0_2_3684)">
<path d="M24.0878 34.7883C19.078 34.7883 15.0096 30.72 15.0096 25.7101C15.0096 20.8397 23.2277 12.2381 23.5764 11.8778L24.0065 11.4244L24.4482 11.8661C24.8085 12.2265 33.166 20.8281 33.166 25.6985C33.166 30.72 29.0977 34.7883 24.0878 34.7883ZM24.0181 13.1796C23.2974 13.9584 21.7863 15.6439 20.2869 17.6199C17.625 21.1303 16.2185 23.92 16.2185 25.6985C16.2185 30.0342 19.7522 33.5678 24.0878 33.5678C28.4235 33.5678 31.9572 30.0342 31.9572 25.6985C31.9572 23.92 30.5274 21.1303 27.8191 17.6199C26.2964 15.6555 24.7504 13.9584 24.0181 13.1796Z" fill="url(#paint0_linear_2_3684)"/>
<path d="M24.0878 37.6941C17.4739 37.6941 12.1037 32.3122 12.1037 25.7099C12.1037 19.2471 21.1238 10.227 21.5074 9.85503C21.7398 9.62256 22.135 9.62256 22.3675 9.85503C22.6 10.0875 22.6 10.4827 22.3675 10.7152C22.2745 10.8082 13.3242 19.7585 13.3242 25.7099C13.3242 31.6497 18.1597 36.4852 24.0995 36.4852C30.0392 36.4852 34.8747 31.6497 34.8747 25.7099C34.8747 23.2689 33.2939 19.898 30.295 15.9343C27.9934 12.9005 25.6803 10.599 25.6571 10.5757C25.413 10.3432 25.413 9.95965 25.6571 9.71555C25.8895 9.47145 26.2731 9.47145 26.5172 9.71555C26.9124 10.0991 36.0952 19.2354 36.0952 25.7099C36.072 32.3122 30.7018 37.6941 24.0878 37.6941Z" fill="url(#paint1_linear_2_3684)"/>
<path d="M24.0879 40.6007C16.0442 40.6007 9.5 34.0565 9.5 26.0129C9.5 22.6885 11.1738 18.5969 14.4634 13.866C16.8927 10.3788 19.2756 7.89134 19.3802 7.78673C19.6127 7.54263 19.9963 7.54263 20.2404 7.7751C20.4845 8.00758 20.4845 8.39117 20.252 8.63527C20.2288 8.65851 17.8226 11.1693 15.4514 14.575C12.3478 19.027 10.7089 22.979 10.7089 26.0129C10.7089 33.3824 16.7068 39.3919 24.0879 39.3919C31.469 39.3919 37.4669 33.394 37.4669 26.0129C37.4669 22.979 35.8163 19.027 32.6895 14.575C30.295 11.1693 27.8656 8.65851 27.8424 8.63527C27.6099 8.39117 27.6099 8.00758 27.854 7.7751C28.0981 7.54263 28.4817 7.54263 28.7142 7.78673C29.121 8.20518 38.6758 18.1319 38.6758 26.0129C38.6758 34.0565 32.1316 40.6007 24.0879 40.6007Z" fill="url(#paint2_linear_2_3684)"/>
</g>
<defs>
<linearGradient id="paint0_linear_2_3684" x1="24.0878" y1="34.7869" x2="24.0878" y2="11.423" gradientUnits="userSpaceOnUse">
<stop stop-color="#05AAC5"/>
<stop offset="1" stop-color="#71E0EC"/>
</linearGradient>
<linearGradient id="paint1_linear_2_3684" x1="24.0995" y1="37.6926" x2="24.0995" y2="9.53105" gradientUnits="userSpaceOnUse">
<stop stop-color="#05AAC5"/>
<stop offset="1" stop-color="#71E0EC"/>
</linearGradient>
<linearGradient id="paint2_linear_2_3684" x1="24.0879" y1="40.5993" x2="24.0879" y2="7.60075" gradientUnits="userSpaceOnUse">
<stop stop-color="#05AAC5"/>
<stop offset="1" stop-color="#71E0EC"/>
</linearGradient>
<clipPath id="clip0_2_3684">
<rect width="29.1758" height="33" fill="white" transform="translate(9.5 7.6001)"/>
</clipPath>
</defs>
</svg>
