<svg width="48" height="48" viewBox="0 0 48 48" fill="none" xmlns="http://www.w3.org/2000/svg">
<g clip-path="url(#clip0_2_6325)">
<path d="M0 24C0 10.7452 10.7452 0 24 0C37.2548 0 48 10.7452 48 24C48 37.2548 37.2548 48 24 48C10.7452 48 0 37.2548 0 24Z" fill="#FE004C"/>
<path d="M-7.35259 45.7609C-7.35259 31.3673 -7.35259 16.9737 -7.36475 2.58011C-7.36475 2.15462 -7.31612 1.99658 -6.82985 1.99658C13.557 2.00874 33.9439 2.00874 54.3308 1.99658C54.8292 1.99658 54.8657 2.15462 54.8657 2.58011C54.8535 16.9737 54.8535 31.3673 54.8535 45.7609C54.659 45.9432 54.428 45.9676 54.1727 45.9797C53.9539 45.9919 53.7229 45.9919 53.5041 45.9919C33.6643 45.9919 13.8123 45.9919 -6.0275 45.9919C-6.46515 45.9797 -6.95142 46.0891 -7.35259 45.7609Z" fill="#FE004C"/>
<path d="M7.3208 9.30264C10.2141 9.30264 12.9858 9.30264 15.7454 9.30264C15.9886 9.30264 16.1101 9.42421 16.2439 9.58225C19.3195 13.1806 22.4195 16.7669 25.483 20.3896C27.2579 22.4927 27.2579 25.3009 25.483 27.4041C22.4195 31.0146 19.3195 34.6009 16.2439 38.1993C16.1223 38.333 16.025 38.4789 15.8062 38.4789C13.0223 38.4789 10.2263 38.4789 7.3208 38.4789C7.50315 38.2479 7.62472 38.102 7.74629 37.9561C10.9921 34.1754 14.2258 30.3946 17.4717 26.6139C19.0521 24.766 19.0521 23.0398 17.4717 21.1798C14.2258 17.399 10.9921 13.6183 7.74629 9.83754C7.63688 9.6795 7.52747 9.54578 7.3208 9.30264Z" fill="#FEFEFE"/>
<path d="M40.3383 9.38781C39.1104 10.3847 37.8948 11.3815 36.6791 12.3662C35.3662 13.436 34.0411 14.5058 32.7281 15.5878C31.6827 16.4509 30.5156 16.7062 29.2148 16.3658C27.8654 16.0132 26.516 15.6972 25.1545 15.3568C25.0208 15.3203 24.8992 15.2717 24.729 15.1987C26.3094 13.278 27.8654 11.3937 29.4215 9.49722C29.5552 9.33918 29.689 9.29056 29.8835 9.29056C33.3238 9.29056 36.7642 9.29056 40.2045 9.30271C40.2289 9.30271 40.2653 9.33918 40.3383 9.38781Z" fill="#FEFEFE"/>
<path d="M40.4477 38.4668C39.159 38.4668 38.0285 38.4668 36.8979 38.4668C34.6124 38.4668 32.3269 38.4668 30.0415 38.4668C29.8227 38.4668 29.616 38.5154 29.4336 38.2966C27.8776 36.388 26.3094 34.4916 24.6925 32.5222C26.4917 32.1088 28.1815 31.5496 29.9442 31.27C30.9046 31.1241 31.792 31.4159 32.5458 32.0359C35.1352 34.139 37.7245 36.2421 40.4477 38.4668Z" fill="#FEFEFE"/>
</g>
<defs>
<clipPath id="clip0_2_6325">
<path d="M0 24C0 10.7452 10.7452 0 24 0C37.2548 0 48 10.7452 48 24C48 37.2548 37.2548 48 24 48C10.7452 48 0 37.2548 0 24Z" fill="white"/>
</clipPath>
</defs>
</svg>
