<svg width="48" height="48" viewBox="0 0 48 48" fill="none" xmlns="http://www.w3.org/2000/svg">
<path d="M0 24C0 10.7452 10.7452 0 24 0C37.2548 0 48 10.7452 48 24C48 37.2548 37.2548 48 24 48C10.7452 48 0 37.2548 0 24Z" fill="white"/>
<path d="M11.7904 30.1437C11.6059 30.1437 11.4255 30.1985 11.272 30.301C11.1186 30.4035 10.999 30.5492 10.9283 30.7197C10.8577 30.8902 10.8392 31.0779 10.8753 31.2589C10.9113 31.4399 11.0001 31.6061 11.1306 31.7366C11.2611 31.8671 11.4274 31.956 11.6084 31.992C11.7894 32.028 11.977 32.0095 12.1475 31.9389C12.318 31.8683 12.4637 31.7487 12.5662 31.5952C12.6688 31.4418 12.7235 31.2614 12.7235 31.0768C12.7235 30.9113 12.6783 30.7608 12.603 30.6104C12.5196 30.4689 12.4009 30.3515 12.2584 30.2697C12.1159 30.1879 11.9547 30.1446 11.7904 30.1439V30.1437ZM24.9731 9.84282C24.9731 9.65827 24.9184 9.47787 24.8159 9.32442C24.7133 9.17098 24.5676 9.05138 24.3971 8.98076C24.2266 8.91013 24.039 8.89165 23.858 8.92766C23.677 8.96366 23.5107 9.05253 23.3802 9.18303C23.2497 9.31352 23.1609 9.47978 23.1249 9.66078C23.0889 9.84179 23.1073 10.0294 23.178 10.1999C23.2486 10.3704 23.3682 10.5161 23.5216 10.6187C23.6751 10.7212 23.8555 10.7759 24.04 10.7759C24.2871 10.7745 24.5236 10.6758 24.6983 10.5011C24.873 10.3264 24.9717 10.0899 24.9731 9.84282ZM36.3509 17.9392C36.5354 17.9392 36.7158 17.8844 36.8693 17.7819C37.0227 17.6794 37.1423 17.5336 37.2129 17.3631C37.2836 17.1926 37.302 17.005 37.266 16.824C37.23 16.643 37.1412 16.4768 37.0107 16.3463C36.8802 16.2158 36.7139 16.1269 36.5329 16.0909C36.3519 16.0549 36.1643 16.0734 35.9938 16.144C35.8233 16.2146 35.6776 16.3342 35.575 16.4877C35.4725 16.6411 35.4178 16.8215 35.4178 17.0061C35.4184 17.1644 35.4599 17.3199 35.5382 17.4575C35.6184 17.603 35.736 17.7244 35.8789 17.8091C36.0218 17.8938 36.1848 17.9387 36.3509 17.9392ZM12.226 16.1482C11.7745 15.8923 11.2177 16.043 10.9619 16.4944C10.7062 16.9458 10.8566 17.5027 11.3081 17.7585C11.7595 18.0142 12.3164 17.8637 12.5722 17.4123C12.8281 16.9759 12.6774 16.404 12.226 16.1482ZM36.7262 30.3242C36.5908 30.234 36.4253 30.2038 36.2598 30.1888C36.1362 30.1871 36.0135 30.21 35.8988 30.2561C35.7842 30.3023 35.6798 30.3707 35.5918 30.4575C35.5039 30.5443 35.434 30.6478 35.3863 30.7618C35.3386 30.8758 35.3141 30.9982 35.3141 31.1218C35.3141 31.2454 35.3386 31.3677 35.3863 31.4818C35.434 31.5958 35.5039 31.6992 35.5918 31.786C35.6798 31.8728 35.7842 31.9413 35.8988 31.9874C36.0135 32.0336 36.1362 32.0565 36.2598 32.0548C36.5908 32.0548 36.891 31.8743 37.0724 31.5883C37.3283 31.1519 37.1777 30.58 36.7262 30.3242ZM23.1069 38.1043C23.0617 38.5257 23.3176 38.9319 23.7089 39.0824C23.7991 39.1124 23.9046 39.1426 23.9948 39.1426C24.223 39.1422 24.4439 39.0624 24.6197 38.9169C24.7955 38.7713 24.915 38.5691 24.9579 38.345C24.9914 38.1027 24.9279 37.8569 24.7811 37.6612C24.6343 37.4655 24.4162 37.3357 24.1742 37.2999C23.9321 37.2642 23.6858 37.3255 23.4888 37.4705C23.2917 37.6155 23.1599 37.8324 23.1219 38.0741C23.1138 38.0822 23.1085 38.0927 23.1069 38.1041" fill="#2683FF"/>
<path d="M37.6444 28.6088C37.5335 28.5447 37.4178 28.4893 37.2982 28.4433V19.73C37.4337 19.6848 37.5692 19.6096 37.7046 19.5495C39.1037 18.7669 39.6155 16.9911 38.8332 15.5913C38.051 14.1914 36.2749 13.6804 34.875 14.4626C34.7545 14.5229 34.6493 14.5981 34.544 14.6733L26.8691 10.234C26.8841 10.0985 26.8991 9.97804 26.8991 9.84274C26.8989 8.23265 25.5903 6.93854 23.9951 6.93854C22.3998 6.93854 21.0605 8.26285 21.0605 9.85792C21.0605 9.99339 21.0755 10.1138 21.0905 10.2491L13.4758 14.6585C13.1729 14.4212 12.8259 14.2463 12.455 14.1441C12.084 14.0418 11.6965 14.0141 11.3147 14.0627C10.933 14.1112 10.5647 14.235 10.2311 14.4269C9.89759 14.6187 9.60542 14.8749 9.37155 15.1805C9.13768 15.486 8.96675 15.835 8.86867 16.2071C8.77059 16.5791 8.7473 16.967 8.80016 17.3482C8.85301 17.7293 8.98096 18.0962 9.17659 18.4275C9.37222 18.7589 9.63165 19.0482 9.93985 19.2786C10.0451 19.3538 10.1506 19.4291 10.2708 19.5043C10.3938 19.5795 10.5251 19.6401 10.6621 19.6848V28.3831C9.17208 28.985 8.44953 30.671 9.05146 32.1603C9.65339 33.6496 11.3389 34.3725 12.8289 33.7706C12.9643 33.7254 13.0848 33.6501 13.2051 33.5901C13.3255 33.5148 13.4458 33.4396 13.5663 33.3493L21.1057 37.6985C20.8498 39.2785 21.9334 40.7683 23.5136 41.0242C25.0938 41.2802 26.5836 40.1966 26.8394 38.6164C26.8694 38.4509 26.8694 38.3004 26.8694 38.1347C26.8674 37.9938 26.8574 37.8531 26.8394 37.7133L34.3338 33.3944C34.4542 33.4846 34.5745 33.5749 34.71 33.6503C36.109 34.4329 37.8853 33.9362 38.6683 32.5367C39.4202 31.137 38.9687 29.4214 37.6444 28.6088ZM38.1711 32.2506C37.5541 33.3039 36.1846 33.6651 35.1312 33.0482C34.2886 32.5515 33.8672 31.5734 34.0929 30.6255L30.5714 28.5638C30.0279 29.1149 29.3338 29.4931 28.576 29.6509C27.8183 29.8088 27.0308 29.7392 26.3125 29.451C25.7858 29.6164 24.6576 29.7219 24.6576 29.7219V35.922C25.8916 36.2982 26.5684 37.6075 26.1931 38.8414C25.8177 40.0753 24.5076 40.7523 23.2735 40.3769C23.2585 40.3769 23.2435 40.3619 23.2283 40.3619C23.1231 40.3319 23.0326 40.2867 22.9424 40.2415C21.7836 39.6696 21.3321 38.255 21.904 37.1114C22.19 36.5395 22.7016 36.1182 23.3031 35.9225V29.6019C22.8611 29.4653 22.4287 29.2994 22.0088 29.1053C21.3364 29.2396 20.6427 29.2244 19.9769 29.0605C19.3111 28.8966 18.6895 28.5882 18.1563 28.1572L13.9576 30.5799C14.0602 31.0098 14.0331 31.4605 13.8795 31.875C13.726 32.2895 13.453 32.6492 13.0951 32.9085C12.7372 33.1679 12.3104 33.3153 11.8687 33.3321C11.4271 33.349 10.9903 33.2345 10.6137 33.0031C10.2371 32.7717 9.93752 32.4339 9.7529 32.0323C9.56828 31.6307 9.50688 31.1833 9.57646 30.7468C9.64605 30.3103 9.84349 29.9043 10.1438 29.58C10.4442 29.2557 10.8339 29.0278 11.2638 28.9249C11.9862 28.7444 12.7536 28.955 13.3112 29.4667L17.2389 27.1942C15.9146 25.3282 16.1253 22.7699 17.7507 21.1446L13.2806 18.5862C12.3935 19.4289 10.9932 19.3838 10.1506 18.481C9.95006 18.268 9.79366 18.0175 9.69038 17.7438C9.58709 17.4701 9.53896 17.1787 9.54874 16.8864C9.55853 16.5941 9.62604 16.3066 9.74739 16.0404C9.86874 15.7743 10.0415 15.5348 10.2558 15.3357C11.1587 14.493 12.5433 14.538 13.3859 15.4409C13.8978 15.9826 14.0933 16.7351 13.9276 17.4574L18.8787 20.3016C19.5273 19.9526 20.2492 19.7618 20.9856 19.7447C21.6781 19.1731 23.4525 18.5862 23.4525 18.5862V11.8144C22.3539 11.4834 21.737 10.3246 22.068 9.22597C22.399 8.12738 23.5586 7.52545 24.6572 7.85644C25.7558 8.18744 26.3728 9.34625 26.0418 10.4448C25.9439 10.7723 25.7661 11.0704 25.5244 11.3121C25.2827 11.5537 24.9847 11.7315 24.6572 11.8294V18.4663C24.6572 18.4663 27.9078 19.2789 28.9311 20.4978L34.1982 17.5032C33.9272 16.2993 34.6646 15.0953 35.8686 14.8245C37.0727 14.5537 38.2765 15.291 38.5473 16.495C38.8181 17.699 38.0808 18.9029 36.8768 19.1736C36.5184 19.2544 36.1457 19.2458 35.7915 19.1487C35.4372 19.0516 35.1122 18.8689 34.8451 18.6168L29.6383 21.566C29.7888 21.882 29.9243 22.1973 30.0145 22.5291C31.6248 23.6277 32.1967 25.7345 31.3388 27.4952L34.7852 29.4967C35.1325 29.173 35.5751 28.9703 36.047 28.9188C36.5188 28.8672 36.9947 28.9696 37.4037 29.2107C38.442 29.8277 38.8027 31.1822 38.1714 32.2506H38.1711Z" fill="#2683FF"/>
<path d="M28.4647 23.7029C28.4497 23.5825 28.4346 23.4772 28.4195 23.3568C28.4047 23.2753 28.3846 23.1948 28.3592 23.116C28.3592 23.086 28.3442 23.0558 28.3442 23.0258C28.3142 22.9355 28.284 22.8301 28.254 22.7398V22.7248C28.0626 22.22 27.7708 21.7592 27.3961 21.3705C27.3059 21.2802 27.2306 21.205 27.1252 21.1146L27.1102 21.0995C27.0199 21.0243 26.9297 20.9491 26.8242 20.8888L26.8092 20.8738C26.7189 20.8136 26.6135 20.7384 26.5233 20.6933L26.5082 20.6783C26.411 20.6222 26.3105 20.5719 26.2073 20.5278L26.1772 20.5128C26.072 20.4676 25.9665 20.4226 25.8463 20.3773L25.8312 20.3623C25.7108 20.3323 25.6055 20.2871 25.4851 20.2721H25.4701C25.351 20.2447 25.2304 20.2246 25.1089 20.2118H25.0938C24.4529 20.1208 23.7993 20.1986 23.1976 20.4376L23.1224 20.4978C23.0321 20.5278 22.8817 20.6031 22.7914 20.6483C22.7444 20.6793 22.6939 20.7046 22.6409 20.7235C22.5957 20.7385 22.5205 20.7988 22.4754 20.8288C22.4304 20.8588 22.3249 20.9341 22.2647 20.9793L22.2195 21.0093C22.1292 21.0695 22.054 21.1448 21.9636 21.22L21.8883 21.2952C21.7981 21.3855 21.7228 21.4607 21.6476 21.5512C21.4686 21.5212 21.2874 21.506 21.1059 21.5059C21.0457 21.5059 21.0006 21.5059 20.9554 21.521C20.2632 21.551 19.6011 21.8369 19.0894 22.3036C18.8335 22.5293 18.6229 22.8154 18.4581 23.1162L18.4421 23.1469C18.3957 23.2343 18.3555 23.3248 18.3216 23.4178C18.3066 23.4479 18.3066 23.463 18.2916 23.4931C18.2597 23.571 18.2346 23.6516 18.2164 23.7338C18.2014 23.7638 18.2014 23.809 18.1863 23.8391C18.1713 23.9143 18.1563 23.9896 18.1411 24.0798C18.1411 24.1098 18.1261 24.14 18.1261 24.1851C18.1136 24.3 18.1086 24.4157 18.1111 24.5312C18.1086 24.6268 18.1136 24.7224 18.1261 24.8172C18.1261 24.8472 18.1411 24.8774 18.1411 24.9225C18.1561 24.9827 18.1561 25.0429 18.1712 25.103C18.1862 25.163 18.1862 25.1782 18.2012 25.2234C18.2183 25.2667 18.2284 25.3124 18.2312 25.3589C18.2312 25.4041 18.2612 25.4491 18.2764 25.4944C18.2887 25.5306 18.3038 25.5658 18.3216 25.5996C18.3443 25.6487 18.3644 25.6989 18.3819 25.7501C18.3969 25.7801 18.4119 25.7953 18.4119 25.8253C18.6234 26.321 18.9803 26.7408 19.4356 27.0292C19.6613 27.1647 19.887 27.2851 20.1278 27.3602C20.2211 27.3923 20.3167 27.4174 20.4137 27.4354L20.4437 27.4504L20.7147 27.4956L20.7749 27.5107C20.8802 27.5257 20.9856 27.5257 21.1059 27.5257C21.5123 27.5257 21.9035 27.4504 22.2647 27.2849C22.355 27.3452 22.4302 27.4054 22.5206 27.4654L22.5507 27.4805C22.6259 27.5257 22.7162 27.5707 22.8066 27.6159H22.8213C23.6814 28.0543 24.6741 28.1562 25.6053 27.9019H25.6204C25.7557 27.8726 25.8871 27.8272 26.0116 27.7664L26.418 27.5859C26.8049 27.8878 27.2815 28.0519 27.7723 28.0524C27.8776 28.0524 27.968 28.0373 28.0733 28.0373L28.1485 28.0223C28.245 28.008 28.3404 27.9879 28.4345 27.9621C28.5272 27.9336 28.6178 27.8984 28.7054 27.8568L28.7506 27.8418C28.8409 27.7966 28.9161 27.7516 29.0065 27.7063C29.3828 27.4656 29.6687 27.1044 29.8342 26.698C29.8944 26.5626 29.9245 26.4271 29.9547 26.2918V26.2466C29.9697 26.1864 29.9697 26.1261 29.9847 26.0661C29.9847 25.9908 29.9997 25.9156 29.9997 25.8404C29.9997 24.8472 29.3828 23.9894 28.4642 23.7034" fill="#2683FF"/>
</svg>
