<svg width="48" height="48" viewBox="0 0 48 48" fill="none" xmlns="http://www.w3.org/2000/svg">
<path d="M24 48C37.2548 48 48 37.2548 48 24C48 10.7452 37.2548 0 24 0C10.7452 0 0 10.7452 0 24C0 37.2548 10.7452 48 24 48Z" fill="#5546FF"/>
<path d="M33.7922 36.6458L28.6257 28.5356H36.045V25.4718H11.7146V28.5356H19.1339L13.9674 36.6458H17.8122L23.8798 27.1239L29.9474 36.6458H33.7922ZM36.045 22.4981V19.4343H28.7759L33.8823 11.4142H30.0075L23.8798 21.0863L17.7521 11.4142H13.8773L18.9837 19.4343H11.7146V22.5281L36.045 22.4981Z" fill="white"/>
</svg>
