<svg width="48" height="48" viewBox="0 0 48 48" fill="none" xmlns="http://www.w3.org/2000/svg">
<circle cx="24" cy="24" r="24" fill="white"/>
<path d="M15.2399 11.8625L38.4959 27.7417L32.7444 36.2439L9.4884 20.2397L15.2399 11.8625Z" fill="url(#paint0_linear_2_166)"/>
<path d="M38.4959 27.7416C36.4954 30.6173 29.7437 29.4921 23.367 24.9909C16.8653 20.6148 13.3644 14.7382 15.2399 11.8625C17.2404 8.98676 23.9922 10.112 30.3688 14.6132C36.8705 18.8643 40.3714 24.8659 38.4959 27.7416Z" fill="url(#paint1_linear_2_166)"/>
<path d="M32.7444 36.1188C30.7439 38.9946 23.9922 37.8693 17.6155 33.3681C11.2389 28.867 7.61295 23.1155 9.61346 20.1147C11.614 17.239 18.3657 18.3642 24.7424 22.8654C31.119 27.3666 34.6199 33.2431 32.7444 36.1188Z" fill="url(#paint2_linear_2_166)"/>
<path d="M38.4959 27.7416L32.7444 36.2438C30.7439 39.1196 23.9922 37.8692 17.6155 33.4931C16.3652 32.6179 15.2399 31.7427 14.1146 30.7424C14.9899 30.6174 16.1151 30.1172 17.2404 28.8669C19.2409 26.7414 20.2412 26.2412 21.1164 26.3663C21.9917 26.3663 22.9919 27.2415 24.6173 29.367C26.2428 31.4926 28.4933 32.1177 29.8687 30.9925C29.9937 30.8674 30.1188 30.8674 30.2438 30.7424C31.3691 29.8672 31.7442 29.4921 33.8697 25.491C34.3699 24.4908 36.1203 22.8654 38.4959 23.6155C39.1211 25.241 39.1211 26.6163 38.4959 27.7416Z" fill="#0E0F23"/>
<path fill-rule="evenodd" clip-rule="evenodd" d="M37.6206 27.2415C35.8702 29.7421 29.7436 28.4918 23.8671 24.3657C17.8655 20.2397 14.3646 14.9883 16.1151 12.4877C17.8655 9.98703 23.9921 11.2373 29.8686 15.3634C35.7452 19.4895 39.2461 24.7408 37.6206 27.2415ZM32.1192 23.4905C31.244 24.7408 28.2432 24.1157 25.2424 22.1152C22.3667 20.1146 20.6162 17.489 21.4915 16.2386C22.3667 14.9883 25.3675 15.6135 28.3682 17.614C31.244 19.6145 32.9944 22.2402 32.1192 23.4905Z" fill="white"/>
<path d="M14.7398 14.7381C14.7398 14.6131 14.6147 14.488 14.4897 14.6131C14.3647 14.7381 14.2396 14.7381 14.2396 14.8631C14.3647 15.2382 14.4897 15.4883 14.4897 15.7384C14.4897 15.8634 14.6147 15.9884 14.7398 15.8634C14.8648 15.8634 14.9898 15.7384 14.8648 15.6133C14.8648 15.3633 14.8648 15.1132 14.7398 14.7381Z" fill="white"/>
<path d="M15.365 16.7388C15.365 16.6138 15.2399 16.4888 15.1149 16.6138C14.9899 16.7388 14.9899 16.7388 14.9899 16.8639C16.3652 19.9897 19.241 23.3655 22.9919 25.8662C23.117 25.9912 23.242 25.8662 23.367 25.8662C23.4921 25.7412 23.367 25.6161 23.367 25.4911C19.491 22.9905 16.7403 19.7396 15.365 16.7388Z" fill="white"/>
<path d="M30.4938 28.9919C30.3688 28.9919 30.2438 28.9919 30.2438 29.117C30.2438 29.242 30.2438 29.367 30.3688 29.367C30.7439 29.4921 31.244 29.6171 31.6191 29.7421C31.7442 29.7421 31.8692 29.7421 31.8692 29.6171C31.8692 29.4921 31.8692 29.367 31.7442 29.367C31.3691 29.242 30.8689 29.117 30.4938 28.9919Z" fill="white"/>
<path d="M32.7445 29.4922C32.6194 29.4922 32.4944 29.6172 32.4944 29.7423C32.4944 29.8673 32.6194 29.9923 32.7445 29.9923C33.7447 30.1173 34.87 30.2424 35.7452 30.1173C35.8703 30.1173 35.9953 29.9923 35.9953 29.8673C35.9953 29.7423 35.8703 29.6172 35.7452 29.6172C34.745 29.7423 33.7447 29.6172 32.7445 29.4922Z" fill="white"/>
<defs>
<linearGradient id="paint0_linear_2_166" x1="19.7963" y1="9.60484" x2="24.4083" y2="25.4417" gradientUnits="userSpaceOnUse">
<stop stop-color="#03B8FF"/>
<stop offset="1" stop-color="#FA52A0"/>
</linearGradient>
<linearGradient id="paint1_linear_2_166" x1="23.5943" y1="8.49863" x2="28.2064" y2="24.3356" gradientUnits="userSpaceOnUse">
<stop stop-color="#03B8FF"/>
<stop offset="1" stop-color="#FA52A0"/>
</linearGradient>
<linearGradient id="paint2_linear_2_166" x1="16.0101" y1="10.7074" x2="20.6222" y2="26.5444" gradientUnits="userSpaceOnUse">
<stop stop-color="#03B8FF"/>
<stop offset="1" stop-color="#FA52A0"/>
</linearGradient>
</defs>
</svg>
