<svg width="48" height="48" viewBox="0 0 48 48" fill="none" xmlns="http://www.w3.org/2000/svg">
<path d="M0 24C0 10.7872 10.7111 0 23.9239 0C37.1366 0 47.8477 10.7872 47.8477 24C47.8477 37.2128 37.1366 48 23.9239 48C10.7111 48 0 37.2128 0 24Z" fill="white"/>
<path d="M25.0986 35.994C25.0015 33.2186 25.0577 30.4381 25.0628 27.6626C25.0679 26.1241 25.0832 24.5907 25.0935 23.0522C25.0986 22.5411 25.2008 22.444 25.6966 22.4235C27.3169 22.3673 28.9423 22.3827 30.5625 22.3878C30.9357 22.3878 31.3088 22.4184 31.6819 22.4287C31.9937 22.4389 32.1828 22.628 32.3208 22.8682C32.8575 23.8036 33.2153 24.7952 33.2511 25.8788C33.3329 28.3373 32.5764 30.5352 31.043 32.4417C29.893 33.8728 28.4056 34.844 26.6677 35.4369C26.1719 35.6056 25.671 35.7538 25.2008 35.994C25.1701 35.994 25.1344 35.994 25.0986 35.994Z" fill="#F0C970"/>
<path d="M37.9024 34.9716C37.8462 34.9921 37.836 35.0483 37.8207 35.0943C37.6367 35.631 37.2431 35.8763 36.6962 35.8814C35.449 35.8916 34.1968 35.8865 32.9496 35.8968C32.6634 35.8968 32.4845 35.7536 32.3465 35.539C31.9376 34.8847 31.8251 34.164 31.9427 33.4127C32.2136 31.6799 33.6652 30.4277 35.4235 30.3817C35.7353 30.3715 35.9704 30.4839 36.1237 30.7548C36.2975 31.0666 36.4662 31.3835 36.6195 31.7004C36.9773 32.4313 37.3249 33.1673 37.6724 33.9034C37.7644 34.0976 37.8411 34.2918 37.8564 34.5116C37.9127 34.6445 37.836 34.7927 37.9024 34.9256C37.9024 34.9358 37.9024 34.9563 37.9024 34.9716Z" fill="#F0C970"/>
<path d="M37.9024 34.9206C37.8002 34.7928 37.8717 34.6446 37.8564 34.5066C37.8717 34.5066 37.8871 34.5117 37.9024 34.5117C37.9024 34.6497 37.9024 34.7877 37.9024 34.9206Z" fill="#F7E2B2"/>
<path d="M21.7968 27.9846C21.7968 29.6253 21.7764 31.266 21.8019 32.9017C21.8172 33.8115 21.807 34.7162 21.8275 35.626C21.8326 35.8355 21.807 35.9173 21.5668 35.8355C20.5088 35.4624 19.4303 35.1455 18.454 34.5833C15.8779 33.1061 14.3905 30.8418 13.7823 27.9744C13.4807 26.5483 13.5114 25.1274 14.0685 23.7473C14.2168 23.3844 14.3957 23.0369 14.6001 22.7046C14.8403 22.3111 15.2492 22.3315 15.6224 22.3264C17.4829 22.3111 19.3434 22.3162 21.2039 22.3213C21.5872 22.3213 21.7457 22.4695 21.761 22.858C21.7764 23.1697 21.7712 23.4866 21.7712 23.7984C21.7712 25.1938 21.7712 26.5841 21.7712 27.9795C21.7917 27.9846 21.7917 27.9846 21.7968 27.9846Z" fill="#F0C970"/>
<path d="M22.7474 28.5264C22.7474 26.1956 22.7422 23.87 22.7525 21.5392C22.7525 21.2888 22.7065 21.1866 22.4202 21.1814C20.1253 21.1201 17.8303 21.1712 15.5404 21.161C15.3002 21.161 15.2747 21.1099 15.3615 20.9003C15.5813 20.3892 15.796 19.8832 16.3634 19.6429C16.4911 19.5867 16.6189 19.5612 16.7569 19.5612C21.0146 19.5612 25.2723 19.5663 29.53 19.5407C30.1434 19.5356 30.5625 19.8014 30.9203 20.2359C31.0787 20.4352 31.2116 20.655 31.3548 20.8645C31.4621 21.023 31.4417 21.0997 31.227 21.0946C30.1383 21.0894 29.0496 21.0946 27.966 21.0997C26.775 21.1099 25.5892 21.1303 24.3983 21.1303C24.1887 21.1303 24.1274 21.1866 24.1274 21.4012C24.1325 24.2993 24.1274 27.1974 24.1274 30.0955C24.1274 31.8129 24.1274 33.5303 24.1223 35.2477C24.1223 35.7537 23.9281 35.9428 23.4272 35.9377C22.7474 35.9275 22.7474 35.9275 22.7474 35.2579C22.7525 33.0141 22.7525 30.7702 22.7474 28.5264C22.7525 28.5264 22.7474 28.5264 22.7474 28.5264Z" fill="#F0C970"/>
<path d="M23.2689 15.3802C22.2058 15.3597 21.3778 14.8537 20.6877 14.087C20.3453 13.7037 20.105 13.259 19.9261 12.7734C19.7728 12.3543 19.7779 11.9607 19.9773 11.5467C20.4884 10.504 21.02 9.47153 21.48 8.40327C21.5515 8.2397 21.6231 8.07614 21.6947 7.91258C21.986 7.289 22.7527 6.91588 23.5552 7.00788C24.5059 7.12033 25.0834 7.63657 25.385 8.53616C25.5997 9.18018 25.9524 9.76798 26.2488 10.3813C26.3817 10.6573 26.4993 10.9385 26.6424 11.2094C26.9184 11.7358 26.8979 12.2776 26.6884 12.8092C26.1313 14.2455 25.1192 15.1348 23.5756 15.37C23.5501 15.3751 23.5245 15.3751 23.4989 15.3751C23.4223 15.3802 23.3456 15.3802 23.2689 15.3802Z" fill="#F0C970"/>
<path d="M11.7225 35.9326C11.1142 35.9326 10.5929 35.9326 10.0766 35.9326C9.47863 35.9326 8.95217 35.3091 8.99817 34.7213C9.02883 34.297 9.21284 33.9392 9.38151 33.5712C9.75975 32.7483 10.1482 31.9254 10.5878 31.128C10.8382 30.6731 10.966 30.6067 11.4823 30.6833C12.2438 30.7958 12.9441 31.0514 13.5319 31.5676C14.5695 32.4825 15.0653 33.9955 14.4928 35.3295C14.3395 35.6924 14.0941 35.8969 13.6597 35.9122C12.9901 35.9275 12.3103 35.9224 11.7225 35.9326Z" fill="#F0C970"/>
<path d="M17.4932 18.4111C18.9192 17.5319 20.4015 16.7908 22.0729 16.5915C24.1838 16.341 26.2028 16.6221 27.9969 17.8846C28.2115 18.0329 28.4109 18.2015 28.6818 18.4111C24.9045 18.4111 21.2091 18.4111 17.4932 18.4111Z" fill="#F0C970"/>
<path d="M29.5403 17.2305C28.4056 16.6989 27.276 16.1673 26.1208 15.6307C26.6524 14.8946 27.1687 14.179 27.7207 13.4124C28.3545 14.6953 28.9729 15.9424 29.5914 17.1845C29.571 17.1998 29.5556 17.2152 29.5403 17.2305Z" fill="#F0C970"/>
<path d="M17.3857 16.9697C17.7282 16.2337 18.0758 15.5028 18.4233 14.7667C18.5767 14.4447 18.73 14.1227 18.8782 13.8007C18.9447 13.6525 18.9958 13.6525 19.098 13.7803C19.5376 14.3476 19.9874 14.915 20.4372 15.4772C20.5241 15.5845 20.519 15.6459 20.3861 15.7021C19.4047 16.1366 18.4233 16.5812 17.4471 17.0208C17.4215 17.0055 17.4062 16.985 17.3857 16.9697Z" fill="#F0C970"/>
<path d="M34.1304 26.6249C34.3297 27.0236 34.5291 27.4223 34.7284 27.821C34.9175 28.2094 35.1015 28.603 35.2958 28.9864C35.3622 29.1244 35.3622 29.1806 35.1884 29.2266C34.6875 29.3493 34.1917 29.4975 33.6959 29.6406C33.5937 29.6713 33.4915 29.6917 33.5221 29.5384C33.7061 28.5723 33.8901 27.6063 34.0793 26.6352C34.0946 26.6301 34.115 26.6249 34.1304 26.6249Z" fill="#F0C970"/>
<path d="M15.8523 34.0107C16.6803 34.6241 17.5032 35.2323 18.3363 35.8508C18.2699 35.9275 18.1983 35.8968 18.1421 35.8968C17.3448 35.8968 16.5423 35.8917 15.7449 35.8968C15.5558 35.8968 15.4945 35.861 15.5405 35.6515C15.6325 35.1863 15.6938 34.7161 15.7654 34.2459C15.7756 34.1692 15.7858 34.0925 15.8523 34.0107Z" fill="#F0C970"/>
<path d="M28.2881 35.8507C29.1263 35.2323 29.9033 34.6649 30.6802 34.0925C30.8182 33.9902 30.8437 34.0209 30.8744 34.1794C30.9766 34.6752 31.0993 35.1709 31.222 35.6616C31.2577 35.7996 31.2577 35.861 31.0686 35.861C30.169 35.8405 29.2695 35.8507 28.2881 35.8507Z" fill="#F0C970"/>
<path d="M12.5862 27.0338C12.7293 27.6574 12.8673 28.2861 13.0104 28.9097C13.0769 29.201 13.1433 29.4872 13.2047 29.7786C13.2353 29.9166 13.2149 29.983 13.0411 29.9319C12.5453 29.7888 12.0444 29.661 11.5435 29.523C11.4566 29.4975 11.3493 29.4821 11.4157 29.339C11.7786 28.5672 12.1466 27.7903 12.5095 27.0185C12.5402 27.0236 12.5658 27.0287 12.5862 27.0338Z" fill="#F0C970"/>
</svg>
