<svg width="48" height="48" viewBox="0 0 48 48" fill="none" xmlns="http://www.w3.org/2000/svg">
<path d="M0 24C0 10.7452 10.7452 0 24 0C37.2548 0 48 10.7452 48 24C48 37.2548 37.2548 48 24 48C10.7452 48 0 37.2548 0 24Z" fill="white"/>
<path d="M21.095 6.54547V18.1777L15.2727 24V12.3678L21.095 6.54547Z" fill="#242828"/>
<path d="M38.5496 29.8223C38.5496 36.2431 33.3382 41.4545 26.9174 41.4545C20.4841 41.4545 15.2727 36.2431 15.2727 29.8223V24H21.095V29.8223C21.095 33.039 23.7008 35.6447 26.9174 35.6447C30.134 35.6447 32.7397 33.039 32.7397 29.8223H38.5496Z" fill="#242828"/>
<path d="M38.5496 18.1777L32.7272 24H15.2727L21.095 18.1777H38.5496Z" fill="#00E8B5"/>
</svg>
