<svg width="48" height="48" viewBox="0 0 48 48" fill="none" xmlns="http://www.w3.org/2000/svg">
<path d="M0 24C0 10.7452 10.7452 0 24 0C37.2548 0 48 10.7452 48 24C48 37.2548 37.2548 48 24 48C10.7452 48 0 37.2548 0 24Z" fill="white"/>
<g clip-path="url(#clip0_2_12956)">
<path d="M29.0485 11C30.2474 11.5755 31.619 12.1318 32.9043 12.7073C34.0169 13.2061 35.1391 13.6761 36.2613 14.1652C36.4148 14.2324 36.597 14.2707 36.7121 14.4242C36.7409 14.4817 36.7505 14.5489 36.7025 14.5968C36.2901 15.0668 35.9064 15.556 35.3405 15.8725C35.1871 15.9013 35.0432 15.9397 34.8993 15.9876C33.1345 16.3041 31.3504 16.5535 29.576 16.8125C27.5618 17.1098 25.5571 17.4551 23.5429 17.7237C23.4566 17.7237 23.3798 17.7333 23.2935 17.7237C20.9148 17.4072 18.5361 17.0043 16.1574 16.6494C14.6899 16.4288 13.2319 16.1986 11.7644 15.9972C11.7165 15.9876 11.6685 15.978 11.6205 15.9588C11.141 15.4985 10.7093 14.9997 10.3257 14.453C10.9875 14.0693 11.6493 13.8007 12.3207 13.4938C13.9417 12.7457 17.6153 11.0575 17.6728 11C21.4615 11 25.2598 11 29.0485 11Z" fill="#5FC8FE"/>
<path d="M26.0655 39.3719C25.4228 40.1392 24.7994 40.9161 24.1376 41.6643C23.7443 42.1151 23.0921 42.1055 22.7084 41.6547C22.0658 40.9065 21.4519 40.1392 20.8285 39.3719C20.6079 38.6813 20.3873 37.9907 20.1667 37.2905C19.054 33.828 17.951 30.3558 16.8288 26.8837C16.7712 26.7014 16.6849 26.5288 16.7616 26.3274C16.8096 26.241 16.8959 26.2218 16.9822 26.2218C17.2892 26.2027 17.5865 26.2123 17.8839 26.2218C21.6533 26.2698 25.4132 26.0492 29.1827 26.1259C29.4513 26.1355 29.7199 26.1067 29.9884 26.1835C30.046 26.2027 30.0844 26.2314 30.1227 26.2794C30.2474 26.5959 30.1035 26.8741 30.0076 27.1522C29.3842 29.0609 28.7799 30.9697 28.166 32.8784C27.5714 34.7392 26.9479 36.5999 26.3724 38.4703C26.2861 38.7868 26.1422 39.065 26.0655 39.3719Z" fill="#75CCFE"/>
<path d="M26.0657 39.3719C25.9026 39.2376 26.0273 39.1129 26.0752 38.9882C27.0152 36.0532 27.9648 33.1278 28.9048 30.1927C29.3076 28.9266 29.7105 27.651 30.1133 26.3849C30.1613 26.2698 30.2092 26.1643 30.3243 26.0971C31.7822 25.4161 33.2785 24.8214 34.746 24.1884C36.5972 23.3923 38.4676 22.6058 40.3283 21.8097C40.5393 21.7234 40.7504 21.5507 40.9997 21.7042C40.9134 21.9919 40.6832 22.1742 40.501 22.3948C35.686 28.0538 30.8806 33.7128 26.0657 39.3719Z" fill="#00AAF6"/>
<path d="M16.8096 26.3848C17.7112 29.2239 18.6224 32.0534 19.524 34.8926C19.9556 36.245 20.3968 37.607 20.8188 38.969C20.8572 39.1033 21.0203 39.2471 20.8284 39.391C16.0326 33.6552 11.2464 27.9195 6.45064 22.1741C6.30677 22.0015 6.14371 21.848 6.10535 21.6178C6.2684 21.4739 6.43146 21.5603 6.59452 21.637C9.93239 23.1237 13.2799 24.6104 16.6177 26.1067C16.7424 26.145 16.7712 26.2697 16.8096 26.3848Z" fill="#00AAF6"/>
<path d="M40.9996 21.7041C39.8486 22.0878 38.7744 22.6249 37.6617 23.0853C35.2063 24.1116 32.7508 25.1571 30.2954 26.1834C30.1515 25.982 30.305 25.8189 30.3817 25.6559C31.6958 22.999 32.9523 20.3038 34.2951 17.6565C34.5349 17.1865 34.7075 16.6877 34.9569 16.2273C35.024 16.1026 35.0432 15.9875 34.9761 15.8629C35.0816 15.7382 35.2255 15.7861 35.3502 15.7765C36.6163 16.8028 37.6905 18.021 38.8415 19.1624C39.4458 19.757 40.0788 20.3038 40.6831 20.8888C40.8461 21.0423 40.99 21.215 41.0955 21.4164C41.0955 21.5219 41.1243 21.637 40.9996 21.7041Z" fill="#47BFFE"/>
<path d="M16.6274 26.1835C15.3709 25.7231 14.1815 25.1284 12.9634 24.5913C10.7957 23.6321 8.63758 22.6634 6.46988 21.6946C6.35478 21.6467 6.23968 21.5795 6.1054 21.6083C5.95194 21.3781 5.97112 21.1479 6.14377 20.9369C6.32601 20.8601 6.43152 20.6875 6.55621 20.5532C8.02372 19.0186 9.61592 17.6086 11.1122 16.1027C11.2273 15.9876 11.3328 15.815 11.5438 15.8725C11.5822 15.8725 11.6206 15.8821 11.6589 15.8821C11.7932 15.9588 11.8699 16.0643 11.9371 16.1986C12.9826 18.2704 13.9801 20.3614 14.9872 22.4523C15.4956 23.4978 16.0231 24.5241 16.5219 25.5696C16.6274 25.7614 16.7904 25.9533 16.6274 26.1835Z" fill="#6CCCFE"/>
<path d="M41.0956 21.4164C40.0021 20.4477 38.9662 19.4309 37.9304 18.4046C37.1343 17.6085 36.3861 16.7645 35.5037 16.0547C35.4174 15.9876 35.3502 15.8917 35.3502 15.767C35.8298 15.3449 36.2998 14.9229 36.7026 14.4146C36.8849 14.5009 36.9616 14.6831 37.0671 14.8366C38.3044 16.7357 39.5417 18.6348 40.7791 20.534C40.9517 20.8121 41.1627 21.0615 41.0956 21.4164Z" fill="#009DE8"/>
<path d="M11.5439 15.8724C9.91329 17.455 8.27313 19.0377 6.64256 20.6203C6.49869 20.7546 6.38359 20.9656 6.1438 20.9368C7.5058 18.7595 8.86781 16.5726 10.3257 14.4529C10.8149 14.8557 11.2465 15.3065 11.5439 15.8724Z" fill="#00AAF6"/>
<path d="M30.0844 26.2986C27.8591 26.2986 25.6243 26.2122 23.3991 26.3178C21.4136 26.4041 19.4185 26.3369 17.4331 26.3849C17.2508 26.3849 17.0494 26.4616 16.896 26.289C16.7713 26.0204 17.0111 25.8765 17.1262 25.7135C18.7567 23.5554 20.3489 21.3685 21.9699 19.2104C22.2768 18.8075 22.5646 18.3855 22.8715 17.9731C22.9866 17.8196 23.1209 17.6853 23.2935 17.599C23.3607 17.599 23.4278 17.599 23.495 17.599C23.9937 18.0498 24.339 18.6349 24.7515 19.1528C26.4684 21.3589 28.1565 23.5937 29.8734 25.8094C29.9789 25.9437 30.1707 26.0684 30.0844 26.2986Z" fill="#52C2FE"/>
<path d="M30.0845 26.2985C28.2237 23.8719 26.3533 21.4548 24.5022 19.0185C24.1569 18.5581 23.7348 18.1457 23.5046 17.599C24.8762 17.3879 26.2478 17.1865 27.6194 16.9755C29.2116 16.7357 30.8038 16.4959 32.396 16.2561C33.2593 16.1314 34.1129 15.9972 34.9762 15.8629C35.216 15.8437 35.2352 15.9396 35.1392 16.141C34.9666 16.4863 34.8227 16.8316 34.6597 17.1769C33.6621 19.2007 32.6646 21.2246 31.6767 23.258C31.2067 24.2267 30.7559 25.2147 30.3051 26.193C30.2475 26.2602 30.1804 26.3177 30.1228 26.3848C30.1037 26.3561 30.0941 26.3273 30.0845 26.2985Z" fill="#00AFFD"/>
<path d="M23.2935 17.5991C21.2026 20.4094 19.1116 23.2198 17.0206 26.0301C16.9631 26.1068 16.9343 26.1932 16.8959 26.2795C16.8672 26.3083 16.8384 26.3466 16.8096 26.3754C16.7521 26.3083 16.6849 26.2411 16.6274 26.1836C16.637 26.0013 16.5411 25.8479 16.4643 25.6944C15.4476 23.6226 14.4309 21.5604 13.4142 19.4886C12.8195 18.2897 12.244 17.0812 11.6589 15.8822C12.9058 15.9877 14.1336 16.2083 15.3709 16.4001C17.1645 16.6687 18.9677 16.9469 20.7614 17.2154C21.6054 17.3401 22.4495 17.4744 23.2935 17.5991Z" fill="#B3E2F9"/>
</g>
<defs>
<clipPath id="clip0_2_12956">
<rect width="35.1052" height="31" fill="white" transform="translate(6 11)"/>
</clipPath>
</defs>
</svg>
