<svg width="48" height="48" viewBox="0 0 48 48" fill="none" xmlns="http://www.w3.org/2000/svg">
<path d="M24 48C37.2548 48 48 37.2548 48 24C48 10.7452 37.2548 0 24 0C10.7452 0 0 10.7452 0 24C0 37.2548 10.7452 48 24 48Z" fill="white"/>
<path d="M24.3684 18.1498C20.9596 18.1498 17.5508 18.1498 14.188 18.1498C13.451 18.1498 13.2206 17.9194 13.1746 17.2285C12.9903 14.9713 12.76 12.668 12.4836 10.4108C12.3915 9.67376 12.6218 9.4895 13.3128 9.53557C14.3723 9.58163 15.3857 9.58163 16.4452 9.53557C16.9519 9.53557 17.1822 9.71983 17.2744 10.2265C17.4126 11.0557 17.3204 12.1613 17.9193 12.6219C18.5642 13.1287 19.6237 12.7601 20.4989 12.7601C22.1112 12.7601 21.8348 13.0365 22.2034 11.3321C22.5719 9.53557 22.5719 9.53557 24.3684 9.53557C26.5335 9.53557 26.5796 9.53557 26.9481 11.6546C27.0863 12.5298 27.4087 12.8983 28.33 12.8062C29.2974 12.7141 30.3108 12.7601 31.2782 12.8062C31.7389 12.8062 31.9692 12.668 32.0153 12.2074C32.0153 12.1613 32.0153 12.0692 32.0613 12.0231C32.2916 11.24 32.0613 9.95015 32.7523 9.67376C33.7657 9.30524 35.0095 9.53557 36.1611 9.4895C36.5757 9.4895 36.5297 9.76589 36.4836 10.0423C36.2533 12.5298 35.9769 15.0634 35.7465 17.5509C35.7005 18.1958 35.2859 18.1498 34.8252 18.1498C31.3243 18.1498 27.8233 18.1498 24.3684 18.1498Z" fill="black"/>
<path d="M34.4566 19.7621C31.1399 19.8081 27.7772 19.7621 24.4605 19.7621C21.1438 19.7621 17.8731 19.8081 14.5564 19.7621C13.7273 19.7621 13.4969 19.9463 13.5891 20.7755C14.0497 25.2899 14.4182 29.8043 14.8328 34.3187C14.8789 34.7333 15.0632 35.0557 15.3396 35.3321C18.1956 37.8196 21.0516 40.3072 23.9077 42.7947C24.2762 43.1171 24.5526 43.2093 24.9672 42.8407C27.8232 40.3072 30.6793 37.8196 33.5353 35.3321C33.8578 35.0557 34.042 34.7793 34.0881 34.3647C34.5027 29.7582 34.9173 25.1978 35.3319 20.5912C35.3779 19.9463 35.1476 19.7621 34.4566 19.7621ZM22.3415 37.2668C22.3415 37.359 22.2954 37.4511 22.2033 37.6814C20.6371 36.2073 19.0708 34.8254 17.5507 33.4434C17.3204 33.2131 17.3664 32.8907 17.3204 32.6143C17.09 29.8043 16.8597 26.9482 16.5833 24.1383C16.5372 23.5394 16.5833 23.2169 17.3204 23.263C18.7484 23.3091 20.1764 23.3091 21.6505 23.263C22.1111 23.263 22.3875 23.3091 22.3875 23.9079C22.3415 28.2841 22.3415 32.7985 22.3415 37.2668ZM32.2916 23.8619C32.0152 26.81 31.7848 29.7582 31.5085 32.7525C31.5085 33.0288 31.4624 33.2592 31.2781 33.4895C29.804 34.8254 28.376 36.1613 26.7177 37.6814C26.7177 32.8907 26.7177 28.3763 26.7177 23.8619C26.7177 23.4012 26.9019 23.2169 27.3626 23.263C28.8367 23.263 30.3108 23.263 31.7848 23.263C32.2916 23.1709 32.3376 23.4012 32.2916 23.8619Z" fill="black"/>
</svg>
