<svg width="48" height="48" viewBox="0 0 48 48" fill="none" xmlns="http://www.w3.org/2000/svg">
<circle cx="24" cy="24" r="24" fill="#178DD0"/>
<path d="M11.4287 10.6338C11.4287 9.41496 12.3821 8.41134 13.5999 8.35985C16.2691 8.24698 20.8544 8.07642 24.1906 8.07642C27.5269 8.07642 32.1122 8.24698 34.7813 8.35985C35.9991 8.41134 36.9525 9.41496 36.9525 10.6338V14.4714C36.9525 15.6903 35.9991 16.6939 34.7813 16.7454C32.1122 16.8582 27.5269 17.0288 24.1906 17.0288C20.8544 17.0288 16.2691 16.8582 13.5999 16.7454C12.3821 16.6939 11.4287 15.6903 11.4287 14.4714V10.6338Z" fill="white"/>
<path d="M11.4638 23.9493C11.5451 23.1284 12.2734 22.5332 13.0952 22.6047L16.5536 22.9054C18.7191 23.0937 20.3811 24.9065 20.3811 27.0801V37.3335C20.3811 38.1751 19.6989 38.8573 18.8573 38.8573H13.6589C12.4968 38.8573 11.5207 37.9859 11.4128 36.8288C11.2466 35.0455 11.0414 32.4361 11.0478 30.4763C11.0544 28.4272 11.2969 25.6352 11.4638 23.9493Z" fill="white"/>
<path d="M36.1554 23.9495C36.0741 23.1286 35.3458 22.5334 34.524 22.6048L31.0656 22.9055C28.9002 23.0938 27.2382 24.9066 27.2382 27.0803V37.3336C27.2382 38.1752 27.9204 38.8574 28.762 38.8574H33.9604C35.1225 38.8574 36.0986 37.986 36.2064 36.8289C36.3727 35.0456 36.5778 32.4363 36.5715 30.4765C36.5649 28.4273 36.3224 25.6353 36.1554 23.9495Z" fill="white"/>
</svg>
