<svg width="48" height="48" viewBox="0 0 48 48" fill="none" xmlns="http://www.w3.org/2000/svg">
<circle cx="24" cy="24" r="24" fill="#FF060A"/>
<path d="M37.6464 19.4353C36.364 18.2234 34.5902 16.3728 33.1454 15.0603L33.0599 14.9991C32.9177 14.8822 32.7573 14.7905 32.5855 14.7278C29.1019 14.0628 12.8891 10.961 12.5728 11.0004C12.4841 11.0131 12.3994 11.046 12.3249 11.0966L12.2436 11.1622C12.1436 11.2662 12.0677 11.3918 12.0214 11.5297L12 11.5866V11.8972V11.9454C13.8252 17.1472 21.0318 34.1876 22.4509 38.1863C22.5364 38.4575 22.6988 38.9738 23.0023 39H23.0707C23.2331 39 23.9256 38.0638 23.9256 38.0638C23.9256 38.0638 36.3042 22.699 37.5566 21.0627C37.7187 20.8612 37.8618 20.6444 37.984 20.4152C38.0152 20.236 38.0005 20.0515 37.9414 19.8797C37.8822 19.708 37.7805 19.5549 37.6464 19.4353ZM27.1014 21.2246L32.3846 16.7403L35.4835 19.6628L27.1014 21.2246ZM25.0497 20.9315L15.9538 13.3016L30.6706 16.0797L25.0497 20.9315ZM25.8704 22.9308L35.18 21.3952L24.5368 34.5201L25.8704 22.9308ZM14.7185 14.0628L24.2889 22.3752L22.904 34.5288L14.7185 14.0628Z" fill="black"/>
</svg>
