<svg width="48" height="48" viewBox="0 0 48 48" fill="none" xmlns="http://www.w3.org/2000/svg">
<path d="M47.0557 18.8534C47.0557 18.8008 47.0032 18.8008 47.0032 18.8008C47.0557 18.8008 47.0557 18.8008 47.0557 18.8534Z" fill="url(#paint0_linear_2_10537)"/>
<path d="M40.3409 6.407C39.1344 7.08972 34.7278 7.29978 34.4131 7.40481C33.9934 7.50985 26.0721 7.50985 25.9147 7.40481C25.8098 7.3523 24.6557 6.56455 24.1311 6.19694C23.9737 6.0919 23.9213 6.03939 23.9213 6.03939C23.9213 6.03939 24.7082 5.82932 25.8622 5.51422C28.8 4.77899 34.2032 3.41357 35.2 3.57112C35.8295 3.67615 36.7213 3.8337 37.6131 4.1488C37.9803 4.41138 38.3475 4.67396 38.7147 4.93654C39.1868 5.30416 39.6065 5.67177 40.0262 6.03939C40.1311 6.19694 40.236 6.30197 40.3409 6.407Z" fill="url(#paint1_linear_2_10537)"/>
<path d="M0.735198 18.1182C7.71225 16.7528 14.6893 15.0723 21.7188 13.8644C28.8008 12.6565 36.9844 11.1335 44.4336 11.9213C44.5385 11.9213 44.6434 11.9213 44.7483 11.9738C44.9057 12.2889 45.1155 12.604 45.2729 12.9191C46.4795 15.2298 47.3188 17.6981 47.686 20.3764C47.7385 20.7966 47.7909 21.2692 47.8434 21.6893C47.5811 22.0044 47.2663 22.3195 47.004 22.6346C45.9024 22.5821 44.8532 22.5821 43.7516 22.6346C43.6467 22.6346 43.4893 22.6346 43.3844 22.6871C42.2827 20.0613 36.3549 20.744 33.7844 21.1642C30.6893 21.5843 27.5942 22.1095 24.4991 22.6871C24.2368 22.7397 23.9221 22.7922 23.6598 22.8447C22.086 23.1073 20.4598 23.4224 18.886 23.685C12.1188 24.8403 7.08274 25.8906 2.99094 26.4683C2.93848 26.2057 2.83356 25.9957 2.7811 25.7331C2.67618 25.3655 2.57126 24.9453 2.41389 24.5777C2.25651 24.1576 2.15159 23.7375 1.99421 23.3173C1.67946 22.4771 1.41717 21.5843 1.15487 20.744C0.945034 20.1138 0.787657 19.4836 0.682739 18.8534" fill="url(#paint2_linear_2_10537)"/>
<path d="M38.6623 4.98906C34.6754 4.04376 30.3213 4.72648 26.2295 5.72429C25.5476 5.88184 24.8131 6.0919 24.1312 6.24945C23.2918 6.45952 22.4525 6.66958 21.6656 6.93217C18.9377 7.6674 16.2098 8.50766 13.482 9.19037C11.8033 9.6105 9.91476 10.2932 8.13116 10.0832C7.13443 9.97812 5.87542 9.71554 5.14099 9.19037C7.76394 5.82932 11.2787 3.2035 15.3705 1.62801C18.0459 0.57768 20.9836 0 24.0262 0C29.0623 0 33.7312 1.57549 37.6131 4.20131C37.9803 4.46389 38.2951 4.72648 38.6623 4.98906Z" fill="url(#paint3_linear_2_10537)"/>
<path d="M43.0689 38.547C42.282 39.5973 41.4427 40.5426 40.4984 41.4354C39.5542 42.3282 38.5574 43.1159 37.5083 43.8512C35.305 45.3742 32.8394 46.477 30.2164 47.2122C29.9017 47.3173 29.5869 47.3698 29.2722 47.4223C27.5935 47.7899 25.8099 48 23.9738 48C21.5607 48 19.2525 47.6324 17.0492 47.0022C16.5771 46.8446 16.105 46.6871 15.6853 46.5295C13.9017 45.8468 12.223 45.0065 10.6492 43.9562C10.0722 43.5361 9.49514 43.1159 8.91809 42.6958C9.02301 42.7483 9.12793 42.7483 9.23285 42.8008C13.2722 43.7987 17.6787 43.1159 21.8755 42.1181C23.4492 41.7505 25.023 41.2779 26.4919 40.9103C29.2197 40.175 31.9476 39.2822 34.7279 38.547C36.4066 38.0744 38.3476 37.4442 40.0787 37.6542C40.4984 37.7067 40.9181 37.7593 41.3902 37.8643C42.0197 38.0218 42.6492 38.2319 43.0689 38.547Z" fill="#61C0E2"/>
<path d="M24.2885 22.6346C24.0787 22.6871 23.8688 22.7922 23.659 22.8447C23.6066 22.8447 23.5541 22.8447 23.5541 22.8972C19.5672 24.1576 15.5279 25.3129 11.4361 26.1532C8.65574 26.7309 5.77049 27.3611 2.9377 26.5733C1.94098 26.3108 0.944262 25.8381 0.052459 25.1554C0.052459 24.7878 0 24.3676 0 24C0 22.2145 0.209836 20.4289 0.577049 18.7484C0.629508 18.5383 0.681967 18.3283 0.734426 18.1182C1.04918 18.0132 1.31148 17.9606 1.62623 17.8556C5.82295 16.9628 10.3869 18.0657 14.3738 19.3786C17.6262 20.4289 20.9311 21.5843 24.2885 22.6346Z" fill="url(#paint4_linear_2_10537)"/>
<path d="M47.895 21.6368C47.9475 22.4245 47.9999 23.1597 47.9999 23.9475C47.9999 24.9453 47.9475 25.8906 47.8426 26.8359C47.2655 26.9409 46.636 26.9409 46.0065 26.8884C38.6622 26.4158 31.5278 24.7352 24.4983 22.6346C24.4458 22.6346 24.3409 22.5821 24.2885 22.5821C24.4983 22.5295 24.6557 22.477 24.8655 22.372C29.7442 20.6915 34.6229 18.6433 39.7639 18.2232C42.0196 18.0131 44.5376 18.1182 46.5835 19.326C46.8983 19.5361 47.3704 19.8512 47.7376 20.2713C47.7901 20.7965 47.8426 21.2166 47.895 21.6368Z" fill="url(#paint5_linear_2_10537)"/>
<path d="M47.2657 29.9344C46.4788 33.1379 45.0099 36.0263 43.069 38.5471C42.2821 39.5974 41.4427 40.5427 40.4985 41.4355C40.8657 40.8578 41.128 40.3326 41.3378 39.8075C41.4952 39.3348 41.6526 38.8622 41.5476 38.3895C41.4952 38.1795 41.4427 38.0219 41.3903 37.8644C40.3935 35.6062 36.3542 36.2364 34.5706 36.604C30.9509 37.3392 27.3837 38.232 23.8165 39.0722C16.6296 40.8053 12.1181 42.2232 8.55092 42.3808C6.24272 40.4377 4.30174 38.0219 2.83289 35.2911C4.30174 35.081 6.08535 34.7659 8.18371 34.1882C14.1116 32.6652 19.9345 30.7747 25.8624 29.3567C31.3706 28.0438 37.8231 26.3633 43.4886 27.6762C45.0624 28.0438 46.3214 28.8315 47.2657 29.9344Z" fill="url(#paint6_linear_2_10537)"/>
<path d="M37.5082 43.8512C35.3049 45.3742 32.8393 46.477 30.2164 47.2123C29.9016 47.3173 29.5869 47.3698 29.2721 47.4223L17.1016 47.0022C16.6295 46.8447 16.1573 46.6871 15.7377 46.5296C17.836 46.3195 20.4065 45.9519 23.2918 45.3217C24.0787 45.1641 24.918 44.9541 25.8098 44.6915C32.1573 43.011 35.8295 42.6959 37.5082 43.8512Z" fill="url(#paint7_linear_2_10537)"/>
<path d="M30.2164 47.2123C29.9016 47.3173 29.5869 47.3699 29.2721 47.4224C27.5934 47.79 25.8098 48.0001 23.9738 48.0001C21.5606 48.0001 19.2524 47.6324 17.0492 47.0022C16.577 46.8447 16.1049 46.6871 15.6852 46.5296C13.9016 45.8469 12.2229 45.0066 10.6492 43.9563C12.7475 43.5887 16.5246 43.6937 23.2393 45.3217C25.2852 45.7944 27.5934 46.4246 30.2164 47.2123Z" fill="url(#paint8_linear_2_10537)"/>
<path d="M44.7475 11.9738C44.9049 12.2889 45.1147 12.604 45.2721 12.9191C45.0098 12.5515 44.695 12.2364 44.4327 11.9213C37.2983 4.56898 23.2393 9.55804 20.7737 10.1357C18.0983 10.7659 7.97374 13.9169 1.99341 14.337C2.83275 12.4464 3.88193 10.7134 5.14095 9.08539C7.7639 5.72434 11.2787 3.09852 15.3705 1.52303C18.0983 2.4158 20.7737 3.51865 23.2393 4.56898C24.0787 4.93659 24.9705 5.25169 25.8098 5.51427C25.9672 5.56679 26.0721 5.61931 26.2295 5.61931C28.7475 6.40705 31.3705 6.8797 34.0983 6.8797C35.8295 6.8797 38.3475 6.93222 40.0262 6.03944C40.1311 6.14447 40.236 6.2495 40.3934 6.35454C42.0721 8.03506 43.5934 9.92565 44.7475 11.9738Z" fill="url(#paint9_linear_2_10537)"/>
<defs>
<linearGradient id="paint0_linear_2_10537" x1="47.0479" y1="18.8271" x2="47.078" y2="18.8271" gradientUnits="userSpaceOnUse">
<stop offset="0.1465" stop-color="#565656"/>
<stop offset="0.5304" stop-color="#5E5E5E"/>
</linearGradient>
<linearGradient id="paint1_linear_2_10537" x1="23.9213" y1="5.5211" x2="40.3632" y2="5.5211" gradientUnits="userSpaceOnUse">
<stop offset="0.211" stop-color="#61BFE1"/>
<stop offset="0.9997" stop-color="#736C94"/>
</linearGradient>
<linearGradient id="paint2_linear_2_10537" x1="-10.6006" y1="19.0864" x2="47.875" y2="19.0864" gradientUnits="userSpaceOnUse">
<stop offset="0.3795" stop-color="#078B7B"/>
<stop offset="0.9091" stop-color="#4DB0B7"/>
</linearGradient>
<linearGradient id="paint3_linear_2_10537" x1="5.14099" y1="5.06122" x2="38.6623" y2="5.06122" gradientUnits="userSpaceOnUse">
<stop stop-color="#F1E931"/>
<stop offset="0.1119" stop-color="#ECE735"/>
<stop offset="0.2515" stop-color="#DCE242"/>
<stop offset="0.4059" stop-color="#C3D957"/>
<stop offset="0.571" stop-color="#9FCD74"/>
<stop offset="0.7427" stop-color="#72BD99"/>
<stop offset="0.8663" stop-color="#4DB0B7"/>
</linearGradient>
<linearGradient id="paint4_linear_2_10537" x1="0.274256" y1="22.2737" x2="48.8685" y2="21.927" gradientUnits="userSpaceOnUse">
<stop stop-color="#61BFE1"/>
<stop offset="0.0931388" stop-color="#63B4D7"/>
<stop offset="0.2566" stop-color="#6A97BC"/>
<stop offset="0.4519" stop-color="#736C94"/>
</linearGradient>
<linearGradient id="paint5_linear_2_10537" x1="46.2998" y1="22.3225" x2="17.478" y2="24.8293" gradientUnits="userSpaceOnUse">
<stop stop-color="#804C88"/>
<stop offset="0.2619" stop-color="#6C5F8B"/>
<stop offset="0.658" stop-color="#51788F"/>
<stop offset="0.8911" stop-color="#61C1E3"/>
</linearGradient>
<linearGradient id="paint6_linear_2_10537" x1="2.83289" y1="34.7904" x2="47.2657" y2="34.7904" gradientUnits="userSpaceOnUse">
<stop stop-color="#F1E931"/>
<stop offset="0.1373" stop-color="#EDE834"/>
<stop offset="0.2777" stop-color="#E1E33E"/>
<stop offset="0.4194" stop-color="#CCDC4F"/>
<stop offset="0.5622" stop-color="#AFD267"/>
<stop offset="0.7058" stop-color="#8AC585"/>
<stop offset="0.8481" stop-color="#5EB6A9"/>
<stop offset="0.8963" stop-color="#4DB0B7"/>
</linearGradient>
<linearGradient id="paint7_linear_2_10537" x1="15.6949" y1="45.2931" x2="37.4907" y2="45.2931" gradientUnits="userSpaceOnUse">
<stop offset="0.2004" stop-color="#F1E931"/>
<stop offset="0.9285" stop-color="#4DB0B7"/>
</linearGradient>
<linearGradient id="paint8_linear_2_10537" x1="10.674" y1="45.8907" x2="30.1913" y2="45.8907" gradientUnits="userSpaceOnUse">
<stop stop-color="#804C88"/>
<stop offset="0.2619" stop-color="#6C5F8B"/>
<stop offset="0.658" stop-color="#51788F"/>
<stop offset="0.8911" stop-color="#61C1E3"/>
</linearGradient>
<linearGradient id="paint9_linear_2_10537" x1="23.6328" y1="0.982264" x2="23.6328" y2="17.7338" gradientUnits="userSpaceOnUse">
<stop offset="0.1684" stop-color="#44518C"/>
<stop offset="0.9831" stop-color="#008181"/>
</linearGradient>
</defs>
</svg>
