<svg width="48" height="48" viewBox="0 0 48 48" fill="none" xmlns="http://www.w3.org/2000/svg">
<g clip-path="url(#clip0_2_9801)">
<path d="M7.43246 41.2546C4.82811 38.8857 2.92494 35.9949 1.70291 32.7226C-1.4824 24.0501 -0.220299 15.9598 5.50925 8.73265C9.33563 3.91458 14.4642 1.02374 20.6144 0.22073C31.6528 -1.20462 41.369 4.25586 45.9967 14.3939C46.3573 15.1768 46.6779 15.9798 46.8582 16.8431C46.3573 17.2646 45.7363 17.2044 45.1553 17.3048C41.389 17.9874 37.7029 18.971 34.0969 20.2759C33.8765 20.3562 33.6361 20.3964 33.4959 20.5971C33.0151 21.0589 32.374 20.9786 31.8131 21.099C29.2488 21.621 26.9249 22.6047 24.8615 24.2107C24.3807 24.572 24.0201 25.0739 23.5393 25.4353C22.8181 25.8167 22.177 26.3387 21.4759 26.7402C21.1553 26.9209 20.7947 27.222 20.4742 26.7201C20.354 26.439 20.354 26.1379 20.354 25.8368C20.334 25.094 20.6144 24.6122 21.4358 24.5921C22.157 24.552 22.6378 24.1705 22.9784 23.4679C22.4375 23.3073 21.9366 23.3876 21.4558 23.3675C20.7747 23.3274 20.4141 23.0262 20.374 22.3236C20.374 22.0827 20.354 21.8619 20.354 21.621C20.374 20.4365 20.5944 20.2157 21.7563 20.1756C22.758 20.1555 23.7597 20.1756 24.7413 20.1756C25.5026 20.1756 25.9633 19.8343 26.2438 19.0714C25.5226 18.8907 24.8615 18.9911 24.2004 18.971C22.738 18.951 21.2755 18.971 19.8131 18.971C18.3907 18.971 18.3507 19.0112 18.3507 20.4165C18.3507 22.7452 18.3507 25.094 18.3507 27.4227C18.3507 27.8845 18.3707 28.3663 18.2906 28.828C17.9099 29.8318 16.9683 30.2935 16.2271 30.9359C12.9416 33.7866 10.2171 37.1191 7.87319 40.7728C7.71292 40.8932 7.63279 41.1342 7.43246 41.2546Z" fill="#5600A5"/>
<path d="M43.3724 38.0827C41.4892 40.8331 39.0852 43.0012 36.2204 44.6474C35.2588 44.5068 34.3573 44.2258 33.536 43.6837C31.7931 42.5395 31.3123 40.8933 31.6729 38.9259C31.9533 38.4441 31.9133 37.6812 32.7346 37.6411C35.359 37.9422 37.9834 37.9422 40.5877 37.4805C41.2088 37.36 41.8097 37.1593 42.4508 37.1191C43.0118 37.1392 43.2722 37.5407 43.3724 38.0827Z" fill="#00F3FB"/>
<path d="M18.0102 47.1366C17.289 47.0563 16.5878 46.8957 15.9668 46.5344C17.6897 39.3876 21.9768 34.1479 28.0269 30.2332C28.3274 30.0325 28.708 29.9321 28.8683 29.5707C28.8883 29.3098 28.668 29.0689 28.8082 28.7878C28.9885 28.567 29.1888 28.5068 29.4493 28.6071C29.6095 28.7276 29.7097 28.9083 29.7898 29.0889C29.9301 29.4704 30.0703 29.8518 30.0503 30.2734C30.0503 30.434 30.0102 30.5745 29.9301 30.715C29.7097 31.0362 29.3691 31.1768 29.0686 31.3775C24.3207 34.5494 20.6145 38.5243 18.8516 44.1253C18.5311 45.109 18.5511 46.1931 18.0102 47.1366Z" fill="#0079D2"/>
<path d="M29.1888 29.4101C29.2489 29.7715 29.0285 29.9321 28.7481 30.1127C24.7614 32.4816 21.496 35.5732 19.092 39.528C17.89 41.4954 16.9083 43.5632 16.4476 45.8317C16.3875 46.1529 16.2873 46.3938 15.9668 46.5343C15.486 46.4741 15.0452 46.3135 14.6245 46.0525C14.3641 45.7313 14.5644 45.4101 14.6646 45.109C16.2673 40.1504 19.1721 36.0952 23.0586 32.6824C24.4409 31.4779 25.8232 30.2733 27.506 29.4904C28.0669 29.39 28.6279 29.3298 29.1888 29.4101Z" fill="#0069CD"/>
<path d="M18.0101 47.1367C18.2706 44.4466 19.132 41.9773 20.5143 39.6687C22.8181 35.8343 25.9233 32.823 29.8298 30.6549C30.2305 30.6749 30.1904 30.9761 30.2305 31.2371C30.2305 31.3977 30.1904 31.5583 30.1103 31.6988C28.8682 32.7828 27.4659 33.6862 26.2639 34.8305C23.1587 37.7615 20.9751 41.1944 20.2739 45.4704C20.1938 45.9924 20.0936 46.5143 20.0135 47.0363C19.9734 47.2571 19.9934 47.6185 19.5727 47.5181C19.0318 47.5382 18.531 47.3575 18.0101 47.1367Z" fill="#0087D7"/>
<path d="M19.5928 47.5181C20.0335 46.956 19.9133 46.2533 19.9934 45.6109C20.4542 42.158 22.0168 39.247 24.2005 36.6172C25.8632 34.6097 27.8065 32.9033 30.0903 31.6385C30.2105 31.6184 30.2906 31.6586 30.3507 31.759C30.4709 31.9999 30.4709 32.2609 30.4308 32.5218C30.3106 33.0839 29.8298 33.2847 29.4292 33.5858C26.5043 35.6937 24.2606 38.3637 22.9784 41.7565C22.3974 43.2822 22.0368 44.8681 22.0769 46.5344C22.0969 46.9961 22.1771 47.4779 21.8165 47.8593C21.0752 47.8393 20.314 47.759 19.5928 47.5181Z" fill="#0097DC"/>
<path d="M27.4257 29.651C25.3422 31.0763 23.3589 32.582 21.596 34.3888C18.3306 37.7213 15.9065 41.5356 14.6444 46.0324C14.1836 45.8317 13.7028 45.6108 13.2421 45.4101C12.9215 45.0086 13.1619 44.6272 13.3022 44.2859C15.1252 39.6886 17.9299 35.7539 21.6761 32.5218C23.0384 31.3373 24.3606 30.1328 25.9633 29.2696C26.4841 29.1893 27.025 29.1491 27.4257 29.651Z" fill="#1F59C7"/>
<path d="M21.8164 47.8593C21.556 44.045 22.6979 40.6523 24.9416 37.5808C26.2037 35.8342 27.7663 34.4289 29.5093 33.2044C29.7897 33.0036 30.1904 32.8832 30.2305 32.4415C30.3306 32.4013 30.4308 32.4013 30.5109 32.5017C30.571 32.582 30.6111 32.6824 30.6311 32.7828C30.6712 33.0438 30.6712 33.3047 30.6311 33.5657C30.5109 34.188 29.9901 34.4691 29.5493 34.8104C26.7446 37.0588 24.8615 39.8694 24.2204 43.4628C24.0001 44.6473 24.0802 45.8518 24.1804 47.0563C24.2204 47.4779 24.4007 48.0801 23.5794 47.9396C22.9984 47.8995 22.3974 47.8794 21.8164 47.8593Z" fill="#00A6E2"/>
<path d="M25.823 29.4705C24.5609 30.5947 23.1786 31.5382 21.8765 32.6424C20.2137 34.0677 18.7713 35.6336 17.4691 37.3601C15.7262 39.6486 14.2838 42.0978 13.3422 44.8481C13.2821 45.0288 13.2621 45.2296 13.222 45.4303C12.6411 45.2095 12.1202 44.8883 11.6394 44.4868C12.7412 41.3751 14.5843 38.7051 16.6277 36.1355C18.6912 33.5457 21.1152 31.3375 23.8197 29.4303C24.0801 29.2296 24.3606 29.0288 24.6811 28.9284C25.1419 28.9284 25.5826 28.9686 25.823 29.4705Z" fill="#3049C1"/>
<path d="M23.5795 47.9196C23.9601 47.8795 24.0402 47.6386 24.0002 47.2772C23.1788 41.7364 25.6028 37.6411 29.7498 34.3286C30.0703 34.0677 30.4109 33.887 30.4509 33.4253C30.5511 33.3851 30.6513 33.4253 30.7114 33.5056C30.8316 33.6862 30.8516 33.887 30.8716 34.1078C30.8716 34.2082 30.8716 34.3086 30.8716 34.429C30.8917 34.9911 30.511 35.3324 30.1304 35.6536C28.7481 36.9184 27.6062 38.3638 26.8449 40.1103C25.9033 42.2584 25.8633 44.4265 26.4442 46.6348C26.5444 47.0363 26.7648 47.4579 26.4242 47.8594C25.4826 47.8795 24.521 48.1003 23.5795 47.9196Z" fill="#00B6E7"/>
<path d="M24.6212 29.0889C22.7581 30.5343 20.8549 31.9195 19.2122 33.6058C16.2873 36.6372 13.7631 39.9496 12.1203 43.8844C12.0202 44.1253 11.9 44.3863 11.6395 44.4867C11.1788 44.306 10.738 44.0851 10.3975 43.7037C11.6996 40.592 13.6028 37.8618 15.7664 35.3122C17.8298 32.843 20.294 30.8154 22.8382 28.848C23.0786 28.6673 23.319 28.4867 23.5995 28.3863C24.0803 28.4264 24.4409 28.6272 24.6212 29.0889Z" fill="#3B39BC"/>
<path d="M26.4241 47.8594C26.2639 46.5143 25.7831 45.2496 25.8031 43.8644C25.8031 40.9936 27.0051 38.685 28.8081 36.6172C29.2488 36.1153 29.7096 35.6335 30.2305 35.232C30.571 34.971 30.6512 34.6699 30.6311 34.2885C30.8715 34.1881 31.0118 34.3286 31.1119 34.5294C31.0919 35.0714 31.3123 35.6134 31.1119 36.1755C30.6311 36.8581 30.0101 37.4001 29.5293 38.0827C27.7263 40.7527 27.566 43.503 29.0485 46.3537C29.2088 46.6749 29.4892 46.9761 29.2488 47.3575C28.3473 47.7188 27.3657 47.7389 26.4241 47.8594Z" fill="#00C5EC"/>
<path d="M23.6195 28.4866C21.9166 29.8919 20.1336 31.237 18.531 32.7426C16.5477 34.6096 14.8048 36.6774 13.2822 38.9659C12.4609 40.2106 11.6595 41.4753 11.0385 42.8405C10.8982 43.1617 10.7781 43.5431 10.3974 43.7037C10.0168 43.523 9.67621 43.2821 9.39575 42.9408C9.25551 42.1579 9.77638 41.6159 10.1169 41.0337C13.142 35.9948 17.1086 31.8191 21.8164 28.306C22.177 28.0249 22.5577 27.7238 23.0585 27.7238C23.4191 27.8643 23.7597 28.0048 23.6195 28.4866Z" fill="#4427B6"/>
<path d="M23.0585 27.8442C21.3556 28.7677 19.9132 30.0525 18.4909 31.3373C15.3857 34.1479 12.6411 37.2997 10.4775 40.9333C10.0969 41.5958 9.7563 42.2784 9.3957 42.9609C8.99504 42.7803 8.65447 42.5193 8.39403 42.1579C8.21373 41.8166 8.35397 41.5155 8.51423 41.2144C11.2187 36.6974 14.6244 32.8229 18.6511 29.4904C18.8314 29.3499 19.0318 29.2094 19.2321 29.1291C19.773 29.0086 20.4141 29.0287 20.4942 28.2458C21.1553 27.5632 21.8164 26.8606 22.8581 26.8405C23.0985 27.1416 23.2588 27.4628 23.0585 27.8442Z" fill="#4A13B0"/>
<path d="M29.2488 47.3575C29.1887 47.1969 29.1686 47.0162 29.0885 46.8957C26.6845 43.3223 27.7863 38.6649 31.0317 36.0751C31.3723 36.3763 31.4324 36.7979 31.4324 37.2194C31.4324 37.3198 31.3923 37.4202 31.3723 37.5206C30.7112 38.705 30.1102 39.8895 30.0701 41.3148C30.0301 42.8807 30.611 44.1454 31.6528 45.2496C31.9733 45.5908 32.4741 45.8518 32.4341 46.4541C31.3923 46.8957 30.3306 47.1969 29.2488 47.3575Z" fill="#00D5F1"/>
<path d="M32.4141 46.4541C32.1737 46.1931 31.9333 45.912 31.6729 45.6511C29.2889 43.242 29.1086 40.1705 31.2321 37.4804C31.6528 37.8618 31.8131 38.3437 31.8331 38.8857C31.9133 39.7288 31.6729 40.5921 32.0134 41.4352C32.6144 42.9007 33.6962 43.7439 35.1987 44.1253C35.5593 44.2257 36.0001 44.2458 36.2204 44.6272C35.0585 45.4503 33.7563 45.9923 32.4141 46.4541Z" fill="#00E4F7"/>
<path d="M19.2321 29.2898C17.5293 30.7352 15.8866 32.2208 14.364 33.8469C12.2004 36.1957 10.2772 38.7252 8.65452 41.4755C8.53432 41.6763 8.49425 41.9172 8.43415 42.138C8.05352 41.8971 7.71295 41.616 7.45251 41.2547C7.73298 40.0502 8.57438 39.1669 9.25552 38.2033C10.8782 35.8946 12.7213 33.7666 14.7847 31.8193C15.8265 30.8557 16.9483 29.9523 18.0101 29.0288C18.4308 28.9887 18.8715 28.9084 19.2321 29.2898Z" fill="#5100AB"/>
<path d="M33.4759 20.4766C33.2956 20.3562 33.3758 20.2558 33.536 20.1956C37.8633 18.5896 42.2706 17.3047 46.8582 16.8229C47.0586 16.9835 47.0385 17.2044 47.0185 17.4252C47.2188 18.168 46.5978 18.168 46.1971 18.2483C45.0953 18.4892 43.9734 18.6297 42.8716 18.8706C41.6095 19.1316 40.3274 19.4126 39.1053 19.7941C37.6429 20.2357 36.1604 20.5569 34.6379 20.6573C34.2372 20.6975 33.8365 20.7778 33.4759 20.4766Z" fill="#5100AB"/>
<path d="M47.8398 26.2584C47.8197 26.5194 47.7997 26.8005 47.7797 27.0614C47.6194 27.8644 46.9783 27.744 46.4374 27.7239C43.773 27.6838 41.1486 27.9046 38.5643 28.4868C38.0435 28.6072 37.5426 28.7277 37.0217 28.8883C36.6812 28.9887 36.5009 28.7879 36.3206 28.547C36.1803 28.2258 35.7997 27.9447 36.1202 27.5031C36.2204 27.4429 36.3206 27.4027 36.4408 27.3626C38.0635 27.0012 39.6261 26.4792 41.2688 26.1982C43.1119 25.8971 44.975 25.9171 46.8181 25.9171C47.1787 25.9774 47.5393 25.9774 47.8398 26.2584Z" fill="#0087D7"/>
<path d="M47.8397 26.2584C44.1536 26.0978 40.5275 26.399 37.0217 27.5633C36.7813 27.6436 36.5008 27.6236 36.2404 27.6637C36.2003 27.6035 36.1803 27.5433 36.1803 27.483C36.1803 27.4228 36.2003 27.3827 36.2003 27.3827C37.1619 26.7202 38.0234 25.877 39.1853 25.5357C41.7295 25.0539 44.2738 24.7528 46.8581 24.5721C47.2588 24.552 47.5793 24.271 48 24.2509C48 24.9335 48.0401 25.596 47.8397 26.2584Z" fill="#0079D2"/>
<path d="M36.8214 28.8681C37.4825 28.1253 38.4441 28.2859 39.2855 28.0852C41.7096 27.503 44.1737 27.4227 46.6378 27.4628C47.0585 27.4628 47.4992 27.5231 47.7797 27.0814C47.6995 27.6837 47.6995 28.306 47.4391 28.8882C47.0184 29.2295 46.4975 29.2094 46.0167 29.1291C43.6328 28.7677 41.2889 29.1492 38.945 29.5707C38.4642 29.651 37.9834 29.8116 37.4825 29.7113C37.182 29.631 36.9617 29.4704 36.8014 29.2094C36.7413 29.0689 36.7413 28.9685 36.8214 28.8681Z" fill="#0097DC"/>
<path d="M37.2821 29.4504C38.6844 29.4906 40.0066 28.9285 41.3889 28.8281C43.1118 28.7076 44.8146 28.5671 46.5375 28.8482C46.838 28.8883 47.1385 28.8682 47.439 28.8682C47.419 29.4304 47.2787 29.9724 47.0383 30.4743C46.237 30.7553 45.4757 30.3538 44.6744 30.3538C42.5509 30.3739 40.4273 30.3137 38.3238 30.6951C38.2236 30.6951 38.1034 30.675 38.0033 30.6549C37.6827 30.5546 37.5425 30.2735 37.3622 30.0527C37.2821 29.9523 37.2019 29.8319 37.1619 29.6913C37.1418 29.591 37.1819 29.5107 37.2821 29.4504Z" fill="#00A6E2"/>
<path d="M34.6178 20.3964C38.4842 19.9949 42.1103 18.3889 45.9968 18.0075C46.3774 17.9673 46.8983 17.9673 47.0185 17.4052C47.2589 17.9071 47.3991 18.4491 47.4191 19.0112C47.2989 19.1518 47.1587 19.2321 46.9984 19.2521C44.2138 19.6135 41.4692 20.1756 38.7447 20.8582C38.5443 20.8983 38.344 20.8983 38.1437 20.9184C37.2221 20.8782 36.3206 20.6775 35.3991 20.6975C35.1186 20.7377 34.8181 20.6775 34.6178 20.3964Z" fill="#4A13B0"/>
<path d="M38.0034 30.4741C40.7881 29.9522 43.5727 29.8919 46.3774 30.2734C46.5978 30.3135 46.8181 30.4139 47.0385 30.4741C47.0385 30.976 46.8382 31.4377 46.5978 31.8794C46.3173 32.1203 45.9767 32.1203 45.6562 32.04C43.4125 31.4377 41.1487 31.518 38.8649 31.6786C38.7046 31.6385 38.5443 31.5783 38.4041 31.4578C38.1437 31.1768 37.8832 30.8957 38.0034 30.4741Z" fill="#00B6E7"/>
<path d="M38.6446 31.4578C41.329 30.976 43.9735 31.3374 46.5978 31.8593C46.4376 32.5017 46.2573 33.1442 45.8766 33.6862C45.6563 33.7866 45.4159 33.7464 45.1955 33.6661C43.3725 32.9836 41.4893 32.7226 39.5461 32.6824C39.3257 32.6423 39.1254 32.5419 38.9651 32.4014C38.7447 32.1605 38.4643 31.8794 38.6446 31.4578Z" fill="#00C5EC"/>
<path d="M47.98 24.271C47.7797 24.4918 47.7597 24.8531 47.2989 24.8732C44.6946 25.0338 42.0902 25.1743 39.546 25.8368C39.3456 25.8971 39.1453 25.8368 39.0051 25.6562C38.985 24.9736 39.5059 24.7327 39.9667 24.4316C42.2505 23.6486 44.6545 23.5884 47.0385 23.3876C47.359 23.3676 47.6996 23.3876 47.96 23.6687C47.98 23.8494 47.98 24.0501 47.98 24.271Z" fill="#0069CD"/>
<path d="M39.4058 32.4816C41.6495 32.4013 43.8332 32.7225 45.8766 33.7062C45.6562 34.3285 45.4158 34.9509 45.0151 35.4728C44.7146 35.7137 44.4542 35.513 44.1938 35.3725C43.0519 34.71 41.8098 34.2683 40.5076 34.0876C40.3674 34.0475 40.2472 33.9672 40.127 33.8668C39.8665 33.5858 39.6862 33.2646 39.4258 32.9835C39.3256 32.8229 39.2455 32.6422 39.4058 32.4816Z" fill="#00D5F1"/>
<path d="M38.1637 20.6773C40.3073 20.2758 42.4108 19.6535 44.5744 19.3524C45.5159 19.2118 46.4575 18.9709 47.4392 19.0312C47.6796 19.3323 47.6395 19.6937 47.6195 20.0349C47.3791 20.2758 47.0585 20.3963 46.7179 20.4364C44.374 20.6773 42.0902 21.1993 39.7664 21.6209C39.1253 21.4804 38.4842 21.3599 38.1637 20.6773Z" fill="#4427B6"/>
<path d="M47.96 23.6485C45.2155 23.6887 42.511 24.0299 39.8465 24.6523C39.6863 24.0099 40.0669 23.6284 40.4876 23.247C42.1303 22.6448 43.8732 22.5243 45.5761 22.3436C46.3373 22.2633 47.1387 21.8819 47.8799 22.444C48.0201 22.8455 48.0001 23.247 47.96 23.6485Z" fill="#1F59C7"/>
<path d="M39.6461 21.4403C42.2505 20.7577 44.9149 20.3562 47.5994 20.0551C47.7396 20.4365 47.8398 20.838 47.7797 21.2596C47.7196 21.2997 47.6795 21.36 47.6194 21.38C45.2154 21.8418 42.8114 22.3035 40.3473 22.4641C39.9667 22.2232 39.5259 22.0425 39.6461 21.4403Z" fill="#3B39BC"/>
<path d="M40.4274 33.8669C42.1502 33.8468 43.5526 34.7703 45.015 35.4729C44.5542 36.3964 44.0734 37.2998 43.3723 38.0627C43.0117 37.9021 43.0117 37.4002 42.631 37.2596C42.1102 37.0388 41.8097 36.6373 41.6294 36.1153C41.3289 35.3123 40.4274 34.8305 40.4274 33.8669Z" fill="#00E4F7"/>
<path d="M40.2671 22.2433C41.8898 22.1831 43.4324 21.6812 45.035 21.5206C45.9566 21.4403 46.8581 21.3199 47.7796 21.2396C47.8798 21.6411 47.9799 22.0426 47.8798 22.4441C45.3556 22.5244 42.8714 22.9058 40.4073 23.4478C40.1269 23.0865 40.0267 22.685 40.2671 22.2433Z" fill="#3049C1"/>
<path d="M40.2672 22.2433C40.4275 22.6248 40.4074 23.0463 40.4275 23.4478C40.2472 23.8493 40.0468 24.2508 39.8665 24.6524C39.5861 24.9936 39.3056 25.3148 39.0251 25.6561C38.1036 26.2785 37.162 26.9008 36.2405 27.503C35.8598 27.503 35.9801 27.2019 35.9801 27.0012C35.9801 26.6197 35.96 26.2785 35.6796 25.9974C35.2188 25.5357 34.6178 25.5156 34.0168 25.5156C32.3941 25.4754 30.9116 25.9372 29.5894 26.8807C29.2288 27.1417 28.9283 27.4227 28.768 27.8443C28.6478 28.2057 28.8682 28.5269 28.8281 28.8882C28.9483 29.0689 29.0886 29.2496 29.2088 29.4102C28.6679 29.892 28.0068 29.4704 27.4458 29.6511C26.9049 29.5909 26.3841 29.5306 25.8432 29.4503C25.4425 29.3299 25.0418 29.1894 24.6412 29.0689C24.3006 28.8682 23.9801 28.6674 23.6395 28.4867C23.4592 28.2659 23.2589 28.0651 23.0786 27.8443C22.9984 27.5231 22.9183 27.1818 22.8382 26.8606C22.5777 26.1379 22.9584 25.6762 23.4592 25.2546C25.9433 22.4842 29.1887 21.2596 32.7547 20.6373C33.0151 20.5972 33.2555 20.5168 33.5159 20.4566C33.8966 20.4365 34.2772 20.4165 34.6578 20.3964C35.8398 20.3964 37.0218 20.4566 38.2038 20.6775C38.7046 20.9384 39.2054 21.1793 39.7063 21.4403C39.8665 21.7013 40.0669 21.9823 40.2672 22.2433Z" fill="#FEFEFE"/>
<path d="M7.63269 22.8858C7.63269 21.6813 7.65273 20.4768 7.63269 19.2723C7.61266 18.7904 7.79296 18.67 8.25373 18.6499C10.1369 18.5696 10.1369 18.5495 10.1369 20.4366C10.1369 22.2434 10.1168 24.0502 10.1369 25.8369C10.1569 27.2221 10.4574 27.5433 11.8397 27.6035C12.2404 27.6236 12.641 27.6035 13.0417 27.5633C13.8631 27.483 14.2637 27.0414 14.2437 26.1581C14.2036 23.9498 14.2637 21.7415 14.2237 19.5533C14.2036 18.8908 14.3439 18.6298 15.0851 18.6298C16.808 18.67 16.808 18.6298 16.808 20.3764C16.808 22.0025 16.808 23.6487 16.808 25.2748C16.808 28.1255 16.1269 28.9285 13.3021 29.33C12.0801 29.5106 10.838 29.4103 9.65607 29.0288C8.2938 28.5872 7.67276 27.7039 7.65273 26.2584C7.61266 25.1744 7.63269 24.0301 7.63269 22.8858Z" fill="#FEFEFE"/>
<path d="M19.2322 29.2898C18.8315 29.1292 18.3507 29.4705 18.0101 29.0489C18.0302 25.9171 18.0502 22.7854 18.0302 19.6536C18.0302 18.9109 18.1504 18.6097 18.9918 18.6298C21.5761 18.69 24.1804 18.6499 26.7647 18.6499C26.344 20.1355 25.9233 20.4567 24.4809 20.4567C23.4191 20.4567 22.3574 20.4767 21.2956 20.4567C20.7948 20.4366 20.6145 20.557 20.5944 21.1191C20.5143 23.0865 20.4943 23.0865 22.4776 23.0865C22.8782 23.0865 23.2589 23.0865 23.8399 23.0865C22.9584 23.9698 22.5577 25.2145 21.0752 24.8933C20.7347 24.813 20.5944 25.0338 20.6145 25.355C20.6345 25.8569 20.6345 26.3588 20.6545 26.8406C21.0151 27.3023 20.915 27.7641 20.6545 28.2459C20.8348 29.5106 19.9133 29.2296 19.2322 29.2898Z" fill="#FEFDFE"/>
<path d="M33.6362 19.2521C31.2522 19.5533 29.0686 20.2158 26.8048 21.1995C28.3474 17.9071 31.733 17.626 33.6362 19.2521Z" fill="#FCFAFD"/>
<path d="M20.6345 28.2659C20.6345 27.8041 20.6345 27.3424 20.6345 26.8606C21.6763 26.5193 22.3774 25.5758 23.4192 25.2546C23.2188 25.7966 22.9985 26.3186 22.7981 26.8606C22.0769 27.3223 21.3557 27.7841 20.6345 28.2659Z" fill="#5101AB"/>
<path d="M41.8098 36.0752C42.0702 36.4767 42.3507 36.8782 42.6111 37.2797C39.526 38.2835 36.3406 38.0827 33.1754 38.0827C32.8749 38.0827 32.6345 38.0225 32.5944 37.6812C32.4942 36.7377 33.2555 36.4767 33.8365 36.035C35.96 34.6699 38.1837 34.3688 40.5677 35.2521C41.0685 35.4328 41.4892 35.6938 41.8098 36.0752Z" fill="#00F6FC"/>
<path d="M33.8164 36.2759C33.3356 36.6774 32.8147 37.0387 32.6144 37.6811C32.0735 37.902 32.2738 38.6046 31.813 38.8857C31.3523 38.5243 31.3523 37.9823 31.212 37.4804C31.212 37.4202 31.212 37.3399 31.212 37.2796C31.7329 36.5569 32.1536 35.6736 33.2154 35.5532C33.5359 35.7138 33.9165 35.7941 33.8164 36.2759Z" fill="#00E9F8"/>
<path d="M29.6095 29.069C29.4091 28.9887 29.4893 28.7879 29.4292 28.6675C29.1086 28.1053 29.5494 27.7641 29.8499 27.4228C30.1103 27.1217 30.4509 26.941 30.7714 26.7202C30.9517 26.5997 31.152 26.5194 31.3323 26.4391C32.3741 25.9974 33.4559 25.877 34.5577 26.0376C35.0585 26.1781 35.4993 26.3989 35.5994 26.9811C35.5994 28.025 34.7781 28.3864 34.0569 28.8281C33.516 29.1292 32.915 29.3099 32.314 29.4705C31.3724 29.6712 30.4308 29.8519 29.6095 29.069Z" fill="#FDFEFE"/>
<path d="M29.6095 29.0689C30.531 29.37 31.4726 29.4302 32.4142 29.2495C33.0552 29.1893 33.6562 28.8681 34.3173 29.1291C34.6379 29.4904 34.2773 29.6109 34.097 29.7916C33.0953 30.454 31.9133 30.2332 30.8115 30.3938C30.491 30.434 30.1103 30.7351 29.8699 30.2533C29.7698 29.8719 29.6896 29.4704 29.6095 29.0689Z" fill="#A4D1F0"/>
<path d="M30.8917 26.8808C30.3107 27.4027 29.4893 27.7039 29.4292 28.6675C29.2289 28.7478 29.0085 28.808 28.8082 28.8883C28.5077 28.6072 28.3474 28.286 28.4676 27.8645C28.8883 27.4429 29.4092 27.1618 29.9301 26.9009C30.2306 26.7402 30.5711 26.5395 30.8917 26.8808Z" fill="#255CC8"/>
<path d="M29.8699 30.2735C30.1303 30.4743 30.3707 30.2534 30.6312 30.2735C31.112 30.0728 31.6128 30.2133 32.1136 30.1932C32.5143 30.7353 31.9133 30.7754 31.713 31.0163C31.1721 31.197 30.6913 31.6587 30.0702 31.2773C30.0101 31.0765 30.0502 30.8356 29.8499 30.675C29.8499 30.5345 29.8499 30.394 29.8699 30.2735Z" fill="#90CBEE"/>
<path d="M30.0702 31.2571C30.5911 31.1166 31.1119 30.9961 31.6328 30.8556C32.1737 30.6347 32.7146 30.4541 33.2956 30.715C33.6562 31.0363 33.3356 31.1768 33.1353 31.3575C32.7547 31.5381 32.354 31.6787 31.9734 31.8393C31.8732 31.8794 31.773 31.8995 31.6528 31.9196C31.152 31.9396 30.6512 32.04 30.2305 31.6787C30.1904 31.6586 30.1303 31.6586 30.0902 31.6586C30.0702 31.5181 30.0702 31.3976 30.0702 31.2571Z" fill="#82CFEF"/>
<path d="M30.2303 31.6585C30.7712 31.6585 31.2921 31.6585 31.833 31.6585C31.8531 32.1604 31.3722 32.1805 31.0918 32.4013C30.8714 32.4816 30.651 32.6221 30.4106 32.4816C30.3505 32.4816 30.2904 32.4615 30.2504 32.4415C30.2303 32.1805 30.2303 31.9195 30.2303 31.6585Z" fill="#75CBEE"/>
<path d="M30.6313 33.4654C30.5712 33.4654 30.491 33.4453 30.4309 33.4252C30.4309 33.1643 30.4309 32.9233 30.4109 32.6624C30.8717 32.4215 31.3525 32.3412 31.8733 32.5218C32.274 33.1643 31.5728 33.1442 31.3525 33.4052C31.1321 33.5256 30.8917 33.6862 30.6313 33.4654Z" fill="#58CDEF"/>
<path d="M32.0135 32.6624C31.4726 32.6624 30.9517 32.6624 30.4108 32.6624C30.3907 32.6021 30.3907 32.5419 30.3907 32.4817C30.5911 32.4014 30.8114 32.3412 31.0118 32.2609C31.5527 32.0601 32.1136 31.8794 32.6946 32.1203C32.8148 32.1806 32.8549 32.2809 32.8749 32.4014C32.6746 32.7427 32.4141 32.9033 32.0135 32.6624Z" fill="#64D0F0"/>
<path d="M30.6311 33.4654C30.8314 33.4051 31.0117 33.3248 31.2121 33.2646C32.374 32.6623 33.7563 32.843 34.8982 32.2207C36.2805 31.8995 37.6428 31.759 39.0251 32.2608C39.1453 32.3211 39.2655 32.4014 39.3857 32.4616C39.4458 32.6021 39.5059 32.7226 39.566 32.8631C39.4658 33.5055 38.9249 33.3449 38.5643 33.3449C37.3423 33.3248 36.1203 33.4453 34.9383 33.7263C34.0768 33.8066 33.1753 33.626 32.354 34.0475C32.0935 34.1479 31.8331 34.2483 31.5727 34.3085C31.2321 34.3487 30.9116 34.3085 30.6311 34.0877C30.6311 33.8669 30.6311 33.6661 30.6311 33.4654Z" fill="#42E1F5"/>
<path d="M30.6311 34.0677C30.9517 34.0677 31.2922 34.0677 31.6128 34.0877C31.6128 34.5294 31.3523 34.5695 31.0118 34.4892C30.8715 34.429 30.7513 34.3487 30.6111 34.2885C30.6311 34.2082 30.6311 34.1279 30.6311 34.0677Z" fill="#0DD8F2"/>
<path d="M31.0319 34.4692C31.2323 34.3286 31.4326 34.2082 31.6329 34.0677C31.8333 34.0074 32.0336 33.9271 32.2139 33.8669C32.7147 33.7063 33.2356 33.626 33.7565 33.6862C34.2773 33.9071 34.0169 34.4892 34.2773 34.8506C34.077 35.3324 33.7565 35.6335 33.2156 35.6737C32.3141 35.8945 31.9935 36.8782 31.2122 37.2797C31.1521 36.8782 31.072 36.4767 31.0119 36.0752C31.052 35.5332 30.5912 35.0112 31.0319 34.4692Z" fill="#00E0F5"/>
<path d="M34.0167 28.6675C34.5376 28.1455 35.379 27.9447 35.4391 27.0213C35.8999 26.9811 35.8798 27.4228 36.0802 27.6436C36.2004 27.9046 36.3005 28.1656 36.4207 28.4266C35.96 29.0489 35.0184 29.1493 34.0167 28.6675Z" fill="#B7DBF3"/>
<path d="M34.0167 28.6674C34.8181 28.5469 35.6595 28.9083 36.4208 28.4466C36.541 28.5871 36.6812 28.7276 36.8014 28.8681C36.8214 28.9284 36.8415 28.9886 36.8415 29.0488C36.0401 29.2496 35.2388 29.5708 34.3974 29.2697C33.7363 29.2697 33.0551 29.2697 32.394 29.2697C32.955 29.0689 33.4959 28.8681 34.0167 28.6674Z" fill="#ADD8F3"/>
<path d="M36.1002 27.6435C35.8799 27.4428 35.6796 27.2219 35.4592 27.0212C35.3791 26.5394 34.9383 26.4591 34.6378 26.2382C34.8782 25.5356 35.3991 25.6761 35.92 25.8167C36.561 26.2784 35.96 26.981 36.2405 27.503C36.2405 27.5431 36.2405 27.6034 36.2405 27.6435H36.1804H36.1002Z" fill="#1275D1"/>
<path d="M34.4175 29.2697C35.2189 29.1492 36.0202 28.8883 36.8616 29.0489C37.0018 29.1894 37.1421 29.3299 37.2623 29.4504C37.2623 29.5106 37.2623 29.5708 37.2623 29.631C36.1805 30.0727 35.0987 30.1329 33.9968 29.6511C34.1571 29.5307 34.2973 29.3901 34.4175 29.2697Z" fill="#A1DAF3"/>
<path d="M34.0168 29.6711C35.0986 29.6711 36.2004 29.651 37.2822 29.651C37.3223 29.7112 37.3824 29.7916 37.4224 29.8518C37.4425 30.3135 37.0618 30.2533 36.8014 30.2734C36.0802 30.3336 35.379 30.4741 34.6779 30.5544C33.8565 30.454 32.9951 30.8355 32.2138 30.2734C31.6729 30.2734 31.152 30.2734 30.6111 30.2734C31.0318 29.8919 31.5527 30.0726 32.0134 30.0927C32.7346 30.1128 33.3557 29.7916 34.0168 29.6711Z" fill="#98D7F2"/>
<path d="M34.8181 30.2734C35.6795 30.1329 36.561 29.9924 37.4224 29.8518C37.6628 29.9723 37.783 30.1931 37.8231 30.4541C37.783 30.9961 37.3423 30.8958 37.0017 30.956C36.1203 30.8958 35.2188 31.1166 34.3373 30.8155C33.9166 30.1128 34.758 30.5344 34.8181 30.2734Z" fill="#8BDBF3"/>
<path d="M37.0217 30.6749C37.3022 30.6548 37.6227 30.7753 37.8431 30.4541C37.9032 30.4741 37.9633 30.4741 38.0034 30.4741C38.1436 30.7351 38.2838 30.9961 38.4241 31.2571C38.384 31.2972 38.3439 31.3374 38.3039 31.3775C37.3623 31.6184 36.4408 31.6184 35.4992 31.3775C35.2388 31.0162 35.5393 30.956 35.7797 30.8757C36.2004 30.7552 36.6211 30.8355 37.0217 30.6749Z" fill="#78DDF4"/>
<path d="M39.0452 32.2609C37.6429 32.3211 36.2205 32.1203 34.8382 32.4616C34.1771 32.5419 33.4959 32.9635 32.8348 32.4616C32.8348 32.4014 32.8348 32.3211 32.8348 32.2609C33.0953 31.7389 33.6762 31.7188 34.117 31.4779C34.2772 31.4177 34.4375 31.3976 34.5978 31.3976C35.8799 31.3776 37.1621 31.6787 38.4242 31.2571H38.4642C38.5243 31.3173 38.6045 31.3976 38.6646 31.4579C38.7848 31.7188 38.905 31.9999 39.0452 32.2609Z" fill="#63DAF3"/>
<path d="M33.2156 35.6738C33.5561 35.4128 33.8767 35.1317 34.2172 34.8708C36.0603 33.7265 38.0236 33.0841 40.2072 33.6663C40.2673 33.7265 40.3475 33.8068 40.4076 33.867C40.8082 34.6499 41.5094 35.2321 41.8099 36.0753C40.668 35.6537 39.6263 35.0715 38.3441 35.0314C36.6613 34.9711 35.2389 35.5333 33.8166 36.276C33.6162 36.0753 33.4159 35.8745 33.2156 35.6738Z" fill="#00EEFA"/>
<path d="M40.2071 33.6662C38.344 33.626 36.561 33.8669 34.8782 34.7302C34.6778 34.8306 34.4374 34.8306 34.2171 34.8707C33.9366 34.5896 33.3356 34.3487 34.0167 33.8669C34.1369 33.4454 34.5977 33.6863 34.8181 33.4654C36.0001 33.1242 37.2221 33.0238 38.4642 33.0439C38.8448 33.0639 39.2655 33.2245 39.586 32.8632C39.8064 33.1442 40.0067 33.4052 40.2071 33.6662Z" fill="#01E5F6"/>
<path d="M30.8916 26.8807C29.93 26.8405 29.349 27.7439 28.4675 27.8644C28.6879 26.961 29.4492 26.5796 30.1503 26.1781C31.3523 25.5156 32.6345 25.1944 34.0168 25.2546C33.9166 25.8569 33.3557 25.8569 32.955 25.9773C32.354 26.1781 31.773 26.3788 31.2121 26.6599C31.172 26.8606 31.0318 26.8807 30.8916 26.8807Z" fill="#324CC2"/>
<path d="M31.2322 26.68C32.0135 25.897 33.1554 25.8368 34.0168 25.2546C34.718 25.1944 35.3791 25.2546 35.9 25.8167C35.4392 25.8569 34.9985 25.9372 34.6178 26.2383C33.4559 26.0978 32.334 26.3989 31.2322 26.68Z" fill="#235CC8"/>
<path d="M34.8181 30.2734C34.6178 30.4139 34.4175 30.5344 34.2171 30.6749C33.9968 30.956 33.7564 31.1166 33.4158 30.8757C32.8148 30.8757 32.2138 30.8757 31.6128 30.8757C31.8131 30.6749 32.0135 30.4742 32.2138 30.2734C33.0953 30.2734 33.9567 30.2734 34.8181 30.2734Z" fill="#8ED3F0"/>
<path d="M33.4157 30.8756C33.6761 30.8154 33.9566 30.7351 34.217 30.6749C35.1586 30.6749 36.0801 30.6749 37.0217 30.6749C36.5609 31.0764 35.8798 30.8756 35.419 31.2771C35.2988 31.4377 35.1185 31.4578 34.9382 31.4779C34.2971 31.3775 33.616 31.779 33.035 31.2771C33.1552 31.1366 33.2955 30.9961 33.4157 30.8756Z" fill="#81D8F2"/>
<path d="M34.0168 31.6787C33.7163 32.0802 33.1955 32.0401 32.8148 32.281C32.2138 32.281 31.6128 32.281 31.0118 32.281C31.2723 32.0802 31.5527 31.8795 31.8132 31.6787C31.8733 31.6787 31.9534 31.6787 32.0135 31.6787C32.6946 31.4378 33.3557 31.2973 34.0168 31.6787Z" fill="#6FD2F0"/>
<path d="M34.0168 31.6788C33.3557 31.6788 32.6745 31.6788 32.0134 31.6788C32.2739 31.3576 32.6144 31.2572 33.0151 31.2773C33.6762 31.2773 34.3573 31.2773 35.0184 31.2773C35.0785 31.7992 34.5376 31.4178 34.4174 31.6788C34.2972 31.6587 34.157 31.6587 34.0168 31.6788Z" fill="#78D5F1"/>
<path d="M32.8147 32.4616C33.4758 32.4616 34.1569 32.4616 34.818 32.4616C33.7362 33.2244 32.414 32.9635 31.212 33.2646C31.4725 33.0638 31.7529 32.8631 32.0134 32.6623C32.2938 32.6021 32.5543 32.5419 32.8147 32.4616Z" fill="#53D6F2"/>
<path d="M34.8181 33.4653C34.5577 33.6059 34.2772 33.7263 34.0167 33.8668C33.4157 33.8668 32.8147 33.8668 32.2137 33.8668C33.0151 33.2646 33.9366 33.5256 34.8181 33.4653Z" fill="#0DD8F2"/>
<path d="M34.4175 31.6586C34.6178 31.5181 34.8181 31.3976 35.0185 31.2571C35.1587 31.2571 35.2789 31.2571 35.4192 31.2571C36.4208 31.2571 37.4025 31.2571 38.4041 31.2571C37.9834 31.7791 37.4025 31.6385 36.8616 31.6586C36.0602 31.6787 35.2388 31.6586 34.4175 31.6586Z" fill="#70DDF4"/>
</g>
<defs>
<clipPath id="clip0_2_9801">
<rect width="48" height="48" fill="white"/>
</clipPath>
</defs>
</svg>
