<svg width="48" height="48" viewBox="0 0 48 48" fill="none" xmlns="http://www.w3.org/2000/svg">
<rect width="48" height="48" rx="24" fill="white"/>
<path fill-rule="evenodd" clip-rule="evenodd" d="M18.5193 18.5378L18.5193 18.5378L18.5193 18.5378C18.87 18.8388 19.0911 19.0285 19.1639 19.1258C19.4007 19.442 19.3116 19.7263 18.906 19.9491C18.6805 20.0729 18.2169 20.1984 17.9847 20.1984C17.7222 20.1984 17.632 20.1006 17.632 20.1006C17.6136 20.0836 17.5961 20.0691 17.5782 20.0543C17.4488 19.9468 17.2992 19.8227 16.6123 18.6445C15.5269 17.0171 14.6186 15.6671 14.5939 15.6445C14.5366 15.5923 14.5375 15.594 16.5016 18.9899C16.754 19.5527 16.6449 19.8323 16.5896 19.9738C16.5754 20.0103 16.5647 20.0376 16.5647 20.0582C16.5647 20.2633 16.5069 20.3711 16.2451 20.6533C15.8086 21.1237 15.6136 21.6523 15.4727 22.7463C15.3149 23.9727 14.8709 24.839 13.6406 26.3216C12.9205 27.1895 12.8026 27.3486 12.6209 27.6984C12.392 28.1389 12.3291 28.3856 12.3036 28.9418C12.2766 29.53 12.3291 29.91 12.5151 30.4722C12.6779 30.9646 12.8478 31.2896 13.2822 31.9397C13.6571 32.5008 13.8729 32.9178 13.8729 33.0809C13.8729 33.2107 13.8986 33.2108 14.4795 33.0841C15.8697 32.7808 16.9986 32.2472 17.6334 31.5933C18.0264 31.1886 18.1186 30.9651 18.1216 30.4107C18.1236 30.0479 18.1104 29.9719 18.0089 29.7632C17.8437 29.4235 17.543 29.1411 16.8802 28.7034C16.0118 28.1297 15.6409 27.6679 15.5384 27.0327C15.4544 26.5116 15.5519 26.1439 16.0323 25.1709C16.5295 24.1638 16.6528 23.7347 16.7361 22.7195C16.79 22.0637 16.8645 21.805 17.0595 21.5974C17.2629 21.3809 17.446 21.3076 17.9493 21.2412C18.7699 21.1328 19.2924 20.9277 19.7219 20.5453C20.0945 20.2135 20.2504 19.8938 20.2743 19.4126L20.2925 19.0478L20.0843 18.8133C19.3303 17.9637 12.0467 11.8696 12.0003 11.8696C11.9904 11.8696 12.2385 12.1702 12.5516 12.5374C15.3452 15.8138 17.4904 17.6547 18.5193 18.5378ZM14.2962 29.6074C14.4667 29.3155 14.3761 28.9406 14.0909 28.7573C13.8215 28.5842 13.4029 28.6658 13.4029 28.8914C13.4029 28.9602 13.4423 29.0103 13.5311 29.0545C13.6806 29.1288 13.6915 29.2124 13.5738 29.3832C13.4547 29.5562 13.4643 29.7084 13.601 29.8117C13.8212 29.9783 14.1329 29.8867 14.2962 29.6074ZM19.4275 13.6982C19.0911 13.6478 19.0769 13.6418 19.2352 13.6183C19.5386 13.5732 20.2549 13.6347 20.7485 13.7481C21.9009 14.0128 22.9495 14.6909 24.0689 15.8951L24.3662 16.2151L24.7916 16.149C26.5838 15.8707 28.4069 16.0919 29.9318 16.7726C30.3513 16.9598 31.0128 17.3326 31.0955 17.4284C31.1218 17.4589 31.1701 17.6554 31.2028 17.8651C31.316 18.5906 31.2593 19.1467 31.0298 19.5621C30.9048 19.7881 30.8978 19.8598 30.9819 20.0532C31.049 20.2075 31.2359 20.3218 31.421 20.3215C31.7999 20.321 32.2078 19.7291 32.3968 18.9055L32.472 18.5783L32.6206 18.7411C33.4363 19.6341 34.0771 20.852 34.1871 21.7189L34.2157 21.945L34.0787 21.7395C33.8427 21.3859 33.6055 21.1452 33.302 20.9511C32.7546 20.6011 32.1759 20.4821 30.6434 20.404C29.2592 20.3335 28.4758 20.2193 27.6991 19.9745C26.3774 19.5582 25.7112 19.0036 24.1412 17.0133C23.4439 16.1292 23.0129 15.6401 22.5842 15.2462C21.61 14.3512 20.6528 13.8818 19.4275 13.6982ZM31.4076 15.672C31.4425 15.0796 31.5255 14.6889 31.6928 14.3321C31.7589 14.1908 31.8208 14.0752 31.8305 14.0752C31.84 14.0752 31.8112 14.1795 31.7665 14.3069C31.645 14.6532 31.625 15.1268 31.7087 15.6779C31.8149 16.3772 31.8754 16.4781 32.6403 17.2334C32.999 17.5877 33.4163 18.0345 33.5674 18.2263L33.8426 18.5752L33.5674 18.3259C33.2311 18.021 32.4577 17.4265 32.2868 17.3415C32.1722 17.2845 32.1552 17.2855 32.0845 17.3535C32.0194 17.4161 32.0056 17.5102 31.9967 17.9551C31.9825 18.6485 31.8847 19.0936 31.6488 19.5386C31.521 19.7793 31.5008 19.7279 31.6164 19.4562C31.7026 19.2534 31.7114 19.1642 31.7108 18.493C31.7094 17.1443 31.5438 16.82 30.5721 16.2646C30.3259 16.1239 29.9202 15.9209 29.6707 15.8136C29.4211 15.7063 29.2228 15.6128 29.2301 15.6058C29.2576 15.5793 30.2052 15.8466 30.5867 15.9884C31.1541 16.1993 31.2477 16.2266 31.3166 16.2012C31.3629 16.1841 31.3853 16.0541 31.4076 15.672ZM19.0669 14.6366C18.9755 15.6779 19.398 17.0708 20.0809 17.9793C20.6103 18.6835 21.4309 19.2308 22.0367 19.2836C22.4334 19.3182 22.5526 19.1982 22.3732 18.945C22.124 18.5934 21.8176 18.052 21.7365 17.8202C21.6861 17.6762 21.5767 17.2509 21.4932 16.875C21.2084 15.5918 20.9284 15.0921 20.2816 14.7126C20.0459 14.5742 19.5426 14.3932 19.2507 14.3418L19.0952 14.3144L19.0669 14.6366ZM30.5792 24.7407C27.3879 23.4991 26.2639 22.4213 26.2639 20.6028C26.2639 20.3352 26.2734 20.1162 26.285 20.1162C26.2966 20.1162 26.4201 20.2045 26.5594 20.3125C27.2065 20.8141 27.9312 21.0283 29.9374 21.3111C31.118 21.4775 31.7824 21.612 32.3952 21.8084C34.3431 22.4326 35.5482 23.6994 35.8357 25.4249C35.9192 25.9262 35.8702 26.8664 35.7348 27.362C35.628 27.7534 35.3017 28.4588 35.2151 28.486C35.1912 28.4935 35.1677 28.4046 35.1615 28.2837C35.1287 27.6358 34.7899 27.005 34.2209 26.5325C33.5739 25.9953 32.7047 25.5676 30.5792 24.7407ZM28.1847 24.604C28.2295 24.733 28.2988 25.0266 28.3388 25.2566C28.5944 26.7266 27.7959 27.9143 26.2425 28.3745C26.078 28.4232 25.4302 28.5456 24.8029 28.6467C23.5331 28.851 22.9664 28.9955 22.397 29.2606C21.9933 29.4486 21.5044 29.7302 21.5335 29.7582C21.5428 29.7672 21.635 29.7458 21.7382 29.7108C22.4562 29.4672 23.2553 29.3411 24.4693 29.2801C24.9511 29.2559 25.499 29.2173 25.687 29.1945C26.7686 29.0628 27.5181 28.7455 28.1011 28.1721C28.4255 27.8531 28.6189 27.5559 28.7747 27.1367C28.8735 26.8709 28.8868 26.7722 28.8876 26.3011C28.8884 25.8212 28.8764 25.7334 28.7694 25.4381C28.6292 25.0511 28.4638 24.7607 28.2545 24.5336L28.1033 24.3696L28.1847 24.604ZM29.8018 27.7672C29.3778 26.8864 29.2804 26.036 29.5127 25.2429C29.5376 25.1581 29.5775 25.0888 29.6016 25.0888C29.6256 25.0888 29.7256 25.141 29.8239 25.2049C30.0193 25.332 30.4112 25.5461 31.4552 26.0961C32.758 26.7825 33.5009 27.314 34.0061 27.9212C34.4484 28.4529 34.7221 29.0587 34.854 29.7973C34.9286 30.2155 34.8847 31.2222 34.7736 31.6434C34.4234 32.9717 33.6093 34.015 32.4482 34.6239C32.2781 34.7131 32.1253 34.7863 32.1088 34.7867C32.0922 34.787 32.1543 34.6347 32.2466 34.4482C32.6371 33.6592 32.6816 32.8917 32.3863 32.0375C32.2054 31.5143 31.8368 30.8761 31.0924 29.7973C30.2268 28.5432 30.0147 28.2094 29.8018 27.7672ZM21.8146 30.6561C20.4724 30.8668 18.9988 31.5533 17.8145 32.5195L17.4619 32.8072L17.7718 32.854C19.3888 33.0978 19.8242 33.3141 20.9458 34.4307C21.5913 35.0731 21.8093 35.2161 22.3447 35.3482C23.131 35.5422 23.9062 35.1858 24.172 34.5079C24.2908 34.2051 24.275 33.7035 24.1388 33.4517C23.8145 32.8521 22.8701 32.6583 22.4133 33.0975C22.033 33.4634 22.1438 34.0145 22.6169 34.1093C22.7252 34.131 22.7221 34.1265 22.5893 34.0684C22.3822 33.9778 22.2923 33.8526 22.2912 33.6529C22.2885 33.1849 22.8428 32.922 23.3584 33.1468C23.7359 33.3115 23.8859 33.5267 23.8859 33.9037C23.8859 34.4844 23.3744 34.922 22.7792 34.8503C22.4611 34.8121 22.072 34.6155 21.8634 34.3875C21.3384 33.814 21.5429 32.9089 22.2759 32.5616C22.8338 32.2973 23.5755 32.3625 24.1506 32.7263C24.8115 33.1446 25.0926 33.5267 25.6617 34.7811C25.8471 35.1896 26.0855 35.6493 26.1916 35.8028C26.7307 36.5828 27.3767 36.9653 28.1549 36.9653C28.584 36.9653 28.9069 36.8895 29.313 36.6935C29.6148 36.5477 30.0428 36.271 30.0118 36.2415C30.003 36.2329 29.8779 36.2705 29.7337 36.3249C28.884 36.6451 28.0204 36.6232 27.5188 36.2684C27.203 36.0449 26.9482 35.6002 26.8172 35.0437C26.7946 34.9474 26.7198 34.5222 26.651 34.0985C26.4766 33.0248 26.3091 32.5422 25.9187 31.9884C25.5192 31.4218 24.7511 30.9461 23.8925 30.7338C23.3568 30.6013 22.3931 30.5653 21.8146 30.6561ZM19.9347 22.355C20.0507 21.9414 20.4251 21.5468 20.8103 21.4325C21.0553 21.3599 21.5616 21.4062 21.7997 21.5232C22.2611 21.7498 22.596 22.2662 22.5233 22.6387C22.4347 23.0932 21.672 23.4568 20.7948 23.4627C20.3467 23.4658 20.1812 23.4076 20.0101 23.1868C19.9042 23.0501 19.864 22.6074 19.9347 22.355ZM21.6819 21.6851C21.912 21.8209 21.9712 22.0216 21.8359 22.2074C21.7427 22.3354 21.4542 22.4568 21.2434 22.4568C20.9267 22.4568 20.5811 22.2396 20.5811 22.0405C20.5811 21.6405 21.2437 21.4266 21.6819 21.6851Z" fill="#E33376"/>
</svg>
