<svg width="48" height="48" viewBox="0 0 48 48" fill="none" xmlns="http://www.w3.org/2000/svg">
<path d="M0 24C0 10.7452 10.7452 0 24 0C37.2548 0 48 10.7452 48 24C48 37.2548 37.2548 48 24 48C10.7452 48 0 37.2548 0 24Z" fill="#FF65F7"/>
<circle cx="24" cy="24" r="24" fill="#ECECEC"/>
<g clip-path="url(#clip0_2_10766)">
<path d="M24.0098 46.9998C11.2856 47.0195 1 36.7339 1 23.99C1 11.2658 11.3053 0.980209 24.0295 0.999876C36.7341 1.01954 46.9607 11.2461 47 23.9507C47.0393 36.6749 36.7537 46.9802 24.0098 46.9998Z" fill="#FEFEFE"/>
<path d="M24.0097 45.6235C12.0525 45.6432 2.35689 35.9672 2.37656 23.9903C2.37656 12.0134 12.0525 2.3375 24.0294 2.37683C35.967 2.39649 45.6036 12.0134 45.6232 23.9707C45.6626 35.9279 36.0063 45.6235 24.0097 45.6235Z" fill="black"/>
<path d="M25.3669 33.607C26.2518 33.0957 26.5272 32.309 26.5272 31.306C26.5075 26.4484 26.5075 21.5907 26.5075 16.7331C26.5075 14.4715 26.4288 14.3535 24.3245 13.6651C24.6195 13.3308 24.9932 13.4881 25.3275 13.4881C28.4545 13.3898 31.5815 13.6651 34.7085 13.2915C36.4391 13.0751 36.4391 13.0948 36.4588 14.9041C36.4588 15.4548 36.4588 16.0251 36.4588 16.6348C36.2228 16.5561 36.1245 16.5561 36.1245 16.5168C35.7115 14.6288 35.4755 14.4321 33.5088 14.4321C32.1125 14.4321 30.6965 14.4518 29.3002 14.4321C28.7495 14.4125 28.4742 14.5108 28.4938 15.1598C28.5332 17.6771 28.5332 20.1748 28.4938 22.6921C28.4938 23.3411 28.7495 23.4591 29.3002 23.4394C30.5392 23.4001 31.7781 23.4197 33.0171 23.4394C33.8038 23.4591 34.4135 23.1837 34.7675 22.4561C34.9838 22.4364 35.0428 22.5544 35.0428 22.7511C35.0625 23.5377 35.0428 24.3244 35.0428 25.0914C35.0428 25.2684 34.9838 25.4061 34.7675 25.3864C34.4135 24.6391 33.8235 24.3834 33.0368 24.4031C31.7585 24.4424 30.4998 24.4424 29.2215 24.4031C28.6708 24.3834 28.4938 24.5801 28.4938 25.1307C28.5135 27.5694 28.5135 30.008 28.5135 32.4663C28.5135 32.7613 28.4742 33.0957 28.9068 33.0957C30.6572 33.0563 32.4271 33.2333 34.1775 32.958C35.5148 32.7417 36.3605 31.8763 37.1078 30.8733C37.2061 30.7553 37.3241 30.598 37.4814 30.6963C37.6388 30.775 37.6191 30.952 37.5404 31.1093C37.2651 31.4437 37.2651 31.896 37.1274 32.2697C36.5965 34.0593 36.5965 34.0593 34.7478 34.0593C31.5028 34.0593 28.2382 34.0396 24.9932 34.02C24.8555 33.607 25.2685 33.7643 25.3669 33.607Z" fill="#FDFDFD"/>
<path d="M13.0749 23.459C12.9372 23.7737 12.8979 24.108 13.0159 24.403C14.0385 26.9203 15.0809 29.4573 16.2215 32.2106C16.6739 31.1683 17.0279 30.3226 17.3819 29.4967C18.0702 27.884 18.7388 26.2517 19.4468 24.6587C19.7418 24.0097 19.7812 23.4787 18.7978 23.0657C20.0565 23.0657 21.0595 23.0657 22.3182 23.0657C20.9808 23.4984 20.6465 24.5014 20.2138 25.4454C18.8765 28.356 17.5195 31.2666 16.1035 34.3543C15.4545 32.9383 14.8645 31.66 14.2745 30.3816C13.4092 28.4937 12.5439 26.6057 11.6982 24.698C11.3836 23.99 11.0099 23.4 10.2626 23.0264C11.2459 23.0264 12.2489 23.0264 13.2322 23.0264C13.3502 23.2427 13.1142 23.3214 13.0749 23.459Z" fill="#FBFBFB"/>
<path d="M23.8328 12.0133C19.8601 12.0133 15.8678 12.0133 11.8952 12.0133C11.5019 12.0133 10.9905 12.1903 11.0495 11.4626C11.0889 10.7546 11.6199 11.0496 11.9149 11.0496C19.8995 11.0299 27.9037 11.0299 35.8884 11.0496C36.203 11.0496 36.7144 10.7743 36.734 11.4823C36.7537 12.2296 36.2424 12.0133 35.8687 12.0133C31.8567 12.0329 27.8447 12.0133 23.8328 12.0133Z" fill="#F8F8F8"/>
<path d="M23.9114 34.9839C27.9234 34.9839 31.9354 34.9839 35.9277 34.9839C36.2817 34.9839 36.7733 34.8069 36.734 35.4952C36.7143 35.7902 36.675 36.0065 36.321 35.9869C36.1637 35.9869 35.9867 35.9869 35.8293 35.9869C27.8447 35.9869 19.8601 35.9869 11.8755 35.9672C11.5608 35.9672 11.0495 36.2425 11.0298 35.5345C10.9905 34.8069 11.5018 34.9839 11.8952 34.9839C15.8875 34.9839 19.8995 34.9839 23.9114 34.9839Z" fill="#ECECEC"/>
<path d="M34.7668 25.3667C35.0814 24.3834 35.1011 23.4198 34.7668 22.4364C34.7668 22.2791 34.7471 22.1218 34.7668 21.9448C34.7865 21.7874 34.7865 21.6104 35.0224 21.6301C35.1994 21.6498 35.2191 21.7874 35.2191 21.9054C35.2191 23.2428 35.2191 24.5604 35.2191 25.8977C35.2191 26.0944 35.0814 26.2517 34.9241 26.1534C34.6291 25.9764 34.7668 25.6421 34.7668 25.3667Z" fill="#BBBBBB"/>
<path d="M37.5208 31.0701C37.4815 30.7751 37.3241 30.7554 37.0881 30.8537C37.1275 30.7357 37.1471 30.5587 37.2258 30.5194C37.5405 30.3227 37.2848 29.5361 37.7961 29.7524C38.1895 29.9097 37.6978 30.4211 37.6978 30.7751C37.6978 30.8537 37.5798 30.9717 37.5208 31.0701Z" fill="#D9D9D9"/>
<path d="M25.3671 33.6073C25.2295 33.7253 25.1115 33.863 24.9738 33.981C24.7378 34.04 24.4821 34.1186 24.2658 33.8433C24.6001 33.568 24.9935 33.627 25.3671 33.6073Z" fill="#D9D9D9"/>
<path d="M37.1272 32.2305C37.0682 31.7782 37.1272 31.3455 37.5402 31.0702C37.5206 31.4832 37.3632 31.8765 37.1272 32.2305Z" fill="#D9D9D9"/>
<path d="M13.0755 23.4595C13.1148 23.3218 13.1738 23.1842 13.2131 23.0268C13.3705 22.9678 13.6458 22.9482 13.6261 23.0662C13.6261 23.3808 13.2918 23.3415 13.0755 23.4595Z" fill="#A2A2A2"/>
</g>
<defs>
<clipPath id="clip0_2_10766">
<rect width="46" height="46" fill="white" transform="translate(1 1)"/>
</clipPath>
</defs>
</svg>
