<svg width="48" height="48" viewBox="0 0 48 48" fill="none" xmlns="http://www.w3.org/2000/svg">
<path d="M24 48C37.2548 48 48 37.2548 48 24C48 10.7452 37.2548 0 24 0C10.7452 0 0 10.7452 0 24C0 37.2548 10.7452 48 24 48Z" fill="#F89022"/>
<path fill-rule="evenodd" clip-rule="evenodd" d="M42 28.443H38.454L35.9385 26.289L33.432 28.434H30.435L29.0025 26.694H24.0645L25.314 25.1505H27.7425L25.893 22.8885L19.4355 30.75H16.44L18.309 28.467H15.1875L13.5 23.736L11.826 28.431H8.6595L6 21.0615H8.43L10.218 26.0805L12 21.084H15L16.7775 26.07L18.5535 21.0825H20.991L18.309 28.467L18.906 27.738L24.384 21.0705H27.399L31.9575 26.6325L34.1505 24.747L27.21 18.75H30.7725L42 28.443ZM38.4825 23.985L36.81 22.551L38.4795 21.129L41.8545 21.132L38.4825 23.985Z" fill="white"/>
</svg>
