<svg width="48" height="48" viewBox="0 0 48 48" fill="none" xmlns="http://www.w3.org/2000/svg">
<path d="M0 24C0 10.7452 10.7452 0 24 0C37.2548 0 48 10.7452 48 24C48 37.2548 37.2548 48 24 48C10.7452 48 0 37.2548 0 24Z" fill="#ECECEC"/>
<g clip-path="url(#clip0_2_10612)">
<path d="M4.22977 19.2709C15.7897 19.2709 27.3825 19.2709 39.238 19.2709C38.0886 15.3957 35.8554 12.6371 32.7684 10.5353C29.6156 8.40065 26.036 7.77668 22.1936 7.94088C22.1936 6.59442 22.1936 5.37931 22.1936 4.1642C29.2872 3.1133 37.4974 6.92282 41.5697 14.3777C45.7733 22.0624 44.4268 31.6847 38.2528 38.023C32.2757 44.1642 22.6534 45.7734 15.1 41.8653C6.39725 37.3662 3.0475 29.0575 4.22977 19.2709ZM40.0261 23.3103C31.5532 23.3103 23.2117 23.3103 14.8373 23.3103C14.5746 25.7406 15.2642 27.7767 16.6436 29.5501C18.9424 32.5714 22.128 33.5238 25.8718 33.1626C25.8718 34.6075 25.8718 35.8227 25.8718 37.0378C22.4235 37.4647 19.3365 36.8407 16.5779 34.9031C12.5385 32.1117 10.7651 28.1379 10.7322 23.3103C9.77985 23.3103 8.95883 23.3103 8.03929 23.3103C8.03929 29.4516 10.4038 34.312 15.4941 37.4975C21.1427 41.0443 27.0541 41.0115 32.6698 37.399C37.6945 34.1806 40.0261 29.3859 40.0261 23.3103Z" fill="black"/>
<path d="M24.0656 30.4696C22.8505 30.5025 21.7339 29.3859 21.7339 28.2036C21.7339 26.9557 22.8176 25.9048 24.0656 25.9705C25.4449 26.0361 26.1345 26.8571 26.2659 28.1379C26.3973 29.3202 25.2807 30.4696 24.0656 30.4696Z" fill="black"/>
</g>
<defs>
<clipPath id="clip0_2_10612">
<rect width="40" height="40" fill="white" transform="translate(4 4)"/>
</clipPath>
</defs>
</svg>
