<svg width="48" height="48" viewBox="0 0 48 48" fill="none" xmlns="http://www.w3.org/2000/svg">
<circle cx="24" cy="24" r="24" fill="white"/>
<path d="M23.9558 40.5781L23.7834 40.4928C17.0588 36.598 11.9722 30.173 9.90311 22.4972C9.57263 21.2889 9.32836 20.0523 9.15593 18.8014C8.99787 17.5505 8.91166 16.2854 8.89729 15.0203C8.89729 14.8071 8.86856 14.8355 9.06972 14.736C11.5986 13.3146 14.2712 12.2769 17.1019 11.623C18.1508 11.3814 19.1997 11.1966 20.263 11.0687C21.7286 10.8981 23.1943 10.827 24.6743 10.8555C25.5076 10.8697 26.3267 10.9265 27.1457 11.0118C31.2695 11.4525 35.1348 12.6749 38.7557 14.6792C38.8132 14.7076 38.8563 14.736 38.9137 14.7645C38.9712 14.7929 39 14.8355 39 14.9066V15.1198C38.9856 15.859 38.9569 16.5839 38.8994 17.3231C38.8132 18.375 38.6695 19.4126 38.4683 20.4503C38.0373 22.682 37.3619 24.8284 36.4279 26.8895C34.948 30.173 32.922 33.1012 30.3643 35.6599C28.5251 37.5077 26.4704 39.0998 24.2001 40.4217C24.1139 40.4786 24.042 40.5212 23.9558 40.5781ZM10.2767 15.7453V15.9158C10.2767 16.9535 10.3485 18.0054 10.4779 19.0288C10.5928 19.967 10.7509 20.8909 10.9664 21.8149C11.0095 21.9712 11.0526 22.1276 11.1245 22.284C12.4177 24.9989 15.4064 26.4488 18.3663 25.7807C20.6222 25.269 22.4615 23.5491 23.0793 21.3458C23.2517 20.7346 23.3092 20.1091 23.338 19.4837C23.3523 19.0715 23.3954 18.6592 23.4673 18.247C23.9558 15.7453 25.637 13.6842 28.0078 12.7033C28.1371 12.6465 28.2808 12.6038 28.4101 12.547C28.4245 12.5328 28.4533 12.5328 28.4533 12.5043C28.0797 12.3764 25.8525 12.149 24.5162 12.1206C21.6424 12.0637 18.8261 12.4333 16.0817 13.2577C14.0413 13.8689 12.1159 14.6934 10.2767 15.7453ZM31.4707 32.7743C31.5425 32.7317 31.5857 32.6748 31.6144 32.6322C32.1891 31.9214 32.7352 31.1823 33.2381 30.4147C35.0342 27.6571 36.2986 24.6862 37.0027 21.4737C37.247 20.3792 37.405 19.2847 37.5056 18.176C37.5774 17.4226 37.6062 16.6692 37.6062 15.9016C37.6062 15.8448 37.6062 15.8021 37.5918 15.7453L37.3763 15.6173C36.7872 15.2904 36.1837 14.9777 35.5802 14.6934C34.6893 14.2812 33.7985 13.9116 32.8645 13.6131C31.7293 13.2577 30.5798 13.2151 29.4303 13.4994C26.1399 14.2812 24.0277 17.4794 24.6599 20.763C25.0047 22.5825 25.9962 24.0039 27.5768 24.9989C27.6773 25.07 27.7923 25.1269 27.8929 25.1979C29.0567 25.8945 29.962 26.8468 30.6086 28.0266C31.2983 29.2633 31.6 30.5995 31.5138 32.0067C31.5282 32.2484 31.4994 32.5042 31.4707 32.7743ZM23.9558 39.1282C24.0133 39.0998 24.0851 39.0571 24.1426 39.0145C25.9531 37.9626 27.6199 36.7117 29.143 35.2903C29.2435 35.205 29.3154 35.0913 29.3729 34.9776C29.4734 34.7928 29.574 34.5938 29.6602 34.409C30.3787 32.9307 30.5367 31.3955 30.0626 29.8035C29.1286 26.7331 26.1399 24.9705 23.1368 25.3401C22.2747 25.4396 21.4844 25.7097 20.7372 26.1361C19.3147 26.9321 17.7916 27.2591 16.1535 27.1027C15.3489 27.0316 14.5873 26.8184 13.8545 26.5057C13.2798 26.2498 12.7338 25.9371 12.2452 25.5533C12.2165 25.5249 12.1734 25.5107 12.1015 25.468C12.1159 25.5391 12.1303 25.5817 12.1446 25.6102C12.7912 27.2306 13.5815 28.7658 14.5155 30.2299C15.5357 31.8077 16.6996 33.2718 18.0215 34.608C19.3434 35.9441 20.7947 37.1382 22.3609 38.1758C23.0793 38.6307 23.7546 39.0429 23.9558 39.1282Z" fill="white"/>
<path d="M10.2767 15.7452C12.1159 14.6933 14.0413 13.8688 16.0673 13.2718C18.8261 12.4616 21.6281 12.0778 24.5018 12.1347C25.8381 12.1631 28.0653 12.3763 28.4389 12.5184C28.4533 12.5469 28.4245 12.5611 28.3958 12.5611C28.2665 12.618 28.1228 12.6606 27.9935 12.7175C25.6226 13.6983 23.9414 15.7594 23.4529 18.2611C23.3811 18.6733 23.338 19.0856 23.3236 19.4978C23.3092 20.1232 23.2517 20.7487 23.0649 21.3599C22.4327 23.5632 20.6079 25.2831 18.352 25.7948C15.392 26.4629 12.4033 25.013 11.1101 22.2981C11.0382 22.1417 10.9808 21.9853 10.952 21.829C10.7365 20.905 10.5784 19.9811 10.4635 19.0429C10.3342 18.0053 10.2623 16.9676 10.2623 15.9299C10.2767 15.8589 10.2767 15.8162 10.2767 15.7452Z" fill="#F7A800"/>
<path d="M31.4707 32.7743C31.4994 32.5042 31.5282 32.2625 31.5425 32.0067C31.6144 30.5994 31.3126 29.2633 30.6373 28.0266C29.9907 26.8468 29.0855 25.9086 27.9216 25.1979C27.821 25.1268 27.706 25.07 27.6055 24.9989C26.0105 24.0039 25.0334 22.5966 24.6886 20.763C24.0707 17.4652 26.1686 14.2811 29.459 13.4993C30.6229 13.2292 31.7581 13.2577 32.8932 13.613C33.8272 13.8973 34.718 14.2811 35.6089 14.6933C36.2268 14.9776 36.8159 15.2904 37.405 15.6173C37.4768 15.6599 37.5343 15.6884 37.6205 15.7452C37.6205 15.8021 37.6349 15.8447 37.6349 15.9016C37.6349 16.6549 37.5918 17.4225 37.5343 18.1759C37.4337 19.2846 37.2613 20.3934 37.0314 21.4737C36.3273 24.6862 35.0773 27.657 33.2668 30.4146C32.7639 31.1822 32.2179 31.9214 31.6431 32.6321C31.5856 32.6747 31.5569 32.7316 31.4707 32.7743Z" fill="#67B2E8"/>
<path d="M23.9559 39.1282C23.7403 39.0429 23.0794 38.6449 22.3753 38.1758C20.8091 37.1382 19.3579 35.9442 18.0359 34.608C16.714 33.2718 15.5357 31.8077 14.5299 30.2299C13.5816 28.7658 12.7913 27.2306 12.1591 25.6102C12.1447 25.5675 12.1303 25.5391 12.116 25.468C12.1878 25.5107 12.2165 25.5249 12.2597 25.5533C12.7626 25.9371 13.2942 26.264 13.869 26.5057C14.6018 26.8184 15.3633 27.0316 16.168 27.1027C17.7917 27.2591 19.3147 26.9321 20.7516 26.1361C21.4988 25.7239 22.3035 25.4538 23.1512 25.3401C26.1543 24.9705 29.143 26.7331 30.077 29.8035C30.5512 31.3813 30.4075 32.9165 29.6747 34.409C29.5741 34.608 29.4879 34.7928 29.3873 34.9776C29.3298 35.0913 29.258 35.205 29.1574 35.2903C27.6343 36.7117 25.9675 37.9626 24.157 39.0145C24.0852 39.0571 24.0134 39.0998 23.9559 39.1282Z" fill="#00C4B3"/>
</svg>
