<svg width="48" height="48" viewBox="0 0 48 48" fill="none" xmlns="http://www.w3.org/2000/svg">
<circle cx="24" cy="24" r="24" fill="white"/>
<path fill-rule="evenodd" clip-rule="evenodd" d="M30.932 16.8723L34.3415 15.1352L38.338 13.0962V15.5425L34.3068 17.5971L32.3564 18.5902L14.9998 27.4339L14.033 27.9263L13.0518 28.427L10.0221 29.9713V27.5237L11.0512 26.999C11.4342 26.8039 11.7509 26.4998 11.9616 26.125C12.1722 25.7503 12.2672 25.3216 12.2348 24.8929C12.2116 24.5902 12.2001 24.2863 12.2001 23.9813C12.1998 21.7723 12.8104 19.6062 13.9642 17.7225C15.118 15.8388 16.7702 14.3108 18.7382 13.3073C20.7061 12.3039 22.9132 11.8641 25.1154 12.0366C27.3177 12.209 29.4294 12.9871 31.2171 14.2846L30.926 14.4332L28.9745 15.4275C27.4826 14.5943 25.799 14.1654 24.0904 14.1831C22.3818 14.2008 20.7074 14.6646 19.2332 15.5285C17.7589 16.3924 16.536 17.6265 15.6854 19.1085C14.8349 20.5905 14.3863 22.2689 14.384 23.9777C14.3842 24.4059 14.4122 24.8337 14.4679 25.2583L30.932 16.8723ZM15.9857 29.3723L38.338 17.9913V20.4304L37.3078 20.9551C36.9251 21.1506 36.6087 21.4548 36.3983 21.8295C36.1879 22.2042 36.093 22.6327 36.1253 23.0612C36.1481 23.3655 36.1601 23.6734 36.1601 23.9813C36.1594 26.19 35.5481 28.3555 34.3937 30.2385C33.2394 32.1215 31.587 33.6488 29.619 34.6516C27.6511 35.6543 25.4442 36.0935 23.2423 35.9206C21.0404 35.7477 18.9291 34.9695 17.1418 33.6719L19.2575 32.5937L19.3773 32.5302C20.8694 33.3668 22.5545 33.7987 24.2651 33.7828C25.9757 33.7669 27.6524 33.3039 29.1288 32.4397C30.6052 31.5755 31.8298 30.3402 32.6812 28.8564C33.5326 27.3726 33.9811 25.692 33.9821 23.9813C33.982 23.5502 33.954 23.1196 33.8983 22.6922L17.4174 31.0902L14.0078 32.8273L10.0221 34.8579V32.4128L14.0354 30.3678L15.9857 29.3723Z" fill="black"/>
</svg>
