<svg width="48" height="48" viewBox="0 0 48 48" fill="none" xmlns="http://www.w3.org/2000/svg">
<path d="M47.9993 23.9976C47.9993 37.2507 37.2553 47.9951 23.9999 47.9951C10.7445 47.9951 0.000488281 37.2507 0.000488281 23.9976C0.000488281 10.7445 10.7448 0 23.9999 0C37.2551 0 47.9993 10.7435 47.9993 23.9976Z" fill="white"/>
<path d="M24.0001 0C10.7494 0 -0.0137361 10.7597 0.00313259 23.9969C0.00645521 26.6452 0.42881 29.1927 1.22151 31.5757H8.40193V11.3883L24.0001 26.9846L39.5974 11.3883V31.5761H46.7794C47.5732 29.1933 47.9934 26.6457 47.9981 23.9973C48.0208 10.7463 37.2522 0.00319447 24.0001 0.00319447V0Z" fill="#F26822"/>
<path d="M20.4124 30.57L13.6053 23.7633V36.4662H8.40097L3.49005 36.4671C7.70246 43.3773 15.3153 47.9998 23.9995 47.9998C32.6838 47.9998 40.297 43.3763 44.5102 36.4661H34.3922V23.7633L27.5847 30.57L23.9988 34.1556L20.4127 30.57H20.4124Z" fill="#4D4D4D"/>
</svg>
