<svg width="48" height="48" viewBox="0 0 48 48" fill="none" xmlns="http://www.w3.org/2000/svg">
<circle cx="24" cy="24" r="20" fill="white"/>
<path fill-rule="evenodd" clip-rule="evenodd" d="M23.288 0.00557278C17.163 0.222428 11.5328 2.62203 7.23057 6.84932C5.83545 8.22013 4.90637 9.34796 3.87507 10.9227C1.92229 13.9045 0.658175 17.332 0.19579 20.8985C-0.0794334 23.0212 -0.0640369 25.3505 0.239088 27.4441C0.969932 32.492 3.27158 37.1363 6.84344 40.7705C8.21444 42.1654 9.34243 43.0943 10.9174 44.1255C13.8997 46.078 17.3276 47.3419 20.8946 47.8042C23.0176 48.0794 25.3473 48.064 27.4411 47.7609C32.4898 47.0302 37.1348 44.7289 40.7694 41.1575C42.1646 39.7867 43.0936 38.6589 44.1249 37.0841C46.0777 34.1023 47.3418 30.6749 47.8042 27.1084C48.0794 24.9857 48.064 22.6563 47.7609 20.5628C47.0301 15.5148 44.7284 10.8705 41.1566 7.2364C39.7856 5.84148 38.6576 4.91253 37.0826 3.88138C33.7446 1.69601 29.8022 0.361466 25.8244 0.0704869C25.1258 0.0193654 23.8326 -0.0137368 23.288 0.00557278ZM20.0563 15.4483C22.2621 18.904 24.0768 21.7313 24.089 21.7313C24.1012 21.7311 25.933 18.9354 28.1596 15.5185C30.3861 12.1017 32.2384 9.26881 32.2757 9.22334C32.339 9.1461 32.4175 9.14143 33.4664 9.15295L34.5893 9.16528L30.2487 15.8614L25.9081 22.5574L29.5152 22.5688L33.1222 22.5802V23.4695V24.3588L29.4994 24.3702L25.8766 24.3816L26.9296 26.0383L27.9826 27.695L30.5524 27.6956L33.1222 27.6963V28.5857V29.4751L31.1262 29.4867L29.1301 29.4982L32.1941 34.317C33.8794 36.9673 35.2581 39.1447 35.2581 39.1555C35.2581 39.1664 34.7225 39.1744 34.0678 39.1733L32.8775 39.1713L29.7693 34.3236L26.6611 29.476H24.0276H21.3941L18.2361 34.3246L15.078 39.1732L13.8847 39.1743L12.6913 39.1753L12.7769 39.0529C12.95 38.8053 18.9272 29.5195 18.9272 29.4981C18.9272 29.4859 18.0261 29.476 16.9247 29.476H14.9223V28.5861V27.6963L17.5143 27.696L20.1064 27.6957L21.1632 26.0554C21.7445 25.1532 22.2201 24.4026 22.2201 24.3873C22.2201 24.3719 20.5781 24.3594 18.5712 24.3594H14.9223V23.4698V22.5802L18.546 22.5688L22.1697 22.5574L17.9014 15.8836C15.5538 12.213 13.6328 9.19442 13.6324 9.17569C13.6321 9.15696 14.175 9.14694 14.8389 9.15344L16.0458 9.16528L20.0563 15.4483ZM23.2977 26.5475C22.8992 27.1614 22.5807 27.6713 22.59 27.6806C22.5993 27.6899 23.2592 27.6922 24.0564 27.6858L25.5058 27.674L24.7863 26.5516C24.3906 25.9343 24.0567 25.4297 24.0445 25.4303C24.0323 25.4309 23.6962 25.9336 23.2977 26.5475Z" fill="#209CE9"/>
</svg>
