<svg width="48" height="48" viewBox="0 0 48 48" fill="none" xmlns="http://www.w3.org/2000/svg">
<circle cx="24" cy="24" r="24" fill="#2C7DF7"/>
<path d="M26.9188 38.2332C24.9755 38.2332 23.5571 37.7651 22.6635 36.829C21.8358 36.0365 21.3555 34.9486 21.3275 33.8031C21.3174 33.455 21.3981 33.1104 21.5615 32.803C21.714 32.5373 21.9342 32.3169 22.1997 32.1643C22.5083 32.0104 22.8485 31.9302 23.1933 31.9302C23.5382 31.9302 23.8783 32.0104 24.1869 32.1643C24.4519 32.3163 24.6711 32.537 24.8215 32.803C24.9897 33.1089 25.0733 33.4541 25.0639 33.8031C25.0813 34.2198 24.9617 34.6308 24.7235 34.9732C24.525 35.2528 24.2412 35.4604 23.9148 35.5651C24.234 35.9716 24.6858 36.2532 25.1913 36.3609C25.7569 36.5252 26.3426 36.6096 26.9316 36.6119C27.7114 36.6187 28.4751 36.3903 29.1231 35.9566C29.7953 35.4816 30.2967 34.8027 30.5528 34.0205C30.8775 33.0895 31.0359 32.1087 31.0209 31.1228C31.0471 30.095 30.8736 29.0719 30.5102 28.1101C30.2369 27.3408 29.718 26.6829 29.0337 26.2378C28.3976 25.8352 27.6592 25.6241 26.9065 25.6293C26.2506 25.6849 25.6181 25.8996 25.0639 26.2549L23.6976 26.9399V26.2549L29.8379 18.0177H21.3275V26.5655C21.3035 27.1823 21.4666 27.792 21.7956 28.3144C21.9547 28.542 22.17 28.7247 22.4205 28.8447C22.6709 28.9647 22.9482 29.018 23.2253 28.9994C23.7373 28.989 24.2325 28.8145 24.6379 28.5016C25.0974 28.1648 25.4973 27.7534 25.8209 27.2845C25.85 27.2023 25.9038 27.131 25.9748 27.0804C26.0318 27.0311 26.1046 27.004 26.1799 27.0038C26.3278 27.0173 26.4677 27.0768 26.58 27.1739C26.7222 27.3329 26.7996 27.5394 26.7969 27.7526C26.7805 27.8959 26.7549 28.0381 26.7203 28.1781C26.418 28.9099 25.9112 29.539 25.2607 29.9902C24.6565 30.3991 23.9429 30.6159 23.2133 30.6122C21.3708 30.6122 20.0943 30.2491 19.3839 29.5228C19.0188 29.1215 18.7374 28.6513 18.5562 28.1398C18.375 27.6283 18.2976 27.0859 18.3286 26.5441V18.0177H14V16.4295H18.3488V12.8084L17.3531 11.812V11H20.2423L21.3275 11.5618V16.4295L32.5696 16.3954L33.6888 17.5187L26.7954 24.4456C27.2118 24.2782 27.6504 24.1721 28.0974 24.1307C28.982 24.1695 29.8451 24.4159 30.6169 24.85C31.5106 25.2748 32.2638 25.9469 32.7872 26.7867C33.2561 27.4976 33.5881 28.2899 33.7659 29.1228C33.9121 29.7798 33.9905 30.45 33.9999 31.123C34.0045 32.4073 33.7133 33.6754 33.1489 34.8291C32.6137 35.9463 31.7129 36.8471 30.5957 37.3824C29.4521 37.9459 28.1937 38.2371 26.9188 38.2332Z" fill="black"/>
</svg>
