<svg width="48" height="48" viewBox="0 0 48 48" fill="none" xmlns="http://www.w3.org/2000/svg">
<g clip-path="url(#clip0_2_13407)">
<path d="M22.6858 47.9395C20.2513 47.8547 17.8894 47.3581 15.6245 46.4982C9.82282 44.3059 5.51093 40.4179 2.61616 34.9433C2.51926 34.7616 2.4587 34.5799 2.37392 34.3982C2.37392 34.1923 2.30125 34.0107 2.2528 33.8169C2.18013 33.5383 2.21646 33.2597 2.36181 32.9932C2.47081 32.7995 2.60405 32.6057 2.87051 32.642C3.13698 32.6904 3.20965 32.9085 3.20965 33.1386C3.20965 33.72 3.54878 34.0591 4.03327 34.2892C4.27551 34.4225 4.39663 34.6647 4.52986 34.8827C7.90912 40.7207 12.9114 44.3543 19.4882 45.8441C19.9848 45.9531 20.5541 45.8804 20.9538 46.3165C21.0264 46.4376 21.1476 46.4497 21.2687 46.4497C21.7895 46.4497 22.3103 46.3649 22.7948 46.6677C22.8675 46.7162 23.0007 46.7041 23.0976 46.6798C23.9212 46.486 24.7206 46.7767 25.5442 46.7404C25.6896 46.7283 25.8591 46.7888 25.956 46.7041C26.4526 46.3165 26.9129 46.6314 27.3731 46.7646C27.6154 46.8373 27.8455 46.9463 27.7971 47.2612C27.7607 47.5398 27.5306 47.564 27.3005 47.5882C25.7622 47.7941 24.2361 47.9516 22.6858 47.9395Z" fill="#C18A40"/>
<path d="M41.3748 7.50943C43.1916 9.30201 44.5603 11.4216 45.6625 13.7108C46.147 14.7161 46.583 15.7577 46.8737 16.8478C46.8737 17.4292 47.0554 17.9742 47.1523 18.5314C47.2007 18.8342 47.3824 19.1249 46.9464 19.2581C46.583 19.3792 46.0501 19.137 46.0258 18.81C45.9289 17.8168 45.287 16.9932 45.2264 16C45.2143 15.7335 44.9963 15.5397 44.7662 15.4065C44.5482 15.2369 44.4149 15.0189 44.318 14.7767C43.1674 12.1847 41.5323 9.93184 39.4975 7.96969C39.2794 7.76378 39.0614 7.54577 38.9282 7.26719C38.8918 7.04917 38.6133 6.84327 38.8555 6.61314C39.0009 6.4799 39.2673 6.35878 39.4006 6.52835C39.6307 6.83115 40.0667 6.90383 40.2121 7.1824C40.4301 7.59421 40.6239 7.46098 40.8903 7.32775C41.0599 7.33986 41.2052 7.47309 41.3748 7.50943Z" fill="#D9A951"/>
<path d="M10.0773 4.4815C13.1901 2.20444 16.6904 0.835779 20.4936 0.266513C21.0144 0.193841 21.5231 0.0848325 22.0561 0.133281C22.4437 0.0242723 22.8555 0.109057 23.243 0.0848325C23.3521 0.0848325 23.5095 0.0484964 23.5216 0.218065C23.5337 0.351297 23.4247 0.436082 23.3036 0.472418C23.134 0.532978 22.9402 0.496642 22.7707 0.508754C22.6374 0.520866 22.4558 0.496642 22.4315 0.678322C22.4073 0.847891 22.589 0.896339 22.7101 0.944787C22.9524 1.0538 23.2067 1.06591 23.4732 1.04168C23.7033 1.01746 24.0303 0.932675 24.103 1.22336C24.1757 1.53828 23.8123 1.52616 23.6185 1.63517C21.6321 1.79263 19.6579 2.02276 17.7321 2.59202C15.5761 3.23396 13.5534 4.16659 11.676 5.3899C11.3611 5.59581 11.0704 5.86227 10.6707 5.91072C10.4164 5.89861 10.3558 5.74115 10.4648 5.54736C10.6102 5.26878 10.5254 4.82064 10.9978 4.7843C11.1552 4.77219 11.3127 4.79641 11.3975 4.5784C11.1189 4.37249 10.8403 4.4815 10.5617 4.5784C10.2953 4.68741 10.2953 4.67529 10.0773 4.4815Z" fill="#F2E980"/>
<path d="M3.6822 11.2763C3.7791 10.9372 3.98501 10.6586 4.22725 10.4164C4.4816 10.1741 4.65117 10.3316 4.7844 10.5617C4.9903 10.9251 5.12354 11.3127 5.22043 11.7123C5.22043 11.9061 5.14776 12.0636 5.05086 12.2211C3.1735 15.2612 2.11975 18.5678 1.72005 22.1045C1.70794 22.1893 1.69583 22.2619 1.68372 22.3467C1.47781 22.9523 1.59893 23.5821 1.5626 24.212C1.55049 24.4058 1.57471 24.6964 1.33247 24.7086C1.09023 24.7086 1.05389 24.43 1.04178 24.2241C0.993332 23.6185 1.01756 23.0129 1.04178 22.4073C1.04178 22.2619 1.13868 22.056 0.956996 21.9712C0.763204 21.8865 0.702643 22.1045 0.605747 22.2256C0.496739 22.3588 0.424066 22.5405 0.169714 22.5284C0.0849295 22.274 0.0970415 22.0318 0.169714 21.7774C0.339282 18.8706 1.1629 16.1454 2.42255 13.5413C2.78591 12.7903 3.10083 12.003 3.69432 11.3853C3.86388 11.5912 3.91233 11.3732 4.00923 11.3005C3.876 11.3369 3.7791 11.3732 3.6822 11.2763Z" fill="#EFE572"/>
<path d="M47.5156 28.5118C47.1038 31.0311 46.2075 33.3808 44.9842 35.6215C44.4755 36.5541 43.9063 37.4504 43.228 38.2619C43.1553 38.2983 43.0826 38.3104 43.01 38.3588C42.3317 38.9039 41.8836 38.7949 41.5565 37.9712C41.5565 37.729 41.6898 37.5594 41.823 37.3778C43.9426 34.5799 45.2507 31.4308 45.929 28.0031C45.9774 27.7608 46.0138 27.5186 46.2197 27.3611C46.3287 27.3127 46.4377 27.3369 46.474 27.4338C46.6557 27.8698 46.9343 28.1484 47.443 28.1969C47.6125 28.2211 47.552 28.4028 47.5156 28.5118Z" fill="#F2CE64"/>
<path d="M22.686 47.9393C23.1583 47.7455 23.6428 47.8546 24.1152 47.8546C24.745 47.8424 25.3506 47.794 25.9441 47.5639C26.368 47.3943 26.8283 47.5154 27.2643 47.4912C27.4581 47.4791 27.664 47.4549 27.6519 47.2126C27.6519 46.9946 27.3975 47.0794 27.2885 46.9946C26.5497 46.4496 25.823 47.2005 25.072 46.9583C24.1636 46.6676 23.1826 47.0309 22.2499 46.6797C21.8745 46.5343 21.4142 46.5949 21.0024 46.716C20.8328 46.7645 20.6511 46.6918 20.6148 46.5222C20.5785 46.3405 20.7844 46.4253 20.8813 46.3769C21.0751 46.171 21.3173 46.2073 21.5595 46.2315C23.0009 46.3648 24.4664 46.3648 25.8956 46.2436C27.7972 46.0741 29.6746 45.6744 31.4793 44.9961C32.2545 44.7054 33.0054 44.3784 33.7806 44.1119C34.2772 44.0998 34.798 43.9181 35.2098 44.4147C35.2825 44.5116 35.4763 44.3905 35.6095 44.3784C35.8639 44.3542 36.1303 44.2694 36.2635 44.6085C34.0349 46.0256 31.6004 46.9219 29.0206 47.4791C26.9373 47.9151 24.8298 48.1089 22.686 47.9393Z" fill="#C2954C"/>
<path d="M5.12348 11.6275C4.74801 11.4337 4.85701 10.9856 4.639 10.6949C4.51788 10.5374 4.48154 10.3315 4.22719 10.4042C5.80175 8.05448 7.73968 6.06811 10.0652 4.46932C10.3195 4.62678 10.5012 4.42087 10.6466 4.29975C10.9857 4.0454 11.2885 4.33609 11.6034 4.32397C11.7367 4.32397 11.8214 4.57833 11.7367 4.66311C11.5792 4.82057 11.3612 5.0507 11.131 4.97802C10.8404 4.88113 10.695 4.94169 10.8282 5.20815C10.9857 5.5594 10.368 5.52307 10.586 5.83798C10.6466 6.14078 10.4286 6.27401 10.2348 6.41936C8.44218 7.7759 6.96451 9.42314 5.66852 11.2521C5.53529 11.4337 5.43839 11.7002 5.12348 11.6275Z" fill="#EAD773"/>
<path d="M44.8268 15.2974C45.2749 15.2974 45.3718 15.685 45.396 15.9757C45.4808 16.9689 46.1227 17.7925 46.2075 18.7857C46.2439 19.1733 46.7162 19.1127 46.9585 19.0885C47.2976 19.04 46.9827 18.7978 46.9827 18.6282C46.9706 18.0347 46.7041 17.4534 46.8858 16.8478C47.4914 18.6403 47.8184 20.4814 47.9395 22.3708C48.0122 23.4488 48.0728 24.5268 47.8911 25.6048C47.4308 25.1566 47.7821 24.5752 47.6246 24.0786C46.8495 24.0908 46.5951 23.8485 46.7404 23.0976C46.7889 22.819 46.5951 22.6131 46.583 22.3708C46.5345 22.3951 46.4982 22.492 46.4134 22.4314C46.2317 22.2982 46.2075 22.0923 46.1833 21.8985C46.0016 19.9242 45.5171 18.0226 44.8631 16.1695C44.7662 15.8788 44.5845 15.5881 44.8268 15.2974Z" fill="#D7B257"/>
<path d="M40.8418 7.4004C40.7086 7.71532 40.4906 7.90911 40.0425 7.92122C40.3816 7.33984 40.1757 7.12183 39.5943 7.14605C39.4732 7.14605 39.34 7.0976 39.3521 6.94015C39.3642 6.81903 39.5216 6.66157 39.2915 6.61312C39.1704 6.5889 38.9887 6.63735 38.916 6.72213C38.7828 6.87959 39.0614 6.91592 39.0493 7.06127C39.0493 7.0976 39.0129 7.13394 39.0008 7.17028C38.9281 7.1945 38.8313 7.20661 38.7707 7.15816C37.8986 6.54045 36.9902 5.97118 36.2272 5.19601C35.9244 4.75998 35.452 4.54196 35.0523 4.22705C34.7979 4.03326 34.3377 3.93636 34.5073 3.50033C34.6526 3.11274 35.016 2.9674 35.452 3.08852C35.5126 3.10063 35.5731 3.08852 35.6216 3.05218C36.2514 3.29442 36.7964 3.68201 37.3294 4.0817C37.8744 4.67519 38.6011 5.02644 39.2067 5.54726C39.7881 6.04386 40.2484 6.64946 40.8297 7.13394C40.9387 7.20661 40.9266 7.31562 40.8418 7.4004Z" fill="#E6B358"/>
<path d="M35.6337 3.06435C35.5974 3.08857 35.5732 3.1128 35.5368 3.12491C35.1977 3.20969 34.7132 3.25814 34.6527 3.60939C34.5921 3.9243 35.1492 3.94853 35.3309 4.17866C35.6095 4.56624 36.2635 4.5299 36.3483 5.11128C36.1424 5.25663 35.9607 5.14762 35.7912 5.05072C34.7253 4.4209 33.6352 3.82741 32.4846 3.36715C32.315 3.29448 32.1697 3.19758 32.0607 3.04012C31.7579 2.67676 31.3097 2.59198 30.8858 2.49508C30.3166 2.36185 30.0985 1.88948 29.8684 1.45345C29.711 1.16276 29.9532 0.968966 30.3408 0.99319C30.6194 1.0053 30.8374 1.3081 31.1402 1.12642C32.7268 1.58668 34.2408 2.19228 35.6337 3.06435Z" fill="#E8BD61"/>
<path d="M46.5102 22.4437C46.5345 22.371 46.5466 22.2862 46.5708 22.2136C46.6677 22.5164 47.1764 22.6375 46.9463 23.0977C46.8494 23.2915 46.5829 23.4853 46.9826 23.7276C47.3217 23.9335 47.5397 23.994 47.8789 23.6549C47.8789 24.309 47.8789 24.9509 47.8789 25.6049C47.8789 26.586 47.7699 27.5671 47.5155 28.5118C47.4186 28.2333 47.2248 28.5966 47.0068 28.4271C46.6435 28.1364 46.377 27.8457 46.3043 27.3854C46.0379 27.1674 46.1105 26.8767 46.1469 26.5981C46.3164 25.4959 46.268 24.3937 46.2801 23.2794C46.2922 22.9887 46.2438 22.6738 46.5102 22.4437Z" fill="#E2C060"/>
<path d="M23.6549 1.44129C23.7761 1.38073 23.9093 1.33228 24.0789 1.25961C23.8608 1.12638 23.6549 1.21116 23.4975 1.27172C23.013 1.44129 22.6496 1.16271 22.2499 0.993146C22.0683 0.920474 22.0683 0.750906 22.1167 0.581337C22.1773 0.399657 22.2863 0.266424 22.5043 0.266424C22.795 0.278536 23.0857 0.290648 23.3764 0.314872C23.3764 0.254312 23.3885 0.193752 23.3885 0.133192C22.9403 0.133192 22.4922 0.133192 22.0562 0.133192C23.8487 -0.109049 25.6292 0.0241836 27.3976 0.290648C27.4097 0.484441 27.2643 0.508665 27.1311 0.557113C26.9494 0.617673 26.6708 0.629785 26.6951 0.884138C26.7072 1.11427 26.9979 1.07793 27.1674 1.16271C27.4945 1.30806 27.8457 1.36862 28.197 1.4534C28.3665 1.50185 28.5845 1.56241 28.5967 1.7562C28.6088 1.97422 28.3908 2.01056 28.2091 2.05901C27.3855 2.08323 26.5861 1.84099 25.7624 1.79254C25.3022 1.76832 24.8419 1.73198 24.3817 1.71987C24.1273 1.70776 23.8366 1.73198 23.6549 1.44129Z" fill="#EDD674"/>
<path d="M28.3423 1.85307C28.5845 1.76828 28.4634 1.70772 28.3181 1.6835C27.7852 1.59872 27.2765 1.42915 26.7799 1.24747C26.574 1.17479 26.1743 1.18691 26.2712 0.908329C26.3317 0.726649 26.5497 0.399624 26.8768 0.3754C27.0584 0.363288 27.2401 0.399624 27.3976 0.278503C28.6814 0.399624 29.929 0.714537 31.1523 1.11423C30.9222 1.41703 30.692 1.13846 30.4498 1.11423C30.2923 1.10212 30.0986 1.05367 30.0138 1.21113C29.9048 1.39281 30.1349 1.46548 30.1833 1.5866C30.5104 2.34966 31.2855 2.34966 31.9032 2.64035C32.1455 2.74936 32.1455 2.74936 32.0849 2.94315C31.8911 3.11272 31.6731 3.05216 31.4672 2.9916C30.5709 2.72513 29.6867 2.42233 28.7783 2.20432C28.5846 2.15587 28.3786 2.09531 28.3423 1.85307Z" fill="#E9C868"/>
<path d="M41.6655 37.9954C42.2711 38.6858 42.2832 38.6979 42.9009 38.165C43.0947 38.0075 43.131 38.2013 43.2279 38.2619C42.3801 39.5821 41.29 40.6843 40.1273 41.7138C40.0304 41.5321 39.9577 41.3747 39.7154 41.302C39.4369 41.2172 39.122 41.0597 39.0493 40.6964C39.7639 39.7153 40.6117 38.8432 41.4838 38.0075C41.5323 37.9712 41.6049 37.9833 41.6655 37.9954Z" fill="#E9C663"/>
<path d="M3.93644 34.3497C3.4883 34.3618 2.93114 33.7562 2.97959 33.2717C3.00382 33.0779 3.13705 32.8236 2.85847 32.763C2.55567 32.7024 2.50722 33.0537 2.47089 33.2112C2.37399 33.5866 2.39821 33.9863 2.36188 34.3739C1.7805 33.2596 1.33235 32.0847 1.01744 30.8735C1.01744 30.6313 0.968993 30.4012 0.968993 30.1589C0.956881 29.735 1.23546 29.5775 1.59882 29.7955C2.02274 30.0378 2.34977 30.389 2.59201 30.8008C3.16127 31.8304 3.56097 32.9447 3.94856 34.0469C3.997 34.1559 3.98489 34.2528 3.93644 34.3497Z" fill="#C4994B"/>
<path d="M39.1462 40.7086C39.8366 41.2658 39.9093 41.29 40.3695 41.1325C40.3332 41.3506 40.0667 41.4717 40.1273 41.7139C39.4127 42.4528 38.6012 43.0705 37.7412 43.6276C37.2204 43.4459 36.7238 43.2279 36.2878 42.8646C36.2999 42.6344 36.4574 42.5133 36.6148 42.3922C37.3052 41.8956 37.9956 41.3748 38.6496 40.8297C38.795 40.7207 38.9403 40.5875 39.1462 40.7086Z" fill="#DBB85D"/>
<path d="M0.145397 21.7774C0.157509 21.9712 0.169621 22.1771 0.193845 22.4557C0.327077 22.1892 0.436085 21.9833 0.545094 21.7774C0.70255 21.4867 0.969015 21.5836 1.18703 21.62C1.48983 21.6805 1.36871 21.9349 1.33238 22.1044C1.17492 22.9159 1.29604 23.7153 1.29604 24.5268C1.46561 23.788 1.23548 23.0128 1.48983 22.2861C1.76841 22.4799 1.74419 22.7706 1.7563 23.0492C1.7563 24.0302 1.76841 25.0234 1.7563 26.0045C1.74419 26.1256 1.70785 26.2346 1.6594 26.3436C1.52617 26.6222 1.29604 26.5859 1.2597 26.3315C1.16281 25.6048 0.64199 25.3868 0.0727242 25.193C-0.0241721 24.0545 -0.0362841 22.9159 0.145397 21.7774Z" fill="#E0D16A"/>
<path d="M2.49502 30.8494C2.18011 30.5708 1.85308 30.2922 1.53817 30.0015C1.4655 29.9289 1.41705 29.832 1.30804 29.8562C1.1627 29.8804 1.1627 30.0258 1.15059 30.1348C1.12636 30.3891 1.22326 30.6556 1.04158 30.8857C0.75089 30.0621 0.532873 29.2143 0.423865 28.3422C0.532873 28.1242 0.399641 27.9183 0.411753 27.7003C0.435977 27.2158 0.581321 27.1189 1.05369 27.24C1.42916 27.3369 1.57451 27.7003 1.88942 27.8698C2.28912 28.8146 2.5677 29.7956 2.49502 30.8494Z" fill="#CCAB58"/>
<path d="M36.3484 42.8523C36.9298 42.9128 37.3779 43.1914 37.7413 43.6275C37.3052 44.0271 36.7844 44.3178 36.2636 44.5843C36.0335 44.4147 35.7912 44.5358 35.5732 44.5722C35.2825 44.6206 34.9797 44.875 34.8828 44.3299C34.8586 44.1604 34.6164 44.1967 34.4589 44.2209C34.2893 44.2452 34.1198 44.3784 33.9502 44.2331C33.9502 44.0756 34.0471 43.9666 34.1682 43.8939C34.7496 43.5669 35.3067 43.2035 35.9002 42.9007C36.0335 42.816 36.1909 42.7675 36.3484 42.8523Z" fill="#D0A958"/>
<path d="M1.7563 27.8335C1.74419 27.894 1.74419 27.9546 1.71997 28.0152C1.69574 28.0878 1.64729 28.0757 1.62307 28.0031C1.58673 27.9062 1.57462 27.785 1.51406 27.7366C1.27182 27.5307 0.96902 27.3006 0.666219 27.3853C0.399755 27.458 0.569323 27.7971 0.532987 28.0152C0.508763 28.1363 0.508763 28.2574 0.411867 28.3422C0.19385 27.3006 0.0363934 26.2589 0.0485055 25.1931C0.860012 24.9508 1.33238 25.3505 1.39294 26.3558C1.40505 26.3558 1.42928 26.3558 1.44139 26.3558C1.4535 26.3437 1.46561 26.3316 1.47773 26.3195C1.48984 26.2589 1.50195 26.1984 1.51406 26.1499C2.10755 26.6344 1.86531 27.24 1.7563 27.8335Z" fill="#D6BB61"/>
<path d="M40.8419 7.4004C40.0546 6.52833 39.3036 5.61993 38.2862 4.9901C37.9108 4.75997 37.5353 4.51773 37.3536 4.09381C38.8555 5.03855 40.212 6.17708 41.3869 7.5094C41.181 7.53363 41.0114 7.49729 40.8419 7.4004Z" fill="#D4B06E"/>
<path d="M3.6821 11.2764C3.93646 11.2764 4.03335 11.0463 4.22715 10.8888C4.4815 11.5186 3.70633 11.4217 3.59732 11.773C3.60943 11.6397 3.63366 11.5065 3.64577 11.3733C3.66999 11.3369 3.66999 11.3127 3.6821 11.2764Z" fill="#EAD773"/>
<path d="M1.75628 27.8334C1.51404 27.2884 1.75628 26.6707 1.51404 26.1377C1.50193 24.8538 1.48982 23.57 1.47771 22.2861C1.84107 18.4466 3.06438 14.8977 5.12343 11.6275C6.63743 9.411 8.47846 7.48518 10.5981 5.83795C12.4754 4.55407 14.4497 3.45188 16.6178 2.70093C18.8948 1.91365 21.2567 1.53817 23.6548 1.44128C25.2294 1.41705 26.7919 1.64718 28.3422 1.84097C29.5897 2.20434 30.8494 2.5677 32.0969 2.93106C33.5625 3.54877 34.9675 4.29972 36.3483 5.09911C37.2324 5.7895 38.1287 6.46777 39.0129 7.15816C41.0598 9.09608 42.804 11.252 44.0757 13.7834C44.3301 14.28 44.5723 14.7887 44.8267 15.2853C45.1174 16.1695 45.396 17.0537 45.6866 17.95C46.1469 19.4034 46.3044 20.9295 46.5224 22.4314C46.5587 24.0787 46.5466 25.7259 46.3165 27.3731C45.8562 29.8077 45.1537 32.1695 43.991 34.3739C43.3611 35.5851 42.6344 36.7358 41.7623 37.7774C41.7139 37.8379 41.7018 37.9227 41.6776 37.9833C40.8782 38.928 40.0424 39.8364 39.1583 40.6964C38.2256 41.411 37.293 42.1256 36.3604 42.8402C35.561 43.3005 34.7495 43.7607 33.9501 44.221C31.5156 45.4201 28.9115 46.062 26.2468 46.4617C25.6776 46.5465 25.0841 46.4981 24.5027 46.4981C23.3036 46.5102 22.1045 46.5223 20.9054 46.3648C19.4156 46.0257 17.9137 45.7592 16.4724 45.2263C11.022 43.2157 6.89179 39.6911 4.11813 34.5919C4.06968 34.5071 4.00912 34.4345 3.94856 34.3497C3.39141 33.2111 2.95538 32.0242 2.49512 30.8372C2.24077 29.844 1.99852 28.8387 1.75628 27.8334Z" fill="black"/>
<path d="M16.3876 36.0939C14.3649 33.841 13.0325 31.1885 12.0515 28.3422C10.9372 25.1446 10.4042 21.838 10.2952 18.4466C10.2468 17.1143 10.3316 15.7941 10.3558 14.4618C10.3558 14.0863 10.5011 13.8804 10.8524 13.7472C11.3369 13.5655 11.8092 13.3353 12.2937 13.1173C12.9841 13.0325 13.2748 13.1658 13.4807 13.6503C13.5897 13.9046 13.517 14.1226 13.2627 14.1832C12.972 14.2559 12.7903 14.5223 12.5602 14.5829C11.6518 14.8615 11.7608 15.6124 11.7487 16.2422C11.7244 17.6351 11.6518 19.0401 11.7729 20.433C11.7729 20.4572 11.8456 20.4572 11.894 20.4572C12.1605 20.6631 12.1241 20.9538 12.1484 21.2324C12.5844 25.2536 13.6503 29.0568 15.8304 32.5087C16.4118 33.4292 17.0416 34.3255 17.8289 35.0886C18.0227 35.2702 18.2044 35.464 18.2892 35.7184C18.592 36.3119 18.8705 36.9054 18.9917 37.5594C19.0401 37.8138 19.2702 38.0802 18.9553 38.3104C18.3376 38.1045 18.0106 37.5352 17.5382 37.1476C17.1143 36.8327 16.8236 36.3846 16.3876 36.0939Z" fill="#C69A3D"/>
<path d="M28.1243 9.71388C30.0743 10.6586 32.0243 11.6034 33.9744 12.5602C34.7496 12.9357 35.5247 13.3354 36.2999 13.6987C36.5421 13.8077 36.6875 13.9289 36.7117 14.2196C36.954 17.5019 36.8328 20.7722 36.312 24.0182C36.312 24.0545 36.2757 24.0909 36.2636 24.1272C35.7912 23.57 35.767 22.8433 35.6095 22.1893C35.5247 21.838 35.4763 21.4504 35.4642 21.075C35.5368 19.9122 35.5974 18.7616 35.5974 17.5988C35.5853 16.7752 35.5368 15.9637 35.4642 15.1401C35.4278 14.6919 35.2098 14.5345 34.7859 14.6435C34.471 14.6798 34.2166 14.5466 34.0107 14.3286C33.8654 14.1348 33.7079 13.9773 33.4778 13.8562C32.1212 13.081 30.7041 12.4149 29.4687 11.4217C28.8994 10.9614 28.1364 10.7918 27.5187 10.3679C27.1795 10.1378 26.8525 9.90767 26.6345 9.56853C26.5618 9.45952 26.477 9.31418 26.6103 9.19306C26.7193 9.09616 26.8283 9.15672 26.9494 9.20517C27.337 9.36263 27.664 9.70176 28.1243 9.71388Z" fill="#DABE4C"/>
<path d="M33.2234 32.8478C31.9395 35.1369 30.2923 37.0991 28.1848 38.6736C27.9668 38.8432 27.7245 38.9764 27.4944 39.1218C27.1916 39.2671 27.1795 38.9885 27.2158 38.8553C27.337 38.3587 27.0705 38.2618 26.6829 38.2497C26.5376 38.2497 26.4164 38.1892 26.3922 38.0196C26.4043 37.8137 26.5618 37.7047 26.7071 37.6078C28.5966 36.3481 30.1833 34.7978 31.4429 32.9083C31.5519 32.7387 31.6852 32.5813 31.9032 32.5328C32.3271 32.7145 32.1575 32.9931 32.0243 33.2717C31.9032 33.5139 31.6488 33.6956 31.7578 34.1074C32.0849 33.7198 32.4119 33.3807 32.6905 33.0052C32.8237 32.8235 32.9569 32.5813 33.2597 32.7387C33.2719 32.7387 33.2719 32.7751 33.2719 32.7872C33.2476 32.8114 33.2355 32.8235 33.2234 32.8478Z" fill="#F0DE8C"/>
<path d="M16.8721 10.9129C18.6646 10.0166 20.4693 9.12028 22.274 8.2361C22.6132 8.07865 22.8917 7.80007 23.2914 7.76373C23.5942 7.83641 23.6185 7.87274 23.4731 8.06653C23.3278 8.26033 23.0976 8.36933 22.9402 8.55102C22.8554 8.6358 22.7706 8.7327 22.8675 8.85382C22.9402 8.9386 23.0492 8.97494 23.134 8.92649C23.8607 8.51468 24.4178 9.0355 25.0234 9.27774C25.1203 9.37463 25.1688 9.48364 25.1567 9.60476C25.1325 9.70166 25.0719 9.76222 24.975 9.79856C24.7933 9.85912 24.5995 9.82278 24.4542 9.72588C23.897 9.37463 23.4125 9.5442 22.8796 9.82278C21.5473 10.5132 20.2029 11.2278 18.8221 11.8213C18.6041 11.9182 18.3861 12.0393 18.1317 11.9908C18.0348 11.9666 17.9258 11.9303 17.8895 11.8334C17.7199 11.3731 17.4534 11.0219 16.8963 11.0461C16.8599 11.0582 16.8357 10.9613 16.8721 10.9129Z" fill="#F4E695"/>
<path d="M25.1083 9.58049C25.072 9.49571 25.0235 9.42304 24.9872 9.33825C24.9872 9.25347 24.9387 9.19291 24.8661 9.14446C24.6602 9.01123 24.4543 8.85377 24.5754 8.56308C24.6965 8.26028 24.9509 8.23606 25.2173 8.27239C26.1863 8.75688 27.1553 9.22924 28.1242 9.71372C27.7972 9.93174 27.6155 9.60472 27.3733 9.53204C27.131 9.45937 26.9493 9.22924 26.586 9.24136C26.9736 9.65317 27.349 9.93174 27.7245 10.2467C28.4149 10.8038 29.3475 10.8765 30.0016 11.579C30.3044 11.906 30.7646 12.4389 31.4308 12.3299C31.5762 12.3057 31.6246 12.4389 31.6125 12.5843C31.6004 12.766 31.7215 12.8144 31.8668 12.8507C32.642 13.0082 33.1628 13.638 33.8896 13.8924C33.9865 13.9287 34.1924 13.9893 34.0591 14.1952C33.8169 14.389 33.5868 14.2436 33.3809 14.1346C31.2128 13.0566 29.0568 11.9787 26.8646 10.937C26.6829 10.8523 26.5133 10.7432 26.3801 10.5858C26.2105 10.2224 25.835 10.1376 25.5443 9.95597C25.3748 9.84696 25.1568 9.81062 25.1083 9.58049Z" fill="#E8D263"/>
<path d="M35.2823 28.1121C35.0159 29.081 34.6646 30.0137 34.1923 30.8979C33.9742 30.9584 33.95 31.1401 33.9137 31.3218C33.841 31.6609 33.623 31.891 33.3808 32.1091C33.1627 32.3028 32.9326 32.4119 32.6783 32.1938C32.4239 31.9758 32.436 31.7336 32.5814 31.4429C32.9205 30.7767 33.296 30.1227 33.5261 29.396C33.5988 29.1779 33.6109 28.972 33.5867 28.754C34.0348 27.1431 34.5435 25.5564 34.8342 23.9092C34.8705 23.7275 34.9553 23.5701 35.137 23.4853C35.5488 23.6064 35.4761 23.9334 35.4519 24.2241C35.4035 24.7449 35.2823 25.2536 35.1249 25.7502C34.9311 26.3801 34.8705 26.9978 35.1855 27.6155C35.2702 27.7487 35.4156 27.9183 35.2823 28.1121Z" fill="#F0DA5D"/>
<path d="M35.2825 28.1121C34.6042 27.3006 34.6527 26.4285 34.9434 25.4716C35.1372 24.8418 35.4521 24.1999 35.1614 23.4974C35.0282 23.4126 34.9555 23.2794 34.9797 23.134C35.0403 22.4436 35.0282 21.729 35.3431 21.075C35.44 21.0023 35.5369 20.9902 35.6459 21.0629C35.7064 22.1166 36.1909 23.0735 36.2636 24.1151C36.094 25.508 35.7428 26.8161 35.2825 28.1121Z" fill="#E8D04E"/>
<path d="M22.9281 40.7813C21.8501 40.3937 20.7963 39.9455 19.9 39.2188C20.2392 38.6859 20.6752 38.6738 21.2687 39.2309C21.087 38.8918 20.9296 38.589 20.6873 38.3347C20.5299 38.1651 20.4209 37.9592 20.7358 37.8138C21.6442 38.0924 22.5162 38.4558 23.3156 38.9766C23.5458 39.2552 23.9091 39.3763 24.0787 39.7275C24.224 40.0182 24.3694 40.321 24.1514 40.6238C23.9455 40.9024 23.6306 40.8782 23.3277 40.8055C23.2066 40.7934 23.0734 40.7207 22.9281 40.7813Z" fill="#D3B046"/>
<path d="M20.7602 37.8987C20.5785 38.0803 20.7117 38.1772 20.8692 38.262C21.281 38.4679 21.3173 38.9039 21.4506 39.2673C21.5111 39.449 21.5354 39.7155 21.2204 39.8002C21.0267 38.9645 20.7481 38.8434 19.9002 39.2431C19.6095 39.1341 19.3673 38.9524 19.1614 38.7223C19.1251 38.5527 18.8344 38.5285 18.9313 38.2862C18.6285 37.5474 18.7496 36.639 18.0834 36.0334C17.9986 35.9607 18.0713 35.8881 18.1561 35.8638C18.3741 35.8396 18.5316 35.9728 18.689 36.094C19.2704 36.5542 19.8518 37.0024 20.4453 37.4384C20.6027 37.5474 20.7965 37.6564 20.7602 37.8987Z" fill="#CAA53F"/>
<path d="M33.7442 28.8266C33.9501 29.3716 33.6473 29.844 33.3929 30.2437C33.1144 30.704 33.0901 31.2854 32.6783 31.6729C32.5451 31.7941 32.6662 31.9757 32.7994 32.0848C32.9327 32.1938 33.0538 32.1938 33.1628 32.0605C33.4293 31.7577 33.8774 31.6003 33.8532 31.0794C33.8411 30.9099 33.9622 30.704 34.2044 30.9099C33.9743 31.6003 33.6352 32.2422 33.2355 32.8478C33.0901 32.7267 32.9811 32.8478 32.9569 32.9447C32.7873 33.4898 32.1333 33.6957 32.0243 34.2892C31.9758 34.5435 31.8184 34.3739 31.7094 34.3497C31.4187 34.2892 31.3823 34.0469 31.4429 33.841C31.5156 33.623 31.6609 33.4171 31.8063 33.2354C31.9637 33.0295 32.0969 32.8478 31.9153 32.5935C31.7578 32.3633 31.9153 32.1695 32.0122 31.9879C32.5209 31.1642 32.8842 30.2801 33.2597 29.408C33.3687 29.1657 33.4414 28.8872 33.7442 28.8266Z" fill="#F0DE7C"/>
<path d="M22.928 40.7813C23.0855 40.6481 23.2793 40.745 23.4489 40.7329C23.6669 40.7208 23.9212 40.7571 24.0545 40.5391C24.1998 40.2968 24.0424 40.0667 23.9333 39.8608C23.7638 39.558 23.4852 39.3521 23.1703 39.2189C23.1703 39.2189 23.1703 39.1704 23.1824 39.1583C23.2187 39.1341 23.2551 39.122 23.2914 39.1099C23.6305 38.9645 24.006 38.9524 24.3573 38.8918C24.5874 38.9524 24.7933 38.9524 25.0355 38.8192C25.4716 38.589 25.7986 38.8676 26.0893 39.1704C26.3436 39.4369 26.3194 39.7033 26.0772 39.9698C25.411 40.4422 24.6358 40.6965 23.8728 40.9872C23.5336 41.1447 23.243 40.8782 22.928 40.7813Z" fill="#DEC361"/>
<path d="M13.6018 12.4875C14.171 12.209 14.7282 11.9304 15.2975 11.6518C16.0969 11.5791 16.4723 11.9546 16.436 12.8267C15.7214 13.4323 14.922 13.8683 13.9894 14.0379C13.7471 13.9531 13.7956 13.7593 13.8561 13.5897C14.0015 13.1779 13.844 12.8267 13.6018 12.4875Z" fill="#DBC067"/>
<path d="M13.602 12.4874C14.1349 12.7297 14.256 13.202 13.9532 13.9288C14.0138 14.1347 13.8563 14.2194 13.7352 14.3042C13.5899 14.4132 13.4203 14.4859 13.2507 14.5344C12.3665 14.8129 11.8094 15.3216 11.9426 16.3391C11.7731 17.3565 11.7609 18.3618 11.979 19.3671C12.0153 19.7425 12.1122 20.118 11.7973 20.4329C11.7852 20.554 11.7731 20.6631 11.7488 20.7842C11.3855 19.1127 11.6277 17.4291 11.5793 15.7456C11.555 14.9704 11.8336 14.6555 12.4634 14.4496C12.5846 14.4132 12.6451 14.171 12.7541 14.1589C13.7231 14.0499 13.2023 13.6744 12.96 13.2747C12.7541 12.9598 12.4513 13.3958 12.2939 13.1173C12.7299 12.9356 13.1175 12.6085 13.602 12.4874Z" fill="#C8A34F"/>
<path d="M25.2173 8.28452C25.0961 8.34508 24.9508 8.38141 24.8418 8.4662C24.6238 8.64788 24.5027 8.84167 24.9266 8.93857C25.302 9.02335 25.3384 9.15658 24.975 9.33826C24.7449 9.35037 24.5632 9.26559 24.3452 9.18081C23.9939 9.02335 23.6548 8.769 23.2309 9.14447C23.0008 9.35037 22.6737 9.18081 22.5042 8.93857C22.3346 8.69633 22.5647 8.53887 22.7343 8.40564C22.9281 8.26029 23.1219 8.12706 23.3157 7.98172C23.461 7.87271 23.4489 7.80004 23.2672 7.7637C23.5216 7.50935 23.8002 7.54568 24.0908 7.70314C24.4784 7.89693 24.8539 8.09072 25.2173 8.28452Z" fill="#F3E385"/>
<path d="M16.4118 12.7418C16.1574 12.2573 16 11.688 15.2975 11.6517C15.782 11.3368 16.327 11.1067 16.8599 10.9008C17.1264 11.1914 17.5019 10.5132 17.732 10.9855C17.8773 11.2762 17.9137 11.6275 18.1196 11.9061C17.8168 12.4269 16.981 12.8387 16.4118 12.7418Z" fill="#E6D180"/>
<path d="M26.0893 39.9818C26.1741 39.5579 26.0166 39.2551 25.6533 39.0492C25.4352 38.9159 25.2172 38.819 25.0113 39.0492C24.7933 39.2914 24.5874 39.1945 24.3815 39.0492C24.9386 38.4436 25.5927 38.056 26.4405 38.0439C26.6222 38.2255 26.9008 37.9591 26.9129 38.0075C26.9977 38.2982 28.0272 37.9712 27.3974 38.7221C27.3489 38.7827 27.252 39.037 27.4943 39.1097C27.0704 39.4852 26.598 39.7638 26.0893 39.9818Z" fill="#E6D17A"/>
<path d="M18.9312 38.274C19.0038 38.4194 19.0886 38.5647 19.1613 38.7101C18.0833 37.9955 17.187 37.0992 16.3755 36.0939C16.642 36.1181 16.7873 36.2756 16.9569 36.4693C17.5625 37.1355 18.2408 37.7048 18.9312 38.274Z" fill="#BA9E60"/>
<path d="M26.4407 38.0438C25.7503 38.383 25.072 38.71 24.3817 39.0491C24.0183 39.1218 23.6792 39.3883 23.2916 39.1218C22.4558 38.6979 21.5353 38.4556 20.7723 37.9106C19.8881 37.2565 18.9555 36.6509 18.1682 35.8636C16.1818 33.7925 14.7041 31.3943 13.6746 28.7175C12.7178 26.2225 12.1606 23.6426 11.9063 20.978C11.8941 20.7963 11.8457 20.6267 11.8215 20.445C11.8094 20.0938 11.7851 19.7425 11.773 19.3792C11.7125 18.3375 11.7246 17.2959 11.7609 16.2543C11.6156 15.2247 12.1243 14.6797 13.069 14.4011C13.3839 14.3042 13.6746 14.0983 13.9774 13.9409C14.8253 13.6017 15.6368 13.202 16.4362 12.7539C17.0297 12.5116 17.611 12.2573 18.144 11.9181C19.7427 11.143 21.3658 10.4163 22.9403 9.58053C23.5338 9.26561 23.9941 9.16872 24.5512 9.5563C24.6723 9.64109 24.8056 9.76221 24.9873 9.71376C25.5323 9.83488 26.0168 10.0892 26.4528 10.4405C28.2212 11.3247 30.0016 12.2209 31.77 13.093C32.5331 13.4685 33.2598 13.9166 34.0713 14.1952C34.253 14.3648 34.471 14.4375 34.7011 14.5101C35.44 14.6312 35.4763 14.6191 35.5611 15.467C35.7428 17.2596 35.7306 19.0643 35.5247 20.8689C35.5126 20.9537 35.4763 21.0264 35.44 21.087C35.3552 21.8985 35.2704 22.6979 35.1856 23.5094C34.9312 24.5752 34.7132 25.6532 34.4347 26.7191C34.253 27.4337 33.9986 28.1241 33.7685 28.8266C33.2598 30.1225 32.6542 31.3822 31.9396 32.5813C31.3703 33.2959 30.8979 34.0832 30.2923 34.7736C29.1417 36.0574 27.8336 37.0991 26.4407 38.0438Z" fill="#060303"/>
<path d="M35.4157 21.087C35.561 19.8274 35.5247 18.5677 35.5368 17.296C35.5368 16.872 35.5126 16.4481 35.5126 16.0242C35.5126 15.358 35.452 14.7403 34.6889 14.4981C35.3067 14.268 35.5852 14.4496 35.6579 15.0674C35.8396 16.545 35.7548 18.0348 35.7669 19.5125C35.779 20.0333 35.5852 20.542 35.6458 21.0628C35.561 21.087 35.4883 21.087 35.4157 21.087Z" fill="#D9C96A"/>
<path d="M26.4286 10.4405C25.9199 10.2346 25.4233 10.0165 24.9631 9.71374C25.0115 9.66529 25.06 9.62895 25.1084 9.58051C25.4839 9.75007 25.8593 9.91964 26.2227 10.1013C26.3438 10.1619 26.5376 10.2103 26.4286 10.4405Z" fill="#F3E385"/>
<path d="M11.7488 16.2544C11.7488 17.296 11.7488 18.3377 11.7609 19.3793C11.6034 18.3377 11.6155 17.296 11.7488 16.2544Z" fill="#C69A3D"/>
<path d="M13.2264 15.5032C13.614 15.261 14.0137 15.0551 14.4497 14.9097C15.0674 14.8613 15.5398 14.4374 16.0969 14.2315C16.4724 14.0982 16.7873 13.8075 17.2234 13.8439C17.5625 13.9771 17.6957 14.2799 17.8047 14.5827C17.8532 14.8613 18.1318 14.7644 18.2892 14.8855C18.3982 15.0066 18.5436 15.1156 18.4224 15.2973C18.3134 15.4427 18.1318 15.479 17.9864 15.4306C17.3687 15.2125 16.7631 15.4063 16.1454 15.4669C15.9274 15.4911 15.6246 15.5638 15.8789 15.8666C16.3392 16.3995 16.8115 16.9082 17.0417 17.5986C17.078 17.6955 17.2355 17.7439 17.3324 17.8045C17.8168 18.3253 18.0228 19.0157 18.3619 19.6213C18.6041 20.0331 18.8221 20.457 19.0765 20.8689C19.3309 21.2201 19.4277 21.6561 19.7063 21.9832C20.0212 22.3102 19.9728 22.831 20.3119 23.1338C20.5663 23.6546 20.9296 24.127 20.9296 24.7447C20.9296 26.2224 20.9296 27.6879 20.9296 29.1656C20.9296 29.3957 21.0023 29.7712 20.7116 29.7712C20.3604 29.7833 20.4573 29.3957 20.4452 29.1535C20.433 28.5721 20.4573 27.9786 20.433 27.5426C20.4815 28.3056 20.3846 29.2019 20.4936 30.1103C20.5057 30.2557 20.4694 30.3889 20.3846 30.51C20.3483 30.5827 20.2998 30.6554 20.2029 30.6554C20.0697 30.6554 20.0333 30.5585 19.997 30.4737C19.9365 30.3041 19.9486 30.1103 19.9486 29.9287C19.9486 28.6206 19.9486 27.3003 19.9486 25.9922C19.9486 25.6894 19.9243 25.3866 19.8274 25.096C19.1734 23.6304 18.3619 22.2496 17.6109 20.8325C17.2718 20.1906 16.9448 19.5486 16.6056 18.9188C16.1575 18.0831 15.6972 17.2595 15.0674 16.557C14.9584 16.2784 14.7162 16.3995 14.5224 16.3995C14.4376 16.3874 14.3649 16.3511 14.3044 16.2905C14.377 15.5638 13.832 15.7818 13.4565 15.7455C13.3596 15.6849 13.2627 15.6243 13.2264 15.5032Z" fill="#F3E57C"/>
<path d="M28.6207 34.9069C28.1605 35.4399 27.6518 35.9001 27.0461 36.2635C26.7676 36.1666 26.7555 36.5421 26.5374 36.5542C26.3921 36.5663 26.2468 36.7359 26.0893 36.6026C25.9318 36.4694 26.0045 36.2998 26.0772 36.1666C26.1983 35.9486 26.162 35.7911 25.9561 35.67C25.8228 35.3309 26.0772 35.1976 26.3073 35.0765C26.5253 34.9554 26.7191 34.8222 26.8887 34.6526C27.0461 34.483 26.8281 34.483 26.7555 34.4225C26.6464 34.374 26.5496 34.3256 26.4527 34.265C25.7502 34.1923 25.1082 33.829 24.3694 33.8895C24.1635 33.9016 23.8001 33.9016 23.9455 33.4777C24.5874 33.1749 25.2536 33.3445 25.9076 33.3324C26.9493 33.3082 26.9371 33.3324 26.5617 32.3634C26.3436 31.8063 26.2104 31.237 26.2346 30.6072C26.2952 29.2022 26.271 27.7851 26.2468 26.3801C26.2346 25.6776 26.4769 25.0962 26.9371 24.5754C27.3974 24.5754 27.2884 24.9024 27.2036 25.1204C26.9977 25.6776 26.9735 26.1863 27.3247 26.6829C27.3247 28.0515 27.3489 29.4202 27.4095 30.7767C27.4216 31.2007 27.3732 31.673 27.8092 31.9758C28.3664 32.0727 28.1483 32.5693 28.2937 32.8721C28.4633 33.5867 28.9477 33.5383 29.4928 33.3687C29.5776 33.4051 29.6381 33.4656 29.6624 33.5504C29.6866 33.9622 29.2627 34.047 29.0931 34.3256C28.9599 34.5194 28.7297 34.6647 28.6207 34.9069Z" fill="#EACF6E"/>
<path d="M20.4816 11.9908C21.4505 11.4094 22.5043 10.9976 23.4975 10.4889C23.7397 10.3678 23.9214 10.4768 24.1273 10.5737C27.4339 12.1967 30.7405 13.8318 34.0471 15.4548C34.2651 15.5638 34.4104 15.6728 34.4104 15.9514C34.4104 16.5691 34.4225 17.199 34.4346 17.8167C34.2409 18.1558 34.471 18.5676 34.2772 18.9552C33.7564 18.5676 34.0592 17.9984 33.8896 17.4896C33.611 17.7682 33.7685 18.2164 33.4657 18.4465C33.1265 18.4344 33.1265 18.1679 33.1629 17.9741C33.3446 17.0052 32.957 16.4238 32.0244 16.1573C31.8911 16.121 31.7821 16.0241 31.7337 15.8787C32.1334 15.5033 31.9032 15.2489 31.5762 14.9946C30.91 14.4738 30.1228 14.1346 29.3718 13.7591C28.5482 13.4079 27.7367 13.0082 26.9494 12.5722C26.1379 12.1846 25.3385 11.7607 24.5391 11.361C23.9941 11.0097 23.4611 11.046 22.9161 11.3731C22.6254 11.5426 22.3105 11.6638 21.9956 11.8091C21.5838 11.9908 21.2204 12.2694 20.7359 12.2572C20.6148 12.1967 20.5179 12.1361 20.4816 11.9908Z" fill="#A48849"/>
<path d="M20.3724 36.227C19.8637 35.8637 19.3187 35.5366 18.919 35.04C18.7252 34.5919 18.2286 34.4344 17.9985 34.0226C17.9258 33.8894 17.732 33.8046 17.8653 33.6108C17.9864 33.4291 18.1681 33.4412 18.3497 33.5139C18.7373 33.6835 19.0643 33.7925 18.919 33.1263C18.8706 32.872 19.1612 32.7993 19.3914 32.7751C19.9001 32.7024 20.2998 32.9931 20.7358 33.1869C20.9054 33.2596 21.0749 33.3322 21.2445 33.3807C21.838 33.5745 22.4436 33.4534 23.0371 33.4897C23.4247 33.5139 23.7154 33.6472 23.6185 34.1195C23.5095 34.3254 23.2793 34.3254 23.0977 34.4223C22.3467 34.5071 21.5958 34.4344 20.8327 34.4708C20.6026 34.4829 20.4209 34.3375 20.2271 34.2528C20.4572 34.7372 21.0628 34.8584 21.293 35.3428C21.0023 35.6578 20.5662 35.8152 20.3724 36.227Z" fill="#D8A24B"/>
<path d="M19.4157 32.9448C19.234 32.9932 18.8949 32.8963 19.1008 33.2839C19.1735 33.4293 19.5126 33.5019 19.3309 33.6836C19.1493 33.8774 18.8465 33.9259 18.5436 33.8895C18.3256 33.8653 18.1561 33.3929 17.9623 33.6957C17.8169 33.9137 18.2287 34.0833 18.3741 34.2771C18.5558 34.5315 18.907 34.6647 18.907 35.0402C17.6595 34.0106 16.7026 32.7631 15.9153 31.3702C15.988 31.2249 15.7215 31.0674 15.9517 30.9342C16.2787 30.8373 16.3514 31.0795 16.4361 31.3097C16.4725 31.4187 16.5209 31.564 16.6663 31.5156C16.7995 31.4671 16.7874 31.3339 16.7874 31.2128C16.7874 30.9705 16.5815 30.7283 16.7511 30.4739C16.8237 30.4134 16.9085 30.377 17.0054 30.3649C18.3135 30.159 18.5073 30.2559 19.0402 31.5156C19.0281 31.8305 19.1371 32.0969 19.3067 32.3513C19.4157 32.5209 19.5974 32.7025 19.4157 32.9448Z" fill="#D0A45B"/>
<path d="M32.2303 29.9168C31.6973 30.9947 31.0433 31.9879 30.3166 32.9448C30.0864 32.9932 30.0743 32.7994 30.1107 32.6904C30.2076 32.4361 30.0864 32.2302 30.038 32C29.9653 31.6003 29.7836 31.4186 29.3718 31.3944C29.1659 31.3823 28.8389 31.455 28.7783 31.1158C28.7299 30.8252 28.8995 30.6314 29.1659 30.5102C29.5535 30.4012 29.9774 30.5708 30.3529 30.377C30.9464 29.8925 31.0917 29.1537 31.4309 28.5239C31.6247 28.1484 31.7337 27.7366 31.9032 27.349C31.9638 27.2763 32.0365 27.2279 32.1212 27.2158C32.5936 27.458 32.2908 27.8456 32.3029 28.1726C32.315 28.4149 32.1334 28.6934 32.5088 28.8146C32.6421 29.2385 32.1697 29.5171 32.2303 29.9168Z" fill="#F2D876"/>
<path d="M20.3725 36.227C20.1908 35.4761 20.8449 35.5366 21.2446 35.3549C21.4383 35.258 21.5958 35.3428 21.7533 35.4276C22.3589 35.7667 23.0371 35.9605 23.5943 36.4087C23.7033 37.1596 24.0667 37.3655 24.7934 37.087C24.9993 37.0022 25.181 36.8689 25.3869 36.7842C25.617 36.6994 25.8592 36.6267 25.9804 36.9537C25.3627 37.414 24.648 37.6441 23.9334 37.9106C23.8002 37.959 23.667 37.959 23.5337 37.9106C22.7707 37.6199 22.0197 37.3171 21.3536 36.8326C21.1598 36.6025 21.0508 36.227 20.6147 36.3723C20.5178 36.3481 20.4088 36.3481 20.3725 36.227Z" fill="#E1B051"/>
<path d="M33.4534 18.4224C33.4655 18.0469 33.4413 17.6593 33.6109 17.3081C33.6957 17.1385 33.8047 16.9689 34.0106 17.0174C34.2165 17.0537 34.1801 17.2596 34.1801 17.4171C34.1801 17.8531 34.1801 18.2891 34.1801 18.8221C34.4103 18.4466 34.168 18.0711 34.4345 17.8168C34.4708 19.0401 34.5193 20.2755 34.3134 21.4988C34.059 21.8259 34.3134 22.2619 34.059 22.5889C33.4655 22.5041 33.1748 22.0439 33.296 21.2445C33.3444 20.9296 33.3565 20.6631 33.187 20.3845C33.1748 19.7184 33.1748 19.0522 33.4534 18.4224Z" fill="#BD9544"/>
<path d="M25.9805 36.9658C25.7382 36.7963 25.5081 36.8689 25.3264 37.0506C24.7087 37.632 24.0546 37.4624 23.3885 37.1475C23.2431 37.0749 23.2189 36.9658 23.34 36.8689C23.4854 36.7599 23.5459 36.6267 23.5338 36.4571C23.7761 36.1907 24.2242 36.1907 24.3938 35.8394C24.8056 35.6335 25.1447 35.2702 25.6413 35.2581C25.8593 35.2702 25.8351 35.4882 25.932 35.6093C26.0895 35.682 26.3196 35.4761 26.4165 35.7062C26.5255 36.009 26.368 36.2391 26.0168 36.445C26.683 36.6509 26.7677 36.0211 27.1553 35.9121C27.2522 36.0696 27.0584 36.1422 27.0584 36.2755C26.7314 36.554 26.3802 36.7963 25.9805 36.9658Z" fill="#EBC15C"/>
<path d="M29.2263 30.6312C29.0447 30.7402 28.8751 30.8976 28.9235 31.1035C28.972 31.3216 29.2021 31.152 29.3475 31.1762C30.1347 31.3094 30.5223 31.9514 30.2438 32.7266C30.2195 32.8113 30.2438 32.884 30.3043 32.9325C30.2074 33.2595 29.9652 33.4775 29.7108 33.6955C29.626 33.6834 29.626 33.5865 29.5655 33.5381C29.5291 33.5017 29.4807 33.4533 29.4444 33.417C29.3232 33.3443 29.0568 33.4775 29.081 33.1747C29.2263 32.9688 29.5413 32.9567 29.6624 32.6902C29.7835 32.4116 29.7956 32.1452 29.6503 31.8908C29.5655 31.7334 29.3838 31.697 29.2263 31.7455C28.9599 31.8424 28.7298 31.9877 28.6571 32.2905C28.6329 32.4116 28.6571 32.5328 28.645 32.6539C28.6329 32.7871 28.5965 32.9082 28.4875 32.9809C28.3543 33.0415 28.2332 33.0173 28.112 32.9325C27.8577 32.8719 27.8456 32.7266 27.9667 32.5449C28.1242 32.3269 28.0636 32.1815 27.8577 32.0604C27.7487 31.9393 27.785 31.7939 27.8456 31.6728C28.0999 31.2368 28.3906 30.8492 28.7176 30.4737C28.8388 30.3405 28.9962 30.2557 29.19 30.3647C29.2869 30.4616 29.299 30.5464 29.2263 30.6312Z" fill="#D9D08A"/>
<path d="M13.2265 15.5034C13.3113 15.5518 13.3961 15.5881 13.4808 15.6366C13.0448 16.7509 13.3355 17.9258 13.2265 19.0643C13.1659 19.7183 13.3234 20.3845 13.2265 21.0386C13.1417 21.196 13.1659 21.4383 12.8995 21.4383C12.6693 19.6578 12.742 17.8773 12.7783 16.0847C12.7783 15.7577 12.8873 15.5518 13.2265 15.5034Z" fill="#F3DD98"/>
<path d="M17.2233 13.9288C16.5571 14.171 15.9031 14.4254 15.2975 14.7766C15.031 14.9341 14.7524 15.0431 14.4496 14.9098C15.8546 14.1468 17.3081 13.4806 18.7615 12.8266C18.8705 12.7781 18.9311 12.8387 18.9795 12.9356C18.6162 13.6502 17.9379 13.8198 17.2233 13.9288Z" fill="#D9C074"/>
<path d="M32.2302 29.9167C32.0001 29.4807 32.5088 29.2142 32.4846 28.8145C32.2787 28.5359 32.4604 28.2695 32.5451 28.0151C32.8237 27.2036 33.1508 26.3921 33.3082 25.5443C33.3567 25.3505 33.4051 25.1446 33.611 25.0477C33.8533 25.1325 33.7564 25.302 33.72 25.4716C33.5141 27.0462 32.9448 28.5117 32.2302 29.9167Z" fill="#EBDD93"/>
<path d="M12.8993 21.4383C13.0083 21.3414 13.0083 21.2082 13.0204 21.075C13.3353 21.1234 13.3475 21.3899 13.3596 21.62C13.3717 21.9591 13.4444 22.2862 13.4322 22.6132C13.4201 23.57 13.8319 24.4421 13.9531 25.3626C13.9894 25.6533 14.1105 25.944 13.9409 26.2347C13.8925 26.2952 13.8319 26.3195 13.7593 26.2831C13.299 24.6964 12.9841 23.0855 12.8993 21.4383Z" fill="#E8CA82"/>
<path d="M33.72 25.4716C33.6715 25.3383 33.6352 25.2172 33.5868 25.084C33.4172 24.1756 33.5625 23.3156 34.0591 22.5283C34.1076 22.1044 34.156 21.6684 34.2045 21.2324C34.3377 21.2929 34.2892 21.414 34.3256 21.4867C34.2529 22.8311 34.0591 24.1635 33.72 25.4716Z" fill="#C7AB70"/>
<path d="M15.9032 31.0068C15.9395 31.128 16.0606 31.237 15.9153 31.3702C15.3218 30.4618 14.8373 29.4928 14.4619 28.4633C14.4861 28.3664 14.5466 28.3058 14.6556 28.3058C14.8494 28.3664 14.9342 28.5239 14.9948 28.6934C15.2249 29.3111 15.5035 29.8925 15.8547 30.4497C15.9637 30.6192 16.0606 30.813 15.9032 31.0068Z" fill="#D2B278"/>
<path d="M18.9311 12.9962C18.8827 12.9357 18.8221 12.8751 18.7737 12.8266C19.3066 12.4633 19.9001 12.2453 20.4936 11.9909C20.5783 12.0394 20.6631 12.0757 20.7479 12.1241C20.6389 12.7055 20.0454 12.6086 19.7063 12.8751C19.4519 12.9841 19.2218 13.19 18.9311 12.9962Z" fill="#B8A05D"/>
<path d="M14.5829 28.3421C14.5465 28.3905 14.5102 28.4268 14.4618 28.4753C14.1226 27.7849 13.9409 27.0339 13.7471 26.2951C13.7835 26.2951 13.8319 26.2951 13.8683 26.2951C14.0136 26.283 14.1105 26.3678 14.1468 26.4768C14.3528 27.0703 14.8009 27.6274 14.5829 28.3421Z" fill="#D6B57E"/>
<path d="M20.6147 36.3725C20.7359 36.1787 20.857 35.9849 20.9781 35.7911C20.7722 36.2756 21.4141 36.433 21.3536 36.8327C21.1113 36.651 20.7964 36.6147 20.6147 36.3725Z" fill="#D8A24B"/>
<path d="M29.5898 33.5504C29.6382 33.5988 29.6867 33.6594 29.7351 33.7078C29.4445 34.1681 29.0569 34.5557 28.6329 34.8948C28.7177 34.4951 29.0084 34.2165 29.287 33.9501C29.4081 33.841 29.5656 33.7563 29.5898 33.5504Z" fill="#D9C675"/>
<path d="M18.9069 31.6124C18.7737 31.2248 18.483 30.9341 18.2892 30.595C18.1681 30.3649 17.9743 30.4012 17.7684 30.4254C17.514 30.4617 17.2475 30.4739 16.9932 30.5102C16.327 30.1589 16.218 29.4201 15.9031 28.8387C15.7578 28.5844 15.673 28.2816 15.5034 28.0393C15.4307 27.9303 15.3823 27.8092 15.3702 27.676C15.0432 26.3194 14.5466 24.9992 14.3528 23.6063C14.2316 22.6737 14.0015 21.7532 14.0379 20.8085C14.05 20.3966 13.9167 20.0212 13.9046 19.6215C13.8562 18.7979 14.0257 17.9863 14.05 17.1627C14.0621 16.6298 14.5223 16.3512 15.1764 16.3876C15.8304 16.9447 16.218 17.6957 16.6056 18.4345C17.7441 20.5783 18.8948 22.71 20.0333 24.8539C20.1423 25.9318 20.0575 27.0219 20.0818 28.0999C20.106 28.9962 20.0333 29.9046 20.1302 30.8009C20.1666 31.2006 19.7184 31.7456 19.3308 31.8183C19.1491 31.8546 18.9553 31.8789 18.9069 31.6124Z" fill="#00217C"/>
<path d="M20.7601 24.6116C20.6753 24.0545 20.2393 23.6548 20.1182 23.1218C19.997 22.5768 20.1182 22.3709 20.5784 22.4436C21.7775 22.6374 22.7586 21.7168 23.0735 20.7721C23.1462 20.542 23.2188 20.3118 23.4732 20.2028C23.8487 20.1786 23.9213 20.4814 24.0061 20.7358C24.1393 21.0991 24.321 21.0749 24.5633 20.8811C25.508 20.7842 26.1742 20.1302 26.9493 19.6941C27.3006 19.4882 27.6518 19.2581 28.0394 19.6215C28.1727 20.0211 27.9183 20.2997 27.7487 20.6146C27.6397 20.8205 27.4459 20.9901 27.4459 21.2566C27.1674 22.0439 26.6708 22.7221 26.3074 23.4731C26.2226 23.6548 26.1378 23.8243 26.0894 24.0181C25.9683 24.3452 25.726 24.6116 25.6049 24.9508C25.5201 25.1082 25.4353 25.2778 25.3869 25.4473C25.2779 25.8107 25.0356 25.9803 24.6723 25.9439C24.103 25.8834 23.5943 26.0408 23.1219 26.3315C22.9524 26.4405 22.7586 26.5374 22.5527 26.5011C22.1287 26.4284 21.8259 26.598 21.5474 26.9008C21.4141 27.0461 21.2203 27.1673 21.0023 27.0582C20.8085 26.9492 20.857 26.7433 20.857 26.5738C20.8449 25.9682 20.8812 25.3626 20.8328 24.7691C20.8328 24.6964 20.7964 24.648 20.7601 24.6116Z" fill="#005FC9"/>
<path d="M19.5246 22.0559C19.246 21.7289 19.1006 21.3292 18.9189 20.9537C18.7494 20.336 18.3255 19.8515 18.168 19.2338C18.1196 19.1006 18.059 18.9795 18.0227 18.8463C17.9258 18.5677 17.8773 18.2891 18.1317 18.0711C18.3981 17.8531 18.6525 17.9136 18.8947 18.1195C19.1006 18.3012 19.2581 18.1801 19.4277 18.0469C20.0333 17.5745 20.8569 17.5139 21.4383 16.9931C21.5715 16.872 21.8258 16.9204 22.0196 16.9083C22.6858 17.6472 23.1218 18.495 23.2551 19.5003C22.9765 19.8152 22.7342 20.1422 22.5405 20.5298C22.1286 21.3171 21.5715 21.5957 20.6389 21.414C20.2876 21.3413 20.1302 21.3898 19.9727 21.6805C19.8637 21.85 19.7547 22.0317 19.5246 22.0559Z" fill="#1C77E1"/>
<path d="M17.2477 17.9259C16.957 17.829 16.8117 17.6473 16.7148 17.3445C16.5452 16.7995 16.1213 16.3998 15.7216 16.0001C15.6005 15.8789 15.3946 15.7578 15.4551 15.5519C15.5278 15.3218 15.77 15.3097 15.9638 15.2976C16.6421 15.2491 17.3083 15.0311 17.9986 15.2491C18.4226 15.3823 18.2651 15.1038 18.1924 14.91C18.2409 14.8615 18.3014 14.8373 18.3741 14.8252C19.1977 14.8736 20.0092 14.8736 20.8329 14.8373C21.4385 14.8131 21.9351 14.9342 22.3105 15.4308C22.4195 15.5761 22.5649 15.6852 22.7223 15.782C23.3158 16.1333 23.6429 16.6905 23.8851 17.3082C23.9941 17.5867 24.1273 17.8411 24.2727 18.1076C24.3696 18.3377 24.4423 18.592 24.636 18.8222C25.0479 18.2408 25.3143 17.611 25.5081 16.9569C25.8109 16.8964 25.9078 16.4967 26.2469 16.4724C26.5013 16.6178 26.5497 16.8842 26.4771 17.1023C26.0895 18.3619 25.5687 19.561 24.6845 20.5663C24.2727 20.5905 24.1516 20.2635 24.0183 19.9849C23.6671 19.2703 23.3158 18.5436 23.0251 17.8048C22.7102 17.0054 22.0441 16.5088 21.5111 15.8911C21.4142 15.782 21.2568 15.782 21.1236 15.782C19.5127 15.7578 17.9139 15.7699 16.194 15.7699C16.521 16.3029 16.9086 16.6783 17.1145 17.1628C17.2114 17.4051 17.4536 17.6231 17.2477 17.9259Z" fill="#E3D989"/>
<path d="M19.5246 22.056C19.6942 21.7169 19.8759 21.3898 20.0455 21.0507C20.1181 20.9054 20.215 20.8327 20.3846 20.9296C21.3172 21.4989 22.0924 21.2082 22.48 20.1423C22.6011 19.7911 22.7828 19.5367 23.1704 19.5004C23.6549 19.573 23.5943 19.9001 23.5337 20.2392C23.2188 20.6752 23.1825 21.2203 22.8433 21.6805C22.3346 22.3709 21.62 22.5284 20.9054 22.7706C20.857 22.7827 20.7843 22.7706 20.748 22.7343C20.1787 22.274 20.1908 22.7585 20.1181 23.1098C19.7427 22.8675 19.8153 22.3709 19.5246 22.056Z" fill="#0C6ED8"/>
<path d="M20.76 24.6116C20.7964 24.5995 20.8327 24.5874 20.8691 24.5874C20.8933 24.6237 20.9175 24.6601 20.9175 24.6964C20.8327 26.489 21.2445 28.2695 21.1234 30.0742C21.0871 30.6071 21.0144 31.1037 20.6753 31.5397C20.5784 31.6608 20.4572 31.7698 20.3361 31.8667C20.0575 32.0848 20.0454 32.2785 20.2998 32.545C20.4936 32.7509 20.7479 32.9568 20.6268 33.3081C20.215 33.2112 19.8638 32.9326 19.4277 32.9447C19.4035 32.6419 19.0765 32.5208 18.9917 32.2664C18.919 32.0605 18.7373 31.8425 18.9311 31.6124C19.4762 31.7698 20.0575 31.1642 20.0575 30.4012C20.0575 28.5844 20.0454 26.7797 20.0454 24.9629C20.0454 24.9265 20.0454 24.8781 20.0454 24.8418C20.2271 25.0477 20.1544 25.302 20.1544 25.5321C20.1544 27.1794 20.1544 28.8266 20.2877 30.4739C20.2877 29.19 20.2877 27.9182 20.2877 26.6343C20.7358 27.5912 20.6147 28.5965 20.7722 29.5897C20.76 27.9424 20.76 26.271 20.76 24.6116Z" fill="#E4CC6E"/>
<path d="M17.2476 17.9257C16.9448 17.0294 16.3149 16.3511 15.5882 15.5154C17.5625 15.4912 19.3914 15.4548 21.2203 15.5639C21.4989 15.6608 21.62 15.8545 21.5474 16.1452C21.3899 16.3875 21.1598 16.2785 20.9418 16.2542C20.3361 16.1937 19.7427 16.1573 19.1492 16.3633C18.8343 16.4723 18.5072 16.4238 18.1923 16.3633C17.9016 16.3027 17.623 16.2906 17.4293 16.5813C17.2476 16.8598 17.3687 17.1263 17.5262 17.3686C17.8047 17.7682 18.0227 18.1922 18.047 18.6888C18.0591 18.8704 18.1318 19.04 18.3134 19.1369C18.3498 19.791 18.9433 20.2754 18.9069 20.9537C18.3619 19.9484 17.8047 18.9431 17.2476 17.9257Z" fill="#4289E5"/>
<path d="M15.1642 16.3754C13.7956 16.7024 14.1468 17.8773 14.1226 18.7251C14.0741 21.5472 14.4981 24.3209 15.4065 27.0098C15.4791 27.2399 15.6003 27.4579 15.5397 27.7123C15.5034 27.8092 15.467 27.8939 15.3459 27.8939C15.0673 27.7849 15.0189 27.5064 14.922 27.2762C14.6192 26.5132 14.4617 25.7017 14.2558 24.9023C13.9651 23.9818 13.9167 23.0128 13.7956 22.0559C13.6018 20.5541 13.6623 19.0522 13.6623 17.5503C13.6623 17.4534 13.6623 17.3444 13.6745 17.2475C13.7713 16.5571 13.8925 16.4117 14.5829 16.2543C14.8251 16.0605 15.0068 16.1453 15.1642 16.3754Z" fill="#44656F"/>
<path d="M12.9964 19.0279C12.9964 18.1801 13.0206 17.3444 12.9842 16.4965C12.9721 16.0726 13.1175 15.8061 13.4808 15.6366C13.7473 15.6124 13.9774 15.2853 14.2923 15.5639C14.583 15.8061 14.7526 15.9999 14.3045 16.2422C13.8321 16.4965 13.7836 16.9447 13.7836 17.417C13.7836 18.1559 13.7836 18.8947 13.7836 19.6335C13.5414 19.9969 13.3961 19.682 13.2628 19.5488C13.1175 19.4155 13.1175 19.1854 12.9964 19.0279Z" fill="#EBC15F"/>
<path d="M18.9311 12.9962C19.1733 12.8993 19.4155 12.8145 19.6578 12.7176C20.0212 12.9235 20.1423 13.2142 19.9727 13.6139C19.9 13.7956 19.7668 13.953 19.7184 14.1468C19.3913 14.5223 18.9674 14.7161 18.4829 14.8009C18.2407 14.6676 17.95 14.8251 17.7199 14.6555C17.5624 14.4133 17.3928 14.1589 17.2354 13.9167C17.7925 13.626 18.3618 13.3111 18.9311 12.9962Z" fill="#FBF88A"/>
<path d="M13.7231 19.7546C13.7231 18.8583 13.7473 17.9499 13.7231 17.0536C13.711 16.5934 13.8563 16.3148 14.3166 16.2421C14.4135 16.2421 14.4982 16.2542 14.5951 16.2542C14.2075 16.4723 13.8926 16.6903 13.8805 17.2353C13.8079 19.8273 13.9169 22.4072 14.4619 24.9507C14.5104 25.0112 14.5467 25.096 14.4861 25.1566C14.365 25.2777 14.2681 25.1687 14.2075 25.0839C13.9774 24.7932 13.929 24.442 13.8926 24.0907C13.8563 23.2913 13.6383 22.5162 13.5656 21.7289C13.4808 21.0627 13.2628 20.3723 13.7231 19.7546Z" fill="#DDBF7B"/>
<path d="M17.72 14.6676C17.9744 14.5222 18.2287 14.5101 18.471 14.6797C18.4831 14.8008 18.4346 14.8856 18.3014 14.8856C18.2651 14.8856 18.2287 14.8856 18.1924 14.8977C18.0713 14.934 17.938 14.9946 17.8169 15.0188C17.7321 15.0309 17.611 15.0431 17.5626 14.934C17.502 14.8008 17.6716 14.7645 17.72 14.6676Z" fill="#E7E455"/>
<path d="M20.6146 33.3081C20.4935 33.1264 20.3724 32.9447 20.2392 32.7751C19.7426 32.1574 19.7426 32.1574 20.3845 31.6124C20.6389 31.9878 21.0022 32 21.4019 31.9878C22.7948 31.9394 24.1877 32.0484 25.5685 31.9152C25.9682 31.8788 26.0287 31.7819 25.8107 31.4549C25.6654 31.2369 25.52 31.0068 25.6654 30.7282C25.9924 30.5102 26.0772 30.2316 25.9439 29.844C25.8592 29.6018 25.8107 29.3232 25.8955 29.0688C26.1862 28.1362 26.0408 27.1915 26.0651 26.2467C26.0772 26.0287 26.0651 25.8107 25.9439 25.6048C25.8592 25.4595 25.7865 25.2778 25.8955 25.1445C26.2589 24.7085 26.1862 24.1635 26.2952 23.6548C27.0825 23.1582 27.5548 22.3951 27.9909 21.5957C28.0878 21.4262 28.2452 21.1355 28.548 21.4019C28.6691 21.7047 28.3906 21.9106 28.3785 22.1892C28.0757 22.8069 27.7729 23.4125 27.4701 24.0302C27.361 24.2483 27.252 24.4663 27.0219 24.5753C26.5495 25.2657 26.3557 26.0045 26.4042 26.8402C26.4648 27.8576 26.4648 28.8872 26.4163 29.9167C26.3679 31.0431 26.4526 32.1211 27.2036 33.0416C27.4822 33.3807 27.4095 33.5382 26.9371 33.5382C25.9197 33.5261 24.8902 33.5503 23.8728 33.5503C23.5942 33.8047 23.2914 33.5745 23.0128 33.5866C22.3346 33.5987 21.6563 33.6472 20.978 33.5624C20.869 33.4776 20.7479 33.3928 20.6146 33.3081Z" fill="#03257A"/>
<path d="M29.2142 30.4134C28.7903 30.4739 28.7419 30.8978 28.5239 31.1522C28.2937 31.4429 28.003 31.6972 27.8819 32.0727C27.6881 32.3028 27.5428 32.533 27.3853 32.0243C27.2642 31.6124 27.2036 31.2006 27.2036 30.7767C27.1915 29.3838 27.1552 28.0031 27.1431 26.6102C26.9735 26.1378 27.0825 25.726 27.3126 25.3021C27.7002 24.5511 28.0151 23.776 28.4512 23.0492C28.5723 22.9039 28.645 22.698 28.8993 22.7585C28.972 22.8191 29.0205 22.9039 29.0447 23.0008C29.1173 23.3157 28.9841 23.5822 28.8388 23.8486C28.4027 24.6722 28.003 25.4838 27.8819 26.4769C27.7971 27.2642 27.6155 28.0394 27.8092 28.7782C28.1605 28.4997 28.1847 27.9909 28.3422 27.5307C28.4148 27.3248 28.4875 27.0704 28.754 27.0825C29.0447 27.0947 29.1295 27.3611 29.1658 27.6034C29.2385 28.0878 29.2385 28.5602 29.1052 29.0326C29.0205 29.3475 28.9114 29.6624 29.3596 29.8199C29.7956 29.9773 30.0136 29.7714 30.2195 29.4081C30.5829 28.7782 30.8373 28.1 31.1643 27.458C31.2733 27.2521 31.3339 26.9978 31.6367 26.9614C31.8789 27.0704 31.8789 27.2763 31.8183 27.4701C31.455 28.5239 31.0795 29.5897 30.3407 30.4618C29.941 30.6435 29.5776 30.595 29.2142 30.4134Z" fill="#043B99"/>
<path d="M28.5845 23.134C28.2091 23.9212 27.8578 24.7085 27.4702 25.4716C27.2885 25.8349 27.1553 26.2104 27.1311 26.6101C26.6829 26.1377 26.7435 25.6169 26.9736 25.0598C27.0342 24.9144 27.2159 24.757 27.0342 24.5753C27.3612 23.7274 27.7609 22.9159 28.2333 22.1408C28.4271 21.8864 28.6209 21.6442 28.6814 21.305C28.7178 21.0991 28.8147 20.8811 29.0569 20.9296C29.3476 20.9901 29.4203 21.2687 29.3597 21.5109C29.2507 21.8985 29.1175 22.2861 28.851 22.601C28.7178 22.7706 28.5966 22.9159 28.5845 23.134Z" fill="#CDAB5A"/>
<path d="M20.9901 33.5746C21.9591 33.5746 22.928 33.5746 23.897 33.5746C24.1756 33.7563 24.4784 33.6594 24.7691 33.6715C25.1082 33.6836 25.4473 33.6473 25.7259 33.9258C25.8591 34.0591 26.0045 34.0591 26.162 33.9501C26.4284 33.7563 26.5132 33.9379 26.5495 34.156C26.4648 34.2771 26.3315 34.3255 26.1862 34.3255C25.4231 34.3498 24.6601 34.3498 23.897 34.3255C23.7517 34.3255 23.6184 34.2771 23.5336 34.156C23.5458 33.732 23.2793 33.6957 22.9401 33.6715C22.2982 33.623 21.6321 33.7805 20.9901 33.5746Z" fill="#E2C56A"/>
<path d="M25.9319 35.5973C25.8229 35.6216 25.7018 35.6579 25.5928 35.6821C25.4959 35.5125 25.8471 35.5004 25.6897 35.3309C25.6534 34.9675 26.0046 34.9312 26.1863 34.7374C26.3437 34.5678 26.586 34.4951 26.7192 34.2892C26.7434 34.2771 26.7677 34.2529 26.7919 34.2408C26.9736 34.3013 27.2643 34.1802 27.3248 34.3861C27.3975 34.6041 27.0947 34.6647 26.9614 34.7979C26.6708 35.1371 26.1863 35.2097 25.9319 35.5973Z" fill="#BC974A"/>
<path d="M29.0931 33.2112C29.2143 33.2838 29.3354 33.3565 29.4565 33.4292C29.3596 33.4897 29.2627 33.5745 29.1537 33.623C28.7782 33.7804 28.4149 33.9258 28.3301 33.3081C28.318 33.1869 28.1968 33.0658 28.1242 32.9447C28.2453 32.9447 28.3664 32.9447 28.4754 32.9447C28.6571 33.0416 28.8751 33.0174 29.0568 33.1385C29.0689 33.1627 29.081 33.1869 29.0931 33.2112Z" fill="#D9C675"/>
<path d="M23.5337 34.1439C24.539 34.1439 25.5443 34.1439 26.5496 34.1439C26.6344 34.1803 26.7071 34.2045 26.7919 34.2408C26.7676 34.2529 26.7555 34.265 26.7434 34.2893C26.6344 34.4225 26.4891 34.5073 26.3316 34.4952C25.3748 34.4104 24.4179 34.4831 23.4489 34.4467C23.2915 34.4346 23.134 34.4104 23.0371 34.2529C23.1825 34.1318 23.3642 34.1803 23.5337 34.1439Z" fill="#D9D39F"/>
<path d="M24.6116 11.1673C25.4231 11.567 26.2225 11.9667 27.034 12.3664C27.4095 12.8145 27.7002 13.3354 28.2574 13.626C28.4754 13.7472 28.7297 13.9652 28.2816 14.1711C27.8213 14.159 27.4458 13.8077 26.9735 13.8198C26.598 13.7593 26.271 13.5534 25.8955 13.4686C25.8107 13.4322 25.738 13.3838 25.6775 13.3232C25.6169 13.2506 25.5443 13.1537 25.4474 13.1294C24.7812 12.972 24.5753 12.4754 24.5268 11.8698C24.5632 11.6397 24.3694 11.3853 24.6116 11.1673Z" fill="#D4AC56"/>
<path d="M19.7063 14.0741C19.5247 14.0499 19.4157 13.9651 19.5973 13.8198C20.0213 13.4685 19.8396 13.093 19.6458 12.7176C19.9486 12.3906 20.4331 12.4148 20.7359 12.112C21.1356 11.9424 21.5353 11.7728 21.935 11.6033C22.2741 11.6154 22.2257 11.9182 22.1893 12.0756C22.0924 12.4996 22.3347 12.4874 22.6132 12.4874C22.8434 12.5965 23.0372 12.7297 22.9887 13.0325C22.8191 13.2626 22.6253 13.0446 22.4437 13.0688C22.0319 13.1294 21.7048 13.3716 21.3536 13.5654C21.3051 13.6018 21.2567 13.626 21.2082 13.6381C20.9054 13.7471 20.6269 13.9167 20.3362 14.0499C20.1303 14.1347 19.9244 14.2679 19.7063 14.0741Z" fill="#F5DF74"/>
<path d="M33.4534 18.4223C33.4292 19.1006 33.3929 19.791 33.3686 20.4693C33.4413 20.5783 33.4655 20.6873 33.4534 20.8084C33.3565 22.0923 33.4413 23.4004 33.0901 24.66C32.8599 25.2778 32.8236 25.956 32.5813 26.5737C32.4845 26.8402 32.4118 27.1067 32.1332 27.252C32.0969 27.3005 32.0605 27.3489 32.0242 27.3852C31.9273 27.361 31.8546 27.3126 31.8304 27.2036C31.782 26.8765 31.9273 26.5859 32.0121 26.2952C32.3633 25.2051 32.5571 24.0787 32.7146 22.9401C33.0295 21.1718 33.0901 19.3913 33.0295 17.6108C33.0295 17.4897 32.9932 17.3686 32.9326 17.2717C32.4966 16.6176 31.8304 16.3512 31.0916 16.2058C30.7161 15.9878 30.4496 15.7092 30.5465 15.2369C31.0795 15.1036 31.4428 15.3822 31.7577 15.7577C32.0242 16.012 32.3633 16.1574 32.6904 16.2664C33.1991 16.4238 33.3565 16.7388 33.3444 17.2475C33.3444 17.6351 33.2354 18.0469 33.4534 18.4223Z" fill="#7C7355"/>
<path d="M31.7577 15.7577C31.3096 15.7213 30.9947 15.358 30.5707 15.2853C30.3164 15.3943 30.1347 15.2126 29.9288 15.14C29.8319 15.0794 29.7471 15.0067 29.6745 14.9098C29.19 14.5344 29.1658 14.0741 29.4564 13.5775C30.5707 14.1226 31.794 14.5101 32.4481 15.7577C32.2058 15.8909 31.9757 15.685 31.7577 15.7577Z" fill="#BC943E"/>
<path d="M29.4565 13.5776C29.4929 13.6866 29.5898 13.8441 29.5413 13.9047C29.2506 14.3286 29.5898 14.5345 29.8199 14.7888C29.2627 14.8978 28.4512 14.5224 28.2453 14.0621C28.5481 13.8078 28.1969 13.7957 28.1121 13.7714C27.458 13.5292 27.1552 13.0205 27.0341 12.3785C27.8456 12.7782 28.6571 13.1779 29.4565 13.5776Z" fill="#C8A04D"/>
<path d="M22.5648 12.6086C22.2984 12.5481 22.1288 12.7903 21.8139 12.8388C22.0683 12.427 22.0925 12.0273 21.9471 11.6155C22.4316 11.2763 22.9888 11.0946 23.5096 10.8645C23.9577 10.6586 24.2605 11.0341 24.6239 11.1673C24.6602 11.4096 24.7087 11.6397 24.745 11.8819C24.527 11.9909 24.3695 11.8698 24.2 11.7487C23.8124 11.458 23.4975 11.5549 23.2189 11.9183C23.013 12.1726 22.8919 12.4996 22.5648 12.6086Z" fill="#DDC26A"/>
<path d="M23.0371 34.2529C24.2725 34.265 25.508 34.2771 26.7434 34.2892C26.9614 34.4709 26.7797 34.5435 26.6465 34.6283C26.3316 34.8585 26.0046 35.0886 25.6896 35.3308C25.2899 35.5367 24.8902 35.7305 24.4905 35.9364C24.0787 36.3846 23.5821 36.433 23.0734 36.1544C22.6737 35.9364 22.1287 35.9122 21.9349 35.3914C22.274 35.1007 22.5768 35.3429 22.8554 35.4883C23.3036 35.7184 23.7396 35.8032 24.212 35.5731C24.6601 35.3793 25.1083 35.1855 25.5322 34.8463C24.7691 34.5072 24.0303 34.5799 23.3036 34.592C22.7343 34.6041 22.1529 34.4709 21.6079 34.6889C21.6563 34.9675 22.1529 35.028 21.9349 35.4035C21.5837 35.5488 21.3899 35.246 21.1476 35.1007C20.7237 34.8585 20.2998 34.592 20.0575 34.1438C20.0454 34.0712 19.997 33.9864 20.0091 33.9137C20.0454 33.8047 20.1423 33.841 20.1787 33.9016C20.4815 34.3982 20.978 34.265 21.4141 34.265C21.9591 34.2892 22.5042 34.265 23.0371 34.2529Z" fill="#27416C"/>
<path d="M21.9228 35.3792C22.3467 35.7183 22.8554 35.9 23.352 36.1301C23.8001 36.336 24.1272 36.0332 24.5026 35.9364C24.3089 36.3482 23.9576 36.4572 23.5337 36.4451C22.7343 36.1665 21.9955 35.7426 21.2445 35.3429C20.7358 35.1006 20.3724 34.6646 19.9364 34.3255C19.6942 34.1317 19.8395 34.0832 20.0575 34.1317C20.651 34.604 21.2203 35.1006 21.9228 35.3792Z" fill="#E7E681"/>
<path d="M14.0864 24.103C14.1712 24.4058 14.2439 24.7086 14.3287 24.9993C14.3287 25.0114 14.3408 25.0477 14.3529 25.0477C14.4377 25.0599 14.4256 24.9872 14.4377 24.9387C14.7647 25.9077 14.9827 26.913 15.3945 27.8577C15.661 28.1363 15.8063 28.4876 15.9153 28.8388C16.0849 29.2143 16.2424 29.5898 16.4846 29.9289C16.6057 30.1106 16.8116 30.2438 16.7511 30.4982C16.8964 30.7162 16.9933 30.9463 17.0418 31.2128C17.0902 31.5156 17.0054 31.7457 16.7026 31.8184C16.3756 31.8911 16.206 31.6367 16.1939 31.3702C16.1818 31.128 16.1818 30.9827 15.9032 30.9948C15.3703 30.1469 14.9948 29.2264 14.583 28.318C14.3408 27.6397 14.1107 26.9493 13.8684 26.2711C13.6988 25.3384 13.5293 24.4058 13.3355 23.4732C13.2749 23.1946 13.2507 22.9281 13.2628 22.6496C13.6383 22.48 13.7473 22.7465 13.7836 23.0129C13.8079 23.4126 13.9411 23.7518 14.0864 24.103Z" fill="#D6A046"/>
<path d="M17.3565 32.3028C17.3565 31.9152 17.3686 31.6003 17.732 31.5639C18.2165 31.5155 18.7736 32.1937 18.7857 32.8115C18.7857 33.199 18.5072 33.2838 18.2165 33.2717C17.6714 33.2717 17.3444 32.8478 17.3565 32.3028Z" fill="#A7BB94"/>
<path d="M16.7631 30.5102C16.654 30.3406 16.6056 30.1347 16.3997 30.0378C16.2301 29.6502 16.0242 29.2748 15.8425 28.8872C15.8668 28.548 15.3823 28.3058 15.6609 27.9182C16.109 28.7782 16.4481 29.6866 16.9811 30.4981C16.9084 30.4981 16.8357 30.5102 16.7631 30.5102Z" fill="#AEAC77"/>
<path d="M32.1332 27.2641C32.3755 26.4163 32.6177 25.5684 32.8599 24.7206C33.2596 24.8659 33.1143 25.411 33.4776 25.5805C33.3808 26.7312 32.8357 27.7486 32.4845 28.8266C32.3634 28.875 32.2786 29.0688 32.1211 28.9598C31.9637 28.8629 32 28.6691 32.0242 28.5238C32.0969 28.0998 32.2543 27.688 32.1332 27.2641Z" fill="#E0BB5E"/>
<path d="M31.9032 27.2641C31.9395 27.3125 31.988 27.361 32.0243 27.4094C31.77 28.4511 31.2612 29.3958 30.7646 30.3406C30.692 30.4738 30.6072 30.5707 30.4376 30.5343C30.4013 30.498 30.3892 30.4738 30.3892 30.4374C30.3892 30.4011 30.4013 30.3769 30.4013 30.3769C30.9342 29.4806 31.3703 28.548 31.6973 27.5548C31.7457 27.4337 31.7821 27.3247 31.9032 27.2641Z" fill="#7B7337"/>
<path d="M30.4254 30.4012C30.4254 30.4375 30.4254 30.486 30.4375 30.5223C30.062 30.8493 29.626 30.5465 29.2384 30.6313C29.2384 30.5586 29.2263 30.486 29.2263 30.4133C29.5776 30.2801 29.9409 30.6798 30.28 30.4012C30.3285 30.3406 30.3769 30.3406 30.4254 30.4012Z" fill="#EBE9B0"/>
<path d="M33.4778 25.5685C32.9933 25.6048 32.739 25.4595 32.9449 24.9144C32.9691 24.866 32.8843 24.7812 32.8601 24.7085C33.066 23.3035 33.3083 21.8864 33.3688 20.4693C33.8291 20.5904 33.5384 20.8932 33.502 21.1112C33.393 21.7047 33.4778 22.2013 34.0471 22.5283C33.8896 23.3762 33.7322 24.2361 33.5747 25.084C33.5626 25.2536 33.5989 25.4352 33.4778 25.5685Z" fill="#CAA452"/>
<path d="M28.4997 32.5813C28.4391 32 28.9963 31.4065 29.4687 31.5276C29.7836 31.6003 29.9289 31.8304 29.941 32.1453C29.9652 32.5692 29.8926 32.9568 29.4565 33.1506C29.3475 33.199 29.2143 33.1869 29.0932 33.199V33.1748C29.0084 32.9689 29.2143 32.9326 29.287 32.8236C29.3596 32.7509 29.3839 32.654 29.396 32.5571C29.4444 32.1816 29.2506 32.1816 28.9963 32.2906C28.7904 32.3149 28.7662 32.6661 28.4997 32.5813Z" fill="#C5D6AA"/>
<path d="M28.4997 32.5813C28.645 32.448 28.6329 32.1816 28.8509 32.1089C28.9841 32.2058 28.972 32.3511 28.9599 32.4965C28.9115 32.8841 29.3838 32.7024 29.4565 32.9567C29.3354 33.0294 29.2143 33.1142 29.1053 33.1869C28.8751 33.1748 28.5481 33.3928 28.4876 32.9446C28.4876 32.8235 28.4876 32.7024 28.4997 32.5813Z" fill="#8ECBAF"/>
<path d="M14.0864 24.1029C13.8078 23.8365 13.6503 23.4973 13.614 23.1097C13.5898 22.8796 13.5413 22.6858 13.2628 22.6495C13.0205 22.1408 13.2628 21.5715 13.0205 21.0628C13.0205 20.3845 13.0084 19.6941 13.0084 19.0159C13.3475 19.1612 13.396 19.5851 13.723 19.7426C13.6382 21.2203 13.941 22.6616 14.0864 24.1029Z" fill="#E4B153"/>
<path d="M19.5003 27.785C19.7062 27.5791 19.5972 27.349 19.7668 27.0341C19.7668 28.2937 19.7789 29.3959 19.7547 30.4981C19.7547 30.6677 19.682 30.8494 19.6214 31.019C19.5488 31.2249 19.3671 31.2612 19.1854 31.2975C18.9916 31.3339 18.8826 31.1885 18.822 31.0432C18.5798 30.3891 18.2043 30.0258 17.4534 30.2801C17.2475 30.3528 17.0779 30.2196 16.9689 30.0137C16.7509 29.6261 16.5086 29.2506 16.2906 28.8751C16.2543 28.8025 16.1816 28.7177 16.1937 28.6571C16.3754 27.894 16.0121 27.2642 15.7214 26.6223C15.5518 26.2468 15.9273 25.5928 16.3391 25.5806C16.7146 25.5806 16.981 25.508 17.1627 25.1325C17.3323 24.7691 17.623 24.8418 17.8046 25.1325C18.0348 25.508 18.1922 25.9198 18.386 26.3195C18.4466 26.4406 18.4829 26.5981 18.5798 26.6828C18.7736 26.8403 19.1248 26.7434 19.246 27.0341C19.3429 27.2642 19.3186 27.5428 19.5003 27.785Z" fill="#00268D"/>
<path d="M15.673 27.9182C15.6125 28.3058 15.9031 28.5964 15.9395 28.9477C15.891 28.9961 15.8426 28.9961 15.7941 28.9477C15.7094 28.5722 15.4187 28.2694 15.4066 27.8697C15.455 27.8213 15.5034 27.7728 15.5519 27.7123C15.5882 27.7728 15.6246 27.8455 15.673 27.9182Z" fill="#8F7926"/>
<path d="M25.726 30.7645C25.8108 31.1884 26.1621 31.4791 26.3195 31.8667C26.4285 32.1089 26.368 32.1937 26.1015 32.1937C24.4543 32.1937 22.807 32.2058 21.1598 32.2058C21.0629 32.2058 20.9539 32.2058 20.857 32.2058C20.1666 32.2058 20.1545 32.1937 20.3725 31.6002C20.7843 31.0431 20.8449 30.4132 20.8449 29.735C20.8207 28.0151 20.8449 26.2951 20.857 24.5752C20.8691 24.551 20.8691 24.5389 20.8812 24.5147C20.9176 24.4662 20.966 24.4662 20.966 24.5147C20.9781 25.1808 20.9781 25.8349 20.9902 26.501C20.9902 26.6464 20.9176 26.8644 21.1235 26.925C21.2688 26.9734 21.3778 26.816 21.4505 26.707C21.7169 26.2951 22.0076 26.0287 22.5406 26.3073C22.7222 26.4041 22.8676 26.2346 23.025 26.1256C23.4611 25.8107 23.9456 25.5926 24.4785 25.6895C24.9872 25.7864 25.2294 25.629 25.3142 25.1445C25.3384 25.0355 25.4232 24.9386 25.4717 24.8296C25.7502 25.0476 25.7139 25.3625 25.7139 25.6532C25.726 26.9371 25.726 28.221 25.7139 29.5048C25.7018 29.9288 25.8956 30.3527 25.726 30.7645Z" fill="#004FBF"/>
<path d="M27.2763 21.2082C27.349 20.6147 27.8698 20.2029 27.9909 19.6337C27.785 19.2582 28.0515 18.9917 28.2211 18.7132C28.3906 18.4467 28.6087 18.2166 28.6692 17.8895C28.8388 17.4535 29.0084 17.0175 29.2748 16.6178C29.4323 16.2181 29.6018 15.8063 30.0742 15.673C30.9221 16.2665 31.0916 16.9327 30.595 17.6473C30.159 17.8895 29.941 18.3498 29.8077 18.7495C29.4444 19.8032 28.7177 20.4936 27.8335 21.075C27.6639 21.184 27.5065 21.3172 27.2763 21.2082Z" fill="#013EA3"/>
<path d="M25.7259 30.7646C25.4837 30.4133 25.4716 30.0136 25.4716 29.6139C25.4716 28.0272 25.4716 26.4285 25.4716 24.8418C25.4837 24.4784 25.7865 24.2725 25.9439 23.9818C26.1014 23.8607 26.1135 23.5094 26.4405 23.6306C26.4648 23.9697 26.489 24.2967 26.5132 24.6359C26.5132 24.6964 26.5374 24.8054 26.5132 24.8054C25.7623 25.0719 26.3315 25.5564 26.3073 25.944C26.2467 27.0098 26.5011 28.0999 26.0893 29.1537C25.9803 29.4444 26.162 29.735 26.2467 30.0257C26.4163 30.6313 26.3315 30.7282 25.7259 30.7646Z" fill="#00237B"/>
<path d="M26.4406 23.6306C26.271 23.7518 26.1015 23.8729 25.944 23.9819C26.1863 22.9524 26.8645 22.1409 27.2885 21.2082C27.8335 20.9054 28.3059 20.4936 28.7782 20.1181C29.1537 19.8153 29.3717 19.2945 29.5898 18.8343C29.7957 18.3861 29.9168 17.8411 30.4376 17.5867C30.5829 17.9016 30.377 18.156 30.2559 18.4225C30.05 18.8948 29.7593 19.3188 29.6019 19.8032C29.3233 20.4209 29.0205 21.0265 28.4997 21.4868C28.0031 21.62 27.9546 22.1166 27.7729 22.4679C27.4701 23.025 27.1189 23.4974 26.4406 23.6306Z" fill="#02318C"/>
<path d="M21.4868 16.0968C21.4504 15.903 21.3657 15.7213 21.2203 15.576C21.9955 15.9757 22.6253 16.5328 23.0129 17.308C23.4974 18.2527 23.9213 19.2338 24.3573 20.2028C24.4179 20.336 24.4785 20.4571 24.6117 20.5177C24.7086 20.5298 24.7691 20.5904 24.7934 20.6752C24.7934 20.8084 24.7449 20.9053 24.6238 20.9537C24.5027 21.1233 24.3816 21.305 24.2483 21.4867C23.8365 21.1475 23.885 20.5783 23.5337 20.2512C23.352 20.0332 23.4247 19.6941 23.1704 19.5124C22.8433 18.6282 22.4073 17.8046 21.9592 16.9931C21.4505 16.872 21.5352 16.4481 21.4868 16.0968Z" fill="#033E97"/>
<path d="M24.6237 20.9659C24.6601 20.8932 24.6843 20.8084 24.7206 20.7357C25.0719 20.2028 25.3383 19.6093 25.6775 19.0643C26.38 18.7978 27.0583 18.4466 27.8213 18.3739C28.2089 18.3375 28.4269 17.9136 28.8387 17.95C28.7176 18.5919 28.1362 19.0037 28.003 19.6335C27.1551 19.4882 26.5738 20.0938 26.0651 20.5298C25.5685 20.9537 25.0961 20.8447 24.6237 20.9659Z" fill="#0D6ED6"/>
<path d="M21.4867 16.097C21.7168 16.3513 21.7895 16.6904 21.947 16.9811C21.3535 17.1265 20.9901 17.6957 20.3603 17.8169C19.9606 17.8895 19.5488 18.0591 19.3187 18.4588C19.1975 18.6768 19.0643 18.6768 18.8947 18.483C18.7252 18.2892 18.6283 17.9138 18.2528 18.156C17.9137 18.3861 18.1801 18.6647 18.2165 18.9191C18.2286 18.9917 18.277 19.0644 18.3013 19.1371C18.1559 19.1128 17.9863 19.0644 17.9863 18.9069C18.0106 18.2166 17.4655 17.8047 17.1991 17.2597C16.9326 16.7026 17.2233 15.9758 17.7804 16.1091C18.5919 16.3029 19.3066 15.9879 20.0696 15.9758C20.5662 15.9758 21.0143 16.0848 21.4867 16.097Z" fill="#277FE9"/>
<path d="M24.115 18.2043C23.6669 17.4413 23.4852 16.4966 22.6616 15.9757C22.2013 15.1885 21.5594 14.8251 20.6268 14.9583C20.1908 15.0189 19.7426 14.9704 19.3066 14.9704C19.137 14.9704 18.9553 14.9583 18.919 14.7645C18.8827 14.5829 19.0764 14.5707 19.1855 14.4981C19.8274 14.0984 20.5783 13.9046 21.1839 13.4322L21.1961 13.4201C21.3293 13.3838 21.4625 13.3717 21.5836 13.2869C22.0076 13.0083 22.4194 12.972 22.8312 13.299C22.8796 13.3232 22.9281 13.3474 22.9765 13.3838C23.0855 13.5049 23.1945 13.6381 23.2309 13.8077C23.4004 14.0863 23.5337 14.3648 23.243 14.6676C23.0734 14.8372 23.1582 15.0552 23.2551 15.2248C23.5094 15.7093 23.6669 16.2059 23.8486 16.7146C24.0545 17.3202 24.5269 17.732 24.9992 18.1438C25.0477 18.4103 24.9508 18.6404 24.7085 18.7131C24.3331 18.8342 24.3452 18.3618 24.115 18.2043Z" fill="#052B9D"/>
<path d="M29.4444 19.7305C29.6745 18.9675 30.1469 18.3134 30.4255 17.5746C30.8615 16.8479 30.7767 16.4845 29.9531 15.7335C28.9599 15.9394 27.9667 15.8304 26.9614 15.7941C26.6586 15.782 26.2105 15.6488 26.2711 16.2423C26.2711 16.3391 26.2468 16.4239 26.1621 16.4845C25.9683 16.6904 26.1136 16.9811 25.9925 17.2233C25.7381 17.3202 25.8471 16.7752 25.5443 16.969C24.9993 16.5814 24.5875 16.0727 24.1636 15.564C24.0788 15.455 24.0909 15.2975 24.1393 15.1643C24.1999 15.031 24.2968 14.9342 24.4421 14.8857C25.944 14.8251 27.4459 14.8373 28.9478 14.8494C29.0568 14.8494 29.1537 14.8615 29.2506 14.9099C29.4323 15.0189 29.5413 15.1764 29.7957 15.237C30.5951 15.3944 31.2491 16.5329 30.9826 17.3081C30.7041 18.1317 30.2317 18.8584 29.8562 19.6336C29.832 19.7547 29.6867 20.1181 29.4444 19.7305Z" fill="#DCCE83"/>
<path d="M21.1962 13.4323C20.6875 14.0258 19.876 14.1348 19.2825 14.5951C19.2098 14.6556 19.1129 14.6799 19.0281 14.7283C19.0281 14.7889 19.0281 14.8494 19.0403 14.91C19.7428 14.91 20.4453 14.91 21.1599 14.91C22.0319 14.91 22.3105 15.1159 22.6739 15.9758C22.0198 15.1401 21.172 14.91 20.1303 14.9948C19.5368 15.0432 18.8949 15.1643 18.3014 14.8979C18.362 14.8252 18.4104 14.7525 18.471 14.692C18.907 14.5466 19.3309 14.3407 19.7185 14.0864C20.203 13.8683 20.6996 13.6503 21.1962 13.4323Z" fill="#1F3460"/>
<path d="M26.1863 16.4723C26.1863 16.3875 26.1984 16.3148 26.1984 16.23C26.3437 16.1695 26.4527 16.2421 26.5375 16.3511C26.8767 17.2838 26.5133 18.5071 25.726 19.1248C25.4717 19.7062 25.3021 20.3481 24.7086 20.7115C24.6723 20.6388 24.648 20.5782 24.6117 20.5056C25.2657 19.5972 25.7018 18.5798 26.162 17.5623C26.3195 17.2232 26.3801 16.8477 26.1863 16.4723Z" fill="#4378B1"/>
<path d="M24.2484 15.3097C24.4059 15.7215 24.8177 15.9032 25.0841 16.2302C25.2779 16.4603 25.4475 16.7026 25.5686 16.969C25.5686 17.8411 25.0236 18.4831 24.6844 19.2946C24.3695 18.9433 24.2484 18.5678 24.1152 18.2045C24.745 18.7374 24.7571 18.7374 24.9872 18.1681C25.2779 17.1992 24.8661 16.4967 24.1757 15.8547C23.9335 15.6246 23.994 15.5156 24.2484 15.3097Z" fill="#173670"/>
<path d="M29.4445 19.7304C29.602 19.8515 29.6625 19.7062 29.6989 19.6093C29.9653 18.8341 30.4377 18.1437 30.7526 17.3928C31.0917 16.557 30.4861 15.5033 29.5899 15.3943C29.3476 15.37 29.178 15.3458 29.3234 15.043C29.3718 14.9582 29.4566 14.9098 29.5535 14.9098C29.6868 14.9098 29.7958 14.9461 29.9169 15.0067C30.1833 14.9946 30.4014 15.0794 30.5709 15.2974C30.7768 15.5638 30.8495 15.9151 31.116 16.1331C31.5883 16.339 31.7579 16.7145 31.7821 17.199C30.9343 19.0037 30.0017 20.7599 29.1296 22.5525C29.069 22.6615 28.9843 22.7463 28.8631 22.7826C28.7784 22.9037 28.6815 23.0249 28.5967 23.146C28.5482 22.6131 28.9358 22.2376 29.1054 21.7894C29.2023 21.523 29.2749 21.305 29.0206 21.0506C28.8389 21.414 28.6693 21.7531 28.5119 22.1043C28.4513 22.2376 28.3787 22.2981 28.2454 22.177C28.2212 21.8984 28.4877 21.741 28.5119 21.4745C28.8147 20.881 29.1296 20.3118 29.4445 19.7304Z" fill="#DCC368"/>
<path d="M31.6366 27.0097C31.4065 27.47 31.1037 27.9181 30.9825 28.4147C30.8493 28.9355 30.4738 29.311 30.28 29.7955C30.0741 30.3042 29.5533 30.2073 29.1173 30.0256C28.6813 29.8439 28.6934 29.5048 28.8387 29.1172C29.0688 28.4874 29.0567 27.8455 28.8145 27.1672C28.4875 27.4094 28.4511 27.7243 28.4632 27.9666C28.4875 28.5601 27.7971 28.8265 27.8576 29.4079C27.8576 29.4321 27.7607 29.4927 27.7244 29.4806C27.5669 29.4442 27.4458 29.2626 27.4822 29.1657C27.7244 28.5843 27.2763 28.0271 27.4216 27.47C27.7486 26.1377 27.785 24.7084 28.7539 23.5941C28.9114 23.4246 28.8508 23.2187 28.875 23.0249C29.4201 21.7168 30.1226 20.4692 30.704 19.1732C30.8372 18.8825 31.0068 18.604 31.1521 18.3133C31.2369 18.1316 31.2611 17.8288 31.576 17.9136C31.8788 17.9984 31.9757 18.2648 31.9152 18.5434C31.8183 18.9673 31.9031 19.3791 31.8788 19.8031C31.8183 21.305 32.0121 22.8068 32.0726 24.2966C32.109 25.1566 31.9273 26.0044 31.7819 26.8523C31.7456 26.9249 31.6972 26.9734 31.6366 27.0097Z" fill="#002FAD"/>
<path d="M31.6489 26.9372C31.552 26.4527 31.7337 25.9803 31.77 25.4958C31.9396 23.352 31.5399 21.2324 31.552 19.1007C31.552 18.8706 31.6731 18.7252 31.7216 18.5435C31.7821 18.3255 31.7216 18.1075 31.5035 18.0469C31.2734 17.9743 31.2976 18.2286 31.225 18.3497C30.6315 19.5488 30.038 20.7479 29.4324 21.947C29.3476 22.1287 29.2265 22.3346 29.287 22.5163C29.4324 22.9644 29.1054 22.9523 28.851 23.0129C28.851 22.9281 28.8389 22.8433 28.8389 22.7464C29.7352 20.869 30.6315 19.0038 31.6247 17.1749C31.7458 17.0416 31.6973 16.9084 31.6368 16.7873C31.5641 16.6541 31.5157 16.5208 31.6852 16.4239C31.8306 16.3513 31.9638 16.4239 32.0728 16.5208C32.3029 16.7267 32.3756 16.9811 32.3514 17.2839C32.2666 18.483 32.3514 19.6942 32.4362 20.8933C32.4725 21.3535 32.5088 21.8259 32.4362 22.274C32.3514 22.7827 32.3635 23.2551 32.4967 23.7638C32.6542 24.3936 32.3272 24.9871 32.2545 25.6048C32.2545 25.6654 32.2424 25.726 32.2303 25.7865C32.0123 26.1136 32.0123 26.5254 31.8185 26.8645C31.77 26.9251 31.7216 26.9493 31.6489 26.9372Z" fill="#012795"/>
<path d="M31.6488 26.937C31.6851 26.9249 31.7093 26.9128 31.7456 26.8886C31.8789 26.7554 31.782 26.501 31.9758 26.392C32.0363 26.3799 32.0848 26.3799 32.1332 26.4162C32.0606 26.7069 31.9879 26.9855 31.9031 27.2762C31.4913 28.3663 31.1522 29.4806 30.4254 30.4253C30.377 30.4253 30.3285 30.4253 30.2801 30.4132C30.813 29.4927 31.2733 28.5358 31.6245 27.5305C31.6851 27.361 31.7941 27.2035 31.6488 27.0339C31.6609 26.9855 31.6609 26.9613 31.6488 26.937Z" fill="#9FA28B"/>
<path d="M22.5647 12.6086C22.71 12.1725 23.0128 11.8455 23.3035 11.5427C23.5579 11.2762 23.8849 11.3489 24.1877 11.5185C24.3815 11.6275 24.5511 11.7607 24.7327 11.8818C24.8175 12.3784 24.9023 12.875 25.5442 12.9598C25.6775 12.9719 25.7744 13.1052 25.8107 13.2505C25.0598 13.0204 24.6116 13.4806 24.1514 13.9409C24.0787 14.0136 23.9818 14.0378 23.8728 14.0378C23.4125 13.8682 23.0976 13.5412 22.928 13.093C22.9159 12.8508 22.6979 12.766 22.5647 12.6086Z" fill="#CDC480"/>
<path d="M23.9213 13.953C24.0424 13.8439 24.1877 13.7592 24.2725 13.638C24.6722 13.0324 25.1567 12.7781 25.8229 13.2504C25.8713 13.2747 25.9076 13.2989 25.9561 13.3352C26.2589 13.5654 26.7555 13.4927 26.9251 13.9408C26.3921 14.0741 25.8955 14.1225 25.4716 13.6623C25.1446 13.2989 24.9023 13.5775 24.6722 13.8076C24.3936 14.0862 24.1756 14.4859 23.679 14.2436C23.6427 14.1952 23.6185 14.1467 23.6185 14.0862C23.679 13.953 23.8244 14.0014 23.9213 13.953Z" fill="#0D3485"/>
<path d="M26.9371 13.9167C26.6101 13.7229 26.2831 13.5291 25.9561 13.3232C26.3558 13.3232 26.6828 13.5776 27.0461 13.6866C27.9182 13.9167 28.657 14.4375 29.4806 14.8009C29.5533 14.8372 29.6018 14.9099 29.5775 14.9947C29.5049 15.0068 29.4201 15.0189 29.3474 15.031C29.2626 15.0189 29.1778 15.0068 29.0931 14.9947C28.3663 14.7888 27.7123 14.3891 27.0461 14.05C26.9856 14.0257 26.9492 13.9773 26.9371 13.9167Z" fill="#978D81"/>
<path d="M29.5654 15.0068C28.7297 14.5708 27.8819 14.1348 27.0461 13.6988C27.5185 13.5776 27.8455 13.941 28.2573 14.0621C28.7418 14.3891 29.2869 14.6071 29.8319 14.7888C29.8682 14.8615 29.8925 14.9342 29.9288 14.9947C29.8077 15.0068 29.6866 15.0068 29.5654 15.0068Z" fill="#977946"/>
<path d="M22.9402 13.4322C22.371 13.1173 21.7896 13.2748 21.2203 13.4201C21.6079 13.19 21.9834 12.9599 22.4315 12.863C22.6495 13.0204 22.9281 13.1052 22.9402 13.4322Z" fill="#1F3460"/>
<path d="M22.9403 13.4321C22.7708 13.2505 22.6012 13.0567 22.4195 12.875C22.6375 12.8265 22.7586 13.0324 22.9282 13.093C23.2552 13.3837 23.5823 13.6623 23.9093 13.953C23.8487 14.0862 23.7518 14.0741 23.6428 14.0377C23.2795 14.0014 23.1705 13.638 22.9403 13.4321Z" fill="#E5E3A0"/>
<path d="M32.1334 25.8106C32.1213 25.5684 32.1576 25.3383 32.2061 25.096C32.3272 24.5268 32.4846 23.9575 32.1576 23.3882C32.0971 23.2792 32.0971 23.1097 32.1213 22.9764C32.412 21.6804 32.0123 20.3723 32.1213 19.0764C32.1818 18.4223 31.8185 17.7804 32.1576 17.1142C32.2545 16.9204 31.9638 16.6782 31.7821 16.4844C31.5278 16.763 32.0244 17.0052 31.7337 17.2232C31.7216 17.2353 31.6974 17.2232 31.6731 17.2232C31.661 17.2111 31.6368 17.199 31.6247 17.1869C31.6731 16.7266 31.2008 16.5086 31.1039 16.1089C31.1887 16.012 31.3098 15.9515 31.4188 16.0241C31.9396 16.3875 32.7148 16.3754 33.0055 17.0779C33.2477 18.277 33.1387 19.4761 33.0539 20.6751C33.0055 21.4382 32.9086 22.1891 32.7996 22.9401C32.6905 23.7516 32.5331 24.5631 32.3514 25.3625C32.3393 25.5321 32.3999 25.7864 32.1334 25.8106Z" fill="#02227D"/>
<path d="M32.751 23.025C32.8358 22.2741 32.9085 21.511 32.9933 20.7601C33.1386 19.5368 33.1023 18.3134 33.0296 17.1022C33.2597 17.187 33.2113 17.3808 33.2234 17.5625C33.2718 19.3187 33.187 21.075 32.9569 22.8191C32.9448 22.8918 32.8843 22.9523 32.8479 23.025C32.8116 23.0856 32.7874 23.0856 32.751 23.025Z" fill="#767F7B"/>
<path d="M32.751 23.0249C32.7873 23.0249 32.8115 23.0249 32.8479 23.0249C32.751 24.1877 32.5935 25.3262 32.1333 26.4163C32.0969 26.4163 32.0485 26.4163 32.0122 26.4284C31.9032 26.1983 32 26.0045 32.1454 25.8228C32.4845 24.9144 32.533 23.9454 32.751 23.0249Z" fill="#85877E"/>
<path d="M24.2604 35.7426C23.8729 36.0454 23.4732 36.0454 23.025 35.8274C22.6738 35.6457 22.3467 35.3913 21.9228 35.3913H21.9349C21.8744 35.1612 21.6806 35.0522 21.4868 34.9432C21.3051 34.8584 21.1113 34.7736 21.1234 34.5193C22.262 34.3739 23.4005 34.4829 24.539 34.4587C24.8297 34.4466 24.8418 34.6646 24.8055 34.8826C24.7449 35.246 24.4663 35.464 24.2604 35.7426Z" fill="#0030B2"/>
<path d="M24.2605 35.7425C24.2363 35.5124 24.3453 35.3186 24.4422 35.1248C24.745 34.5313 24.745 34.5313 24.0546 34.5313C23.0735 34.5313 22.1046 34.5313 21.1235 34.5313C21.2688 34.386 21.4626 34.4102 21.6322 34.4223C22.9403 34.4465 24.2363 34.3375 25.5444 34.5313C25.7018 34.5556 25.9199 34.495 25.9683 34.6767C26.0289 34.8826 25.823 35.0037 25.6776 35.0764C25.2174 35.3307 24.7934 35.6577 24.2605 35.7425Z" fill="#023C93"/>
<path d="M15.7942 28.9478C15.8426 28.9478 15.8911 28.9478 15.9395 28.9478C16.1454 29.2869 16.3634 29.626 16.4119 30.0378C16.1091 29.7229 15.9759 29.3232 15.7942 28.9478Z" fill="#AA8F25"/>
<path d="M18.2165 32.206C18.4587 32.2423 18.5678 32.3877 18.5193 32.6299C18.483 32.8116 18.3861 32.9933 18.1681 32.9933C17.8895 32.9933 17.6594 32.8722 17.623 32.5572C17.7441 32.315 17.9864 32.2666 18.2165 32.206Z" fill="#51D4E3"/>
<path d="M18.2165 32.2058C18.2528 32.7024 17.8168 32.4238 17.623 32.5571C17.6109 32.3754 17.3929 32.1574 17.6351 32.0241C17.841 31.9151 18.059 31.9999 18.2165 32.2058Z" fill="#ADFBF9"/>
<path d="M28.7298 32.4843C28.7661 32.3632 28.8146 32.23 28.8509 32.1088C29.0932 31.9998 29.3596 31.8666 29.5776 32.0483C29.8199 32.2421 29.6019 32.4843 29.5413 32.7023C29.1779 33.0051 28.9115 32.9082 28.7298 32.4843Z" fill="#ACF5F0"/>
<path d="M28.7299 32.4845C28.96 32.7388 29.2265 32.8115 29.5535 32.7025C29.5777 32.7994 29.5535 32.8963 29.4687 32.9568C29.178 32.8478 28.5966 33.2233 28.7299 32.4845Z" fill="#38B4B3"/>
<path d="M25.726 19.1492C25.9319 18.7132 26.0894 18.2529 26.3316 17.8411C26.5981 17.3808 26.4528 16.86 26.4285 16.3634C26.7192 15.8063 27.1674 15.6246 27.9304 15.8063C28.2332 15.879 28.4997 15.8911 28.8025 15.8184C29.3112 15.6852 29.4444 15.8063 29.3718 16.3392C29.3475 16.4846 29.3596 16.6178 29.4565 16.7268C29.2506 17.1386 29.0447 17.5383 28.8388 17.9501C28.4512 18.4588 27.9183 18.6526 27.2885 18.6889C26.7435 18.7132 26.3074 19.1734 25.726 19.1492Z" fill="#1A78E1"/>
<path d="M29.4565 16.7146C29.2143 16.6662 29.1174 16.5087 29.1658 16.2786C29.19 16.1574 29.3838 16.0363 29.19 15.9273C29.0568 15.8425 28.9236 15.9515 28.8146 16.0363C28.6571 16.1574 28.427 16.1938 28.2938 16.109C27.5913 15.7093 27.0099 15.9758 26.4285 16.3634C26.3558 16.327 26.271 16.2907 26.1984 16.2422C26.0046 16.109 25.8471 15.9152 25.9198 15.7093C25.9804 15.5397 26.2468 15.5882 26.4164 15.6003C27.6034 15.6487 28.7903 15.5276 29.9773 15.7335C29.8804 16.109 29.4928 16.3149 29.4565 16.7146Z" fill="#367DDD"/>
<path d="M23.6428 14.1711C24.0183 14.2438 24.2242 14.05 24.4301 13.7593C24.6602 13.4444 24.9024 13.0689 25.4111 13.299C25.5444 13.3596 25.8351 13.3112 25.6776 13.6261C25.6292 13.723 25.7139 13.8077 25.7866 13.7714C26.2105 13.5655 26.5497 13.9773 26.9494 13.9046L26.9373 13.9168C27.2037 14.1348 27.5671 14.1711 27.8335 14.3891C27.9426 14.486 28.0758 14.5587 28.0273 14.7283C27.9668 14.9099 27.7972 14.8252 27.664 14.8494C26.6345 15.0311 25.5928 14.8615 24.5633 14.9584C24.5027 14.9584 24.4543 14.9947 24.418 15.0432C24.3695 15.128 24.3089 15.2127 24.2605 15.2975C24.0546 15.4913 24.2242 15.6245 24.3332 15.7457C24.4785 15.9152 24.6481 16.0485 24.7934 16.218C25.3627 16.8357 25.617 17.2112 24.9872 18.1681C24.3574 18.3619 24.212 17.6957 24.0546 17.4413C23.5701 16.642 23.2915 15.7093 22.8918 14.8494C22.6496 14.3286 23.2794 14.5829 23.3642 14.268C23.4369 13.9773 22.5043 14.2196 23.1704 13.8077C23.449 13.7593 23.4974 14.0258 23.6428 14.1711Z" fill="#012EAA"/>
<path d="M23.6427 14.1711C23.4853 14.05 23.3278 13.941 23.1704 13.8199C23.0856 13.6988 22.916 13.6261 22.9402 13.4323C23.2188 13.5898 23.4489 13.7957 23.6548 14.0379C23.6427 14.0864 23.6427 14.1227 23.6427 14.1711Z" fill="#1F3460"/>
<path d="M24.4057 15.0552C24.9629 14.8736 25.52 14.704 26.1256 14.8615C26.4284 14.9341 26.7434 14.9826 27.0098 14.8251C27.3005 14.6556 27.567 14.6434 27.9061 14.7767C27.7729 14.2074 27.0946 14.377 26.925 13.9288C27.6881 14.1953 28.439 14.4981 29.081 15.0189C27.5185 15.0189 25.9682 15.0431 24.4057 15.0552Z" fill="#0D3485"/>
<path d="M32.1334 25.8107C32.0849 26.0166 32.0486 26.2104 32.0001 26.4163C31.8911 26.5616 31.9396 26.7917 31.7458 26.8886C31.8427 26.5132 31.7216 26.065 32.1334 25.8107Z" fill="#02227D"/>
<path d="M23.0492 12.2332C23.0734 11.894 23.4005 11.7245 23.7638 11.6639C24.0545 11.6033 24.5269 12.112 24.4905 12.4148C24.43 12.7903 24.2241 13.1779 23.8244 13.1173C23.4489 13.0568 23.0371 12.863 23.0492 12.2332Z" fill="#ADD0B5"/>
<path d="M23.4126 12.548C23.243 12.3178 23.3762 12.1604 23.57 12.0635C23.8728 11.9181 23.9334 12.2088 24.0424 12.3784C23.9334 12.8387 23.679 12.7054 23.4126 12.548Z" fill="#97F2F3"/>
<path d="M23.4125 12.548C23.6184 12.4753 23.8849 12.6691 24.0423 12.3906C24.1998 12.5965 24.1635 12.7903 23.9454 12.8872C23.6184 13.0204 23.5336 12.7418 23.4125 12.548Z" fill="#5DC5C6"/>
</g>
<defs>
<clipPath id="clip0_2_13407">
<rect width="48" height="48" fill="white"/>
</clipPath>
</defs>
</svg>
