<svg width="48" height="48" viewBox="0 0 48 48" fill="none" xmlns="http://www.w3.org/2000/svg">
<g clip-path="url(#clip0_2_9959)">
<path d="M20.812 0C22.809 0 24.806 0 26.803 0C28.9684 0.241449 31.0857 0.627767 33.1308 1.52113C38.1353 3.67002 42.009 7.00201 44.8241 11.6861C47.591 16.2978 48.3609 21.2958 47.8797 26.5352C47.0857 35.2998 42.4421 41.4809 34.9353 45.6821C34.1173 46.1408 33.2992 46.672 32.2887 46.5996C31.591 45.1026 31.4466 43.4608 31.0617 41.8672C30.8692 41.0946 31.4466 40.8048 32.0481 40.6117C33.2271 40.2495 34.3338 39.7183 35.4406 39.1388C40.9263 36.2656 43.7414 30.326 42.6105 24.2173C41.7444 19.7022 39.4586 16.0805 36.0902 13.0382C34.9113 11.9759 34.1654 10.3581 32.1444 10.4306C31.4707 10.4547 31.0857 9.73038 30.9654 8.95775C30.8451 8.08853 30.7489 7.21932 30.4361 6.37425C29.6421 4.22535 27.8376 3.5493 25.8406 4.70825C24.6135 5.40845 23.6511 6.44668 22.8331 7.58149C22.2075 8.4507 21.5098 9.00604 20.403 9.05433C19.6571 9.07847 18.9113 9.29577 18.1895 9.56137C17.203 9.94769 16.2647 10.1167 15.206 9.6338C14.3398 9.22334 13.9549 9.53722 13.9308 10.503C13.9068 11.1549 13.4977 11.3722 13.0887 11.6861C7.65113 15.6217 4.11429 22.6479 5.34135 29.0221C6.35188 34.2616 9.67218 37.5936 14.2917 39.8149C14.6045 39.9598 14.9654 40.0805 15.2782 40.2495C15.6872 40.4909 15.9759 40.829 15.8556 41.336C15.4947 42.9296 15.4466 44.5956 14.6767 46.0684C14.1233 46.3581 13.6662 46.0684 13.209 45.827C6.56842 42.3501 2.23759 37.0141 0.384962 29.6982C0.168421 28.8531 0.288722 27.9598 0 27.1147C0 25.0382 0 22.9618 0 20.8853C0.457143 16.1771 2.30977 12.0483 5.31729 8.47485C9.28722 3.7666 14.2436 0.748491 20.4752 0.144869C20.6195 0.120724 20.7158 0.0724346 20.812 0Z" fill="#1D962F"/>
<path d="M15.4706 46.4305C15.1819 46.3098 14.8691 46.1649 14.5804 46.0442C14.8932 44.5955 15.1579 43.1468 15.5188 41.7223C15.7112 40.9738 15.5428 40.6357 14.7729 40.3219C11.2361 38.8973 8.32478 36.6518 6.47215 33.2474C3.60899 27.9597 4.42703 20.8128 8.51726 15.8148C9.93681 14.0764 11.1398 12.0724 13.3774 11.1548C13.7624 11.01 13.618 10.7685 13.5699 10.4788C13.3774 9.31984 14.1714 8.64378 15.1819 9.22326C16.1924 9.80274 17.0346 9.60958 17.9729 9.29569C19.8496 8.66793 22.7127 6.95364 24.1804 5.55324C24.3488 5.38423 24.5173 5.21521 24.7097 5.07034C25.9127 4.15284 27.1879 3.3802 28.7759 4.00797C30.3639 4.63573 30.7729 6.06028 31.0616 7.55726C31.1338 7.94358 31.1819 8.35404 31.23 8.74036C31.3744 9.89932 32.4812 10.7444 33.612 10.4546C34.5744 10.1891 35.1278 10.5029 35.1518 11.4687C35.1759 12.0724 35.609 12.2655 35.9699 12.5553C40.3729 16.3219 42.9954 20.9577 43.0436 26.8732C43.0917 32.3782 40.5173 36.3862 35.8977 39.187C34.6947 39.9114 33.4436 40.5392 32.0721 40.8772C31.23 41.0945 31.1579 41.505 31.3503 42.2293C31.7112 43.6056 31.9759 45.0301 32.2887 46.4305C31.9518 46.5271 31.6391 46.6478 31.3022 46.7444C30.8451 46.4547 30.7729 45.9718 30.6526 45.513C30.412 44.6679 30.2436 43.7987 30.0752 42.9536C29.9067 42.181 29.5218 41.9154 28.7278 42.0361C25.1669 42.519 21.606 42.5673 18.0932 41.7464C17.3473 41.5774 16.9864 41.7947 16.818 42.5432C16.6255 43.4848 16.4812 44.4265 16.2165 45.344C16.1203 45.8027 16.1203 46.3822 15.4706 46.4305Z" fill="#050000"/>
<path d="M15.4708 46.4306C16.1686 45.0544 16.2167 43.5091 16.5535 42.0604C16.746 41.2636 17.0107 41.0946 17.8047 41.3119C21.5099 42.3019 25.2874 42.326 29.0407 41.65C30.0032 41.4809 30.1956 41.7707 30.3641 42.5675C30.6528 43.9679 31.0137 45.3683 31.3265 46.7687C31.1099 46.8411 30.8693 46.9135 30.6528 47.0101C29.931 46.0443 29.7385 47.0343 29.3535 47.3723C28.9445 47.5896 28.4874 47.5654 28.0543 47.5654C26.8272 47.7103 26.5144 46.817 26.1776 45.9236C26.0092 45.1751 26.6588 44.6198 26.5866 43.8713C25.7926 44.6681 25.4798 45.6821 25.1189 46.6962C24.9746 47.1308 25.0949 47.6862 24.5896 47.9518C23.531 48.0001 22.4723 48.0483 21.4137 47.8552C21.6543 46.2133 21.0047 44.8612 20.1866 43.4367C19.7776 43.8954 20.1866 44.33 19.9941 44.6681C19.3445 45.5856 18.2618 45.7063 17.3716 46.1892C16.9385 46.2375 16.4573 46.2133 16.1204 46.5997C15.8798 46.5755 15.6392 46.6479 15.4708 46.4306Z" fill="#44C323"/>
<path d="M19.8497 44.6438C19.8979 44.0885 18.9355 43.3642 19.8979 43.0503C20.7159 42.7847 20.764 43.7988 20.9806 44.33C21.3415 45.1992 21.534 46.1408 21.8227 47.0342C21.967 47.4929 21.943 47.8068 21.3896 47.8551C21.1971 47.8068 21.0046 47.7827 20.8121 47.7344C20.3069 47.2515 20.3309 46.5754 20.1144 45.9718C20.0182 45.5372 19.6813 45.1509 19.8497 44.6438Z" fill="#050502"/>
<path d="M24.5653 47.9517C24.6615 46.4065 25.3593 45.0544 26.033 43.7022C26.1773 43.3884 26.3939 43.1469 26.7788 43.3159C27.1879 43.5091 27.2119 43.823 27.0194 44.2093C26.7788 44.7405 26.5623 45.2958 26.3458 45.8511C26.3939 46.6238 26.2014 47.324 25.624 47.9034C25.2631 47.9276 24.9262 47.9517 24.5653 47.9517Z" fill="#060602"/>
<path d="M19.8495 44.6439C20.0901 45.0303 20.2585 45.4166 20.3067 45.8512C20.1623 46.7928 19.224 46.8411 18.6465 47.324C18.2616 47.2757 17.8525 47.3482 17.5157 47.1067C17.4195 46.7687 16.842 46.5755 17.2029 46.1168C17.9488 45.3683 19.0555 45.2958 19.8495 44.6439Z" fill="#62CC2B"/>
<path d="M18.6466 47.324C18.8391 46.4307 19.9459 46.5755 20.3068 45.8512C20.5955 46.4548 20.7398 47.0826 20.812 47.7345C20.0662 47.7103 19.3444 47.6138 18.6466 47.324Z" fill="#7BD132"/>
<path d="M25.6241 47.9035C25.8647 47.2274 26.1053 46.5514 26.3459 45.8512C26.7549 46.5755 27.1158 47.3723 28.0542 47.5413C27.2842 47.9035 26.4421 47.8069 25.6241 47.9035Z" fill="#5FCE2A"/>
<path d="M29.3533 47.3481C29.1608 46.9377 29.5217 46.7204 29.6661 46.4306C29.8104 46.1409 30.0751 45.9477 30.436 46.1168C30.8691 46.3099 30.7969 46.6479 30.6525 47.0101C30.2194 47.1308 29.7864 47.2274 29.3533 47.3481Z" fill="#0C0D09"/>
<path d="M17.2031 46.1167C17.2031 46.4789 17.6602 46.6962 17.5159 47.1067C17.0106 47.0101 16.5053 46.9135 16.0963 46.5996C16.1685 45.7304 16.5775 45.6821 17.2031 46.1167Z" fill="#090D05"/>
<path d="M41.1668 31.1951C40.4931 33.9476 38.7367 35.9033 36.5473 37.4969C34.021 39.3319 31.1097 40.2977 28.054 40.7323C22.7127 41.4808 17.5638 40.8772 12.848 38.1005C9.86456 36.3621 7.62697 33.9476 6.6405 30.519C7.33825 30.3259 7.41043 31.0019 7.74727 31.3158C10.827 35.517 15.3022 37.183 20.1623 37.9798C24.5653 38.7042 28.8961 38.2454 33.1307 36.7967C34.3337 36.3862 35.4646 35.7585 36.5954 35.179C37.4375 34.7202 38.1352 34.02 38.8811 33.4406C39.4585 32.9577 39.8195 32.3299 40.3007 31.7504C40.4931 31.4848 40.6616 31.0502 41.1668 31.1951Z" fill="#1D962F"/>
<path d="M38.9776 33.6097C38.3279 34.2616 37.6783 34.8894 36.8362 35.2998C33.8768 34.4548 30.8212 34.3823 27.8136 33.9236C24.0843 33.3441 20.3309 33.32 16.6257 32.499C13.6422 31.8471 10.5384 31.4608 7.45875 31.4608C7.19409 31.1469 7.04973 30.7123 6.6407 30.5433C6.1595 29.2153 5.89484 27.8391 6.01514 26.4145C6.56852 25.6419 7.29033 25.5695 8.10837 25.8833C9.45574 26.994 10.5384 28.3703 12.0783 29.2878C15.2061 31.1469 18.5986 32.0161 22.1595 32.3542C22.4723 32.3783 22.7851 32.3783 23.0978 32.4507C24.373 32.6439 25.6482 32.6198 26.8994 32.4507C28.8001 32.2817 30.6768 31.8713 32.5535 31.5332C34.2377 31.992 35.97 32.0644 37.6783 32.3542C38.352 32.4749 39.146 32.5473 38.9776 33.6097Z" fill="#55C827"/>
<path d="M25.3592 9.6096C27.669 9.58545 29.7863 10.3339 31.9517 11.2997C30.4359 12.3621 28.7758 12.8209 27.5006 13.9315C27.2359 15.2112 27.1878 15.2595 25.8645 15.0905C25.4314 15.0422 24.9983 15.0181 24.5653 14.9456C23.3863 14.7525 22.1352 14.2937 21.269 15.6217C21.0044 14.9215 20.5713 14.2937 21.2209 13.4728C21.6299 12.9416 21.1487 12.3621 20.5472 12.0482C19.6811 11.5895 18.8389 11.1307 17.7322 10.5512C19.6329 9.99592 21.245 9.53716 22.9773 9.6096C23.7472 9.80276 24.5653 9.80276 25.3592 9.6096Z" fill="#A3DE3A"/>
<path d="M27.525 19.3884C28.3189 22.3099 30.0513 24.3139 33.0107 25.1832C32.9625 25.5695 33.1791 26.1007 32.4813 26.1007C30.8693 25.6419 29.4016 24.7968 27.8137 24.3139C24.8783 23.4206 21.8949 23.2033 18.8874 23.6862C18.4543 23.7586 18.0212 23.8552 17.5881 23.7828C17.3475 23.7103 17.0347 23.6862 17.0347 23.324C19.0077 22.4548 20.2588 20.9095 21.0047 18.9055C22.1836 18.8813 23.3625 18.8572 24.5174 19.1228C24.758 19.1711 25.0468 19.1469 25.1911 19.2918C25.961 20.1369 26.731 19.7264 27.525 19.3884Z" fill="#7BD331"/>
<path d="M27.5247 19.3884C27.4284 19.6057 27.6209 20.0886 27.1637 19.9678C26.3938 19.7505 25.8886 20.2334 25.1186 20.7646C25.4795 19.823 25.3352 19.5574 24.4449 19.3642C23.2901 19.1228 22.063 19.6057 20.9803 18.9055C21.2209 17.819 21.3171 16.7324 21.2449 15.6218C21.4856 15.4769 21.5096 15.2354 21.5096 14.994C21.4615 14.2697 21.7502 14.1248 22.448 14.2697C23.7472 14.5352 25.0946 14.6318 26.3938 14.8974C27.284 15.0664 27.1397 14.2697 27.4765 13.9316C28.054 15.7425 27.284 17.5775 27.5247 19.3884Z" fill="#8FD835"/>
<path d="M13.1611 16.6358C13.931 16.829 14.6528 16.9497 15.2062 17.4326C15.4468 17.6257 15.7836 17.843 15.6874 18.1811C15.5671 18.5915 15.1581 18.6157 14.7972 18.6157C14.0754 18.6398 13.4257 18.2777 12.752 18.0845C12.3671 20.1127 12.5355 21.006 13.6182 22.503C11.9581 22.3098 10.6107 20.9094 10.2739 19.002C9.88889 16.7324 10.4904 14.7525 12.2227 13.2797C14.0272 11.7344 15.134 11.2998 17.1551 12.8692C15.2784 13.497 14.0513 14.7766 13.1611 16.6358Z" fill="#FDFDFD"/>
<path d="M31.5428 14.2213C32.7939 13.2072 33.9488 12.9175 35.2962 13.6901C37.0766 14.7042 38.1834 16.2012 38.4962 18.2052C38.8089 20.2334 38.3277 22.0201 36.5954 23.2998C36.2105 23.5895 35.8255 23.8793 35.224 23.6861C36.3789 22.2133 36.3548 20.5714 35.8977 18.8571C35.7774 18.4467 35.7533 18.1086 35.1277 18.3259C34.4541 18.5674 33.3954 19.002 33.1067 18.1569C32.818 17.3119 33.9969 17.167 34.6225 16.8048C34.6947 16.7565 34.7428 16.7082 34.839 16.66C34.0691 15.501 33.0105 14.6559 31.5428 14.2213Z" fill="#FDFDFD"/>
<path d="M32.6978 25.9558C32.9625 25.7626 32.5775 25.3039 33.0106 25.1832C34.5504 25.328 35.9941 25.1107 37.2933 24.2174C38.1354 24.1208 38.9535 24.2898 39.7715 24.4105C41.2632 24.6278 41.7204 25.1832 41.7444 26.7043C41.7444 27.0906 41.6001 27.5011 41.8888 27.8391C42.0091 28.7807 41.6963 29.6258 41.3835 30.4467C40.3008 30.0121 38.9775 30.157 38.2076 29.0463C38.6166 28.2737 38.4722 27.8874 37.5098 27.8874C36.0903 27.8874 34.767 27.4045 33.5399 26.7284C33.179 26.5594 32.77 26.4387 32.6978 25.9558Z" fill="#70CF2E"/>
<path d="M7.91589 25.9074C7.24221 25.9074 6.61664 26.1005 6.01514 26.4144C5.94296 24.3863 6.32792 22.4547 7.17003 20.6197C7.98807 20.2092 8.78206 20.4506 9.6001 20.6679C10.5144 22.2857 11.7896 23.4446 13.6663 23.8551C14.0993 24.169 14.8452 23.4929 15.1339 24.3138C13.4738 25.4003 11.549 25.4245 9.67228 25.4245C8.97454 25.4003 8.39709 25.4003 7.91589 25.9074Z" fill="#6ECF2D"/>
<path d="M38.2796 29.0705C39.1938 29.819 40.5653 29.5051 41.3833 30.4709C41.3111 30.7123 41.239 30.9538 41.1668 31.1952C40.3006 31.8713 39.9638 33.0303 38.9773 33.6097C38.8089 32.8612 38.2555 32.7405 37.5818 32.6439C35.8976 32.3542 34.1171 32.5232 32.5292 31.7023C32.5773 31.5091 32.6976 31.3401 32.8901 31.2677C34.5262 30.6158 36.1863 29.9639 37.7021 29.0705C37.8946 28.9498 38.0871 28.9498 38.2796 29.0705Z" fill="#55C727"/>
<path d="M27.9099 8.69213C26.4663 8.49898 24.9987 8.28167 23.1701 8.4024C24.4934 6.85712 25.528 5.45672 27.3566 4.97382C27.9581 4.82895 28.5355 4.94968 28.9445 5.50501C29.1851 6.37423 29.0648 7.2193 28.8242 8.04022C28.7039 8.49898 28.4874 8.88529 27.9099 8.69213Z" fill="#FCC91D"/>
<path d="M41.8887 27.8631C41.5037 27.5734 41.6481 27.1388 41.624 26.7524C41.5759 25.4728 40.9744 24.845 39.6752 24.7243C38.8571 24.6518 38.0391 24.6035 37.2932 24.2172C39.0015 22.9376 39.6752 21.1508 39.7233 18.7363C41.4556 21.7786 42.0812 24.7243 41.8887 27.8631Z" fill="#7ED431"/>
<path d="M9.57577 20.6439C8.75772 20.9577 7.96374 20.5473 7.14569 20.5956C7.48253 19.3642 8.20434 18.326 8.99832 17.0221C9.0705 18.4225 9.11862 19.5815 9.57577 20.6439Z" fill="#80D632"/>
<path d="M27.9098 8.69223C28.776 8.42663 28.5594 7.62985 28.6797 7.02623C28.776 6.54333 28.6316 5.988 28.9444 5.52925C30.0511 6.54333 30.003 7.89545 30.1474 9.34414C29.3293 9.10269 28.6075 8.88539 27.9098 8.69223Z" fill="#D29D1D"/>
<path d="M15.0615 24.2173C14.6766 23.7586 14.0269 24.2415 13.642 23.8069C14.7969 23.831 15.9277 23.7586 17.0344 23.3481C17.2029 23.4206 17.3713 23.493 17.5157 23.5654C16.842 24.3622 16.0239 24.5071 15.0615 24.2173Z" fill="#58A524"/>
<path d="M25.3594 9.60961C24.5654 9.97178 23.7714 9.99592 22.9774 9.60961C23.7714 9.48888 24.5654 9.46474 25.3594 9.60961Z" fill="#C4FC45"/>
<path d="M7.43463 31.4366C8.44516 30.6881 9.57598 31.1227 10.6346 31.2434C14.5564 31.7022 18.4301 32.3782 22.3279 33.0784C22.785 33.1509 23.2903 33.1267 23.7474 33.1267C26.37 33.0543 28.8963 33.8028 31.4948 33.9477C32.8662 34.0442 34.2136 34.4064 35.585 34.5271C36.1865 34.5754 36.4993 34.8893 36.8361 35.2756C34.1895 37.0865 31.1579 37.9074 28.0542 38.3662C24.6617 38.8732 21.2451 38.7283 17.9249 37.9074C14.7249 37.1348 11.7414 35.8551 9.2632 33.6096C8.56546 32.9819 8.03613 32.1609 7.43463 31.4366Z" fill="#44C223"/>
<path d="M15.0616 24.2173C15.8796 24 16.6977 23.7827 17.5157 23.5654C22.8811 22.4306 27.8856 23.5171 32.6977 25.9558C34.2616 26.9457 35.9217 27.5735 37.7744 27.6218C38.2074 27.6459 38.809 27.4528 38.9774 28.0805C39.1217 28.6117 38.5443 28.7566 38.2796 29.0705C36.4751 30.157 34.5262 30.9779 32.5293 31.7023C30.7007 32.1369 28.8962 32.6198 27.0195 32.6922C25.6721 32.8129 24.3247 32.8129 22.9774 32.6922C19.5127 32.499 16.2165 31.7505 13.0886 30.1811C11.0435 29.1429 9.26308 27.7908 7.89165 25.9075C7.72323 25.1831 7.93977 24.821 8.73376 24.9658C10.9232 25.3522 13.0165 24.8451 15.0616 24.2173Z" fill="#030000"/>
<path d="M22.9774 32.6922C24.3248 32.6922 25.6722 32.6922 27.0195 32.6922C25.6722 33.0061 24.3248 33.0302 22.9774 32.6922Z" fill="#44C223"/>
<path d="M9.74438 26.2937C10.4181 26.1971 10.8752 26.1006 11.3564 26.6076C13.0887 28.4185 14.5324 28.177 15.6151 25.9798C18.1414 28.0804 19.2722 27.9356 20.8602 25.3038C22.2557 27.5734 23.9158 28.2736 26.2015 26.0281C27.3805 28.4426 28.6316 28.7565 30.9414 27.1871C31.2542 27.3802 31.206 27.7183 31.3023 28.008C31.9278 29.5291 33.4677 30.012 34.8151 29.0221C35.3203 28.6599 35.7293 28.2977 36.379 28.6841C28.9444 33.6579 14.4361 31.7988 9.74438 26.2937Z" fill="#C03636"/>
<path d="M25.672 24.5795C25.1186 25.5453 24.6374 26.3663 23.5307 26.2455C22.5201 26.1248 22.1592 25.2798 21.8224 24.3622C23.1216 24.1449 24.3006 24.3622 25.672 24.5795Z" fill="#F8F8F8"/>
<path d="M16.4812 25.0141C17.612 24.7243 18.6226 24.4104 19.7534 24.4587C19.609 25.3279 19.3684 26.0764 18.4541 26.2454C17.5639 26.4386 17.0586 25.7867 16.4812 25.0141Z" fill="#F8F8F8"/>
<path d="M27.8136 25.1349C28.4392 25.3763 29.2091 25.6661 29.979 25.98C30.1956 26.0765 30.2196 26.2697 30.0031 26.4387C29.4978 26.8492 28.9926 27.2114 28.2708 26.9216C27.573 26.656 27.4046 26.0524 27.2843 25.4005C27.2843 25.2073 27.3805 25.0383 27.8136 25.1349Z" fill="#F1F1F1"/>
<path d="M32.1926 27.0423C32.9866 27.4286 33.5881 27.7183 34.2377 28.0322C33.155 28.6841 32.746 28.5151 32.1926 27.0423Z" fill="#E7E6E6"/>
<path d="M12.2947 26.0764C13.0887 25.8832 13.6902 25.7625 14.3157 25.6176C14.0511 26.7766 13.642 26.8973 12.2947 26.0764Z" fill="#E3E3E3"/>
</g>
<defs>
<clipPath id="clip0_2_9959">
<rect width="48" height="48" fill="white"/>
</clipPath>
</defs>
</svg>
