<svg width="48" height="48" viewBox="0 0 48 48" fill="none" xmlns="http://www.w3.org/2000/svg">
<path d="M0 24C0 10.7452 10.7452 0 24 0C37.2548 0 48 10.7452 48 24C48 37.2548 37.2548 48 24 48C10.7452 48 0 37.2548 0 24Z" fill="#ECB244"/>
<path d="M22.7608 30.7716H33.8416V36.3121H27.3036V41H21.6178V36.4574H14.799C14.799 34.6073 14.5181 32.767 14.9442 31.0623C15.0894 30.2099 16.0775 29.3574 16.7941 28.5052C18.9251 25.9481 21.0561 23.391 23.3323 20.8339C24.1846 19.8362 25.037 18.9838 26.0347 17.8507H15.3801V12.3102H21.6274V7.62292H27.168V12.1643H33.9869C33.9869 14.0142 34.2677 15.8547 33.8416 17.5594C33.6964 18.4118 32.7083 19.2641 31.9915 20.1165C29.8607 22.6736 27.7297 25.2307 25.4535 27.7878C24.6009 28.7861 23.7488 29.7739 22.7608 30.7716Z" fill="white"/>
</svg>
