<svg width="48" height="48" viewBox="0 0 48 48" fill="none" xmlns="http://www.w3.org/2000/svg">
<path d="M0 24C0 10.7452 10.7452 0 24 0C37.2548 0 48 10.7452 48 24C48 37.2548 37.2548 48 24 48C10.7452 48 0 37.2548 0 24Z" fill="white"/>
<path d="M30.7311 44.3573C29.317 44.8412 27.8525 45.1052 26.3692 45.2498C26.0298 45.2812 25.6841 45.3 25.3384 45.3252C25.1876 45.3692 25.0367 45.3378 24.8859 45.344C24.5653 45.344 24.2511 45.344 23.9305 45.344C23.7734 45.3629 23.61 45.3063 23.4529 45.3755C23.434 45.3755 23.4089 45.3755 23.39 45.3755C23.1009 45.2435 22.7866 45.2875 22.4849 45.2561C18.8144 44.9104 15.4644 43.691 12.4349 41.5855C12.3783 41.5478 12.3218 41.4975 12.2463 41.4409C12.9503 40.9947 13.6354 40.561 14.3205 40.121C15.3575 39.4611 16.4009 38.8074 17.4379 38.1412C17.595 38.0406 17.7208 38.0281 17.8967 38.1098C19.732 38.996 21.6741 39.48 23.7106 39.5617C24.1065 39.5805 24.5025 39.5868 24.8985 39.5994C25.1122 39.5491 25.3196 39.5617 25.571 39.5994C25.3824 39.8005 25.1499 39.7125 24.9676 39.7816C24.8482 39.8256 24.6471 39.7188 24.6219 39.9011C24.5968 40.0833 24.7916 40.0959 24.9299 40.1399C25.1687 40.2153 25.3887 40.341 25.6087 40.4604C25.7972 40.5673 25.9732 40.693 26.1932 40.7433C26.3126 40.7747 26.4383 40.8187 26.4572 40.9695C26.4635 41.0764 26.5452 41.0953 26.6206 41.1267C26.696 41.1581 26.7903 41.1895 26.8154 41.2712C26.872 41.4535 26.9537 41.5666 27.1297 41.6798C27.2868 41.7866 27.3623 41.9626 27.62 41.8998C27.7959 41.8558 27.9845 41.9123 28.0851 42.1197C28.1291 42.2077 28.2422 42.2517 28.2988 42.3397C28.3365 42.3963 28.3239 42.2769 28.3805 42.2894C28.4559 42.3083 28.4622 42.3774 28.481 42.434C28.6067 42.8111 28.7073 42.874 29.1033 42.7985C29.1787 42.786 29.2353 42.7923 29.273 42.8363C29.4112 43.0248 29.6501 43.1065 29.7758 43.2636C29.9769 43.5025 30.2409 43.6093 30.4609 43.7916C30.618 43.9424 30.7751 44.1121 30.7311 44.3573Z" fill="#009EEA"/>
<path d="M3.49091 23.918C3.49091 23.7734 3.49091 23.6288 3.49091 23.478C3.76117 18.4121 5.58388 13.9873 9.0156 10.2476C11.9634 7.03589 15.5836 4.93034 19.845 4.00013C24.5589 2.96936 29.1094 3.49103 33.4776 5.57143C34.5838 6.09939 35.6209 6.72791 36.6454 7.45699C35.8849 7.94096 35.1369 8.41235 34.3953 8.87745C33.4273 9.48712 32.4531 10.0968 31.4852 10.7127C31.3029 10.8322 31.1647 10.851 30.951 10.7504C29.0968 9.84537 27.1359 9.35513 25.0806 9.27342C18.4308 9.00316 12.4913 12.9314 10.1721 19.1789C8.9339 22.5101 8.90875 25.8915 10.0275 29.2729C10.0464 29.3232 10.0652 29.3672 10.0967 29.4489C10.3041 29.2227 10.4863 29.0215 10.6812 28.8204C11.6491 27.8211 12.6799 26.8909 13.7924 26.0486C13.9621 25.9229 13.9935 25.7972 13.9746 25.6024C13.4592 21.341 15.7659 17.0608 19.6125 15.1375C24.2509 12.8183 29.6688 14.0376 32.8177 18.1293C34.1879 19.908 34.8855 21.9444 34.9547 24.1945C34.9609 24.4019 34.9169 24.4648 34.697 24.4145C32.2394 23.874 29.7505 23.8048 27.2553 24.0374C24.1378 24.3328 21.1712 25.1687 18.3868 26.5954C13.8615 28.9021 10.3041 32.2396 7.78999 36.6706C7.74599 36.7523 7.69571 36.8278 7.62657 36.9346C5.07478 33.4715 3.7046 29.6249 3.49091 25.3698C3.49091 25.2253 3.49091 25.0807 3.49091 24.9299C3.49091 24.5905 3.49091 24.2574 3.49091 23.918Z" fill="#001645"/>
<path d="M38.2608 17.268C39.0716 15.9859 39.8887 14.6974 40.6995 13.4152C40.9321 13.0444 41.1646 12.6798 41.4223 12.2776C41.9314 12.9627 42.3588 13.6603 42.7548 14.3768C43.9427 16.5452 44.7158 18.8582 45.0866 21.3031C45.1055 21.4163 45.0992 21.5294 45.1054 21.6425C45.1306 21.7117 45.1557 21.7934 45.0489 21.8122C44.9672 21.8248 44.942 21.7557 44.942 21.6928C44.9546 21.5106 44.8289 21.366 44.8289 21.1837C44.8352 20.9637 44.6152 20.8632 44.5586 20.6746C44.5712 20.1844 44.1375 20.1718 43.8421 20.0147C43.8233 20.0084 43.7667 20.0272 43.7478 19.9895C43.5279 19.5244 42.9873 19.4679 42.6731 19.1347C42.3588 19.2039 42.3337 18.8016 42.1325 18.7765C41.8308 18.7388 41.7491 18.3742 41.4475 18.3868C41.2212 18.0286 40.7686 17.9531 40.5172 17.6326C40.467 17.576 40.4167 17.532 40.3413 17.5132C40.0144 17.4377 39.763 17.2555 39.5619 16.9852C39.3859 16.7527 39.0716 16.7087 38.8579 16.8658C38.6757 17.0418 38.5688 17.312 38.2797 17.3498C38.2734 17.3498 38.2608 17.3372 38.2608 17.3309C38.2357 17.3058 38.242 17.2869 38.2608 17.268Z" fill="#00DF86"/>
<path d="M26.4002 39.4801C26.8591 39.3984 27.3179 39.3104 27.783 39.2287C27.8584 39.191 27.9087 39.2476 27.9338 39.2979C28.0784 39.5493 28.3235 39.4864 28.5184 39.455C28.8075 39.4047 28.8641 39.3984 28.8892 39.6938C28.9018 39.8635 29.0086 39.8132 29.0778 39.8258C29.1029 39.8321 29.1532 39.7944 29.1783 39.8321C29.4109 40.1589 29.7691 40.3286 30.0771 40.5675C30.2845 40.7246 30.5673 40.7874 30.6805 41.0703C30.7182 41.1646 30.8753 41.2211 30.9382 41.1206C31.0702 40.9069 31.1267 41.0011 31.2084 41.1457C31.3216 41.3343 31.6233 41.2965 31.6861 41.5542C31.9941 41.4474 32.0632 41.6862 32.2015 41.8811C32.3272 42.0508 32.3901 42.0193 32.4026 42.1262C32.4341 42.3776 32.7232 42.2959 32.8112 42.4656C32.8426 42.4342 32.8237 42.3839 32.8363 42.3462C32.8929 42.2016 32.9997 42.2016 33.0689 42.3085C33.138 42.4342 33.2009 42.5222 33.358 42.4907C33.4334 42.4782 33.4963 42.5473 33.4837 42.6039C33.4397 42.8239 33.578 43.0187 33.5403 43.2324C33.0751 43.4775 32.5975 43.6975 32.0947 43.8672C31.7804 43.8421 31.5918 43.5404 31.2776 43.4964C31.1707 43.4838 31.2273 43.3581 31.1833 43.2952C31.1142 43.4901 31.0199 43.333 30.9885 43.289C30.8188 43.0376 30.5296 42.9181 30.3474 42.6856C30.2845 42.6102 30.2091 42.5599 30.1211 42.5222C29.7943 42.3902 29.5114 42.1702 29.2035 42.0256C28.9709 41.9125 28.8641 41.7679 28.7509 41.5857C28.6881 41.4851 28.5624 41.6045 28.4807 41.5102C28.223 41.2086 27.7201 41.2337 27.5442 40.8126C27.5379 40.8 27.5567 40.7749 27.5379 40.7874C27.211 41.0137 27.1796 40.6617 27.0476 40.5235C26.9596 40.4229 26.9094 40.3475 26.7334 40.3475C26.5448 40.3412 26.438 40.0835 26.262 39.9704C26.2305 39.9515 26.2117 39.9012 26.1928 39.8698C26.1488 39.7881 25.9603 39.807 26.0294 39.6561C26.0923 39.5178 26.2305 39.5241 26.3563 39.5241C26.3688 39.5241 26.3814 39.5304 26.3877 39.5241C26.4505 39.4864 26.4002 39.499 26.4002 39.4801Z" fill="#00A3E3"/>
<path d="M44.596 20.6622C44.9102 20.9324 44.9542 21.3158 45.0108 21.6929C45.0171 21.7244 44.9982 21.7935 45.0674 21.7558C45.0925 21.7432 45.0925 21.6866 45.1113 21.6489C45.2308 22.2146 45.2685 22.7866 45.281 23.3648C45.1365 23.3522 45.1051 23.2328 45.0674 23.126C45.0862 22.8431 44.9919 22.6231 44.7279 22.4849C44.6211 22.4283 44.508 22.3592 44.42 22.2775C44.2251 22.1015 44.0554 22.0763 43.9046 22.3215C43.6909 22.2083 43.8857 22.0261 43.8229 21.9129C43.8103 21.9695 43.8292 22.0638 43.7789 22.1392C43.7223 22.2398 43.6846 22.3529 43.5275 22.3026C43.4018 22.2649 43.2886 22.2146 43.3515 22.0449C43.4458 21.6049 43.2384 21.3158 42.7858 21.297C42.6727 21.2907 42.6098 21.2655 42.5596 21.165C42.4401 20.9261 42.2453 20.7879 42.0002 20.6622C41.7425 20.5302 41.5414 20.2788 41.2837 20.1405C41.0574 20.0148 40.8626 19.8136 40.586 19.7948C40.542 19.7885 40.5043 19.7885 40.4855 19.7445C40.366 19.4428 40.2655 19.7005 40.1586 19.7508C40.0204 19.8011 40.0266 19.556 39.8821 19.6125C39.8318 19.5685 39.7878 19.5057 39.8004 19.4491C39.8695 19.16 39.7187 19.0154 39.4798 18.9023C39.2724 18.8017 39.0776 18.6823 38.8387 18.7137C38.6502 18.7389 38.6816 18.6069 38.6565 18.5063C38.6125 18.3178 38.4679 18.2298 38.2794 18.2863C38.2417 18.2109 38.2039 18.1355 38.1599 18.0726C37.9651 17.7772 37.9965 17.5195 38.2605 17.287C38.4616 17.2618 38.5873 17.1299 38.6628 16.9664C38.7005 16.8847 38.7508 16.8659 38.8262 16.8533C39.0524 16.8344 39.2096 16.9979 39.3667 17.0984C39.9324 17.4567 40.454 17.8841 41.0197 18.2549C41.7676 18.7389 42.4841 19.2605 43.2258 19.7571C43.3264 19.8262 43.4269 19.9142 43.5715 19.8765C43.6029 19.8702 43.6469 19.8576 43.6595 19.8828C43.7915 20.1531 44.0429 20.2725 44.288 20.4045C44.3446 20.4359 44.3823 20.5113 44.464 20.505C44.6148 20.4547 44.5834 20.5742 44.596 20.6622Z" fill="#00DC8C"/>
<path d="M39.4675 22.6042C39.3607 21.7997 39.1847 21.014 38.9962 20.2284C39.1659 20.0398 39.2413 20.2032 39.3167 20.3226C39.367 20.3981 39.367 20.4861 39.5115 20.4546C39.8007 20.3855 39.9075 20.4923 39.9075 20.794C39.9075 20.9575 39.9515 20.9952 40.0709 20.926C40.2972 20.794 40.5297 20.882 40.5863 21.146C40.6617 21.5294 40.9069 21.6928 41.2651 21.7682C41.3531 21.7871 41.328 21.7305 41.3531 21.7117C41.5354 21.6174 41.6485 21.6425 41.6862 21.8625C41.6925 21.8877 41.6988 21.9191 41.7051 21.9505C41.8245 22.1831 41.9565 22.2773 42.1765 22.2962C42.3147 22.3088 42.3525 22.4282 42.4027 22.5288C42.4719 22.6733 42.5284 22.7739 42.7421 22.7299C43.0501 22.6733 43.3958 23.0253 43.4398 23.3898C43.4586 23.1824 43.5466 23.0819 43.7038 23.2453C43.8358 23.3773 44.0935 23.3647 44.1186 23.6098L44.5837 23.6287C44.7911 23.5595 44.9168 23.6475 44.8791 23.8675C44.8288 24.1881 44.9545 24.4017 45.2185 24.5526C45.2688 24.584 45.2499 24.6532 45.3002 24.6783C45.3191 25.2628 45.2876 25.8536 45.2185 26.4319C45.1934 26.4444 45.1619 26.4444 45.1368 26.4319C44.9168 26.0799 44.5146 25.9416 44.2129 25.6776C43.9049 25.4137 43.5404 25.1874 43.1821 24.9988C42.7987 24.7977 42.5284 24.4646 42.1513 24.2635C41.7616 24.0623 41.4411 23.7481 41.0514 23.5407C40.9571 23.4904 40.8754 23.4275 40.7686 23.4213C40.5297 23.3333 40.4103 22.9939 40.0709 23.1007C40.0144 23.1196 39.9704 23.0567 39.9704 23.0064C39.9578 22.667 39.7252 22.623 39.4675 22.6042Z" fill="#00D597"/>
<path d="M45.1619 26.432C45.1807 26.432 45.1933 26.432 45.2121 26.432C45.1493 27.0731 45.099 27.7142 44.923 28.3365C44.6779 28.0662 44.3762 27.8588 44.0871 27.6577C43.798 27.4628 43.5717 27.1548 43.1757 27.1171C43.0877 27.1108 43.1066 27.004 43.0689 26.9411C43.05 26.9097 43.05 26.9789 43.0249 26.9851C42.918 26.9977 42.918 26.9097 42.8866 26.8469C42.8678 26.8092 42.8489 26.7526 42.8112 26.7526C42.5346 26.7526 42.4152 26.5138 42.233 26.3818C42.013 26.2184 41.7993 26.0738 41.5416 25.9544C41.2525 25.8224 40.9885 25.571 40.7748 25.307C40.7057 25.219 40.6365 25.175 40.536 25.1562C40.4794 25.1436 40.3914 25.1436 40.36 25.0933C40.1777 24.8042 39.8257 24.7916 39.5869 24.6093C39.5492 23.9431 39.5115 23.2706 39.4675 22.6044C39.8006 22.4535 39.9389 22.5604 40.0394 23.1009C40.1148 22.7741 40.2405 22.9186 40.3537 23.0066C40.4354 23.0695 40.4228 23.2454 40.6177 23.1889C40.6868 23.17 40.7874 23.2957 40.7622 23.4214C40.9319 23.4969 41.0073 23.6666 41.1268 23.7923C41.3027 23.9808 41.5604 24.0437 41.7678 24.1945C42.0004 24.3642 42.2392 24.5339 42.4781 24.6973C42.7043 24.8482 42.9683 24.9676 43.094 25.2379C43.1066 25.263 43.138 25.2819 43.1694 25.2819C43.4963 25.2756 43.6723 25.5207 43.9048 25.6841C44.2254 25.9041 44.571 26.0864 44.8476 26.3566C44.9419 26.432 45.0613 26.4069 45.1619 26.432Z" fill="#00D19D"/>
<path d="M26.0925 34.7788C25.7406 34.873 25.3886 34.9045 25.0241 34.8982C24.8229 34.7159 24.7412 34.4582 24.6469 34.2257C24.4018 33.6097 24.1441 33.0001 23.8802 32.3904C23.591 31.7179 23.3208 31.0391 23.0191 30.3728C22.6294 29.5055 22.2586 28.6256 21.9129 27.7393C21.8312 27.5319 21.7369 27.3371 21.4792 27.2994C21.4289 27.2931 21.3786 27.2617 21.3849 27.1988C21.6992 27.092 22.0135 26.9851 22.3214 26.8783C22.8368 26.8657 22.8368 26.8657 23.0505 27.3874C23.1636 27.6514 23.3836 27.8776 23.3333 28.2044C23.3271 28.261 23.3271 28.3427 23.4528 28.3364C23.5282 28.3302 23.5973 28.4559 23.6225 28.5438C23.7922 29.1598 24.0687 29.7318 24.3327 30.3037C24.3955 30.442 24.5527 30.53 24.5967 30.6871C24.6469 30.8568 24.6847 31.0139 24.515 31.1145C24.6532 31.1585 24.7727 31.2465 24.8166 31.479C24.8921 31.8876 25.0429 32.2773 25.332 32.5915C25.4075 32.6732 25.4263 32.7738 25.4452 32.8806C25.4829 33.1509 25.6777 33.352 25.7783 33.5909C25.9228 33.9428 26.0863 34.2885 26.1617 34.6656C26.1805 34.7159 26.1303 34.7473 26.0925 34.7788Z" fill="#00B4CA"/>
<path d="M36.0103 41.8053C35.5578 42.151 35.0801 42.4464 34.5647 42.6916C34.5647 42.5093 34.4579 42.4213 34.2945 42.371C33.9865 42.2705 33.7162 42.1322 33.7288 41.7425C33.7288 41.6671 33.6848 41.5917 33.6094 41.5728C33.4963 41.5414 33.5088 41.6545 33.4837 41.7111C33.4208 41.8556 33.3517 41.8053 33.2763 41.7236C33.2071 41.6419 33.1631 41.5477 33.1191 41.4534C33.0563 41.3151 33.0563 41.0951 32.7986 41.1957C32.7735 41.2083 32.7295 41.1768 32.7232 41.1517C32.6603 40.9317 32.5786 40.85 32.3712 41.0448C32.2895 41.1203 32.2015 41.0134 32.1386 40.9443C32.0067 40.7934 31.8809 40.6489 31.6735 40.5986C31.5478 40.5672 31.5038 40.454 31.5164 40.322C31.5415 40.1272 31.4536 40.0266 31.265 40.0895C31.089 40.146 30.9947 40.0643 31.0262 39.9261C31.0639 39.7564 30.8565 39.8255 30.8879 39.6809C30.7999 39.7941 30.8439 39.9826 30.649 39.9575C30.4982 39.9386 30.4291 39.8318 30.4291 39.6935C30.4291 39.3353 30.0897 39.2787 29.8948 39.0901C29.7691 38.9644 29.5617 38.9267 29.524 38.713C29.964 38.5307 30.4102 38.3422 30.8502 38.1599C31.0953 38.1096 31.2964 38.1851 31.4473 38.3799C31.5415 38.5056 31.6735 38.5936 31.7741 38.7193C31.837 38.801 31.9124 38.9079 32.0632 38.8513C32.1009 38.8387 32.1764 38.8764 32.1952 38.9141C32.3146 39.1404 32.6415 39.1718 32.7106 39.4484C32.7357 39.5364 32.8049 39.5615 32.8803 39.5112C33.0311 39.4107 33.1443 39.4924 33.2448 39.5867C33.5717 39.8821 33.9865 40.0643 34.2693 40.4037C34.3762 40.5294 34.6402 40.4477 34.6339 40.6991C34.6653 40.6866 34.6402 40.6614 34.6402 40.6426C34.6527 40.5294 34.7282 40.5106 34.7784 40.5986C35.011 40.9946 35.5012 41.07 35.7778 41.4094C35.8909 41.5351 35.9852 41.6482 36.0103 41.8053Z" fill="#00AADA"/>
<path d="M25.6462 26.1113C26.0359 26.0107 26.4381 25.9856 26.8404 25.9479C26.8153 26.2433 26.9724 26.4821 27.0855 26.7272C27.1672 26.8969 27.1987 27.0541 27.1798 27.2112C27.2301 27.1421 27.1421 27.0226 27.2426 26.9284C27.3872 27.0164 27.4438 27.2175 27.4752 27.3243C27.6198 27.7706 27.9969 28.0848 28.0849 28.5562C28.1729 29.0088 28.4368 29.3922 28.6065 29.8133C28.7197 30.1024 28.9459 30.3915 28.8391 30.7561C28.8014 30.8818 28.8705 31.02 28.9334 31.1457C29.0716 31.4286 29.1785 31.7177 29.2853 32.0131C29.3231 32.1137 29.3293 32.0382 29.367 32.0382C29.4928 32.0382 29.5242 32.1639 29.4865 32.2331C29.3796 32.4405 29.5116 32.5851 29.6185 32.7045C29.8196 32.9307 29.8259 33.1822 29.7882 33.4587C29.5745 33.6158 29.3419 33.7353 29.0968 33.8295C28.8391 33.7415 28.8391 33.4713 28.7197 33.289C28.6568 33.1947 28.638 33.0753 28.55 32.9936C28.1791 32.6668 28.0597 32.2205 28.0472 31.7617C28.0409 31.5291 27.9026 31.3657 27.8083 31.2589C27.4689 30.8818 27.2615 30.5926 27.1987 30.159C27.1861 30.0835 27.1421 30.027 27.1044 29.9641C26.9975 29.7881 26.9095 29.6059 26.9347 29.3796C26.9661 29.1156 26.7964 28.8831 26.7084 28.6568C26.5638 28.286 26.4256 27.9026 26.2684 27.5317C26.1553 27.2678 26.0107 27.0415 25.7908 26.8467C25.5771 26.6393 25.5142 26.3941 25.6462 26.1113Z" fill="#00C0B9"/>
<path d="M19.9957 27.7958C20.2974 27.6261 20.618 27.4941 20.9448 27.381C21.2276 27.4753 21.3345 27.7204 21.4665 27.9592C21.5482 28.1101 21.5105 28.3049 21.6739 28.418C21.7242 28.4495 21.7367 28.5312 21.7304 28.594C21.7053 28.8769 21.8059 29.0968 22.0258 29.2791C22.1641 29.3923 22.0447 29.4991 22.0007 29.606C22.1327 29.5934 22.2395 29.6248 22.3024 29.7442C22.3087 29.7505 22.315 29.7568 22.315 29.7694C22.3527 30.4042 22.8681 30.8379 23.0252 31.4287C23.044 31.5041 23.0503 31.5669 23.0252 31.6424C22.9749 31.7932 23.044 31.8875 23.176 31.9503C23.2263 31.9755 23.2892 32.0069 23.2892 32.0446C23.2515 32.4154 23.6223 32.6417 23.6223 33.0063C23.6223 33.2262 23.7668 33.4148 23.792 33.6348C23.792 33.6599 23.8045 33.6725 23.8234 33.6725C24.0497 33.7479 24.0497 33.7479 24.1 33.9176C24.1691 34.1753 24.3325 34.4079 24.3262 34.6907C24.3262 34.7913 24.4205 34.8164 24.5085 34.8101C24.6153 34.8101 24.7222 34.7975 24.7913 34.9044C24.2005 34.9798 23.6097 34.9044 23.0252 34.829C22.9183 34.697 22.8995 34.5399 22.9183 34.3827C22.9435 34.1502 22.8555 33.9805 22.6984 33.8296C22.5727 33.7102 22.5035 33.5845 22.5161 33.3897C22.5349 33.1508 22.3338 32.9811 22.2207 32.7863C22.0258 32.4657 21.7367 32.1955 21.6802 31.8121C21.6362 31.4915 21.4099 31.2213 21.4413 30.8756C21.4539 30.687 21.3408 30.4859 21.2402 30.3288C20.9888 29.9454 20.8819 29.4991 20.6934 29.0968C20.53 28.7386 20.3791 28.3992 20.0963 28.1289C19.9957 28.0472 19.914 27.9341 19.9957 27.7958Z" fill="#00B0D1"/>
<path d="M27.5319 34.4583C27.268 34.5526 27.004 34.6406 26.7211 34.6594C26.5766 34.5274 26.608 34.2572 26.3503 34.1943C26.2686 34.1754 26.3315 34.0435 26.344 33.9617C26.3943 33.6601 26.344 33.5658 26.0486 33.5406C25.8475 33.5218 25.8161 33.4401 25.8161 33.2641C25.8161 32.8807 25.7218 32.5162 25.4327 32.2333C25.3572 32.1579 25.3195 32.0762 25.3132 31.9568C25.307 31.7368 25.3321 31.5168 25.2944 31.3031C25.2692 31.1711 25.3007 30.9826 25.0493 31.0768C24.955 31.1146 24.8921 31.0266 24.9236 30.9511C25.1435 30.4609 24.7036 30.3289 24.4647 30.0901C24.4082 30.0335 24.295 30.0021 24.3139 29.9204C24.4082 29.537 24.1316 29.273 24.0373 28.9524C23.9933 28.8016 24.0248 28.6068 23.7985 28.5188C23.6917 28.4748 23.7985 28.3365 23.8236 28.2422C23.8425 28.1605 23.9871 28.1165 23.8865 28.0034C23.7985 27.9028 23.6979 27.8337 23.5722 27.8211C23.2957 27.796 23.2391 27.708 23.3523 27.4377C23.4025 27.3246 23.4968 27.2303 23.4905 27.092C23.4842 26.9098 23.4654 26.7589 23.214 26.7966C23.1071 26.8155 22.9563 26.8595 22.8997 26.6898C23.2768 26.6206 23.6225 26.4258 24.0122 26.4132C24.0813 26.3818 24.1379 26.4195 24.1756 26.4698C24.559 27.0292 24.9487 27.5823 25.0241 28.2925C25.0618 28.6193 25.2692 28.9147 25.4201 29.2039C25.5709 29.4804 25.6652 29.7695 25.7532 30.0649C25.8161 30.2723 26.0298 30.3289 26.0926 30.5112C26.2246 30.9134 26.4383 31.2905 26.5012 31.7179C26.52 31.8374 26.5703 31.9379 26.652 32.0196C26.6897 32.0573 26.7526 32.095 26.7526 32.139C26.7588 32.5099 27.0794 32.7424 27.1737 33.0881C27.268 33.4401 27.4251 33.7795 27.6262 34.0875C27.7268 34.2697 27.5634 34.3389 27.5319 34.4583Z" fill="#00B9C4"/>
<path d="M33.9741 36.2118C34.3387 35.8786 34.7032 35.5518 35.0677 35.2187C35.1683 35.137 35.2123 35.2313 35.2689 35.2878C35.4197 35.445 35.5391 35.6398 35.8094 35.5958C35.8597 35.5895 35.9225 35.6147 35.9477 35.6587C36.2368 36.0672 36.771 36.0735 37.123 36.3815C37.2801 36.5197 37.519 36.5763 37.5693 36.8403C37.607 37.0414 37.8584 37.0414 37.9967 37.1482C38.1412 37.2614 38.3361 37.3117 38.3989 37.5128C38.4115 37.5505 38.4303 37.5945 38.4869 37.5882C38.7949 37.5505 38.9771 37.7391 39.1531 37.9527C39.348 38.1853 39.6937 38.2104 39.8759 38.4681C39.5868 38.839 39.2474 39.1721 38.8954 39.48C38.7886 39.524 38.7006 39.5052 38.6126 39.4235C38.3675 39.1784 38.0909 38.9772 37.7578 38.8578C37.7264 38.8452 37.6887 38.8327 37.6761 38.8138C37.4498 38.4116 36.9722 38.3361 36.683 38.0156C36.6453 37.9779 36.6013 37.9528 36.5573 37.9339C36.1677 37.7453 35.7905 37.5316 35.4574 37.2425C35.3254 37.1231 35.1683 37.0414 35.0112 36.9534C34.8163 36.8403 34.6404 36.6957 34.4518 36.5763C34.2884 36.4632 34.1187 36.3563 33.9741 36.2118Z" fill="#00B4CA"/>
<path d="M36.0104 41.8057C35.7213 41.2463 35.0425 41.1144 34.6968 40.5927C34.6905 40.687 34.6842 40.7687 34.6779 40.8567C34.6591 40.8504 34.6339 40.8441 34.6339 40.8378C34.6465 40.6492 34.5271 40.5864 34.37 40.555C34.2505 40.5298 34.2128 40.4104 34.1311 40.335C33.8608 40.0962 33.5214 39.9453 33.2638 39.6876C33.1506 39.5745 33.0186 39.4299 32.8364 39.6562C32.7295 39.7882 32.6981 39.6185 32.6729 39.5368C32.5787 39.2414 32.2958 38.9962 32.0884 38.9585C31.7302 38.8957 31.6107 38.638 31.4285 38.4369C31.265 38.2609 31.0388 38.286 30.8691 38.1666C31.2399 37.9717 31.6045 37.7832 31.9753 37.5884C32.1701 37.5444 32.2707 37.7141 32.4152 37.7895C32.6667 37.9152 32.9558 38.0032 33.1318 38.2357C33.2135 38.3363 33.4146 38.0849 33.3957 38.3551C33.4146 38.3112 33.3957 38.242 33.4774 38.2294C33.5717 38.2923 33.5026 38.3929 33.534 38.4683C33.534 38.3929 33.5152 38.3112 33.5529 38.242C33.5969 38.2232 33.6283 38.2357 33.6471 38.2609C33.6786 38.3049 33.6849 38.3551 33.6974 38.4054C33.7854 38.7574 34.0243 38.9711 34.3385 38.8768C34.5082 38.8203 34.5836 38.8894 34.6905 38.9397C34.9733 39.0842 35.2499 39.2414 35.4636 39.4865C35.6019 39.6499 35.7904 39.7379 35.9601 39.851C36.0104 39.8825 36.0984 39.8887 36.1172 39.9453C36.2304 40.2281 36.6326 40.1841 36.7269 40.4921C36.7395 40.5361 36.796 40.5298 36.8338 40.5424C37.1983 40.6304 37.1983 40.6304 37.148 40.9949C36.7898 41.3029 36.4189 41.5795 36.0104 41.8057Z" fill="#00ADD6"/>
<path d="M26.4007 39.4799C26.4384 39.4861 26.4824 39.4861 26.5138 39.4924C26.5389 39.5301 26.5326 39.5427 26.5012 39.5427C26.3567 39.549 26.2058 39.5239 26.1053 39.6684C26.2561 39.725 26.2875 39.9073 26.4069 39.9827C26.5264 40.0518 26.6458 40.1084 26.6961 40.2529C26.7023 40.2718 26.7275 40.3032 26.7275 40.3032C27.1989 40.0455 27.0732 40.5986 27.2743 40.718C27.4189 40.7998 27.5006 40.9443 27.5697 40.6049C27.6011 40.9317 27.9028 40.9757 27.9657 41.1957C27.9657 41.202 27.9908 41.2083 27.9908 41.2083C28.2925 40.9255 28.2862 41.3466 28.4308 41.3843C28.5188 41.4094 28.6005 41.6671 28.745 41.4346C28.7765 41.3843 28.8079 41.4848 28.833 41.5225C28.9524 41.6671 28.9085 42.0128 29.2667 41.8682C29.2793 41.9059 29.2856 41.9437 29.3044 41.9751C29.3358 42.0317 29.3861 42.1259 29.3987 42.1196C29.7821 41.9939 29.8701 42.5533 30.2535 42.4716C30.3918 42.4402 30.4295 42.679 30.5363 42.7733C30.6369 42.8613 30.882 42.8236 30.8066 43.075C30.8883 43.0436 30.8569 42.9242 30.9826 42.9619C30.97 43.0436 30.8569 43.163 31.0328 43.2258C31.1146 43.2573 31.1837 43.3453 31.2088 43.1441C31.2843 43.295 31.2465 43.4521 31.4917 43.4773C31.7116 43.5024 31.9128 43.7349 32.1202 43.8732C31.6739 44.0743 31.2151 44.2378 30.7437 44.3698C30.5866 44.0681 30.4358 43.7664 30.0461 43.7098C30.0272 43.7098 30.0021 43.6847 30.0021 43.6721C29.8889 43.3264 29.4741 43.295 29.3107 42.9933C29.2604 42.899 29.1976 42.8739 29.053 42.9304C28.7262 43.0561 28.4433 42.7922 28.4056 42.3836C28.3114 42.4402 28.3931 42.547 28.3365 42.6162C28.2925 42.6225 28.2988 42.591 28.2925 42.5659C28.2108 42.1574 27.796 41.9311 27.4063 42.0317C27.3309 42.0505 27.1486 41.9625 27.1172 41.818C27.0983 41.7111 27.0732 41.6923 26.9789 41.7237C26.9726 41.7237 26.9475 41.6797 26.9349 41.6483C26.8281 41.3654 26.5075 41.246 26.4007 40.9695C26.3441 40.8312 26.1807 40.7809 26.1241 40.7872C25.835 40.806 25.703 40.5483 25.4767 40.4729C25.2442 40.3975 25.0556 40.1964 24.7979 40.1901C24.6974 40.1901 24.6408 40.1901 24.5842 40.077C24.4271 39.7438 24.4208 39.7564 24.7791 39.7313C25.0053 39.7124 25.2316 39.681 25.4579 39.6056C25.2756 39.6056 25.0871 39.6056 24.9048 39.6056C25.395 39.5616 25.8978 39.5239 26.4007 39.4799Z" fill="#00A1E7"/>
<path d="M44.1687 31.2276C44.0807 31.5733 43.9613 31.9064 43.7978 32.2269C43.7036 32.2332 43.6533 32.3086 43.5904 32.3589C43.5339 32.4029 43.4584 32.4218 43.4333 32.3526C43.339 32.0887 43.0688 32.0509 42.8739 31.9441C42.4905 31.7178 42.1951 31.3596 41.7677 31.215C41.7174 31.1962 41.6734 31.1647 41.642 31.127C41.2963 30.6996 40.7244 30.5613 40.3787 30.1277C40.0707 30.1277 39.8822 29.8825 39.6622 29.7317C39.3793 29.5306 39.0085 29.43 38.8451 29.0718C38.9834 28.5815 39.1216 28.0913 39.2599 27.6073C39.3102 27.6324 39.3291 27.6827 39.3542 27.7267C39.3982 27.8021 39.3856 27.9404 39.505 27.9341C39.5805 27.9341 39.4925 27.7581 39.6245 27.7581C39.7125 27.821 39.6622 27.9153 39.6685 27.9907C39.6936 27.9216 39.6496 27.8336 39.6999 27.7644C39.725 27.7519 39.7502 27.7456 39.7627 27.7644C39.8382 27.909 40.2844 28.4118 40.5044 28.5312C41.0323 28.8203 41.4409 29.2666 41.95 29.5809C42.0694 29.6563 42.17 29.8323 42.3585 29.7003C42.3774 29.6877 42.4214 29.7128 42.4277 29.7443C42.4779 29.9077 42.6414 29.958 42.7482 30.0711C42.9116 30.2345 43.0939 30.3728 43.295 30.4796C43.3642 30.5174 43.427 30.6745 43.5401 30.5236C43.5653 30.4922 43.603 30.5236 43.6156 30.5488C43.7098 30.819 43.9613 30.9259 44.1624 31.083C44.2127 31.1207 44.1749 31.1773 44.1687 31.2276Z" fill="#00C8AD"/>
<path d="M29.537 38.7196C29.7319 38.927 30.021 39.0213 30.1844 39.2664C30.2724 39.3984 30.3855 39.2413 30.4924 39.3356C30.4484 39.4613 30.5049 39.6121 30.5112 39.7692C30.5175 39.8887 30.6055 39.9012 30.6809 39.9138C30.7878 39.9326 30.7312 39.8321 30.7501 39.7881C30.7815 39.719 30.8192 39.6435 30.8946 39.6121C30.9009 39.7504 31.1397 39.6812 31.0957 39.8635C31.0517 40.0521 31.0517 40.1589 31.278 39.9892C31.41 39.8824 31.4854 40.0709 31.5986 40.1023C31.6866 40.1212 31.6488 40.2092 31.6048 40.2846C31.5294 40.404 31.5734 40.5297 31.6991 40.5549C31.9505 40.5989 32.0825 40.7623 32.2145 40.9446C32.2522 41.0011 32.2962 41.064 32.3905 40.9886C32.6796 40.7434 32.6796 40.7497 32.7739 41.1645C32.9247 40.9886 33.0379 41.0011 33.107 41.2274C33.1636 41.416 33.2139 41.6108 33.371 41.7491C33.3836 41.7428 33.4087 41.7365 33.4087 41.7302C33.4464 41.6297 33.3521 41.4222 33.5533 41.46C33.6915 41.4851 33.8172 41.6108 33.8047 41.7931C33.7921 42.0193 34.0435 42.2896 34.2635 42.2959C34.4898 42.3022 34.6092 42.4782 34.5463 42.7044C34.2321 42.9244 33.8864 43.0878 33.5407 43.2449C33.4841 43.0501 33.3458 42.8993 33.415 42.6416C33.4464 42.5096 33.195 42.5787 33.0756 42.6667C32.9813 42.5473 33.1573 42.3336 32.9624 42.3085C32.7802 42.2833 32.9562 42.5159 32.8179 42.5724C32.7362 42.585 32.7173 42.1262 32.5665 42.5599C32.4533 42.3085 32.2208 42.1576 32.2397 41.8811C32.2271 41.9502 32.2145 42.013 32.2019 42.0822C32.2648 41.8182 31.9505 41.7868 31.9003 41.5982C31.8374 41.6359 31.7745 41.7051 31.7305 41.5857C31.6866 41.8119 31.7054 41.6485 31.6363 41.5919C31.542 41.5102 31.4854 41.3594 31.3157 41.3594C31.1272 41.3657 31.1397 41.1834 31.0643 41.0514C31.0266 41.2085 30.9323 41.2903 30.7815 41.284C30.6432 41.2777 30.6055 41.1771 30.5741 41.0828C30.4798 40.7811 30.1467 40.7937 29.9644 40.6052C29.8324 40.4732 29.6187 40.4292 29.5244 40.2343C29.5056 40.1966 29.3673 40.2343 29.361 40.1212C29.1473 40.1589 29.1725 39.9892 29.141 39.8761C29.0656 39.8007 29.1348 40.0772 29.0279 39.9075C29.0153 39.8887 29.0216 39.8509 28.9713 39.8824C28.8582 39.9515 28.8016 39.9264 28.8205 39.8132C28.8519 39.6435 28.7639 39.5367 28.6948 39.411C28.4622 39.6875 28.0788 39.6184 27.7709 39.2413C28.368 39.059 28.9525 38.8893 29.537 38.7196Z" fill="#00A8DE"/>
<path d="M18.2551 28.6946C18.4688 28.5437 18.695 28.4117 18.9402 28.3175C19.0219 28.2358 19.1601 28.33 19.2481 28.2106C19.2984 28.1415 19.355 28.2358 19.3738 28.286C19.5938 29.0025 19.9584 29.6562 20.2663 30.3287C20.5052 30.8441 20.6434 31.4035 20.9514 31.8937C21.0646 32.0823 21.1086 32.3023 21.184 32.5034C21.3977 33.1131 21.6805 33.6913 21.9571 34.2758C22.0073 34.3827 22.133 34.5147 21.9508 34.6278C21.2908 34.477 20.6497 34.2821 20.0526 33.9616C20.0464 33.8987 20.0401 33.8296 20.0903 33.7856C20.2098 33.6725 20.26 33.5719 20.0841 33.4713C20.0589 33.4588 20.0464 33.4211 20.0275 33.4022C19.8829 33.2765 20.1218 33.0314 19.8389 32.9057C19.6692 32.8302 19.6818 32.5411 19.5938 32.3526C19.575 32.3149 19.5498 32.2709 19.5624 32.2331C19.707 31.8498 19.3675 31.5921 19.311 31.2589C19.3047 31.2275 19.2858 31.1898 19.2607 31.1835C18.9024 31.039 18.8899 30.7624 18.9464 30.4356C18.9842 30.2345 18.8145 30.0962 18.7139 29.9453C18.6762 29.8888 18.5882 29.8636 18.607 29.7756C18.6573 29.4488 18.5002 29.1911 18.3116 28.9523C18.2299 28.8643 18.2488 28.7826 18.2551 28.6946Z" fill="#00AADA"/>
<path d="M31.3593 32.3211C31.089 32.5851 30.7999 32.8177 30.4731 33.0125C30.3474 32.9874 30.4165 32.9057 30.4291 32.8491C30.4605 32.7485 30.4542 32.6668 30.3725 32.5914C30.2908 32.516 30.2782 32.4154 30.2656 32.3086C30.2531 32.12 30.2342 31.9377 29.9828 31.8937C29.876 31.8749 29.8257 31.7366 29.7943 31.6235C29.6748 31.2338 29.5051 30.8693 29.3354 30.4984C29.0966 29.9956 28.8263 29.5054 28.6692 28.9585C28.6378 28.8391 28.6001 28.7134 28.5121 28.6191C28.3361 28.418 28.2544 28.2169 28.3612 27.9341C28.4429 27.7204 28.2292 27.5569 28.1098 27.4312C27.9778 27.293 27.8898 27.1421 27.827 26.9724C27.7201 26.6833 27.519 26.4193 27.5127 26.0988C27.5064 25.9731 27.3744 25.9794 27.3556 25.8851C27.7076 25.8348 28.0532 25.8222 28.4052 25.8411C28.5624 25.8725 28.6629 25.9416 28.7321 26.1113C28.82 26.3313 28.9269 26.5513 29.0589 26.7462C29.2851 27.0918 29.2789 27.5192 29.4926 27.8712C29.6434 28.1163 29.8005 28.3615 29.9011 28.638C29.9577 28.7951 30.0079 28.946 30.0394 29.1094C30.0897 29.3357 30.1274 29.5808 30.3222 29.7568C30.3788 29.8071 30.4291 29.8699 30.4353 29.939C30.4793 30.2973 30.6553 30.6053 30.8502 30.8944C30.913 30.9887 30.9319 31.1081 30.957 31.1898C31.089 31.5858 31.3216 31.9252 31.3593 32.3211Z" fill="#00C5B1"/>
<path d="M37.1421 40.9945C37.0604 40.9443 37.0793 40.8814 37.0981 40.806C37.1295 40.6551 36.9975 40.586 36.9033 40.6111C36.7021 40.6677 36.6644 40.542 36.5953 40.4163C36.5576 40.3535 36.5324 40.1272 36.3816 40.3409C36.3565 40.3786 36.3376 40.366 36.325 40.3283C36.0925 39.8506 35.5268 39.7501 35.2 39.3541C35.0491 39.1718 34.7663 39.0398 34.5275 38.9079C34.4897 38.889 34.4583 38.8639 34.4143 38.889C34.276 38.9644 34.0561 38.9267 33.9366 38.889C33.6412 38.7822 33.6224 38.5496 33.5847 38.2982C33.5721 38.3988 33.5595 38.4993 33.547 38.6187C33.4527 38.5119 33.5407 38.3862 33.4778 38.2919C33.3961 38.3359 33.4715 38.4365 33.3835 38.5056C33.4841 38.1662 33.1698 38.3233 33.063 38.2416C32.7236 37.9965 32.3276 37.8331 31.9819 37.5942C32.3842 37.3303 32.7927 37.0663 33.195 36.8086C33.4841 36.8714 33.7669 36.9532 33.9241 37.236C34.1818 37.0914 34.2572 37.4371 34.4709 37.4371C34.5903 37.4371 34.7726 37.456 34.584 37.6508C34.5463 37.6885 34.6343 37.6445 34.6406 37.676C34.6594 37.7451 34.7097 37.7325 34.7663 37.7451C35.0931 37.8205 35.3571 38.0468 35.6714 38.1473C35.8222 38.1976 35.9479 38.2919 35.9919 38.4616C36.0045 38.5119 36.0296 38.5936 36.0673 38.5936C36.4696 38.6062 36.5953 39.0273 36.9284 39.1655C37.1672 39.2598 37.3998 39.3855 37.6386 39.4924C37.8838 39.5992 38.022 39.9386 38.0975 40.2403C37.7832 40.5106 37.4878 40.7808 37.1421 40.9945Z" fill="#00B0D1"/>
<path d="M21.9507 34.634C21.9758 34.282 21.737 34.0306 21.5861 33.7541C21.5296 33.6535 21.429 33.597 21.4981 33.4587C21.517 33.421 21.517 33.3393 21.4918 33.3078C21.1147 32.9433 21.1587 32.3965 20.9136 31.9754C20.5428 31.328 20.3731 30.5863 20.0085 29.939C19.82 29.6121 19.7571 29.2287 19.5057 28.9145C19.3926 28.7762 19.3235 28.4871 19.3109 28.242C19.2166 28.286 19.2732 28.3677 19.2229 28.4494C19.204 28.2105 19.0343 28.3677 18.9401 28.3111C19.2732 28.1037 19.6251 27.9277 19.996 27.7894C20.0148 27.9214 20.0588 28.0471 20.1594 28.1163C20.5491 28.3865 20.6056 28.8516 20.8193 29.2225C21.0016 29.5367 21.0833 29.8887 21.2404 30.2092C21.3724 30.4795 21.605 30.7623 21.4856 31.1143C21.4793 31.1332 21.473 31.1646 21.4793 31.1709C21.7621 31.3657 21.6741 31.6988 21.7747 31.9628C21.8878 32.2645 22.1455 32.4845 22.2838 32.7673C22.3969 33.0061 22.7363 33.1821 22.554 33.5278C22.5415 33.5467 22.5729 33.6095 22.6043 33.6284C23.0568 33.9175 22.9814 34.3826 23.0129 34.8163C22.6546 34.7974 22.3026 34.7283 21.9507 34.634Z" fill="#00ADD6"/>
<path d="M41.6423 21.9192C41.5606 21.7558 41.4663 21.5987 41.3281 21.8815C41.2904 21.9569 41.2841 21.9067 41.2652 21.869C41.2401 21.8187 41.2464 21.7747 41.1458 21.781C40.731 21.8061 40.5927 21.4918 40.4984 21.1713C40.467 21.0582 40.5173 20.9199 40.3161 20.9387C40.159 20.9576 39.983 20.9199 40.0082 21.1713C39.807 21.0267 39.8322 20.8005 39.7756 20.6119C39.7253 20.4359 39.6185 20.4674 39.5368 20.5428C39.3545 20.7188 39.3042 20.5742 39.2665 20.4422C39.2225 20.2914 39.2037 20.1405 38.99 20.2348C38.8643 19.8577 38.7386 19.4806 38.6129 19.1035C38.638 19.0343 38.682 18.9212 38.7448 18.9715C38.8768 19.0783 39.1031 18.9463 39.1785 19.1852C39.2665 19.4806 39.6248 19.4932 39.7945 19.7006C39.807 19.6503 39.8322 19.6126 39.8888 19.5937C40.0396 19.5057 40.0396 19.7131 40.1402 19.7194C40.2533 19.864 40.2722 20.1342 40.5738 20.04C40.6053 20.0274 40.5676 20.0274 40.599 20.0525C40.687 20.128 40.7498 20.2159 40.7247 20.3417C40.8064 20.2537 40.9007 20.2348 40.9824 20.3228C41.0389 20.3794 41.0452 20.5114 41.1144 20.3291C41.1458 20.2474 41.2149 20.2851 41.2589 20.3354C41.2904 20.3731 41.3406 20.4171 41.3406 20.4674C41.3784 20.8382 41.7366 20.8947 41.944 21.0959C41.9566 21.1084 41.9817 21.1336 41.9943 21.1273C42.4217 20.9639 42.4657 21.4478 42.7234 21.5736C42.8742 21.649 42.9748 21.8187 43.1822 21.7872C43.3896 21.7558 43.4085 21.8815 43.3959 22.0387C43.3268 22.1644 43.3833 22.1958 43.509 22.2021C43.5719 22.2084 43.6096 22.2901 43.6662 22.1644C43.7227 22.0198 43.817 21.8941 43.7919 21.7244C43.8862 21.9067 43.7982 22.1141 43.905 22.2901C44.0056 22.4032 44.2067 22.5917 44.2318 22.5855C44.6529 22.51 44.6781 23.0443 45.0112 23.082C45.0426 23.0883 45.0741 23.0883 45.0992 23.1071C45.1558 23.1888 45.2186 23.2706 45.2752 23.3585C45.3003 23.7985 45.3317 24.2385 45.294 24.6784C44.8478 24.4396 44.7849 24.3265 44.8289 23.8299C44.8352 23.7608 44.8038 23.7105 44.7661 23.6602C44.7158 23.7294 44.6215 23.6099 44.5712 23.7168C44.4958 23.8991 44.4015 23.7985 44.3135 23.7231C44.213 23.6414 44.1878 23.6477 44.0621 23.7419C43.9804 23.6728 44.1438 23.5471 44.0496 23.5282C43.8359 23.4842 43.7353 23.2643 43.553 23.2266C43.4273 23.2014 43.5028 23.3963 43.4273 23.5031C43.4085 23.2894 43.3393 23.1071 43.1759 23.0003C43.0376 22.9123 42.9245 22.7175 42.7045 22.8117L42.4154 22.7615C42.2834 22.6546 42.3651 22.422 42.164 22.3529C42.1011 22.3843 42.0949 22.51 41.9503 22.5038C41.9503 22.3655 41.9252 22.2398 41.7429 22.2021C41.636 22.1706 41.5858 22.0449 41.6423 21.9192C41.6612 21.9004 41.6738 21.8815 41.6738 21.8627C41.68 21.8312 41.68 21.7998 41.6738 21.7684C41.6738 21.8187 41.6863 21.8752 41.6423 21.9192Z" fill="#00D893"/>
<path d="M31.3594 32.3212C31.3406 32.1012 31.1583 31.9567 31.0892 31.7555C31.0326 31.5984 30.9823 31.4476 30.9886 31.2841C30.8818 31.2527 30.9697 31.391 30.8755 31.3721C30.8629 31.0767 30.7623 30.8065 30.5361 30.5802C30.4732 30.5173 30.4544 30.4294 30.4418 30.3288C30.4229 30.1339 30.4104 29.9265 30.2344 29.7883C30.0207 29.6186 29.9767 29.3357 29.9578 29.1283C29.9327 28.7763 29.7441 28.5249 29.6184 28.2421C29.4739 27.9153 29.2853 27.6199 29.2036 27.2553C29.1219 26.9033 28.8956 26.5828 28.7134 26.2623C28.6317 26.1177 28.6317 25.904 28.418 25.8537C29.0025 25.7783 29.5933 25.7909 30.1778 25.8537C29.895 26.1114 30.0144 26.3817 30.1527 26.6519C30.2658 26.8845 30.3349 27.1548 30.4921 27.3496C30.8189 27.7519 30.932 28.2547 31.0766 28.7072C31.3469 29.5431 31.7868 30.2911 32.0822 31.1082C32.1325 31.2401 32.1199 31.4224 32.1199 31.5795C31.8874 31.8561 31.6423 32.1075 31.3594 32.3212Z" fill="#00C8AD"/>
<path d="M27.5319 34.4582C27.7141 34.1879 27.425 34.0057 27.3684 33.7983C27.2742 33.44 27.1673 32.9875 26.9159 32.7612C26.6834 32.5601 26.8656 32.3338 26.7085 32.2018C26.5325 32.0572 26.4382 31.8813 26.4005 31.6613C26.3188 31.2402 26.1805 30.8253 25.9606 30.4671C25.8663 30.3162 25.7092 30.178 25.6652 30.002C25.5772 29.6374 25.376 29.3232 25.2189 28.9963C24.9486 28.4181 24.8984 27.7581 24.5778 27.205C24.4207 26.9285 24.207 26.6897 24.0121 26.432C24.2573 26.3377 24.515 26.2874 24.7789 26.256C24.8795 26.2937 24.8921 26.4005 24.9298 26.4822C24.9989 26.6268 25.0178 26.8091 25.244 26.8091C25.332 26.8091 25.3572 26.9222 25.3886 26.9976C25.6777 27.6764 26.0423 28.3175 26.256 29.0278C26.2748 29.1032 26.3 29.166 26.3942 29.1786C26.4194 29.1912 26.4445 29.21 26.4571 29.2289C26.4885 29.4992 26.5451 29.7569 26.7776 29.9391C26.7085 30.3225 27.0102 30.5865 27.0982 30.9133C27.1359 31.0579 27.1799 31.171 27.3307 31.2465C27.4313 31.2967 27.513 31.4099 27.4753 31.5356C27.4124 31.7304 27.4879 31.8813 27.5696 32.0384C27.9027 32.7172 28.129 33.44 28.4998 34.0999C28.1918 34.2759 27.8587 34.3576 27.5319 34.4582Z" fill="#00BBC0"/>
<path d="M38.8451 29.0717C38.9519 29.2791 39.2787 29.2288 39.3353 29.499C39.417 29.3985 39.4547 29.3985 39.4736 29.5368C39.505 29.7127 39.7061 29.6122 39.8004 29.7253C39.8758 29.8196 39.9764 29.9264 40.0895 29.9516C40.5735 30.0773 40.8375 30.5361 41.2774 30.7121C41.4031 30.7624 41.51 30.8189 41.5854 30.9572C41.6357 31.0515 41.7237 31.1395 41.8682 31.1709C42.0694 31.2212 42.2579 31.3092 42.371 31.5292C42.4339 31.6549 42.635 31.6486 42.7607 31.7366C42.9304 31.856 43.0561 32.0383 43.3013 32.0446C43.4458 32.0446 43.383 32.2394 43.4898 32.3274C43.5967 32.3525 43.6155 32.0194 43.7978 32.2205C43.6344 32.7171 43.4207 33.1885 43.163 33.6473C42.9744 33.6599 42.9807 33.5216 42.9744 33.4022C42.9556 33.1948 42.8802 33.1005 42.6727 33.2325C42.5219 33.333 42.4088 33.245 42.3082 33.1633C42.1762 33.0628 42.0442 32.9559 41.9311 32.8365C41.7928 32.6919 41.6797 32.5851 41.4534 32.6165C41.29 32.6417 41.1831 32.5097 41.2774 32.3525C41.378 32.1954 41.29 32.1263 41.1894 32.0571C40.982 31.9189 40.8186 31.7303 40.5421 31.68C40.4038 31.6549 40.3472 31.4098 40.1398 31.416C40.0895 31.416 39.945 31.4412 39.9952 31.2903C39.989 31.3469 40.0015 31.4098 39.945 31.4475C39.8255 31.4098 39.8444 31.3029 39.8255 31.2149C39.7815 31.0138 39.6433 30.9384 39.4736 31.0201C39.3102 31.0955 39.1907 31.0641 39.0839 30.9572C38.8576 30.7498 38.5371 30.6618 38.3799 30.3727C38.5245 29.939 38.6816 29.5053 38.8451 29.0717Z" fill="#00C5B1"/>
<path d="M37.4371 32.2017C37.6383 31.8245 37.8394 31.4411 38.0468 31.064C38.2102 31.0389 38.2228 31.1709 38.2479 31.2714C38.2668 31.3532 38.2354 31.4474 38.3485 31.4789C38.3673 31.4286 38.2856 31.3154 38.4113 31.2652C38.5308 31.2966 38.5182 31.4223 38.5433 31.5103C38.6062 31.7366 38.7319 31.8497 38.9833 31.8308C39.0776 31.8245 39.1781 31.8308 39.2473 31.9628C39.4421 32.3525 39.8192 32.5473 40.1712 32.7548C40.3472 32.8616 40.5672 32.8993 40.718 33.0439C40.8374 33.1507 40.9568 32.981 41.0448 33.0564C41.1517 33.1444 41.1077 33.3204 41.1957 33.4273C41.202 33.4398 41.2585 33.5467 41.3151 33.4524C41.3779 33.3581 41.4471 33.2764 41.5665 33.3456C41.6796 33.4084 41.7111 33.5153 41.7048 33.641C41.6985 33.7164 41.7048 33.7478 41.7928 33.8232C42.0002 33.9992 42.195 34.1564 42.4653 34.2444C42.5847 34.2821 42.6915 34.4266 42.6601 34.5963C42.4967 34.9797 42.2704 35.3191 42.0316 35.6585C41.8053 35.5957 41.6733 35.4134 41.5602 35.2311C41.4785 35.0929 41.4031 35.03 41.246 35.0551C41.0637 35.0866 40.9128 35.0111 40.806 34.8729C40.5797 34.5712 40.1963 34.4581 39.9638 34.1689C39.8632 34.0495 39.6307 34.1626 39.593 33.9929C39.549 33.817 39.4107 33.9238 39.3353 33.8547C39.1027 33.6347 38.7759 33.5404 38.537 33.3581C38.3171 33.1822 38.0531 32.9999 37.9337 32.7045C37.9022 32.6291 37.8394 32.5473 37.7577 32.5411C37.544 32.5159 37.5063 32.3525 37.4371 32.2017Z" fill="#00C0B9"/>
<path d="M41.0198 37.1042C40.7433 37.5127 40.4353 37.8836 40.0896 38.2355C39.9702 38.1413 39.9702 38.1413 39.9953 37.8333C39.9702 38.0596 39.9388 38.135 39.8508 38.1098C39.6936 38.0658 39.6748 37.9276 39.7125 37.8081C39.7879 37.5693 39.8068 37.4373 39.4674 37.4876C39.3165 37.5127 39.2537 37.2613 39.1091 37.1796C38.9394 37.343 38.6 37.2676 38.556 36.9974C38.4995 36.6831 38.2418 36.7082 38.0595 36.6454C37.9212 36.5951 37.8144 36.5762 37.7578 36.4317C37.7138 36.3248 37.6447 36.2494 37.5253 36.1928C37.3556 36.1174 37.2801 35.8786 37.1544 35.8157C36.8904 35.6837 36.6453 35.5015 36.3562 35.4198C36.3059 35.4072 36.2368 35.4198 36.2179 35.3695C36.042 34.9609 35.6523 35.0364 35.3254 34.9672C35.6208 34.6341 35.91 34.2947 36.2054 33.9616C36.3751 33.8359 36.5259 33.861 36.6893 33.993C36.8779 34.1439 37.0853 34.2633 37.2864 34.3953C37.3367 34.433 37.4184 34.4581 37.4373 34.5021C37.5127 34.6718 37.7012 34.6655 37.8144 34.7661C38.1915 35.0992 38.6943 35.2564 39.0274 35.6397C39.1343 35.7592 39.2914 35.7089 39.4108 35.8157C39.8508 36.2117 40.3976 36.4694 40.869 36.8214C40.9507 36.8842 41.1078 36.9282 41.0198 37.1042Z" fill="#00B9C4"/>
<path d="M44.1687 31.2276C44.1058 31.0768 43.9424 30.9888 43.823 30.9322C43.647 30.8505 43.5779 30.7499 43.5904 30.4797C43.5402 30.6179 43.5276 30.6619 43.5087 30.7059C43.3076 30.5614 43.0688 30.4797 42.8991 30.2848C42.7734 30.1403 42.5094 30.1277 42.5094 29.826C42.4717 29.914 42.4528 29.958 42.4151 30.046C42.4025 29.914 42.3963 29.8323 42.39 29.7443C42.302 29.7317 42.3837 29.9894 42.214 29.8449C41.8934 29.5683 41.51 29.3798 41.1895 29.0969C41.0827 29.0026 40.9821 28.9021 40.9067 28.7952C40.7998 28.6507 40.781 29.0026 40.6993 28.8204C40.6301 28.6695 40.4981 28.613 40.3599 28.5375C40.2781 28.4935 40.2153 28.4181 40.121 28.3741C39.7753 28.217 39.7816 28.2044 39.7251 27.8147C39.7125 27.9153 39.6999 28.0159 39.6936 28.1101C39.6811 28.1101 39.6748 28.1101 39.6622 28.1101C39.6496 28.0096 39.6371 27.9027 39.6308 27.8022C39.5176 27.8462 39.6622 28.0347 39.5239 28.0159C39.3039 27.9844 39.2788 27.777 39.2599 27.5947C39.3228 27.2239 39.3857 26.8594 39.4485 26.4885C39.5931 26.3314 39.6873 26.4383 39.7125 26.564C39.7565 26.7462 39.7753 26.9034 40.0205 26.7965C40.0519 26.7839 40.033 26.7714 40.0456 26.7965C40.1524 27.0039 40.473 26.9599 40.5358 27.1925C40.6113 27.469 40.8375 27.5822 41.0575 27.6953C41.2272 27.7833 41.3843 27.8713 41.51 28.0221C41.6609 28.2044 41.8683 28.2861 42.0946 28.3113C42.1448 28.3175 42.17 28.3364 42.1888 28.3741C42.3397 28.6695 42.6351 28.7449 42.9116 28.8455C42.9619 28.8644 43.0122 28.8644 43.0373 28.9146C43.3013 29.386 43.8293 29.518 44.219 29.826C44.3572 29.9329 44.4892 30.0208 44.4767 30.2157C44.4201 30.5677 44.3132 30.9008 44.1687 31.2276Z" fill="#00CBA8"/>
<path d="M42.6604 34.5964C42.5975 34.2319 42.1953 34.3261 42.013 34.1187C41.9376 34.037 41.8496 33.9742 41.7742 33.8862C41.6611 33.7542 41.793 34.0119 41.6673 33.9302C41.6422 33.8547 41.6233 33.7416 41.6485 33.6222C41.6736 33.5216 41.6233 33.4274 41.5353 33.3896C41.4285 33.3456 41.4096 33.4588 41.3531 33.5091C41.2588 33.5971 41.1645 33.5531 41.1268 33.4525C41.0765 33.3331 41.0514 33.2011 41.0011 33.0314C40.9948 33.2262 40.8063 33.2011 40.7937 33.1948C40.4292 32.9057 39.9515 32.7863 39.5995 32.4971C39.4612 32.384 39.2601 32.2646 39.2098 32.0446C39.1658 31.8623 39.015 31.9566 38.9018 31.9252C38.531 31.8246 38.5122 31.7869 38.4367 31.3281C38.3236 31.3658 38.4807 31.5418 38.3362 31.5418C38.1728 31.5418 38.1665 31.4287 38.1916 31.2904C38.2105 31.2024 38.1476 31.1144 38.0533 31.0641C38.1602 30.8378 38.267 30.6053 38.3676 30.379C38.6002 30.5487 38.8578 30.6807 39.0653 30.8881C39.1658 30.9824 39.3041 31.0515 39.4738 30.9698C39.6749 30.8693 39.8761 31.0013 39.8949 31.215C39.9012 31.2778 39.9012 31.3344 39.9389 31.3972C39.9515 31.3092 39.9578 31.2212 39.9703 31.1395C39.9829 31.1395 39.9955 31.1395 40.008 31.1395C40.0143 31.2275 40.0206 31.3092 40.0332 31.4098C40.0835 31.347 40.1275 31.1333 40.1589 31.3909C40.272 31.2715 40.3474 31.4601 40.448 31.4287C40.5297 31.7052 40.8314 31.6549 41.0074 31.7995C41.1268 31.9 41.2274 32.032 41.3908 32.0949C41.4788 32.1263 41.4599 32.252 41.3719 32.3337C41.3217 32.384 41.2588 32.4343 41.3091 32.5223C41.3594 32.604 41.4474 32.5851 41.5039 32.5537C41.6988 32.4657 41.7868 32.5663 41.8999 32.7046C42.0444 32.8805 42.2267 33.0314 42.409 33.1697C42.4404 33.1948 42.5598 33.3205 42.6353 33.1759C42.6855 33.0754 42.7484 32.9937 42.8741 33.0942C42.9747 33.1759 43.1255 33.2137 43.0375 33.4022C42.9872 33.5091 43.0375 33.6033 43.1569 33.6599C43.0312 33.9867 42.8678 34.3073 42.6604 34.5964Z" fill="#00C3B5"/>
<path d="M39.5807 24.6091C39.8384 24.672 40.115 24.6908 40.291 24.9297C40.3475 25.0051 40.3978 25.0365 40.5047 25.0617C40.7498 25.1182 40.9321 25.3256 41.0892 25.5205C41.2212 25.6839 41.4726 25.6965 41.5354 25.9227C41.5857 25.7279 41.6549 25.9165 41.7114 25.9227C41.8183 25.929 41.8497 26.0422 41.9628 26.0862C42.1577 26.1616 42.3211 26.3376 42.4782 26.4884C42.5725 26.5827 42.6165 26.6518 42.7862 26.6078C42.9559 26.5701 42.9245 26.8152 42.9999 26.9472C43.0125 26.8655 43.025 26.7964 43.0439 26.7147C43.0628 26.7461 43.0816 26.7587 43.0816 26.7775C43.1193 26.9095 43.2073 26.8718 43.2262 26.9221C43.2953 27.0981 43.4839 27.0604 43.5719 27.1798C43.6159 27.2364 43.6661 27.2929 43.7227 27.3369C43.7541 27.3621 43.8107 27.5632 43.8484 27.3369C43.8547 27.3118 43.8673 27.2741 43.905 27.3181C44.1187 27.5883 44.3701 27.8083 44.6781 27.9717C44.7975 28.0409 44.8729 28.1854 44.9232 28.3237C44.9295 28.6191 44.8289 28.8957 44.7661 29.1785C44.6718 29.2099 44.6026 29.1596 44.5398 29.1031C44.1878 28.8077 43.7478 28.638 43.4022 28.3426C42.981 27.9717 42.4719 27.7329 42.0634 27.3432C41.8874 27.1735 41.6172 27.1546 41.4097 26.9975C40.9635 26.6644 40.5047 26.3439 40.0521 26.017C39.8824 25.8913 39.6436 25.929 39.5242 25.7342C39.543 25.3634 39.5619 24.9862 39.5807 24.6091Z" fill="#00CEA2"/>
<path d="M41.02 37.1042C40.844 36.8151 40.5297 36.7145 40.272 36.5386C39.9389 36.3123 39.6372 36.0357 39.2727 35.8723C38.9773 35.7403 38.8264 35.4387 38.5185 35.3507C38.2168 35.2627 38.0534 34.9484 37.7642 34.8416C37.7014 34.8164 37.5882 34.829 37.5945 34.7096C37.5757 34.7536 37.5568 34.7976 37.538 34.8416C37.4625 34.5084 36.5889 33.9365 36.1992 33.9616C36.3626 33.7542 36.526 33.5405 36.6895 33.3331C36.9472 33.1069 37.3871 33.132 37.6071 33.4023C37.6448 33.4463 37.6574 33.4337 37.6888 33.4337C37.9025 33.4211 37.9779 33.5405 38.0031 33.7354C38.0156 33.8359 38.0408 33.9114 38.1979 33.8296C38.3236 33.7605 38.399 33.8925 38.4179 34.0182C38.4368 34.1753 38.5059 34.2256 38.6693 34.2068C38.9521 34.169 39.1973 34.3765 39.2475 34.653C39.2664 34.7661 39.5052 34.7724 39.4047 34.9547C39.4298 34.9421 39.4235 34.9044 39.4361 34.8981C39.5932 34.8164 39.7504 34.7661 39.9075 34.9107C40.0898 35.0804 40.3537 35.1181 40.5423 35.2941C40.6303 35.3758 40.756 35.4198 40.7623 35.5769C40.7623 35.5832 40.9131 35.5518 40.9885 35.5958C41.1017 35.6586 41.1645 35.7718 41.2588 35.8535C41.4034 35.9729 41.5982 36.0295 41.6611 36.2306C41.4725 36.5323 41.2651 36.834 41.02 37.1042Z" fill="#00BBC0"/>
<path d="M39.5239 25.7406C40.2404 25.9292 40.7495 26.4634 41.3466 26.8468C41.5289 26.9662 41.6734 27.1485 41.9123 27.1673C42.1763 27.1862 42.2203 27.4816 42.4402 27.5822C43.0185 27.8398 43.4333 28.3615 43.999 28.6506C44.2818 28.7952 44.5144 29.0089 44.7658 29.1912C44.6841 29.5368 44.6275 29.8951 44.4829 30.2219C44.3887 30.0397 44.1938 29.958 44.0555 29.8322C43.7287 29.5243 43.2322 29.4363 43.0122 29.0026C42.9808 28.9398 42.9808 28.8392 42.8865 28.9523C42.8739 28.9712 42.8111 28.9775 42.8048 28.9712C42.6539 28.7072 42.2328 28.7701 42.1511 28.4244C42.038 28.4621 41.9689 28.3678 41.8809 28.3427C41.686 28.2861 41.5226 28.1855 41.4095 28.0095C41.2523 27.7707 40.9318 27.7896 40.737 27.5884C40.6301 27.4753 40.4855 27.4187 40.4855 27.2365C40.4855 27.1359 40.3976 27.0605 40.3096 27.0416C40.2027 27.0165 40.2279 27.161 40.1713 27.2113C40.0519 27.1296 40.1776 27.0353 40.1399 26.9474C40.1084 26.8719 40.077 26.8028 39.989 26.8719C39.6873 27.1108 39.681 26.8091 39.6685 26.6645C39.6496 26.4948 39.6245 26.4257 39.4485 26.4885C39.4736 26.2434 39.4988 25.992 39.5239 25.7406Z" fill="#00CCA4"/>
<path d="M27.356 25.9039C27.4754 25.9416 27.6074 25.8914 27.6011 26.1491C27.5949 26.4067 27.7708 26.677 27.8777 26.9347C28.0034 27.249 28.2359 27.5004 28.4496 27.7581C28.5376 27.8586 28.4811 27.9278 28.4308 28.0095C28.3239 28.1729 28.3302 28.3363 28.4685 28.4557C28.6571 28.6128 28.7136 28.8391 28.7765 29.0465C28.9776 29.6939 29.3233 30.2721 29.5936 30.8818C29.6941 31.1081 29.7695 31.3406 29.8513 31.5669C29.9015 31.7052 29.9141 31.8497 30.1341 31.8686C30.4232 31.8937 30.2661 32.1954 30.3604 32.3462C30.3729 32.3651 30.2975 32.4468 30.3541 32.4782C30.6243 32.6102 30.5112 32.8176 30.4672 33.0125C30.2598 33.1885 30.0335 33.3393 29.7884 33.4524C29.7381 33.113 29.6564 32.7862 29.3987 32.5285C29.3359 32.4657 29.2793 32.384 29.3987 32.296C29.4867 32.2331 29.4176 32.1514 29.3861 32.076C29.3107 32.076 29.3233 32.2457 29.2982 32.1765C29.1159 31.724 28.789 31.2966 28.7828 30.8001C28.7828 30.4733 28.6885 30.1716 28.5628 29.9139C28.4182 29.6059 28.3239 29.2539 28.0977 28.99C28.016 28.8894 28.06 28.7951 28.0348 28.6946C27.9468 28.3866 27.8588 28.066 27.664 27.8209C27.532 27.6638 27.4 27.5444 27.4251 27.3244C27.1989 27.2992 27.2932 27.1044 27.224 26.985C27.2115 27.0918 27.2052 27.1987 27.1926 27.2992C27.1423 27.0855 27.004 26.8781 26.9789 26.7084C26.9412 26.4507 26.5326 26.237 26.8281 25.9291C27.0103 25.9291 27.1863 25.9165 27.356 25.9039Z" fill="#00C3B5"/>
<path d="M26.4005 29.1912C26.2433 29.3609 26.2056 29.1661 26.1868 29.0969C26.0045 28.3553 25.5897 27.7079 25.3068 27.0039C25.2754 26.9222 25.2503 26.8845 25.1183 26.872C24.8731 26.8531 24.9171 26.5326 24.804 26.3629C24.7852 26.3314 24.7789 26.2874 24.7726 26.2434C25.0617 26.1743 25.3445 26.0989 25.6462 26.0989C25.6085 26.4571 25.7405 26.7337 26.0296 26.9537C26.2685 27.1359 26.3376 27.4376 26.4444 27.6953C26.5639 27.9782 26.5764 28.305 26.7964 28.5438C26.8216 28.5752 26.8593 28.6192 26.853 28.6507C26.809 28.8769 26.9598 29.0404 27.0227 29.2289C27.073 29.3798 26.941 29.518 27.0541 29.694C27.3558 30.1654 27.3872 30.7562 27.7203 31.2213C27.8021 31.1962 27.7518 31.1082 27.8021 31.0579C27.8146 31.0453 27.8272 31.0579 27.8335 31.083C27.846 31.1522 27.8398 31.2653 27.8775 31.2905C28.11 31.4162 28.0849 31.6299 28.1163 31.8436C28.1792 32.2584 28.3049 32.6481 28.6317 32.9749C28.8454 33.1886 28.9397 33.528 29.0905 33.8045C28.902 33.924 28.7071 34.0308 28.4871 34.0748C28.2734 33.9177 28.1477 33.6788 28.0849 33.44C28.0535 33.3206 28.0157 33.2137 27.9592 33.1069C27.7329 32.6858 27.6261 32.2144 27.3747 31.8058C27.3684 31.7996 27.3684 31.787 27.3747 31.7744C27.5066 31.4476 27.2615 31.2779 27.0981 31.0579C26.9221 30.8254 26.8907 30.5111 26.7021 30.2723C26.6707 30.2345 26.6204 30.1528 26.6267 30.1466C26.809 29.9831 26.6581 29.8826 26.5576 29.782C26.3753 29.6374 26.4319 29.4049 26.4005 29.1912Z" fill="#00BDBD"/>
<path d="M38.0782 40.2343C37.9463 40.1275 37.896 39.9703 37.8143 39.8384C37.7011 39.6561 37.6446 39.4424 37.324 39.5115C37.1543 39.5492 37.0538 39.2475 36.8526 39.2224C36.6578 39.191 36.5447 39.0653 36.4881 38.9081C36.4315 38.7573 36.2618 38.7007 36.2053 38.7259C36.0041 38.8013 35.9601 38.6442 35.9413 38.5499C35.8784 38.2608 35.6333 38.2168 35.4196 38.1414C35.3756 38.1225 35.319 38.1351 35.2813 38.0974C35.1493 37.9716 35.0299 37.8648 34.8037 37.9151C34.6528 37.9465 34.5271 37.6762 34.5962 37.5505C34.0683 37.4248 33.6786 37.0352 33.2009 36.8152C33.4649 36.6203 33.7289 36.4192 33.9929 36.2244C34.0369 36.2307 34.0997 36.2181 34.1123 36.2369C34.2443 36.4695 34.5208 36.5072 34.7094 36.6706C34.9168 36.8592 35.2122 36.9534 35.407 37.1483C35.6207 37.3683 35.9664 37.362 36.1361 37.6574C36.1927 37.7517 36.4127 37.8522 36.6012 37.8334C36.6892 37.8271 36.7206 37.9025 36.7646 37.9591C36.8715 38.1036 36.9281 38.2859 37.192 38.2231C37.2675 38.2042 37.456 38.3739 37.5314 38.5248C37.6194 38.707 37.7451 38.839 37.9525 38.8327C38.0845 38.8327 38.116 38.9584 38.204 38.9961C38.4742 39.1156 38.6251 39.4047 38.9205 39.4927C38.6565 39.7692 38.3674 40.0018 38.0782 40.2343Z" fill="#00B2CE"/>
<path d="M24.779 34.9043C24.3453 34.9735 24.2133 34.7724 24.1693 34.3575C24.1442 34.125 23.9933 33.8861 23.9368 33.6347C23.8551 33.6913 23.9179 33.8107 23.8173 33.8421C23.7985 33.8359 23.7671 33.8359 23.7671 33.8296C23.7356 33.509 23.4842 33.2513 23.5282 32.9056C23.5408 32.8302 23.5471 32.6417 23.3334 32.6417C23.2328 32.6417 23.2391 32.4908 23.258 32.384C23.2957 32.1577 23.2642 32.1577 23.0694 32.076C23.0317 32.0634 22.8243 31.8874 22.8934 31.7743C23.0066 31.5732 22.8997 31.4349 22.8494 31.2715C22.7677 31.0264 22.598 30.8127 22.5792 30.555C22.5666 30.3978 22.3089 30.6115 22.334 30.3413C22.3466 30.2344 22.2335 30.0522 22.2649 29.8699C22.29 29.719 22.0701 29.7505 22.0135 29.6436C22.0009 29.6813 21.9946 29.719 21.9821 29.7693C21.9066 29.6813 21.9255 29.5871 21.9758 29.5242C22.0763 29.3985 21.9883 29.3294 21.9066 29.2728C21.7244 29.1282 21.605 28.9774 21.6427 28.7134C21.6552 28.6003 21.7244 28.3866 21.4667 28.3991C21.6552 28.2169 21.2656 28.1352 21.385 27.9466C21.4101 27.9089 21.4478 27.7518 21.2718 27.8335C21.2153 27.8586 21.1336 27.7643 21.1461 27.7266C21.209 27.5192 21.0079 27.4941 20.9324 27.3872C21.0833 27.3244 21.2278 27.2678 21.3787 27.205C21.9632 27.2364 21.9569 27.7706 22.1455 28.1226C22.2712 28.3552 22.3277 28.6191 22.4723 28.8454C22.5729 28.9962 22.6232 29.2037 22.642 29.3545C22.686 29.7379 22.95 30.0082 23.0757 30.3476C23.2768 30.8944 23.5157 31.4349 23.7419 31.9754C23.9368 32.4343 24.1002 32.9119 24.3264 33.3456C24.471 33.6222 24.515 33.9364 24.6973 34.2004C24.8418 34.4141 24.9298 34.6592 25.0052 34.9043C24.9424 34.8981 24.8607 34.9043 24.779 34.9043Z" fill="#00B2CE"/>
<path d="M19.1788 33.5218C18.4308 33.1258 17.7646 32.6293 17.1738 32.0259C17.3498 31.8939 17.2744 31.7682 17.1989 31.5985C16.935 31.014 16.6333 30.4357 16.4761 29.8072C16.7653 29.5558 17.0858 29.3547 17.4189 29.1787C17.5823 29.1724 17.5446 29.3169 17.576 29.3986C17.664 29.6626 17.7332 29.914 18.06 30.0083C18.28 30.0712 18.3366 30.4483 18.2046 30.6431C18.1291 30.75 18.1543 30.8568 18.1857 30.97C18.2423 31.1774 18.3806 31.3345 18.4623 31.5293C18.4685 31.5419 18.4245 31.5985 18.4811 31.5608C18.8394 31.3471 18.8079 31.6739 18.8519 31.8436C18.8834 31.963 18.9148 32.0259 19.0216 32.1139C19.1599 32.2333 19.1411 32.4596 19.1662 32.6418C19.1788 32.7298 19.1725 32.7864 19.2856 32.8492C19.493 32.9875 19.4113 33.4338 19.1788 33.5218Z" fill="#00A3E3"/>
<path d="M41.661 36.2242C41.4599 36.0357 41.1833 35.9414 41.0199 35.6963C40.9319 35.5643 40.8188 35.6146 40.7308 35.7214C40.6994 35.5077 39.9828 34.9043 39.7 34.8792C39.612 34.8729 39.5115 34.9672 39.4297 35.0112C39.2663 34.7786 39.1029 34.5335 38.9269 34.2947C38.8641 34.2067 38.7635 34.2381 38.6755 34.2695C38.4681 34.345 38.3235 34.3135 38.3487 34.0496C38.355 33.9741 38.3675 33.8987 38.2733 33.8736C38.1978 33.8547 38.1287 33.8673 38.135 33.9804C38.135 33.9993 38.091 34.0496 38.0973 34.0181C38.1099 33.8799 37.8647 33.9176 37.9339 33.7542C37.9841 33.6347 37.915 33.5467 37.8207 33.5028C37.739 33.465 37.651 33.5028 37.5756 33.6347C37.6385 33.2513 37.4059 33.3331 37.2048 33.2953C37.0162 33.2576 36.8654 33.2513 36.7083 33.3393C36.9597 32.9622 37.2048 32.5851 37.4562 32.208C37.6573 32.4657 38.0093 32.5474 38.1601 32.8994C38.223 33.0439 38.4618 33.1696 38.5875 33.3393C38.5938 33.3519 38.7887 33.6159 38.8829 33.3268C38.9018 33.2639 38.9835 33.3456 39.0149 33.3959C39.1783 33.6536 39.1783 33.6536 39.5617 33.7856C39.6183 33.8044 39.5869 33.8484 39.5994 33.8861C39.6183 33.9741 39.7 34.0873 39.744 34.0558C39.9388 33.9239 39.9828 34.0936 40.0708 34.1878C40.3034 34.433 40.6616 34.5272 40.8565 34.8289C40.9759 35.0238 41.1707 35.0678 41.3656 34.986C41.4787 34.9421 41.5416 34.9798 41.5604 35.0489C41.6421 35.3192 41.881 35.47 42.0444 35.6774C41.9313 35.866 41.8056 36.0482 41.661 36.2242Z" fill="#00BDBD"/>
<path d="M32.1138 31.5859C31.8875 31.4037 32.0132 31.102 31.8749 30.8694C31.6235 30.4295 31.479 29.9266 31.2527 29.4741C31.1396 29.2415 31.0139 29.053 31.0516 28.7639C31.0642 28.6445 30.907 28.4873 30.8316 28.3491C30.6996 28.0976 30.6053 27.8525 30.6116 27.5697C30.4608 27.6011 30.4356 27.4566 30.3979 27.3811C30.1905 26.9474 29.9705 26.5201 29.8323 26.0549C29.8071 25.9732 29.8763 25.9481 29.9391 25.9355C30.0208 25.923 30.1088 25.9544 30.1654 25.8601C30.2282 25.8601 30.2911 25.8601 30.3476 25.8664C30.4922 25.8852 30.6556 25.8978 30.7625 25.9481C30.9196 26.0235 30.9824 26.2498 30.9887 26.4321C30.995 26.7526 31.127 26.9977 31.3093 27.2491C31.4853 27.488 31.5293 27.8022 31.6361 28.0788C31.9001 28.7513 32.1578 29.4175 32.4657 30.0649C32.5852 30.31 32.6669 30.5677 32.7486 30.8254C32.5789 31.1083 32.3652 31.3597 32.1138 31.5859Z" fill="#00CBA8"/>
<path d="M19.1786 33.5217C19.386 33.308 19.3672 33.088 19.1346 32.8932C19.0843 32.8492 19.0529 32.7675 19.0718 32.692C19.1158 32.5286 19.0655 32.2835 19.0026 32.2521C18.7135 32.0949 18.8078 31.8058 18.7135 31.5921C18.6758 31.5104 18.6004 31.5418 18.5501 31.5481C18.4307 31.5733 18.5501 31.6738 18.481 31.7493C18.4118 31.4853 18.2107 31.3156 18.129 31.0642C18.0536 30.8128 18.0347 30.7939 18.2358 30.5802C18.305 30.5048 18.129 30.0962 18.0033 30.0711C17.7079 30.0208 17.6199 29.782 17.5445 29.5557C17.5068 29.4363 17.4565 29.3106 17.4188 29.1849C17.6765 28.99 17.953 28.8203 18.2547 28.6884C18.4621 28.9523 18.6695 29.2666 18.6884 29.5683C18.7072 29.8448 18.8832 29.9643 18.9649 30.1591C19.0089 30.2597 19.0529 30.3539 19.0152 30.4859C18.9398 30.7373 18.9083 30.9636 19.2603 31.0704C19.4614 31.1333 19.43 31.4161 19.5243 31.5858C19.5683 31.6613 19.5431 31.787 19.6626 31.8435C19.7317 31.8812 19.7757 31.9629 19.7254 32.0258C19.4803 32.3338 19.8448 32.5663 19.8323 32.8429C19.8323 32.8743 19.87 32.9246 19.9203 32.8869C19.9768 32.8492 20.0145 32.7109 20.1025 32.824C20.1591 32.8869 20.0397 32.956 20.0397 33.0189C20.046 33.176 19.9454 33.3834 20.2345 33.4463C20.3099 33.4651 20.3728 33.7354 20.2094 33.7794C20.0774 33.8171 20.1214 33.9302 20.046 33.9616C19.738 33.8674 19.4552 33.7102 19.1786 33.5217Z" fill="#00A8DE"/>
<path d="M22.8933 26.7021C23.0567 26.8216 23.239 26.7147 23.4087 26.721C23.5281 26.7273 23.5281 26.7524 23.5533 26.853C23.6098 27.0918 23.5407 27.2992 23.4213 27.4941C23.3018 27.6889 23.327 27.8146 23.5784 27.7644C23.8047 27.7204 23.8675 27.9026 23.9806 28.0095C24.0624 28.0849 23.9429 28.1917 23.8989 28.2797C23.8675 28.3489 23.7732 28.418 23.8235 28.4997C23.8927 28.6066 23.9555 28.418 24.0309 28.4746C24.0309 28.7951 24.1189 29.0968 24.3075 29.3545C24.3578 29.4236 24.4269 29.4991 24.4018 29.5745C24.2069 30.071 24.7034 30.1779 24.9171 30.3853C25.1371 30.599 25.1057 30.7247 24.9863 30.9258C24.9737 30.9509 24.9737 30.9824 24.9674 31.0138C25.3068 30.9447 25.4577 31.1144 25.4074 31.4852C25.3697 31.7995 25.2628 32.1389 25.6651 32.3274C25.6965 32.34 25.7405 32.3965 25.7342 32.4217C25.6462 32.7611 26.0485 33.0314 25.8788 33.3833C25.8536 33.4399 25.8662 33.4902 25.9668 33.4902C26.4382 33.4965 26.5262 33.6159 26.413 34.0496C26.4005 34.0936 26.2873 34.169 26.4067 34.1753C26.7587 34.1941 26.633 34.4958 26.721 34.6655C26.5199 34.7472 26.3125 34.7912 26.0925 34.7849C26.149 34.6906 26.105 34.6027 26.0799 34.5147C25.9919 34.2507 25.7908 34.0244 25.8096 33.7227C25.8159 33.6347 25.7594 33.6347 25.6965 33.6222C25.6022 33.597 25.5205 33.5467 25.6022 33.421C25.6714 33.3142 25.5519 33.2765 25.5017 33.2199C25.4325 33.1319 25.3697 33.0502 25.3822 32.9119C25.3948 32.7925 25.332 32.6982 25.2251 32.5914C25.0554 32.4091 24.9988 32.1263 24.8606 31.9063C24.7349 31.7052 24.8291 31.4412 24.628 31.2652C24.5337 31.1835 24.4835 31.0578 24.3263 31.2212C24.6909 30.8944 24.6343 30.8692 24.3263 30.4356C24.1943 30.2533 24.0372 30.0019 23.9995 29.7505C23.9806 29.6185 23.9429 29.5179 23.8487 29.4299C23.7732 29.3545 23.7481 29.2665 23.7481 29.1534C23.7481 29.0591 23.8424 28.8643 23.6035 28.8517C23.5344 28.8454 23.5595 28.7888 23.5721 28.7323C23.6035 28.5751 23.5972 28.462 23.371 28.4369C23.2578 28.4243 23.2264 28.198 23.2264 28.066C23.2264 27.9026 23.2453 27.7706 23.0944 27.6449C23.0064 27.5758 22.9813 27.4312 22.931 27.3118C22.843 27.0981 22.8305 26.7901 22.4533 26.9598C22.4282 26.9724 22.3716 26.9096 22.3276 26.8844C22.5162 26.8153 22.7047 26.7587 22.8933 26.7021Z" fill="#00B8C6"/>
<path d="M35.3256 34.9671C35.4953 34.9859 35.6839 34.7282 35.841 35.0173C35.8724 35.0739 35.9039 34.9168 35.9981 34.8854C36.1364 35.187 36.3313 35.4007 36.7084 35.4825C36.8529 35.5139 37.1358 35.583 37.2049 35.7213C37.3432 35.9853 37.5946 36.0921 37.7643 36.287C37.89 36.4315 37.9214 36.6892 38.2042 36.4944C38.2105 36.4881 38.2608 36.5447 38.2859 36.5761C38.3048 36.6075 38.3048 36.6704 38.3362 36.6892C38.4368 36.7521 38.6819 36.4944 38.6505 36.7646C38.6316 36.9343 38.6568 36.9783 38.7511 37.0977C38.9459 37.3366 39.0213 37.236 39.1344 36.9658C39.1282 37.2423 39.4424 37.192 39.4424 37.4246C39.4424 37.4749 39.5116 37.4309 39.5304 37.3932C39.6435 37.192 39.7315 37.5063 39.8384 37.412C39.8887 37.4874 39.9012 37.5629 39.851 37.6446C39.8321 37.6697 39.8195 37.7011 39.8132 37.7325C39.7755 37.8457 39.7315 38.0091 39.851 38.0405C40.0332 38.0908 39.9264 37.8771 39.9955 37.8017C40.0961 37.9337 39.9515 38.1285 40.1086 38.2417C40.0395 38.3234 39.9641 38.3988 39.895 38.4805C39.6121 38.3485 39.3481 38.1914 39.0905 38.0217C39.059 38.0028 39.0025 38.0028 39.0025 37.9588C38.9836 37.7011 38.8076 37.7011 38.6128 37.6886C38.5499 37.6823 38.4242 37.7137 38.4116 37.6571C38.2985 37.2674 37.9277 37.2234 37.6449 37.06C37.5757 37.0223 37.5003 36.9658 37.5003 36.8715C37.494 36.7521 37.5569 36.5635 37.3055 36.6955C37.2678 36.7143 37.2238 36.6452 37.2363 36.5824C37.2489 36.5258 37.2489 36.4378 37.1986 36.4629C36.9221 36.5698 36.8844 36.1927 36.6455 36.1927C36.5827 36.1927 36.501 36.0418 36.3753 36.1361C36.2935 36.023 36.1364 36.0104 36.0547 35.8721C35.9856 35.7464 35.8913 35.5579 35.6776 35.7276C35.665 35.7339 35.4388 35.6333 35.4513 35.407C35.4073 35.5202 35.3885 35.5642 35.3696 35.627C35.3131 35.4573 35.2879 35.2876 35.0994 35.231C35.1371 35.1179 35.2251 35.0362 35.3256 34.9671Z" fill="#00B8C7"/>
<path d="M32.7548 30.8316C32.4909 30.4482 32.3526 30.0019 32.1515 29.5871C31.8938 29.0528 31.6989 28.4872 31.5104 27.9278C31.4538 27.7518 31.2464 27.6135 31.3407 27.3872C31.3595 27.337 31.2967 27.3118 31.259 27.2741C31.0264 27.0478 30.8881 26.7839 30.9258 26.4507C30.9447 26.281 30.7499 26.1742 30.7938 25.9919C30.687 26.0045 30.7624 26.105 30.6744 26.1365C30.6933 25.8976 30.4607 25.9605 30.3539 25.8662C30.6304 25.8662 30.907 25.8411 31.1772 25.9165C31.7052 26.0925 31.7555 26.6079 31.9818 27.0101C32.2583 27.4941 32.3652 28.0472 32.6417 28.5374C32.8365 28.8894 33.0502 29.2791 33.0942 29.7128C33.1131 29.8636 33.1508 29.9893 33.3268 30.0145C33.1571 30.3036 32.9937 30.5927 32.7548 30.8316Z" fill="#00CCA4"/>
<path d="M33.3267 30.0146C33.0627 30.1529 33.0313 29.9078 33.0187 29.7821C32.9999 29.4678 32.8302 29.2227 32.717 28.9461C32.5222 28.4747 32.2897 28.0222 32.12 27.5445C31.9503 27.0669 31.7491 26.5892 31.4726 26.1555C31.4349 26.0927 31.4412 26.0172 31.3092 26.1052C31.2023 26.1744 31.1835 26.0109 31.1772 25.9167C31.5731 25.9041 31.9691 25.967 32.3651 26.0109C32.6228 26.2498 32.6102 26.6269 32.805 26.8972C32.8365 26.9412 32.8365 27.0166 32.8867 27.0606C33.1319 27.2806 33.2073 27.5885 33.2136 27.8777C33.2136 28.1919 33.3896 28.4308 33.4398 28.7136C33.4587 28.8267 33.509 28.9587 33.6661 29.009C33.7855 29.0467 33.7729 29.1724 33.7604 29.273C33.6472 29.5432 33.5027 29.7884 33.3267 30.0146Z" fill="#00CEA2"/>
<path d="M33.7481 29.2728C33.7481 29.1031 33.5407 29.0905 33.4967 28.9774C33.3584 28.6442 33.151 28.3488 33.1384 27.9466C33.1322 27.7517 33.1322 27.4878 32.9499 27.2804C32.6356 26.9221 32.5225 26.4507 32.3591 26.0107C32.5853 26.0547 32.8242 26.0296 33.0442 26.1176C33.415 26.105 33.679 26.3816 34.0121 26.4758C34.0938 26.501 34.1252 26.5764 34.1315 26.6455C34.1944 27.1484 34.3452 27.6449 34.2446 28.154C34.1441 28.55 33.9681 28.9208 33.7481 29.2728Z" fill="#00D19D"/>
<path d="M16.4764 29.8134C16.7278 29.9391 16.7152 30.247 16.7781 30.4356C16.9289 30.8818 17.1803 31.2715 17.3375 31.7115C17.3689 31.7995 17.5009 31.8498 17.4318 31.9817C17.3563 32.1326 17.2432 31.9252 17.1741 32.0257C16.6461 31.5858 16.2313 31.0453 15.8165 30.4984C15.7222 30.379 15.7473 30.3099 15.8605 30.2282C16.0679 30.0962 16.2501 29.9202 16.4764 29.8134Z" fill="#01A2E6"/>
<path d="M39.8949 19.5937C39.8635 19.6816 39.8321 19.7696 39.7881 19.9079C39.7755 19.7382 39.7692 19.5937 39.5744 19.6439C39.5618 19.6502 39.5241 19.6377 39.5178 19.6251C39.4235 19.4491 39.191 19.4302 39.103 19.2228C39.015 19.0091 38.8138 19.0091 38.619 19.0971C38.5059 18.8206 38.3927 18.544 38.2796 18.2675C38.3047 18.2046 38.3299 18.1355 38.355 18.0726C38.3613 18.1732 38.443 18.1543 38.5059 18.1921C38.6504 18.2675 38.7761 18.3743 38.7321 18.5817C38.6881 18.8143 38.9018 18.4623 38.8956 18.6446C39.103 18.5252 39.2475 18.7452 39.4424 18.7577C39.5429 18.764 39.6498 18.8646 39.7252 18.9526C39.8321 19.0657 40.0395 19.1663 39.8509 19.3862C39.8258 19.4177 39.8761 19.5245 39.8949 19.5937Z" fill="#00DA90"/>
<path d="M34.2509 28.1541C34.2195 27.9278 34.3137 27.689 34.1189 27.4753C34.0749 27.425 34.1629 27.117 34.1252 26.9599C34.0938 26.8279 34.2509 26.4508 33.8361 26.5828C33.8172 26.5891 33.7669 26.5576 33.7606 26.5388C33.6538 26.1805 33.2955 26.2434 33.0567 26.1177C33.5784 26.1428 34.0812 26.2559 34.5903 26.3439C34.7286 26.3691 34.7851 26.4194 34.7474 26.5702C34.6029 27.0982 34.5023 27.6512 34.2509 28.1541Z" fill="#02D599"/>
<path d="M44.596 20.6621C44.5646 20.5678 44.4641 20.5867 44.4012 20.5427C44.1749 20.3855 43.8418 20.329 43.735 20.065C43.647 19.845 43.4898 20.0084 43.3579 19.9079C42.9493 19.5747 42.4968 19.2856 42.0568 19.0028C41.598 18.7074 41.1769 18.3554 40.6804 18.1103C40.3221 17.9343 40.0456 17.6012 39.6936 17.4001C39.5113 17.2932 39.373 17.0921 39.1593 17.0669C38.9896 17.0481 38.9708 16.8532 38.8199 16.8344C38.8388 16.6018 39.0211 16.627 39.1405 16.6773C39.3605 16.7778 39.6496 16.7778 39.725 17.1172C39.7376 17.1927 40.0581 17.1738 40.0896 17.4001C40.5861 17.3435 40.7558 17.884 41.1706 17.9783C41.1958 17.9846 41.2272 18.0034 41.246 18.0286C41.3843 18.2046 41.5603 18.3177 41.7614 18.4246C41.8746 18.4874 41.9248 18.676 42.1134 18.5817C42.1888 18.7891 42.5094 18.8142 42.4716 19.1096C42.5596 19.0594 42.5282 18.9337 42.6225 18.9399C42.6979 18.9462 42.7545 19.0028 42.7482 19.0908C42.7419 19.2416 42.8802 19.1599 42.8865 19.1662C43.1127 19.4176 43.4961 19.4616 43.6847 19.7382C43.8481 19.977 44.0807 20.0336 44.3384 20.0713C44.4703 20.0964 44.64 20.4924 44.596 20.6621Z" fill="#00DE89"/>
<path d="M43.4083 22.0386C43.358 21.938 43.1883 21.8437 43.1758 21.8563C42.9998 22.07 42.9935 21.7872 42.9118 21.7809C42.6729 21.762 42.6352 21.5043 42.4278 21.4289C42.2958 21.3786 42.2896 21.0581 42.013 21.2026C41.969 21.2278 41.8747 21.1901 41.8307 21.1146C41.7679 21.0078 41.7302 20.8947 41.5479 20.9889C41.485 21.0204 41.3845 20.8821 41.3845 20.7941C41.3782 20.6055 41.2588 20.4798 41.1771 20.3353C41.1331 20.4233 41.1645 20.549 41.0577 20.6055C40.9445 20.5553 40.976 20.3227 40.9131 20.3541C40.5988 20.5175 40.712 20.1781 40.5988 20.1153C40.5046 20.0587 40.4166 20.1719 40.3474 20.1342C40.1777 20.0524 40.1463 19.889 40.1526 19.713C40.3286 19.3862 40.3411 19.3799 40.5234 19.6879C40.5988 19.8136 40.5674 19.5496 40.6617 19.6691C40.7434 19.7696 40.9948 19.6753 41.0011 19.9205C41.3153 19.845 41.4473 20.1342 41.6359 20.2661C41.925 20.4736 42.2456 20.6433 42.5095 20.8821C42.6101 20.9701 42.585 21.1524 42.7169 21.1963C42.7798 21.2152 42.8552 21.1775 42.9495 21.2278C43.4397 21.4666 43.5529 21.6426 43.4083 22.0386Z" fill="#00DA90"/>
<path d="M45.0991 23.107C44.9734 23.2201 44.8602 23.2201 44.7911 23.0504C44.7219 22.8807 44.5271 22.8493 44.4391 22.6544C44.3511 22.4659 44.3574 22.7739 44.2254 22.8116C44.2757 22.5413 43.9488 22.5162 43.9048 22.2899C44.0243 21.9254 44.0243 21.9254 44.3323 22.1265C44.5334 22.2585 44.7345 22.3842 44.9294 22.5225C45.1431 22.667 45.1682 22.8744 45.0991 23.107Z" fill="#00DA90"/>
<path d="M45.162 26.4318C45.0615 26.5261 44.9106 26.5198 44.8541 26.4444C44.6969 26.2433 44.4267 26.1804 44.301 25.9478C44.2758 25.8976 44.1061 25.9416 44.0558 25.8913C43.8987 25.7342 43.6599 25.6776 43.5656 25.445C43.5405 25.3885 43.3016 25.357 43.289 25.3633C42.9559 25.489 43.0125 25.0805 42.8177 25.0239C42.7925 25.0176 42.7485 24.9548 42.6668 24.9234C42.4971 24.8605 42.3714 24.7034 42.2206 24.5965C42.0823 24.496 41.9252 24.4206 41.7932 24.3137C41.6109 24.1691 41.4349 24.0183 41.2149 23.9366C40.9698 23.8486 40.9321 23.5909 40.7812 23.4275C40.8378 23.4212 40.8504 23.2892 40.9258 23.3646C41.2401 23.6789 41.7492 23.7418 41.9817 24.1691C42.296 24.1629 42.4783 24.3954 42.692 24.5588C43.0565 24.8417 43.4839 25.0302 43.8296 25.3068C44.1124 25.5267 44.5021 25.621 44.6844 25.973C44.7158 26.0296 44.8415 26.061 44.9043 26.0798C45.0992 26.1176 45.118 26.2747 45.162 26.4318Z" fill="#00D39A"/>
<path d="M41.6546 21.9065C41.6546 21.8311 41.6546 21.7494 41.6546 21.6677C41.6672 21.6677 41.6798 21.6614 41.6798 21.6614C41.7238 21.7557 41.7301 21.8436 41.6546 21.9065Z" fill="#00D597"/>
<path d="M39.7817 26.6393C39.8068 26.6581 39.8445 26.6707 39.8508 26.6958C39.8697 26.7398 39.8382 26.7712 39.7942 26.7712C39.7754 26.7712 39.744 26.7398 39.7377 26.7147C39.7377 26.6958 39.7628 26.6707 39.7817 26.6393Z" fill="#00CBA8"/>
<path d="M26.4759 29.0842C26.5073 29.1094 26.545 29.1219 26.5513 29.1408C26.5701 29.1911 26.5324 29.2162 26.4884 29.2225C26.457 29.2225 26.4319 29.2036 26.4005 29.1911C26.4256 29.1596 26.4507 29.1282 26.4759 29.0842Z" fill="#00BBC0"/>
</svg>
