<svg width="48" height="48" viewBox="0 0 48 48" fill="none" xmlns="http://www.w3.org/2000/svg">
<path d="M0 24C0 10.7452 10.7452 0 24 0C37.2548 0 48 10.7452 48 24C48 37.2548 37.2548 48 24 48C10.7452 48 0 37.2548 0 24Z" fill="white"/>
<path d="M35.5929 21.8294L30.8538 23.9424L18.2814 30.3418L30.8538 36.3865V26.395L35.5929 24.2593V39.0202L30.8538 41.1332L12.3423 32.2737V27.5647L25.1562 21.2785L12.3423 15.1206V10.3437L17.1569 8.23065L35.5929 17.1053V21.8294Z" fill="#49C1BF"/>
<path d="M12.3423 10.3437L30.8538 19.2183L35.5929 17.1053L17.1569 8.23065L12.3423 10.3437Z" fill="#077A8F"/>
<path d="M30.854 19.1983L35.5932 17.0853V21.8093L30.854 23.9223V19.1983Z" fill="#298E97"/>
<path d="M12.3423 10.3478V15.1248L25.1562 21.2827L12.3423 27.5689V32.2779L30.8538 41.1374V36.3982L18.2814 30.346L30.8538 23.9466V19.2225L12.3423 10.3478Z" fill="#49C1BF"/>
<path d="M30.854 41.1022L35.5932 38.9892V24.2283L30.854 26.364V41.1022Z" fill="#298E97"/>
</svg>
