<svg width="48" height="48" viewBox="0 0 48 48" fill="none" xmlns="http://www.w3.org/2000/svg">
<g clip-path="url(#clip0_2_6576)">
<path d="M23.7015 0C23.8941 0 24.0866 0 24.2792 0C24.7798 0.750903 24.5102 1.59807 24.5487 2.40674C24.6065 3.60048 25.4729 4.19735 26.5511 3.73526C26.9169 3.58123 26.8784 3.23466 26.9747 2.92659C27.1865 2.13718 27.071 1.27076 27.6101 0.577617C28.284 0.308063 28.3225 0.770157 28.284 1.213C28.2455 1.84838 28.0914 2.4645 27.9567 3.09988C27.8219 3.75451 28.0144 4.10108 28.6883 4.27437C30.0746 4.64019 30.0361 4.64019 30.6137 3.31167C30.9025 2.63779 30.8447 1.73285 31.7497 1.44404C31.8459 1.4633 31.923 1.48255 32 1.55957C32.231 2.48375 31.5379 3.1769 31.4031 4.00481C31.3453 4.35138 30.941 4.77497 31.3646 5.04452C31.9037 5.3911 32.5006 5.75692 33.1937 5.73767C33.4633 5.73767 33.5595 5.41035 33.6943 5.19856C33.9831 4.65945 34.3104 4.15884 34.5993 3.61974C34.7725 3.31167 34.9651 3.02286 35.3694 2.98436C35.5234 3.00361 35.6197 3.08063 35.6775 3.2154C35.6582 4.02407 35.0999 4.60168 34.7533 5.27557C34.1372 6.43081 34.1179 6.43081 35.1961 7.1432C35.2539 7.18171 35.3116 7.20096 35.3502 7.25872C35.947 7.79783 36.4091 7.62455 36.8327 7.00842C37.1985 6.48857 37.6221 6.00722 38.065 5.54513C38.219 5.37184 38.3923 5.23706 38.6426 5.25632C38.7388 5.27557 38.8159 5.31408 38.8929 5.35259C38.7966 6.29603 37.9879 6.83514 37.5451 7.56679C36.9867 8.47172 36.9482 8.45247 37.7954 9.12635C38.8929 10.012 38.8929 10.012 39.9326 9.06859C40.4524 8.62575 40.876 8.02888 41.6462 7.95187C41.7425 7.99037 41.8002 8.04813 41.8387 8.12515C41.8002 8.95307 41.1263 9.28039 40.6065 9.72322C39.4127 10.7244 39.4127 11.5138 40.6642 12.4573C40.953 12.6691 41.2033 12.6113 41.4536 12.438C41.9735 12.1107 42.4934 11.8026 43.0132 11.5138C43.3983 11.302 43.7834 11.0132 44.2647 11.2828C44.3225 11.3598 44.3417 11.4368 44.361 11.5331C44.0529 12.361 43.1672 12.3995 42.5896 12.8809C42.2431 13.1697 41.5499 13.2082 41.6269 13.8051C41.7039 14.4597 42.0698 15.0566 42.4934 15.5764C42.7244 15.846 43.0325 15.5957 43.302 15.5379C44.2455 15.3069 45.0734 14.6522 46.1131 14.7292C46.3441 14.9025 46.3634 15.1336 46.2479 15.3646C45.497 15.8652 44.6305 16.0963 43.8026 16.3851C43.2058 16.5969 42.9747 16.9242 43.225 17.5211C43.2635 17.6173 43.2828 17.6943 43.3213 17.7906C43.7256 19.0999 43.7256 19.0806 45.1119 18.8688C45.8628 18.7533 46.6329 18.272 47.4031 18.8303C47.4609 18.9844 47.4416 19.1191 47.3646 19.2732C46.6715 19.8315 45.7858 19.716 44.9964 19.9085C44.4958 20.0241 43.9952 20.0626 44.0722 20.8327C44.207 22.2575 44.3417 22.5078 45.1889 22.5848C46.0938 22.6811 47.0373 22.3345 47.9037 22.8544C47.9037 23.0469 47.9037 23.2395 47.9037 23.432C47.1721 23.9134 46.3634 23.6245 45.5932 23.7016C45.2082 23.7401 44.6498 23.5475 44.4765 24.0096C44.2262 24.6258 44.2455 25.3189 44.4188 25.9735C44.4958 26.2431 44.8231 26.2431 45.0734 26.2816C45.6703 26.3971 46.2671 26.4741 46.8447 26.5897C47.1721 26.6667 47.5571 26.6667 47.6534 27.1288C47.5956 27.6871 47.1913 27.6486 46.8062 27.6101C46.1516 27.5331 45.497 27.3983 44.8231 27.2828C44.3802 27.1865 44.0722 27.3406 43.9759 27.8219C43.9567 27.8797 43.9567 27.9374 43.9374 28.0144C43.4946 29.728 43.4946 29.728 45.1697 30.2864C45.7088 30.4789 46.2671 30.5945 46.7292 30.9795C46.787 31.0566 46.8255 31.1336 46.8255 31.2298C46.5559 31.8075 46.1131 31.6534 45.6895 31.5187C45.0926 31.3261 44.4958 31.0758 43.8989 30.864C43.4561 30.71 43.1672 30.8063 42.994 31.2491C42.9555 31.3646 43.0132 31.2106 42.9555 31.3454C42.2238 33.29 41.9735 32.8472 43.7449 33.9639C44.2455 34.2912 44.9771 34.4067 45.1311 35.1576C45.1119 35.2539 45.0734 35.3309 44.9964 35.3887C44.2647 35.639 43.8026 35.0614 43.2828 34.7726C41.8002 33.9254 41.8387 33.9446 40.876 35.2924C40.3947 35.9663 40.4717 36.3321 41.1071 36.8712C41.7617 37.4104 42.7052 37.7377 42.8784 38.7581C42.8592 38.8544 42.8207 38.9314 42.7629 39.0084C42.4549 39.1817 42.2046 39.0084 41.9928 38.8159C41.7232 38.5848 41.4344 38.3923 41.1648 38.1613C39.4127 36.6594 39.9518 36.8905 38.373 38.3538C37.9494 38.7389 37.9302 39.0854 38.3345 39.4705C38.7966 39.9134 39.1432 40.4525 39.5668 40.9338C39.7978 41.2034 40.0674 41.4537 39.9711 41.858C39.9133 41.9928 39.8171 42.0891 39.6823 42.1276C38.7388 41.8965 38.45 40.9916 37.8724 40.3947C37.1215 39.6053 37.16 39.5668 36.2743 40.2599C35.0421 41.2226 35.0613 41.2034 35.793 42.6667C36.0818 43.2635 36.7749 43.7449 36.4284 44.5536C36.3514 44.6113 36.2743 44.6306 36.1781 44.6306C35.3694 44.284 35.2346 43.4176 34.7725 42.7822C34.5222 42.4356 34.4067 41.8002 33.9061 41.8965C33.1745 42.0313 32.4813 42.3971 31.9037 42.917C31.7304 43.071 31.8845 43.3406 31.9422 43.5523C32.1155 44.13 32.3658 44.6883 32.5583 45.2467C32.6931 45.651 32.9242 46.0939 32.5391 46.4982C32.4043 46.556 32.2695 46.556 32.1348 46.4789C31.5764 45.7473 31.3646 44.8809 31.095 44.0337C30.9025 43.4753 30.6137 43.302 30.0168 43.4561C28.1877 43.9374 28.207 43.8989 28.4958 45.8243C28.592 46.4212 29.0349 47.1336 28.3032 47.6727C28.1492 47.6919 27.9952 47.6727 27.8796 47.5572C27.4946 46.8063 27.4946 45.9591 27.3598 45.1504C27.2443 44.438 26.9362 44.1877 26.2045 44.284C24.6065 44.4958 24.6257 44.4765 24.6065 46.1324C24.6065 46.7485 24.7605 47.4031 24.3754 47.9807C24.1636 48.077 23.9711 48.0578 23.7593 48C23.2972 47.3069 23.586 46.5174 23.4897 45.7858C23.432 45.343 23.7015 44.7076 23.1239 44.515C22.4693 44.3032 21.7569 44.13 21.0638 44.3225C20.6787 44.438 20.7172 44.8809 20.6209 45.2082C20.4284 45.9976 20.5246 46.864 20.0048 47.5764C19.87 47.6727 19.7352 47.6919 19.5812 47.6534C19.2154 47.3646 19.2924 46.9795 19.3502 46.5945C19.4272 46.0554 19.4849 45.5162 19.6197 44.9964C19.793 44.2647 19.6005 43.8989 18.811 43.7064C17.1937 43.2828 17.213 43.2443 16.5776 44.8424C16.3465 45.42 16.2888 46.1131 15.7112 46.4982C15.4994 46.556 15.3261 46.5175 15.2106 46.3249C15.1335 45.3622 15.6919 44.5728 15.9615 43.7064C16.154 43.1095 16.1155 42.8014 15.4801 42.5126C13.7858 41.7617 13.8243 41.7425 12.8231 43.3406C12.515 43.8219 12.4573 44.5536 11.6871 44.6113C11.5523 44.5728 11.4368 44.4958 11.379 44.361C11.4368 43.3791 12.1492 42.7052 12.5728 41.8965C12.8616 41.3382 12.8616 40.9916 12.3032 40.6258C10.7051 39.5668 11.0517 39.1625 9.58842 40.9531C9.2226 41.4152 8.87603 41.9543 8.22139 42.0698C8.06736 42.0505 7.97109 41.9543 7.93259 41.8195C8.04811 40.9531 8.79901 40.5295 9.24185 39.8941C9.89648 38.9699 10.2816 39.0662 9.24185 38.0265C9.12633 37.9109 9.04931 37.7762 8.95304 37.6607C8.27916 36.8327 8.22139 36.8327 7.35497 37.4874C7.2587 37.5644 7.14317 37.6414 7.02765 37.6799C6.81586 37.6992 6.66183 37.6414 6.58481 37.4489C6.5463 37.083 6.77735 36.852 7.02765 36.6594C7.56676 36.2744 7.48975 35.87 7.16243 35.3694C6.19973 33.8484 6.21899 33.8676 4.64017 34.7726C4.10106 35.0806 3.61971 35.5042 2.94582 35.562C2.73403 35.485 2.67627 35.3117 2.69552 35.1191C3.0806 34.272 4.00479 34.1757 4.64017 33.6751C4.98674 33.4055 5.56435 33.3093 5.50659 32.7702C5.42958 32.077 5.16002 31.4031 4.73643 30.8448C4.50539 30.5367 4.15882 30.8255 3.85075 30.9218C2.98433 31.1721 2.19492 31.7497 1.21297 31.5572C1.02043 31.4416 0.962668 31.2684 1.03968 31.0566C1.77133 30.4404 2.71477 30.3057 3.56195 29.9591C4.12031 29.728 4.40912 29.4777 4.21658 28.8231C3.69672 27.0132 4.21658 27.0903 2.15641 27.3983C1.55954 27.4946 0.92416 27.8219 0.308035 27.4368C0.269527 27.3406 0.250273 27.2443 0.269527 27.148C0.462066 26.7437 0.866398 26.7052 1.23222 26.6282C1.57879 26.5511 1.92536 26.5126 2.25268 26.4356C3.69672 26.1468 4.06255 25.4922 3.5812 24.0674C3.46568 23.7208 3.23463 23.6631 2.92657 23.6631C2.29119 23.6631 1.65581 23.6823 1.02043 23.6438C0.654605 23.6245 0.231019 23.6631 0.03848 23.2395C-2.7841e-05 23.0854 0.0192261 22.9314 0.0962417 22.7966C0.904906 22.3538 1.77133 22.6041 2.6185 22.5656C3.67747 22.5078 3.73523 22.4116 3.88926 20.8135C3.96628 19.9856 3.40791 19.9856 2.88806 19.87C2.09865 19.6968 1.23222 19.7353 0.519828 19.2347C0.38505 19.0421 0.423558 18.8496 0.596843 18.6955C1.40551 18.3682 2.15641 18.7918 2.92657 18.8303C3.35015 18.8496 3.87001 19.1576 4.19733 18.7726C4.62091 18.2527 4.71718 17.5596 4.81345 16.9049C4.85196 16.6161 4.52464 16.5391 4.27434 16.4428C3.67747 16.231 3.0806 15.9807 2.48373 15.769C2.1179 15.6342 1.75208 15.4994 1.69432 15.0373C1.69432 14.941 1.73282 14.864 1.77133 14.7677C2.15641 14.4597 2.50298 14.7485 2.84955 14.864C3.31165 15.0181 3.75449 15.1528 4.21658 15.3261C5.41032 15.769 5.41032 15.769 5.98794 14.6137C6.52705 13.5355 6.50779 13.5548 5.50659 12.9194C4.81345 12.4958 3.96628 12.284 3.50418 11.5331C3.50418 11.3213 3.5812 11.1865 3.75449 11.071C4.69793 11.1288 5.33331 11.8026 6.10346 12.207C7.0469 12.7076 7.02765 12.7461 7.68228 11.8797C8.04811 11.3983 8.5102 10.9747 8.47169 10.3201C8.54871 10.1276 8.68349 10.0505 8.87603 10.012C9.85798 9.64621 10.5511 8.99158 10.8977 7.99037C10.9169 7.79783 10.994 7.6438 11.2058 7.58604C12.1877 7.79783 12.7846 7.06619 13.4585 6.58484C13.805 6.33454 13.5162 6.00722 13.3814 5.73767C12.9771 4.89049 12.3032 4.15884 12.1299 3.19615C12.207 3.00361 12.3802 2.94585 12.5728 2.94585C13.4007 3.33093 13.5547 4.21661 13.9976 4.89049C14.6522 5.85319 15.7497 5.94946 16.5198 5.04452C16.7894 4.71721 16.6161 4.38989 16.5198 4.06258C16.2503 3.23466 15.7689 2.4645 15.7882 1.54031C15.9037 1.36703 16.0577 1.27076 16.2695 1.32852C16.9819 1.9639 17.136 2.86883 17.4055 3.69675C17.6366 4.40915 17.9061 4.6787 18.6955 4.40915C20.024 3.96631 20.0048 4.00481 19.8315 2.63779C19.7352 1.92539 19.4079 1.23225 19.5812 0.481348C19.7737 0.231047 20.0048 0.211793 20.2551 0.34657C20.7749 1.11673 20.6979 2.04091 20.8905 2.90734C21.083 3.81227 21.1793 3.85078 22.5078 3.79302C23.2394 3.75451 23.4127 3.36943 23.4127 2.75331C23.432 1.92539 23.3165 1.09747 23.509 0.288809C23.586 0.173285 23.6438 0.0770156 23.7015 0Z" fill="black"/>
<path d="M47.3068 19.1576C47.6726 19.7353 47.3645 20.5247 47.8651 21.083C47.8651 21.6606 47.8651 22.2383 47.8651 22.8159C46.8062 22.8159 45.7665 22.7966 44.7075 22.8159C44.3032 22.8159 44.0529 22.7196 43.9951 22.2575C43.9181 21.6029 43.764 20.9483 43.6678 20.2936C43.61 19.87 43.8603 19.7738 44.2261 19.716C45.2466 19.562 46.2671 19.3502 47.3068 19.1576Z" fill="#360000"/>
<path d="M47.6726 26.8592C47.6533 26.9747 47.6341 27.1095 47.5956 27.225C47.5571 27.225 47.5186 27.225 47.4801 27.225C47.172 26.5319 46.4789 26.8785 45.9783 26.6859C45.3814 26.4549 44.515 26.6474 44.0914 26.2816C43.61 25.8773 44.1299 25.0494 44.0144 24.3947C43.8796 23.6438 44.1684 23.2973 44.9963 23.355C45.9397 23.432 46.9024 23.3743 47.8459 23.3743C47.8459 24.1444 47.8459 24.9146 47.8459 25.6655C47.6148 26.0506 47.8844 26.4741 47.6726 26.8592Z" fill="#390000"/>
<path d="M20.2358 0.423586C20.6594 0.173285 21.237 0.44284 21.6028 0C21.9301 0 22.2382 0 22.5655 0C22.9121 0.231047 23.3164 -0.0192539 23.663 0.173285C23.6822 1.23225 23.6822 2.27196 23.7015 3.33093C23.7207 3.75451 23.586 4.00481 23.1239 3.98556C23.0854 3.98556 23.0661 3.98556 23.0276 3.98556C20.8712 4.19735 20.8712 4.19735 20.4861 2.04091C20.3898 1.50181 20.3128 0.962696 20.2358 0.423586Z" fill="#EF0000"/>
<path d="M26.2045 0.173285C26.5126 0.231047 26.8399 0.308063 27.1479 0.365824C27.2827 0.577617 27.5908 0.365824 27.7256 0.577617C27.3597 1.4633 27.3405 2.42599 27.1672 3.35018C27.0709 3.87004 26.9554 4.08183 26.3393 4.04332C24.2791 3.90854 24.2791 3.94705 24.2791 1.90614C24.2791 1.27076 24.2791 0.635379 24.2791 0C24.5294 0 24.799 0 25.0493 0C25.3958 0.250301 25.8387 -0.0385078 26.2045 0.173285Z" fill="#0E0000"/>
<path d="M16.4813 19.7545C18.6185 19.7545 20.7557 19.7737 22.8929 19.7352C23.5282 19.7159 23.7015 19.9277 23.7015 20.5631C23.7208 22.8736 23.74 22.8736 21.4873 22.5078C21.0445 22.4307 20.4091 22.6233 20.4284 21.7761C20.4284 21.4295 20.0433 21.5066 19.8122 21.5066C18.1757 21.5066 16.5583 21.5066 14.9217 21.5066C14.4982 21.5066 14.2671 21.6028 14.2864 22.0842C14.3056 23.3549 14.3056 24.6449 14.2864 25.9157C14.2864 26.3778 14.4789 26.5126 14.9025 26.5126C16.5583 26.4933 18.2142 26.4933 19.8893 26.5126C20.2743 26.5126 20.4669 26.3971 20.4669 25.9735C20.4669 25.5306 20.2743 25.4151 19.8893 25.4344C19.6004 25.4536 19.3116 25.3959 19.0228 25.4344C18.1371 25.5691 17.8483 25.2033 17.9061 24.3176C17.9446 23.7785 18.1179 23.6052 18.6377 23.6245C20.0818 23.6437 21.5066 23.663 22.9506 23.6245C23.5475 23.6052 23.7208 23.8363 23.7015 24.4139C23.663 25.4729 23.663 26.5126 23.7015 27.5715C23.7208 28.1107 23.5475 28.3032 22.9891 28.3032C19.2539 28.2839 15.5186 28.2839 11.7834 28.3032C11.1865 28.3032 11.0132 28.1107 11.0325 27.533C11.071 25.8002 11.0132 24.0866 11.0517 22.3537C11.071 21.6991 10.8784 21.391 10.2045 21.5066C9.45363 21.6413 9.24184 21.3333 9.24184 20.5631C9.22259 19.7159 9.64617 19.7352 10.243 19.7352C12.3225 19.7545 14.4019 19.7545 16.4813 19.7545Z" fill="#FD0000"/>
<path d="M30.0361 26.4935C31.6727 26.4935 33.3285 26.4935 34.9651 26.4935C35.1191 26.4935 35.3117 26.5127 35.3694 26.3202C35.4464 26.0314 35.3694 25.6655 35.8315 25.6078C36.6787 25.5115 37.7184 25.0494 38.3345 25.3575C39.0854 25.7425 38.5271 26.8978 38.6426 27.7064C38.7004 28.1108 38.4886 28.2841 38.0842 28.2841C37.9495 28.2841 37.8339 28.2841 37.6992 28.2841C34.0987 28.2841 30.4789 28.2648 26.8785 28.3033C26.1468 28.3033 25.8965 28.1108 25.9158 27.3406C25.9543 25.4345 25.9158 25.4345 27.6871 24.6836C29.9976 23.6824 32.3081 22.6812 34.5993 21.5067C32.8857 21.5067 31.1721 21.5067 29.4585 21.5067C29.3622 21.5067 29.1697 21.6222 29.1697 21.68C29.2082 23.0085 28.0914 22.6042 27.4561 22.7389C25.9735 23.0663 25.9543 23.0085 25.9543 21.4489C25.9543 19.7353 25.9543 19.7353 27.6679 19.7353C31.0566 19.7353 34.426 19.7546 37.8147 19.7161C38.4886 19.7161 38.6811 19.8894 38.6811 20.5825C38.6618 22.5464 38.7004 22.5464 36.8905 23.3166C34.5993 24.3178 32.2888 25.2997 29.9976 26.3009C29.9976 26.3587 30.0168 26.4357 30.0361 26.4935Z" fill="#FE0000"/>
<path d="M23.7016 47.8652C22.4115 47.9422 21.1408 47.846 19.8893 47.5187C20.0818 46.4789 20.2744 45.4585 20.4476 44.4188C20.4862 44.1685 20.4862 43.8604 20.852 43.8797C21.6992 43.9374 22.5656 43.9952 23.4127 44.1107C23.8171 44.1685 23.7016 44.5536 23.7016 44.8039C23.7016 45.8243 23.7016 46.8448 23.7016 47.8652Z" fill="#790000"/>
<path d="M32.1541 46.402C30.9603 46.9796 29.6703 47.2684 28.3803 47.4609C28.4381 46.479 28.1878 45.5355 27.9952 44.5728C27.8605 43.9567 27.976 43.6102 28.6499 43.4754C29.3815 43.3406 30.2287 42.8207 30.8063 43.0325C31.4417 43.2636 31.3839 44.3418 31.692 45.0349C31.8653 45.497 32 45.9591 32.1541 46.402Z" fill="#6D0000"/>
<path d="M19.4464 47.4609C18.1371 47.2683 16.8663 46.9603 15.6726 46.3827C16.0384 45.4007 16.4235 44.438 16.7701 43.4561C16.9049 43.0517 17.0589 42.9362 17.521 43.0325C20.101 43.5908 20.101 43.5716 19.6197 46.1324C19.5619 46.5945 19.5041 47.0373 19.4464 47.4609Z" fill="#7D0000"/>
<path d="M36.1588 44.5151C35.042 45.2852 33.829 45.8628 32.5583 46.2864C32.4235 45.2082 31.8459 44.2455 31.5571 43.2251C31.4416 42.8207 31.4223 42.6089 31.8844 42.4549C32.6546 42.2046 33.4055 41.3574 34.1179 41.5307C34.8495 41.7233 34.9843 42.84 35.4656 43.5139C35.7159 43.8412 35.7929 44.2648 36.1588 44.5151Z" fill="#680000"/>
<path d="M39.6245 41.9928C38.6811 42.9555 37.5836 43.7257 36.4091 44.3803C36.1396 43.3791 35.5042 42.5897 35.0036 41.704C34.7148 41.2034 34.6763 40.8376 35.2731 40.5873C35.3309 40.568 35.3887 40.5103 35.4272 40.491C37.3141 39.201 37.3141 39.201 38.7388 41.0301C38.9892 41.3767 39.2395 41.7425 39.6245 41.9928Z" fill="#600000"/>
<path d="M11.3982 44.3033C10.2237 43.7064 9.20327 42.917 8.25983 42.0121C8.93371 41.2612 9.62685 40.5295 10.2622 39.7401C10.6088 39.3165 10.8206 39.2202 11.3212 39.6053C13.2851 41.1264 13.3044 41.1071 12.0143 43.2443C11.7833 43.5909 11.5908 43.9567 11.3982 44.3033Z" fill="#8B0000"/>
<path d="M7.97107 41.7424C6.95061 40.9338 6.06493 40.0096 5.31403 38.9506C5.62209 38.1997 6.31523 37.8916 6.96986 37.5451C7.1624 37.3333 7.35494 37.1215 7.58599 36.9482C7.97107 36.6401 8.35614 36.5246 8.70271 37.0445C8.876 37.314 9.10705 37.5451 9.29958 37.7761C10.3008 38.9313 10.3008 38.9313 9.29958 40.1251C8.85674 40.6642 8.41391 41.2033 7.97107 41.7424Z" fill="#8E0000"/>
<path d="M15.249 46.2286C13.9782 45.8436 12.823 45.2467 11.7255 44.515C12.4187 43.7641 12.8037 42.8014 13.3043 41.935C13.6124 41.4152 13.9205 41.2611 14.4211 41.6462C14.4981 41.704 14.5944 41.7425 14.6521 41.8002C15.172 42.2431 16.2309 42.1468 16.3465 42.8399C16.462 43.4368 15.9806 44.1492 15.7688 44.8038C15.5956 45.2852 15.4223 45.7473 15.249 46.2286Z" fill="#880000"/>
<path d="M42.5896 38.9121C41.8002 39.9903 40.9145 40.9723 39.8555 41.8002C39.432 40.9723 38.7581 40.3369 38.1612 39.6437C37.6991 39.1046 37.391 38.6233 38.1805 38.1227C38.373 38.0072 38.5078 37.8146 38.6618 37.6606C39.7593 36.5631 39.74 36.5631 40.953 37.6413C41.4729 38.1034 42.0505 38.4885 42.5896 38.9121Z" fill="#550000"/>
<path d="M44.9771 35.2924C44.3995 36.5439 43.6486 37.6991 42.7244 38.7388C42.3778 37.8724 41.5499 37.5066 40.8953 36.9867C40.2214 36.4476 39.894 36.0625 40.5679 35.1961C41.7617 33.6558 41.6847 33.598 43.4368 34.58C43.9374 34.8495 44.361 35.2924 44.9771 35.2924Z" fill="#4A0000"/>
<path d="M5.08296 38.6426C4.25504 37.6607 3.5234 36.621 3.00354 35.4465C3.90847 34.9074 4.81341 34.3875 5.71834 33.8484C6.06491 33.6366 6.35372 33.5596 6.54626 34.0217C6.62328 34.195 6.75805 34.349 6.85432 34.5031C7.83627 36.0434 7.83627 36.0434 6.64253 37.3141C6.21894 37.8917 5.75685 38.3923 5.08296 38.6426Z" fill="#8E0000"/>
<path d="M2.7725 35.0421C2.07936 33.9446 1.57875 32.7701 1.27069 31.4994C2.17562 31.1913 3.09981 30.9218 3.98549 30.5559C4.58236 30.3056 5.0252 30.2671 5.14073 31.0565C5.15998 31.1721 5.237 31.2876 5.2755 31.4031C5.9879 33.1167 5.9879 33.1167 4.40908 34.0409C3.86997 34.3682 3.33086 34.7148 2.7725 35.0421Z" fill="#8F0000"/>
<path d="M46.6907 31.2684C46.3248 32.6739 45.7665 34.0217 44.9963 35.2539C44.4957 34.3298 43.4945 34.0602 42.6666 33.5788C41.9542 33.1745 41.8194 32.8279 42.2815 32.1926C42.32 32.1348 42.3393 32.077 42.3585 32.0193C43.1287 30.2094 43.1287 30.2094 44.9771 30.9411C45.5354 31.1721 46.036 31.5957 46.6907 31.2684Z" fill="#430000"/>
<path d="M27.9374 47.5186C26.7244 47.8459 25.4921 47.9422 24.2406 47.8652C24.2406 46.8447 24.2406 45.8243 24.2599 44.8038C24.2599 44.5342 24.1443 44.1492 24.5487 44.1107C25.3381 43.9951 26.1275 43.9374 26.9169 43.8796C27.3597 43.8411 27.4368 44.2069 27.4945 44.515C27.6678 45.5162 27.8026 46.5174 27.9374 47.5186Z" fill="#720000"/>
<path d="M47.4801 27.2059C47.5186 27.2059 47.5571 27.2059 47.5956 27.2059C47.4609 28.5151 47.2298 29.8244 46.7292 31.0374C45.8243 30.7101 44.9386 30.402 44.0337 30.0747C43.8796 30.0169 43.6871 29.9977 43.6101 29.8821C42.8784 28.9772 43.7834 28.1493 43.7834 27.2829C43.7834 26.7245 44.2262 26.8593 44.6305 26.917C45.5932 27.0326 46.4982 27.5524 47.4801 27.2059Z" fill="#3D0000"/>
<path d="M1.13606 31.0565C0.693217 29.9013 0.385154 28.6883 0.327393 27.4368C1.34785 27.2635 2.38756 27.1288 3.40802 26.917C3.90862 26.8207 4.13967 26.8785 4.15892 27.4176C4.17817 28.2262 4.94833 29.1312 4.44773 29.7665C4.02414 30.3056 3.04219 30.4019 2.29129 30.6715C1.90621 30.8062 1.52113 30.9218 1.13606 31.0565Z" fill="#9B0000"/>
<path d="M0.269539 27.071C0.0577456 25.8003 -0.0962857 24.5295 0.0769995 23.2395C1.11671 23.4513 2.15642 23.2973 3.19613 23.3358C3.63897 23.3358 3.90853 23.3935 3.83151 23.9519C3.77375 24.3177 3.85077 24.7221 3.92778 25.0879C4.15883 26.1083 3.63897 26.4934 2.73404 26.6282C1.92537 26.763 1.09746 26.917 0.269539 27.071Z" fill="#A50000"/>
<path d="M0.115441 22.7966C0.0384257 21.5643 0.250219 20.3513 0.558281 19.1768C1.59799 19.3694 2.61845 19.5812 3.65816 19.7159C4.15876 19.7929 4.31279 19.9855 4.17802 20.4668C4.101 20.7364 4.101 21.0252 4.04324 21.314C3.79294 22.7966 3.79294 22.7966 2.21412 22.7966C1.52098 22.7966 0.827836 22.7966 0.115441 22.7966Z" fill="#AC0000"/>
<path d="M46.1516 15.3069C46.71 16.4043 47.0373 17.5596 47.2299 18.7726C46.1709 18.7148 45.1697 19.1576 44.13 19.2154C44.0915 19.2154 44.0722 19.2346 44.0337 19.2539C43.4946 19.4849 43.2635 19.0999 43.2828 18.7148C43.3213 17.9061 42.0505 17.0012 43.1095 16.3658C43.9952 15.8267 45.0734 15.4609 46.1516 15.3069Z" fill="#310000"/>
<path d="M0.693115 18.7147C0.847147 17.444 1.25148 16.2695 1.79059 15.1335C2.65701 15.7111 3.65822 15.9037 4.60166 16.2695C5.08301 16.462 5.41032 16.616 5.08301 17.1937C4.69793 17.8483 4.92898 18.9265 4.23583 19.2153C3.65822 19.4464 2.8303 19.0805 2.09865 18.965C1.6173 18.8688 1.15521 18.7917 0.693115 18.7147Z" fill="#AF0000"/>
<path d="M38.8543 5.41028C39.9711 6.12267 40.876 7.04686 41.7039 8.06732C40.6257 8.41389 40.0481 9.41509 39.1432 9.97345C38.9699 10.0697 38.8543 10.397 38.604 10.1852C38.0072 9.66539 37.4103 9.14554 36.8327 8.62568C36.6016 8.43314 36.6979 8.27911 36.8519 8.06732C37.5066 7.16238 38.1805 6.2767 38.8543 5.41028Z" fill="#2A0000"/>
<path d="M1.92542 14.7485C2.32975 13.6125 2.8496 12.5343 3.58125 11.5524C4.50544 12.0915 5.44888 12.6498 6.39232 13.1697C6.75815 13.3622 6.83516 13.574 6.60411 13.9206C6.58486 13.9398 6.56561 13.9783 6.54635 13.9976C5.54515 16.0385 5.54515 16.0385 3.44647 15.3069C2.92662 15.1336 2.42602 14.941 1.92542 14.7485Z" fill="#B20000"/>
<path d="M41.7232 8.08664C42.6858 9.04934 43.4945 10.1276 44.1684 11.302C43.1864 11.4368 42.4548 12.0915 41.6654 12.5921C41.03 12.9964 40.5679 12.9964 40.2021 12.284C40.1443 12.1685 40.0673 12.0722 39.9903 11.9759C38.9506 10.6282 38.9506 10.6474 40.3561 9.6077C40.8952 9.18411 41.4921 8.79903 41.7232 8.08664Z" fill="#310000"/>
<path d="M44.2455 11.4561C44.9772 12.4765 45.5548 13.5547 45.9398 14.7485C44.9001 15.1336 43.8604 15.5186 42.8207 15.923C42.7244 15.9615 42.6089 16.0385 42.5704 16.0192C41.858 15.4416 41.6462 14.556 41.2612 13.7665C41.0301 13.3044 41.55 13.1504 41.858 12.9579C42.6474 12.4573 43.5716 12.1685 44.2455 11.4561Z" fill="#310000"/>
<path d="M3.83142 11.1288C4.40904 10.0699 5.14069 9.10718 6.00711 8.26001C7.02757 8.76061 7.87474 9.47301 8.54863 10.3779C8.66415 10.5705 8.85669 10.7245 8.66415 10.9748C8.60639 11.0518 8.54863 11.1288 8.49087 11.2059C7.20086 13.0542 7.20086 13.0542 5.2177 11.9375C4.75561 11.6872 4.29351 11.3984 3.83142 11.1288Z" fill="#C00000"/>
<path d="M27.7256 0.596864C27.5138 0.558356 27.2828 0.616118 27.148 0.385071C28.8038 0.500594 30.4019 0.885672 31.9422 1.54031C31.4994 1.54031 31.3646 1.88688 31.2298 2.21419C31.1143 2.503 31.0566 2.83032 30.941 3.11913C30.2479 4.98676 29.8821 5.14079 27.9952 4.35138C27.6101 4.19735 27.4753 3.9663 27.5716 3.54271C27.7449 2.77256 27.8989 2.0024 28.0337 1.23224C28.13 0.92418 28.1685 0.635372 27.7256 0.596864Z" fill="#120000"/>
<path d="M6.27673 7.95187C7.02764 7.00842 7.89406 6.18051 8.89527 5.48737C9.89647 6.10349 10.5318 7.02768 11.071 8.02888C11.1095 8.18291 11.225 8.39471 11.1672 8.45247C10.5511 9.06859 9.91572 9.66547 9.26109 10.2431C9.20333 10.2816 9.03004 10.2046 8.91452 10.1661C7.87481 9.62696 6.95062 8.95307 6.27673 7.95187Z" fill="#DC0000"/>
<path d="M35.6196 3.19608C36.7171 3.79295 37.8723 4.3128 38.6425 5.37177C37.7568 5.87237 37.2947 6.7773 36.6786 7.50895C36.3128 7.95179 36.1395 8.02881 35.6389 7.70149C33.752 6.46924 33.7327 6.48849 34.9265 4.54385C35.1768 4.12026 35.3886 3.65817 35.6196 3.19608Z" fill="#240000"/>
<path d="M9.31879 5.16001C10.1852 4.35135 11.1287 3.71597 12.2069 3.23462C12.746 4.15881 13.2658 5.10225 13.8242 6.02644C14.036 6.37301 14.036 6.56555 13.6509 6.77734C13.1311 7.06615 12.6112 7.41272 12.1491 7.77854C11.764 8.10586 11.533 7.89407 11.2634 7.64376C10.4355 6.96988 9.66536 6.23823 9.31879 5.16001Z" fill="#E10000"/>
<path d="M31.9422 1.54031C33.1744 1.86763 34.3104 2.38749 35.3886 3.08063C34.58 3.71601 34.2912 4.6787 33.8098 5.52587C33.4825 6.08424 33.2129 6.21901 32.6161 5.9302C30.7869 5.06378 30.8062 5.08303 31.4223 3.15764C31.5956 2.59928 31.9614 2.13718 31.9422 1.54031Z" fill="#1A0000"/>
<path d="M12.6113 2.98428C13.6318 2.36816 14.6715 1.8483 15.846 1.55949C16.2118 2.54144 16.5776 3.52339 16.9242 4.5246C17.0205 4.79415 17.1553 5.08296 16.7702 5.25624C16.1348 5.54505 15.4994 5.83386 14.8448 6.10342C14.4597 6.25745 14.3442 5.94939 14.2094 5.69908C13.6895 4.79415 13.1504 3.88922 12.6113 2.98428Z" fill="#E40000"/>
<path d="M16.3273 1.36707C17.4056 0.92423 18.5223 0.596913 19.6968 0.519897C19.8893 1.5211 20.0626 2.5223 20.2551 3.52351C20.3514 4.00486 20.2359 4.25516 19.6968 4.38993C17.6366 4.89054 17.6366 4.90979 16.8857 2.88813C16.6932 2.38753 16.5199 1.88693 16.3273 1.36707Z" fill="#E90000"/>
<path d="M6.27672 7.95183C7.22016 8.62571 8.08659 9.37662 8.91451 10.166C8.74122 10.166 8.60645 10.2238 8.52943 10.3778C7.60524 9.7617 6.77733 9.03005 5.98792 8.25989C6.08418 8.16362 6.18045 8.0481 6.27672 7.95183Z" fill="#160101"/>
<path d="M9.31888 5.16C9.97352 5.98792 10.6281 6.81584 11.302 7.64376C11.148 7.72077 11.0902 7.85555 11.0902 8.02884C10.3586 7.18166 9.62695 6.33449 8.91455 5.48732C9.03007 5.3718 9.16485 5.25627 9.31888 5.16Z" fill="#170101"/>
<path d="M5.08295 38.6426C5.52579 38.1034 6.02639 37.6606 6.62326 37.314C6.70027 37.4681 6.8158 37.5451 6.98908 37.5451C6.50773 38.1035 5.89161 38.4885 5.33325 38.9506C5.15996 38.9121 5.1022 38.7966 5.08295 38.6426Z" fill="#100000"/>
</g>
<defs>
<clipPath id="clip0_2_6576">
<rect width="47.846" height="48" fill="white"/>
</clipPath>
</defs>
</svg>
