<svg width="48" height="48" viewBox="0 0 48 48" fill="none" xmlns="http://www.w3.org/2000/svg">
<circle cx="24" cy="24" r="22.5" stroke="white" stroke-width="3"/>
<path d="M33.862 29.961C35.1448 31.6641 36.4678 33.4069 37.7907 35.1496C35.1448 38.239 31.8575 40.2194 27.8887 41.0512C23.4789 41.9622 19.3096 41.2889 15.2606 39.0708C18.8686 36.4171 22.3965 33.8029 25.9644 31.1888C26.7662 31.9414 27.5279 32.6939 28.2896 33.4069C29.1315 34.199 28.8107 34.2386 29.8931 33.6445C31.3764 32.8127 32.6192 31.6641 33.5813 30.2778C33.6214 30.1986 33.7016 30.1194 33.7417 30.0402C33.7016 30.0402 33.7417 30.0402 33.862 29.961ZM18.1069 33.4465C17.1047 34.199 16.1827 34.8724 15.2606 35.5853C14.5791 36.1002 13.8976 36.5755 13.2161 37.0904C12.9354 37.3281 12.735 37.3281 12.4143 37.0508C9.3675 34.3575 7.44322 31.0304 6.72162 27.0696C6.00001 23.0692 6.64144 19.2668 8.56572 15.6625C8.60581 15.5833 8.68599 15.4644 8.72608 15.3852C8.72608 15.3456 8.76616 15.3456 8.84634 15.306C11.4922 18.7519 14.1782 22.1978 16.8241 25.6437C16.7439 25.7625 16.7038 25.8417 16.6236 25.9209C15.8219 26.7527 15.0201 27.5845 14.1782 28.3766C13.9377 28.6143 13.8976 28.8123 14.0579 29.0896C14.8998 30.6739 16.0624 31.981 17.5056 33.0504C17.706 33.1692 17.8664 33.288 18.1069 33.4465ZM33.0602 8.84989C31.7773 9.76088 30.4945 10.6719 29.2116 11.5432C27.0067 13.088 24.8018 14.6723 22.637 16.217C22.3564 16.415 22.1559 16.4546 21.9154 16.1774C21.1938 15.4248 20.4321 14.7515 19.7105 13.9989C19.5101 13.8009 19.3096 13.7613 19.029 13.8801C17.3052 14.7515 15.9421 15.9793 14.8196 17.524C14.7394 17.6033 14.6593 17.7221 14.5791 17.8409C13.9377 17.0091 13.3363 16.2566 12.735 15.4644C12.0936 14.6327 11.4922 13.8009 10.8909 13.0087C10.6904 12.7315 10.6504 12.5334 10.931 12.2562C14.0178 8.8895 17.8263 6.9091 22.3965 6.43381C26.0045 6.03773 29.4522 6.75067 32.6593 8.45381C32.7796 8.53303 32.8998 8.57264 33.0201 8.65185C33.0201 8.77068 33.0201 8.81029 33.0602 8.84989ZM39.5947 32.6147C38.7528 31.5453 37.9912 30.5551 37.2295 29.5649C35.4655 27.2676 33.7016 24.9307 31.8976 22.6335C31.6571 22.3166 31.6571 22.1186 31.9377 21.8413C32.6994 21.0888 33.421 20.3362 34.1827 19.5837C34.3831 19.3856 34.4633 19.1876 34.3029 18.9103C33.421 17.2468 32.2183 15.8605 30.6548 14.7515C30.5346 14.6723 30.4143 14.5534 30.2539 14.4742C30.3742 14.3554 30.4945 14.2762 30.5747 14.197C32.0981 13.0483 33.6214 11.9393 35.1448 10.7907C35.3854 10.5926 35.5858 10.5134 35.8664 10.7907C39.6749 14.197 41.7194 18.435 41.9199 23.5445C42.0001 26.5151 41.3186 29.3272 39.9555 31.981C39.8353 32.1394 39.715 32.3374 39.5947 32.6147Z" fill="white"/>
</svg>
